<?xml version="1.0" encoding="utf-8"?>
<!-- Generator: Adobe Illustrator 19.0.0, SVG Export Plug-In . SVG Version: 6.00 Build 0)  -->
<svg version="1.1" id="圖層_1" xmlns="http://www.w3.org/2000/svg" xmlns:xlink="http://www.w3.org/1999/xlink" x="0px" y="0px"
	 viewBox="0 0 550 143.3" style="enable-background:new 0 0 550 143.3;" xml:space="preserve">
<style type="text/css">
	.st0{fill:#999999;}
	.st1{fill:#A3242E;}
</style>
<g id="XMLID_536_">
	<g id="XMLID_121_">
		<path id="XMLID_122_" class="st0" d="M77.4,61.7c0,0.3,0.2,0.5,0.5,0.5h23.7c0.6,0,1.2,0.2,1.6,0.6c0.4,0.4,0.6,1,0.6,1.6
			c0,0.6-0.2,1.2-0.6,1.6c-0.4,0.4-1,0.6-1.6,0.6h-49c-0.6,0-1.1-0.2-1.6-0.6c-0.4-0.4-0.7-1-0.7-1.6c0-0.6,0.2-1.2,0.7-1.6
			c0.4-0.4,1-0.6,1.6-0.6h19.7c0.3,0,0.4-0.2,0.4-0.5V17.9c0-0.6,0.2-1.2,0.7-1.6s1-0.7,1.7-0.7s1.2,0.2,1.6,0.7
			c0.4,0.5,0.7,1,0.7,1.6v15.6c0,0.3,0.2,0.5,0.5,0.5h19.6c0.6,0,1.2,0.2,1.6,0.6c0.4,0.4,0.6,0.9,0.6,1.6c0,0.6-0.2,1.1-0.6,1.6
			c-0.4,0.4-1,0.6-1.6,0.6H77.9c-0.3,0-0.5,0.2-0.5,0.5V61.7z"/>
		<path id="XMLID_124_" class="st0" d="M168.9,19.7c0.4,0.4,0.7,0.6,0.7,0.6s0,0.3,0,0.9c0,0.6-0.2,1.1-0.7,1.6
			c-0.4,0.4-1,0.6-1.6,0.6h-22.7c-0.3,0-0.5,0.2-0.5,0.5V34c0,0,0,0.1,0.1,0.1c0.5-0.5,1-0.7,1.6-0.4c7,3.4,13.1,6.9,18.3,10.5
			c0.6,0.4,0.9,0.9,1,1.6c0,0.1,0.1,0.2,0.1,0.4c0,0.5-0.2,1.1-0.5,1.5c-0.4,0.5-1,0.9-1.7,0.9c-0.1,0-0.2,0-0.4,0
			c-0.5,0-1.1-0.2-1.5-0.5c-4.3-3.2-9.9-6.5-16.6-10.1c-0.1,0-0.2,0-0.3,0c-0.1,0-0.1,0.1-0.1,0.2v28.7c0,0.7-0.2,1.2-0.7,1.7
			c-0.4,0.5-1,0.7-1.7,0.7c-0.7,0-1.2-0.2-1.7-0.7c-0.4-0.5-0.7-1-0.7-1.7v-43c0-0.3-0.2-0.5-0.5-0.5h-20.3c-0.6,0-1.1-0.2-1.6-0.6
			c-0.4-0.4-0.7-0.9-0.7-1.6c0-0.6,0.2-1.1,0.7-1.6c0.4-0.4,1-0.6,1.6-0.6h48.6C167.9,19.1,168.5,19.3,168.9,19.7z"/>
		<path id="XMLID_126_" class="st0" d="M198.1,55c0.5-0.1,1,0,1.4,0.2c0.4,0.3,0.7,0.7,0.8,1.2c0.1,0.5,0,1.1-0.4,1.6
			c-0.3,0.5-0.7,0.8-1.3,1c-4,1.2-8.9,2.7-14.8,4.4c-0.5,0.2-1.1,0.1-1.6-0.2c-0.5-0.3-0.8-0.7-1-1.3c0-0.2,0-0.3,0-0.5
			c0-0.4,0.1-0.8,0.3-1.1c0.3-0.5,0.8-0.8,1.3-1c1-0.3,2.7-0.7,5.1-1.4c0.3-0.1,0.4-0.3,0.4-0.5V42.1c0-0.3-0.2-0.4-0.5-0.4h-3.6
			c-0.6,0-1.1-0.2-1.5-0.6c-0.4-0.4-0.6-0.9-0.6-1.4c0-0.6,0.2-1,0.6-1.4c0.4-0.4,0.9-0.6,1.5-0.6h3.6c0.3,0,0.5-0.1,0.5-0.4V23
			c0-0.3-0.2-0.5-0.5-0.5h-4.2c-0.6,0-1.1-0.2-1.5-0.6c-0.4-0.4-0.6-0.9-0.6-1.4c0-0.6,0.2-1.1,0.6-1.5c0.4-0.4,0.9-0.6,1.5-0.6
			h13.5c0.6,0,1.1,0.2,1.5,0.6c0.4,0.4,0.6,0.9,0.6,1.5c0,0.6-0.2,1-0.6,1.4c-0.4,0.4-0.9,0.6-1.5,0.6h-4.3c-0.3,0-0.5,0.2-0.5,0.5
			v14.2c0,0.3,0.2,0.4,0.5,0.4h3.2c0.6,0,1.1,0.2,1.5,0.6c0.4,0.4,0.6,0.9,0.6,1.4c0,0.6-0.2,1-0.6,1.4c-0.4,0.4-0.9,0.6-1.5,0.6
			h-3.2c-0.3,0-0.5,0.1-0.5,0.4v14.1c0,0.1,0,0.2,0.1,0.3c0.1,0.1,0.2,0.1,0.3,0.1L198.1,55z M210.8,15.2c0.4-0.4,0.9-0.6,1.4-0.6
			c0.5,0,1,0.2,1.4,0.6c0.4,0.4,0.6,0.9,0.6,1.4V40c0,2.5-0.1,4.8-0.2,6.7c-0.1,1.9-0.4,4-0.9,6.1c-0.4,2.2-1.1,4.1-1.8,5.8
			c-0.8,1.7-1.9,3.4-3.2,5c-1.4,1.7-3,3.2-4.9,4.6c-0.4,0.2-0.8,0.4-1.2,0.4c-0.1,0-0.2,0-0.4,0c-0.6-0.1-1.1-0.4-1.5-0.8
			c-0.4-0.4-0.5-0.8-0.5-1.2c0-0.6,0.3-1.1,0.8-1.4c1.7-1.3,3.2-2.6,4.4-4.1c1.2-1.5,2.2-3,2.9-4.5c0.7-1.5,1.3-3.2,1.7-5.2
			s0.7-3.7,0.8-5.4c0.1-1.7,0.2-3.7,0.2-5.9V16.6C210.2,16.1,210.4,15.6,210.8,15.2z M201.2,22c0.4-0.4,0.8-0.6,1.3-0.6
			s1,0.2,1.3,0.6c0.4,0.4,0.6,0.8,0.6,1.3v23.3c0,0.5-0.2,0.9-0.6,1.3c-0.4,0.4-0.8,0.6-1.3,0.6s-1-0.2-1.3-0.6
			c-0.4-0.4-0.6-0.8-0.6-1.3V23.3C200.6,22.8,200.8,22.3,201.2,22z M227.4,62.8c0,0.3,0.2,0.4,0.5,0.4h6.7c0.5,0,1,0.2,1.4,0.6
			c0.4,0.4,0.6,0.9,0.6,1.5s-0.2,1.1-0.6,1.5s-0.9,0.6-1.4,0.6h-20.9c-0.5,0-1-0.2-1.4-0.6s-0.6-0.9-0.6-1.5s0.2-1.1,0.6-1.5
			c0.4-0.4,0.9-0.6,1.4-0.6h9.1c0.3,0,0.5-0.1,0.5-0.4V44.5c0-0.3-0.2-0.4-0.5-0.4h-4.5c-0.5,0-1-0.2-1.4-0.6
			c-0.4-0.4-0.6-0.9-0.6-1.4c0-0.6,0.2-1,0.6-1.4c0.4-0.4,0.9-0.6,1.4-0.6h4.5c0.3,0,0.5-0.1,0.5-0.4V22.7c0-0.3-0.2-0.4-0.5-0.4h-5
			c-0.5,0-1-0.2-1.4-0.6c-0.4-0.4-0.6-0.9-0.6-1.4c0-0.6,0.2-1.1,0.6-1.5c0.4-0.4,0.9-0.6,1.4-0.6h15.6c0.5,0,1,0.2,1.4,0.6
			s0.6,0.9,0.6,1.5c0,0.6-0.2,1-0.6,1.4c-0.4,0.4-0.9,0.6-1.4,0.6h-5.4c-0.3,0-0.5,0.1-0.5,0.4v16.9c0,0.3,0.2,0.4,0.5,0.4h5.1
			c0.5,0,1,0.2,1.4,0.6c0.4,0.4,0.6,0.9,0.6,1.4c0,0.6-0.2,1-0.6,1.4c-0.4,0.4-0.9,0.6-1.4,0.6h-5.1c-0.3,0-0.5,0.1-0.5,0.4V62.8z"
			/>
	</g>
	<g id="XMLID_1_">
		<path id="XMLID_2_" class="st1" d="M75.1,58.7c0,0.3,0.2,0.5,0.5,0.5h23.7c0.6,0,1.2,0.2,1.6,0.6c0.4,0.4,0.6,1,0.6,1.6
			s-0.2,1.2-0.6,1.6c-0.4,0.4-1,0.6-1.6,0.6h-49c-0.6,0-1.1-0.2-1.6-0.6c-0.4-0.4-0.7-1-0.7-1.6s0.2-1.2,0.7-1.6
			c0.4-0.4,1-0.6,1.6-0.6H70c0.3,0,0.4-0.2,0.4-0.5V14.9c0-0.6,0.2-1.2,0.7-1.6s1-0.7,1.7-0.7s1.2,0.2,1.6,0.7
			c0.4,0.5,0.7,1,0.7,1.6v15.6c0,0.3,0.2,0.5,0.5,0.5h19.6c0.6,0,1.2,0.2,1.6,0.6c0.4,0.4,0.6,0.9,0.6,1.6c0,0.6-0.2,1.1-0.6,1.6
			c-0.4,0.4-1,0.6-1.6,0.6H75.5c-0.3,0-0.5,0.2-0.5,0.5V58.7z"/>
		<path id="XMLID_4_" class="st1" d="M166.6,16.7c0.4,0.4,0.7,0.6,0.7,0.6s0,0.3,0,0.9c0,0.6-0.2,1.1-0.7,1.6
			c-0.4,0.4-1,0.6-1.6,0.6h-22.7c-0.3,0-0.5,0.2-0.5,0.5V31c0,0,0,0.1,0.1,0.1c0.5-0.5,1-0.7,1.6-0.4c7,3.4,13.1,6.9,18.3,10.5
			c0.6,0.4,0.9,0.9,1,1.6c0,0.1,0.1,0.2,0.1,0.4c0,0.5-0.2,1.1-0.5,1.5c-0.4,0.5-1,0.9-1.7,0.9c-0.1,0-0.2,0-0.4,0
			c-0.5,0-1.1-0.2-1.5-0.5c-4.3-3.2-9.9-6.5-16.6-10.1c-0.1,0-0.2,0-0.3,0c-0.1,0-0.1,0.1-0.1,0.2v28.7c0,0.7-0.2,1.2-0.7,1.7
			c-0.4,0.5-1,0.7-1.7,0.7c-0.7,0-1.2-0.2-1.7-0.7c-0.4-0.5-0.7-1-0.7-1.7v-43c0-0.3-0.2-0.5-0.5-0.5h-20.3c-0.6,0-1.1-0.2-1.6-0.6
			c-0.4-0.4-0.7-0.9-0.7-1.6c0-0.6,0.2-1.1,0.7-1.6c0.4-0.4,1-0.6,1.6-0.6H165C165.6,16.1,166.1,16.3,166.6,16.7z"/>
		<path id="XMLID_6_" class="st1" d="M195.8,52c0.5-0.1,1,0,1.4,0.2c0.4,0.3,0.7,0.7,0.8,1.2c0.1,0.5,0,1.1-0.4,1.6
			c-0.3,0.5-0.7,0.8-1.3,1c-4,1.2-8.9,2.7-14.8,4.4c-0.5,0.2-1.1,0.1-1.6-0.2c-0.5-0.3-0.8-0.7-1-1.3c0-0.2,0-0.3,0-0.5
			c0-0.4,0.1-0.8,0.3-1.1c0.3-0.5,0.8-0.8,1.3-1c1-0.3,2.7-0.7,5.1-1.4c0.3-0.1,0.4-0.3,0.4-0.5V39.1c0-0.3-0.2-0.4-0.5-0.4h-3.6
			c-0.6,0-1.1-0.2-1.5-0.6c-0.4-0.4-0.6-0.9-0.6-1.4c0-0.6,0.2-1,0.6-1.4c0.4-0.4,0.9-0.6,1.5-0.6h3.6c0.3,0,0.5-0.1,0.5-0.4V20
			c0-0.3-0.2-0.5-0.5-0.5h-4.2c-0.6,0-1.1-0.2-1.5-0.6c-0.4-0.4-0.6-0.9-0.6-1.4c0-0.6,0.2-1.1,0.6-1.5c0.4-0.4,0.9-0.6,1.5-0.6H195
			c0.6,0,1.1,0.2,1.5,0.6c0.4,0.4,0.6,0.9,0.6,1.5c0,0.6-0.2,1-0.6,1.4c-0.4,0.4-0.9,0.6-1.5,0.6h-4.3c-0.3,0-0.5,0.2-0.5,0.5v14.2
			c0,0.3,0.2,0.4,0.5,0.4h3.2c0.6,0,1.1,0.2,1.5,0.6c0.4,0.4,0.6,0.9,0.6,1.4c0,0.6-0.2,1-0.6,1.4c-0.4,0.4-0.9,0.6-1.5,0.6h-3.2
			c-0.3,0-0.5,0.1-0.5,0.4v14.1c0,0.1,0,0.2,0.1,0.3c0.1,0.1,0.2,0.1,0.3,0.1L195.8,52z M208.5,12.2c0.4-0.4,0.9-0.6,1.4-0.6
			c0.5,0,1,0.2,1.4,0.6c0.4,0.4,0.6,0.9,0.6,1.4V37c0,2.5-0.1,4.8-0.2,6.7c-0.1,1.9-0.4,4-0.9,6.1c-0.4,2.2-1.1,4.1-1.8,5.8
			c-0.8,1.7-1.9,3.4-3.2,5c-1.4,1.7-3,3.2-4.9,4.6c-0.4,0.2-0.8,0.4-1.2,0.4c-0.1,0-0.2,0-0.4,0c-0.6-0.1-1.1-0.4-1.5-0.8
			c-0.4-0.4-0.5-0.8-0.5-1.2c0-0.6,0.3-1.1,0.8-1.4c1.7-1.2,3.2-2.6,4.4-4.1c1.2-1.5,2.2-3,2.9-4.5c0.7-1.5,1.3-3.2,1.7-5.2
			s0.7-3.7,0.8-5.4c0.1-1.7,0.2-3.7,0.2-5.9V13.6C207.9,13.1,208.1,12.6,208.5,12.2z M198.8,19c0.4-0.4,0.8-0.6,1.3-0.6
			s1,0.2,1.3,0.6c0.4,0.4,0.6,0.8,0.6,1.3v23.3c0,0.5-0.2,0.9-0.6,1.3c-0.4,0.4-0.8,0.6-1.3,0.6s-1-0.2-1.3-0.6
			c-0.4-0.4-0.6-0.8-0.6-1.3V20.3C198.3,19.8,198.4,19.3,198.8,19z M225,59.8c0,0.3,0.2,0.4,0.5,0.4h6.7c0.5,0,1,0.2,1.4,0.6
			s0.6,0.9,0.6,1.5s-0.2,1.1-0.6,1.5c-0.4,0.4-0.9,0.6-1.4,0.6h-20.9c-0.5,0-1-0.2-1.4-0.6c-0.4-0.4-0.6-0.9-0.6-1.5
			s0.2-1.1,0.6-1.5s0.9-0.6,1.4-0.6h9.1c0.3,0,0.5-0.1,0.5-0.4V41.5c0-0.3-0.2-0.4-0.5-0.4h-4.5c-0.5,0-1-0.2-1.4-0.6
			c-0.4-0.4-0.6-0.9-0.6-1.4c0-0.6,0.2-1,0.6-1.4c0.4-0.4,0.9-0.6,1.4-0.6h4.5c0.3,0,0.5-0.1,0.5-0.4V19.7c0-0.3-0.2-0.4-0.5-0.4h-5
			c-0.5,0-1-0.2-1.4-0.6c-0.4-0.4-0.6-0.9-0.6-1.4c0-0.6,0.2-1.1,0.6-1.5c0.4-0.4,0.9-0.6,1.4-0.6H231c0.5,0,1,0.2,1.4,0.6
			s0.6,0.9,0.6,1.5c0,0.6-0.2,1-0.6,1.4c-0.4,0.4-0.9,0.6-1.4,0.6h-5.4c-0.3,0-0.5,0.1-0.5,0.4v16.9c0,0.3,0.2,0.4,0.5,0.4h5.1
			c0.5,0,1,0.2,1.4,0.6c0.4,0.4,0.6,0.9,0.6,1.4c0,0.6-0.2,1-0.6,1.4c-0.4,0.4-0.9,0.6-1.4,0.6h-5.1c-0.3,0-0.5,0.1-0.5,0.4V59.8z"
			/>
		<path id="XMLID_11_" d="M257.4,24.8c0.8,0,1.4,0.3,1.9,0.8c0.5,0.5,0.8,1.2,0.8,1.9v25.8c0,0.8-0.3,1.4-0.8,2
			c-0.5,0.5-1.2,0.8-1.9,0.8h-7.2c-0.2,0-0.3,0.1-0.3,0.4v1.9c0,0.5-0.2,0.9-0.5,1.2s-0.7,0.5-1.2,0.5c-0.5,0-0.8-0.2-1.1-0.5
			c-0.3-0.3-0.5-0.7-0.5-1.2V27.6c0-0.8,0.3-1.4,0.8-1.9c0.5-0.5,1.2-0.8,2-0.8H257.4z M256.8,28.4c0-0.2-0.1-0.4-0.3-0.4h-6.3
			c-0.2,0-0.3,0.1-0.3,0.4v9.9c0,0.2,0.1,0.3,0.3,0.3h6.3c0.2,0,0.3-0.1,0.3-0.3V28.4z M249.8,52.5c0,0.2,0.1,0.4,0.3,0.4h6.3
			c0.2,0,0.3-0.1,0.3-0.4V42.1c0-0.2-0.1-0.3-0.3-0.3h-6.3c-0.2,0-0.3,0.1-0.3,0.3V52.5z M288.4,37.1c0.3,0.3,0.5,0.7,0.5,1.1
			s-0.2,0.8-0.5,1.1c-0.3,0.3-0.7,0.5-1.1,0.5h-4.1c-0.3,0-0.4,0.1-0.4,0.3v4.7c0,0.2,0.1,0.4,0.4,0.4h3.6c0.4,0,0.8,0.1,1.1,0.4
			c0.3,0.3,0.5,0.7,0.5,1.1s-0.2,0.8-0.5,1.1c-0.3,0.3-0.7,0.5-1.1,0.5h-3.6c-0.3,0-0.4,0.1-0.4,0.4v12.5c0,1-0.1,1.8-0.4,2.3
			c-0.3,0.6-0.8,1-1.5,1.3c-1.1,0.4-3.1,0.6-6,0.6c-0.5,0-0.9-0.2-1.3-0.5c-0.4-0.3-0.7-0.7-0.8-1.2c-0.2-0.4-0.1-0.7,0.1-1.1
			c0.2-0.3,0.5-0.5,0.9-0.5c1.2,0,2.1,0,2.9,0c0.8,0,1.3,0,1.7,0c0.4,0,0.7-0.1,0.8-0.2s0.2-0.4,0.2-0.7V48.7c0-0.2-0.1-0.4-0.3-0.4
			h-16.2c-0.4,0-0.8-0.2-1.1-0.5c-0.3-0.3-0.5-0.7-0.5-1.1s0.2-0.8,0.5-1.1c0.3-0.3,0.7-0.4,1.1-0.4h16.2c0.2,0,0.3-0.1,0.3-0.4
			v-4.7c0-0.2-0.1-0.3-0.3-0.3h-16.5c-0.4,0-0.8-0.2-1.1-0.5c-0.3-0.3-0.5-0.7-0.5-1.1s0.2-0.8,0.5-1.1c0.3-0.3,0.7-0.5,1.1-0.5
			h10.1c0.2,0,0.3-0.1,0.3-0.3v-5.4c0-0.2-0.1-0.4-0.3-0.4h-8.1c-0.4,0-0.8-0.1-1.1-0.4c-0.3-0.3-0.5-0.7-0.5-1.1s0.2-0.8,0.5-1.1
			c0.3-0.3,0.7-0.5,1.1-0.5h8.1c0.2,0,0.3-0.1,0.3-0.4v-3.6c0-0.5,0.2-0.9,0.5-1.2c0.3-0.3,0.8-0.5,1.2-0.5c0.5,0,0.9,0.2,1.2,0.5
			c0.3,0.3,0.5,0.8,0.5,1.2V27c0,0.2,0.1,0.4,0.3,0.4h8.4c0.4,0,0.8,0.2,1.1,0.5c0.3,0.3,0.5,0.7,0.5,1.1s-0.2,0.8-0.5,1.1
			c-0.3,0.3-0.7,0.4-1.1,0.4h-8.4c-0.2,0-0.3,0.1-0.3,0.4v5.4c0,0.2,0.1,0.3,0.3,0.3h10.5C287.7,36.6,288,36.8,288.4,37.1z
			 M265.2,52.9c-0.3-0.3-0.3-0.7-0.3-1.1c0.1-0.4,0.3-0.7,0.6-0.9c0.4-0.2,0.9-0.3,1.4-0.3c0.5,0.1,0.9,0.3,1.2,0.6
			c1.7,1.9,3.1,3.7,4.2,5.4c0.2,0.4,0.3,0.9,0.2,1.4c-0.1,0.5-0.4,0.9-0.8,1.1c-0.4,0.2-0.8,0.3-1.3,0.2c-0.5-0.1-0.8-0.4-1.1-0.8
			C268.2,56.7,266.8,54.8,265.2,52.9z"/>
		<path id="XMLID_17_" d="M317.3,37.3c0,0.8-0.3,1.4-0.8,2c-0.5,0.5-1.2,0.8-1.9,0.8h-10.6c-0.3,0-0.4,0.1-0.4,0.4v23.3
			c0,0.5-0.2,0.9-0.5,1.3c-0.3,0.3-0.8,0.5-1.3,0.5c-0.5,0-0.9-0.2-1.3-0.5c-0.3-0.3-0.5-0.8-0.5-1.3V26.5c0-0.8,0.3-1.4,0.8-1.9
			c0.5-0.5,1.2-0.8,1.9-0.8h11.8c0.8,0,1.4,0.3,1.9,0.8c0.5,0.5,0.8,1.2,0.8,1.9V37.3z M313.9,26.9c0-0.2-0.1-0.4-0.3-0.4h-9.7
			c-0.3,0-0.4,0.1-0.4,0.4v3.3c0,0.2,0.1,0.3,0.4,0.3h9.7c0.2,0,0.3-0.1,0.3-0.3V26.9z M303.5,37c0,0.2,0.1,0.4,0.4,0.4h9.7
			c0.2,0,0.3-0.1,0.3-0.4v-3.5c0-0.2-0.1-0.3-0.3-0.3h-9.7c-0.3,0-0.4,0.1-0.4,0.3V37z M328.3,58.3c0,0.8-0.3,1.4-0.8,1.9
			c-0.5,0.5-1.2,0.8-2,0.8H314c-0.2,0-0.3,0.1-0.3,0.2v0.6c0,0.4-0.2,0.8-0.5,1.1c-0.3,0.3-0.7,0.5-1.1,0.5c-0.4,0-0.8-0.2-1.1-0.5
			c-0.3-0.3-0.5-0.7-0.5-1.1V46.4c0-0.8,0.3-1.4,0.8-2c0.5-0.5,1.2-0.8,2-0.8h12.2c0.8,0,1.4,0.3,2,0.8c0.5,0.5,0.8,1.2,0.8,2V58.3z
			 M325,46.8c0-0.2-0.1-0.4-0.4-0.4h-10.5c-0.3,0-0.4,0.1-0.4,0.4v3.8c0,0.2,0.1,0.4,0.4,0.4h10.5c0.2,0,0.4-0.1,0.4-0.4V46.8z
			 M313.7,57.9c0,0.2,0.1,0.3,0.4,0.3h10.5c0.2,0,0.4-0.1,0.4-0.3v-4c0-0.2-0.1-0.3-0.4-0.3h-10.5c-0.3,0-0.4,0.1-0.4,0.3V57.9z
			 M336.6,23.7c0.8,0,1.4,0.3,1.9,0.8c0.5,0.5,0.8,1.2,0.8,1.9v34.3c0,1.2-0.2,2.1-0.5,2.7c-0.3,0.6-0.9,1.1-1.6,1.4
			c-1.1,0.4-3.1,0.6-6.1,0.6c-0.6,0-1.1-0.2-1.5-0.5c-0.4-0.4-0.8-0.8-0.9-1.3c-0.1-0.4-0.1-0.8,0.2-1.2s0.6-0.5,1-0.5
			c0.9,0,1.7,0,2.4,0c0.9,0,1.7,0,2.4,0c0.4,0,0.7-0.1,0.8-0.3c0.2-0.2,0.2-0.5,0.2-0.9V40.5c0-0.2-0.1-0.4-0.3-0.4h-11.1
			c-0.8,0-1.4-0.3-1.9-0.8c-0.5-0.5-0.8-1.2-0.8-2V26.5c0-0.8,0.3-1.4,0.8-1.9c0.5-0.5,1.2-0.8,1.9-0.8H336.6z M335.7,26.9
			c0-0.2-0.1-0.4-0.3-0.4h-10.1c-0.2,0-0.3,0.1-0.3,0.4v3.3c0,0.2,0.1,0.3,0.3,0.3h10.1c0.2,0,0.3-0.1,0.3-0.3V26.9z M325,37
			c0,0.2,0.1,0.4,0.3,0.4h10.1c0.2,0,0.3-0.1,0.3-0.4v-3.6c0-0.2-0.1-0.3-0.3-0.3h-10.1c-0.2,0-0.3,0.1-0.3,0.3V37z"/>
		<path id="XMLID_27_" d="M393.6,48.2c0.3,0.3,0.4,0.4,0.4,0.4s0,0.2,0,0.6s-0.1,0.8-0.4,1s-0.6,0.4-1.1,0.4h-7.6
			c-0.2,0-0.4,0.1-0.5,0.3c-1.4,2.8-3.2,5.2-5.6,7.1c-0.1,0-0.1,0.1-0.1,0.2s0.1,0.1,0.1,0.1c4.5,1.2,8.5,2.4,12,3.7
			c0.4,0.2,0.7,0.5,0.8,0.9s0,0.8-0.2,1.2c-0.3,0.4-0.7,0.7-1.2,0.8c-0.2,0.1-0.5,0.1-0.7,0.1c-0.3,0-0.6,0-0.8-0.1
			c-4-1.5-8.5-3-13.5-4.3c-0.2-0.1-0.5,0-0.7,0.1c-4.7,2.3-11.4,3.8-20.2,4.5c-0.1,0-0.1,0-0.2,0c-0.4,0-0.8-0.1-1.1-0.4
			c-0.4-0.2-0.8-0.6-0.9-1.1c-0.2-0.4-0.1-0.7,0-1.1s0.5-0.5,0.8-0.5c7-0.5,12.5-1.4,16.4-2.8c0,0,0,0,0-0.1s0-0.1-0.1-0.1
			c-2.4-0.6-5.1-1.2-8.1-1.7c-0.1,0-0.2,0-0.3,0.1c-0.4,0.5-0.9,0.8-1.5,0.8c-0.2,0-0.5,0-0.8-0.1l-0.3-0.1
			c-0.4-0.1-0.7-0.4-0.8-0.8s-0.1-0.8,0.2-1.1c0.8-1,2-2.7,3.8-5.2c0.1-0.1,0.1-0.1,0-0.2s-0.1-0.1-0.2-0.1h-9.3
			c-0.4,0-0.8-0.1-1.1-0.4s-0.4-0.6-0.4-1s0.1-0.8,0.4-1.1s0.6-0.4,1.1-0.4h11.4c0.2,0,0.4-0.1,0.6-0.3c1.4-2.2,2.2-3.4,2.5-3.8
			c0.1-0.1,0.1-0.1,0-0.2s-0.1-0.1-0.2-0.1h-9.5c-0.8,0-1.4-0.3-2-0.8s-0.8-1.2-0.8-1.9v-6.8c0-0.8,0.3-1.4,0.8-2s1.2-0.8,2-0.8h7.5
			c0.2,0,0.3-0.1,0.3-0.4v-3.3c0-0.2-0.1-0.3-0.3-0.3h-11c-0.4,0-0.8-0.2-1.1-0.5s-0.5-0.7-0.5-1.1s0.2-0.8,0.5-1.1s0.7-0.5,1.1-0.5
			h37.8c0.4,0,0.8,0.2,1.1,0.5s0.5,0.7,0.5,1.1s-0.2,0.8-0.5,1.1s-0.7,0.5-1.1,0.5h-11.5c-0.2,0-0.3,0.1-0.3,0.3v3.3
			c0,0.2,0.1,0.4,0.3,0.4h8.3c0.8,0,1.4,0.3,2,0.8s0.8,1.2,0.8,2v6.8c0,0.8-0.3,1.4-0.8,1.9s-1.2,0.8-2,0.8h-18.5h0l0,0
			c0.3,0.1,0.5,0.2,0.6,0.5s0.1,0.5-0.1,0.8c-0.6,1-1.2,1.9-1.9,2.8c0,0.1,0,0.1,0,0.2s0.1,0.1,0.1,0.1h24.2
			C392.9,47.7,393.3,47.9,393.6,48.2z M357.9,33.9c-0.2,0-0.3,0.1-0.3,0.4V40c0,0.2,0.1,0.3,0.3,0.3h6.6c0.2,0,0.3-0.1,0.3-0.3v-5.8
			c0-0.2-0.1-0.4-0.3-0.4H357.9z M380.4,51c0.1-0.1,0.1-0.1,0-0.2s-0.1-0.1-0.2-0.1h-13.9c-0.2,0-0.4,0.1-0.5,0.3
			c-1.1,1.6-2,2.8-2.6,3.6c-0.1,0.1-0.1,0.2,0,0.2s0.1,0.1,0.2,0.1c3.5,0.7,7,1.4,10.5,2.2c0.2,0.1,0.4,0,0.6-0.1
			C377,55.5,379,53.5,380.4,51z M368.5,26.9c-0.2,0-0.3,0.1-0.3,0.3v3.3c0,0.2,0.1,0.4,0.3,0.4h7c0.2,0,0.4-0.1,0.4-0.4v-3.3
			c0-0.2-0.1-0.3-0.4-0.3H368.5z M368.2,40c0,0.2,0.1,0.3,0.3,0.3h7c0.2,0,0.4-0.1,0.4-0.3v-5.8c0-0.2-0.1-0.4-0.4-0.4h-7
			c-0.2,0-0.3,0.1-0.3,0.4V40z M387.3,34.3c0-0.2-0.1-0.4-0.3-0.4h-7.3c-0.2,0-0.3,0.1-0.3,0.4V40c0,0.2,0.1,0.3,0.3,0.3h7.3
			c0.2,0,0.3-0.1,0.3-0.3V34.3z"/>
		<path id="XMLID_34_" d="M412.8,38.4c0.4,0.2,0.7,0.6,0.8,1.1s0,1-0.3,1.4s-0.7,0.7-1.1,0.8s-0.9,0-1.3-0.2
			c-1.8-1.1-3.9-2.2-6.2-3.1c-0.4-0.2-0.7-0.4-0.8-0.8c0-0.1,0-0.3,0-0.4c0-0.2,0.1-0.5,0.2-0.7c0.3-0.4,0.6-0.7,1.1-0.8
			s0.9-0.1,1.4,0C408.9,36.4,411,37.4,412.8,38.4z M413.1,48.6c0.2-0.4,0.5-0.6,1-0.7s0.8,0,1.1,0.4c0.4,0.3,0.6,0.8,0.7,1.3
			s0,1-0.2,1.5c-2.1,4.1-4.4,8.2-6.9,12.2c-0.3,0.4-0.7,0.7-1.2,0.8c-0.5,0.1-0.9,0-1.3-0.4c-0.4-0.3-0.7-0.8-0.8-1.3
			c0-0.1,0-0.2,0-0.3c0-0.4,0.1-0.8,0.4-1.1C408.5,57,410.9,53,413.1,48.6z M415.5,26c0.4,0.3,0.6,0.7,0.7,1.2s0,1-0.3,1.4
			c-0.3,0.4-0.7,0.6-1.1,0.7s-0.9,0-1.3-0.3c-1.7-1.3-3.8-2.5-6.1-3.6c-0.4-0.2-0.6-0.4-0.7-0.8s0-0.8,0.2-1.1
			c0.3-0.4,0.6-0.6,1.1-0.8s0.9-0.1,1.4,0.1C411.6,23.7,413.7,24.8,415.5,26z M433.3,60.3c0,0.2,0.1,0.3,0.4,0.3h11.8
			c0.5,0,0.9,0.2,1.2,0.5s0.5,0.8,0.5,1.2s-0.2,0.9-0.5,1.2s-0.7,0.5-1.2,0.5h-27.9c-0.5,0-0.9-0.2-1.2-0.5s-0.5-0.7-0.5-1.2
			s0.2-0.9,0.5-1.2s0.8-0.5,1.2-0.5h11.8c0.2,0,0.3-0.1,0.3-0.3V49.4c0-0.2-0.1-0.3-0.3-0.3h-8.4c-0.5,0-0.9-0.2-1.2-0.5
			s-0.5-0.7-0.5-1.2s0.2-0.9,0.5-1.2s0.7-0.5,1.2-0.5h8.4c0.2,0,0.3-0.1,0.3-0.4v-9.6c0-0.2-0.1-0.3-0.3-0.3H419
			c-0.5,0-0.9-0.2-1.2-0.5s-0.5-0.7-0.5-1.2s0.2-0.9,0.5-1.2s0.7-0.5,1.2-0.5h14.9c0.1,0,0.1,0,0.1-0.1s0-0.1,0-0.1
			c-2.2-2.3-5.2-4.5-9-6.7c-0.4-0.2-0.6-0.5-0.7-1s0-0.8,0.3-1.2c0.3-0.4,0.8-0.7,1.3-0.8c0.2,0,0.3,0,0.4,0c0.3,0,0.7,0.1,1,0.2
			c2.8,1.5,5.2,3.2,7.4,4.9c0.6,0.5,1,1.1,1,1.9c0,0.1,0,0.2,0,0.2c0,0.7-0.2,1.3-0.7,1.8l-0.4,0.5c0,0.1,0,0.1,0,0.2
			s0.1,0.1,0.1,0.1h9.6c0.4,0,0.8,0.2,1.1,0.5s0.5,0.7,0.5,1.2s-0.2,0.9-0.5,1.2s-0.7,0.5-1.1,0.5h-10.8c-0.2,0-0.4,0.1-0.4,0.3v9.6
			c0,0.2,0.1,0.4,0.4,0.4h9c0.5,0,0.9,0.2,1.2,0.5s0.5,0.7,0.5,1.2s-0.2,0.9-0.5,1.2s-0.7,0.5-1.2,0.5h-9c-0.2,0-0.4,0.1-0.4,0.3
			V60.3z"/>
		<path id="XMLID_39_" d="M460.2,63.5c-0.4,0.3-0.9,0.4-1.4,0.4c-0.5,0-1-0.2-1.4-0.5c-0.3-0.2-0.5-0.5-0.5-0.9s0.2-0.7,0.5-0.9
			c2-1.5,3.5-3.5,4.7-5.9c0.2-0.4,0.5-0.7,0.9-0.9c0.4-0.2,0.8-0.2,1.2,0s0.7,0.4,0.9,0.8c0.2,0.4,0.2,0.8,0,1.2
			C463.9,59.7,462.2,61.9,460.2,63.5z M497,32.9c0.4,0,0.8,0.1,1,0.4s0.4,0.6,0.4,1s-0.1,0.8-0.4,1s-0.6,0.4-1,0.4h-38
			c-0.4,0-0.8-0.1-1-0.4s-0.4-0.6-0.4-1s0.1-0.8,0.4-1s0.6-0.4,1-0.4h9.6c0.1,0,0.2,0,0.2-0.1s0.1-0.2,0-0.3c-0.3-0.9-0.7-2-1.2-3.1
			c-0.2-0.3-0.2-0.6,0-1c0.2-0.3,0.4-0.6,0.8-0.7c0,0,0,0,0,0s0,0,0,0h-7.2c-0.4,0-0.8-0.1-1-0.4s-0.4-0.6-0.4-1s0.1-0.7,0.4-1
			s0.6-0.4,1-0.4h14.6c0.2,0,0.3-0.1,0.3-0.4v-1.1c0-0.5,0.2-0.9,0.5-1.2c0.3-0.3,0.8-0.5,1.2-0.5c0.5,0,0.9,0.2,1.2,0.5
			c0.3,0.3,0.5,0.8,0.5,1.2v1.1c0,0.2,0.1,0.4,0.3,0.4h14.7c0.4,0,0.8,0.1,1,0.4s0.4,0.6,0.4,1s-0.1,0.7-0.4,1s-0.6,0.4-1,0.4h-6.9
			v0c0.4,0.1,0.7,0.3,0.9,0.7c0.2,0.4,0.2,0.7,0,1.1c-0.6,1.1-1.2,2.1-1.8,3c0,0.1,0,0.1,0,0.2c0,0.1,0.1,0.1,0.2,0.1H497z
			 M490.5,38.2c0.8,0,1.4,0.3,1.9,0.8c0.5,0.5,0.8,1.2,0.8,1.9v8.1c0,0.8-0.3,1.4-0.8,1.9c-0.5,0.5-1.2,0.8-1.9,0.8h-14.8
			c0,0-0.1,0-0.1,0c0,0,0,0.1,0.1,0.1c2.2,1,4.2,2.1,6,3.3c0.3,0.2,0.5,0.6,0.6,1c0,0.4-0.1,0.8-0.4,1.1c-0.3,0.3-0.7,0.5-1.1,0.5
			c-0.4,0-0.8-0.1-1.2-0.4c-1.3-1-2.9-2-4.7-3c-0.5-0.2-0.8-0.6-0.9-1.2c0-0.1,0-0.2,0-0.3c0-0.4,0.2-0.8,0.5-1.1c0,0,0-0.1,0-0.1
			c0,0-0.1-0.1-0.1-0.1h-8.5c-0.8,0-1.4-0.3-2-0.8c-0.5-0.5-0.8-1.2-0.8-1.9V41c0-0.8,0.3-1.4,0.8-1.9c0.5-0.5,1.2-0.8,2-0.8H490.5z
			 M489.4,43.7c0.2,0,0.4-0.1,0.4-0.4v-2.1c0-0.2-0.1-0.3-0.4-0.3h-22.7c-0.3,0-0.4,0.1-0.4,0.3v2.1c0,0.2,0.1,0.4,0.4,0.4H489.4z
			 M489.4,49.2c0.2,0,0.4-0.1,0.4-0.4v-2.2c0-0.2-0.1-0.4-0.4-0.4h-22.7c-0.3,0-0.4,0.1-0.4,0.4v2.2c0,0.2,0.1,0.4,0.4,0.4H489.4z
			 M474.6,62.1h8.5c0.9,0,1.5-0.2,1.8-0.6c0.3-0.4,0.5-1.3,0.6-2.6c0.1-0.3,0.3-0.6,0.6-0.8s0.7-0.2,1-0.1c0.5,0.2,0.8,0.4,1.1,0.8
			c0.3,0.4,0.4,0.8,0.3,1.3c-0.2,1.9-0.7,3.2-1.4,3.9c-0.7,0.7-2,1-3.7,1h-9.1c-2.4,0-4-0.3-4.9-0.9c-0.8-0.6-1.2-1.7-1.2-3.5v-4.4
			c0-0.5,0.2-0.9,0.5-1.3c0.3-0.3,0.8-0.5,1.2-0.5c0.5,0,0.9,0.2,1.2,0.5c0.3,0.3,0.5,0.8,0.5,1.3v4.4c0,0.6,0.2,1,0.5,1.1
			C472.6,62,473.4,62.1,474.6,62.1z M485.4,28.1c0-0.1,0-0.2,0-0.2s-0.1-0.1-0.2-0.1h-14.4c-0.1,0-0.2,0-0.2,0.1c0,0.1,0,0.1,0,0.2
			c0.6,1.1,1.1,2.1,1.5,3.2c0.1,0.3,0.1,0.7-0.1,1c-0.2,0.3-0.4,0.5-0.8,0.6v0h13c0,0,0,0,0,0s0,0,0,0c-0.3-0.1-0.4-0.3-0.5-0.5
			c-0.1-0.2-0.1-0.5,0-0.8C484.3,30.4,484.9,29.2,485.4,28.1z M489.8,56.5c-0.3-0.2-0.4-0.5-0.4-0.9c0-0.4,0.2-0.7,0.6-0.9
			c0.4-0.2,0.8-0.4,1.2-0.4c0,0,0.1,0,0.1,0c0.5,0,0.9,0.2,1.3,0.5c2.5,2,4.6,4.1,6.3,6.1c0.2,0.3,0.3,0.6,0.3,0.9
			c0,0.1,0,0.2,0,0.3c-0.1,0.4-0.3,0.8-0.8,1c-0.3,0.2-0.6,0.3-0.9,0.3c-0.1,0-0.3,0-0.4,0c-0.5-0.1-0.8-0.3-1.1-0.7
			C494.4,60.6,492.4,58.5,489.8,56.5z"/>
	</g>
	<g id="XMLID_48_">
		<path id="XMLID_49_" d="M26.6,129.8c-2.4,0-4.5-0.7-6-2c-1.6-1.3-2.4-3-2.4-5c0-1.6,0.5-3,1.4-4.3s2.1-2.2,3.4-3
			c0,0,0.1-0.1,0.1-0.1s0-0.1-0.1-0.2c-2.3-1.6-3.5-3.6-3.5-6c0-2,0.7-3.6,2-4.9c1.4-1.2,3.1-1.9,5.2-1.9c2.2,0,4,0.6,5.3,1.9
			c1.3,1.3,2,3,2,5c0,1.2-0.3,2.4-1,3.5c-0.7,1.1-1.5,2-2.4,2.8c0,0-0.1,0.1-0.1,0.2s0,0.1,0.1,0.1c2.9,1.7,4.4,4,4.4,6.9
			c0,1.9-0.8,3.6-2.3,4.9C31,129.2,29,129.8,26.6,129.8z M26.7,127.4c1.5,0,2.7-0.4,3.7-1.2c0.9-0.8,1.4-1.9,1.4-3.2
			c0-0.7-0.1-1.3-0.4-1.9c-0.3-0.6-0.6-1-0.9-1.4s-0.9-0.8-1.5-1.2s-1.3-0.7-1.8-0.9c-0.5-0.2-1.2-0.5-2.1-0.9c0,0-0.1,0-0.2,0
			c-0.1,0-0.2,0-0.3,0.1c-1,0.7-1.9,1.6-2.5,2.5c-0.6,1-0.9,2.1-0.9,3.3c0,1.4,0.5,2.6,1.6,3.5C23.8,126.9,25.1,127.4,26.7,127.4z
			 M28.1,115c0.2,0,0.3,0,0.4-0.1c1.7-1.5,2.6-3.3,2.6-5.1c0-1.3-0.4-2.5-1.2-3.4S28,105,26.6,105c-1.2,0-2.2,0.4-3,1.2
			c-0.8,0.8-1.2,1.8-1.2,3.1c0,0.7,0.1,1.4,0.4,2c0.3,0.6,0.7,1.1,1.3,1.6c0.6,0.4,1.2,0.8,1.8,1.1C26.5,114.3,27.3,114.6,28.1,115z
			"/>
		<path id="XMLID_53_" d="M43,120.6c-0.4,0-0.7-0.1-0.9-0.4s-0.4-0.5-0.4-0.9s0.1-0.7,0.4-0.9s0.5-0.4,0.9-0.4h6.7
			c0.4,0,0.7,0.1,0.9,0.4s0.4,0.5,0.4,0.9s-0.1,0.7-0.4,0.9s-0.5,0.4-0.9,0.4H43z"/>
		<path id="XMLID_55_" d="M59.3,128.1c-0.3-0.2-0.5-0.5-0.5-0.9c0-0.4,0.1-0.7,0.4-1c0.2-0.3,0.5-0.4,0.9-0.4c0.4,0,0.7,0.1,1,0.3
			c1.1,0.7,2.2,1.1,3.4,1.1c1.9,0,3.4-0.8,4.6-2.5c1.2-1.7,1.9-4.4,2-8.2c0,0,0-0.1-0.1-0.1c0,0-0.1,0-0.1,0
			c-0.8,0.9-1.7,1.7-2.8,2.2c-1,0.6-2.1,0.8-3.1,0.8c-2.2,0-4-0.7-5.3-2.1s-2-3.5-2-6.2c0-2.5,0.7-4.6,2.2-6.2
			c1.5-1.6,3.3-2.4,5.4-2.4c2.6,0,4.8,1.1,6.4,3.2c1.6,2.2,2.4,5.3,2.4,9.3c0,2.6-0.3,4.8-0.8,6.8s-1.2,3.5-2.1,4.6
			c-0.9,1.1-1.9,2-3,2.5c-1.1,0.6-2.3,0.8-3.6,0.8C62.6,129.8,60.8,129.2,59.3,128.1z M65.6,116.9c2,0,3.8-1.1,5.4-3.3
			c0.1-0.1,0.1-0.3,0.1-0.5c-0.2-2.6-0.8-4.6-1.8-6s-2.3-2.1-4-2.1c-1.3,0-2.4,0.6-3.2,1.7s-1.3,2.5-1.3,4.3c0,1.8,0.4,3.3,1.2,4.3
			S64,116.9,65.6,116.9z"/>
		<path id="XMLID_58_" d="M91,128.1c0.3,0.3,0.4,0.6,0.4,1c0,0.5-0.2,0.9-0.6,1.2c-0.3,0.2-0.6,0.4-1,0.4c0,0-0.1,0-0.2,0
			c-0.4,0-0.8-0.2-1.1-0.6c-1.8-2-3.7-4-5.7-5.8c-0.3-0.3-0.5-0.6-0.5-1.1c0-0.4,0.2-0.7,0.5-1c0.3-0.3,0.7-0.5,1.2-0.5h0
			c0.4,0,0.8,0.1,1.2,0.4C87.1,124,89,125.9,91,128.1z"/>
		<path id="XMLID_60_" d="M123.9,129.4c-0.4,0-0.7-0.1-1-0.4c-0.3-0.3-0.4-0.6-0.4-1s0.1-0.7,0.4-1c0.3-0.3,0.6-0.4,1-0.4h4.3
			c0.2,0,0.2-0.1,0.2-0.2v-19.2c0-0.2-0.1-0.3-0.2-0.3h-3.4c-0.3,0-0.6-0.1-0.8-0.3c-0.2-0.2-0.3-0.5-0.3-0.8c0-0.3,0.1-0.5,0.3-0.8
			c0.2-0.2,0.4-0.4,0.7-0.5c1.2-0.3,2.4-0.6,3.3-1.1c0.8-0.4,1.6-0.6,2.4-0.6c0.4,0,0.7,0.1,0.9,0.4s0.4,0.5,0.4,0.9v22.1
			c0,0.2,0.1,0.2,0.3,0.2h3.7c0.4,0,0.7,0.1,1,0.4c0.3,0.3,0.4,0.6,0.4,1s-0.1,0.7-0.4,1c-0.3,0.3-0.6,0.4-1,0.4H123.9z"/>
		<path id="XMLID_62_" d="M153.5,127.7c0,0.5-0.2,0.9-0.5,1.2c-0.3,0.3-0.8,0.5-1.2,0.5c-0.5,0-0.9-0.2-1.2-0.5
			c-0.3-0.3-0.5-0.7-0.5-1.1c0-3.8,0.7-7.7,2-11.9c1.1-3.3,2.8-6.6,5.1-9.9c0,0,0.1-0.1,0-0.1c0,0-0.1-0.1-0.1-0.1h-11.1
			c-0.4,0-0.7-0.1-1-0.4s-0.4-0.6-0.4-1s0.1-0.7,0.4-1s0.6-0.4,1-0.4h14.1c0.3,0,0.5,0.1,0.7,0.3c0.2,0.2,0.3,0.4,0.3,0.7
			c0,0.6-0.2,1.2-0.6,1.8c-2.5,3.4-4.3,6.7-5.3,9.9C154.4,118.8,153.8,122.8,153.5,127.7z"/>
		<path id="XMLID_64_" d="M169.4,120.6c-0.4,0-0.7-0.1-0.9-0.4s-0.4-0.5-0.4-0.9s0.1-0.7,0.4-0.9s0.5-0.4,0.9-0.4h6.7
			c0.4,0,0.7,0.1,0.9,0.4s0.4,0.5,0.4,0.9s-0.1,0.7-0.4,0.9s-0.5,0.4-0.9,0.4H169.4z"/>
		<path id="XMLID_66_" d="M187.1,129.4c-0.4,0-0.7-0.1-1-0.4c-0.3-0.3-0.4-0.6-0.4-1s0.1-0.7,0.4-1c0.3-0.3,0.6-0.4,1-0.4h4.3
			c0.2,0,0.2-0.1,0.2-0.2v-19.2c0-0.2-0.1-0.3-0.2-0.3H188c-0.3,0-0.6-0.1-0.8-0.3c-0.2-0.2-0.3-0.5-0.3-0.8c0-0.3,0.1-0.5,0.3-0.8
			c0.2-0.2,0.4-0.4,0.7-0.5c1.2-0.3,2.4-0.6,3.3-1.1c0.8-0.4,1.6-0.6,2.4-0.6c0.4,0,0.7,0.1,0.9,0.4s0.4,0.5,0.4,0.9v22.1
			c0,0.2,0.1,0.2,0.3,0.2h3.7c0.4,0,0.7,0.1,1,0.4c0.3,0.3,0.4,0.6,0.4,1s-0.1,0.7-0.4,1c-0.3,0.3-0.6,0.4-1,0.4H187.1z"/>
		<path id="XMLID_68_" d="M216.2,129.8c-2.4,0-4.5-0.7-6-2c-1.6-1.3-2.4-3-2.4-5c0-1.6,0.5-3,1.4-4.3s2.1-2.2,3.4-3
			c0,0,0.1-0.1,0.1-0.1s0-0.1-0.1-0.2c-2.3-1.6-3.5-3.6-3.5-6c0-2,0.7-3.6,2-4.9c1.4-1.2,3.1-1.9,5.2-1.9c2.2,0,4,0.6,5.3,1.9
			c1.3,1.3,2,3,2,5c0,1.2-0.3,2.4-1,3.5c-0.7,1.1-1.5,2-2.4,2.8c0,0-0.1,0.1-0.1,0.2s0,0.1,0.1,0.1c2.9,1.7,4.4,4,4.4,6.9
			c0,1.9-0.8,3.6-2.3,4.9C220.6,129.2,218.6,129.8,216.2,129.8z M216.3,127.4c1.5,0,2.7-0.4,3.7-1.2c0.9-0.8,1.4-1.9,1.4-3.2
			c0-0.7-0.1-1.3-0.4-1.9c-0.3-0.6-0.6-1-0.9-1.4s-0.9-0.8-1.5-1.2s-1.3-0.7-1.8-0.9c-0.5-0.2-1.2-0.5-2.1-0.9c0,0-0.1,0-0.2,0
			c-0.1,0-0.2,0-0.3,0.1c-1,0.7-1.9,1.6-2.5,2.5c-0.6,1-0.9,2.1-0.9,3.3c0,1.4,0.5,2.6,1.6,3.5C213.4,126.9,214.7,127.4,216.3,127.4
			z M217.7,115c0.2,0,0.3,0,0.4-0.1c1.7-1.5,2.6-3.3,2.6-5.1c0-1.3-0.4-2.5-1.2-3.4s-1.9-1.4-3.3-1.4c-1.2,0-2.2,0.4-3,1.2
			c-0.8,0.8-1.2,1.8-1.2,3.1c0,0.7,0.1,1.4,0.4,2c0.3,0.6,0.7,1.1,1.3,1.6c0.6,0.4,1.2,0.8,1.8,1.1
			C216.1,114.3,216.9,114.6,217.7,115z"/>
		<path id="XMLID_72_" d="M233.4,131.3c-0.2,0.3-0.4,0.4-0.7,0.5c-0.3,0-0.6,0-0.9-0.1c-0.2-0.1-0.3-0.3-0.4-0.6c0-0.1,0-0.1,0-0.2
			c0-0.2,0.1-0.4,0.2-0.5c0.8-1.1,1.3-2.7,1.6-4.7c0-0.3,0.1-0.5,0.4-0.6c0.2-0.2,0.5-0.2,0.7-0.1c0.3,0.1,0.5,0.2,0.6,0.5
			c0.2,0.2,0.2,0.5,0.2,0.8C234.8,128.4,234.2,130.2,233.4,131.3z M232.9,123.1c-0.3,0-0.6-0.1-0.8-0.3c-0.2-0.2-0.4-0.5-0.4-0.8
			c0-0.3,0.1-0.6,0.3-0.8s0.5-0.4,0.8-0.4c0.4,0,1.1-0.1,2.4-0.1c1.2-0.1,2.2-0.1,3-0.2c0.2,0,0.3-0.1,0.3-0.2V118
			c0-0.2-0.1-0.3-0.3-0.3h-4.6c-0.3,0-0.6-0.1-0.8-0.3c-0.2-0.2-0.3-0.4-0.3-0.7s0.1-0.5,0.3-0.8c0.2-0.2,0.5-0.3,0.8-0.3h4.6
			c0.2,0,0.3-0.1,0.3-0.3v-1.9c0-0.2-0.1-0.3-0.3-0.3h-3.3c-0.6,0-1-0.2-1.5-0.6c-0.4-0.4-0.6-0.9-0.6-1.5v-8.4
			c0-0.6,0.2-1.1,0.6-1.5c0.4-0.4,0.9-0.6,1.5-0.6h9.9c0.6,0,1.1,0.2,1.5,0.6c0.4,0.4,0.6,0.9,0.6,1.5v8.4c0,0.6-0.2,1.1-0.6,1.5
			c-0.4,0.4-0.9,0.6-1.5,0.6H241c-0.2,0-0.3,0.1-0.3,0.3v1.9c0,0.2,0.1,0.3,0.3,0.3h4.9c0.3,0,0.6,0.1,0.8,0.3
			c0.2,0.2,0.3,0.5,0.3,0.8s-0.1,0.5-0.3,0.7c-0.2,0.2-0.5,0.3-0.8,0.3H241c-0.2,0-0.3,0.1-0.3,0.3v2.1c0,0.2,0.1,0.3,0.3,0.3
			c1.3-0.1,3.2-0.2,5.4-0.3c0.3,0,0.6,0.1,0.8,0.3c0.2,0.2,0.3,0.4,0.3,0.7c0,0.3-0.1,0.6-0.4,0.8s-0.5,0.3-0.8,0.3
			C241.8,122.6,237.3,122.8,232.9,123.1z M235,102.5c-0.2,0-0.3,0.1-0.3,0.3v8.1c0,0.2,0.1,0.3,0.3,0.3h3.3c0.2,0,0.3-0.1,0.3-0.3
			v-8.1c0-0.2-0.1-0.3-0.3-0.3H235z M235.4,104.9c-0.1-0.2-0.1-0.4,0-0.5c0.1-0.2,0.2-0.3,0.4-0.3c0.2,0,0.4,0,0.5,0.1
			c0.2,0.1,0.3,0.2,0.4,0.4c0.4,1.3,0.8,2.7,0.9,4.1c0,0.2,0,0.4-0.1,0.6c-0.1,0.2-0.3,0.3-0.5,0.3c-0.2,0-0.4,0-0.5-0.1
			c-0.2-0.1-0.2-0.3-0.3-0.4C236.1,107.7,235.9,106.3,235.4,104.9z M236.6,125.5c0-0.1,0-0.1,0-0.2c0-0.2,0-0.3,0.1-0.5
			c0.1-0.2,0.3-0.3,0.5-0.3c0.3,0,0.5,0,0.7,0.2s0.3,0.3,0.4,0.6c0.4,1.5,0.6,3,0.7,4.4c0,0.3-0.1,0.5-0.2,0.7s-0.4,0.3-0.7,0.3
			c-0.2,0-0.4,0-0.6-0.2c-0.2-0.2-0.3-0.4-0.3-0.6C237.2,128.6,237,127.1,236.6,125.5z M240.2,125.3c0-0.1,0-0.2,0-0.3
			c0-0.1,0-0.2,0.1-0.4c0.1-0.2,0.3-0.3,0.5-0.4c0.2-0.1,0.5,0,0.7,0.1c0.2,0.1,0.4,0.3,0.5,0.5c0.6,1.4,1,2.8,1.3,4
			c0,0.3,0,0.5-0.1,0.7s-0.3,0.4-0.6,0.4c-0.2,0-0.5,0-0.7-0.1s-0.3-0.3-0.4-0.6C241.2,128.2,240.8,126.8,240.2,125.3z M244.3,111.2
			c0.2,0,0.3-0.1,0.3-0.3v-8.1c0-0.2-0.1-0.3-0.3-0.3h-3.6c-0.2,0-0.3,0.1-0.3,0.3v8.1c0,0.2,0.1,0.3,0.3,0.3H244.3z M242.4,109.4
			c-0.1,0.2-0.2,0.3-0.4,0.4c-0.2,0.1-0.3,0.1-0.5,0c-0.2-0.1-0.3-0.2-0.4-0.3s-0.1-0.3,0-0.5c0.4-1.4,0.8-2.8,1.2-4.3
			c0-0.2,0.2-0.4,0.4-0.5c0.2-0.1,0.4-0.1,0.6-0.1c0.2,0.1,0.4,0.2,0.5,0.5s0.1,0.4,0.1,0.6C243,107.7,242.5,109.1,242.4,109.4z
			 M243.8,124.8c-0.1-0.1-0.1-0.2-0.1-0.4c0-0.1,0-0.1,0-0.2c0.1-0.2,0.2-0.4,0.4-0.5c0.2-0.1,0.5-0.1,0.7-0.1
			c0.3,0.1,0.5,0.2,0.6,0.5c0.9,1.3,1.6,2.5,2.2,3.7c0.1,0.3,0.1,0.5,0,0.8s-0.3,0.4-0.5,0.5c-0.3,0.1-0.5,0.1-0.8,0
			s-0.4-0.3-0.5-0.5C245.3,127.4,244.6,126.1,243.8,124.8z M263.8,107.4c0.2,0.2,0.4,0.5,0.4,0.9s-0.1,0.7-0.4,0.9s-0.5,0.4-0.9,0.4
			h-6.2c-0.2,0-0.2,0.1-0.2,0.2v6.2c0,0.2,0.1,0.2,0.2,0.2h3.9c0.6,0,1,0.2,1.5,0.6c0.4,0.4,0.6,0.9,0.6,1.5v12.4
			c0,0.4-0.1,0.7-0.4,0.9s-0.5,0.4-0.9,0.4s-0.7-0.1-0.9-0.4s-0.4-0.5-0.4-0.9v-0.1c0-0.1-0.1-0.2-0.2-0.2h-8.7
			c-0.1,0-0.2,0.1-0.2,0.2v0.3c0,0.3-0.1,0.6-0.4,0.9c-0.2,0.2-0.5,0.4-0.9,0.4c-0.3,0-0.6-0.1-0.9-0.4c-0.2-0.2-0.4-0.5-0.4-0.9
			v-12.6c0-0.6,0.2-1,0.6-1.5c0.4-0.4,0.9-0.6,1.5-0.6h2.8c0.2,0,0.2-0.1,0.2-0.2v-15.4c0-0.4,0.1-0.7,0.4-0.9
			c0.3-0.3,0.6-0.4,0.9-0.4c0.4,0,0.7,0.1,0.9,0.4c0.3,0.3,0.4,0.6,0.4,0.9v6.2c0,0.2,0.1,0.2,0.2,0.2h6.2
			C263.3,107.1,263.6,107.2,263.8,107.4z M260,128c0.2,0,0.2-0.1,0.2-0.2V119c0-0.2-0.1-0.2-0.2-0.2h-8.5c-0.2,0-0.3,0.1-0.3,0.2
			v8.8c0,0.2,0.1,0.2,0.3,0.2H260z"/>
		<path id="XMLID_84_" d="M289.2,123.8c-0.2,0-0.3,0.1-0.3,0.3v4.4c0,0.2,0.1,0.3,0.2,0.3c1.2,0.1,2.6,0.2,4,0.2c4.3,0,7.4,0,9.2,0
			c0.3,0,0.5,0.1,0.7,0.4c0.1,0.2,0.2,0.3,0.2,0.5c0,0.1,0,0.2-0.1,0.4c-0.1,0.4-0.4,0.7-0.7,0.9s-0.7,0.4-1,0.4h-8.4
			c-3.8,0-6.8-0.4-9.1-1.2c-2.3-0.8-4.1-2.3-5.5-4.6c0,0-0.1-0.1-0.1-0.1c-0.1,0-0.1,0-0.1,0.1c-1.2,2.2-2.6,4.1-4.4,5.7
			c-0.3,0.2-0.6,0.4-0.9,0.4c0,0-0.1,0-0.1,0c-0.4,0-0.7-0.2-1-0.5c-0.2-0.2-0.3-0.5-0.3-0.8c0-0.4,0.1-0.6,0.4-0.9
			c2.7-2.2,4.6-5.4,5.6-9.6c0.1-0.4,0.3-0.7,0.6-0.9s0.7-0.3,1-0.3c0.4,0,0.7,0.2,0.9,0.5s0.3,0.6,0.2,1c-0.2,0.6-0.4,1.3-0.6,2
			c0,0.2,0,0.4,0,0.5c1.2,2.7,3.4,4.5,6.4,5.4c0.1,0,0.1,0,0.2,0c0,0,0.1-0.1,0.1-0.2v-10.3c0-0.2-0.1-0.3-0.2-0.3h-13.3
			c-0.3,0-0.6-0.1-0.9-0.4s-0.4-0.5-0.4-0.8s0.1-0.6,0.4-0.9s0.5-0.4,0.9-0.4h29.2c0.3,0,0.6,0.1,0.9,0.4s0.4,0.5,0.4,0.9
			s-0.1,0.6-0.4,0.8s-0.5,0.4-0.9,0.4h-12.7c-0.2,0-0.3,0.1-0.3,0.3v3.4c0,0.2,0.1,0.3,0.3,0.3h10.4c0.3,0,0.6,0.1,0.8,0.3
			s0.4,0.5,0.4,0.8s-0.1,0.6-0.4,0.8s-0.5,0.4-0.8,0.4H289.2z M297.1,100.7c0.6,0,1,0.2,1.5,0.6s0.6,0.9,0.6,1.5v7.7
			c0,0.6-0.2,1-0.6,1.5s-0.9,0.6-1.5,0.6h-19.8c-0.6,0-1-0.2-1.5-0.6c-0.4-0.4-0.6-0.9-0.6-1.5v-7.7c0-0.6,0.2-1.1,0.6-1.5
			c0.4-0.4,0.9-0.6,1.5-0.6H297.1z M296.3,105.7c0.2,0,0.2-0.1,0.2-0.2V103c0-0.2-0.1-0.3-0.2-0.3h-18.1c-0.2,0-0.2,0.1-0.2,0.3v2.4
			c0,0.2,0.1,0.2,0.2,0.2H296.3z M296.3,110.5c0.2,0,0.2-0.1,0.2-0.2v-2.4c0-0.2-0.1-0.2-0.2-0.2h-18.1c-0.2,0-0.2,0.1-0.2,0.2v2.4
			c0,0.2,0.1,0.2,0.2,0.2H296.3z"/>
		<path id="XMLID_89_" d="M341.9,123.7c0.3,0,0.6,0.1,0.8,0.4c0.2,0.2,0.4,0.5,0.4,0.8s-0.1,0.6-0.4,0.8c-0.2,0.2-0.5,0.4-0.8,0.4
			h-13.4c-0.2,0-0.3,0.1-0.3,0.3v3.7c0,0.4-0.1,0.7-0.4,0.9c-0.3,0.3-0.6,0.4-0.9,0.4c-0.4,0-0.7-0.1-0.9-0.4
			c-0.3-0.3-0.4-0.6-0.4-0.9v-3.7c0-0.2-0.1-0.3-0.2-0.3h-13.1c-0.3,0-0.6-0.1-0.8-0.4c-0.2-0.2-0.4-0.5-0.4-0.8s0.1-0.6,0.4-0.8
			c0.2-0.2,0.5-0.4,0.8-0.4h13.1c0.2,0,0.2-0.1,0.2-0.3V121c0-0.2-0.1-0.3-0.2-0.3h-8.5c-0.6,0-1-0.2-1.5-0.6
			c-0.4-0.4-0.6-0.9-0.6-1.5v-9.8c0-0.6,0.2-1,0.6-1.5c0.4-0.4,0.9-0.6,1.5-0.6h8.5c0.2,0,0.2-0.1,0.2-0.2v-2.1
			c0-0.2-0.1-0.2-0.2-0.2h-12c-0.3,0-0.6-0.1-0.9-0.4s-0.4-0.5-0.4-0.9s0.1-0.6,0.4-0.9s0.5-0.4,0.9-0.4h12c0.2,0,0.2-0.1,0.2-0.2
			v-1.6c0-0.4,0.1-0.7,0.4-1c0.3-0.3,0.6-0.4,0.9-0.4c0.4,0,0.7,0.1,0.9,0.4c0.3,0.3,0.4,0.6,0.4,1v1.6c0,0.2,0.1,0.2,0.3,0.2h12.1
			c0.3,0,0.6,0.1,0.9,0.4s0.4,0.5,0.4,0.9s-0.1,0.6-0.4,0.9s-0.5,0.4-0.9,0.4h-12.1c-0.2,0-0.3,0.1-0.3,0.2v2.1
			c0,0.2,0.1,0.2,0.3,0.2h8.7c0.6,0,1,0.2,1.5,0.6c0.4,0.4,0.6,0.9,0.6,1.5v9.8c0,0.6-0.2,1-0.6,1.5c-0.4,0.4-0.9,0.6-1.5,0.6h-8.7
			c-0.2,0-0.3,0.1-0.3,0.3v2.4c0,0.2,0.1,0.3,0.3,0.3H341.9z M317.5,109c-0.2,0-0.2,0.1-0.2,0.2v3.2c0,0.2,0.1,0.2,0.2,0.2h7.7
			c0.2,0,0.2-0.1,0.2-0.2v-3.2c0-0.2-0.1-0.2-0.2-0.2H317.5z M317.2,118.3c0,0.2,0.1,0.2,0.2,0.2h7.7c0.2,0,0.2-0.1,0.2-0.2v-3.2
			c0-0.2-0.1-0.3-0.2-0.3h-7.7c-0.2,0-0.2,0.1-0.2,0.3V118.3z M336.6,109.3c0-0.2-0.1-0.2-0.2-0.2h-7.9c-0.2,0-0.3,0.1-0.3,0.2v3.2
			c0,0.2,0.1,0.2,0.3,0.2h7.9c0.2,0,0.2-0.1,0.2-0.2V109.3z M336.3,118.5c0.2,0,0.2-0.1,0.2-0.2v-3.2c0-0.2-0.1-0.3-0.2-0.3h-7.9
			c-0.2,0-0.3,0.1-0.3,0.3v3.2c0,0.2,0.1,0.2,0.3,0.2H336.3z"/>
		<path id="XMLID_95_" d="M380.2,113.2c0.6,0,1,0.2,1.5,0.6s0.6,0.9,0.6,1.4v14.2c0,0.6-0.1,1.1-0.2,1.4s-0.4,0.6-0.8,0.8
			c-0.6,0.2-1.5,0.4-3,0.4h0c-0.3,0-0.6-0.1-0.9-0.3c-0.3-0.2-0.5-0.5-0.6-0.8c-0.1-0.3-0.1-0.5,0.1-0.7s0.4-0.3,0.6-0.3
			c0.3,0,0.6,0,0.8,0c0.5,0,0.9,0,1.1,0c0.2,0,0.3,0,0.4-0.1s0.1-0.2,0.1-0.4v-13.7c0-0.2-0.1-0.2-0.3-0.2h-13.7
			c-0.2,0-0.3,0.1-0.3,0.2v15.2c0,0.4-0.1,0.6-0.4,0.9s-0.5,0.4-0.8,0.4s-0.6-0.1-0.8-0.4s-0.4-0.5-0.4-0.9v-11.5c0,0,0-0.1-0.1-0.1
			s-0.1,0-0.1,0.1c-0.3,0.4-0.7,0.6-1.1,0.6c0,0,0,0-0.1,0c-0.4,0-0.8-0.2-1.1-0.5c-0.8-0.9-1.6-1.7-2.4-2.5c0,0-0.1-0.1-0.1,0
			s-0.1,0.1-0.1,0.1v13.9c0,0.4-0.1,0.7-0.4,0.9s-0.6,0.4-0.9,0.4s-0.7-0.1-0.9-0.4s-0.4-0.6-0.4-0.9v-12.1c0,0,0-0.1-0.1-0.1
			s-0.1,0-0.1,0c-1.2,1.2-2.4,2.3-3.6,3.2c-0.3,0.2-0.6,0.3-0.9,0.2s-0.6-0.3-0.8-0.6c-0.1-0.2-0.2-0.5-0.2-0.7c0-0.1,0-0.2,0-0.3
			c0.1-0.4,0.3-0.7,0.6-0.9c1.8-1.3,3.5-2.9,5.1-4.8s2.9-3.9,4-5.9c0-0.1,0-0.1,0-0.2s-0.1-0.1-0.1-0.1h-7.6c-0.3,0-0.6-0.1-0.9-0.4
			s-0.4-0.5-0.4-0.9s0.1-0.6,0.4-0.9s0.5-0.4,0.9-0.4h3.4c0.2,0,0.3-0.1,0.3-0.2v-5.1c0-0.4,0.1-0.7,0.4-0.9s0.6-0.4,0.9-0.4
			s0.7,0.1,0.9,0.4s0.4,0.6,0.4,0.9v5.1c0,0.2,0.1,0.2,0.3,0.2h2.6c0,0,0.1,0,0.1,0c0.3-0.1,0.6,0,0.8,0.1l0.4,0.2
			c0.2,0.1,0.4,0.3,0.4,0.6s0.1,0.5-0.1,0.7c-0.9,2.2-2.1,4.4-3.7,6.6c-0.1,0.1-0.1,0.3,0.1,0.4c1.1,0.9,2.4,2,3.9,3.4
			c0,0,0.1,0.1,0.1,0s0.1-0.1,0.1-0.1v-2.7c0-0.6,0.2-1,0.6-1.5s0.9-0.6,1.5-0.6h0.2c0.2,0,0.2-0.1,0.2-0.2v-9.8
			c0-0.6,0.2-1,0.6-1.5s0.9-0.6,1.5-0.6h10.2c0.6,0,1,0.2,1.5,0.6s0.6,0.9,0.6,1.5v9.8C380,113.1,380.1,113.2,380.2,113.2z
			 M368.2,103.2c-0.2,0-0.2,0.1-0.2,0.2v9.5c0,0.2,0.1,0.2,0.2,0.2h2.8c0.2,0,0.2-0.1,0.2-0.2v-4.6c0-0.6,0.2-1.1,0.6-1.5
			s0.9-0.6,1.5-0.6h4c0.2,0,0.2-0.1,0.2-0.3v-2.6c0-0.2-0.1-0.2-0.2-0.2H368.2z M377.1,124.8c0,0.6-0.2,1.1-0.6,1.5
			s-0.9,0.6-1.5,0.6h-4.5c-0.1,0-0.2,0.1-0.2,0.2v0.7c0,0.3-0.1,0.5-0.3,0.7s-0.4,0.3-0.7,0.3s-0.5-0.1-0.7-0.3s-0.3-0.4-0.3-0.7
			v-7.5c0-0.6,0.2-1.1,0.6-1.5s0.9-0.6,1.5-0.6h4.6c0.6,0,1,0.2,1.5,0.6s0.6,0.9,0.6,1.5V124.8z M375.1,120.4c0-0.2-0.1-0.2-0.3-0.2
			h-4.3c-0.2,0-0.2,0.1-0.2,0.2v4.2c0,0.2,0.1,0.2,0.2,0.2h4.3c0.2,0,0.3-0.1,0.3-0.2V120.4z M377.4,113.2c0.2,0,0.2-0.1,0.2-0.2
			v-4.4c0-0.2-0.1-0.2-0.2-0.2h-3.8c-0.2,0-0.2,0.1-0.2,0.2v4.4c0,0.2,0.1,0.2,0.2,0.2H377.4z"/>
		<path id="XMLID_101_" d="M401.2,106.7c0.3-0.1,0.6-0.1,0.8,0l0.4,0.1c0.2,0,0.4,0.2,0.5,0.4s0.2,0.4,0.2,0.6
			c-0.5,5.9-1.5,10.8-3.2,14.7c-0.1,0.1,0,0.3,0.1,0.4c1.1,0.9,2.1,1.8,3,2.7c0.3,0.3,0.4,0.6,0.4,1.1c0,0.4-0.1,0.7-0.3,1
			s-0.5,0.4-0.8,0.4s-0.6-0.1-0.8-0.4c-0.7-0.8-1.6-1.6-2.6-2.4c-0.1-0.1-0.3-0.1-0.4,0.1c-1.5,2.6-3.4,4.6-5.6,6.3
			c-0.3,0.2-0.6,0.3-1,0.2s-0.7-0.3-0.9-0.6c-0.2-0.3-0.3-0.6-0.2-0.9s0.2-0.6,0.5-0.8c2.1-1.4,3.8-3.3,5.2-5.8
			c0.1-0.1,0.1-0.3-0.1-0.4c-1.1-0.8-2.2-1.5-3.4-2.3c-0.1-0.1-0.2,0-0.2,0.1l0,0.1c-0.1,0.3-0.3,0.5-0.6,0.7s-0.6,0.1-0.9,0
			c-0.3-0.2-0.6-0.4-0.7-0.8s-0.2-0.7-0.1-1c0.8-3,1.7-6.5,2.6-10.5c0-0.2,0-0.3-0.2-0.3H391c-0.3,0-0.6-0.1-0.9-0.4
			s-0.4-0.5-0.4-0.9s0.1-0.6,0.4-0.9s0.5-0.4,0.9-0.4h2.4c0.2,0,0.3-0.1,0.3-0.2c0.4-2,0.8-3.9,1.2-5.9c0.1-0.4,0.2-0.6,0.5-0.8
			c0.3-0.2,0.5-0.3,0.8-0.3c0.1,0,0.1,0,0.2,0c0.4,0,0.6,0.2,0.8,0.5s0.3,0.6,0.2,0.9c-0.3,1.7-0.7,3.6-1.2,5.6c0,0.2,0,0.3,0.2,0.3
			h4.5C401.1,106.7,401.2,106.7,401.2,106.7z M400.5,109.4c0-0.2-0.1-0.3-0.2-0.3H396c-0.2,0-0.3,0.1-0.4,0.3
			c-0.7,3.2-1.4,6.1-2.1,8.7c0,0.2,0,0.3,0.2,0.4c1.4,0.8,2.6,1.6,3.7,2.4c0.1,0.1,0.2,0.1,0.3-0.1
			C399.1,117.6,400,113.8,400.5,109.4z M421.4,113.7c0.3,0,0.6,0.1,0.9,0.4s0.4,0.5,0.4,0.9s-0.1,0.6-0.4,0.9s-0.5,0.4-0.9,0.4h-7.1
			c-0.2,0-0.3,0.1-0.3,0.3v12.3c0,0.8-0.1,1.4-0.3,1.9s-0.6,0.7-1.2,0.9c-0.8,0.3-2.2,0.4-4.4,0.5h0c-0.4,0-0.7-0.1-1.1-0.4
			c-0.3-0.2-0.6-0.6-0.7-0.9c-0.1-0.3-0.1-0.6,0.1-0.8s0.4-0.4,0.7-0.4c0.9,0,1.6,0,2.2,0s1,0,1.3,0s0.5-0.1,0.6-0.2
			s0.2-0.3,0.2-0.5v-12.3c0-0.2-0.1-0.3-0.3-0.3h-6.9c-0.3,0-0.6-0.1-0.9-0.4s-0.4-0.5-0.4-0.9s0.1-0.6,0.4-0.9s0.5-0.4,0.9-0.4h6.9
			c0.2,0,0.3-0.1,0.3-0.3v-3.6c0-0.3,0.1-0.5,0.3-0.7s0.4-0.3,0.7-0.3c0.1,0,0.1,0,0.2-0.1c1.6-1.3,3.3-3,4.9-5c0,0,0-0.1,0-0.1
			s-0.1-0.1-0.1-0.1h-12c-0.4,0-0.6-0.1-0.9-0.4s-0.4-0.5-0.4-0.9s0.1-0.6,0.4-0.9s0.5-0.4,0.9-0.4h14.1c0,0,0.1,0,0.1,0
			c0.1,0,0.2-0.1,0.3-0.1c0.2,0,0.4,0.1,0.6,0.2l0.5,0.3c0.3,0.2,0.4,0.4,0.5,0.7s0,0.6-0.2,0.8c-2.1,2.8-4.4,5.2-7,7.2
			c-0.1,0.1-0.2,0.2-0.2,0.4v2.7c0,0.2,0.1,0.3,0.3,0.3H421.4z"/>
		<path id="XMLID_105_" d="M434.3,121.1c0,0.2,0,0.3,0.2,0.3h6.2c0.6,0,1,0.2,1.4,0.6c0.3,0.4,0.5,0.8,0.5,1.3c0,0,0,0.1,0,0.2
			c-0.2,2.4-0.5,4.2-0.7,5.3c-0.3,1.1-0.6,1.9-1,2.4c-0.5,0.5-1.3,0.8-2.4,0.9c-0.4,0-0.9,0-1.4,0c-0.7,0-1.4,0-2.2,0
			c-0.3,0-0.6-0.1-0.9-0.4c-0.3-0.2-0.4-0.5-0.6-0.9c-0.1-0.2-0.1-0.5,0.1-0.7s0.3-0.3,0.6-0.3c1.2,0.1,2.4,0.1,3.4,0.1
			c0.7,0,1.1-0.1,1.3-0.3c0.5-0.5,1-2.4,1.3-5.8c0-0.2-0.1-0.3-0.2-0.3h-6c-0.1,0-0.1,0-0.1,0.1c0,0.3-0.2,0.5-0.4,0.6
			c-0.2,0.1-0.5,0.2-0.7,0.1l-0.2,0c-0.3,0-0.5-0.2-0.7-0.5c-0.2-0.3-0.2-0.5-0.1-0.8c0.4-1.6,0.8-3.2,1.1-5
			c0.1-0.6,0.4-1.1,0.9-1.5s1-0.6,1.6-0.6h4.9c0.2,0,0.2-0.1,0.2-0.2v-3.2c0-0.2-0.1-0.2-0.2-0.2h-5.8c-0.2,0-0.3-0.1-0.3-0.3
			c0,0,0,0,0,0c-0.8,0.4-1.6,0.8-2.5,1.1c-0.3,0.1-0.7,0.1-1,0c-0.3-0.1-0.6-0.3-0.8-0.6c-0.1-0.2-0.2-0.3-0.2-0.5
			c0-0.1,0-0.2,0-0.2c0.1-0.3,0.2-0.5,0.5-0.6c2-0.7,3.9-1.7,5.6-2.8c0.2-0.1,0.2-0.2,0-0.3c-0.8-0.8-1.7-1.5-2.9-2.4
			c-0.2-0.1-0.4-0.3-0.4-0.6s0.1-0.5,0.3-0.7c0.2-0.2,0.5-0.3,0.8-0.4c0.3,0,0.6,0,0.9,0.2c1.3,0.8,2.3,1.7,3.2,2.5
			c0.1,0.1,0.3,0.1,0.4,0c1.2-1.1,2.2-2.2,3.1-3.4c0,0,0-0.1,0-0.2c0-0.1-0.1-0.1-0.1-0.1h-7c-0.3,0-0.6-0.1-0.8-0.3
			c-0.2-0.2-0.3-0.5-0.3-0.8s0.1-0.6,0.3-0.8c0.2-0.2,0.5-0.3,0.8-0.3h8.6c0,0,0.1,0,0.1,0c0.3-0.1,0.5,0,0.8,0.1l0.5,0.2
			c0.2,0.1,0.4,0.3,0.5,0.5c0.1,0.2,0.1,0.5-0.1,0.7c-1.5,2.9-3.8,5.5-7,7.6c0,0,0,0.1,0,0.1c0,0,0,0.1,0.1,0.1h3.2
			c0.6,0,1,0.2,1.5,0.6c0.4,0.4,0.6,0.9,0.6,1.5v5.3c0,0.3-0.1,0.6-0.4,0.8c-0.2,0.2-0.5,0.4-0.8,0.4h-0.6c-0.2,0-0.3-0.1-0.4-0.2
			c-0.1-0.1-0.2-0.2-0.2-0.4c0-0.1,0-0.1-0.1-0.1h-5c-0.2,0-0.3,0.1-0.3,0.3C434.5,120.1,434.3,121,434.3,121.1z M456.8,120.3
			c0.3-0.1,0.5-0.1,0.7,0l0.4,0.2c0.2,0.1,0.3,0.2,0.4,0.4c0.1,0.2,0.1,0.4,0,0.6c-0.9,2.3-2.4,4.3-4.3,5.9c-0.1,0.1-0.1,0.2,0,0.3
			c1.8,0.9,3.7,1.5,5.9,1.9c0.3,0,0.5,0.2,0.6,0.5s0.1,0.5-0.1,0.8c-0.2,0.4-0.5,0.6-0.9,0.8c-0.2,0.1-0.5,0.1-0.7,0.1
			c-0.1,0-0.3,0-0.4,0c-2.4-0.6-4.6-1.4-6.4-2.6c-0.1-0.1-0.3-0.1-0.4,0c-1.9,1.1-4,1.9-6.5,2.6c-0.1,0-0.2,0-0.4,0
			c-0.2,0-0.4,0-0.6-0.1c-0.3-0.1-0.5-0.4-0.7-0.7c-0.1-0.1-0.1-0.2-0.1-0.4c0-0.1,0-0.2,0.1-0.3c0.1-0.3,0.3-0.4,0.5-0.5
			c2.2-0.5,4.1-1.2,5.8-2.1c0.2-0.1,0.2-0.2,0-0.3c-1.2-1.1-2.2-2.3-3-3.6c-0.2-0.3-0.2-0.6,0-0.9s0.4-0.5,0.7-0.6c0,0,0,0,0,0
			s0,0,0,0h-1.6c-0.3,0-0.5-0.1-0.7-0.3c-0.2-0.2-0.3-0.4-0.3-0.7s0.1-0.5,0.3-0.7c0.2-0.2,0.4-0.3,0.7-0.3h10.9
			C456.7,120.3,456.7,120.3,456.8,120.3z M458.4,103.9c0.2-0.2,0.5-0.4,0.9-0.4s0.7,0.1,0.9,0.2c0.3,0.2,0.4,0.4,0.4,0.7
			c0,0.3-0.1,0.6-0.3,0.8c-1.3,1.1-2.6,2.1-3.9,3c0,0-0.1,0.1-0.1,0.1s0,0.1,0.1,0.2c1.5,0.8,3,1.5,4.6,2c0.3,0.1,0.5,0.3,0.6,0.6
			c0,0.1,0,0.2,0,0.3c0,0.2-0.1,0.4-0.2,0.5c-0.3,0.3-0.6,0.6-0.9,0.7c-0.2,0.1-0.4,0.1-0.6,0.1c-0.2,0-0.4,0-0.5-0.1
			c-1.3-0.5-2.5-1-3.7-1.7c0,0-0.1,0-0.1,0c0,0-0.1,0.1-0.1,0.1v4.6c0,0.5,0.1,0.8,0.2,0.9c0.1,0.1,0.3,0.1,0.6,0.1h1.1
			c0.2,0,0.4,0,0.5,0c0.2,0,0.3-0.1,0.5-0.2c0.1-0.1,0.2-0.2,0.2-0.4c0-0.1,0-0.4,0.1-0.8c0-0.2,0.1-0.4,0.4-0.5s0.4-0.1,0.6,0
			c0.6,0.3,0.9,0.7,0.9,1.3c0,0.1,0,0.1,0,0.2c-0.1,0.6-0.2,1.1-0.3,1.3c-0.2,0.4-0.6,0.6-1.1,0.8c-0.4,0.1-0.9,0.2-1.6,0.2h-1.8
			c-0.9,0-1.5-0.2-2-0.6c-0.4-0.4-0.6-1.3-0.6-2.7v-3c0-0.2-0.1-0.2-0.2-0.2h-4.4c-0.2,0-0.2,0.1-0.2,0.2v0.4c0,2.6-1,4.7-2.9,6.2
			c-0.2,0.2-0.5,0.2-0.7,0.2c-0.1,0-0.1,0-0.2,0c-0.3,0-0.6-0.2-0.9-0.4c-0.2-0.2-0.3-0.4-0.3-0.7c0-0.3,0.1-0.6,0.4-0.8
			c1.5-1.1,2.3-2.7,2.3-4.6V112c0-0.6,0.2-1,0.6-1.5c0.4-0.4,0.9-0.6,1.5-0.6h5.8c0,0,0.1,0,0.1-0.1c0,0,0-0.1-0.1-0.1
			c-3.5-2.3-6.1-5.3-7.9-8.9c-0.1-0.3-0.2-0.5,0-0.8c0.1-0.3,0.3-0.5,0.6-0.5c0.1,0,0.3-0.1,0.4-0.1c0.2,0,0.3,0,0.5,0.1
			c0.3,0.1,0.5,0.3,0.7,0.6c0.6,1.1,1.3,2.2,2.1,3.2c0.1,0.1,0.2,0.2,0.4,0c1.1-0.9,2.3-1.9,3.5-3.1c0.3-0.3,0.6-0.4,0.9-0.4
			c0.3,0,0.7,0.1,0.9,0.2c0.3,0.2,0.4,0.4,0.4,0.7c0,0.3-0.1,0.6-0.3,0.8c-1.2,1.1-2.6,2.1-4.1,3.2c-0.1,0.1-0.2,0.2,0,0.4
			c0.8,0.7,1.5,1.3,2.2,1.8c0.1,0.1,0.3,0.1,0.4,0C455.9,106.2,457.1,105.1,458.4,103.9z M455.3,122.5c0,0,0-0.1,0-0.2
			c0-0.1-0.1-0.1-0.1-0.1h-6.7c0,0-0.1,0-0.1,0.1s0,0.1,0,0.2c0.8,1.4,1.9,2.7,3.3,3.8c0.1,0.1,0.3,0.1,0.4,0
			C453.5,125.2,454.6,123.9,455.3,122.5z"/>
		<path id="XMLID_110_" d="M478.3,101.6c0.6,0,1,0.2,1.5,0.6s0.6,0.9,0.6,1.5V123c0,0.6-0.2,1.1-0.6,1.5s-0.9,0.6-1.5,0.6h-5.4
			c-0.2,0-0.2,0.1-0.2,0.3v1.4c0,0.4-0.1,0.6-0.4,0.9s-0.5,0.4-0.9,0.4s-0.6-0.1-0.9-0.4s-0.4-0.5-0.4-0.9v-23.1
			c0-0.6,0.2-1,0.6-1.5s0.9-0.6,1.5-0.6H478.3z M477.9,104.3c0-0.2-0.1-0.3-0.2-0.3h-4.7c-0.2,0-0.2,0.1-0.2,0.3v7.5
			c0,0.2,0.1,0.2,0.2,0.2h4.7c0.2,0,0.2-0.1,0.2-0.2V104.3z M472.7,122.4c0,0.2,0.1,0.3,0.2,0.3h4.7c0.2,0,0.2-0.1,0.2-0.3v-7.8
			c0-0.2-0.1-0.2-0.2-0.2h-4.7c-0.2,0-0.2,0.1-0.2,0.2V122.4z M501.6,110.8c0.2,0.2,0.4,0.5,0.4,0.8s-0.1,0.6-0.4,0.8
			s-0.5,0.4-0.8,0.4h-3.1c-0.2,0-0.3,0.1-0.3,0.2v3.6c0,0.2,0.1,0.3,0.3,0.3h2.7c0.3,0,0.6,0.1,0.8,0.3s0.4,0.5,0.4,0.8
			s-0.1,0.6-0.4,0.8s-0.5,0.4-0.8,0.4h-2.7c-0.2,0-0.3,0.1-0.3,0.3v9.4c0,0.8-0.1,1.3-0.3,1.8s-0.6,0.7-1.1,0.9
			c-0.8,0.3-2.3,0.4-4.5,0.4c-0.4,0-0.7-0.1-1-0.4s-0.5-0.6-0.6-0.9c-0.1-0.3-0.1-0.5,0.1-0.8s0.4-0.4,0.7-0.4c0.9,0,1.6,0,2.2,0
			c0.6,0,1,0,1.3,0s0.5-0.1,0.6-0.2s0.2-0.3,0.2-0.5v-9.4c0-0.2-0.1-0.3-0.2-0.3h-12.2c-0.3,0-0.6-0.1-0.8-0.4s-0.4-0.5-0.4-0.8
			s0.1-0.6,0.4-0.8s0.5-0.3,0.8-0.3h12.2c0.2,0,0.2-0.1,0.2-0.3v-3.6c0-0.2-0.1-0.2-0.2-0.2h-12.3c-0.3,0-0.6-0.1-0.8-0.4
			s-0.4-0.5-0.4-0.8s0.1-0.6,0.4-0.8s0.5-0.4,0.8-0.4h7.6c0.2,0,0.2-0.1,0.2-0.2v-4c0-0.2-0.1-0.3-0.2-0.3h-6
			c-0.3,0-0.6-0.1-0.8-0.3s-0.4-0.5-0.4-0.8s0.1-0.6,0.4-0.8s0.5-0.4,0.8-0.4h6c0.2,0,0.2-0.1,0.2-0.3v-2.7c0-0.4,0.1-0.7,0.4-0.9
			s0.6-0.4,0.9-0.4s0.7,0.1,0.9,0.4s0.4,0.6,0.4,0.9v2.7c0,0.2,0.1,0.3,0.2,0.3h6.3c0.3,0,0.6,0.1,0.8,0.4s0.4,0.5,0.4,0.8
			s-0.1,0.6-0.4,0.8s-0.5,0.3-0.8,0.3h-6.3c-0.2,0-0.2,0.1-0.2,0.3v4c0,0.2,0.1,0.2,0.2,0.2h7.8C501,110.5,501.3,110.6,501.6,110.8z
			 M484.2,122.7c-0.2-0.2-0.3-0.5-0.2-0.8s0.2-0.5,0.5-0.7c0.3-0.2,0.7-0.3,1-0.2s0.7,0.2,0.9,0.5c1.3,1.4,2.3,2.8,3.2,4.1
			c0.2,0.3,0.2,0.7,0.1,1s-0.3,0.7-0.6,0.9c-0.3,0.2-0.6,0.2-1,0.1s-0.6-0.3-0.8-0.6C486.4,125.5,485.4,124.1,484.2,122.7z"/>
		<path id="XMLID_116_" d="M523.3,123c0,0.4-0.1,0.7-0.3,0.9s-0.5,0.5-0.9,0.5l-8.2,1.4c-0.2,0-0.2,0.2-0.2,0.3v4.6
			c0,0.4-0.1,0.7-0.4,0.9s-0.5,0.4-0.9,0.4s-0.7-0.1-0.9-0.4s-0.4-0.5-0.4-0.9v-4.1c0-0.2-0.1-0.3-0.3-0.2l-0.9,0.2
			c-0.4,0.1-0.7,0-1-0.2s-0.5-0.5-0.5-0.9c0-0.1,0-0.2,0-0.2c0-0.3,0.1-0.5,0.2-0.7c0.2-0.3,0.5-0.5,0.8-0.5l1.4-0.2
			c0.2,0,0.3-0.1,0.3-0.3v-20.2c0-0.3,0.1-0.6,0.4-0.8s0.6-0.2,0.9-0.1c0.1,0,0.2,0.1,0.4,0c2.8-0.8,5.1-1.6,7-2.5
			c0.4-0.2,0.7-0.2,1.1-0.2c0.5,0,0.9,0.2,1.4,0.5c0.3,0.2,0.4,0.5,0.4,0.8s-0.2,0.6-0.6,0.7c-2.2,0.9-4.9,1.7-8.1,2.6
			c-0.2,0-0.2,0.1-0.2,0.3v3.6c0,0.2,0.1,0.2,0.2,0.2h6.8c0.4,0,0.6,0.1,0.9,0.4s0.4,0.5,0.4,0.9s-0.1,0.6-0.4,0.9s-0.5,0.4-0.9,0.4
			H514c-0.2,0-0.2,0.1-0.2,0.2v3.9c0,0.2,0.1,0.3,0.2,0.3h7.1c0.4,0,0.6,0.1,0.9,0.4s0.4,0.5,0.4,0.9s-0.1,0.6-0.4,0.9
			s-0.5,0.4-0.9,0.4H514c-0.2,0-0.2,0.1-0.2,0.3v4.9c0,0.2,0.1,0.3,0.2,0.2c2.1-0.4,4.8-0.8,8-1.4c0.3,0,0.6,0,0.9,0.2
			S523.3,122.6,523.3,123z M537.6,115.1c0.1,0,0.2,0,0.3,0c0.2,0,0.4,0,0.6,0.1l0.4,0.2c0.2,0.1,0.4,0.3,0.5,0.5s0.1,0.5,0,0.7
			c-1.2,3.6-3,6.6-5.6,9.1c-0.1,0.1-0.1,0.3,0,0.4c1.8,1.4,3.9,2.5,6.3,3.3c0.3,0.1,0.5,0.3,0.6,0.6c0,0.1,0,0.2,0,0.3
			c0,0.2-0.1,0.4-0.2,0.6c-0.3,0.4-0.6,0.6-1,0.7c-0.2,0.1-0.4,0.1-0.6,0.1s-0.4,0-0.6-0.1c-2.5-0.9-4.7-2.2-6.6-3.8
			c-0.1-0.1-0.2-0.1-0.4,0c-2.2,1.7-4.8,3-7.7,4c-0.2,0-0.3,0.1-0.5,0.1c-0.2,0-0.4,0-0.6-0.1c-0.4-0.2-0.7-0.4-0.9-0.8
			c-0.1-0.2-0.2-0.3-0.2-0.5c0-0.1,0-0.2,0.1-0.4c0.1-0.3,0.3-0.5,0.6-0.6c2.8-0.9,5.2-2.1,7.3-3.6c0.1-0.1,0.2-0.2,0-0.4
			c-1.5-1.7-2.7-3.7-3.8-6c-0.1-0.2-0.1-0.4-0.1-0.6c0-0.2,0.1-0.4,0.2-0.6c0.2-0.4,0.5-0.6,0.9-0.7v-0.1H525
			c-0.3,0-0.6-0.1-0.9-0.4s-0.4-0.5-0.4-0.9s0.1-0.6,0.4-0.9s0.5-0.4,0.9-0.4h12.5C537.6,115.1,537.6,115.1,537.6,115.1z
			 M528.6,103.1c-0.2,0-0.3,0.1-0.3,0.2v2.5c0,3.5-1.1,6.2-3.3,8c-0.3,0.2-0.6,0.3-0.9,0.2s-0.7-0.2-0.9-0.5
			c-0.2-0.2-0.3-0.5-0.3-0.8s0.2-0.6,0.4-0.8c1-0.8,1.7-1.8,2.1-2.8s0.5-2.2,0.5-3.4v-3c0-0.6,0.2-1.1,0.6-1.5s0.9-0.6,1.5-0.6h6.5
			c0.6,0,1,0.2,1.5,0.6s0.6,0.9,0.6,1.5v6.8c0,0.7,0.1,1.1,0.2,1.2c0.1,0.1,0.3,0.1,0.6,0.1h1.1c0.4,0,0.6,0,0.7-0.1
			c0.2-0.1,0.4-0.4,0.4-0.8c0.1-0.3,0.1-1,0.1-1.9c0-0.2,0.1-0.4,0.3-0.5s0.4-0.1,0.7,0c0.7,0.3,1,0.8,1,1.4c0,1.1-0.1,1.9-0.3,2.6
			c-0.2,0.6-0.6,1-1.1,1.2c-0.4,0.2-0.9,0.4-1.7,0.4h-1.8c-0.9,0-1.5-0.2-2-0.6c-0.3-0.2-0.5-0.6-0.6-1s-0.2-1.1-0.2-2v-6
			c0-0.2-0.1-0.2-0.2-0.2H528.6z M536.3,117.8c0,0,0-0.1,0-0.2s-0.1-0.1-0.2-0.1h-8.2c0,0-0.1,0-0.1,0.1s0,0.1,0,0.2
			c0.9,2.3,2.2,4.4,3.9,6.2c0.1,0.1,0.3,0.1,0.4,0C533.8,122.2,535.3,120.1,536.3,117.8z"/>
	</g>
</g>
</svg>
