<?xml version="1.0" encoding="utf-8"?>
<!-- Generator: Adobe Illustrator 19.0.0, SVG Export Plug-In . SVG Version: 6.00 Build 0)  -->
<svg version="1.1" id="圖層_1" xmlns="http://www.w3.org/2000/svg" xmlns:xlink="http://www.w3.org/1999/xlink" x="0px" y="0px"
	 viewBox="0 0 1089.4 511" style="enable-background:new 0 0 1089.4 511;" xml:space="preserve">
<style type="text/css">
	.st0{font-family:'GenJyuuGothic-Regular';}
	.st1{font-size:18px;}
	.st2{fill:#A3242E;}
	.st3{fill:#FFFFFF;stroke:#1A1A1A;stroke-width:3;stroke-miterlimit:10;}
</style>
<g id="XMLID_413_">
	<g id="XMLID_430_">
		<text id="XMLID_473_" transform="matrix(1.0183 0 0 1 25.2693 490.2757)" class="st0 st1">0</text>
		<g id="XMLID_23_">
			<path id="XMLID_29_" d="M71.9,490.3c-0.2,0-0.4-0.1-0.5-0.2s-0.2-0.3-0.2-0.5s0.1-0.3,0.2-0.5s0.3-0.2,0.5-0.2h2.2
				c0.1,0,0.1,0,0.1-0.1v-9.6c0-0.1,0-0.1-0.1-0.1h-1.7c-0.2,0-0.3,0-0.4-0.1c-0.1-0.1-0.2-0.2-0.2-0.4c0-0.1,0-0.3,0.1-0.4
				c0.1-0.1,0.2-0.2,0.4-0.2c0.6-0.1,1.2-0.3,1.7-0.5c0.4-0.2,0.8-0.3,1.2-0.3c0.2,0,0.3,0.1,0.5,0.2c0.1,0.1,0.2,0.3,0.2,0.4v11.1
				c0,0.1,0,0.1,0.1,0.1h1.9c0.2,0,0.4,0.1,0.5,0.2s0.2,0.3,0.2,0.5s-0.1,0.3-0.2,0.5s-0.3,0.2-0.5,0.2H71.9z"/>
		</g>
		<g id="XMLID_6_">
			<path id="XMLID_21_" d="M115.3,490.3c-0.1,0-0.3,0-0.4-0.1c-0.1-0.1-0.1-0.2-0.1-0.4c0-0.3,0.1-0.6,0.4-0.8
				c2-1.7,3.5-3.3,4.4-4.6c0.9-1.3,1.4-2.5,1.4-3.6c0-0.8-0.2-1.4-0.6-1.9c-0.4-0.5-1-0.7-1.8-0.7c-0.8,0-1.6,0.3-2.3,1
				c-0.1,0.1-0.3,0.2-0.5,0.2s-0.3-0.1-0.5-0.2s-0.2-0.3-0.2-0.5s0.1-0.3,0.2-0.5c1-1,2.2-1.5,3.5-1.5c1.2,0,2.1,0.4,2.8,1.1
				s1.1,1.7,1.1,2.8c0,1.2-0.4,2.5-1.3,3.8c-0.9,1.3-2.2,2.8-3.8,4.3c0,0,0,0,0,0.1c0,0,0,0,0.1,0c1-0.1,1.7-0.1,2.1-0.1h3
				c0.2,0,0.4,0.1,0.5,0.2c0.1,0.1,0.2,0.3,0.2,0.5s-0.1,0.4-0.2,0.5c-0.1,0.1-0.3,0.2-0.5,0.2H115.3z"/>
		</g>
		<g id="XMLID_44_">
			<path id="XMLID_45_" d="M163.2,490.5c-1.5,0-2.8-0.4-3.8-1.3c-0.2-0.1-0.2-0.3-0.2-0.5c0-0.2,0.1-0.3,0.2-0.5s0.3-0.2,0.4-0.2
				s0.3,0,0.5,0.2c0.8,0.7,1.8,1,2.8,1c0.8,0,1.5-0.2,2-0.7c0.5-0.4,0.8-1,0.8-1.8c0-1.6-1.2-2.5-3.5-2.6c-0.2,0-0.3-0.1-0.5-0.2
				s-0.2-0.3-0.2-0.4s0.1-0.3,0.2-0.4s0.3-0.2,0.5-0.2c1.1-0.1,1.9-0.3,2.3-0.8s0.7-1,0.7-1.7c0-0.6-0.2-1.2-0.6-1.5s-1-0.6-1.7-0.6
				c-0.8,0-1.5,0.3-2.3,0.9c-0.2,0.1-0.3,0.2-0.5,0.2s-0.3-0.1-0.5-0.2s-0.2-0.3-0.2-0.5s0.1-0.3,0.3-0.5c1-0.8,2.1-1.1,3.2-1.1
				s2.1,0.3,2.8,0.9s1.1,1.4,1.1,2.4c0,0.8-0.2,1.4-0.6,2c-0.4,0.5-1,0.9-1.7,1.2c0,0,0,0,0,0.1s0,0,0,0c0.8,0.2,1.5,0.6,2,1.2
				c0.5,0.6,0.8,1.3,0.8,2.2c0,1.1-0.4,2.1-1.2,2.7C165.4,490.2,164.4,490.5,163.2,490.5z"/>
		</g>
		<g id="XMLID_40_">
			<path id="XMLID_41_" d="M211.6,485.3c0.2,0,0.4,0.1,0.5,0.2c0.1,0.1,0.2,0.3,0.2,0.5s-0.1,0.3-0.2,0.5c-0.1,0.1-0.3,0.2-0.5,0.2
				h-1c-0.1,0-0.1,0-0.1,0.1v2.7c0,0.2-0.1,0.4-0.2,0.6s-0.3,0.2-0.6,0.2s-0.4-0.1-0.6-0.2c-0.2-0.2-0.2-0.3-0.2-0.6v-2.7
				c0-0.1,0-0.1-0.1-0.1h-5.2c-0.2,0-0.3-0.1-0.4-0.2s-0.2-0.2-0.2-0.4c0-0.4,0.1-0.7,0.3-1l4.8-7.3c0.3-0.5,0.8-0.8,1.4-0.8
				c0.3,0,0.5,0.1,0.6,0.3s0.3,0.4,0.3,0.6v7.2c0,0.1,0,0.1,0.1,0.1H211.6z M204.9,485.2C204.9,485.2,204.9,485.3,204.9,485.2
				c0,0.1,0,0.1,0.1,0.1h3.8c0.1,0,0.1,0,0.1-0.1v-3.9c0-0.2,0-1,0.1-2.4c0,0,0,0,0,0c0,0,0,0-0.1,0c-0.3,0.6-0.6,1.2-1.1,1.9
				L204.9,485.2z"/>
		</g>
		<g id="XMLID_37_">
			<path id="XMLID_38_" d="M251.9,490.5c-1.4,0-2.7-0.4-3.8-1.3c-0.2-0.1-0.3-0.3-0.3-0.5c0-0.2,0.1-0.3,0.2-0.5s0.3-0.2,0.4-0.2
				c0.2,0,0.3,0,0.5,0.2c0.8,0.7,1.8,1,2.8,1c0.8,0,1.5-0.3,2-0.9s0.8-1.3,0.8-2.3s-0.3-1.7-0.8-2.2c-0.5-0.5-1.2-0.8-2-0.8
				c-0.6,0-1.2,0.2-1.8,0.5c-0.2,0.1-0.3,0.1-0.5,0.1c-0.1,0-0.3,0-0.4-0.1c-0.3-0.2-0.4-0.4-0.4-0.8l0.3-4.6c0-0.3,0.1-0.5,0.3-0.7
				s0.5-0.3,0.8-0.3h4.8c0.2,0,0.4,0.1,0.5,0.2s0.2,0.3,0.2,0.5s-0.1,0.4-0.2,0.5s-0.3,0.2-0.5,0.2h-4.2c-0.1,0-0.1,0-0.1,0.1
				l-0.3,3.6c0,0,0,0,0,0.1c0,0,0,0,0.1,0c0.6-0.3,1.2-0.5,1.9-0.5c1.2,0,2.2,0.4,2.9,1.1c0.8,0.7,1.1,1.7,1.1,3.1
				c0,0.9-0.2,1.8-0.6,2.5c-0.4,0.7-1,1.2-1.6,1.6C253.4,490.3,252.6,490.5,251.9,490.5z"/>
		</g>
		<g id="XMLID_59_">
			<path id="XMLID_60_" d="M300.1,477.7c0.1,0.1,0.2,0.3,0.2,0.5c0,0.2-0.1,0.4-0.2,0.5c-0.1,0.1-0.3,0.2-0.5,0.2
				c-0.2,0-0.3,0-0.5-0.2c-0.5-0.4-1.1-0.5-1.7-0.5c-1,0-1.8,0.4-2.4,1.3s-1,2.2-1,4.1c0,0,0,0,0,0s0,0,0.1,0
				c0.4-0.5,0.9-0.8,1.4-1.1c0.5-0.3,1-0.4,1.6-0.4c1.2,0,2.1,0.4,2.7,1.1s1,1.7,1,3.1c0,1.2-0.4,2.3-1.1,3.1
				c-0.7,0.8-1.7,1.2-2.7,1.2c-1.3,0-2.4-0.6-3.2-1.7c-0.8-1.1-1.2-2.7-1.2-4.8c0-1.3,0.1-2.4,0.4-3.3c0.3-0.9,0.6-1.7,1.1-2.2
				c0.5-0.5,1-1,1.6-1.2c0.6-0.3,1.2-0.4,1.9-0.4C298.5,476.8,299.3,477.1,300.1,477.7z M297,489.2c0.7,0,1.2-0.3,1.6-0.8
				c0.4-0.6,0.6-1.3,0.6-2.2c0-0.9-0.2-1.6-0.6-2.1c-0.4-0.5-1-0.8-1.8-0.8c-1,0-1.9,0.5-2.7,1.6c-0.1,0.1-0.1,0.1-0.1,0.2
				c0.1,1.3,0.4,2.4,0.9,3.1S296.1,489.2,297,489.2z"/>
		</g>
		<g id="XMLID_56_">
			<path id="XMLID_57_" d="M341.2,489.4c0,0.2-0.1,0.5-0.3,0.6s-0.4,0.2-0.6,0.2c-0.2,0-0.4-0.1-0.6-0.2c-0.2-0.2-0.2-0.3-0.2-0.5
				c0-1.9,0.3-3.9,1-5.9c0.6-1.7,1.4-3.3,2.6-5c0,0,0,0,0-0.1c0,0,0,0-0.1,0h-5.7c-0.2,0-0.4-0.1-0.5-0.2s-0.2-0.3-0.2-0.5
				s0.1-0.4,0.2-0.5s0.3-0.2,0.5-0.2h7.2c0.1,0,0.3,0.1,0.4,0.2c0.1,0.1,0.1,0.2,0.1,0.4c0,0.3-0.1,0.6-0.3,0.9
				c-1.3,1.7-2.2,3.3-2.7,4.9S341.3,487,341.2,489.4z"/>
		</g>
		<g id="XMLID_51_">
			<path id="XMLID_52_" class="st2" d="M385.3,490.5c-1.2,0-2.3-0.3-3.1-1S381,488,381,487c0-0.8,0.2-1.5,0.7-2.1s1-1.1,1.7-1.5
				c0,0,0,0,0-0.1s0-0.1,0-0.1c-1.2-0.8-1.8-1.8-1.8-3c0-1,0.3-1.8,1-2.4c0.7-0.6,1.6-0.9,2.6-0.9c1.1,0,2,0.3,2.7,1
				c0.7,0.6,1,1.5,1,2.5c0,0.6-0.2,1.2-0.5,1.8s-0.8,1-1.2,1.4c0,0,0,0,0,0.1s0,0.1,0,0.1c1.5,0.9,2.2,2,2.2,3.4
				c0,1-0.4,1.8-1.2,2.4C387.5,490.2,386.5,490.5,385.3,490.5z M385.3,489.3c0.8,0,1.4-0.2,1.9-0.6c0.5-0.4,0.7-1,0.7-1.6
				c0-0.3-0.1-0.7-0.2-0.9s-0.3-0.5-0.5-0.7c-0.2-0.2-0.4-0.4-0.8-0.6c-0.3-0.2-0.6-0.4-0.9-0.5c-0.3-0.1-0.6-0.3-1.1-0.5
				c0,0-0.1,0-0.1,0c0,0-0.1,0-0.1,0.1c-0.5,0.4-0.9,0.8-1.3,1.3c-0.3,0.5-0.5,1-0.5,1.6c0,0.7,0.3,1.3,0.8,1.7
				C383.9,489.1,384.5,489.3,385.3,489.3z M386.1,483.1c0.1,0,0.2,0,0.2-0.1c0.9-0.8,1.3-1.6,1.3-2.6c0-0.7-0.2-1.2-0.6-1.7
				s-1-0.7-1.7-0.7c-0.6,0-1.1,0.2-1.5,0.6s-0.6,0.9-0.6,1.6c0,0.4,0.1,0.7,0.2,1c0.1,0.3,0.4,0.6,0.7,0.8s0.6,0.4,0.9,0.6
				S385.6,482.9,386.1,483.1z"/>
		</g>
		<g id="XMLID_47_">
			<path id="XMLID_48_" class="st2" d="M426.1,489.6c-0.2-0.1-0.2-0.3-0.2-0.5s0.1-0.4,0.2-0.5c0.1-0.1,0.3-0.2,0.5-0.2
				s0.4,0,0.5,0.1c0.5,0.4,1.1,0.5,1.8,0.5c0.9,0,1.7-0.4,2.3-1.3c0.6-0.8,1-2.2,1-4.1c0,0,0,0,0,0s0,0-0.1,0
				c-0.4,0.5-0.9,0.8-1.4,1.1c-0.5,0.3-1.1,0.4-1.6,0.4c-1.1,0-2-0.4-2.7-1.1c-0.7-0.7-1-1.7-1-3.1c0-1.3,0.4-2.3,1.1-3.1
				c0.7-0.8,1.7-1.2,2.7-1.2c1.3,0,2.4,0.5,3.3,1.6s1.2,2.6,1.2,4.7c0,1.3-0.1,2.4-0.4,3.4s-0.6,1.8-1.1,2.3c-0.5,0.6-1,1-1.5,1.3
				s-1.2,0.4-1.8,0.4C427.8,490.5,426.9,490.2,426.1,489.6z M429.3,484.1c1,0,1.9-0.6,2.7-1.7c0-0.1,0.1-0.1,0.1-0.2
				c-0.1-1.3-0.4-2.3-0.9-3c-0.5-0.7-1.2-1-2-1c-0.7,0-1.2,0.3-1.6,0.8c-0.4,0.6-0.6,1.3-0.6,2.2c0,0.9,0.2,1.6,0.6,2.2
				C428,483.8,428.5,484.1,429.3,484.1z"/>
		</g>
		<g id="XMLID_84_">
			<path id="XMLID_85_" d="M466.1,490.3c-0.2,0-0.4-0.1-0.5-0.2s-0.2-0.3-0.2-0.5s0.1-0.3,0.2-0.5s0.3-0.2,0.5-0.2h2.2
				c0.1,0,0.1,0,0.1-0.1v-9.6c0-0.1,0-0.1-0.1-0.1h-1.7c-0.2,0-0.3-0.1-0.4-0.2c-0.1-0.1-0.2-0.2-0.2-0.4c0-0.1,0-0.3,0.1-0.4
				c0.1-0.1,0.2-0.2,0.4-0.2c0.6-0.1,1.2-0.3,1.7-0.5c0.4-0.2,0.8-0.3,1.2-0.3c0.2,0,0.3,0.1,0.5,0.2c0.1,0.1,0.2,0.3,0.2,0.4v11.1
				c0,0.1,0,0.1,0.1,0.1h1.9c0.2,0,0.4,0.1,0.5,0.2s0.2,0.3,0.2,0.5s-0.1,0.3-0.2,0.5s-0.3,0.2-0.5,0.2H466.1z"/>
			<path id="XMLID_87_" d="M479.1,490.5c-1.3,0-2.3-0.6-3.1-1.8s-1.1-2.9-1.1-5.1c0-2.2,0.4-3.9,1.1-5.1c0.7-1.1,1.8-1.7,3.1-1.7
				c1.3,0,2.3,0.6,3.1,1.7c0.7,1.1,1.1,2.8,1.1,5.1c0,2.2-0.4,4-1.1,5.1C481.4,489.9,480.4,490.5,479.1,490.5z M479.1,489.2
				c0.8,0,1.4-0.5,1.9-1.4c0.5-0.9,0.7-2.3,0.7-4.2c0-1.9-0.2-3.2-0.7-4.1c-0.5-0.9-1.1-1.3-1.9-1.3c-0.8,0-1.4,0.4-1.9,1.3
				s-0.7,2.3-0.7,4.1c0,1.9,0.2,3.3,0.7,4.2S478.3,489.2,479.1,489.2z"/>
		</g>
		<g id="XMLID_79_">
			<path id="XMLID_80_" d="M510.5,490.3c-0.2,0-0.4-0.1-0.5-0.2s-0.2-0.3-0.2-0.5s0.1-0.3,0.2-0.5s0.3-0.2,0.5-0.2h2.2
				c0.1,0,0.1,0,0.1-0.1v-9.6c0-0.1,0-0.1-0.1-0.1h-1.7c-0.2,0-0.3,0-0.4-0.1c-0.1-0.1-0.2-0.2-0.2-0.4c0-0.1,0-0.3,0.1-0.4
				c0.1-0.1,0.2-0.2,0.4-0.2c0.6-0.1,1.2-0.3,1.7-0.5c0.4-0.2,0.8-0.3,1.2-0.3c0.2,0,0.3,0.1,0.5,0.2c0.1,0.1,0.2,0.3,0.2,0.4v11.1
				c0,0.1,0,0.1,0.1,0.1h1.9c0.2,0,0.4,0.1,0.5,0.2s0.2,0.3,0.2,0.5s-0.1,0.3-0.2,0.5s-0.3,0.2-0.5,0.2H510.5z"/>
			<path id="XMLID_82_" d="M520.7,490.3c-0.2,0-0.4-0.1-0.5-0.2s-0.2-0.3-0.2-0.5s0.1-0.3,0.2-0.5s0.3-0.2,0.5-0.2h2.2
				c0.1,0,0.1,0,0.1-0.1v-9.6c0-0.1,0-0.1-0.1-0.1h-1.7c-0.2,0-0.3,0-0.4-0.1c-0.1-0.1-0.2-0.2-0.2-0.4c0-0.1,0-0.3,0.1-0.4
				c0.1-0.1,0.2-0.2,0.4-0.2c0.6-0.1,1.2-0.3,1.7-0.5c0.4-0.2,0.8-0.3,1.2-0.3c0.2,0,0.3,0.1,0.5,0.2c0.1,0.1,0.2,0.3,0.2,0.4v11.1
				c0,0.1,0,0.1,0.1,0.1h1.9c0.2,0,0.4,0.1,0.5,0.2s0.2,0.3,0.2,0.5s-0.1,0.3-0.2,0.5s-0.3,0.2-0.5,0.2H520.7z"/>
		</g>
		<g id="XMLID_74_">
			<path id="XMLID_75_" d="M554.9,490.3c-0.2,0-0.4-0.1-0.5-0.2c-0.1-0.1-0.2-0.3-0.2-0.5s0.1-0.3,0.2-0.5c0.1-0.1,0.3-0.2,0.5-0.2
				h2.2c0.1,0,0.1,0,0.1-0.1v-9.6c0-0.1,0-0.1-0.1-0.1h-1.7c-0.2,0-0.3,0-0.4-0.1c-0.1-0.1-0.2-0.2-0.2-0.4c0-0.1,0-0.3,0.1-0.4
				s0.2-0.2,0.4-0.2c0.6-0.1,1.2-0.3,1.7-0.5c0.4-0.2,0.8-0.3,1.2-0.3c0.2,0,0.3,0.1,0.5,0.2s0.2,0.3,0.2,0.4v11.1
				c0,0.1,0,0.1,0.1,0.1h1.9c0.2,0,0.4,0.1,0.5,0.2c0.1,0.1,0.2,0.3,0.2,0.5s-0.1,0.3-0.2,0.5c-0.1,0.1-0.3,0.2-0.5,0.2H554.9z"/>
			<path id="XMLID_77_" d="M564,490.3c-0.1,0-0.3,0-0.4-0.1c-0.1-0.1-0.1-0.2-0.1-0.4c0-0.3,0.1-0.6,0.4-0.8c2-1.7,3.5-3.3,4.4-4.6
				s1.4-2.5,1.4-3.6c0-0.8-0.2-1.4-0.6-1.9c-0.4-0.5-1-0.7-1.8-0.7s-1.6,0.3-2.3,1c-0.1,0.1-0.3,0.2-0.5,0.2c-0.2,0-0.3-0.1-0.5-0.2
				c-0.1-0.1-0.2-0.3-0.2-0.5s0.1-0.3,0.2-0.5c1-1,2.2-1.5,3.5-1.5c1.2,0,2.1,0.4,2.8,1.1s1.1,1.7,1.1,2.8c0,1.2-0.4,2.5-1.3,3.8
				s-2.2,2.8-3.8,4.3c0,0,0,0,0,0.1s0,0,0.1,0c1-0.1,1.7-0.1,2.1-0.1h3c0.2,0,0.4,0.1,0.5,0.2c0.1,0.1,0.2,0.3,0.2,0.5
				s-0.1,0.4-0.2,0.5c-0.1,0.1-0.3,0.2-0.5,0.2H564z"/>
		</g>
		<g id="XMLID_69_">
			<path id="XMLID_70_" d="M599.2,490.3c-0.2,0-0.4-0.1-0.5-0.2c-0.1-0.1-0.2-0.3-0.2-0.5s0.1-0.3,0.2-0.5c0.1-0.1,0.3-0.2,0.5-0.2
				h2.2c0.1,0,0.1,0,0.1-0.1v-9.6c0-0.1,0-0.1-0.1-0.1h-1.7c-0.2,0-0.3,0-0.4-0.1c-0.1-0.1-0.2-0.2-0.2-0.4c0-0.1,0-0.3,0.1-0.4
				c0.1-0.1,0.2-0.2,0.4-0.2c0.6-0.1,1.2-0.3,1.7-0.5c0.4-0.2,0.8-0.3,1.2-0.3c0.2,0,0.3,0.1,0.5,0.2c0.1,0.1,0.2,0.3,0.2,0.4v11.1
				c0,0.1,0,0.1,0.1,0.1h1.9c0.2,0,0.4,0.1,0.5,0.2c0.1,0.1,0.2,0.3,0.2,0.5s-0.1,0.3-0.2,0.5c-0.1,0.1-0.3,0.2-0.5,0.2H599.2z"/>
			<path id="XMLID_72_" d="M611.9,490.5c-1.5,0-2.8-0.4-3.8-1.3c-0.2-0.1-0.2-0.3-0.2-0.5c0-0.2,0.1-0.3,0.2-0.5
				c0.1-0.1,0.3-0.2,0.4-0.2c0.2,0,0.3,0,0.5,0.2c0.8,0.7,1.8,1,2.8,1c0.8,0,1.5-0.2,2-0.7c0.5-0.4,0.8-1,0.8-1.8
				c0-1.6-1.2-2.5-3.5-2.6c-0.2,0-0.3-0.1-0.5-0.2c-0.1-0.1-0.2-0.3-0.2-0.4s0.1-0.3,0.2-0.4c0.1-0.1,0.3-0.2,0.5-0.2
				c1.1-0.1,1.9-0.3,2.3-0.8s0.7-1,0.7-1.7c0-0.6-0.2-1.2-0.6-1.5c-0.4-0.4-1-0.6-1.7-0.6c-0.8,0-1.5,0.3-2.3,0.9
				c-0.2,0.1-0.3,0.2-0.5,0.2c-0.2,0-0.3-0.1-0.5-0.2s-0.2-0.3-0.2-0.5s0.1-0.3,0.3-0.5c1-0.8,2.1-1.1,3.2-1.1s2.1,0.3,2.8,0.9
				s1.1,1.4,1.1,2.4c0,0.8-0.2,1.4-0.6,2c-0.4,0.5-1,0.9-1.7,1.2c0,0,0,0,0,0.1s0,0,0,0c0.8,0.2,1.5,0.6,2,1.2s0.8,1.3,0.8,2.2
				c0,1.1-0.4,2.1-1.2,2.7S613.1,490.5,611.9,490.5z"/>
		</g>
		<g id="XMLID_63_">
			<path id="XMLID_64_" d="M643.6,490.3c-0.2,0-0.4-0.1-0.5-0.2c-0.1-0.1-0.2-0.3-0.2-0.5s0.1-0.3,0.2-0.5c0.1-0.1,0.3-0.2,0.5-0.2
				h2.2c0.1,0,0.1,0,0.1-0.1v-9.6c0-0.1,0-0.1-0.1-0.1H644c-0.2,0-0.3,0-0.4-0.1c-0.1-0.1-0.2-0.2-0.2-0.4c0-0.1,0-0.3,0.1-0.4
				c0.1-0.1,0.2-0.2,0.4-0.2c0.6-0.1,1.2-0.3,1.7-0.5c0.4-0.2,0.8-0.3,1.2-0.3c0.2,0,0.3,0.1,0.5,0.2c0.1,0.1,0.2,0.3,0.2,0.4v11.1
				c0,0.1,0,0.1,0.1,0.1h1.9c0.2,0,0.4,0.1,0.5,0.2c0.1,0.1,0.2,0.3,0.2,0.5s-0.1,0.3-0.2,0.5c-0.1,0.1-0.3,0.2-0.5,0.2H643.6z"/>
			<path id="XMLID_66_" d="M660.4,485.3c0.2,0,0.4,0.1,0.5,0.2c0.1,0.1,0.2,0.3,0.2,0.5s-0.1,0.3-0.2,0.5c-0.1,0.1-0.3,0.2-0.5,0.2
				h-1c-0.1,0-0.1,0-0.1,0.1v2.7c0,0.2-0.1,0.4-0.2,0.6c-0.2,0.2-0.3,0.2-0.6,0.2s-0.4-0.1-0.6-0.2s-0.2-0.3-0.2-0.6v-2.7
				c0-0.1,0-0.1-0.1-0.1h-5.2c-0.2,0-0.3-0.1-0.4-0.2s-0.2-0.2-0.2-0.4c0-0.4,0.1-0.7,0.3-1l4.8-7.3c0.3-0.5,0.8-0.8,1.4-0.8
				c0.3,0,0.5,0.1,0.6,0.3s0.3,0.4,0.3,0.6v7.2c0,0.1,0,0.1,0.1,0.1H660.4z M653.6,485.2C653.6,485.2,653.6,485.3,653.6,485.2
				c0,0.1,0,0.1,0.1,0.1h3.8c0.1,0,0.1,0,0.1-0.1v-3.9c0-0.2,0-1,0.1-2.4c0,0,0,0,0,0c0,0,0,0-0.1,0c-0.3,0.6-0.6,1.2-1.1,1.9
				L653.6,485.2z"/>
		</g>
		<g id="XMLID_1_">
			<path id="XMLID_2_" d="M687.9,490.3c-0.2,0-0.4-0.1-0.5-0.2c-0.1-0.1-0.2-0.3-0.2-0.5s0.1-0.3,0.2-0.5c0.1-0.1,0.3-0.2,0.5-0.2
				h2.2c0.1,0,0.1,0,0.1-0.1v-9.6c0-0.1,0-0.1-0.1-0.1h-1.7c-0.2,0-0.3,0-0.4-0.1c-0.1-0.1-0.2-0.2-0.2-0.4c0-0.1,0-0.3,0.1-0.4
				c0.1-0.1,0.2-0.2,0.4-0.2c0.6-0.1,1.2-0.3,1.7-0.5c0.4-0.2,0.8-0.3,1.2-0.3c0.2,0,0.3,0.1,0.5,0.2c0.1,0.1,0.2,0.3,0.2,0.4v11.1
				c0,0.1,0,0.1,0.1,0.1h1.9c0.2,0,0.4,0.1,0.5,0.2c0.1,0.1,0.2,0.3,0.2,0.5s-0.1,0.3-0.2,0.5c-0.1,0.1-0.3,0.2-0.5,0.2H687.9z"/>
			<path id="XMLID_4_" d="M700.6,490.5c-1.4,0-2.7-0.4-3.8-1.3c-0.2-0.1-0.3-0.3-0.3-0.5c0-0.2,0.1-0.3,0.2-0.5s0.3-0.2,0.4-0.2
				s0.3,0,0.5,0.2c0.8,0.7,1.8,1,2.8,1c0.8,0,1.5-0.3,2-0.9s0.8-1.3,0.8-2.3s-0.3-1.7-0.8-2.2c-0.5-0.5-1.2-0.8-2-0.8
				c-0.6,0-1.2,0.2-1.8,0.5c-0.2,0.1-0.3,0.1-0.5,0.1c-0.1,0-0.3,0-0.4-0.1c-0.3-0.2-0.4-0.4-0.4-0.8l0.3-4.6c0-0.3,0.1-0.5,0.3-0.7
				s0.5-0.3,0.8-0.3h4.8c0.2,0,0.4,0.1,0.5,0.2c0.1,0.1,0.2,0.3,0.2,0.5s-0.1,0.4-0.2,0.5c-0.1,0.1-0.3,0.2-0.5,0.2h-4.2
				c-0.1,0-0.1,0-0.1,0.1l-0.3,3.6c0,0,0,0,0,0.1c0,0,0,0,0.1,0c0.6-0.3,1.2-0.5,1.9-0.5c1.2,0,2.2,0.4,2.9,1.1s1.1,1.7,1.1,3.1
				c0,0.9-0.2,1.8-0.6,2.5c-0.4,0.7-1,1.2-1.6,1.6S701.4,490.5,700.6,490.5z"/>
		</g>
		<g id="XMLID_108_">
			<path id="XMLID_109_" d="M732.3,490.3c-0.2,0-0.4-0.1-0.5-0.2c-0.1-0.1-0.2-0.3-0.2-0.5s0.1-0.3,0.2-0.5c0.1-0.1,0.3-0.2,0.5-0.2
				h2.2c0.1,0,0.1,0,0.1-0.1v-9.6c0-0.1,0-0.1-0.1-0.1h-1.7c-0.2,0-0.3-0.1-0.4-0.2c-0.1-0.1-0.2-0.2-0.2-0.4c0-0.1,0-0.3,0.1-0.4
				c0.1-0.1,0.2-0.2,0.4-0.2c0.6-0.1,1.2-0.3,1.7-0.5c0.4-0.2,0.8-0.3,1.2-0.3c0.2,0,0.3,0.1,0.5,0.2c0.1,0.1,0.2,0.3,0.2,0.4v11.1
				c0,0.1,0,0.1,0.1,0.1h1.9c0.2,0,0.4,0.1,0.5,0.2c0.1,0.1,0.2,0.3,0.2,0.5s-0.1,0.3-0.2,0.5c-0.1,0.1-0.3,0.2-0.5,0.2H732.3z"/>
			<path id="XMLID_111_" d="M748.8,477.7c0.1,0.1,0.2,0.3,0.2,0.5s-0.1,0.4-0.2,0.5c-0.1,0.1-0.3,0.2-0.5,0.2c-0.2,0-0.3,0-0.5-0.1
				c-0.5-0.4-1.1-0.5-1.7-0.5c-1,0-1.8,0.4-2.4,1.3c-0.6,0.8-1,2.2-1,4.1c0,0,0,0,0,0c0,0,0,0,0.1,0c0.4-0.5,0.9-0.8,1.4-1.1
				s1-0.4,1.6-0.4c1.2,0,2.1,0.4,2.7,1.1s1,1.7,1,3.1c0,1.2-0.4,2.3-1.1,3.1s-1.7,1.2-2.7,1.2c-1.3,0-2.4-0.6-3.2-1.7
				c-0.8-1.1-1.2-2.7-1.2-4.8c0-1.3,0.1-2.4,0.4-3.3s0.6-1.7,1.1-2.2c0.5-0.5,1-1,1.6-1.2c0.6-0.3,1.2-0.4,1.9-0.4
				C747.2,476.8,748,477.1,748.8,477.7z M745.7,489.2c0.7,0,1.2-0.3,1.6-0.8s0.6-1.3,0.6-2.2c0-0.9-0.2-1.6-0.6-2.1
				c-0.4-0.5-1-0.8-1.8-0.8c-1,0-1.9,0.5-2.7,1.6c-0.1,0.1-0.1,0.1-0.1,0.2c0.1,1.3,0.4,2.4,0.9,3.1S744.9,489.2,745.7,489.2z"/>
		</g>
		<g id="XMLID_103_">
			<path id="XMLID_104_" class="st2" d="M776.7,490.3c-0.2,0-0.4-0.1-0.5-0.2c-0.1-0.1-0.2-0.3-0.2-0.5s0.1-0.3,0.2-0.5
				c0.1-0.1,0.3-0.2,0.5-0.2h2.2c0.1,0,0.1,0,0.1-0.1v-9.6c0-0.1,0-0.1-0.1-0.1h-1.7c-0.2,0-0.3,0-0.4-0.1c-0.1-0.1-0.2-0.2-0.2-0.4
				c0-0.1,0-0.3,0.1-0.4c0.1-0.1,0.2-0.2,0.4-0.2c0.6-0.1,1.2-0.3,1.7-0.5c0.4-0.2,0.8-0.3,1.2-0.3c0.2,0,0.3,0.1,0.5,0.2
				c0.1,0.1,0.2,0.3,0.2,0.4v11.1c0,0.1,0,0.1,0.1,0.1h1.9c0.2,0,0.4,0.1,0.5,0.2c0.1,0.1,0.2,0.3,0.2,0.5s-0.1,0.3-0.2,0.5
				c-0.1,0.1-0.3,0.2-0.5,0.2H776.7z"/>
			<path id="XMLID_106_" class="st2" d="M789.9,489.4c0,0.2-0.1,0.5-0.3,0.6c-0.2,0.2-0.4,0.2-0.6,0.2c-0.2,0-0.4-0.1-0.6-0.2
				s-0.2-0.3-0.2-0.5c0-1.9,0.3-3.9,1-5.9c0.6-1.7,1.4-3.3,2.6-5c0,0,0,0,0-0.1s0,0-0.1,0h-5.7c-0.2,0-0.4-0.1-0.5-0.2
				c-0.1-0.1-0.2-0.3-0.2-0.5s0.1-0.4,0.2-0.5c0.1-0.1,0.3-0.2,0.5-0.2h7.2c0.1,0,0.3,0.1,0.4,0.2s0.1,0.2,0.1,0.4
				c0,0.3-0.1,0.6-0.3,0.9c-1.3,1.7-2.2,3.3-2.7,4.9C790.4,485,790.1,487,789.9,489.4z"/>
		</g>
		<g id="XMLID_96_">
			<path id="XMLID_97_" class="st2" d="M821,490.3c-0.2,0-0.4-0.1-0.5-0.2c-0.1-0.1-0.2-0.3-0.2-0.5s0.1-0.3,0.2-0.5
				c0.1-0.1,0.3-0.2,0.5-0.2h2.2c0.1,0,0.1,0,0.1-0.1v-9.6c0-0.1,0-0.1-0.1-0.1h-1.7c-0.2,0-0.3-0.1-0.4-0.2
				c-0.1-0.1-0.2-0.2-0.2-0.4c0-0.1,0-0.3,0.1-0.4c0.1-0.1,0.2-0.2,0.4-0.2c0.6-0.1,1.2-0.3,1.7-0.5c0.4-0.2,0.8-0.3,1.2-0.3
				c0.2,0,0.3,0.1,0.5,0.2c0.1,0.1,0.2,0.3,0.2,0.4v11.1c0,0.1,0,0.1,0.1,0.1h1.9c0.2,0,0.4,0.1,0.5,0.2c0.1,0.1,0.2,0.3,0.2,0.5
				s-0.1,0.3-0.2,0.5c-0.1,0.1-0.3,0.2-0.5,0.2H821z"/>
			<path id="XMLID_99_" class="st2" d="M834,490.5c-1.2,0-2.3-0.3-3.1-1c-0.8-0.7-1.2-1.5-1.2-2.5c0-0.8,0.2-1.5,0.7-2.1
				s1-1.1,1.7-1.5c0,0,0,0,0-0.1s0-0.1,0-0.1c-1.2-0.8-1.8-1.8-1.8-3c0-1,0.3-1.8,1-2.4c0.7-0.6,1.6-0.9,2.6-0.9c1.1,0,2,0.3,2.7,1
				c0.7,0.6,1,1.5,1,2.5c0,0.6-0.2,1.2-0.5,1.8c-0.4,0.6-0.8,1-1.2,1.4c0,0,0,0,0,0.1s0,0.1,0,0.1c1.5,0.9,2.2,2,2.2,3.4
				c0,1-0.4,1.8-1.2,2.4C836.3,490.2,835.3,490.5,834,490.5z M834.1,489.3c0.8,0,1.4-0.2,1.9-0.6c0.5-0.4,0.7-1,0.7-1.6
				c0-0.3-0.1-0.7-0.2-0.9c-0.1-0.3-0.3-0.5-0.5-0.7c-0.2-0.2-0.4-0.4-0.8-0.6s-0.6-0.4-0.9-0.5s-0.6-0.3-1.1-0.5c0,0-0.1,0-0.1,0
				c0,0-0.1,0-0.1,0.1c-0.5,0.4-0.9,0.8-1.3,1.3c-0.3,0.5-0.5,1-0.5,1.6c0,0.7,0.3,1.3,0.8,1.7S833.2,489.3,834.1,489.3z
				 M834.8,483.1c0.1,0,0.2,0,0.2-0.1c0.9-0.8,1.3-1.6,1.3-2.6c0-0.7-0.2-1.2-0.6-1.7c-0.4-0.5-1-0.7-1.7-0.7
				c-0.6,0-1.1,0.2-1.5,0.6c-0.4,0.4-0.6,0.9-0.6,1.6c0,0.4,0.1,0.7,0.2,1c0.1,0.3,0.4,0.6,0.7,0.8c0.3,0.2,0.6,0.4,0.9,0.6
				C834,482.7,834.4,482.9,834.8,483.1z"/>
		</g>
		<g id="XMLID_90_">
			<path id="XMLID_91_" d="M865.4,490.3c-0.2,0-0.4-0.1-0.5-0.2c-0.1-0.1-0.2-0.3-0.2-0.5s0.1-0.3,0.2-0.5c0.1-0.1,0.3-0.2,0.5-0.2
				h2.2c0.1,0,0.1,0,0.1-0.1v-9.6c0-0.1,0-0.1-0.1-0.1h-1.7c-0.2,0-0.3,0-0.4-0.1c-0.1-0.1-0.2-0.2-0.2-0.4c0-0.1,0-0.3,0.1-0.4
				c0.1-0.1,0.2-0.2,0.4-0.2c0.6-0.1,1.2-0.3,1.7-0.5c0.4-0.2,0.8-0.3,1.2-0.3c0.2,0,0.3,0.1,0.5,0.2c0.1,0.1,0.2,0.3,0.2,0.4v11.1
				c0,0.1,0,0.1,0.1,0.1h1.9c0.2,0,0.4,0.1,0.5,0.2c0.1,0.1,0.2,0.3,0.2,0.5s-0.1,0.3-0.2,0.5c-0.1,0.1-0.3,0.2-0.5,0.2H865.4z"/>
			<path id="XMLID_93_" d="M874.8,489.6c-0.2-0.1-0.2-0.3-0.2-0.5c0-0.2,0.1-0.4,0.2-0.5c0.1-0.1,0.3-0.2,0.5-0.2
				c0.2,0,0.4,0,0.5,0.1c0.5,0.4,1.1,0.5,1.8,0.5c0.9,0,1.7-0.4,2.3-1.3c0.6-0.8,1-2.2,1-4.1c0,0,0,0,0,0c0,0,0,0-0.1,0
				c-0.4,0.5-0.9,0.8-1.4,1.1c-0.5,0.3-1.1,0.4-1.6,0.4c-1.1,0-2-0.4-2.7-1.1s-1-1.7-1-3.1c0-1.3,0.4-2.3,1.1-3.1
				c0.7-0.8,1.7-1.2,2.7-1.2c1.3,0,2.4,0.5,3.3,1.6s1.2,2.6,1.2,4.7c0,1.3-0.1,2.4-0.4,3.4s-0.6,1.8-1.1,2.3c-0.5,0.6-1,1-1.5,1.3
				s-1.2,0.4-1.8,0.4C876.5,490.5,875.6,490.2,874.8,489.6z M878,484.1c1,0,1.9-0.6,2.7-1.7c0-0.1,0.1-0.1,0.1-0.2
				c-0.1-1.3-0.4-2.3-0.9-3s-1.2-1-2-1c-0.7,0-1.2,0.3-1.6,0.8s-0.6,1.3-0.6,2.2c0,0.9,0.2,1.6,0.6,2.2
				C876.7,483.8,877.3,484.1,878,484.1z"/>
		</g>
		<g id="XMLID_129_">
			<path id="XMLID_130_" d="M908.8,490.3c-0.1,0-0.3,0-0.4-0.1c-0.1-0.1-0.1-0.2-0.1-0.4c0-0.3,0.1-0.6,0.4-0.8
				c2-1.7,3.5-3.3,4.4-4.6s1.4-2.5,1.4-3.6c0-0.8-0.2-1.4-0.6-1.9c-0.4-0.5-1-0.7-1.8-0.7s-1.6,0.3-2.3,1c-0.1,0.1-0.3,0.2-0.5,0.2
				c-0.2,0-0.3-0.1-0.5-0.2c-0.1-0.1-0.2-0.3-0.2-0.5c0-0.2,0.1-0.3,0.2-0.5c1.1-1,2.2-1.5,3.5-1.5c1.2,0,2.1,0.4,2.8,1.1
				s1.1,1.7,1.1,2.8c0,1.2-0.4,2.5-1.3,3.8s-2.2,2.8-3.8,4.3c0,0,0,0,0,0.1s0,0,0.1,0c1-0.1,1.7-0.1,2.1-0.1h3
				c0.2,0,0.4,0.1,0.5,0.2c0.1,0.1,0.2,0.3,0.2,0.5s-0.1,0.4-0.2,0.5c-0.1,0.1-0.3,0.2-0.5,0.2H908.8z"/>
			<path id="XMLID_132_" d="M922.7,490.5c-1.3,0-2.3-0.6-3.1-1.7s-1.1-2.9-1.1-5.1c0-2.2,0.4-3.9,1.1-5.1s1.8-1.7,3.1-1.7
				c1.3,0,2.3,0.6,3.1,1.7c0.7,1.1,1.1,2.8,1.1,5.1c0,2.2-0.4,4-1.1,5.1C925,489.9,924,490.5,922.7,490.5z M922.7,489.2
				c0.8,0,1.4-0.5,1.9-1.4c0.5-0.9,0.7-2.3,0.7-4.2c0-1.9-0.2-3.2-0.7-4.1c-0.5-0.9-1.1-1.3-1.9-1.3c-0.8,0-1.4,0.4-1.9,1.3
				s-0.7,2.3-0.7,4.1c0,1.9,0.2,3.3,0.7,4.2S921.9,489.2,922.7,489.2z"/>
		</g>
		<g id="XMLID_124_">
			<path id="XMLID_125_" d="M953.1,490.3c-0.1,0-0.3,0-0.4-0.1c-0.1-0.1-0.1-0.2-0.1-0.4c0-0.3,0.1-0.6,0.4-0.8
				c2-1.7,3.5-3.3,4.4-4.6s1.4-2.5,1.4-3.6c0-0.8-0.2-1.4-0.6-1.9c-0.4-0.5-1-0.7-1.8-0.7s-1.6,0.3-2.3,1c-0.1,0.1-0.3,0.2-0.5,0.2
				c-0.2,0-0.3-0.1-0.5-0.2c-0.1-0.1-0.2-0.3-0.2-0.5c0-0.2,0.1-0.3,0.2-0.5c1.1-1,2.2-1.5,3.5-1.5c1.2,0,2.1,0.4,2.8,1.1
				s1.1,1.7,1.1,2.8c0,1.2-0.4,2.5-1.3,3.8s-2.2,2.8-3.8,4.3c0,0,0,0,0,0.1s0,0,0.1,0c1-0.1,1.7-0.1,2.1-0.1h3
				c0.2,0,0.4,0.1,0.5,0.2c0.1,0.1,0.2,0.3,0.2,0.5s-0.1,0.4-0.2,0.5c-0.1,0.1-0.3,0.2-0.5,0.2H953.1z"/>
			<path id="XMLID_127_" d="M964.3,490.3c-0.2,0-0.4-0.1-0.5-0.2c-0.1-0.1-0.2-0.3-0.2-0.5s0.1-0.3,0.2-0.5c0.1-0.1,0.3-0.2,0.5-0.2
				h2.2c0.1,0,0.1,0,0.1-0.1v-9.6c0-0.1,0-0.1-0.1-0.1h-1.7c-0.2,0-0.3,0-0.4-0.1c-0.1-0.1-0.2-0.2-0.2-0.4c0-0.1,0-0.3,0.1-0.4
				c0.1-0.1,0.2-0.2,0.4-0.2c0.6-0.1,1.2-0.3,1.7-0.5c0.4-0.2,0.8-0.3,1.2-0.3c0.2,0,0.3,0.1,0.5,0.2c0.1,0.1,0.2,0.3,0.2,0.4v11.1
				c0,0.1,0,0.1,0.1,0.1h1.9c0.2,0,0.4,0.1,0.5,0.2c0.1,0.1,0.2,0.3,0.2,0.5s-0.1,0.3-0.2,0.5c-0.1,0.1-0.3,0.2-0.5,0.2H964.3z"/>
		</g>
		<g id="XMLID_119_">
			<path id="XMLID_120_" d="M997.5,490.3c-0.1,0-0.3,0-0.4-0.1c-0.1-0.1-0.1-0.2-0.1-0.4c0-0.3,0.1-0.6,0.4-0.8
				c2-1.7,3.5-3.3,4.4-4.6s1.4-2.5,1.4-3.6c0-0.8-0.2-1.4-0.6-1.9c-0.4-0.5-1-0.7-1.8-0.7s-1.6,0.3-2.3,1c-0.1,0.1-0.3,0.2-0.5,0.2
				c-0.2,0-0.3-0.1-0.5-0.2c-0.1-0.1-0.2-0.3-0.2-0.5c0-0.2,0.1-0.3,0.2-0.5c1.1-1,2.2-1.5,3.5-1.5c1.2,0,2.1,0.4,2.8,1.1
				s1.1,1.7,1.1,2.8c0,1.2-0.4,2.5-1.3,3.8s-2.2,2.8-3.8,4.3c0,0,0,0,0,0.1s0,0,0.1,0c1-0.1,1.7-0.1,2.1-0.1h3
				c0.2,0,0.4,0.1,0.5,0.2c0.1,0.1,0.2,0.3,0.2,0.5s-0.1,0.4-0.2,0.5c-0.1,0.1-0.3,0.2-0.5,0.2H997.5z"/>
			<path id="XMLID_122_" d="M1007.7,490.3c-0.1,0-0.3,0-0.4-0.1c-0.1-0.1-0.1-0.2-0.1-0.4c0-0.3,0.1-0.6,0.4-0.8
				c2-1.7,3.5-3.3,4.4-4.6s1.4-2.5,1.4-3.6c0-0.8-0.2-1.4-0.6-1.9c-0.4-0.5-1-0.7-1.8-0.7s-1.6,0.3-2.3,1c-0.1,0.1-0.3,0.2-0.5,0.2
				c-0.2,0-0.3-0.1-0.5-0.2c-0.1-0.1-0.2-0.3-0.2-0.5c0-0.2,0.1-0.3,0.2-0.5c1.1-1,2.2-1.5,3.5-1.5c1.2,0,2.1,0.4,2.8,1.1
				s1.1,1.7,1.1,2.8c0,1.2-0.4,2.5-1.3,3.8s-2.2,2.8-3.8,4.3c0,0,0,0,0,0.1s0,0,0.1,0c1-0.1,1.7-0.1,2.1-0.1h3
				c0.2,0,0.4,0.1,0.5,0.2c0.1,0.1,0.2,0.3,0.2,0.5s-0.1,0.4-0.2,0.5c-0.1,0.1-0.3,0.2-0.5,0.2H1007.7z"/>
		</g>
		<g id="XMLID_114_">
			<path id="XMLID_115_" d="M1041.9,490.3c-0.1,0-0.3,0-0.4-0.1c-0.1-0.1-0.1-0.2-0.1-0.4c0-0.3,0.1-0.6,0.4-0.8
				c2-1.7,3.5-3.3,4.4-4.6s1.4-2.5,1.4-3.6c0-0.8-0.2-1.4-0.6-1.9c-0.4-0.5-1-0.7-1.8-0.7s-1.6,0.3-2.3,1c-0.1,0.1-0.3,0.2-0.5,0.2
				c-0.2,0-0.3-0.1-0.5-0.2c-0.1-0.1-0.2-0.3-0.2-0.5c0-0.2,0.1-0.3,0.2-0.5c1.1-1,2.2-1.5,3.5-1.5c1.2,0,2.1,0.4,2.8,1.1
				s1.1,1.7,1.1,2.8c0,1.2-0.4,2.5-1.3,3.8s-2.2,2.8-3.8,4.3c0,0,0,0,0,0.1s0,0,0.1,0c1-0.1,1.7-0.1,2.1-0.1h3
				c0.2,0,0.4,0.1,0.5,0.2c0.1,0.1,0.2,0.3,0.2,0.5s-0.1,0.4-0.2,0.5c-0.1,0.1-0.3,0.2-0.5,0.2H1041.9z"/>
			<path id="XMLID_117_" d="M1055.5,490.5c-1.5,0-2.8-0.4-3.8-1.3c-0.2-0.1-0.2-0.3-0.2-0.5c0-0.2,0.1-0.3,0.2-0.5
				c0.1-0.1,0.3-0.2,0.4-0.2c0.2,0,0.3,0,0.5,0.2c0.8,0.7,1.8,1,2.8,1c0.8,0,1.5-0.2,2-0.7c0.5-0.4,0.8-1,0.8-1.8
				c0-1.6-1.2-2.5-3.5-2.6c-0.2,0-0.3-0.1-0.5-0.2c-0.1-0.1-0.2-0.3-0.2-0.4s0.1-0.3,0.2-0.4c0.1-0.1,0.3-0.2,0.5-0.2
				c1.1-0.1,1.9-0.3,2.3-0.8s0.7-1,0.7-1.7c0-0.6-0.2-1.2-0.6-1.5c-0.4-0.4-1-0.6-1.7-0.6c-0.8,0-1.5,0.3-2.3,0.9
				c-0.2,0.1-0.3,0.2-0.5,0.2c-0.2,0-0.3-0.1-0.5-0.2s-0.2-0.3-0.2-0.5s0.1-0.3,0.3-0.5c1-0.8,2.1-1.1,3.2-1.1s2.1,0.3,2.8,0.9
				s1.1,1.4,1.1,2.4c0,0.8-0.2,1.4-0.6,2c-0.4,0.5-1,0.9-1.7,1.2c0,0,0,0,0,0.1s0,0,0,0c0.8,0.2,1.5,0.6,2,1.2s0.8,1.3,0.8,2.2
				c0,1.1-0.4,2.1-1.2,2.7S1056.8,490.5,1055.5,490.5z"/>
		</g>
	</g>
	<g id="XMLID_429_">
		<polygon id="XMLID_35_" class="st2" points="1045.5,305 1001,211.2 957.1,222.2 912.6,236.6 869.5,183.2 825.7,127 784.5,105.6
			734.9,161.9 691.3,158.1 647.7,188.8 604.2,182.4 560.6,177.3 517,183.7 474,163.2 429.6,122.3 385.3,50.6 342.8,190.1
			296.5,372.8 252.2,420.6 207.5,435.8 163.4,435.8 119,426.8 74.6,408.9 30.2,373.1 30.4,467.8 1045.5,467.8 		"/>
		<g id="XMLID_30_">
			<path id="XMLID_34_" d="M1046.7,304.3c-13-27.4-26-54.7-38.9-82.1c-1.8-3.9-3.7-7.8-5.5-11.7c-0.3-0.6-1.1-0.8-1.7-0.7
				c-16.1,4-32.6,7.3-48.4,12.4c-11.3,3.7-22.6,7.3-34,11c-1.4,0.5-3.8,0.8-5,1.6c-1.2,0.9,0.3,0.9,0.2,0.2
				c-0.1-0.7-1.7-2.1-2.2-2.7c-1.5-1.8-3-3.7-4.5-5.5c-25.5-31.5-50.6-63.2-75.5-95.1c-1.5-1.9-2.9-4.5-4.8-6
				c-3-2.3-7.3-3.8-10.6-5.5c-10.2-5.3-20.3-10.6-30.5-15.9c-0.6-0.3-1.4-0.3-1.8,0.2c-11.9,13.4-23.7,26.9-35.6,40.3
				c-4.5,5.1-8.8,11.5-14,15.8c0.9-0.8,1,0-0.5-0.4c-1.6-0.4-3.6-0.3-5.2-0.5c-5.6-0.5-11.1-1-16.7-1.5c-5.2-0.5-10.5-0.9-15.7-1.4
				c-1.8-0.2-3.8-0.7-5.5-0.1c-2.6,1-5.2,3.7-7.4,5.2c-4.6,3.2-9.2,6.5-13.8,9.7c-7.3,5.1-14.7,10.1-21.9,15.4c-0.4,0.3,1.5,0.4,0,0
				c-1.5-0.4-3.3-0.5-4.9-0.7c-5.4-0.8-10.7-1.6-16.1-2.4c-16.5-2.4-32.9-4.5-49.4-6.5c-5.9-0.7-12.5-2.5-18.5-1.6
				c-10,1.5-20,2.9-30.1,4.4c-3.7,0.5-7.5,0.9-11.2,1.6c-1.4,0.3,1.3,0.7,0-0.1c-1.3-0.7-2.7-1.3-4-1.9c-9.9-4.7-19.8-9.4-29.7-14.1
				c-5.6-2.7-8.2-3.7-12.3-7.5c-7.9-7.3-15.8-14.6-23.7-21.9c-5.4-5-11.9-9.7-16.6-15.4c0.5,0.6-0.2-0.4-0.3-0.6c-0.7-1-1.2-2-1.8-3
				c-2-3.3-4.1-6.6-6.1-9.9c-11.1-18-22.3-35.9-33.4-53.9c-0.8-1.3-1.7-2.7-2.5-4c-0.7-1.1-2.4-0.9-2.7,0.4
				c-13.4,43.9-26.7,87.8-40.1,131.7c-3,10-5.5,20.1-8,30.2c-7,27.7-14,55.5-21,83.2c-5.9,23.4-11.8,46.7-17.7,70.1
				c-0.5,2.1-1,4.3-1.6,6.4c-0.2,0.7-0.4,0.9,0.2,0.1c-0.6,0.9-1.7,1.8-2.4,2.6c-9.1,9.8-18.3,19.6-27.4,29.4
				c-4,4.3-8,8.5-11.9,12.8c-0.8,0.8-1.5,1.8-2.4,2.6c-0.5,0.4,1.1-0.6,0.1-0.1c-0.6,0.3-1.4,0.5-2.1,0.7
				c-12.6,4.2-25.2,8.4-37.9,12.6c-3.5,1.2-3.9,1.4-7.2,1.4c-6.6,0-13.2,0-19.8,0c-6.3,0-12.5,0-18.8,0c-2.5,0-4.2-0.4-7.5-1.1
				c-12.5-2.5-25.3-4.4-37.7-7.5c-9.3-2.3-18.5-7.2-27.4-10.7c-5.5-2.2-10.9-4.5-16.4-6.6c-0.5-0.2-1-0.3-1.5-0.6
				c-0.1-0.1,1,0.6,0.3,0.1c-1.3-0.9-2.6-2.1-3.8-3.1c-10.8-8.7-21.5-17.4-32.3-26.1c-2.7-2.2-5.3-4.3-8-6.5c-1-0.8-2.6-0.3-2.6,1.1
				c0,27.5,0.1,55.1,0.1,82.6c0,3.9,0,7.9,0,11.8c0,0.8,0.7,1.5,1.5,1.5c9.1,0,18.2,0,27.3,0c24.6,0,49.2,0,73.7,0
				c36.4,0,72.9,0,109.3,0c44.5,0,88.9,0,133.4,0c48.5,0,97,0,145.6,0c49.3,0,98.6,0,147.9,0c45.7,0,91.3,0,137,0
				c38.7,0,77.4,0,116.2,0c27.8,0,55.7,0,83.5,0c13.2,0,26.3,0.2,39.5,0c0.6,0,1.2,0,1.7,0c0.8,0,1.5-0.7,1.5-1.5
				c0-47.3,0-94.7,0-142c0-6.7,0-13.5,0-20.2c0-1.9-3-1.9-3,0c0,47.3,0,94.7,0,142c0,6.7,0,13.5,0,20.2c0.5-0.5,1-1,1.5-1.5
				c-9.1,0-18.2,0-27.3,0c-24.6,0-49.2,0-73.7,0c-36.4,0-72.9,0-109.3,0c-44.5,0-88.9,0-133.4,0c-48.5,0-97,0-145.6,0
				c-49.3,0-98.6,0-147.9,0c-45.7,0-91.3,0-137,0c-38.7,0-77.4,0-116.2,0c-27.8,0-55.7,0-83.5,0c-8.6,0-17.3,0-25.9,0
				c-4.4,0-9.2-0.6-13.6,0c-0.6,0.1-1.2,0-1.7,0c0.5,0.5,1,1,1.5,1.5c0-27.5-0.1-55.1-0.1-82.6c0-3.9,0-7.9,0-11.8
				c-0.9,0.4-1.7,0.7-2.6,1.1c8.6,6.9,17.2,13.9,25.7,20.8c5.2,4.2,10.3,8.3,15.5,12.5c1.7,1.4,3.1,2.6,5.1,3.5
				c12.1,5.3,24.5,9.8,36.8,14.7c8.2,3.3,16.5,4.6,25.2,6.3c9,1.8,18.7,5,27.9,5.1c13,0.1,26,0,39,0c2.7,0,4.3-0.3,6.9-1.1
				c6.4-2.1,12.7-4.2,19.1-6.4c6.3-2.1,12.6-4.2,18.9-6.3c2.4-0.8,3.7-1.2,5.5-3c8.8-9.2,17.3-18.6,26-27.9c4.5-4.8,9-9.6,13.5-14.4
				c1.3-1.4,3.2-2.9,4-4.6c2.2-4.7,2.8-11,4-16c3-11.9,6-23.8,9-35.7c7.4-29.3,14.8-58.6,22.2-87.9c3.7-14.4,6.9-29,11-43.4
				c12.7-45.2,27.4-89.9,41-134.8c0.4-1.5,0.9-2.9,1.3-4.4c-0.9,0.1-1.8,0.2-2.7,0.4c9.2,14.9,18.5,29.8,27.7,44.8
				c4.9,8,9.8,15.9,14.8,23.9c2.2,3.5,4.7,5.7,7.7,8.5c8.2,7.6,16.4,15.1,24.6,22.7c4.6,4.3,9.3,9.9,14.6,13.4
				c2.5,1.6,5.6,2.7,8.3,3.9c5.2,2.5,10.3,4.9,15.5,7.4c4.8,2.3,9.5,4.5,14.3,6.8c1.9,0.9,4,2.4,6.1,2.5c2.6,0.2,5.8-0.8,8.4-1.2
				c5.8-0.9,11.6-1.7,17.4-2.6c4.9-0.7,9.7-1.4,14.6-2.1c2.5-0.4,2.7-0.5,4.6-0.2c16.3,2.3,33.3,3.7,48.5,5.9
				c10.7,1.6,21.3,3.1,32,4.7c1.8,0.3,4,1,5.7,0.4c2.5-0.9,5.3-3.7,7.5-5.3c9.2-6.5,18.5-13,27.7-19.5c2.5-1.8,5.2-4.3,7.9-5.6
				c0.5-0.3-1-0.1,0.6,0.1c1.7,0.2,3.5,0.3,5.2,0.5c10.9,1,21.9,1.9,32.8,2.9c1.8,0.2,4.1,0.8,5.6-0.1c1.6-0.9,3-3.4,4.2-4.8
				c14-15.8,27.9-31.7,41.9-47.5c1.2-1.3,2.3-2.6,3.5-4c-0.6,0.1-1.2,0.2-1.8,0.2c12.1,6.3,24.1,12.5,36.2,18.8
				c3.5,1.8,4.4,2,6.5,4.7c4,5.1,7.9,10.2,11.9,15.2c15,19.3,30,38.5,45.4,57.5c9.3,11.5,18.5,23,27.8,34.4c0.3,0.4,1,0.5,1.5,0.4
				c12.7-4.1,25.5-8.2,38.2-12.4c10.2-3.3,20.7-5.6,31.1-8.2c6.3-1.6,12.6-3.2,19-4.7c-0.6-0.2-1.1-0.5-1.7-0.7
				c13,27.4,26,54.7,38.9,82.1c1.8,3.9,3.7,7.8,5.5,11.7C1045,307.5,1047.6,306,1046.7,304.3z"/>
		</g>
	</g>
	<g id="XMLID_423_">
		<g id="XMLID_24_">
			<path id="XMLID_28_" d="M10.5,468.8c9.5,0,19.1,0,28.6,0c25.7,0,51.4,0,77.1,0c38.1,0,76.2,0,114.4,0c46.5,0,93,0,139.5,0
				c50.8,0,101.5,0,152.3,0c51.6,0,103.2,0,154.8,0c47.8,0,95.5,0,143.3,0c40.5,0,81,0,121.5,0c29.1,0,58.3,0,87.4,0
				c13.8,0,27.5,0.2,41.3,0c0.6,0,1.2,0,1.8,0c1.9,0,1.9-3,0-3c-9.5,0-19.1,0-28.6,0c-25.7,0-51.4,0-77.1,0c-38.1,0-76.2,0-114.4,0
				c-46.5,0-93,0-139.5,0c-50.8,0-101.5,0-152.3,0c-51.6,0-103.2,0-154.8,0c-47.8,0-95.5,0-143.3,0c-40.5,0-81,0-121.5,0
				c-29.1,0-58.3,0-87.4,0c-13.8,0-27.5-0.2-41.3,0c-0.6,0-1.2,0-1.8,0C8.6,465.8,8.6,468.8,10.5,468.8L10.5,468.8z"/>
		</g>
	</g>
	<g id="XMLID_179_">
		<path id="XMLID_180_" d="M362.3,37.6c-0.2,0-0.3-0.1-0.5-0.2s-0.2-0.3-0.2-0.5s0.1-0.3,0.2-0.5s0.3-0.2,0.5-0.2h2.1
			c0.1,0,0.1,0,0.1-0.1v-9.6c0-0.1,0-0.1-0.1-0.1h-1.7c-0.2,0-0.3,0-0.4-0.1s-0.1-0.2-0.1-0.4c0-0.1,0-0.3,0.1-0.4s0.2-0.2,0.4-0.2
			c0.6-0.1,1.2-0.3,1.7-0.5c0.4-0.2,0.8-0.3,1.2-0.3c0.2,0,0.3,0.1,0.4,0.2s0.2,0.3,0.2,0.4v11.1c0,0.1,0,0.1,0.1,0.1h1.8
			c0.2,0,0.3,0.1,0.5,0.2s0.2,0.3,0.2,0.5s-0.1,0.3-0.2,0.5s-0.3,0.2-0.5,0.2H362.3z"/>
		<path id="XMLID_182_" d="M374.7,37.8c-1.4,0-2.6-0.4-3.7-1.3c-0.2-0.1-0.2-0.3-0.2-0.5c0-0.2,0.1-0.3,0.2-0.5s0.2-0.2,0.4-0.2
			s0.3,0,0.5,0.2c0.8,0.7,1.7,1,2.7,1c0.8,0,1.5-0.3,2-0.9s0.8-1.3,0.8-2.3s-0.2-1.7-0.7-2.2s-1.2-0.8-2-0.8c-0.6,0-1.2,0.2-1.8,0.5
			c-0.2,0.1-0.3,0.1-0.5,0.1c-0.1,0-0.3,0-0.4-0.1c-0.3-0.2-0.4-0.4-0.4-0.8l0.3-4.6c0-0.3,0.1-0.5,0.3-0.7s0.5-0.3,0.8-0.3h4.7
			c0.2,0,0.4,0.1,0.5,0.2s0.2,0.3,0.2,0.5s-0.1,0.4-0.2,0.5s-0.3,0.2-0.5,0.2h-4.1c-0.1,0-0.1,0-0.1,0.1l-0.3,3.6c0,0,0,0,0,0.1
			s0,0,0.1,0c0.6-0.3,1.2-0.5,1.8-0.5c1.2,0,2.1,0.4,2.9,1.1s1.1,1.7,1.1,3.1c0,0.9-0.2,1.8-0.6,2.5s-0.9,1.2-1.6,1.6
			S375.5,37.8,374.7,37.8z"/>
		<path id="XMLID_184_" d="M388.5,25c0.1,0.1,0.2,0.3,0.2,0.5s-0.1,0.4-0.2,0.5c-0.1,0.1-0.3,0.2-0.4,0.2s-0.3,0-0.5-0.1
			c-0.5-0.4-1-0.5-1.6-0.5c-1,0-1.8,0.4-2.4,1.3s-0.9,2.2-1,4.1c0,0,0,0,0,0s0,0,0.1,0c0.4-0.5,0.9-0.8,1.4-1.1s1-0.4,1.5-0.4
			c1.1,0,2,0.4,2.7,1.1s1,1.7,1,3.1c0,1.2-0.4,2.3-1.1,3.1s-1.6,1.2-2.7,1.2c-1.3,0-2.4-0.6-3.2-1.7s-1.2-2.7-1.2-4.8
			c0-1.3,0.1-2.4,0.4-3.3s0.6-1.7,1.1-2.2s1-1,1.5-1.2s1.2-0.4,1.9-0.4C386.9,24.1,387.7,24.4,388.5,25z M385.4,36.5
			c0.6,0,1.2-0.3,1.6-0.8s0.6-1.3,0.6-2.2c0-0.9-0.2-1.6-0.6-2.1s-1-0.8-1.8-0.8c-1,0-1.8,0.5-2.6,1.6c-0.1,0.1-0.1,0.1-0.1,0.2
			c0.1,1.3,0.4,2.4,0.9,3.1S384.6,36.5,385.4,36.5z"/>
		<path id="XMLID_187_" d="M395,37.8c-1.3,0-2.3-0.6-3-1.7s-1.1-2.9-1.1-5.1c0-2.2,0.4-3.9,1.1-5.1s1.7-1.7,3-1.7
			c1.3,0,2.3,0.6,3,1.7s1.1,2.8,1.1,5.1c0,2.2-0.4,4-1.1,5.1S396.3,37.8,395,37.8z M395,36.5c0.8,0,1.4-0.5,1.8-1.4s0.7-2.3,0.7-4.2
			c0-1.9-0.2-3.2-0.7-4.1s-1.1-1.3-1.8-1.3c-0.8,0-1.4,0.4-1.9,1.3s-0.7,2.3-0.7,4.1c0,1.9,0.2,3.3,0.7,4.2S394.2,36.5,395,36.5z"/>
		<path id="XMLID_190_" d="M406.2,31.5c0.1-0.1,0.3-0.2,0.4-0.1s0.3,0.1,0.4,0.2s0.1,0.3,0.1,0.5c0,0,0,0.1,0,0.1
			c0,0.2-0.1,0.4-0.2,0.5c-1.2,1.3-2.2,2.3-3.1,3.2c-0.1,0.1-0.3,0.2-0.5,0.2s-0.3-0.1-0.4-0.2c-0.1-0.1-0.2-0.3-0.2-0.5
			c0-0.2,0.1-0.4,0.2-0.6C403.8,34,404.8,33,406.2,31.5z M406.8,25.8c0.2,0.1,0.2,0.3,0.2,0.5s-0.1,0.4-0.2,0.5s-0.3,0.2-0.5,0.2
			s-0.4-0.1-0.5-0.2c-0.6-0.6-1.3-1.2-2.2-1.8c-0.1-0.1-0.2-0.2-0.2-0.4s0-0.3,0.2-0.4c0.1-0.1,0.3-0.2,0.5-0.2c0,0,0.1,0,0.1,0
			c0.2,0,0.3,0,0.5,0.1C405.5,24.7,406.2,25.3,406.8,25.8z M413.6,27c-0.1,0-0.1,0-0.1,0.1v2.1c0,0.4,0,0.8,0.1,1.2s0.2,1,0.4,1.6
			c0.2,0.6,0.5,1.3,0.9,1.9s0.8,1.2,1.5,1.8s1.3,1.1,2.2,1.6c0.2,0.1,0.3,0.2,0.3,0.4c0,0.1,0,0.1,0,0.2c0,0.1,0,0.2-0.1,0.4
			c-0.1,0.2-0.3,0.3-0.5,0.3c-0.1,0-0.1,0-0.2,0c-0.1,0-0.3,0-0.4-0.1c-0.8-0.4-1.4-0.9-2-1.5s-1.1-1.2-1.5-1.9s-0.7-1.2-0.9-1.8
			s-0.4-1-0.4-1.5c0,0,0,0,0,0s0,0,0,0c-0.1,0.5-0.3,1-0.5,1.5s-0.6,1.1-1,1.8s-1,1.3-1.7,1.9s-1.5,1.1-2.4,1.6
			c-0.1,0-0.2,0.1-0.3,0.1c-0.1,0-0.1,0-0.2,0c-0.2-0.1-0.3-0.2-0.5-0.3c-0.1-0.1-0.1-0.2-0.1-0.3c0,0,0-0.1,0-0.1
			c0-0.2,0.1-0.3,0.3-0.4c0.9-0.4,1.7-0.9,2.5-1.6s1.3-1.2,1.7-1.8s0.7-1.2,1-1.9c0.3-0.7,0.4-1.2,0.5-1.7s0.1-0.9,0.1-1.3v-2.1
			c0-0.1,0-0.1-0.1-0.1H410c-0.1,0-0.1,0-0.2,0.1c-0.5,1.1-1,2.1-1.5,2.9c-0.1,0.2-0.3,0.3-0.5,0.3c0,0-0.1,0-0.1,0
			c-0.2,0-0.3,0-0.4-0.1c-0.2-0.1-0.3-0.2-0.3-0.4s0-0.3,0.1-0.5c1.1-1.5,2-3.6,2.6-6.1c0-0.2,0.2-0.4,0.3-0.5
			c0.1-0.1,0.3-0.1,0.4-0.1c0,0,0.1,0,0.1,0c0.2,0,0.3,0.1,0.4,0.3s0.1,0.3,0.1,0.5c-0.2,0.8-0.4,1.5-0.6,2.1c0,0,0,0.1,0,0.1
			s0,0,0.1,0h7.1c0,0,0,0,0.1,0c0.2,0,0.3,0,0.5,0.1l0.3,0.1c0.1,0.1,0.2,0.2,0.3,0.4s0.1,0.3,0,0.5c-0.4,1.2-0.9,2.5-1.5,3.7
			c-0.1,0.2-0.2,0.3-0.4,0.3s-0.3,0-0.5,0c-0.2-0.1-0.3-0.2-0.3-0.4s0-0.3,0-0.5c0.4-0.9,0.8-1.8,1.1-2.7c0,0,0-0.1,0-0.1s0,0-0.1,0
			H413.6z"/>
	</g>
	<g id="XMLID_164_">
		<path id="XMLID_165_" d="M757.1,91.4c-0.2,0-0.3-0.1-0.5-0.2s-0.2-0.3-0.2-0.5s0.1-0.3,0.2-0.5s0.3-0.2,0.5-0.2h2.1
			c0.1,0,0.1,0,0.1-0.1v-9.6c0-0.1,0-0.1-0.1-0.1h-1.7c-0.2,0-0.3,0-0.4-0.1s-0.1-0.2-0.1-0.4c0-0.1,0-0.3,0.1-0.4s0.2-0.2,0.4-0.2
			c0.6-0.1,1.2-0.3,1.7-0.5c0.4-0.2,0.8-0.3,1.2-0.3c0.2,0,0.3,0.1,0.4,0.2s0.2,0.3,0.2,0.4v11.1c0,0.1,0,0.1,0.1,0.1h1.8
			c0.2,0,0.3,0.1,0.5,0.2s0.2,0.3,0.2,0.5s-0.1,0.3-0.2,0.5s-0.3,0.2-0.5,0.2H757.1z"/>
		<path id="XMLID_167_" d="M769.6,91.6c-1.5,0-2.7-0.4-3.7-1.3c-0.2-0.1-0.2-0.3-0.2-0.5c0-0.2,0.1-0.3,0.2-0.5s0.2-0.2,0.4-0.2
			s0.3,0,0.5,0.2c0.8,0.7,1.7,1,2.8,1c0.8,0,1.4-0.2,1.9-0.7s0.7-1,0.7-1.8c0-1.6-1.2-2.5-3.5-2.6c-0.2,0-0.3-0.1-0.4-0.2
			s-0.2-0.3-0.2-0.4s0.1-0.3,0.2-0.4s0.3-0.2,0.4-0.2c1.1-0.1,1.8-0.3,2.3-0.8s0.7-1,0.7-1.7c0-0.6-0.2-1.2-0.6-1.5
			s-0.9-0.6-1.6-0.6c-0.8,0-1.5,0.3-2.2,0.9c-0.2,0.1-0.3,0.2-0.5,0.2s-0.3-0.1-0.5-0.2s-0.2-0.3-0.2-0.5s0.1-0.3,0.2-0.5
			c1-0.8,2-1.1,3.2-1.1s2.1,0.3,2.8,0.9s1.1,1.4,1.1,2.4c0,0.8-0.2,1.4-0.6,2s-1,0.9-1.7,1.2c0,0,0,0,0,0.1s0,0,0,0
			c0.8,0.2,1.5,0.6,2,1.2s0.8,1.3,0.8,2.2c0,1.1-0.4,2.1-1.2,2.7S770.8,91.6,769.6,91.6z"/>
		<path id="XMLID_169_" d="M783.6,86.4c0.2,0,0.3,0.1,0.5,0.2s0.2,0.3,0.2,0.5s-0.1,0.3-0.2,0.5s-0.3,0.2-0.5,0.2h-0.9
			c-0.1,0-0.1,0-0.1,0.1v2.7c0,0.2-0.1,0.4-0.2,0.6s-0.3,0.2-0.6,0.2s-0.4-0.1-0.6-0.2s-0.2-0.3-0.2-0.6v-2.7c0-0.1,0-0.1-0.1-0.1
			h-5.1c-0.2,0-0.3-0.1-0.4-0.2s-0.2-0.2-0.2-0.4c0-0.4,0.1-0.7,0.3-1l4.7-7.3c0.3-0.5,0.8-0.8,1.4-0.8c0.2,0,0.5,0.1,0.6,0.3
			s0.3,0.4,0.3,0.6v7.2c0,0.1,0,0.1,0.1,0.1H783.6z M777,86.3C776.9,86.4,776.9,86.4,777,86.3c0,0.1,0,0.1,0.1,0.1h3.8
			c0.1,0,0.1,0,0.1-0.1v-3.9c0-0.2,0-1,0.1-2.4c0,0,0,0,0,0s0,0-0.1,0c-0.3,0.6-0.6,1.2-1,1.9L777,86.3z"/>
		<path id="XMLID_172_" d="M786.3,90.7c-0.2-0.1-0.2-0.3-0.2-0.5s0.1-0.4,0.2-0.5c0.1-0.1,0.3-0.2,0.5-0.2s0.4,0,0.5,0.1
			c0.5,0.4,1.1,0.5,1.7,0.5c0.9,0,1.7-0.4,2.3-1.3s0.9-2.2,1-4.1c0,0,0,0,0,0s0,0-0.1,0c-0.4,0.5-0.9,0.8-1.4,1.1s-1,0.4-1.6,0.4
			c-1.1,0-2-0.4-2.7-1.1s-1-1.7-1-3.1c0-1.3,0.4-2.3,1.1-3.1s1.6-1.2,2.7-1.2c1.3,0,2.4,0.5,3.2,1.6s1.2,2.6,1.2,4.7
			c0,1.3-0.1,2.4-0.4,3.4s-0.6,1.8-1.1,2.3s-1,1-1.5,1.3s-1.2,0.4-1.8,0.4C788,91.6,787.1,91.3,786.3,90.7z M789.5,85.2
			c1,0,1.9-0.6,2.7-1.7c0-0.1,0.1-0.1,0.1-0.2c-0.1-1.3-0.4-2.3-0.9-3s-1.2-1-2-1c-0.6,0-1.2,0.3-1.6,0.8s-0.6,1.3-0.6,2.2
			c0,0.9,0.2,1.6,0.6,2.2S788.7,85.2,789.5,85.2z"/>
		<path id="XMLID_175_" d="M800.7,85.4c0.1-0.1,0.3-0.2,0.4-0.1s0.3,0.1,0.4,0.2s0.1,0.3,0.1,0.5c0,0,0,0.1,0,0.1
			c0,0.2-0.1,0.4-0.2,0.5c-1.2,1.3-2.2,2.3-3.1,3.2c-0.1,0.1-0.3,0.2-0.5,0.2s-0.3-0.1-0.4-0.2c-0.1-0.1-0.2-0.3-0.2-0.5
			c0-0.2,0.1-0.4,0.2-0.6C798.2,87.9,799.3,86.8,800.7,85.4z M801.3,79.7c0.2,0.1,0.2,0.3,0.2,0.5s-0.1,0.4-0.2,0.5
			s-0.3,0.2-0.5,0.2s-0.4-0.1-0.5-0.2c-0.6-0.6-1.3-1.2-2.2-1.8c-0.1-0.1-0.2-0.2-0.2-0.4s0-0.3,0.2-0.4c0.1-0.1,0.3-0.2,0.5-0.2
			c0,0,0.1,0,0.1,0c0.2,0,0.3,0,0.5,0.1C800,78.6,800.7,79.1,801.3,79.7z M808,80.9c-0.1,0-0.1,0-0.1,0.1v2.1c0,0.4,0,0.8,0.1,1.2
			s0.2,1,0.4,1.6s0.5,1.3,0.9,1.9s0.8,1.2,1.5,1.8s1.3,1.1,2.2,1.6c0.2,0.1,0.3,0.2,0.3,0.4c0,0.1,0,0.1,0,0.2c0,0.1,0,0.2-0.1,0.4
			c-0.1,0.2-0.3,0.3-0.5,0.3c-0.1,0-0.1,0-0.2,0c-0.1,0-0.3,0-0.4-0.1c-0.8-0.4-1.4-0.9-2-1.5s-1.1-1.2-1.5-1.9s-0.7-1.2-0.9-1.8
			s-0.4-1-0.4-1.5c0,0,0,0,0,0s0,0,0,0c-0.1,0.5-0.3,1-0.5,1.5s-0.6,1.1-1,1.8s-1,1.3-1.7,1.9s-1.5,1.1-2.4,1.6
			c-0.1,0-0.2,0.1-0.3,0.1c-0.1,0-0.1,0-0.2,0c-0.2-0.1-0.3-0.2-0.5-0.3c-0.1-0.1-0.1-0.2-0.1-0.3c0,0,0-0.1,0-0.1
			c0-0.2,0.1-0.3,0.3-0.4c0.9-0.4,1.7-0.9,2.5-1.6s1.3-1.2,1.7-1.8s0.7-1.2,1-1.9s0.4-1.2,0.5-1.7s0.1-0.9,0.1-1.3V81
			c0-0.1,0-0.1-0.1-0.1h-1.9c-0.1,0-0.1,0-0.2,0.1c-0.5,1.1-1,2.1-1.5,2.9c-0.1,0.2-0.3,0.3-0.5,0.3c0,0-0.1,0-0.1,0
			c-0.2,0-0.3,0-0.4-0.1c-0.2-0.1-0.3-0.2-0.3-0.4s0-0.3,0.1-0.5c1.1-1.5,2-3.6,2.6-6.1c0-0.2,0.2-0.4,0.3-0.5
			c0.1-0.1,0.3-0.1,0.4-0.1c0,0,0.1,0,0.1,0c0.2,0,0.3,0.1,0.4,0.3s0.1,0.3,0.1,0.5c-0.2,0.8-0.4,1.5-0.6,2.1c0,0,0,0.1,0,0.1
			s0,0,0.1,0h7.1c0,0,0,0,0.1,0c0.2,0,0.3,0,0.5,0.1l0.3,0.1c0.1,0.1,0.2,0.2,0.3,0.4s0.1,0.3,0,0.5c-0.4,1.2-0.9,2.5-1.5,3.7
			c-0.1,0.2-0.2,0.3-0.4,0.3s-0.3,0-0.5,0c-0.2-0.1-0.3-0.2-0.3-0.4s0-0.3,0-0.5c0.4-0.9,0.8-1.8,1.1-2.7c0,0,0-0.1,0-0.1s0,0-0.1,0
			H808z"/>
	</g>
	<g id="XMLID_149_">
		<path id="XMLID_150_" d="M433.1,105.6c-0.2,0-0.3-0.1-0.5-0.2s-0.2-0.3-0.2-0.5s0.1-0.3,0.2-0.5s0.3-0.2,0.5-0.2h2.1
			c0.1,0,0.1,0,0.1-0.1v-9.6c0-0.1,0-0.1-0.1-0.1h-1.7c-0.2,0-0.3,0-0.4-0.1s-0.1-0.2-0.1-0.4c0-0.1,0-0.3,0.1-0.4s0.2-0.2,0.4-0.2
			c0.6-0.1,1.2-0.3,1.7-0.5c0.4-0.2,0.8-0.3,1.2-0.3c0.2,0,0.3,0.1,0.4,0.2s0.2,0.3,0.2,0.4v11.1c0,0.1,0,0.1,0.1,0.1h1.8
			c0.2,0,0.3,0.1,0.5,0.2s0.2,0.3,0.2,0.5s-0.1,0.3-0.2,0.5s-0.3,0.2-0.5,0.2H433.1z"/>
		<path id="XMLID_152_" d="M442.1,105.6c-0.1,0-0.3,0-0.4-0.1s-0.1-0.2-0.1-0.4c0-0.3,0.1-0.6,0.4-0.8c2-1.7,3.4-3.3,4.3-4.6
			s1.4-2.5,1.4-3.6c0-0.8-0.2-1.4-0.6-1.9s-1-0.7-1.8-0.7s-1.5,0.3-2.3,1c-0.1,0.1-0.3,0.2-0.5,0.2s-0.3-0.1-0.5-0.2
			s-0.2-0.3-0.2-0.5s0.1-0.3,0.2-0.5c1-1,2.2-1.5,3.4-1.5c1.2,0,2.1,0.4,2.8,1.1s1,1.7,1,2.8c0,1.2-0.4,2.5-1.3,3.8
			s-2.1,2.8-3.8,4.3c0,0,0,0,0,0.1s0,0,0.1,0c1-0.1,1.6-0.1,2-0.1h3c0.2,0,0.4,0.1,0.5,0.2s0.2,0.3,0.2,0.5s-0.1,0.4-0.2,0.5
			s-0.3,0.2-0.5,0.2H442.1z"/>
		<path id="XMLID_154_" d="M455.9,105.8c-1.2,0-2.2-0.3-3-1s-1.2-1.5-1.2-2.5c0-0.8,0.2-1.5,0.7-2.1s1-1.1,1.7-1.5c0,0,0,0,0-0.1
			s0-0.1,0-0.1c-1.2-0.8-1.7-1.8-1.7-3c0-1,0.3-1.8,1-2.4s1.5-0.9,2.6-0.9c1.1,0,2,0.3,2.6,1s1,1.5,1,2.5c0,0.6-0.2,1.2-0.5,1.8
			s-0.8,1-1.2,1.4c0,0,0,0,0,0.1s0,0,0,0.1c1.5,0.9,2.2,2,2.2,3.4c0,1-0.4,1.8-1.2,2.4S457.1,105.8,455.9,105.8z M455.9,104.6
			c0.8,0,1.4-0.2,1.8-0.6s0.7-1,0.7-1.6c0-0.3-0.1-0.7-0.2-0.9s-0.3-0.5-0.5-0.7s-0.4-0.4-0.8-0.6s-0.6-0.4-0.9-0.5
			s-0.6-0.3-1.1-0.5c0,0-0.1,0-0.1,0c0,0-0.1,0-0.1,0.1c-0.5,0.4-0.9,0.8-1.2,1.3s-0.5,1-0.5,1.6c0,0.7,0.3,1.3,0.8,1.7
			S455.1,104.6,455.9,104.6z M456.6,98.4c0.1,0,0.2,0,0.2-0.1c0.9-0.8,1.3-1.6,1.3-2.6c0-0.7-0.2-1.2-0.6-1.7s-1-0.7-1.6-0.7
			c-0.6,0-1.1,0.2-1.5,0.6s-0.6,0.9-0.6,1.6c0,0.4,0.1,0.7,0.2,1s0.4,0.6,0.7,0.8s0.6,0.4,0.9,0.6S456.2,98.2,456.6,98.4z"/>
		<path id="XMLID_158_" d="M466.1,104.7c0,0.2-0.1,0.5-0.3,0.6s-0.4,0.2-0.6,0.2c-0.2,0-0.4-0.1-0.6-0.2s-0.2-0.3-0.2-0.5
			c0-1.9,0.3-3.9,1-5.9c0.6-1.7,1.4-3.3,2.6-5c0,0,0,0,0-0.1s0,0-0.1,0h-5.6c-0.2,0-0.4-0.1-0.5-0.2s-0.2-0.3-0.2-0.5
			s0.1-0.4,0.2-0.5s0.3-0.2,0.5-0.2h7.1c0.1,0,0.3,0,0.4,0.1s0.1,0.2,0.1,0.4c0,0.3-0.1,0.6-0.3,0.9c-1.3,1.7-2.1,3.3-2.6,4.9
			S466.3,102.3,466.1,104.7z"/>
		<path id="XMLID_160_" d="M477.1,99.6c0.1-0.1,0.3-0.2,0.4-0.1s0.3,0.1,0.4,0.2s0.1,0.3,0.1,0.5c0,0,0,0.1,0,0.1
			c0,0.2-0.1,0.4-0.2,0.5c-1.2,1.3-2.2,2.3-3.1,3.2c-0.1,0.1-0.3,0.2-0.5,0.2s-0.3-0.1-0.4-0.2c-0.1-0.1-0.2-0.3-0.2-0.5
			c0-0.2,0.1-0.4,0.2-0.6C474.6,102.1,475.7,101,477.1,99.6z M477.7,93.9c0.2,0.1,0.2,0.3,0.2,0.5s-0.1,0.4-0.2,0.5
			s-0.3,0.2-0.5,0.2s-0.4-0.1-0.5-0.2c-0.6-0.6-1.3-1.2-2.2-1.8c-0.1-0.1-0.2-0.2-0.2-0.4s0-0.3,0.2-0.4c0.1-0.1,0.3-0.2,0.5-0.2
			c0,0,0.1,0,0.1,0c0.2,0,0.3,0,0.5,0.1C476.3,92.7,477.1,93.3,477.7,93.9z M484.4,95.1c-0.1,0-0.1,0-0.1,0.1v2.1
			c0,0.4,0,0.8,0.1,1.2s0.2,1,0.4,1.6s0.5,1.3,0.9,1.9s0.8,1.2,1.5,1.8s1.3,1.1,2.2,1.6c0.2,0.1,0.3,0.2,0.3,0.4c0,0.1,0,0.1,0,0.2
			c0,0.1,0,0.2-0.1,0.4c-0.1,0.2-0.3,0.3-0.5,0.3c-0.1,0-0.1,0-0.2,0c-0.1,0-0.3,0-0.4-0.1c-0.8-0.4-1.4-0.9-2-1.5s-1.1-1.2-1.5-1.9
			s-0.7-1.2-0.9-1.8s-0.4-1-0.4-1.5c0,0,0,0,0,0s0,0,0,0c-0.1,0.5-0.3,1-0.5,1.5s-0.6,1.1-1,1.8s-1,1.3-1.7,1.9s-1.5,1.1-2.4,1.6
			c-0.1,0-0.2,0.1-0.3,0.1c-0.1,0-0.1,0-0.2,0c-0.2-0.1-0.3-0.2-0.5-0.3c-0.1-0.1-0.1-0.2-0.1-0.3c0,0,0-0.1,0-0.1
			c0-0.2,0.1-0.3,0.3-0.4c0.9-0.4,1.7-0.9,2.5-1.6s1.3-1.2,1.7-1.8s0.7-1.2,1-1.9s0.4-1.2,0.5-1.7s0.1-0.9,0.1-1.3v-2.1
			c0-0.1,0-0.1-0.1-0.1h-1.9c-0.1,0-0.1,0-0.2,0.1c-0.5,1.1-1,2.1-1.5,2.9c-0.1,0.2-0.3,0.3-0.5,0.3c0,0-0.1,0-0.1,0
			c-0.2,0-0.3,0-0.4-0.1c-0.2-0.1-0.3-0.2-0.3-0.4s0-0.3,0.1-0.5c1.1-1.5,2-3.6,2.6-6.1c0-0.2,0.2-0.4,0.3-0.5
			c0.1-0.1,0.3-0.1,0.4-0.1c0,0,0.1,0,0.1,0c0.2,0,0.3,0.1,0.4,0.3s0.1,0.3,0.1,0.5c-0.2,0.8-0.4,1.5-0.6,2.1c0,0,0,0.1,0,0.1
			s0,0,0.1,0h7.1c0,0,0,0,0.1,0c0.2,0,0.3,0,0.5,0.1l0.3,0.1c0.1,0.1,0.2,0.2,0.3,0.4s0.1,0.3,0,0.5c-0.4,1.2-0.9,2.5-1.5,3.7
			c-0.1,0.2-0.2,0.3-0.4,0.3s-0.3,0-0.5,0c-0.2-0.1-0.3-0.2-0.3-0.4s0-0.3,0-0.5c0.4-0.9,0.8-1.8,1.1-2.7c0,0,0-0.1,0-0.1s0,0-0.1,0
			H484.4z"/>
	</g>
	<g id="XMLID_135_">
		<path id="XMLID_136_" d="M823.9,116.4c-0.2,0-0.3-0.1-0.5-0.2s-0.2-0.3-0.2-0.5s0.1-0.3,0.2-0.5s0.3-0.2,0.5-0.2h2.1
			c0.1,0,0.1,0,0.1-0.1v-9.6c0-0.1,0-0.1-0.1-0.1h-1.7c-0.2,0-0.3,0-0.4-0.1s-0.1-0.2-0.1-0.4c0-0.1,0-0.3,0.1-0.4s0.2-0.2,0.4-0.2
			c0.6-0.1,1.2-0.3,1.7-0.5c0.4-0.2,0.8-0.3,1.2-0.3c0.2,0,0.3,0.1,0.4,0.2s0.2,0.3,0.2,0.4v11.1c0,0.1,0,0.1,0.1,0.1h1.8
			c0.2,0,0.3,0.1,0.5,0.2s0.2,0.3,0.2,0.5s-0.1,0.3-0.2,0.5s-0.3,0.2-0.5,0.2H823.9z"/>
		<path id="XMLID_138_" d="M832.9,116.4c-0.1,0-0.3,0-0.4-0.1s-0.1-0.2-0.1-0.4c0-0.3,0.1-0.6,0.4-0.8c2-1.7,3.4-3.3,4.3-4.6
			s1.4-2.5,1.4-3.6c0-0.8-0.2-1.4-0.6-1.9s-1-0.7-1.8-0.7s-1.5,0.3-2.3,1c-0.1,0.1-0.3,0.2-0.5,0.2s-0.3-0.1-0.5-0.2
			s-0.2-0.3-0.2-0.5s0.1-0.3,0.2-0.5c1-1,2.2-1.5,3.4-1.5c1.2,0,2.1,0.4,2.8,1.1s1,1.7,1,2.8c0,1.2-0.4,2.5-1.3,3.8
			s-2.1,2.8-3.8,4.3c0,0,0,0,0,0.1s0,0,0.1,0c1-0.1,1.6-0.1,2-0.1h3c0.2,0,0.4,0.1,0.5,0.2s0.2,0.3,0.2,0.5s-0.1,0.4-0.2,0.5
			s-0.3,0.2-0.5,0.2H832.9z"/>
		<path id="XMLID_140_" d="M846.9,115.5c0,0.2-0.1,0.5-0.3,0.6s-0.4,0.2-0.6,0.2c-0.2,0-0.4-0.1-0.6-0.2s-0.2-0.3-0.2-0.5
			c0-1.9,0.3-3.9,1-5.9c0.6-1.7,1.4-3.3,2.6-5c0,0,0,0,0-0.1s0,0-0.1,0h-5.6c-0.2,0-0.4-0.1-0.5-0.2s-0.2-0.3-0.2-0.5
			s0.1-0.4,0.2-0.5s0.3-0.2,0.5-0.2h7.1c0.1,0,0.3,0,0.4,0.1s0.1,0.2,0.1,0.4c0,0.3-0.1,0.6-0.3,0.9c-1.3,1.7-2.1,3.3-2.6,4.9
			S847,113.1,846.9,115.5z"/>
		<path id="XMLID_142_" d="M860.3,111.4c0.2,0,0.3,0.1,0.5,0.2s0.2,0.3,0.2,0.5s-0.1,0.3-0.2,0.5s-0.3,0.2-0.5,0.2h-0.9
			c-0.1,0-0.1,0-0.1,0.1v2.7c0,0.2-0.1,0.4-0.2,0.6s-0.3,0.2-0.6,0.2s-0.4-0.1-0.6-0.2s-0.2-0.3-0.2-0.6v-2.7c0-0.1,0-0.1-0.1-0.1
			h-5.1c-0.2,0-0.3-0.1-0.4-0.2s-0.2-0.2-0.2-0.4c0-0.4,0.1-0.7,0.3-1l4.7-7.3c0.3-0.5,0.8-0.8,1.4-0.8c0.2,0,0.5,0.1,0.6,0.3
			s0.3,0.4,0.3,0.6v7.2c0,0.1,0,0.1,0.1,0.1H860.3z M853.7,111.3C853.7,111.3,853.7,111.3,853.7,111.3c0,0.1,0,0.1,0.1,0.1h3.8
			c0.1,0,0.1,0,0.1-0.1v-3.9c0-0.2,0-1,0.1-2.4c0,0,0,0,0,0s0,0-0.1,0c-0.3,0.6-0.6,1.2-1,1.9L853.7,111.3z"/>
		<path id="XMLID_145_" d="M867.4,110.3c0.1-0.1,0.3-0.2,0.4-0.1s0.3,0.1,0.4,0.2s0.1,0.3,0.1,0.5c0,0,0,0.1,0,0.1
			c0,0.2-0.1,0.4-0.2,0.5c-1.2,1.3-2.2,2.3-3.1,3.2c-0.1,0.1-0.3,0.2-0.5,0.2s-0.3-0.1-0.4-0.2c-0.1-0.1-0.2-0.3-0.2-0.5
			c0-0.2,0.1-0.4,0.2-0.6C865,112.8,866.1,111.8,867.4,110.3z M868,104.6c0.2,0.1,0.2,0.3,0.2,0.5s-0.1,0.4-0.2,0.5
			s-0.3,0.2-0.5,0.2s-0.4-0.1-0.5-0.2c-0.6-0.6-1.3-1.2-2.2-1.8c-0.1-0.1-0.2-0.2-0.2-0.4s0-0.3,0.2-0.4c0.1-0.1,0.3-0.2,0.5-0.2
			c0,0,0.1,0,0.1,0c0.2,0,0.3,0,0.5,0.1C866.7,103.5,867.5,104.1,868,104.6z M874.8,105.8c-0.1,0-0.1,0-0.1,0.1v2.1
			c0,0.4,0,0.8,0.1,1.2s0.2,1,0.4,1.6s0.5,1.3,0.9,1.9s0.8,1.2,1.5,1.8s1.3,1.1,2.2,1.6c0.2,0.1,0.3,0.2,0.3,0.4c0,0.1,0,0.1,0,0.2
			c0,0.1,0,0.2-0.1,0.4c-0.1,0.2-0.3,0.3-0.5,0.3c-0.1,0-0.1,0-0.2,0c-0.1,0-0.3,0-0.4-0.1c-0.8-0.4-1.4-0.9-2-1.5s-1.1-1.2-1.5-1.9
			s-0.7-1.2-0.9-1.8s-0.4-1-0.4-1.5c0,0,0,0,0,0s0,0,0,0c-0.1,0.5-0.3,1-0.5,1.5s-0.6,1.1-1,1.8s-1,1.3-1.7,1.9s-1.5,1.1-2.4,1.6
			c-0.1,0-0.2,0.1-0.3,0.1c-0.1,0-0.1,0-0.2,0c-0.2-0.1-0.3-0.2-0.5-0.3c-0.1-0.1-0.1-0.2-0.1-0.3c0,0,0-0.1,0-0.1
			c0-0.2,0.1-0.3,0.3-0.4c0.9-0.4,1.7-0.9,2.5-1.6s1.3-1.2,1.7-1.8s0.7-1.2,1-1.9s0.4-1.2,0.5-1.7s0.1-0.9,0.1-1.3V106
			c0-0.1,0-0.1-0.1-0.1h-1.9c-0.1,0-0.1,0-0.2,0.1c-0.5,1.1-1,2.1-1.5,2.9c-0.1,0.2-0.3,0.3-0.5,0.3c0,0-0.1,0-0.1,0
			c-0.2,0-0.3,0-0.4-0.1c-0.2-0.1-0.3-0.2-0.3-0.4s0-0.3,0.1-0.5c1.1-1.5,2-3.6,2.6-6.1c0-0.2,0.2-0.4,0.3-0.5
			c0.1-0.1,0.3-0.1,0.4-0.1c0,0,0.1,0,0.1,0c0.2,0,0.3,0.1,0.4,0.3s0.1,0.3,0.1,0.5c-0.2,0.8-0.4,1.5-0.6,2.1c0,0,0,0.1,0,0.1
			s0,0,0.1,0h7.1c0,0,0,0,0.1,0c0.2,0,0.3,0,0.5,0.1l0.3,0.1c0.1,0.1,0.2,0.2,0.3,0.4s0.1,0.3,0,0.5c-0.4,1.2-0.9,2.5-1.5,3.7
			c-0.1,0.2-0.2,0.3-0.4,0.3s-0.3,0-0.5,0c-0.2-0.1-0.3-0.2-0.3-0.4s0-0.3,0-0.5c0.4-0.9,0.8-1.8,1.1-2.7c0,0,0-0.1,0-0.1s0,0-0.1,0
			H874.8z"/>
	</g>
	<circle id="XMLID_417_" class="st3" cx="385.7" cy="50.6" r="4.2"/>
	<circle id="XMLID_416_" class="st3" cx="429.7" cy="120.6" r="4.2"/>
	<circle id="XMLID_415_" class="st3" cx="784.7" cy="105.6" r="4.2"/>
	<circle id="XMLID_414_" class="st3" cx="827.7" cy="128.6" r="4.2"/>
</g>
</svg>
