<?xml version="1.0" encoding="utf-8"?>
<!-- Generator: Adobe Illustrator 19.0.0, SVG Export Plug-In . SVG Version: 6.00 Build 0)  -->
<svg version="1.1" id="圖層_1" xmlns="http://www.w3.org/2000/svg" xmlns:xlink="http://www.w3.org/1999/xlink" x="0px" y="0px"
	 viewBox="0 0 1280 104.4" style="enable-background:new 0 0 1280 104.4;" xml:space="preserve">
<style type="text/css">
	.st0{fill:#808080;}
	.st1{fill:#FFD16F;stroke:#FFD16F;stroke-width:2;stroke-linecap:round;stroke-linejoin:round;stroke-miterlimit:10;}
	.st2{fill:#CAC9CD;}
	.st3{fill:#B9B7BD;}
	.st4{fill:#504B5A;}
	.st5{fill:#DCDBDE;}
	.st6{fill:#00AADC;}
	.st7{fill:#64BEF0;}
	.st8{fill:#625D6B;}
	.st9{fill:#EDEDEE;}
	.st10{display:none;}
	.st11{display:inline;}
	.st12{fill:#FF9164;}
	.st13{fill:#AFF078;}
	.st14{fill:#96E178;}
	.st15{fill:#8CCD73;}
	.st16{fill:#FF6464;}
	.st17{fill:#FCDFAC;}
	.st18{fill:#FFD16F;}
	.st19{fill:#F9B438;}
	.st20{enable-background:new    ;}
	.st21{fill:#736F7B;}
	.st22{fill:#514A5B;}
	.st23{fill:#D2555A;}
</style>
<g id="XMLID_67_">
	<g id="XMLID_851_">
		<g id="XMLID_23_">
			<path id="XMLID_24_" d="M114.5,75.1c0.1-0.2,0.2-0.3,0.4-0.4c0.2-0.1,0.4-0.1,0.6,0c0.2,0.1,0.3,0.2,0.4,0.4s0.1,0.4,0,0.6
				c-0.5,1-1.2,1.9-2.1,2.7c-0.1,0.1-0.1,0.2,0,0.3c0.6,1.1,1.3,1.6,2.1,1.6c0.3,0,0.5-0.1,0.6-0.4c0.1-0.3,0.2-0.7,0.3-1.4
				c0-0.1,0.1-0.2,0.2-0.3c0.1,0,0.2,0,0.4,0c0.4,0.2,0.5,0.5,0.5,0.8c0,0,0,0.1,0,0.1c-0.1,1-0.4,1.6-0.7,2
				c-0.3,0.4-0.8,0.5-1.4,0.5c-1.2,0-2.2-0.7-3.1-2.1c-0.1-0.1-0.1-0.1-0.2,0c-0.9,0.7-1.9,1.3-3.1,1.8c-0.2,0.1-0.4,0.1-0.6,0.1
				c-0.2,0-0.3-0.2-0.5-0.3c-0.1-0.1-0.1-0.3-0.1-0.4c0-0.2,0.1-0.3,0.3-0.3c1.3-0.6,2.4-1.2,3.4-2c0.1-0.1,0.1-0.2,0.1-0.3
				c-0.4-1.1-0.8-2.3-1-3.8c0-0.1-0.1-0.1-0.2-0.1h-3.1c-0.1,0-0.2,0.1-0.2,0.1c0,0.1,0,0.4-0.1,1c0,0.1,0,0.2,0.1,0.2
				c0.9,0.6,1.7,1.1,2.3,1.6c0.2,0.1,0.2,0.3,0.3,0.5c0,0.2,0,0.4-0.2,0.5c-0.1,0.2-0.3,0.2-0.5,0.3c-0.2,0-0.4,0-0.5-0.2
				c-0.5-0.4-1.1-0.8-1.7-1.3c-0.1-0.1-0.1,0-0.1,0.1c-0.2,0.9-0.5,1.7-0.9,2.4s-0.8,1.3-1.4,1.8c-0.2,0.1-0.3,0.2-0.5,0.2
				c-0.2,0-0.4-0.1-0.5-0.3c-0.1-0.1-0.2-0.3-0.2-0.5c0-0.2,0.1-0.3,0.2-0.5c0.7-0.6,1.2-1.4,1.5-2.4c0.3-1,0.5-2.1,0.7-3.4
				c0-0.1,0-0.1-0.1-0.1h-0.3c-0.3,0-0.6-0.1-0.8-0.3c-0.2-0.2-0.3-0.5-0.3-0.8v0c0,0,0,0,0,0s0,0,0,0c-0.1,0.2-0.3,0.3-0.5,0.2
				s-0.4-0.1-0.5-0.3c-0.3-0.6-0.6-1.3-1-2.1c0,0,0,0-0.1,0c0,0,0,0,0,0v10c0,0.2-0.1,0.4-0.2,0.5c-0.1,0.1-0.3,0.2-0.5,0.2
				s-0.4-0.1-0.5-0.2c-0.1-0.1-0.2-0.3-0.2-0.5v-9.2c0,0,0,0,0,0c0,0,0,0,0,0c-0.6,2.1-1.3,3.8-2,5.1c-0.1,0.2-0.2,0.2-0.4,0.2
				s-0.3-0.1-0.4-0.2c-0.1-0.2-0.2-0.5-0.2-0.7c0-0.2,0.1-0.4,0.2-0.7c0.5-0.9,1-2,1.5-3.4c0.5-1.3,0.9-2.7,1.1-4
				c0-0.1,0-0.1-0.1-0.1h-1.7c-0.2,0-0.4-0.1-0.5-0.2C98,67.5,98,67.3,98,67.1s0.1-0.4,0.2-0.5c0.1-0.1,0.3-0.2,0.5-0.2h1.9
				c0.1,0,0.1,0,0.1-0.1v-3.8c0-0.2,0.1-0.4,0.2-0.5c0.1-0.1,0.3-0.2,0.5-0.2s0.4,0.1,0.5,0.2c0.1,0.1,0.2,0.3,0.2,0.5v3.8
				c0,0.1,0,0.1,0.1,0.1h1.5c0.2,0,0.4,0.1,0.5,0.2c0.1,0.1,0.2,0.3,0.2,0.5s-0.1,0.4-0.2,0.5c-0.1,0.1-0.3,0.2-0.5,0.2h-1.5
				c-0.1,0-0.1,0.1-0.1,0.1v0.7c0,0.1,0,0.2,0.1,0.3c0.8,1.2,1.6,2.3,2.2,3.5c0.1,0.1,0.1,0.2,0,0.2v0h6c0.1,0,0.1,0,0.1-0.1
				c-0.4-2.7-0.6-6.1-0.7-10.2c0-0.2,0.1-0.4,0.2-0.5c0.1-0.1,0.3-0.2,0.5-0.2c0.2,0,0.4,0.1,0.5,0.2c0.1,0.1,0.2,0.3,0.2,0.5
				c0,0.1,0,0.2,0,0.3c0,3.7,0.2,7,0.6,9.9c0,0.1,0.1,0.1,0.2,0.1h2.7c0,0,0,0,0,0c0,0,0,0,0-0.1c-0.4-0.3-0.8-0.6-1.2-0.9
				c-0.1-0.1-0.2-0.2-0.2-0.3c0-0.1,0-0.3,0.1-0.4c0.2-0.2,0.3-0.2,0.5-0.2c0.1,0,0.2,0,0.4,0.1c0.5,0.3,1,0.6,1.4,0.9
				c0.1,0.1,0.2,0.2,0.2,0.4c0,0.2,0,0.3-0.2,0.4l0,0h1.1c0.2,0,0.3,0.1,0.5,0.2c0.1,0.1,0.2,0.3,0.2,0.5c0,0.2-0.1,0.3-0.2,0.5
				c-0.1,0.1-0.3,0.2-0.5,0.2h-4.5c-0.1,0-0.1,0.1-0.1,0.1c0.2,1,0.4,1.9,0.7,2.7c0,0,0,0,0.1,0.1c0,0,0.1,0,0.1,0
				C113.7,76.4,114.1,75.8,114.5,75.1z M104.3,70.5c0-0.2,0-0.3,0.1-0.5s0.2-0.2,0.4-0.2h0c0.1,0,0.1,0,0.1-0.1
				c0.4-0.5,0.8-1.1,1.3-1.9c0.1-0.1,0-0.2,0-0.3c-0.5-0.6-1.1-1.2-1.8-1.8c-0.1-0.1-0.2-0.2-0.2-0.4c0-0.2,0-0.3,0.1-0.4
				c0.1-0.1,0.2-0.2,0.4-0.2c0.1,0,0.3,0,0.4,0.1h0c0,0,0.1,0,0.1,0c0.4-0.7,0.7-1.5,1-2.4c0.1-0.2,0.2-0.3,0.4-0.4s0.3-0.1,0.5,0
				c0.2,0.1,0.3,0.2,0.3,0.4c0.1,0.2,0.1,0.3,0,0.5c-0.6,1.2-1.1,2.1-1.4,2.5c-0.1,0.1,0,0.2,0,0.2c0.3,0.3,0.5,0.5,0.7,0.7
				c0.1,0.1,0.1,0.1,0.2,0c0.4-0.7,0.7-1.3,1-1.8c0.1-0.2,0.2-0.3,0.4-0.3c0.2-0.1,0.3-0.1,0.5,0c0.2,0.1,0.3,0.2,0.3,0.4
				s0,0.3-0.1,0.5c-1.1,1.8-2,3.3-2.9,4.4c0,0,0,0.1,0,0.1s0,0,0.1,0l1.8-0.1c0.1,0,0.1,0,0.1-0.1c-0.1-0.3-0.2-0.5-0.3-0.7
				c-0.1-0.1-0.1-0.3,0-0.4c0-0.1,0.1-0.2,0.3-0.3c0.1,0,0.3,0,0.4,0c0.1,0.1,0.2,0.1,0.3,0.3c0.4,0.7,0.6,1.4,0.8,2.1
				c0.1,0.2,0,0.3,0,0.5c-0.1,0.1-0.2,0.3-0.4,0.3c-0.1,0.1-0.3,0-0.4,0c-0.1-0.1-0.2-0.2-0.3-0.3c0,0,0-0.1,0-0.1
				c0-0.1-0.1-0.1-0.1-0.1c-0.9,0.1-2.1,0.2-3.7,0.3c-0.2,0-0.4,0-0.5-0.1C104.5,70.8,104.4,70.7,104.3,70.5z M111.9,70.2
				c0-0.2,0-0.3,0.1-0.4c0.1-0.1,0.2-0.2,0.4-0.2c0,0,0.1,0,0.1-0.1c0.4-0.6,0.8-1.1,1.2-1.7c0.1-0.1,0-0.2,0-0.3
				c-0.5-0.6-1.1-1.2-1.8-1.8c-0.1-0.1-0.2-0.2-0.2-0.4c0-0.1,0-0.3,0.1-0.4c0.1-0.1,0.2-0.2,0.4-0.2s0.3,0,0.4,0.1c0,0,0.1,0,0.1,0
				c0.4-0.8,0.8-1.6,1.1-2.4c0.1-0.2,0.2-0.3,0.4-0.4c0.2-0.1,0.3-0.1,0.5,0c0.2,0.1,0.3,0.2,0.4,0.4c0.1,0.2,0.1,0.3,0,0.5
				c-0.5,0.9-1,1.8-1.4,2.5c-0.1,0.1,0,0.2,0,0.3c0.4,0.4,0.6,0.6,0.7,0.7c0.1,0.1,0.1,0.1,0.2,0c0.4-0.7,0.7-1.3,1-1.8
				c0.1-0.2,0.2-0.3,0.4-0.3c0.2-0.1,0.3-0.1,0.5,0c0.2,0.1,0.3,0.2,0.3,0.4c0,0.2,0,0.3-0.1,0.5c-1,1.7-1.9,3.1-2.7,4.2
				c0,0,0,0.1,0,0.1c0,0,0,0,0.1,0l2-0.1c0,0,0.1,0,0.1-0.1c0,0,0-0.1,0-0.1c-0.1-0.2-0.2-0.4-0.3-0.6c-0.1-0.1-0.1-0.3,0-0.4
				s0.1-0.2,0.3-0.3c0.1-0.1,0.3-0.1,0.4,0c0.1,0.1,0.3,0.1,0.3,0.3c0.4,0.8,0.7,1.5,0.9,2.1c0.1,0.2,0,0.3,0,0.5
				c-0.1,0.1-0.2,0.3-0.3,0.4c-0.1,0.1-0.3,0.1-0.4,0c-0.1-0.1-0.2-0.2-0.3-0.3c0-0.1,0-0.1-0.1-0.2c0-0.1-0.1-0.1-0.1-0.1
				c-0.3,0-1.5,0.1-3.8,0.3c-0.2,0-0.3,0-0.5-0.1C112,70.5,111.9,70.4,111.9,70.2z"/>
			<path id="XMLID_28_" d="M138.7,76.5c0.2,0,0.4,0.1,0.5,0.2c0.1,0.1,0.2,0.3,0.2,0.5c0,0.2-0.1,0.4-0.2,0.5
				c-0.1,0.1-0.3,0.2-0.5,0.2h-8.1c-0.1,0-0.2,0.1-0.2,0.2v2.3c0,0.2-0.1,0.4-0.2,0.6s-0.4,0.2-0.6,0.2s-0.4-0.1-0.6-0.2
				c-0.2-0.2-0.2-0.4-0.2-0.6v-2.3c0-0.1-0.1-0.2-0.1-0.2h-8c-0.2,0-0.4-0.1-0.5-0.2c-0.1-0.1-0.2-0.3-0.2-0.5
				c0-0.2,0.1-0.4,0.2-0.5c0.1-0.1,0.3-0.2,0.5-0.2h8c0.1,0,0.1-0.1,0.1-0.2v-1.5c0-0.1-0.1-0.2-0.1-0.2h-5.1
				c-0.3,0-0.6-0.1-0.9-0.4c-0.2-0.2-0.4-0.5-0.4-0.9v-6c0-0.3,0.1-0.6,0.4-0.9c0.2-0.2,0.5-0.4,0.9-0.4h5.1c0.1,0,0.1,0,0.1-0.1
				v-1.3c0-0.1-0.1-0.1-0.1-0.1h-7.3c-0.2,0-0.4-0.1-0.5-0.2c-0.1-0.1-0.2-0.3-0.2-0.5c0-0.2,0.1-0.4,0.2-0.5
				c0.1-0.1,0.3-0.2,0.5-0.2h7.3c0.1,0,0.1,0,0.1-0.1v-1c0-0.2,0.1-0.4,0.2-0.6c0.2-0.2,0.4-0.2,0.6-0.2s0.4,0.1,0.6,0.2
				c0.2,0.2,0.2,0.4,0.2,0.6v1c0,0.1,0.1,0.1,0.2,0.1h7.4c0.2,0,0.4,0.1,0.5,0.2c0.1,0.1,0.2,0.3,0.2,0.5c0,0.2-0.1,0.4-0.2,0.5
				c-0.1,0.1-0.3,0.2-0.5,0.2h-7.4c-0.1,0-0.2,0-0.2,0.1v1.3c0,0.1,0.1,0.1,0.2,0.1h5.3c0.3,0,0.6,0.1,0.9,0.4s0.4,0.5,0.4,0.9v6
				c0,0.3-0.1,0.6-0.4,0.9s-0.5,0.4-0.9,0.4h-5.3c-0.1,0-0.2,0.1-0.2,0.2v1.5c0,0.1,0.1,0.2,0.2,0.2H138.7z M123.8,67.6
				c-0.1,0-0.1,0.1-0.1,0.1v1.9c0,0.1,0,0.1,0.1,0.1h4.7c0.1,0,0.1,0,0.1-0.1v-1.9c0-0.1-0.1-0.1-0.1-0.1H123.8z M123.7,73.2
				c0,0.1,0,0.1,0.1,0.1h4.7c0.1,0,0.1,0,0.1-0.1v-1.9c0-0.1-0.1-0.2-0.1-0.2h-4.7c-0.1,0-0.1,0.1-0.1,0.2V73.2z M135.4,67.8
				c0-0.1-0.1-0.1-0.1-0.1h-4.8c-0.1,0-0.2,0.1-0.2,0.1v1.9c0,0.1,0.1,0.1,0.2,0.1h4.8c0.1,0,0.1,0,0.1-0.1V67.8z M135.3,73.4
				c0.1,0,0.1,0,0.1-0.1v-1.9c0-0.1-0.1-0.2-0.1-0.2h-4.8c-0.1,0-0.2,0.1-0.2,0.2v1.9c0,0.1,0.1,0.1,0.2,0.1H135.3z"/>
		</g>
		<g id="XMLID_1_">
			<path id="XMLID_2_" d="M1063.6,82.4c-0.3,0-0.5-0.1-0.7-0.3c-0.2-0.2-0.3-0.4-0.3-0.7c0-0.6,0.2-1.2,0.7-1.6
				c3.9-3.5,6.8-6.5,8.6-9.1c1.8-2.6,2.7-5,2.7-7.2c0-1.6-0.4-2.8-1.2-3.8s-2-1.4-3.6-1.4s-3.1,0.7-4.6,2.1
				c-0.3,0.3-0.6,0.4-0.9,0.4c-0.4,0-0.7-0.1-0.9-0.4c-0.3-0.3-0.4-0.6-0.4-0.9c0-0.4,0.1-0.7,0.4-0.9c2.1-2,4.3-3,6.8-3
				c2.3,0,4.2,0.7,5.6,2.1c1.4,1.4,2.1,3.3,2.1,5.7c0,2.5-0.9,5-2.6,7.6s-4.2,5.5-7.5,8.7c0,0-0.1,0.1,0,0.1c0,0,0.1,0.1,0.1,0.1
				c1.9-0.2,3.3-0.2,4-0.2h5.9c0.4,0,0.7,0.1,1,0.4s0.4,0.6,0.4,1s-0.1,0.7-0.4,1s-0.6,0.4-1,0.4H1063.6z"/>
			<path id="XMLID_4_" d="M1098.5,72.5c0.4,0,0.7,0.1,0.9,0.4c0.3,0.3,0.4,0.6,0.4,0.9c0,0.4-0.1,0.7-0.4,0.9
				c-0.3,0.3-0.6,0.4-0.9,0.4h-1.9c-0.2,0-0.3,0.1-0.3,0.3v5.4c0,0.4-0.2,0.8-0.5,1.1c-0.3,0.3-0.7,0.5-1.1,0.5s-0.8-0.2-1.1-0.5
				c-0.3-0.3-0.5-0.7-0.5-1.1v-5.4c0-0.2-0.1-0.3-0.2-0.3h-10.2c-0.3,0-0.6-0.1-0.8-0.3s-0.3-0.5-0.3-0.8c0-0.7,0.2-1.4,0.6-2
				l9.4-14.5c0.7-1,1.6-1.5,2.8-1.5c0.5,0,0.9,0.2,1.3,0.5c0.4,0.4,0.5,0.8,0.5,1.3v14.4c0,0.2,0.1,0.2,0.3,0.2H1098.5z
				 M1085.3,72.3c0,0,0,0.1,0,0.1c0,0,0.1,0.1,0.1,0.1h7.6c0.2,0,0.2-0.1,0.2-0.2v-7.8c0-0.5,0.1-2.1,0.2-4.7c0,0,0-0.1-0.1-0.1
				s-0.1,0-0.1,0.1c-0.6,1.1-1.3,2.4-2.1,3.8L1085.3,72.3z"/>
			<path id="XMLID_7_" d="M1110.3,82.9c-2.8,0-5.3-0.9-7.4-2.6c-0.3-0.3-0.5-0.6-0.5-1.1c0-0.3,0.1-0.6,0.3-0.9s0.5-0.4,0.8-0.5
				c0.4,0,0.7,0.1,0.9,0.3c1.6,1.3,3.4,2,5.5,2c1.6,0,2.9-0.6,4-1.7c1.1-1.1,1.6-2.6,1.6-4.5c0-1.9-0.5-3.3-1.5-4.4
				c-1-1.1-2.3-1.6-4-1.6c-1.2,0-2.4,0.3-3.5,1c-0.3,0.2-0.6,0.2-0.9,0.2c-0.3,0-0.6-0.1-0.8-0.2c-0.6-0.4-0.9-0.9-0.8-1.6l0.6-9.2
				c0-0.6,0.3-1.1,0.7-1.5c0.4-0.4,0.9-0.6,1.5-0.6h9.4c0.4,0,0.7,0.1,1,0.4s0.4,0.6,0.4,1s-0.1,0.7-0.4,1c-0.3,0.3-0.6,0.4-1,0.4
				h-8.3c-0.2,0-0.3,0.1-0.3,0.3l-0.6,7.1c0,0,0,0.1,0.1,0.1s0.1,0,0.1,0c1.1-0.6,2.4-0.9,3.7-0.9c2.3,0,4.2,0.7,5.7,2.1
				s2.2,3.5,2.2,6.3c0,1.9-0.4,3.5-1.2,4.9s-1.9,2.4-3.2,3.1S1111.8,82.9,1110.3,82.9z"/>
			<path id="XMLID_9_" d="M1124,81.1c-0.3-0.2-0.5-0.5-0.5-0.9s0.1-0.7,0.4-1c0.2-0.3,0.5-0.4,0.9-0.4c0.4,0,0.7,0.1,1,0.3
				c1.1,0.7,2.2,1.1,3.4,1.1c1.9,0,3.4-0.8,4.6-2.5c1.2-1.7,1.9-4.4,2-8.2c0,0,0-0.1-0.1-0.1c0,0-0.1,0-0.1,0
				c-0.8,0.9-1.7,1.7-2.8,2.2c-1,0.6-2.1,0.8-3.1,0.8c-2.2,0-4-0.7-5.3-2.1c-1.3-1.4-2-3.5-2-6.2c0-2.5,0.7-4.6,2.2-6.2
				c1.5-1.6,3.3-2.4,5.4-2.4c2.6,0,4.8,1.1,6.4,3.2c1.6,2.2,2.4,5.3,2.4,9.3c0,2.6-0.3,4.8-0.8,6.8c-0.5,2-1.2,3.5-2.1,4.6
				c-0.9,1.1-1.9,2-3,2.5s-2.3,0.8-3.6,0.8C1127.3,82.9,1125.5,82.3,1124,81.1z M1130.3,70c2,0,3.8-1.1,5.4-3.3
				c0.1-0.1,0.1-0.3,0.1-0.5c-0.2-2.6-0.8-4.6-1.8-6s-2.3-2.1-4-2.1c-1.3,0-2.4,0.6-3.2,1.7c-0.8,1.1-1.3,2.5-1.3,4.3
				c0,1.8,0.4,3.3,1.2,4.3C1127.6,69.5,1128.8,70,1130.3,70z"/>
			<path id="XMLID_12_" d="M1144,81.1c-0.3-0.2-0.5-0.5-0.5-0.9s0.1-0.7,0.4-1c0.2-0.3,0.5-0.4,0.9-0.4c0.4,0,0.7,0.1,1,0.3
				c1.1,0.7,2.2,1.1,3.4,1.1c1.9,0,3.4-0.8,4.6-2.5c1.2-1.7,1.9-4.4,2-8.2c0,0,0-0.1-0.1-0.1c0,0-0.1,0-0.1,0
				c-0.8,0.9-1.7,1.7-2.8,2.2c-1,0.6-2.1,0.8-3.1,0.8c-2.2,0-4-0.7-5.3-2.1c-1.3-1.4-2-3.5-2-6.2c0-2.5,0.7-4.6,2.2-6.2
				c1.5-1.6,3.3-2.4,5.4-2.4c2.6,0,4.8,1.1,6.4,3.2c1.6,2.2,2.4,5.3,2.4,9.3c0,2.6-0.3,4.8-0.8,6.8c-0.5,2-1.2,3.5-2.1,4.6
				c-0.9,1.1-1.9,2-3,2.5s-2.3,0.8-3.6,0.8C1147.3,82.9,1145.5,82.3,1144,81.1z M1150.3,70c2,0,3.8-1.1,5.4-3.3
				c0.1-0.1,0.1-0.3,0.1-0.5c-0.2-2.6-0.8-4.6-1.8-6s-2.3-2.1-4-2.1c-1.3,0-2.4,0.6-3.2,1.7c-0.8,1.1-1.3,2.5-1.3,4.3
				c0,1.8,0.4,3.3,1.2,4.3C1147.6,69.5,1148.7,70,1150.3,70z"/>
			<path id="XMLID_15_" d="M1175.4,76.7c-0.1,0-0.2,0.1-0.2,0.2v1.5c0,0.1,0.1,0.2,0.2,0.2h2.6c0.2,0,0.4,0.1,0.6,0.2
				s0.2,0.3,0.2,0.5s-0.1,0.4-0.2,0.6s-0.3,0.2-0.6,0.2h-2.6c-0.1,0-0.2,0.1-0.2,0.2v3.3c0,0.2-0.1,0.4-0.2,0.6s-0.3,0.2-0.5,0.2
				s-0.4-0.1-0.5-0.2s-0.2-0.3-0.2-0.6v-3.3c0-0.1-0.1-0.2-0.2-0.2h-2.8c-0.2,0-0.4-0.1-0.6-0.2s-0.2-0.3-0.2-0.6s0.1-0.4,0.2-0.5
				s0.3-0.2,0.6-0.2h2.8c0.1,0,0.2-0.1,0.2-0.2v-1.5c0-0.1-0.1-0.2-0.2-0.2h-1.5c-0.4,0-0.7-0.1-1-0.4s-0.4-0.6-0.4-1v-5.7
				c0-0.4,0.1-0.7,0.4-1s0.6-0.4,1-0.4h1.5c0.1,0,0.2-0.1,0.2-0.2v-1.4c0-0.1-0.1-0.2-0.2-0.2h-2.6c-0.2,0-0.4-0.1-0.6-0.2
				s-0.2-0.3-0.2-0.5s0.1-0.4,0.2-0.5s0.3-0.2,0.6-0.2h2.6c0.1,0,0.2-0.1,0.2-0.2v-1.6c0-0.2,0.1-0.4,0.2-0.6s0.3-0.2,0.5-0.2
				s0.4,0.1,0.5,0.2s0.2,0.3,0.2,0.6v1.6c0,0.1,0.1,0.2,0.2,0.2h2.4c0.2,0,0.4,0.1,0.6,0.2s0.2,0.3,0.2,0.5s-0.1,0.4-0.2,0.5
				s-0.3,0.2-0.6,0.2h-2.4c-0.1,0-0.2,0.1-0.2,0.2V68c0,0.1,0.1,0.2,0.2,0.2h1.5c0.4,0,0.7,0.1,1,0.4s0.4,0.6,0.4,1v5.7
				c0,0.4-0.1,0.7-0.4,1s-0.6,0.4-1,0.4H1175.4z M1172.1,69.6c-0.1,0-0.2,0.1-0.2,0.2v1.9c0,0.1,0.1,0.2,0.2,0.2h1.6
				c0.1,0,0.2-0.1,0.2-0.2v-1.9c0-0.1-0.1-0.2-0.2-0.2H1172.1z M1172.1,73.1c-0.1,0-0.2,0.1-0.2,0.2v1.9c0,0.1,0.1,0.2,0.2,0.2h1.6
				c0.1,0,0.2-0.1,0.2-0.2v-1.9c0-0.1-0.1-0.2-0.2-0.2H1172.1z M1176.9,71.8c0.1,0,0.2-0.1,0.2-0.2v-1.9c0-0.1-0.1-0.2-0.2-0.2h-1.6
				c-0.1,0-0.2,0.1-0.2,0.2v1.9c0,0.1,0.1,0.2,0.2,0.2H1176.9z M1176.9,75.3c0.1,0,0.2-0.1,0.2-0.2v-1.9c0-0.1-0.1-0.2-0.2-0.2h-1.6
				c-0.1,0-0.2,0.1-0.2,0.2v1.9c0,0.1,0.1,0.2,0.2,0.2H1176.9z M1191.5,64.5c0.2,0.1,0.2,0.3,0.2,0.6s-0.1,0.4-0.2,0.6
				s-0.3,0.2-0.5,0.2h-4.7c-0.1,0-0.2,0.1-0.2,0.2v2c0,0.1,0.1,0.2,0.2,0.2h3.8c0.4,0,0.7,0.1,1,0.4s0.4,0.6,0.4,1v12.8
				c0,0.4-0.1,0.8-0.2,1s-0.3,0.4-0.6,0.6c-0.4,0.2-1.2,0.3-2.2,0.3c-0.2,0-0.4-0.1-0.6-0.2s-0.3-0.3-0.4-0.6c0-0.2,0-0.3,0.1-0.5
				s0.2-0.2,0.4-0.2c0.4,0,0.7,0,0.9,0c0.3,0,0.5,0,0.7,0c0.1,0,0.2,0,0.3-0.1s0.1-0.2,0.1-0.3v-2.9c0,0,0,0,0,0s0,0,0,0
				c-0.1,0.1-0.3,0.2-0.4,0.1s-0.3-0.1-0.4-0.2c-0.5-0.8-0.8-1.7-1-2.8c0,0,0,0,0,0s0,0,0,0c-0.2,1.1-0.6,1.9-1,2.6
				c-0.1,0.2-0.3,0.3-0.5,0.3s-0.4-0.1-0.6-0.2c0,0,0,0-0.1,0s0,0,0,0.1v4.2c0,0.2-0.1,0.3-0.2,0.4s-0.3,0.2-0.4,0.2
				s-0.3-0.1-0.4-0.2s-0.2-0.3-0.2-0.4v-4.2c0-0.1,0-0.1-0.1,0c-0.2,0.1-0.4,0.2-0.6,0.2s-0.4-0.2-0.4-0.3c-0.3-0.6-0.5-1.4-0.7-2.2
				c0,0,0,0,0,0s0,0,0,0c-0.2,1.1-0.6,2-1,2.7c-0.1,0.1-0.2,0.2-0.3,0.2s-0.2-0.1-0.3-0.2c-0.1-0.2-0.2-0.3-0.2-0.5
				c0-0.1,0-0.3,0.1-0.4c0.7-1.1,1.1-2.9,1.4-5.5c0-0.1,0-0.1-0.1-0.1h-0.4c-0.2,0-0.3-0.1-0.4-0.2s-0.2-0.3-0.2-0.4
				s0.1-0.3,0.2-0.4s0.2-0.2,0.4-0.2h0.5c0.3,0,0.5,0.1,0.7,0.3s0.3,0.5,0.3,0.8c0,2.6,0.4,4.6,1.1,5.9c0,0,0,0,0.1,0s0,0,0,0v-8.8
				c0-0.1-0.1-0.2-0.2-0.2h-3.7c-0.1,0-0.2,0.1-0.2,0.2v13.7c0,0.2-0.1,0.3-0.2,0.5s-0.3,0.2-0.5,0.2s-0.4-0.1-0.5-0.2
				s-0.2-0.3-0.2-0.5v-14c0-0.4,0.1-0.7,0.4-1s0.6-0.4,1-0.4h3.6c0.1,0,0.2-0.1,0.2-0.2v-2c0-0.1-0.1-0.2-0.2-0.2h-4.5
				c-0.2,0-0.4-0.1-0.5-0.2s-0.2-0.3-0.2-0.6s0.1-0.4,0.2-0.6s0.3-0.2,0.5-0.2h11.1C1191.1,64.3,1191.3,64.3,1191.5,64.5z
				 M1189.8,78.6C1189.9,78.6,1189.9,78.6,1189.8,78.6C1189.9,78.6,1189.9,78.6,1189.8,78.6l0.1-8.7c0-0.1-0.1-0.2-0.2-0.2h-3.8
				c-0.1,0-0.2,0.1-0.2,0.2v8.9c0,0,0,0.1,0,0.1s0.1,0,0.1,0c0.8-1,1.3-2.9,1.6-5.8c0-0.1,0-0.1-0.1-0.1h-0.4
				c-0.2,0-0.3-0.1-0.4-0.2s-0.2-0.3-0.2-0.4s0.1-0.3,0.2-0.4s0.2-0.2,0.4-0.2h0.5c0.3,0,0.6,0.1,0.8,0.3s0.3,0.5,0.3,0.8
				c0,1.2,0.1,2.2,0.3,3.2S1189.4,77.8,1189.8,78.6z"/>
		</g>
		<g id="XMLID_448_">
			<rect id="XMLID_867_" x="147.2" y="60.9" class="st0" width="852.5" height="22.4"/>
			<g id="XMLID_494_">
				<line id="XMLID_533_" class="st1" x1="159" y1="71.7" x2="207" y2="71.7"/>
				<line id="XMLID_504_" class="st1" x1="232" y1="71.7" x2="280" y2="71.7"/>
				<line id="XMLID_503_" class="st1" x1="306" y1="71.7" x2="354" y2="71.7"/>
				<line id="XMLID_502_" class="st1" x1="379" y1="71.7" x2="427" y2="71.7"/>
				<line id="XMLID_501_" class="st1" x1="453" y1="71.7" x2="501" y2="71.7"/>
				<line id="XMLID_500_" class="st1" x1="526" y1="71.7" x2="574" y2="71.7"/>
				<line id="XMLID_499_" class="st1" x1="599" y1="71.7" x2="647" y2="71.7"/>
				<line id="XMLID_498_" class="st1" x1="673" y1="71.7" x2="721" y2="71.7"/>
				<line id="XMLID_497_" class="st1" x1="746" y1="71.7" x2="794" y2="71.7"/>
				<line id="XMLID_496_" class="st1" x1="820" y1="71.7" x2="868" y2="71.7"/>
				<line id="XMLID_495_" class="st1" x1="893" y1="71.7" x2="941" y2="71.7"/>
			</g>
		</g>
	</g>
	<g id="XMLID_814_">

			<rect id="XMLID_850_" x="998.1" y="15.6" transform="matrix(0.4472 0.8944 -0.8944 0.4472 570.4961 -888.3845)" class="st2" width="11.8" height="3.5"/>
		<path id="XMLID_849_" class="st3" d="M1030.3,73.4c-2.4,0-4.4-2-4.4-4.4c0-2.4,2-4.4,4.4-4.4s4.4,2,4.4,4.4
			C1034.6,71.5,1032.7,73.4,1030.3,73.4z"/>
		<path id="XMLID_846_" class="st4" d="M1030.3,55.9c-7.3,0-13.1,5.9-13.1,13.1c0,7.3,5.9,13.1,13.1,13.1c7.3,0,13.1-5.9,13.1-13.1
			C1043.4,61.8,1037.5,55.9,1030.3,55.9z M1030.3,77c-4.4,0-7.9-3.5-7.9-7.9s3.5-7.9,7.9-7.9s7.9,3.5,7.9,7.9
			C1038.2,73.4,1034.6,77,1030.3,77z"/>
		<path id="XMLID_845_" class="st5" d="M1030.2,70.7c-0.6,0-1.2-0.3-1.5-0.8l-8.6-14.4c-0.5-0.8-0.2-1.9,0.6-2.4
			c0.8-0.5,1.9-0.2,2.4,0.6l8.6,14.4c0.5,0.8,0.2,1.9-0.6,2.4C1030.8,70.6,1030.5,70.7,1030.2,70.7z"/>
		<path id="XMLID_844_" class="st6" d="M1018.5,60.2h16.4c0.7,0,1.3-0.4,1.6-1l0.9-1.8c0.5-1,0.2-2.1-0.6-2.8
			c-1.9-1.7-6.2-4.5-14.5-5.6L1018.5,60.2z"/>
		<path id="XMLID_841_" class="st4" d="M958.4,55.9c-7.3,0-13.1,5.9-13.1,13.1c0,7.3,5.9,13.1,13.1,13.1c7.3,0,13.1-5.9,13.1-13.1
			C971.5,61.8,965.6,55.9,958.4,55.9z M958.4,77c-4.4,0-7.9-3.5-7.9-7.9s3.5-7.9,7.9-7.9c4.4,0,7.9,3.5,7.9,7.9
			C966.3,73.4,962.7,77,958.4,77z"/>
		<path id="XMLID_840_" class="st5" d="M975.9,73.4h-17.5c-2.4,0-4.4-2-4.4-4.4l0,0c0-2.4,2-4.4,4.4-4.4h17.5c2.4,0,4.4,2,4.4,4.4
			l0,0C980.3,71.5,978.3,73.4,975.9,73.4z"/>
		<path id="XMLID_839_" class="st6" d="M1006.6,68.2l3-16.7c0.3-1.7,0.3-3.5-0.2-5.2l-4.6-20.2h5.3l8.8,22.8l-5.3,19.3L1006.6,68.2
			L1006.6,68.2z"/>
		<path id="XMLID_838_" class="st7" d="M1017.2,67.6l7.4-16.1c0.7-1.6,0.6-3.5-0.3-5l-10-15.7c-0.4-0.6-1.2-0.9-1.9-0.5l0,0
			c-1.3,0.7-2,2.2-1.6,3.6l2.9,9.6c1.1,3.6,1.3,7.4,0.5,11l-1.8,9.1c-0.3,1.6-1.8,2.8-3.4,2.8h-18.2l3.5-19.3l-3.5-5.3L968,40.1
			l-13.4,1.5c-1.4,0.2-2.4,1.3-2.4,2.7l0,0c0,0.7,0.3,1.4,0.8,1.9l2.7,2.7c0,0-14,3.5-14,12.3v1.8c0,1,0.8,1.8,1.8,1.8h26.6
			c0.9,0,1.8,0.4,2.5,1l5,5c0.7,0.7,1.5,1,2.5,1h30.9C1013.6,71.7,1016.1,70.1,1017.2,67.6z"/>
		<path id="XMLID_837_" class="st6" d="M994.3,47.2l-3.5-5.3L968,40.1l-13.4,1.5c-1.4,0.2-2.4,1.3-2.4,2.7c0,0.7,0.3,1.4,0.8,1.9
			l2.7,2.7H994L994.3,47.2z"/>
		<path id="XMLID_836_" class="st7" d="M1015.4,27.9h-8.8c-1.9,0-3.5-1.6-3.5-3.5l0,0c0-1.9,1.6-3.5,3.5-3.5h8.8V27.9z"/>
		<path id="XMLID_835_" class="st8" d="M1006.6,26.1c-0.4,0-0.9-0.2-1.2-0.5l-1.2-1.2h-4.5c-1,0-1.8-0.8-1.8-1.8
			c0-1,0.8-1.8,1.8-1.8h4.5c0.9,0,1.8,0.4,2.5,1l1.2,1.2c0.7,0.7,0.7,1.8,0,2.5C1007.5,25.9,1007,26.1,1006.6,26.1z"/>
		<path id="XMLID_834_" class="st5" d="M1015.4,27.9h-1.8v-7h1.8c1,0,1.8,0.8,1.8,1.8v3.5C1017.1,27.1,1016.3,27.9,1015.4,27.9z"/>
		<circle id="XMLID_833_" class="st9" cx="958.4" cy="69.1" r="4.4"/>
		<path id="XMLID_832_" class="st8" d="M964.5,40.7L964.5,40.7c0,0.8,0.4,1.5,1,1.9l6,4c2.3,1.5,5,2.4,7.8,2.4h14.7
			c1.1,0,1.9-1,1.7-2.1l-0.2-1c-0.7-3.3-3.5-5.6-6.9-5.6h-9.4c-1.6,0-3.1-0.2-4.7-0.6l-2.4-0.6c-1.5-0.4-3.1-0.6-4.7-0.6h-0.6
			C965.5,38.4,964.5,39.4,964.5,40.7z"/>
		<path id="XMLID_831_" class="st6" d="M974,58l5.3,7c0.7,0.9,1.7,1.4,2.8,1.4h8.8l2.5-14h-16.6C973.9,52.4,972.3,55.7,974,58z"/>
		<path id="XMLID_830_" class="st5" d="M1001.3,17.3h-1.8c-1,0-1.8-0.8-1.8-1.8v-3.5c0-1,0.8-1.8,1.8-1.8h1.8c1.9,0,3.5,1.6,3.5,3.5
			l0,0C1004.8,15.8,1003.3,17.3,1001.3,17.3z"/>
		<g id="XMLID_829_">
		</g>
		<g id="XMLID_828_">
		</g>
		<g id="XMLID_827_">
		</g>
		<g id="XMLID_826_">
		</g>
		<g id="XMLID_825_">
		</g>
		<g id="XMLID_824_">
		</g>
		<g id="XMLID_823_">
		</g>
		<g id="XMLID_822_">
		</g>
		<g id="XMLID_821_">
		</g>
		<g id="XMLID_820_">
		</g>
		<g id="XMLID_819_">
		</g>
		<g id="XMLID_818_">
		</g>
		<g id="XMLID_817_">
		</g>
		<g id="XMLID_816_">
		</g>
		<g id="XMLID_815_">
		</g>
	</g>
</g>
<g id="XMLID_68_" class="st10">
	<g id="XMLID_852_" class="st11">
		<rect id="XMLID_866_" x="147.2" y="140.4" class="st0" width="340.5" height="22.4"/>
		<g id="XMLID_53_">
			<path id="XMLID_54_" d="M101.7,149.8c0.2,0.1,0.3,0.3,0.4,0.5c0,0.2,0,0.4-0.1,0.6c-0.1,0.2-0.3,0.3-0.5,0.3
				c-0.2,0-0.4,0-0.6-0.1c-0.7-0.4-1.5-0.9-2.5-1.4c-0.2-0.1-0.3-0.2-0.3-0.4c0-0.1,0-0.1,0-0.1c0-0.1,0-0.2,0.1-0.4
				c0.1-0.2,0.3-0.3,0.5-0.3c0.1,0,0.2,0,0.3,0c0.1,0,0.2,0,0.4,0.1C100.1,148.9,100.9,149.4,101.7,149.8z M100.2,160.6
				c-0.1,0.2-0.3,0.3-0.5,0.4c-0.2,0-0.4,0-0.6-0.1c-0.2-0.1-0.3-0.3-0.4-0.6c0-0.1,0-0.1,0-0.2c0-0.2,0-0.3,0.1-0.5
				c0.9-1.5,1.8-3.2,2.8-5.2c0.1-0.2,0.2-0.3,0.4-0.3c0.2,0,0.4,0,0.5,0.1c0.2,0.2,0.3,0.4,0.4,0.6c0,0.1,0,0.1,0,0.2
				c0,0.2,0,0.3-0.1,0.4C102,157.3,101.1,159,100.2,160.6z M102.9,144.1c0.2,0.1,0.3,0.3,0.3,0.5c0,0.2,0,0.4-0.2,0.6
				c-0.1,0.2-0.3,0.3-0.5,0.3c-0.2,0-0.4,0-0.6-0.2c-0.7-0.5-1.5-1-2.4-1.5c-0.2-0.1-0.3-0.2-0.3-0.4s0-0.4,0.1-0.5
				c0.1-0.2,0.3-0.3,0.5-0.3c0.1,0,0.1,0,0.2,0c0.1,0,0.3,0,0.4,0.1C101.5,143.1,102.3,143.6,102.9,144.1z M117.4,144.6
				c0.1,0.1,0.2,0.3,0.2,0.5c0,0.2-0.1,0.4-0.2,0.5c-0.1,0.1-0.3,0.2-0.5,0.2h-10c-0.1,0-0.2,0-0.2,0.1c-0.5,0.9-1.1,1.8-1.8,2.5
				c-0.1,0.2-0.3,0.3-0.6,0.3s-0.4,0-0.6-0.2c-0.2-0.1-0.3-0.3-0.3-0.5c0-0.2,0-0.4,0.2-0.6c1.2-1.4,2.2-3,3-5
				c0.1-0.2,0.2-0.4,0.4-0.5c0.1-0.1,0.3-0.1,0.4-0.1c0.1,0,0.1,0,0.2,0c0.2,0.1,0.3,0.2,0.4,0.4s0.1,0.4,0,0.6
				c-0.2,0.4-0.3,0.8-0.5,1.3c0,0,0,0.1,0,0.1s0,0.1,0.1,0.1h9.3C117.1,144.4,117.3,144.5,117.4,144.6z M104.3,152
				c-0.1-0.1-0.2-0.3-0.2-0.5s0.1-0.4,0.2-0.5c0.1-0.1,0.3-0.2,0.5-0.2h9.1c0.4,0,0.7,0.1,0.9,0.4s0.4,0.5,0.4,0.9
				c0,2.7,0.1,4.8,0.3,6.2c0.2,1.4,0.5,2.1,1,2.1c0.2,0,0.4-0.8,0.4-2.3c0-0.1,0.1-0.2,0.2-0.3c0.1,0,0.2,0,0.3,0.1
				c0.3,0.3,0.5,0.6,0.5,1c0,1-0.1,1.7-0.4,2.3c-0.2,0.4-0.6,0.6-1.1,0.6c-0.3,0-0.6-0.1-0.9-0.2c-0.3-0.2-0.5-0.4-0.7-0.6
				c-0.2-0.3-0.3-0.6-0.5-1.1c-0.1-0.4-0.2-0.9-0.3-1.4c-0.1-0.5-0.2-1.1-0.2-1.8s-0.1-1.4-0.1-2c0-0.6,0-1.4-0.1-2.3
				c0-0.1-0.1-0.2-0.2-0.2h-8.6C104.6,152.2,104.4,152.2,104.3,152z M115.6,147.8c0.1,0.1,0.2,0.3,0.2,0.5c0,0.2-0.1,0.4-0.2,0.5
				c-0.1,0.1-0.3,0.2-0.5,0.2h-8.3c-0.2,0-0.3-0.1-0.5-0.2s-0.2-0.3-0.2-0.5c0-0.2,0.1-0.4,0.2-0.5c0.1-0.1,0.3-0.2,0.5-0.2h8.3
				C115.3,147.6,115.4,147.6,115.6,147.8z"/>
			<path id="XMLID_61_" d="M138.7,156.7c0.2,0,0.4,0.1,0.5,0.2c0.1,0.1,0.2,0.3,0.2,0.5c0,0.2-0.1,0.4-0.2,0.5
				c-0.1,0.1-0.3,0.2-0.5,0.2h-8.1c-0.1,0-0.2,0.1-0.2,0.2v2.3c0,0.2-0.1,0.4-0.2,0.6s-0.4,0.2-0.6,0.2s-0.4-0.1-0.6-0.2
				c-0.2-0.2-0.2-0.4-0.2-0.6v-2.3c0-0.1-0.1-0.2-0.1-0.2h-8c-0.2,0-0.4-0.1-0.5-0.2c-0.1-0.1-0.2-0.3-0.2-0.5
				c0-0.2,0.1-0.4,0.2-0.5c0.1-0.1,0.3-0.2,0.5-0.2h8c0.1,0,0.1-0.1,0.1-0.2V155c0-0.1-0.1-0.2-0.1-0.2h-5.1c-0.3,0-0.6-0.1-0.9-0.4
				c-0.2-0.2-0.4-0.5-0.4-0.9v-6c0-0.3,0.1-0.6,0.4-0.9c0.2-0.2,0.5-0.4,0.9-0.4h5.1c0.1,0,0.1,0,0.1-0.1V145c0-0.1-0.1-0.1-0.1-0.1
				h-7.3c-0.2,0-0.4-0.1-0.5-0.2c-0.1-0.1-0.2-0.3-0.2-0.5c0-0.2,0.1-0.4,0.2-0.5c0.1-0.1,0.3-0.2,0.5-0.2h7.3c0.1,0,0.1,0,0.1-0.1
				v-1c0-0.2,0.1-0.4,0.2-0.6c0.2-0.2,0.4-0.2,0.6-0.2s0.4,0.1,0.6,0.2c0.2,0.2,0.2,0.4,0.2,0.6v1c0,0.1,0.1,0.1,0.2,0.1h7.4
				c0.2,0,0.4,0.1,0.5,0.2c0.1,0.1,0.2,0.3,0.2,0.5c0,0.2-0.1,0.4-0.2,0.5c-0.1,0.1-0.3,0.2-0.5,0.2h-7.4c-0.1,0-0.2,0-0.2,0.1v1.3
				c0,0.1,0.1,0.1,0.2,0.1h5.3c0.3,0,0.6,0.1,0.9,0.4s0.4,0.5,0.4,0.9v6c0,0.3-0.1,0.6-0.4,0.9s-0.5,0.4-0.9,0.4h-5.3
				c-0.1,0-0.2,0.1-0.2,0.2v1.5c0,0.1,0.1,0.2,0.2,0.2H138.7z M123.8,147.8c-0.1,0-0.1,0.1-0.1,0.1v1.9c0,0.1,0,0.1,0.1,0.1h4.7
				c0.1,0,0.1,0,0.1-0.1v-1.9c0-0.1-0.1-0.1-0.1-0.1H123.8z M123.7,153.4c0,0.1,0,0.1,0.1,0.1h4.7c0.1,0,0.1,0,0.1-0.1v-1.9
				c0-0.1-0.1-0.2-0.1-0.2h-4.7c-0.1,0-0.1,0.1-0.1,0.2V153.4z M135.4,147.9c0-0.1-0.1-0.1-0.1-0.1h-4.8c-0.1,0-0.2,0.1-0.2,0.1v1.9
				c0,0.1,0.1,0.1,0.2,0.1h4.8c0.1,0,0.1,0,0.1-0.1V147.9z M135.3,153.5c0.1,0,0.1,0,0.1-0.1v-1.9c0-0.1-0.1-0.2-0.1-0.2h-4.8
				c-0.1,0-0.2,0.1-0.2,0.2v1.9c0,0.1,0.1,0.1,0.2,0.1H135.3z"/>
		</g>
		<g id="XMLID_34_">
			<path id="XMLID_35_" d="M634.1,162.8c-0.3-0.2-0.5-0.5-0.5-0.9s0.1-0.7,0.4-1c0.2-0.3,0.5-0.4,0.9-0.4c0.4,0,0.7,0.1,1,0.3
				c1.1,0.7,2.2,1.1,3.4,1.1c1.9,0,3.4-0.8,4.6-2.5c1.2-1.7,1.9-4.4,2-8.2c0,0,0-0.1-0.1-0.1c0,0-0.1,0-0.1,0
				c-0.8,0.9-1.7,1.7-2.8,2.2c-1,0.6-2.1,0.8-3.1,0.8c-2.2,0-4-0.7-5.3-2.1c-1.3-1.4-2-3.5-2-6.2c0-2.5,0.7-4.6,2.2-6.2
				c1.5-1.6,3.3-2.4,5.4-2.4c2.6,0,4.8,1.1,6.4,3.2c1.6,2.2,2.4,5.3,2.4,9.3c0,2.6-0.3,4.8-0.8,6.8c-0.5,2-1.2,3.5-2.1,4.6
				c-0.9,1.1-1.9,2-3,2.5s-2.3,0.8-3.6,0.8C637.4,164.6,635.6,164,634.1,162.8z M640.4,151.7c2,0,3.8-1.1,5.4-3.3
				c0.1-0.1,0.1-0.3,0.1-0.5c-0.2-2.6-0.8-4.6-1.8-6s-2.3-2.1-4-2.1c-1.3,0-2.4,0.6-3.2,1.7c-0.8,1.1-1.3,2.5-1.3,4.3
				c0,1.8,0.4,3.3,1.2,4.3C637.7,151.1,638.9,151.7,640.4,151.7z"/>
			<path id="XMLID_38_" d="M661.6,162.4c0,0.5-0.2,0.9-0.5,1.2c-0.3,0.3-0.8,0.5-1.2,0.5c-0.5,0-0.9-0.2-1.2-0.5
				c-0.3-0.3-0.5-0.7-0.5-1.1c0-3.7,0.7-7.7,2-11.9c1.1-3.3,2.8-6.6,5.1-9.9c0,0,0.1-0.1,0-0.1c0,0-0.1-0.1-0.1-0.1h-11.1
				c-0.4,0-0.7-0.1-1-0.4c-0.3-0.3-0.4-0.6-0.4-1s0.1-0.7,0.4-1s0.6-0.4,1-0.4h14.1c0.3,0,0.5,0.1,0.7,0.3c0.2,0.2,0.3,0.4,0.3,0.7
				c0,0.6-0.2,1.2-0.6,1.8c-2.5,3.4-4.3,6.7-5.3,9.9S661.8,157.6,661.6,162.4z"/>
			<path id="XMLID_40_" d="M681.6,162.4c0,0.5-0.2,0.9-0.5,1.2c-0.3,0.3-0.8,0.5-1.2,0.5c-0.5,0-0.9-0.2-1.2-0.5
				c-0.3-0.3-0.5-0.7-0.5-1.1c0-3.7,0.7-7.7,2-11.9c1.1-3.3,2.8-6.6,5.1-9.9c0,0,0.1-0.1,0-0.1c0,0-0.1-0.1-0.1-0.1h-11.1
				c-0.4,0-0.7-0.1-1-0.4c-0.3-0.3-0.4-0.6-0.4-1s0.1-0.7,0.4-1s0.6-0.4,1-0.4h14.1c0.3,0,0.5,0.1,0.7,0.3c0.2,0.2,0.3,0.4,0.3,0.7
				c0,0.6-0.2,1.2-0.6,1.8c-2.5,3.4-4.3,6.7-5.3,9.9S681.8,157.6,681.6,162.4z"/>
			<path id="XMLID_42_" d="M694,162.8c-0.3-0.2-0.5-0.5-0.5-0.9s0.1-0.7,0.4-1c0.2-0.3,0.5-0.4,0.9-0.4c0.4,0,0.7,0.1,1,0.3
				c1.1,0.7,2.2,1.1,3.4,1.1c1.9,0,3.4-0.8,4.6-2.5c1.2-1.7,1.9-4.4,2-8.2c0,0,0-0.1-0.1-0.1c0,0-0.1,0-0.1,0
				c-0.8,0.9-1.7,1.7-2.8,2.2c-1,0.6-2.1,0.8-3.1,0.8c-2.2,0-4-0.7-5.3-2.1c-1.3-1.4-2-3.5-2-6.2c0-2.5,0.7-4.6,2.2-6.2
				c1.5-1.6,3.3-2.4,5.4-2.4c2.6,0,4.8,1.1,6.4,3.2c1.6,2.2,2.4,5.3,2.4,9.3c0,2.6-0.3,4.8-0.8,6.8c-0.5,2-1.2,3.5-2.1,4.6
				c-0.9,1.1-1.9,2-3,2.5s-2.3,0.8-3.6,0.8C697.3,164.6,695.5,164,694,162.8z M700.3,151.7c2,0,3.8-1.1,5.4-3.3
				c0.1-0.1,0.1-0.3,0.1-0.5c-0.2-2.6-0.8-4.6-1.8-6s-2.3-2.1-4-2.1c-1.3,0-2.4,0.6-3.2,1.7c-0.8,1.1-1.3,2.5-1.3,4.3
				c0,1.8,0.4,3.3,1.2,4.3C697.6,151.1,698.8,151.7,700.3,151.7z"/>
			<path id="XMLID_45_" d="M725.4,158.3c-0.1,0-0.2,0.1-0.2,0.2v1.5c0,0.1,0.1,0.2,0.2,0.2h2.6c0.2,0,0.4,0.1,0.6,0.2
				s0.2,0.3,0.2,0.5s-0.1,0.4-0.2,0.6s-0.3,0.2-0.6,0.2h-2.6c-0.1,0-0.2,0.1-0.2,0.2v3.3c0,0.2-0.1,0.4-0.2,0.6s-0.3,0.2-0.5,0.2
				s-0.4-0.1-0.5-0.2s-0.2-0.3-0.2-0.6v-3.3c0-0.1-0.1-0.2-0.2-0.2h-2.8c-0.2,0-0.4-0.1-0.6-0.2s-0.2-0.3-0.2-0.6s0.1-0.4,0.2-0.5
				s0.3-0.2,0.6-0.2h2.8c0.1,0,0.2-0.1,0.2-0.2v-1.5c0-0.1-0.1-0.2-0.2-0.2h-1.5c-0.4,0-0.7-0.1-1-0.4s-0.4-0.6-0.4-1v-5.7
				c0-0.4,0.1-0.7,0.4-1s0.6-0.4,1-0.4h1.5c0.1,0,0.2-0.1,0.2-0.2v-1.4c0-0.1-0.1-0.2-0.2-0.2h-2.6c-0.2,0-0.4-0.1-0.6-0.2
				s-0.2-0.3-0.2-0.5s0.1-0.4,0.2-0.5s0.3-0.2,0.6-0.2h2.6c0.1,0,0.2-0.1,0.2-0.2v-1.6c0-0.2,0.1-0.4,0.2-0.6s0.3-0.2,0.5-0.2
				s0.4,0.1,0.5,0.2s0.2,0.3,0.2,0.6v1.6c0,0.1,0.1,0.2,0.2,0.2h2.4c0.2,0,0.4,0.1,0.6,0.2s0.2,0.3,0.2,0.5s-0.1,0.4-0.2,0.5
				s-0.3,0.2-0.6,0.2h-2.4c-0.1,0-0.2,0.1-0.2,0.2v1.4c0,0.1,0.1,0.2,0.2,0.2h1.5c0.4,0,0.7,0.1,1,0.4s0.4,0.6,0.4,1v5.7
				c0,0.4-0.1,0.7-0.4,1s-0.6,0.4-1,0.4H725.4z M722.1,151.2c-0.1,0-0.2,0.1-0.2,0.2v1.9c0,0.1,0.1,0.2,0.2,0.2h1.6
				c0.1,0,0.2-0.1,0.2-0.2v-1.9c0-0.1-0.1-0.2-0.2-0.2H722.1z M722.1,154.7c-0.1,0-0.2,0.1-0.2,0.2v1.9c0,0.1,0.1,0.2,0.2,0.2h1.6
				c0.1,0,0.2-0.1,0.2-0.2v-1.9c0-0.1-0.1-0.2-0.2-0.2H722.1z M726.9,153.4c0.1,0,0.2-0.1,0.2-0.2v-1.9c0-0.1-0.1-0.2-0.2-0.2h-1.6
				c-0.1,0-0.2,0.1-0.2,0.2v1.9c0,0.1,0.1,0.2,0.2,0.2H726.9z M726.9,157c0.1,0,0.2-0.1,0.2-0.2v-1.9c0-0.1-0.1-0.2-0.2-0.2h-1.6
				c-0.1,0-0.2,0.1-0.2,0.2v1.9c0,0.1,0.1,0.2,0.2,0.2H726.9z M741.5,146.1c0.2,0.1,0.2,0.3,0.2,0.6s-0.1,0.4-0.2,0.6
				s-0.3,0.2-0.5,0.2h-4.7c-0.1,0-0.2,0.1-0.2,0.2v2c0,0.1,0.1,0.2,0.2,0.2h3.8c0.4,0,0.7,0.1,1,0.4s0.4,0.6,0.4,1V164
				c0,0.4-0.1,0.8-0.2,1s-0.3,0.4-0.6,0.6c-0.4,0.2-1.2,0.3-2.2,0.3c-0.2,0-0.4-0.1-0.6-0.2s-0.3-0.3-0.4-0.6c0-0.2,0-0.3,0.1-0.5
				s0.2-0.2,0.4-0.2c0.4,0,0.7,0,0.9,0c0.3,0,0.5,0,0.7,0c0.1,0,0.2,0,0.3-0.1s0.1-0.2,0.1-0.3v-2.9c0,0,0,0,0,0s0,0,0,0
				c-0.1,0.1-0.3,0.2-0.4,0.1s-0.3-0.1-0.4-0.2c-0.5-0.8-0.8-1.7-1-2.8c0,0,0,0,0,0s0,0,0,0c-0.2,1.1-0.6,1.9-1,2.6
				c-0.1,0.2-0.3,0.3-0.5,0.3s-0.4-0.1-0.6-0.2c0,0,0,0-0.1,0s0,0,0,0.1v4.2c0,0.2-0.1,0.3-0.2,0.4s-0.3,0.2-0.4,0.2
				s-0.3-0.1-0.4-0.2s-0.2-0.3-0.2-0.4V161c0-0.1,0-0.1-0.1,0c-0.2,0.1-0.4,0.2-0.6,0.2s-0.4-0.2-0.4-0.3c-0.3-0.6-0.5-1.4-0.7-2.2
				c0,0,0,0,0,0s0,0,0,0c-0.2,1.1-0.6,2-1,2.7c-0.1,0.1-0.2,0.2-0.3,0.2s-0.2-0.1-0.3-0.2c-0.1-0.2-0.2-0.3-0.2-0.5
				c0-0.1,0-0.3,0.1-0.4c0.7-1.1,1.1-2.9,1.4-5.5c0-0.1,0-0.1-0.1-0.1H732c-0.2,0-0.3-0.1-0.4-0.2s-0.2-0.3-0.2-0.4s0.1-0.3,0.2-0.4
				s0.2-0.2,0.4-0.2h0.5c0.3,0,0.5,0.1,0.7,0.3s0.3,0.5,0.3,0.8c0,2.6,0.4,4.6,1.1,5.9c0,0,0,0,0.1,0s0,0,0,0v-8.8
				c0-0.1-0.1-0.2-0.2-0.2h-3.7c-0.1,0-0.2,0.1-0.2,0.2v13.7c0,0.2-0.1,0.3-0.2,0.5s-0.3,0.2-0.5,0.2s-0.4-0.1-0.5-0.2
				s-0.2-0.3-0.2-0.5v-14c0-0.4,0.1-0.7,0.4-1s0.6-0.4,1-0.4h3.6c0.1,0,0.2-0.1,0.2-0.2v-2c0-0.1-0.1-0.2-0.2-0.2h-4.5
				c-0.2,0-0.4-0.1-0.5-0.2s-0.2-0.3-0.2-0.6s0.1-0.4,0.2-0.6s0.3-0.2,0.5-0.2H741C741.2,145.9,741.3,146,741.5,146.1z M739.9,160.2
				C739.9,160.3,739.9,160.3,739.9,160.2C740,160.2,740,160.2,739.9,160.2l0.1-8.7c0-0.1-0.1-0.2-0.2-0.2h-3.8
				c-0.1,0-0.2,0.1-0.2,0.2v8.9c0,0,0,0.1,0,0.1s0.1,0,0.1,0c0.8-1,1.3-2.9,1.6-5.8c0-0.1,0-0.1-0.1-0.1h-0.4
				c-0.2,0-0.3-0.1-0.4-0.2s-0.2-0.3-0.2-0.4s0.1-0.3,0.2-0.4s0.2-0.2,0.4-0.2h0.5c0.3,0,0.6,0.1,0.8,0.3s0.3,0.5,0.3,0.8
				c0,1.2,0.1,2.2,0.3,3.2S739.4,159.5,739.9,160.2z"/>
		</g>
		<g id="XMLID_485_">
			<line id="XMLID_491_" class="st1" x1="158" y1="151.7" x2="206" y2="151.7"/>
			<line id="XMLID_489_" class="st1" x1="231" y1="151.7" x2="278" y2="151.7"/>
			<line id="XMLID_488_" class="st1" x1="304" y1="151.7" x2="352" y2="151.7"/>
			<line id="XMLID_487_" class="st1" x1="377" y1="151.7" x2="425" y2="151.7"/>
			<line id="XMLID_486_" class="st1" x1="452" y1="151.7" x2="485" y2="151.7"/>
		</g>
	</g>
	<g id="XMLID_772_" class="st11">
		<path id="XMLID_813_" class="st12" d="M486.4,140.5l1.5-6.1c0.4-1.5,1.1-2.8,2.2-3.9l9.5-11.9c1.6-2,4-3.1,6.5-3.1H553
			c1.9,0,3.7,0.9,4.9,2.3l11.5,14.3L486.4,140.5z"/>
		<path id="XMLID_812_" class="st13" d="M553,115.6h-46.9c-2.5,0-4.9,1.1-6.5,3.1l-9.5,11.9c-1.1,1.1-1.8,2.4-2.2,3.9l-1.5,6.1
			l31.1,16.6h87.2v-15.9c0-3-2.2-5.7-5.2-6.1c-10.5-1.7-30.2-2.8-30.2-2.8l-11.5-14.3C556.6,116.5,554.9,115.6,553,115.6z"/>
		<g id="XMLID_809_">
			<path id="XMLID_811_" class="st14" d="M553,115.6h-46.8c-2.5,0-4.9,1.2-6.5,3.1l-9.1,11.4l66.3,2.1h12.5l-11.5-14.3
				C556.6,116.5,554.9,115.6,553,115.6z"/>
			<path id="XMLID_810_" class="st14" d="M604.7,143.3c0-1.8-1.2-3.5-3-4c-4.1-1.2-13.4-3-32.3-3h-80.9c-1.1,0-2.1,0.9-2.1,2.1
				l0,12.5l39.4,4.2h78.9V143.3z"/>
		</g>
		<path id="XMLID_808_" class="st15" d="M604.7,153h-97.3l-18.5-4.1c-1.1-0.2-2.2,0.5-2.5,1.6c-0.2,1.1,0.5,2.2,1.6,2.5l18.7,4.2
			c0.1,0,0.3,0,0.4,0h97.5c1.1,0,2.1-0.9,2.1-2.1C606.8,153.9,605.9,153,604.7,153z"/>
		<circle id="XMLID_807_" class="st9" cx="506.1" cy="156.1" r="9.5"/>
		<path id="XMLID_804_" class="st4" d="M506.1,167.5c-6.3,0-11.4-5.1-11.4-11.4c0-6.3,5.1-11.4,11.4-11.4s11.4,5.1,11.4,11.4
			C517.6,162.4,512.4,167.5,506.1,167.5z M506.1,148.8c-4,0-7.3,3.3-7.3,7.3s3.3,7.3,7.3,7.3c4,0,7.3-3.3,7.3-7.3
			S510.2,148.8,506.1,148.8z"/>
		<circle id="XMLID_803_" class="st5" cx="506.1" cy="156.1" r="4.2"/>
		<g id="XMLID_800_">
			<path id="XMLID_802_" class="st15" d="M567.4,148.8h-45.7c-1.1,0-2.1-0.9-2.1-2.1l0,0c0-1.1,0.9-2.1,2.1-2.1h45.7
				c1.1,0,2.1,0.9,2.1,2.1l0,0C569.4,147.9,568.5,148.8,567.4,148.8z"/>
			<path id="XMLID_801_" class="st15" d="M604.7,148.8h-4.2c-1.1,0-2.1-0.9-2.1-2.1l0,0c0-1.1,0.9-2.1,2.1-2.1h4.2
				c1.1,0,2.1,0.9,2.1,2.1l0,0C606.8,147.9,605.9,148.8,604.7,148.8z"/>
		</g>
		<path id="XMLID_799_" class="st16" d="M487.9,134.4l-0.5,1.9h5.2c1.1,0,2.1-0.9,2.1-2.1s-0.9-2.1-2.1-2.1h-3.8
			C488.5,132.9,488.1,133.6,487.9,134.4z"/>
		<circle id="XMLID_798_" class="st9" cx="582.9" cy="156.1" r="9.5"/>
		<path id="XMLID_795_" class="st4" d="M582.9,167.5c-6.3,0-11.4-5.1-11.4-11.4c0-6.3,5.1-11.4,11.4-11.4c6.3,0,11.4,5.1,11.4,11.4
			C594.4,162.4,589.2,167.5,582.9,167.5z M582.9,148.8c-4,0-7.3,3.3-7.3,7.3s3.3,7.3,7.3,7.3c4,0,7.3-3.3,7.3-7.3
			S586.9,148.8,582.9,148.8z"/>
		<circle id="XMLID_794_" class="st5" cx="582.9" cy="156.1" r="4.2"/>
		<path id="XMLID_793_" class="st8" d="M557.6,130.6l-8.7-11.3c-0.8-1-2-1.6-3.3-1.6h-30c-1.8,0-3.4,1.2-4,2.9l-2.2,7.2
			c-0.7,1.4,0.3,3,1.8,3l45.7,1.4h0C557.7,132.2,558.1,131.2,557.6,130.6z"/>
		<path id="XMLID_792_" class="st9" d="M604.7,141.2c0-1-0.3-1.9-0.7-2.7h-3.5c-1.1,0-2.1,0.9-2.1,2.1c0,1.1,0.9,2.1,2.1,2.1h4.2
			V141.2L604.7,141.2z"/>
		<polygon id="XMLID_791_" class="st4" points="530,131.4 534.2,131.5 533.3,117.7 529.1,117.7 		"/>
		<g id="XMLID_788_">
			<path id="XMLID_790_" class="st8" d="M557.7,117.7C557.6,117.7,557.6,117.7,557.7,117.7l-3.4,0c-1,0-1.6,1.1-0.9,1.9l9,11.6
				c0.5,0.6,1.3,1,2.1,1h4.9L557.7,117.7z"/>
			<path id="XMLID_789_" class="st8" d="M507.4,119.7c0.5-0.9-0.2-2-1.3-2h-5.4c-0.4,0.3-0.7,0.7-1.1,1.1l-9.1,11.4l8.8,0.3
				c1.6,0.1,3.1-0.9,3.9-2.3L507.4,119.7z"/>
		</g>
		<g id="XMLID_787_">
		</g>
		<g id="XMLID_786_">
		</g>
		<g id="XMLID_785_">
		</g>
		<g id="XMLID_784_">
		</g>
		<g id="XMLID_783_">
		</g>
		<g id="XMLID_782_">
		</g>
		<g id="XMLID_781_">
		</g>
		<g id="XMLID_780_">
		</g>
		<g id="XMLID_779_">
		</g>
		<g id="XMLID_778_">
		</g>
		<g id="XMLID_777_">
		</g>
		<g id="XMLID_776_">
		</g>
		<g id="XMLID_775_">
		</g>
		<g id="XMLID_774_">
		</g>
		<g id="XMLID_773_">
		</g>
	</g>
</g>
<g id="XMLID_109_" class="st10">
	<g id="XMLID_860_" class="st11">
		<rect id="XMLID_865_" x="147.2" y="219.9" class="st0" width="114.8" height="22.4"/>
		<g id="XMLID_89_">
			<path id="XMLID_90_" d="M83.8,225.6c0.2,0,0.3,0.1,0.5,0.2c0.1,0.1,0.2,0.3,0.2,0.5c0,0.2-0.1,0.3-0.2,0.5
				c-0.1,0.1-0.3,0.2-0.5,0.2h-7.3c-0.2,0-0.3-0.1-0.5-0.2c-0.1-0.1-0.2-0.3-0.2-0.5c0-0.2,0.1-0.3,0.2-0.5c0.1-0.1,0.3-0.2,0.5-0.2
				H83.8z M82.3,234.4c0.3,0,0.6,0.1,0.9,0.4s0.4,0.5,0.4,0.9v3.8c0,0.4-0.1,0.7-0.4,0.9c-0.2,0.2-0.5,0.4-0.9,0.4h-3.9
				c-0.1,0-0.1,0-0.1,0.1v0.2c0,0.2-0.1,0.4-0.2,0.5c-0.1,0.1-0.3,0.2-0.5,0.2c-0.2,0-0.4-0.1-0.5-0.2c-0.1-0.1-0.2-0.3-0.2-0.5
				v-5.3c0-0.4,0.1-0.7,0.4-0.9s0.5-0.4,0.9-0.4H82.3z M77.5,229.9c-0.2,0-0.3-0.1-0.4-0.2c-0.1-0.1-0.2-0.3-0.2-0.5
				c0-0.2,0.1-0.3,0.2-0.5c0.1-0.1,0.3-0.2,0.4-0.2H83c0.2,0,0.3,0.1,0.5,0.2c0.1,0.1,0.2,0.3,0.2,0.5c0,0.2-0.1,0.3-0.2,0.5
				c-0.1,0.1-0.3,0.2-0.5,0.2H77.5z M77.5,232.8c-0.2,0-0.3-0.1-0.5-0.2c-0.1-0.1-0.2-0.3-0.2-0.5c0-0.2,0.1-0.3,0.2-0.5
				c0.1-0.1,0.3-0.2,0.5-0.2H83c0.2,0,0.3,0.1,0.5,0.2c0.1,0.1,0.2,0.3,0.2,0.5c0,0.2-0.1,0.3-0.2,0.5c-0.1,0.1-0.3,0.2-0.5,0.2
				H77.5z M83,222.7c0.2,0,0.3,0.1,0.5,0.2c0.1,0.1,0.2,0.3,0.2,0.5c0,0.2-0.1,0.3-0.2,0.5c-0.1,0.1-0.3,0.2-0.5,0.2h-5.4
				c-0.2,0-0.3-0.1-0.5-0.2c-0.1-0.1-0.2-0.3-0.2-0.5c0-0.2,0.1-0.3,0.2-0.5c0.1-0.1,0.3-0.2,0.5-0.2H83z M82.1,235.9
				c0-0.1-0.1-0.1-0.2-0.1h-3.5c-0.1,0-0.1,0.1-0.1,0.1v3.4c0,0.1,0,0.1,0.1,0.1h3.5c0.1,0,0.2,0,0.2-0.1V235.9z M95.2,229.4
				c0.2,0,0.4,0.1,0.6,0.2s0.2,0.3,0.2,0.6c0,0.2-0.1,0.4-0.2,0.6s-0.3,0.2-0.6,0.2h-4c-0.1,0-0.1,0.1-0.1,0.1v10
				c0,0.2-0.1,0.4-0.2,0.6s-0.3,0.2-0.6,0.2c-0.2,0-0.4-0.1-0.6-0.2c-0.2-0.2-0.2-0.3-0.2-0.6v-10c0-0.1,0-0.1-0.1-0.1h-4.2
				c-0.2,0-0.4-0.1-0.6-0.2s-0.2-0.3-0.2-0.6c0-0.2,0.1-0.4,0.2-0.6s0.3-0.2,0.6-0.2h4.2c0.1,0,0.1,0,0.1-0.1v-6.4
				c0-0.2,0.1-0.4,0.2-0.6c0.2-0.2,0.3-0.2,0.6-0.2c0.2,0,0.4,0.1,0.6,0.2s0.2,0.3,0.2,0.6v6.4c0,0.1,0,0.1,0.1,0.1H95.2z"/>
			<path id="XMLID_98_" d="M105.5,233.4c0.2,0.2,0.3,0.4,0.3,0.6c0,0.2-0.1,0.4-0.2,0.6c-0.1,0.2-0.3,0.2-0.5,0.2s-0.4-0.1-0.5-0.2
				c-0.4-0.6-0.9-1.3-1.4-1.9c0,0-0.1,0-0.1,0c0,0,0,0,0,0.1v8.4c0,0.2-0.1,0.4-0.2,0.6c-0.2,0.2-0.3,0.2-0.6,0.2s-0.4-0.1-0.6-0.2
				c-0.2-0.2-0.2-0.3-0.2-0.6v-8.7c0,0,0,0,0,0s0,0,0,0c-0.8,2-1.7,3.6-2.6,4.9c-0.1,0.2-0.3,0.2-0.5,0.2c-0.2,0-0.3-0.1-0.4-0.3
				c-0.1-0.2-0.2-0.4-0.2-0.6c0-0.3,0.1-0.5,0.3-0.7c0.6-0.8,1.2-1.7,1.7-2.8c0.6-1.1,1-2.2,1.4-3.3c0,0,0-0.1,0-0.1
				c0,0-0.1-0.1-0.1-0.1h-2.4c-0.2,0-0.4-0.1-0.5-0.2s-0.2-0.3-0.2-0.5c0-0.2,0.1-0.4,0.2-0.5c0.1-0.1,0.3-0.2,0.5-0.2h2.6
				c0.1,0,0.1-0.1,0.1-0.2v-3c0-0.1,0-0.1-0.1-0.1c-0.7,0.1-1.4,0.3-2.4,0.4c-0.2,0-0.4,0-0.5-0.1c-0.2-0.1-0.3-0.3-0.4-0.4
				c-0.1-0.2-0.1-0.3,0-0.5c0.1-0.1,0.2-0.2,0.4-0.3c2.3-0.4,4.1-0.8,5.4-1.3c0.2-0.1,0.4-0.1,0.5-0.1c0.3,0,0.6,0.1,0.8,0.4
				c0.1,0.1,0.2,0.3,0.1,0.5c0,0.2-0.2,0.3-0.4,0.4c-0.6,0.2-1.2,0.4-1.8,0.5c-0.1,0-0.1,0.1-0.1,0.2v3.4c0,0.1,0,0.2,0.1,0.2h1.8
				c0.2,0,0.4,0.1,0.5,0.2c0.1,0.1,0.2,0.3,0.2,0.5c0,0.2-0.1,0.4-0.2,0.5c-0.1,0.1-0.3,0.2-0.5,0.2h-1.8c-0.1,0-0.1,0.1-0.1,0.2v1
				c0,0.1,0,0.2,0.1,0.3C103.7,231.6,104.5,232.3,105.5,233.4z M112.4,239.8c0,0.1,0.1,0.2,0.2,0.2h4.4c0.2,0,0.4,0.1,0.5,0.2
				c0.1,0.1,0.2,0.3,0.2,0.5c0,0.2-0.1,0.4-0.2,0.5c-0.1,0.1-0.3,0.2-0.5,0.2h-11.2c-0.2,0-0.4-0.1-0.5-0.2
				c-0.1-0.1-0.2-0.3-0.2-0.5c0-0.2,0.1-0.4,0.2-0.5c0.1-0.1,0.3-0.2,0.5-0.2h4.8c0.1,0,0.1-0.1,0.1-0.2v-2.5c0-0.1,0-0.2-0.1-0.2
				h-3.4c-0.2,0-0.4-0.1-0.5-0.2s-0.2-0.3-0.2-0.5c0-0.2,0.1-0.4,0.2-0.5c0.1-0.1,0.3-0.2,0.5-0.2h3.4c0.1,0,0.1-0.1,0.1-0.2v-2.3
				c0-0.1,0-0.2-0.1-0.2h-3.9c-0.2,0-0.4-0.1-0.5-0.2c-0.1-0.1-0.2-0.3-0.2-0.5s0.1-0.4,0.2-0.5c0.1-0.1,0.3-0.2,0.5-0.2h9.8
				c0.2,0,0.4,0.1,0.5,0.2c0.1,0.1,0.2,0.3,0.2,0.5s-0.1,0.4-0.2,0.5c-0.1,0.1-0.3,0.2-0.5,0.2h-4c-0.1,0-0.2,0.1-0.2,0.2v2.3
				c0,0.1,0.1,0.2,0.2,0.2h3.5c0.2,0,0.3,0.1,0.5,0.2c0.1,0.1,0.2,0.3,0.2,0.5c0,0.2-0.1,0.4-0.2,0.5c-0.1,0.1-0.3,0.2-0.5,0.2h-3.5
				c-0.1,0-0.2,0.1-0.2,0.2V239.8z M115.3,222.9c0.3,0,0.6,0.1,0.9,0.4c0.2,0.2,0.4,0.5,0.4,0.9v4.3c0,0.4-0.1,0.7-0.4,0.9
				c-0.2,0.2-0.5,0.4-0.9,0.4h-7.1c-0.3,0-0.6-0.1-0.9-0.4c-0.2-0.2-0.4-0.5-0.4-0.9v-4.3c0-0.4,0.1-0.7,0.4-0.9
				c0.2-0.2,0.5-0.4,0.9-0.4H115.3z M114.8,228.3c0.1,0,0.2-0.1,0.2-0.2v-3.7c0-0.1-0.1-0.2-0.2-0.2h-6.2c-0.1,0-0.1,0.1-0.1,0.2
				v3.7c0,0.1,0,0.2,0.1,0.2H114.8z"/>
			<path id="XMLID_103_" d="M138.7,236.8c0.2,0,0.4,0.1,0.5,0.2c0.1,0.1,0.2,0.3,0.2,0.5c0,0.2-0.1,0.4-0.2,0.5
				c-0.1,0.1-0.3,0.2-0.5,0.2h-8.1c-0.1,0-0.2,0.1-0.2,0.2v2.3c0,0.2-0.1,0.4-0.2,0.6s-0.4,0.2-0.6,0.2s-0.4-0.1-0.6-0.2
				c-0.2-0.2-0.2-0.4-0.2-0.6v-2.3c0-0.1-0.1-0.2-0.1-0.2h-8c-0.2,0-0.4-0.1-0.5-0.2c-0.1-0.1-0.2-0.3-0.2-0.5
				c0-0.2,0.1-0.4,0.2-0.5c0.1-0.1,0.3-0.2,0.5-0.2h8c0.1,0,0.1-0.1,0.1-0.2v-1.5c0-0.1-0.1-0.2-0.1-0.2h-5.1
				c-0.3,0-0.6-0.1-0.9-0.4c-0.2-0.2-0.4-0.5-0.4-0.9v-6c0-0.3,0.1-0.6,0.4-0.9c0.2-0.2,0.5-0.4,0.9-0.4h5.1c0.1,0,0.1,0,0.1-0.1
				v-1.3c0-0.1-0.1-0.1-0.1-0.1h-7.3c-0.2,0-0.4-0.1-0.5-0.2c-0.1-0.1-0.2-0.3-0.2-0.5c0-0.2,0.1-0.4,0.2-0.5
				c0.1-0.1,0.3-0.2,0.5-0.2h7.3c0.1,0,0.1,0,0.1-0.1v-1c0-0.2,0.1-0.4,0.2-0.6c0.2-0.2,0.4-0.2,0.6-0.2s0.4,0.1,0.6,0.2
				c0.2,0.2,0.2,0.4,0.2,0.6v1c0,0.1,0.1,0.1,0.2,0.1h7.4c0.2,0,0.4,0.1,0.5,0.2c0.1,0.1,0.2,0.3,0.2,0.5c0,0.2-0.1,0.4-0.2,0.5
				c-0.1,0.1-0.3,0.2-0.5,0.2h-7.4c-0.1,0-0.2,0-0.2,0.1v1.3c0,0.1,0.1,0.1,0.2,0.1h5.3c0.3,0,0.6,0.1,0.9,0.4s0.4,0.5,0.4,0.9v6
				c0,0.3-0.1,0.6-0.4,0.9s-0.5,0.4-0.9,0.4h-5.3c-0.1,0-0.2,0.1-0.2,0.2v1.5c0,0.1,0.1,0.2,0.2,0.2H138.7z M123.9,227.9
				c-0.1,0-0.1,0.1-0.1,0.1v1.9c0,0.1,0,0.1,0.1,0.1h4.7c0.1,0,0.1,0,0.1-0.1v-1.9c0-0.1-0.1-0.1-0.1-0.1H123.9z M123.7,233.5
				c0,0.1,0,0.1,0.1,0.1h4.7c0.1,0,0.1,0,0.1-0.1v-1.9c0-0.1-0.1-0.2-0.1-0.2h-4.7c-0.1,0-0.1,0.1-0.1,0.2V233.5z M135.5,228.1
				c0-0.1-0.1-0.1-0.1-0.1h-4.8c-0.1,0-0.2,0.1-0.2,0.1v1.9c0,0.1,0.1,0.1,0.2,0.1h4.8c0.1,0,0.1,0,0.1-0.1V228.1z M135.3,233.7
				c0.1,0,0.1,0,0.1-0.1v-1.9c0-0.1-0.1-0.2-0.1-0.2h-4.8c-0.1,0-0.2,0.1-0.2,0.2v1.9c0,0.1,0.1,0.1,0.2,0.1H135.3z"/>
		</g>
		<g id="XMLID_69_">
			<path id="XMLID_70_" d="M408.5,242.5c-3,0-5.4-0.9-7.5-2.6c-0.3-0.3-0.5-0.6-0.5-1.1c0-0.4,0.1-0.7,0.3-0.9s0.5-0.4,0.9-0.5
				c0.4,0,0.7,0.1,1,0.3c1.6,1.4,3.5,2.1,5.6,2.1c1.6,0,2.9-0.4,3.9-1.3s1.5-2.1,1.5-3.6c0-3.3-2.3-5-7-5.2c-0.4,0-0.7-0.2-0.9-0.4
				s-0.4-0.5-0.4-0.9s0.1-0.7,0.4-0.9s0.5-0.4,0.9-0.4c2.1-0.2,3.6-0.7,4.6-1.6s1.4-2,1.4-3.4c0-1.3-0.4-2.3-1.2-3.1
				c-0.8-0.8-1.9-1.2-3.3-1.2c-1.5,0-3,0.6-4.4,1.7c-0.3,0.2-0.6,0.3-1,0.3c-0.4,0-0.7-0.2-0.9-0.5s-0.3-0.6-0.3-1s0.2-0.7,0.5-0.9
				c1.9-1.5,4.1-2.3,6.3-2.3s4.1,0.6,5.5,1.8c1.4,1.2,2.1,2.8,2.1,4.9c0,1.5-0.4,2.9-1.2,3.9c-0.8,1.1-2,1.9-3.4,2.4
				c0,0-0.1,0.1-0.1,0.1c0,0,0,0.1,0.1,0.1c1.6,0.4,3,1.2,4,2.4c1,1.2,1.5,2.6,1.5,4.3c0,2.3-0.8,4.1-2.4,5.5
				C412.9,241.9,410.9,242.5,408.5,242.5z"/>
			<path id="XMLID_72_" d="M435.9,217c0.3,0.3,0.4,0.6,0.4,1s-0.1,0.7-0.4,1c-0.2,0.3-0.5,0.4-0.9,0.4c-0.4,0-0.7-0.1-1-0.3
				c-1-0.7-2.1-1.1-3.3-1.1c-2,0-3.6,0.8-4.8,2.5c-1.2,1.7-1.9,4.4-2,8.2c0,0,0,0.1,0,0.1c0,0,0.1,0,0.1,0c0.8-0.9,1.7-1.7,2.8-2.2
				c1-0.5,2.1-0.8,3.1-0.8c2.3,0,4.1,0.7,5.4,2.1s1.9,3.5,1.9,6.2c0,2.5-0.7,4.5-2.2,6.1c-1.5,1.6-3.3,2.4-5.4,2.4
				c-2.6,0-4.8-1.1-6.4-3.4c-1.6-2.2-2.4-5.5-2.4-9.7c0-2.5,0.3-4.7,0.8-6.6c0.5-1.9,1.3-3.4,2.2-4.5s2-1.9,3.1-2.4
				c1.1-0.5,2.4-0.8,3.7-0.8C432.7,215.2,434.4,215.8,435.9,217z M429.8,240c1.3,0,2.4-0.6,3.2-1.7s1.3-2.6,1.3-4.3
				c0-1.8-0.4-3.3-1.2-4.3c-0.8-1-2-1.5-3.6-1.5c-1.9,0-3.7,1.1-5.2,3.2c-0.1,0.1-0.2,0.3-0.1,0.5c0.2,2.7,0.8,4.7,1.8,6.1
				S428.2,240,429.8,240z"/>
			<path id="XMLID_75_" d="M441.5,242.1c-0.3,0-0.5-0.1-0.7-0.3c-0.2-0.2-0.3-0.4-0.3-0.7c0-0.6,0.2-1.2,0.7-1.6
				c3.9-3.5,6.8-6.5,8.6-9.1c1.8-2.6,2.7-5,2.7-7.2c0-1.6-0.4-2.8-1.2-3.8s-2-1.4-3.6-1.4s-3.1,0.7-4.6,2.1
				c-0.3,0.3-0.6,0.4-0.9,0.4c-0.4,0-0.7-0.1-0.9-0.4c-0.3-0.3-0.4-0.6-0.4-0.9c0-0.4,0.1-0.7,0.4-0.9c2.1-2,4.3-3,6.8-3
				c2.3,0,4.2,0.7,5.6,2.1c1.4,1.4,2.1,3.3,2.1,5.7c0,2.5-0.9,5-2.6,7.6s-4.2,5.5-7.5,8.7c0,0-0.1,0.1,0,0.1c0,0,0.1,0.1,0.1,0.1
				c1.9-0.2,3.3-0.2,4-0.2h5.9c0.4,0,0.7,0.1,1,0.4s0.4,0.6,0.4,1s-0.1,0.7-0.4,1s-0.6,0.4-1,0.4H441.5z"/>
			<path id="XMLID_77_" d="M469,242.5c-2.4,0-4.5-0.7-6-2c-1.6-1.3-2.4-3-2.4-5c0-1.6,0.5-3,1.4-4.3s2.1-2.2,3.4-3
				c0,0,0.1-0.1,0.1-0.1c0-0.1,0-0.1-0.1-0.2c-2.3-1.6-3.5-3.6-3.5-6c0-2,0.7-3.6,2-4.9c1.4-1.2,3.1-1.9,5.2-1.9
				c2.2,0,4,0.6,5.3,1.9c1.3,1.3,2,3,2,5c0,1.2-0.3,2.4-1,3.5c-0.7,1.1-1.5,2-2.4,2.8c0,0-0.1,0.1-0.1,0.2c0,0.1,0,0.1,0.1,0.1
				c2.9,1.7,4.4,4,4.4,6.9c0,1.9-0.8,3.6-2.3,4.9S471.4,242.5,469,242.5z M469,240.1c1.5,0,2.7-0.4,3.7-1.2c0.9-0.8,1.4-1.9,1.4-3.2
				c0-0.7-0.1-1.3-0.4-1.9s-0.6-1-0.9-1.4c-0.4-0.4-0.9-0.8-1.5-1.2c-0.7-0.4-1.3-0.7-1.8-0.9c-0.5-0.2-1.2-0.5-2.1-0.9
				c0,0-0.1,0-0.2,0c-0.1,0-0.2,0-0.3,0.1c-1,0.7-1.9,1.6-2.5,2.5c-0.6,1-0.9,2.1-0.9,3.3c0,1.4,0.5,2.6,1.6,3.5
				C466.1,239.7,467.4,240.1,469,240.1z M470.5,227.7c0.2,0,0.3,0,0.4-0.1c1.7-1.5,2.6-3.3,2.6-5.1c0-1.3-0.4-2.5-1.2-3.4
				c-0.8-0.9-1.9-1.4-3.3-1.4c-1.2,0-2.2,0.4-3,1.2c-0.8,0.8-1.2,1.8-1.2,3.1c0,0.7,0.1,1.4,0.4,2s0.7,1.1,1.3,1.6
				c0.6,0.4,1.2,0.8,1.8,1.1C468.9,227,469.6,227.3,470.5,227.7z"/>
			<path id="XMLID_81_" d="M493.4,236.3c-0.1,0-0.2,0.1-0.2,0.2v1.5c0,0.1,0.1,0.2,0.2,0.2h2.6c0.2,0,0.4,0.1,0.6,0.2
				s0.2,0.3,0.2,0.5s-0.1,0.4-0.2,0.6s-0.3,0.2-0.6,0.2h-2.6c-0.1,0-0.2,0.1-0.2,0.2v3.3c0,0.2-0.1,0.4-0.2,0.6s-0.3,0.2-0.5,0.2
				s-0.4-0.1-0.5-0.2s-0.2-0.3-0.2-0.6v-3.3c0-0.1-0.1-0.2-0.2-0.2h-2.8c-0.2,0-0.4-0.1-0.6-0.2s-0.2-0.3-0.2-0.6s0.1-0.4,0.2-0.5
				s0.3-0.2,0.6-0.2h2.8c0.1,0,0.2-0.1,0.2-0.2v-1.5c0-0.1-0.1-0.2-0.2-0.2h-1.5c-0.4,0-0.7-0.1-1-0.4s-0.4-0.6-0.4-1v-5.7
				c0-0.4,0.1-0.7,0.4-1s0.6-0.4,1-0.4h1.5c0.1,0,0.2-0.1,0.2-0.2v-1.4c0-0.1-0.1-0.2-0.2-0.2h-2.6c-0.2,0-0.4-0.1-0.6-0.2
				s-0.2-0.3-0.2-0.5s0.1-0.4,0.2-0.5s0.3-0.2,0.6-0.2h2.6c0.1,0,0.2-0.1,0.2-0.2v-1.6c0-0.2,0.1-0.4,0.2-0.6s0.3-0.2,0.5-0.2
				s0.4,0.1,0.5,0.2s0.2,0.3,0.2,0.6v1.6c0,0.1,0.1,0.2,0.2,0.2h2.4c0.2,0,0.4,0.1,0.6,0.2s0.2,0.3,0.2,0.5s-0.1,0.4-0.2,0.5
				s-0.3,0.2-0.6,0.2h-2.4c-0.1,0-0.2,0.1-0.2,0.2v1.4c0,0.1,0.1,0.2,0.2,0.2h1.5c0.4,0,0.7,0.1,1,0.4s0.4,0.6,0.4,1v5.7
				c0,0.4-0.1,0.7-0.4,1s-0.6,0.4-1,0.4H493.4z M490.1,229.2c-0.1,0-0.2,0.1-0.2,0.2v1.9c0,0.1,0.1,0.2,0.2,0.2h1.6
				c0.1,0,0.2-0.1,0.2-0.2v-1.9c0-0.1-0.1-0.2-0.2-0.2H490.1z M490.1,232.7c-0.1,0-0.2,0.1-0.2,0.2v1.9c0,0.1,0.1,0.2,0.2,0.2h1.6
				c0.1,0,0.2-0.1,0.2-0.2v-1.9c0-0.1-0.1-0.2-0.2-0.2H490.1z M494.9,231.4c0.1,0,0.2-0.1,0.2-0.2v-1.9c0-0.1-0.1-0.2-0.2-0.2h-1.6
				c-0.1,0-0.2,0.1-0.2,0.2v1.9c0,0.1,0.1,0.2,0.2,0.2H494.9z M494.9,235c0.1,0,0.2-0.1,0.2-0.2v-1.9c0-0.1-0.1-0.2-0.2-0.2h-1.6
				c-0.1,0-0.2,0.1-0.2,0.2v1.9c0,0.1,0.1,0.2,0.2,0.2H494.9z M509.5,224.1c0.2,0.1,0.2,0.3,0.2,0.6s-0.1,0.4-0.2,0.6
				s-0.3,0.2-0.5,0.2h-4.7c-0.1,0-0.2,0.1-0.2,0.2v2c0,0.1,0.1,0.2,0.2,0.2h3.8c0.4,0,0.7,0.1,1,0.4s0.4,0.6,0.4,1V242
				c0,0.4-0.1,0.8-0.2,1s-0.3,0.4-0.6,0.6c-0.4,0.2-1.2,0.3-2.2,0.3c-0.2,0-0.4-0.1-0.6-0.2s-0.3-0.3-0.4-0.6c0-0.2,0-0.3,0.1-0.5
				s0.2-0.2,0.4-0.2c0.4,0,0.7,0,0.9,0c0.3,0,0.5,0,0.7,0c0.1,0,0.2,0,0.3-0.1s0.1-0.2,0.1-0.3v-2.9c0,0,0,0,0,0s0,0,0,0
				c-0.1,0.1-0.3,0.2-0.4,0.1s-0.3-0.1-0.4-0.2c-0.5-0.8-0.8-1.7-1-2.8c0,0,0,0,0,0s0,0,0,0c-0.2,1.1-0.6,1.9-1,2.6
				c-0.1,0.2-0.3,0.3-0.5,0.3s-0.4-0.1-0.6-0.2c0,0,0,0-0.1,0s0,0,0,0.1v4.2c0,0.2-0.1,0.3-0.2,0.4s-0.3,0.2-0.4,0.2
				s-0.3-0.1-0.4-0.2s-0.2-0.3-0.2-0.4v-4.2c0-0.1,0-0.1-0.1,0c-0.2,0.1-0.4,0.2-0.6,0.2s-0.4-0.2-0.4-0.3c-0.3-0.6-0.5-1.4-0.7-2.2
				c0,0,0,0,0,0s0,0,0,0c-0.2,1.1-0.6,2-1,2.7c-0.1,0.1-0.2,0.2-0.3,0.2s-0.2-0.1-0.3-0.2c-0.1-0.2-0.2-0.3-0.2-0.5
				c0-0.1,0-0.3,0.1-0.4c0.7-1.1,1.1-2.9,1.4-5.5c0-0.1,0-0.1-0.1-0.1H500c-0.2,0-0.3-0.1-0.4-0.2s-0.2-0.3-0.2-0.4s0.1-0.3,0.2-0.4
				s0.2-0.2,0.4-0.2h0.5c0.3,0,0.5,0.1,0.7,0.3s0.3,0.5,0.3,0.8c0,2.6,0.4,4.6,1.1,5.9c0,0,0,0,0.1,0s0,0,0,0v-8.8
				c0-0.1-0.1-0.2-0.2-0.2h-3.7c-0.1,0-0.2,0.1-0.2,0.2v13.7c0,0.2-0.1,0.3-0.2,0.5s-0.3,0.2-0.5,0.2s-0.4-0.1-0.5-0.2
				s-0.2-0.3-0.2-0.5v-14c0-0.4,0.1-0.7,0.4-1s0.6-0.4,1-0.4h3.6c0.1,0,0.2-0.1,0.2-0.2v-2c0-0.1-0.1-0.2-0.2-0.2h-4.5
				c-0.2,0-0.4-0.1-0.5-0.2s-0.2-0.3-0.2-0.6s0.1-0.4,0.2-0.6s0.3-0.2,0.5-0.2H509C509.2,223.9,509.3,224,509.5,224.1z M507.9,238.2
				C507.9,238.2,507.9,238.2,507.9,238.2C508,238.2,508,238.2,507.9,238.2l0.1-8.7c0-0.1-0.1-0.2-0.2-0.2h-3.8
				c-0.1,0-0.2,0.1-0.2,0.2v8.9c0,0,0,0.1,0,0.1s0.1,0,0.1,0c0.8-1,1.3-2.9,1.6-5.8c0-0.1,0-0.1-0.1-0.1h-0.4
				c-0.2,0-0.3-0.1-0.4-0.2s-0.2-0.3-0.2-0.4s0.1-0.3,0.2-0.4s0.2-0.2,0.4-0.2h0.5c0.3,0,0.6,0.1,0.8,0.3s0.3,0.5,0.3,0.8
				c0,1.2,0.1,2.2,0.3,3.2S507.4,237.5,507.9,238.2z"/>
		</g>
		<g id="XMLID_482_">
			<line id="XMLID_484_" class="st1" x1="159" y1="230.7" x2="204" y2="230.7"/>
			<line id="XMLID_483_" class="st1" x1="228" y1="230.7" x2="255" y2="230.7"/>
		</g>
	</g>
	<g id="XMLID_747_" class="st11">
		<path id="XMLID_771_" class="st17" d="M371,216.7c-3.9-2.4-16.5-5.5-34.2-5.5l-9.4-10.9c-2-2.3-4.8-3.6-7.9-3.6h-28
			c-3,0-5.9,1.1-8.1,3l-11,9.5l-11.8,1.7c-1.7,0.2-3,1.5-3.4,3.1l-1.4,5.6l31.1,14.5h87.2v-11.7C374.2,220.1,373,217.9,371,216.7z"
			/>
		<path id="XMLID_770_" class="st18" d="M374.2,223.7c0-4.2-6.2-8.3-35.3-8.3h-80.9c-1.2,0-2.1,0.9-2.1,2.1v12.5l39.4,6.2h78.9
			L374.2,223.7L374.2,223.7z"/>
		<path id="XMLID_769_" class="st19" d="M374.2,232h-97.3l-18.5-4.1c-1.1-0.2-2.2,0.4-2.5,1.6c-0.3,1.1,0.4,2.2,1.6,2.5l18.7,4.2
			c0.1,0,0.3,0,0.4,0h97.5c1.2,0,2.1-0.9,2.1-2.1C376.2,232.9,375.3,232,374.2,232z"/>
		<circle id="XMLID_768_" class="st9" cx="355.5" cy="232" r="10.4"/>
		<path id="XMLID_765_" class="st4" d="M355.5,244.5c-6.9,0-12.5-5.6-12.5-12.5s5.6-12.5,12.5-12.5c6.9,0,12.5,5.6,12.5,12.5
			S362.3,244.5,355.5,244.5z M355.5,223.7c-4.6,0-8.3,3.7-8.3,8.3s3.7,8.3,8.3,8.3c4.6,0,8.3-3.7,8.3-8.3
			C363.8,227.4,360.1,223.7,355.5,223.7z"/>
		<circle id="XMLID_764_" class="st5" cx="355.5" cy="232" r="4.2"/>
		<circle id="XMLID_763_" class="st9" cx="276.6" cy="232" r="10.4"/>
		<path id="XMLID_760_" class="st4" d="M276.6,244.5c-6.9,0-12.5-5.6-12.5-12.5s5.6-12.5,12.5-12.5c6.9,0,12.5,5.6,12.5,12.5
			C289,238.9,283.5,244.5,276.6,244.5z M276.6,223.7c-4.6,0-8.3,3.7-8.3,8.3s3.7,8.3,8.3,8.3c4.6,0,8.3-3.7,8.3-8.3
			C284.9,227.4,281.2,223.7,276.6,223.7z"/>
		<circle id="XMLID_759_" class="st5" cx="276.6" cy="232" r="4.2"/>
		<g id="XMLID_756_">
			<path id="XMLID_758_" class="st19" d="M338.9,227.9h-43.6c-1.2,0-2.1-0.9-2.1-2.1l0,0c0-1.2,0.9-2.1,2.1-2.1h43.6
				c1.2,0,2.1,0.9,2.1,2.1l0,0C340.9,226.9,340,227.9,338.9,227.9z"/>
			<path id="XMLID_757_" class="st19" d="M374.2,227.9h-2.1c-1.2,0-2.1-0.9-2.1-2.1l0,0c0-1.2,0.9-2.1,2.1-2.1h2.1
				c1.2,0,2.1,0.9,2.1,2.1l0,0C376.2,226.9,375.3,227.9,374.2,227.9z"/>
		</g>
		<path id="XMLID_755_" class="st18" d="M272.4,209.2l11-9.5c2.3-1.9,5.1-3,8.1-3h28c3,0,5.9,1.3,7.9,3.6l9.4,10.9h-49.1
			c-1.8,0-3.6-0.1-5.5-0.4L272.4,209.2z"/>
		<path id="XMLID_754_" class="st8" d="M317.3,200.3c-0.8-0.9-2-1.5-3.2-1.5h-19.2c-1.1,0-2.2,0.4-2.9,1.2l-6.2,6.2
			c-0.5,0.5-0.9,1.3-0.9,2.1l0,0c0,1.6,1.3,2.9,2.9,2.9h36.3c0.9,0,1.4-1,0.8-1.7L317.3,200.3z"/>
		<polygon id="XMLID_753_" class="st4" points="299.4,211.3 293.2,211.3 297.4,198.8 301.5,198.8 		"/>
		<path id="XMLID_752_" class="st9" d="M371.9,217.5H370c-1.2,0-2.1,0.9-2.1,2.1c0,1.1,0.9,2.1,2.1,2.1h4.1
			C373.9,220,373.1,218.5,371.9,217.5z"/>
		<path id="XMLID_751_" class="st8" d="M327.4,200.4c-0.5-0.6-1.1-1.1-1.6-1.6h-3.4c-0.9,0-1.4,1-0.8,1.7l7.7,9.3
			c0.8,0.9,2,1.5,3.2,1.5h4.3L327.4,200.4z"/>
		<path id="XMLID_750_" class="st16" d="M255.9,217.5v2.1h4.2c1.2,0,2.1-0.9,2.1-2.1c0-1.1-0.9-2.1-2.1-2.1h-2.1
			C256.8,215.4,255.9,216.3,255.9,217.5z"/>
		<path id="XMLID_749_" class="st19" d="M314.3,195.4h-15.4c-1.6,0-2.8-1.3-2.8-2.8v-0.2c0-1.6,1.3-2.8,2.8-2.8h15.4
			c1.6,0,2.8,1.3,2.8,2.8v0.2C317.1,194.2,315.8,195.4,314.3,195.4z"/>

			<text id="XMLID_748_" transform="matrix(1 0 0 1 300.9912 194.026)" class="st4" style="font-family:'ArialRoundedMTBold'; font-size:4.2319px;">TAXI</text>
	</g>
</g>
<g id="XMLID_169_" class="st10">
	<g id="XMLID_1148_" class="st11">
		<rect id="XMLID_863_" x="147.2" y="378.8" class="st0" width="54.2" height="22.4"/>
		<g id="XMLID_149_">
			<path id="XMLID_150_" d="M79.2,386.1c0-0.3,0.2-0.5,0.4-0.6c0.2-0.1,0.3-0.1,0.5-0.1c0.1,0,0.1,0,0.2,0c0.2,0.1,0.4,0.2,0.6,0.4
				c0.1,0.1,0.1,0.3,0.1,0.5c0,0.1,0,0.1,0,0.2c-0.8,3.4-1.9,6-3.2,7.9c-0.1,0.2-0.3,0.3-0.6,0.4c-0.1,0-0.1,0-0.2,0
				c-0.2,0-0.4,0-0.5-0.1c-0.2-0.1-0.3-0.3-0.4-0.5c0-0.1,0-0.1,0-0.2c0-0.2,0-0.3,0.1-0.4c0.7-0.9,1.3-2.1,1.8-3.4
				C78.5,388.8,78.9,387.5,79.2,386.1z M85.1,381c0-0.2,0.1-0.4,0.3-0.6s0.4-0.3,0.6-0.3c0.2,0,0.4,0.1,0.6,0.3s0.3,0.4,0.3,0.6
				v16.5c0,0.6-0.1,1-0.3,1.3c-0.2,0.3-0.4,0.5-0.8,0.7c-0.6,0.2-1.7,0.3-3.3,0.3c-0.3,0-0.5-0.1-0.7-0.2c-0.2-0.2-0.4-0.4-0.5-0.6
				c-0.1-0.2-0.1-0.4,0.1-0.6c0.1-0.2,0.3-0.3,0.5-0.3c0.5,0,0.9,0,1.3,0c0.5,0,0.9,0,1.3,0c0.4,0,0.6-0.2,0.6-0.6V381z M90.7,386.3
				c-0.1-0.2-0.1-0.4,0-0.6s0.2-0.3,0.4-0.4c0.1-0.1,0.2-0.1,0.3-0.1c0.1,0,0.2,0,0.3,0.1c0.2,0.1,0.4,0.2,0.5,0.4
				c0.8,1.4,1.6,2.8,2.2,4.3c0.6,1.4,1.1,2.6,1.4,3.7c0,0.1,0,0.2,0,0.3c0,0.2,0,0.3-0.1,0.5c-0.1,0.2-0.3,0.4-0.6,0.5
				c-0.1,0-0.2,0.1-0.3,0.1c-0.1,0-0.2,0-0.4-0.1c-0.2-0.1-0.3-0.3-0.4-0.5c-0.3-1.1-0.7-2.4-1.3-3.8
				C92.2,389.2,91.5,387.7,90.7,386.3z"/>
			<path id="XMLID_154_" d="M103.1,387.2c-0.1,0.2-0.3,0.2-0.5,0.2c-0.2,0-0.4-0.1-0.5-0.2c-0.1-0.2-0.2-0.3-0.2-0.6v-2.4
				c0,0,0-0.1-0.1-0.1c0,0-0.1,0-0.1,0c-0.7,0.5-1.4,0.9-2.1,1.3c-0.2,0.1-0.3,0.1-0.5,0.1c-0.1,0-0.1,0-0.2,0
				c-0.2,0-0.5-0.2-0.6-0.3c-0.1-0.1-0.2-0.2-0.2-0.4c0-0.2,0.1-0.4,0.3-0.5c2.1-1,3.8-2.2,5.1-3.5c0.3-0.3,0.5-0.4,0.8-0.4
				c0.1,0,0.3,0,0.4,0.1c0.2,0.1,0.3,0.2,0.3,0.4c0,0.2,0,0.3-0.1,0.5c-0.4,0.5-0.9,0.9-1.5,1.4c-0.1,0.1-0.1,0.2-0.1,0.3v3.6
				C103.3,386.8,103.3,387,103.1,387.2z M103.7,397.4c0.3-0.1,0.5-0.2,0.8-0.2s0.5,0.1,0.7,0.2c0.2,0.1,0.2,0.2,0.2,0.4
				s-0.1,0.3-0.2,0.4c-1.5,0.7-3.2,1.4-5.1,2c-0.1,0-0.3,0.1-0.4,0.1c-0.4,0-0.7-0.2-1-0.5c-0.1-0.1-0.1-0.2-0.1-0.3
				c0,0,0-0.1,0-0.1c0-0.2,0.2-0.3,0.3-0.3C100.8,398.5,102.4,397.9,103.7,397.4z M102,396.8c-0.3,0-0.6-0.1-0.9-0.4
				c-0.2-0.2-0.4-0.5-0.4-0.9v-6.3c0-0.3,0.1-0.6,0.4-0.9c0.2-0.2,0.5-0.4,0.9-0.4h11.6c0.3,0,0.6,0.1,0.9,0.4
				c0.2,0.2,0.4,0.5,0.4,0.9v6.3c0,0.3-0.1,0.6-0.4,0.9c-0.2,0.2-0.5,0.4-0.9,0.4H102z M102.5,389.1c-0.1,0-0.2,0.1-0.2,0.1v1.2
				c0,0.1,0.1,0.1,0.2,0.1h10.6c0.1,0,0.1,0,0.1-0.1v-1.2c0-0.1,0-0.1-0.1-0.1H102.5z M102.5,391.6c-0.1,0-0.2,0.1-0.2,0.2v1.2
				c0,0.1,0.1,0.2,0.2,0.2h10.6c0.1,0,0.1-0.1,0.1-0.2v-1.2c0-0.1,0-0.2-0.1-0.2H102.5z M102.5,394.2c-0.1,0-0.2,0.1-0.2,0.2v1.2
				c0,0.1,0.1,0.2,0.2,0.2h10.6c0.1,0,0.1-0.1,0.1-0.2v-1.2c0-0.1,0-0.2-0.1-0.2H102.5z M114.8,387.1H110c-1.2,0-2-0.1-2.4-0.4
				c-0.4-0.3-0.6-0.8-0.6-1.7v-3.7c0-0.2,0.1-0.4,0.2-0.5s0.3-0.2,0.6-0.2c0.2,0,0.4,0.1,0.5,0.2c0.1,0.1,0.2,0.3,0.2,0.5v1.3
				c0,0.1,0,0.2,0.1,0.1c2.2-0.4,4-0.9,5.4-1.3c0.2-0.1,0.4-0.1,0.5-0.1c0.3,0,0.6,0.1,0.9,0.3c0.1,0.1,0.2,0.3,0.1,0.5
				c0,0.2-0.1,0.3-0.3,0.4c-1.8,0.6-4,1.1-6.6,1.5c-0.1,0-0.1,0.1-0.1,0.2v0.9c0,0.3,0.1,0.5,0.3,0.6c0.2,0.1,0.6,0.1,1.3,0.1h4.6
				c0.4,0,0.7-0.1,0.8-0.2c0.2-0.1,0.3-0.4,0.3-0.9c0-0.2,0.1-0.3,0.3-0.4c0.2-0.1,0.3-0.1,0.5,0c0.2,0.1,0.4,0.2,0.5,0.4
				c0.1,0.1,0.1,0.3,0.1,0.4c0,0.1,0,0.1,0,0.1c-0.1,0.8-0.4,1.3-0.7,1.5C116.2,386.9,115.6,387.1,114.8,387.1z M110.3,398.2
				c-0.2-0.1-0.3-0.2-0.3-0.4c0-0.1,0.1-0.2,0.2-0.3c0.3-0.2,0.6-0.3,0.9-0.3c0.2,0,0.3,0,0.5,0.1c1.9,0.6,3.6,1.2,4.9,1.8
				c0.2,0.1,0.3,0.2,0.3,0.4c0,0.2-0.1,0.3-0.3,0.4c-0.3,0.1-0.6,0.2-0.9,0.2c-0.3,0-0.6-0.1-0.9-0.2
				C113.5,399.3,112,398.7,110.3,398.2z"/>
			<path id="XMLID_163_" d="M138.7,395.1c0.2,0,0.4,0.1,0.5,0.2c0.1,0.1,0.2,0.3,0.2,0.5s-0.1,0.4-0.2,0.5c-0.1,0.1-0.3,0.2-0.5,0.2
				h-8.1c-0.1,0-0.2,0.1-0.2,0.2v2.3c0,0.2-0.1,0.4-0.2,0.6s-0.4,0.2-0.6,0.2s-0.4-0.1-0.6-0.2c-0.2-0.2-0.2-0.4-0.2-0.6v-2.3
				c0-0.1-0.1-0.2-0.1-0.2h-8c-0.2,0-0.4-0.1-0.5-0.2s-0.2-0.3-0.2-0.5s0.1-0.4,0.2-0.5s0.3-0.2,0.5-0.2h8c0.1,0,0.1-0.1,0.1-0.2
				v-1.5c0-0.1-0.1-0.2-0.1-0.2h-5.1c-0.3,0-0.6-0.1-0.9-0.4c-0.2-0.2-0.4-0.5-0.4-0.9v-6c0-0.3,0.1-0.6,0.4-0.9
				c0.2-0.2,0.5-0.4,0.9-0.4h5.1c0.1,0,0.1,0,0.1-0.1v-1.3c0-0.1-0.1-0.1-0.1-0.1h-7.3c-0.2,0-0.4-0.1-0.5-0.2
				c-0.1-0.2-0.2-0.3-0.2-0.5s0.1-0.4,0.2-0.5c0.1-0.1,0.3-0.2,0.5-0.2h7.3c0.1,0,0.1,0,0.1-0.1v-1c0-0.2,0.1-0.4,0.2-0.6
				c0.2-0.2,0.4-0.2,0.6-0.2s0.4,0.1,0.6,0.2c0.2,0.2,0.2,0.4,0.2,0.6v1c0,0.1,0.1,0.1,0.2,0.1h7.4c0.2,0,0.4,0.1,0.5,0.2
				c0.1,0.1,0.2,0.3,0.2,0.5s-0.1,0.4-0.2,0.5c-0.1,0.1-0.3,0.2-0.5,0.2h-7.4c-0.1,0-0.2,0.1-0.2,0.1v1.3c0,0.1,0.1,0.1,0.2,0.1h5.3
				c0.3,0,0.6,0.1,0.9,0.4s0.4,0.5,0.4,0.9v6c0,0.3-0.1,0.6-0.4,0.9s-0.5,0.4-0.9,0.4h-5.3c-0.1,0-0.2,0.1-0.2,0.2v1.5
				c0,0.1,0.1,0.2,0.2,0.2H138.7z M123.8,386.2c-0.1,0-0.1,0-0.1,0.1v1.9c0,0.1,0,0.1,0.1,0.1h4.7c0.1,0,0.1,0,0.1-0.1v-1.9
				c0-0.1-0.1-0.1-0.1-0.1H123.8z M123.7,391.8c0,0.1,0,0.1,0.1,0.1h4.7c0.1,0,0.1,0,0.1-0.1v-1.9c0-0.1-0.1-0.2-0.1-0.2h-4.7
				c-0.1,0-0.1,0.1-0.1,0.2V391.8z M135.4,386.4c0-0.1-0.1-0.1-0.1-0.1h-4.8c-0.1,0-0.2,0-0.2,0.1v1.9c0,0.1,0.1,0.1,0.2,0.1h4.8
				c0.1,0,0.1,0,0.1-0.1V386.4z M135.3,392c0.1,0,0.1,0,0.1-0.1v-1.9c0-0.1-0.1-0.2-0.1-0.2h-4.8c-0.1,0-0.2,0.1-0.2,0.2v1.9
				c0,0.1,0.1,0.1,0.2,0.1H135.3z"/>
		</g>
		<g id="XMLID_130_">
			<path id="XMLID_131_" d="M341.3,401.6c-0.4,0-0.7-0.1-1-0.4s-0.4-0.6-0.4-1s0.1-0.7,0.4-1s0.6-0.4,1-0.4h4.3
				c0.2,0,0.2-0.1,0.2-0.2v-19.2c0-0.2-0.1-0.3-0.2-0.3h-3.4c-0.3,0-0.6-0.1-0.8-0.3s-0.3-0.5-0.3-0.8c0-0.3,0.1-0.5,0.3-0.8
				s0.4-0.4,0.7-0.5c1.2-0.3,2.4-0.6,3.3-1.1c0.8-0.4,1.6-0.6,2.4-0.6c0.4,0,0.7,0.1,0.9,0.4s0.4,0.5,0.4,0.9v22.1
				c0,0.2,0.1,0.2,0.3,0.2h3.7c0.4,0,0.7,0.1,1,0.4s0.4,0.6,0.4,1s-0.1,0.7-0.4,1s-0.6,0.4-1,0.4H341.3z"/>
			<path id="XMLID_133_" d="M366.2,402c-2.8,0-5.3-0.9-7.4-2.6c-0.3-0.3-0.5-0.6-0.5-1.1c0-0.3,0.1-0.6,0.3-0.9s0.5-0.4,0.8-0.5
				s0.7,0.1,0.9,0.3c1.6,1.3,3.4,2,5.5,2c1.6,0,2.9-0.6,4-1.7s1.6-2.6,1.6-4.5s-0.5-3.3-1.5-4.4s-2.3-1.6-4-1.6
				c-1.2,0-2.4,0.3-3.5,1c-0.3,0.2-0.6,0.2-0.9,0.2c-0.3,0-0.6-0.1-0.8-0.2c-0.6-0.4-0.9-0.9-0.8-1.6l0.6-9.2c0-0.6,0.3-1.1,0.7-1.5
				s0.9-0.6,1.5-0.6h9.4c0.4,0,0.7,0.1,1,0.4s0.4,0.6,0.4,1s-0.1,0.7-0.4,1s-0.6,0.4-1,0.4h-8.3c-0.2,0-0.3,0.1-0.3,0.3l-0.6,7.1
				c0,0,0,0.1,0.1,0.1s0.1,0,0.1,0c1.1-0.6,2.4-0.9,3.7-0.9c2.3,0,4.2,0.7,5.7,2.1s2.2,3.5,2.2,6.3c0,1.9-0.4,3.5-1.2,4.9
				s-1.9,2.4-3.2,3.1S367.7,402,366.2,402z"/>
			<path id="XMLID_135_" d="M386.8,402c-2.6,0-4.6-1.2-6.1-3.5s-2.2-5.7-2.2-10.2c0-4.5,0.7-7.9,2.2-10.2s3.5-3.4,6.1-3.4
				c2.6,0,4.6,1.1,6,3.4s2.2,5.7,2.2,10.2c0,4.5-0.7,7.9-2.2,10.2S389.3,402,386.8,402z M386.8,399.4c1.5,0,2.8-0.9,3.7-2.8
				s1.3-4.6,1.3-8.4c0-3.7-0.4-6.5-1.3-8.2s-2.1-2.7-3.7-2.7c-1.6,0-2.8,0.9-3.7,2.7s-1.3,4.5-1.3,8.2c0,3.8,0.4,6.5,1.3,8.4
				S385.2,399.4,386.8,399.4z"/>
			<path id="XMLID_138_" d="M413.6,376.5c0.3,0.3,0.4,0.6,0.4,1s-0.1,0.7-0.4,1c-0.2,0.3-0.5,0.4-0.9,0.4s-0.7-0.1-1-0.3
				c-1-0.7-2.1-1.1-3.3-1.1c-2,0-3.6,0.8-4.8,2.5s-1.9,4.4-2,8.2c0,0,0,0.1,0,0.1s0.1,0,0.1,0c0.8-0.9,1.7-1.7,2.8-2.2
				s2.1-0.8,3.1-0.8c2.3,0,4.1,0.7,5.4,2.1s1.9,3.5,1.9,6.2c0,2.5-0.7,4.5-2.2,6.1s-3.3,2.4-5.4,2.4c-2.6,0-4.8-1.1-6.4-3.4
				s-2.4-5.5-2.4-9.7c0-2.5,0.3-4.7,0.8-6.6s1.3-3.4,2.2-4.5s2-1.9,3.1-2.4s2.4-0.8,3.7-0.8C410.5,374.7,412.2,375.3,413.6,376.5z
				 M407.5,399.5c1.3,0,2.4-0.6,3.2-1.7s1.3-2.6,1.3-4.3c0-1.8-0.4-3.3-1.2-4.3s-2-1.5-3.6-1.5c-1.9,0-3.7,1.1-5.2,3.2
				c-0.1,0.1-0.2,0.3-0.1,0.5c0.2,2.7,0.8,4.7,1.8,6.1S405.9,399.5,407.5,399.5z"/>
			<path id="XMLID_141_" d="M431.2,395.8c-0.1,0-0.2,0.1-0.2,0.2v1.5c0,0.1,0.1,0.2,0.2,0.2h2.6c0.2,0,0.4,0.1,0.6,0.2
				s0.2,0.3,0.2,0.5s-0.1,0.4-0.2,0.6s-0.3,0.2-0.6,0.2h-2.6c-0.1,0-0.2,0.1-0.2,0.2v3.3c0,0.2-0.1,0.4-0.2,0.6s-0.3,0.2-0.5,0.2
				s-0.4-0.1-0.5-0.2s-0.2-0.3-0.2-0.6v-3.3c0-0.1-0.1-0.2-0.2-0.2h-2.8c-0.2,0-0.4-0.1-0.6-0.2s-0.2-0.3-0.2-0.6s0.1-0.4,0.2-0.5
				s0.3-0.2,0.6-0.2h2.8c0.1,0,0.2-0.1,0.2-0.2V396c0-0.1-0.1-0.2-0.2-0.2h-1.5c-0.4,0-0.7-0.1-1-0.4s-0.4-0.6-0.4-1v-5.7
				c0-0.4,0.1-0.7,0.4-1s0.6-0.4,1-0.4h1.5c0.1,0,0.2-0.1,0.2-0.2v-1.4c0-0.1-0.1-0.2-0.2-0.2h-2.6c-0.2,0-0.4-0.1-0.6-0.2
				s-0.2-0.3-0.2-0.5s0.1-0.4,0.2-0.5s0.3-0.2,0.6-0.2h2.6c0.1,0,0.2-0.1,0.2-0.2v-1.6c0-0.2,0.1-0.4,0.2-0.6s0.3-0.2,0.5-0.2
				s0.4,0.1,0.5,0.2s0.2,0.3,0.2,0.6v1.6c0,0.1,0.1,0.2,0.2,0.2h2.4c0.2,0,0.4,0.1,0.6,0.2s0.2,0.3,0.2,0.5s-0.1,0.4-0.2,0.5
				s-0.3,0.2-0.6,0.2h-2.4c-0.1,0-0.2,0.1-0.2,0.2v1.4c0,0.1,0.1,0.2,0.2,0.2h1.5c0.4,0,0.7,0.1,1,0.4s0.4,0.6,0.4,1v5.7
				c0,0.4-0.1,0.7-0.4,1s-0.6,0.4-1,0.4H431.2z M427.9,388.7c-0.1,0-0.2,0.1-0.2,0.2v1.9c0,0.1,0.1,0.2,0.2,0.2h1.6
				c0.1,0,0.2-0.1,0.2-0.2v-1.9c0-0.1-0.1-0.2-0.2-0.2H427.9z M427.9,392.2c-0.1,0-0.2,0.1-0.2,0.2v1.9c0,0.1,0.1,0.2,0.2,0.2h1.6
				c0.1,0,0.2-0.1,0.2-0.2v-1.9c0-0.1-0.1-0.2-0.2-0.2H427.9z M432.7,390.9c0.1,0,0.2-0.1,0.2-0.2v-1.9c0-0.1-0.1-0.2-0.2-0.2h-1.6
				c-0.1,0-0.2,0.1-0.2,0.2v1.9c0,0.1,0.1,0.2,0.2,0.2H432.7z M432.7,394.5c0.1,0,0.2-0.1,0.2-0.2v-1.9c0-0.1-0.1-0.2-0.2-0.2h-1.6
				c-0.1,0-0.2,0.1-0.2,0.2v1.9c0,0.1,0.1,0.2,0.2,0.2H432.7z M447.3,383.6c0.2,0.1,0.2,0.3,0.2,0.6s-0.1,0.4-0.2,0.6
				s-0.3,0.2-0.5,0.2h-4.7c-0.1,0-0.2,0.1-0.2,0.2v2c0,0.1,0.1,0.2,0.2,0.2h3.8c0.4,0,0.7,0.1,1,0.4s0.4,0.6,0.4,1v12.8
				c0,0.4-0.1,0.8-0.2,1s-0.3,0.4-0.6,0.6c-0.4,0.2-1.2,0.3-2.2,0.3c-0.2,0-0.4-0.1-0.6-0.2s-0.3-0.3-0.4-0.6c0-0.2,0-0.3,0.1-0.5
				s0.2-0.2,0.4-0.2c0.4,0,0.7,0,0.9,0c0.3,0,0.5,0,0.7,0c0.1,0,0.2,0,0.3-0.1s0.1-0.2,0.1-0.3v-2.9c0,0,0,0,0,0s0,0,0,0
				c-0.1,0.1-0.3,0.2-0.4,0.1s-0.3-0.1-0.4-0.2c-0.5-0.8-0.8-1.7-1-2.8c0,0,0,0,0,0s0,0,0,0c-0.2,1.1-0.6,1.9-1,2.6
				c-0.1,0.2-0.3,0.3-0.5,0.3s-0.4-0.1-0.6-0.2c0,0,0,0-0.1,0s0,0,0,0.1v4.2c0,0.2-0.1,0.3-0.2,0.4s-0.3,0.2-0.4,0.2
				s-0.3-0.1-0.4-0.2s-0.2-0.3-0.2-0.4v-4.2c0-0.1,0-0.1-0.1,0c-0.2,0.1-0.4,0.2-0.6,0.2s-0.4-0.2-0.4-0.3c-0.3-0.6-0.5-1.4-0.7-2.2
				c0,0,0,0,0,0s0,0,0,0c-0.2,1.1-0.6,2-1,2.7c-0.1,0.1-0.2,0.2-0.3,0.2s-0.2-0.1-0.3-0.2c-0.1-0.2-0.2-0.3-0.2-0.5
				c0-0.1,0-0.3,0.1-0.4c0.7-1.1,1.1-2.9,1.4-5.5c0-0.1,0-0.1-0.1-0.1h-0.4c-0.2,0-0.3-0.1-0.4-0.2s-0.2-0.3-0.2-0.4
				s0.1-0.3,0.2-0.4s0.2-0.2,0.4-0.2h0.5c0.3,0,0.5,0.1,0.7,0.3s0.3,0.5,0.3,0.8c0,2.6,0.4,4.6,1.1,5.9c0,0,0,0,0.1,0s0,0,0,0V389
				c0-0.1-0.1-0.2-0.2-0.2h-3.7c-0.1,0-0.2,0.1-0.2,0.2v13.7c0,0.2-0.1,0.3-0.2,0.5s-0.3,0.2-0.5,0.2s-0.4-0.1-0.5-0.2
				s-0.2-0.3-0.2-0.5v-14c0-0.4,0.1-0.7,0.4-1s0.6-0.4,1-0.4h3.6c0.1,0,0.2-0.1,0.2-0.2v-2c0-0.1-0.1-0.2-0.2-0.2h-4.5
				c-0.2,0-0.4-0.1-0.5-0.2s-0.2-0.3-0.2-0.6s0.1-0.4,0.2-0.6s0.3-0.2,0.5-0.2h11.1C447,383.4,447.1,383.5,447.3,383.6z
				 M445.7,397.7C445.7,397.7,445.7,397.7,445.7,397.7C445.8,397.7,445.8,397.7,445.7,397.7l0.1-8.7c0-0.1-0.1-0.2-0.2-0.2h-3.8
				c-0.1,0-0.2,0.1-0.2,0.2v8.9c0,0,0,0.1,0,0.1s0.1,0,0.1,0c0.8-1,1.3-2.9,1.6-5.8c0-0.1,0-0.1-0.1-0.1h-0.4
				c-0.2,0-0.3-0.1-0.4-0.2s-0.2-0.3-0.2-0.4s0.1-0.3,0.2-0.4s0.2-0.2,0.4-0.2h0.5c0.3,0,0.6,0.1,0.8,0.3s0.3,0.5,0.3,0.8
				c0,1.2,0.1,2.2,0.3,3.2S445.2,397,445.7,397.7z"/>
		</g>
		<g id="XMLID_478_">
			<line id="XMLID_479_" class="st1" x1="159" y1="389.7" x2="200" y2="389.7"/>
		</g>
	</g>
	<g id="XMLID_711_" class="st11">
		<path id="XMLID_746_" class="st8" d="M291.1,377.5h-20.2v6.1h-66.6c-1.1,0-2,0.9-2,2v4c0,1.1,0.9,2,2,2h86.8L291.1,377.5
			L291.1,377.5z"/>
		<path id="XMLID_745_" class="st5" d="M272.9,335.1h-74.7c-1.1,0-2,0.9-2,2v44.4c0,1.1,0.9,2,2,2h74.7c1.1,0,2-0.9,2-2v-44.4
			C274.9,336,274,335.1,272.9,335.1z"/>
		<g id="XMLID_742_">
			<path id="XMLID_744_" class="st2" d="M268.9,379.5h-66.6c-1.1,0-2-0.9-2-2l0,0c0-1.1,0.9-2,2-2h66.6c1.1,0,2,0.9,2,2l0,0
				C270.9,378.6,270,379.5,268.9,379.5z"/>
			<path id="XMLID_743_" class="st2" d="M268.9,343.1h-66.6c-1.1,0-2-0.9-2-2l0,0c0-1.1,0.9-2,2-2h66.6c1.1,0,2,0.9,2,2l0,0
				C270.9,342.2,270,343.1,268.9,343.1z"/>
		</g>
		<path id="XMLID_741_" class="st7" d="M298.4,345.2H281c-1.1,0-2,0.9-2,2v30.3c0,1.1,0.9,2,2,2h9.1v10.1h21.2v-14.4
			c0-2.5-0.5-4.9-1.3-7.2l-7.8-20.2C301.6,346.2,300.1,345.2,298.4,345.2z"/>
		<rect id="XMLID_740_" x="290.1" y="379.5" class="st6" width="21.2" height="10.1"/>
		<circle id="XMLID_739_" class="st9" cx="219.4" cy="390.6" r="9.3"/>
		<path id="XMLID_736_" class="st4" d="M219.4,401.7c-6.1,0-11.1-5-11.1-11.1c0-6.1,5-11.1,11.1-11.1s11.1,5,11.1,11.1
			C230.5,396.7,225.5,401.7,219.4,401.7z M219.4,383.5c-3.9,0-7.1,3.2-7.1,7.1c0,3.9,3.2,7.1,7.1,7.1c3.9,0,7.1-3.2,7.1-7.1
			C226.5,386.7,223.3,383.5,219.4,383.5z"/>
		<circle id="XMLID_735_" class="st5" cx="219.4" cy="390.6" r="4"/>
		<circle id="XMLID_734_" class="st9" cx="290.1" cy="390.6" r="9.3"/>
		<path id="XMLID_731_" class="st4" d="M290.1,401.7c-6.1,0-11.1-5-11.1-11.1c0-6.1,5-11.1,11.1-11.1c6.1,0,11.1,5,11.1,11.1
			C301.2,396.7,296.2,401.7,290.1,401.7z M290.1,383.5c-3.9,0-7.1,3.2-7.1,7.1c0,3.9,3.2,7.1,7.1,7.1c3.9,0,7.1-3.2,7.1-7.1
			C297.1,386.7,294,383.5,290.1,383.5z"/>
		<circle id="XMLID_730_" class="st5" cx="290.1" cy="390.6" r="4"/>
		<path id="XMLID_729_" class="st8" d="M309.2,391.6h2c1.1,0,2-0.9,2-2v-4c0-1.1-0.9-2-2-2h-2c-1.1,0-2,0.9-2,2v4
			C307.2,390.7,308.1,391.6,309.2,391.6z"/>
		<path id="XMLID_728_" class="st9" d="M309.2,375.4h2v6.1h-2c-1.1,0-2-0.9-2-2v-2C307.2,376.3,308.1,375.4,309.2,375.4z"/>
		<path id="XMLID_727_" class="st8" d="M297.8,349.2H285c-1.1,0-2,0.9-2,2v10.1c0,1.1,0.9,2,2,2h18.9c1,0,1.7-1,1.4-2l-3.7-9.6
			C301,350.2,299.5,349.2,297.8,349.2z"/>
		<g id="XMLID_726_">
		</g>
		<g id="XMLID_725_">
		</g>
		<g id="XMLID_724_">
		</g>
		<g id="XMLID_723_">
		</g>
		<g id="XMLID_722_">
		</g>
		<g id="XMLID_721_">
		</g>
		<g id="XMLID_720_">
		</g>
		<g id="XMLID_719_">
		</g>
		<g id="XMLID_718_">
		</g>
		<g id="XMLID_717_">
		</g>
		<g id="XMLID_716_">
		</g>
		<g id="XMLID_715_">
		</g>
		<g id="XMLID_714_">
		</g>
		<g id="XMLID_713_">
		</g>
		<g id="XMLID_712_">
		</g>
	</g>
</g>
<g id="XMLID_210_" class="st10">
	<g id="XMLID_1149_" class="st11">
		<rect id="XMLID_862_" x="147.2" y="458.3" class="st0" width="43.8" height="22.4"/>
		<g id="XMLID_187_">
			<path id="XMLID_188_" d="M84.9,465.6c0.1-0.2,0.2-0.3,0.4-0.4c0.2-0.1,0.4-0.2,0.6-0.2c0.4,0,0.8,0.2,1.1,0.5
				c1.1,1.3,1.9,2.6,2.6,3.7c0.1,0.2,0.1,0.4,0.1,0.6s-0.1,0.4-0.3,0.5c-0.1,0.1-0.3,0.2-0.5,0.1c-0.2,0-0.3-0.1-0.4-0.3
				c-0.7-1.3-1.4-2.5-2.2-3.6c0,0-0.1,0-0.1,0c0,0-0.1,0-0.1,0c-0.7,1.5-1.5,2.8-2.3,3.9c0,0,0,0.1,0,0.1c0,0,0,0,0.1,0h3.6
				c0.4,0,0.7,0.1,0.9,0.4s0.4,0.5,0.4,0.9v6.3c0,0.2-0.1,0.3-0.2,0.5c-0.1,0.1-0.3,0.2-0.5,0.2c-0.2,0-0.3-0.1-0.5-0.2
				c-0.1-0.1-0.2-0.3-0.2-0.5v-0.2c0-0.1,0-0.1-0.1-0.1h-2.5c-0.1,0-0.1,0-0.1,0.1v0.4c0,0.2-0.1,0.3-0.2,0.5
				c-0.1,0.1-0.3,0.2-0.5,0.2c-0.2,0-0.3-0.1-0.5-0.2c-0.1-0.1-0.2-0.3-0.2-0.5v-7.2c0,0,0,0,0,0c0,0,0,0,0,0
				c-0.1,0.2-0.3,0.2-0.5,0.2c-0.2,0-0.4-0.1-0.6-0.2c-0.1-0.1-0.2-0.2-0.3-0.2c0,0-0.1,0-0.1,0c0,0,0,0,0,0.1v6.5
				c0,0.7-0.2,1.2-0.6,1.5c-0.3,0.1-0.8,0.2-1.4,0.2c-0.2,0-0.4,0-0.6-0.2c-0.2-0.1-0.3-0.3-0.4-0.5c0-0.2,0-0.3,0.1-0.4
				c0.1-0.1,0.2-0.2,0.4-0.2c0.2,0,0.3,0,0.4,0c0.1,0,0.2,0,0.3,0c0.1,0,0.2,0,0.2,0c0.1,0,0.2,0,0.2-0.1c0,0,0.1-0.1,0.1-0.3v-5.4
				c0-0.1-0.1-0.1-0.2-0.1h-1.8c-0.1,0-0.2,0-0.2,0.1c-0.2,2.7-0.5,4.8-1,6.5c-0.1,0.2-0.2,0.3-0.3,0.3c-0.2,0-0.3,0-0.5-0.1
				c-0.2-0.1-0.3-0.2-0.4-0.4c0-0.1-0.1-0.2-0.1-0.3c0-0.1,0-0.2,0-0.2c0.7-2.2,1-5.6,1-10.1v-6.4c0-0.4,0.1-0.7,0.4-0.9
				c0.2-0.2,0.5-0.4,0.9-0.4h2.2c0.4,0,0.7,0.1,0.9,0.4c0.2,0.2,0.4,0.5,0.4,0.9v9.3c0,0,0,0,0,0.1c0,0,0,0,0.1,0
				C83,469.5,84.1,467.7,84.9,465.6z M78.2,470.5c0,0.1,0,0.1,0.1,0.1h1.7c0.1,0,0.2,0,0.2-0.1V467c0-0.1-0.1-0.2-0.2-0.2h-1.7
				c-0.1,0-0.1,0.1-0.1,0.2v0.9C78.3,469.1,78.3,469.9,78.2,470.5z M80.3,461.9c0-0.1-0.1-0.2-0.2-0.2h-1.7c-0.1,0-0.1,0.1-0.1,0.2
				v3.4c0,0.1,0,0.1,0.1,0.1h1.7c0.1,0,0.2,0,0.2-0.1V461.9z M83.9,460.5c0.1-0.2,0.2-0.3,0.3-0.4c0.1-0.1,0.2-0.1,0.3-0.1
				c0.1,0,0.1,0,0.2,0c0.2,0,0.3,0.1,0.4,0.3c0.1,0.2,0.1,0.3,0,0.5c-0.5,1.5-1.2,2.9-1.9,4c-0.1,0.1-0.2,0.2-0.4,0.2
				s-0.3,0-0.5-0.1c-0.1-0.1-0.2-0.3-0.3-0.4c0-0.2,0-0.4,0.1-0.5C82.9,463,83.4,461.9,83.9,460.5z M87.3,472.3
				c0-0.1-0.1-0.1-0.2-0.1h-2.4c-0.1,0-0.1,0-0.1,0.1v4.2c0,0.1,0,0.2,0.1,0.2h2.4c0.1,0,0.2-0.1,0.2-0.2V472.3z M89.3,463.7
				c0.1,0.2,0,0.4,0,0.5c-0.1,0.2-0.2,0.3-0.4,0.4c-0.2,0.1-0.3,0.1-0.5,0s-0.3-0.2-0.3-0.4c-0.4-1.1-0.9-2.2-1.5-3.5
				c-0.1-0.1-0.1-0.3,0-0.4c0.1-0.2,0.2-0.3,0.3-0.3c0.1,0,0.2-0.1,0.3-0.1c0.1,0,0.1,0,0.2,0c0.2,0.1,0.3,0.2,0.4,0.3
				C88.4,461.6,88.9,462.7,89.3,463.7z M93.9,460.3c0.4,0,0.7,0.1,0.9,0.4s0.4,0.5,0.4,0.9v12.3c0,0.7-0.2,1.1-0.6,1.4
				c-0.3,0.2-0.7,0.3-1.3,0.3c-0.2,0-0.4,0-0.6-0.2c-0.2-0.1-0.3-0.3-0.4-0.6c-0.1-0.2,0-0.3,0.1-0.5s0.2-0.2,0.4-0.2
				c0.1,0,0.3,0,0.3,0c0.1,0,0.2,0,0.3,0c0.1,0,0.1,0,0.2,0c0.1,0,0.2,0,0.2-0.1c0,0,0.1-0.1,0.1-0.2v-11.9c0-0.1-0.1-0.2-0.2-0.2
				h-2.1c-0.1,0-0.2,0.1-0.2,0.2v16.9c0,0.2-0.1,0.4-0.2,0.5c-0.1,0.1-0.3,0.2-0.5,0.2c-0.2,0-0.4-0.1-0.5-0.2
				c-0.1-0.1-0.2-0.3-0.2-0.5v-17.2c0-0.4,0.1-0.7,0.4-0.9s0.5-0.4,0.9-0.4H93.9z"/>
			<path id="XMLID_196_" d="M102.8,475.1C102.8,475.2,102.8,475.2,102.8,475.1c0.1,0.1,0.1,0.1,0.1,0.1l2.1-0.6
				c0.2-0.1,0.3,0,0.5,0.1s0.2,0.2,0.3,0.4c0,0.2,0,0.4-0.1,0.6c-0.1,0.2-0.3,0.3-0.4,0.3c-2,0.6-4.1,1.3-6.4,2
				c-0.2,0.1-0.4,0.1-0.6-0.1c-0.2-0.1-0.3-0.3-0.4-0.5c0-0.1,0-0.1,0-0.2c0-0.1,0-0.3,0.1-0.4c0.1-0.2,0.3-0.3,0.5-0.4
				c0,0,0,0,0.1,0c0,0,0,0,0.1,0c0.1,0,0.1-0.1,0.1-0.1v-6.7c0-0.2,0.1-0.3,0.2-0.5c0.1-0.1,0.3-0.2,0.5-0.2s0.3,0.1,0.5,0.2
				c0.1,0.1,0.2,0.3,0.2,0.5v6.3c0,0,0,0.1,0,0.1c0,0,0.1,0,0.1,0l1.1-0.3c0.1,0,0.1-0.1,0.1-0.2v-8.4c0-0.1,0-0.2-0.1-0.2h-1.5
				c-0.4,0-0.7-0.1-0.9-0.4s-0.4-0.5-0.4-0.9v-4.1c0-0.3,0.1-0.6,0.4-0.9s0.5-0.4,0.9-0.4h4.1c0.4,0,0.7,0.1,0.9,0.4
				s0.4,0.5,0.4,0.9v4.1c0,0.4-0.1,0.7-0.4,0.9s-0.5,0.4-0.9,0.4h-1c-0.1,0-0.1,0.1-0.1,0.2v2.7c0,0.1,0,0.2,0.1,0.2h1.6
				c0.2,0,0.4,0.1,0.5,0.2c0.1,0.1,0.2,0.3,0.2,0.5s-0.1,0.4-0.2,0.5s-0.3,0.2-0.5,0.2h-1.6c-0.1,0-0.1,0.1-0.1,0.2V475.1z
				 M100.1,461.8c-0.1,0-0.2,0-0.2,0.1v3.5c0,0.1,0.1,0.2,0.2,0.2h3.5c0.1,0,0.2-0.1,0.2-0.2V462c0-0.1-0.1-0.1-0.2-0.1H100.1z
				 M108.8,462.3c0.4,0,0.7,0,0.9,0.1c0.1,0,0.2,0.1,0.3,0.2c0.1,0.1,0.1,0.2,0.1,0.4c-0.6,2.7-1.7,4.7-3.5,6
				c-0.2,0.1-0.3,0.2-0.5,0.1c-0.2,0-0.4-0.1-0.5-0.3c-0.1-0.1-0.1-0.2-0.1-0.4c0-0.2,0.1-0.4,0.3-0.5c1.2-0.9,2.1-2.3,2.7-4.1
				c0,0,0-0.1,0-0.1s-0.1,0-0.1,0h-1.8c-0.2,0-0.4-0.1-0.5-0.2s-0.2-0.3-0.2-0.5s0.1-0.4,0.2-0.5s0.3-0.2,0.5-0.2H108.8z
				 M107.6,479.4c-0.2,0-0.4-0.1-0.5-0.2c-0.1-0.2-0.2-0.3-0.2-0.5v-7c0-0.4,0.1-0.7,0.4-0.9c0.2-0.2,0.5-0.4,0.9-0.4h7.2
				c0.3,0,0.6,0.1,0.9,0.4c0.2,0.2,0.4,0.5,0.4,0.9v6.9c0,0.2-0.1,0.4-0.2,0.6s-0.3,0.2-0.6,0.2h-0.2c-0.2,0-0.3-0.1-0.4-0.2
				c-0.1-0.1-0.2-0.3-0.2-0.4c0-0.1,0-0.1-0.1-0.1h-6.4c-0.1,0-0.1,0-0.1,0.1c0,0.2-0.1,0.3-0.2,0.5
				C108,479.4,107.9,479.4,107.6,479.4L107.6,479.4z M115,471.9c0-0.1-0.1-0.2-0.2-0.2h-6.3c-0.1,0-0.1,0.1-0.1,0.2v1.7
				c0,0.1,0,0.2,0.1,0.2h6.3c0.1,0,0.2-0.1,0.2-0.2V471.9z M108.4,477.1c0,0.1,0,0.1,0.1,0.1h6.3c0.1,0,0.2,0,0.2-0.1v-1.9
				c0-0.1-0.1-0.2-0.2-0.2h-6.3c-0.1,0-0.1,0.1-0.1,0.2V477.1z M115.5,461.8c0.2-0.2,0.3-0.3,0.6-0.3c0.2,0,0.4,0,0.6,0.2
				c0.2,0.1,0.3,0.3,0.3,0.5c0,0.2-0.1,0.4-0.2,0.5c-0.9,0.8-1.7,1.5-2.4,2c-0.1,0.1-0.1,0.1,0,0.2c0.9,1.2,1.9,2.2,3,2.7
				c0.2,0.1,0.3,0.2,0.3,0.4c0,0,0,0.1,0,0.1c0,0.1,0,0.2-0.1,0.4c-0.2,0.2-0.3,0.3-0.6,0.4c-0.2,0.1-0.4,0-0.6-0.1
				c-1.6-1-2.9-2.6-3.9-4.9c0,0,0,0,0,0c0,0,0,0,0,0v4.2c0,0.4,0,0.7-0.1,0.9s-0.3,0.4-0.5,0.5c-0.3,0.2-0.9,0.3-1.8,0.3
				c-0.2,0-0.4-0.1-0.6-0.2c-0.2-0.1-0.3-0.3-0.4-0.5c0-0.1,0-0.1,0-0.2c0-0.1,0-0.2,0.1-0.3c0.1-0.1,0.2-0.2,0.4-0.2
				c0.2,0,0.3,0,0.5,0c0.3,0,0.6,0,0.7,0c0.1,0,0.2,0,0.3-0.1c0,0,0.1-0.1,0.1-0.2v-8c0-0.2,0.1-0.4,0.2-0.5s0.3-0.2,0.5-0.2
				s0.4,0.1,0.5,0.2c0.1,0.1,0.2,0.3,0.2,0.5v0.3c0,0.1,0,0.2,0,0.3c0.3,1.1,0.7,2,1.1,2.8c0,0.1,0.1,0.1,0.2,0
				C114.4,463,115,462.4,115.5,461.8z"/>
			<path id="XMLID_204_" d="M138.7,474.3c0.2,0,0.4,0.1,0.5,0.2c0.1,0.1,0.2,0.3,0.2,0.5s-0.1,0.4-0.2,0.5c-0.1,0.1-0.3,0.2-0.5,0.2
				h-8.1c-0.1,0-0.2,0.1-0.2,0.2v2.3c0,0.2-0.1,0.4-0.2,0.6s-0.4,0.2-0.6,0.2s-0.4-0.1-0.6-0.2c-0.2-0.2-0.2-0.4-0.2-0.6v-2.3
				c0-0.1-0.1-0.2-0.1-0.2h-8c-0.2,0-0.4-0.1-0.5-0.2s-0.2-0.3-0.2-0.5s0.1-0.4,0.2-0.5s0.3-0.2,0.5-0.2h8c0.1,0,0.1-0.1,0.1-0.2
				v-1.5c0-0.1-0.1-0.2-0.1-0.2h-5.1c-0.3,0-0.6-0.1-0.9-0.4c-0.2-0.2-0.4-0.5-0.4-0.9v-6c0-0.3,0.1-0.6,0.4-0.9
				c0.2-0.2,0.5-0.4,0.9-0.4h5.1c0.1,0,0.1,0,0.1-0.1v-1.3c0-0.1-0.1-0.1-0.1-0.1h-7.3c-0.2,0-0.4-0.1-0.5-0.2
				c-0.1-0.2-0.2-0.3-0.2-0.5s0.1-0.4,0.2-0.5c0.1-0.1,0.3-0.2,0.5-0.2h7.3c0.1,0,0.1,0,0.1-0.1v-1c0-0.2,0.1-0.4,0.2-0.6
				c0.2-0.2,0.4-0.2,0.6-0.2s0.4,0.1,0.6,0.2c0.2,0.2,0.2,0.4,0.2,0.6v1c0,0.1,0.1,0.1,0.2,0.1h7.4c0.2,0,0.4,0.1,0.5,0.2
				c0.1,0.1,0.2,0.3,0.2,0.5s-0.1,0.4-0.2,0.5c-0.1,0.1-0.3,0.2-0.5,0.2h-7.4c-0.1,0-0.2,0.1-0.2,0.1v1.3c0,0.1,0.1,0.1,0.2,0.1h5.3
				c0.3,0,0.6,0.1,0.9,0.4s0.4,0.5,0.4,0.9v6c0,0.3-0.1,0.6-0.4,0.9s-0.5,0.4-0.9,0.4h-5.3c-0.1,0-0.2,0.1-0.2,0.2v1.5
				c0,0.1,0.1,0.2,0.2,0.2H138.7z M123.8,465.4c-0.1,0-0.1,0-0.1,0.1v1.9c0,0.1,0,0.1,0.1,0.1h4.7c0.1,0,0.1,0,0.1-0.1v-1.9
				c0-0.1-0.1-0.1-0.1-0.1H123.8z M123.7,471c0,0.1,0,0.1,0.1,0.1h4.7c0.1,0,0.1,0,0.1-0.1v-1.9c0-0.1-0.1-0.2-0.1-0.2h-4.7
				c-0.1,0-0.1,0.1-0.1,0.2V471z M135.4,465.5c0-0.1-0.1-0.1-0.1-0.1h-4.8c-0.1,0-0.2,0-0.2,0.1v1.9c0,0.1,0.1,0.1,0.2,0.1h4.8
				c0.1,0,0.1,0,0.1-0.1V465.5z M135.3,471.2c0.1,0,0.1,0,0.1-0.1v-1.9c0-0.1-0.1-0.2-0.1-0.2h-4.8c-0.1,0-0.2,0.1-0.2,0.2v1.9
				c0,0.1,0.1,0.1,0.2,0.1H135.3z"/>
		</g>
		<g id="XMLID_170_">
			<path id="XMLID_171_" d="M282.5,481.8c-0.4,0-0.7-0.1-1-0.4s-0.4-0.6-0.4-1s0.1-0.7,0.4-1s0.6-0.4,1-0.4h4.3
				c0.2,0,0.2-0.1,0.2-0.2v-19.2c0-0.2-0.1-0.3-0.2-0.3h-3.4c-0.3,0-0.6-0.1-0.8-0.3s-0.3-0.5-0.3-0.8c0-0.3,0.1-0.5,0.3-0.8
				s0.4-0.4,0.7-0.5c1.2-0.3,2.4-0.6,3.3-1.1c0.8-0.4,1.6-0.6,2.4-0.6c0.4,0,0.7,0.1,0.9,0.4s0.4,0.5,0.4,0.9v22.1
				c0,0.2,0.1,0.2,0.3,0.2h3.7c0.4,0,0.7,0.1,1,0.4s0.4,0.6,0.4,1s-0.1,0.7-0.4,1s-0.6,0.4-1,0.4H282.5z"/>
			<path id="XMLID_173_" d="M300.5,481.8c-0.3,0-0.5-0.1-0.7-0.3s-0.3-0.4-0.3-0.7c0-0.6,0.2-1.2,0.7-1.6c3.9-3.5,6.8-6.5,8.6-9.1
				s2.7-5,2.7-7.2c0-1.6-0.4-2.8-1.2-3.8s-2-1.4-3.6-1.4s-3.1,0.7-4.6,2.1c-0.3,0.3-0.6,0.4-0.9,0.4s-0.7-0.1-0.9-0.4
				s-0.4-0.6-0.4-0.9s0.1-0.7,0.4-0.9c2.1-2,4.3-3,6.8-3c2.3,0,4.2,0.7,5.6,2.1s2.1,3.3,2.1,5.7c0,2.5-0.9,5-2.6,7.6
				s-4.2,5.5-7.5,8.7c0,0-0.1,0.1,0,0.1s0.1,0.1,0.1,0.1c1.9-0.2,3.3-0.2,4-0.2h5.9c0.4,0,0.7,0.1,1,0.4s0.4,0.6,0.4,1
				s-0.1,0.7-0.4,1s-0.6,0.4-1,0.4H300.5z"/>
			<path id="XMLID_175_" d="M322.5,481.8c-0.4,0-0.7-0.1-1-0.4s-0.4-0.6-0.4-1s0.1-0.7,0.4-1s0.6-0.4,1-0.4h4.3
				c0.2,0,0.2-0.1,0.2-0.2v-19.2c0-0.2-0.1-0.3-0.2-0.3h-3.4c-0.3,0-0.6-0.1-0.8-0.3s-0.3-0.5-0.3-0.8c0-0.3,0.1-0.5,0.3-0.8
				s0.4-0.4,0.7-0.5c1.2-0.3,2.4-0.6,3.3-1.1c0.8-0.4,1.6-0.6,2.4-0.6c0.4,0,0.7,0.1,0.9,0.4s0.4,0.5,0.4,0.9v22.1
				c0,0.2,0.1,0.2,0.3,0.2h3.7c0.4,0,0.7,0.1,1,0.4s0.4,0.6,0.4,1s-0.1,0.7-0.4,1s-0.6,0.4-1,0.4H322.5z"/>
			<path id="XMLID_177_" d="M348.5,480c0,0.5-0.2,0.9-0.5,1.2s-0.8,0.5-1.2,0.5c-0.5,0-0.9-0.2-1.2-0.5s-0.5-0.7-0.5-1.1
				c0-3.8,0.7-7.7,2-11.9c1.1-3.3,2.8-6.6,5.1-9.9c0,0,0.1-0.1,0-0.1s-0.1-0.1-0.1-0.1h-11.1c-0.4,0-0.7-0.1-1-0.4s-0.4-0.6-0.4-1
				s0.1-0.7,0.4-1s0.6-0.4,1-0.4h14.1c0.3,0,0.5,0.1,0.7,0.3s0.3,0.4,0.3,0.7c0,0.6-0.2,1.2-0.6,1.8c-2.5,3.4-4.3,6.7-5.3,9.9
				S348.7,475.2,348.5,480z"/>
			<path id="XMLID_179_" d="M372.4,476c-0.1,0-0.2,0.1-0.2,0.2v1.5c0,0.1,0.1,0.2,0.2,0.2h2.6c0.2,0,0.4,0.1,0.6,0.2
				s0.2,0.3,0.2,0.5s-0.1,0.4-0.2,0.6s-0.3,0.2-0.6,0.2h-2.6c-0.1,0-0.2,0.1-0.2,0.2v3.3c0,0.2-0.1,0.4-0.2,0.6s-0.3,0.2-0.5,0.2
				s-0.4-0.1-0.5-0.2s-0.2-0.3-0.2-0.6v-3.3c0-0.1-0.1-0.2-0.2-0.2h-2.8c-0.2,0-0.4-0.1-0.6-0.2s-0.2-0.3-0.2-0.6s0.1-0.4,0.2-0.5
				s0.3-0.2,0.6-0.2h2.8c0.1,0,0.2-0.1,0.2-0.2v-1.5c0-0.1-0.1-0.2-0.2-0.2H369c-0.4,0-0.7-0.1-1-0.4s-0.4-0.6-0.4-1v-5.7
				c0-0.4,0.1-0.7,0.4-1s0.6-0.4,1-0.4h1.5c0.1,0,0.2-0.1,0.2-0.2V466c0-0.1-0.1-0.2-0.2-0.2h-2.6c-0.2,0-0.4-0.1-0.6-0.2
				s-0.2-0.3-0.2-0.5s0.1-0.4,0.2-0.5s0.3-0.2,0.6-0.2h2.6c0.1,0,0.2-0.1,0.2-0.2v-1.6c0-0.2,0.1-0.4,0.2-0.6s0.3-0.2,0.5-0.2
				s0.4,0.1,0.5,0.2s0.2,0.3,0.2,0.6v1.6c0,0.1,0.1,0.2,0.2,0.2h2.4c0.2,0,0.4,0.1,0.6,0.2s0.2,0.3,0.2,0.5s-0.1,0.4-0.2,0.5
				s-0.3,0.2-0.6,0.2h-2.4c-0.1,0-0.2,0.1-0.2,0.2v1.4c0,0.1,0.1,0.2,0.2,0.2h1.5c0.4,0,0.7,0.1,1,0.4s0.4,0.6,0.4,1v5.7
				c0,0.4-0.1,0.7-0.4,1s-0.6,0.4-1,0.4H372.4z M369.1,468.9c-0.1,0-0.2,0.1-0.2,0.2v1.9c0,0.1,0.1,0.2,0.2,0.2h1.6
				c0.1,0,0.2-0.1,0.2-0.2v-1.9c0-0.1-0.1-0.2-0.2-0.2H369.1z M369.1,472.4c-0.1,0-0.2,0.1-0.2,0.2v1.9c0,0.1,0.1,0.2,0.2,0.2h1.6
				c0.1,0,0.2-0.1,0.2-0.2v-1.9c0-0.1-0.1-0.2-0.2-0.2H369.1z M373.9,471.1c0.1,0,0.2-0.1,0.2-0.2v-1.9c0-0.1-0.1-0.2-0.2-0.2h-1.6
				c-0.1,0-0.2,0.1-0.2,0.2v1.9c0,0.1,0.1,0.2,0.2,0.2H373.9z M373.9,474.7c0.1,0,0.2-0.1,0.2-0.2v-1.9c0-0.1-0.1-0.2-0.2-0.2h-1.6
				c-0.1,0-0.2,0.1-0.2,0.2v1.9c0,0.1,0.1,0.2,0.2,0.2H373.9z M388.5,463.8c0.2,0.1,0.2,0.3,0.2,0.6s-0.1,0.4-0.2,0.6
				s-0.3,0.2-0.5,0.2h-4.7c-0.1,0-0.2,0.1-0.2,0.2v2c0,0.1,0.1,0.2,0.2,0.2h3.8c0.4,0,0.7,0.1,1,0.4s0.4,0.6,0.4,1v12.8
				c0,0.4-0.1,0.8-0.2,1s-0.3,0.4-0.6,0.6c-0.4,0.2-1.2,0.3-2.2,0.3c-0.2,0-0.4-0.1-0.6-0.2s-0.3-0.3-0.4-0.6c0-0.2,0-0.3,0.1-0.5
				s0.2-0.2,0.4-0.2c0.4,0,0.7,0,0.9,0c0.3,0,0.5,0,0.7,0c0.1,0,0.2,0,0.3-0.1s0.1-0.2,0.1-0.3v-2.9c0,0,0,0,0,0s0,0,0,0
				c-0.1,0.1-0.3,0.2-0.4,0.1s-0.3-0.1-0.4-0.2c-0.5-0.8-0.8-1.7-1-2.8c0,0,0,0,0,0s0,0,0,0c-0.2,1.1-0.6,1.9-1,2.6
				c-0.1,0.2-0.3,0.3-0.5,0.3s-0.4-0.1-0.6-0.2c0,0,0,0-0.1,0s0,0,0,0.1v4.2c0,0.2-0.1,0.3-0.2,0.4s-0.3,0.2-0.4,0.2
				s-0.3-0.1-0.4-0.2s-0.2-0.3-0.2-0.4v-4.2c0-0.1,0-0.1-0.1,0c-0.2,0.1-0.4,0.2-0.6,0.2s-0.4-0.2-0.4-0.3c-0.3-0.6-0.5-1.4-0.7-2.2
				c0,0,0,0,0,0s0,0,0,0c-0.2,1.1-0.6,2-1,2.7c-0.1,0.1-0.2,0.2-0.3,0.2s-0.2-0.1-0.3-0.2c-0.1-0.2-0.2-0.3-0.2-0.5
				c0-0.1,0-0.3,0.1-0.4c0.7-1.1,1.1-2.9,1.4-5.5c0-0.1,0-0.1-0.1-0.1H379c-0.2,0-0.3-0.1-0.4-0.2s-0.2-0.3-0.2-0.4s0.1-0.3,0.2-0.4
				s0.2-0.2,0.4-0.2h0.5c0.3,0,0.5,0.1,0.7,0.3s0.3,0.5,0.3,0.8c0,2.6,0.4,4.6,1.1,5.9c0,0,0,0,0.1,0s0,0,0,0v-8.8
				c0-0.1-0.1-0.2-0.2-0.2h-3.7c-0.1,0-0.2,0.1-0.2,0.2v13.7c0,0.2-0.1,0.3-0.2,0.5s-0.3,0.2-0.5,0.2s-0.4-0.1-0.5-0.2
				s-0.2-0.3-0.2-0.5v-14c0-0.4,0.1-0.7,0.4-1s0.6-0.4,1-0.4h3.6c0.1,0,0.2-0.1,0.2-0.2v-2c0-0.1-0.1-0.2-0.2-0.2h-4.5
				c-0.2,0-0.4-0.1-0.5-0.2s-0.2-0.3-0.2-0.6s0.1-0.4,0.2-0.6s0.3-0.2,0.5-0.2h11.1C388.1,463.6,388.3,463.7,388.5,463.8z
				 M386.9,477.9C386.9,477.9,386.9,477.9,386.9,477.9C386.9,477.9,387,477.9,386.9,477.9l0.1-8.7c0-0.1-0.1-0.2-0.2-0.2H383
				c-0.1,0-0.2,0.1-0.2,0.2v8.9c0,0,0,0.1,0,0.1s0.1,0,0.1,0c0.8-1,1.3-2.9,1.6-5.8c0-0.1,0-0.1-0.1-0.1h-0.4
				c-0.2,0-0.3-0.1-0.4-0.2s-0.2-0.3-0.2-0.4s0.1-0.3,0.2-0.4s0.2-0.2,0.4-0.2h0.5c0.3,0,0.6,0.1,0.8,0.3s0.3,0.5,0.3,0.8
				c0,1.2,0.1,2.2,0.3,3.2S386.4,477.1,386.9,477.9z"/>
		</g>
		<g id="XMLID_449_">
			<line id="XMLID_477_" class="st1" x1="159" y1="469.7" x2="185" y2="469.7"/>
		</g>
	</g>
	<g id="XMLID_669_" class="st11">
		<path id="XMLID_710_" class="st8" d="M238.3,438.9c-0.4,0-0.7-0.1-1-0.4c-0.5-0.5-0.5-1.4,0-2l2.1-2.1l-0.2-0.3
			c-0.2-0.5-0.7-0.8-1.2-0.8h-3.8c-0.8,0-1.4-0.6-1.4-1.4c0-0.8,0.6-1.4,1.4-1.4h3.8c1.6,0,3,0.9,3.7,2.3l0.6,1.2
			c0.3,0.5,0.2,1.2-0.3,1.6l-2.8,2.8C239,438.8,238.7,438.9,238.3,438.9z"/>
		<path id="XMLID_707_" class="st4" d="M202.3,480.5c-9.2,0-16.7-7.5-16.7-16.7s7.5-16.7,16.7-16.7s16.7,7.5,16.7,16.7
			S211.4,480.5,202.3,480.5z M202.3,450c-7.7,0-13.9,6.2-13.9,13.9s6.2,13.9,13.9,13.9c7.7,0,13.9-6.2,13.9-13.9
			S209.9,450,202.3,450z"/>
		<path id="XMLID_704_" class="st9" d="M202.3,477.8c-7.7,0-13.9-6.2-13.9-13.9s6.2-13.9,13.9-13.9c7.7,0,13.9,6.2,13.9,13.9
			S209.9,477.8,202.3,477.8z M202.3,452.8c-6.1,0-11.1,5-11.1,11.1s5,11.1,11.1,11.1s11.1-5,11.1-11.1S208.4,452.8,202.3,452.8z"/>
		<path id="XMLID_701_" class="st4" d="M249.4,480.5c-9.2,0-16.7-7.5-16.7-16.7s7.5-16.7,16.7-16.7s16.7,7.5,16.7,16.7
			S258.6,480.5,249.4,480.5z M249.4,450c-7.7,0-13.9,6.2-13.9,13.9s6.2,13.9,13.9,13.9c7.7,0,13.9-6.2,13.9-13.9
			S257.1,450,249.4,450z"/>
		<path id="XMLID_698_" class="st9" d="M249.4,477.8c-7.7,0-13.9-6.2-13.9-13.9s6.2-13.9,13.9-13.9c7.7,0,13.9,6.2,13.9,13.9
			S257.1,477.8,249.4,477.8z M249.4,452.8c-6.1,0-11.1,5-11.1,11.1s5,11.1,11.1,11.1s11.1-5,11.1-11.1S255.6,452.8,249.4,452.8z"/>
		<g id="XMLID_695_">
			<circle id="XMLID_697_" class="st21" cx="202.3" cy="463.9" r="2.8"/>
			<circle id="XMLID_696_" class="st21" cx="249.4" cy="463.9" r="1.4"/>
		</g>
		<path id="XMLID_691_" class="st12" d="M250.6,463.2l-4.1-6.8l-6.9-19.3c-0.3-0.7-1.1-1.1-1.8-0.8c-0.7,0.3-1.1,1.1-0.8,1.8
			l0.4,1.1c-5.9,1.9-9.1,6.3-11.7,9.9c-1.6,2.2-3,4-4.6,5.1l-5-14.3l-2.6,0.9l2.9,8.2l-15,13.9c-0.4,0.4-0.6,1-0.3,1.5
			c0.2,0.5,0.7,0.9,1.3,0.9h20.8c4.3,0,6.3-4.2,8.4-8.6c2-4.1,4.2-8.7,8.4-10.8l4.1,11.5c0,0.1,0.1,0.2,0.1,0.2l4.2,6.9
			c0.3,0.4,0.7,0.7,1.2,0.7c0.2,0,0.5-0.1,0.7-0.2C250.8,464.7,251,463.8,250.6,463.2z M217.3,451.8l3.8,10.7h-15.3L217.3,451.8z
			 M228.9,455.5c-1.8,3.8-3.1,6.3-4.9,6.9l-2-5.6c2.4-1.3,4.1-3.7,5.9-6.1c2.6-3.6,5.3-7.3,10.4-8.9l0.6,1.6
			C233.6,445.7,231,451.1,228.9,455.5z"/>
		<path id="XMLID_690_" class="st8" d="M209.2,440.3c0,0.8,0.6,1.4,1.4,1.4h4.2c1,0,4-0.7,5.7-1.1c0.7-0.2,1.2-0.8,1.2-1.5l0,0
			c0-0.9-0.7-1.6-1.6-1.6h-9.5c-0.8,0-1.4,0.6-1.4,1.4L209.2,440.3L209.2,440.3z"/>
		<path id="XMLID_687_" class="st21" d="M224.5,470.8c-3.1,0-5.6-2.5-5.6-5.6c0-3.1,2.5-5.6,5.6-5.6c3.1,0,5.6,2.5,5.6,5.6
			C230,468.3,227.5,470.8,224.5,470.8z M224.5,462.5c-1.5,0-2.8,1.2-2.8,2.8c0,1.5,1.2,2.8,2.8,2.8c1.5,0,2.8-1.2,2.8-2.8
			C227.2,463.7,226,462.5,224.5,462.5z"/>
		<path id="XMLID_686_" class="st8" d="M227.2,475c-0.6,0-1.1-0.4-1.3-0.9l-2.8-8.3c-0.2-0.7,0.2-1.5,0.9-1.8
			c0.7-0.2,1.5,0.2,1.8,0.9l2.8,8.3c0.2,0.7-0.2,1.5-0.9,1.8C227.5,475,227.4,475,227.2,475z"/>
		<path id="XMLID_685_" class="st22" d="M230,475h-4.2c-0.8,0-1.4-0.6-1.4-1.4s0.6-1.4,1.4-1.4h4.2c0.8,0,1.4,0.6,1.4,1.4
			S230.8,475,230,475z"/>
		<g id="XMLID_684_">
		</g>
		<g id="XMLID_683_">
		</g>
		<g id="XMLID_682_">
		</g>
		<g id="XMLID_681_">
		</g>
		<g id="XMLID_680_">
		</g>
		<g id="XMLID_679_">
		</g>
		<g id="XMLID_678_">
		</g>
		<g id="XMLID_677_">
		</g>
		<g id="XMLID_676_">
		</g>
		<g id="XMLID_675_">
		</g>
		<g id="XMLID_674_">
		</g>
		<g id="XMLID_673_">
		</g>
		<g id="XMLID_672_">
		</g>
		<g id="XMLID_671_">
		</g>
		<g id="XMLID_670_">
		</g>
	</g>
</g>
<g id="XMLID_239_" class="st10">
	<g id="XMLID_1150_" class="st11">
		<rect id="XMLID_861_" x="147.2" y="537.8" class="st0" width="12.9" height="22.4"/>
		<g id="XMLID_228_">
			<path id="XMLID_229_" d="M103.4,542.1c0.1-0.2,0.3-0.4,0.5-0.5c0.1-0.1,0.3-0.1,0.4-0.1c0.1,0,0.2,0,0.3,0
				c0.2,0.1,0.4,0.2,0.5,0.4c0.1,0.1,0.1,0.2,0.1,0.3c0,0.1,0,0.2-0.1,0.3c-1.3,2.9-3,5.4-5,7.4c-0.2,0.2-0.4,0.3-0.7,0.3
				c0,0,0,0,0,0c-0.3,0-0.5-0.1-0.7-0.3c-0.2-0.2-0.3-0.4-0.3-0.6c0-0.2,0.1-0.4,0.2-0.5C100.6,547.1,102.1,544.8,103.4,542.1z
				 M110.6,553.9c-0.1-0.2-0.2-0.4-0.1-0.6c0-0.2,0.2-0.3,0.4-0.4c0.1-0.1,0.3-0.1,0.4-0.1c0.1,0,0.2,0,0.3,0c0.2,0,0.4,0.2,0.6,0.4
				c1.7,2.1,3.2,4,4.3,5.8c0.1,0.1,0.1,0.3,0.1,0.4c0,0.1,0,0.1,0,0.2c-0.1,0.2-0.2,0.4-0.4,0.6c-0.1,0.1-0.3,0.1-0.4,0.1
				c-0.1,0-0.2,0-0.3,0c-0.2-0.1-0.4-0.2-0.6-0.4c-0.2-0.3-0.3-0.6-0.5-0.9c-0.1-0.1-0.1-0.1-0.2-0.1c-2.1,0.1-6.8,0.4-14.2,0.7
				c0,0-0.1,0-0.1,0c-0.2,0-0.4-0.1-0.6-0.2c-0.2-0.2-0.3-0.4-0.3-0.6c0,0,0-0.1,0-0.1c0-0.2,0.1-0.3,0.2-0.5
				c0.1-0.2,0.3-0.3,0.6-0.3c1,0,1.6,0,2-0.1c0.1,0,0.2,0,0.2-0.1c1.5-2.7,2.7-5.4,3.7-8.3c0.1-0.3,0.3-0.4,0.5-0.6
				c0.2-0.1,0.3-0.1,0.5-0.1c0.1,0,0.2,0,0.3,0c0.2,0.1,0.4,0.2,0.5,0.4c0.1,0.1,0.1,0.3,0.1,0.4c0,0.1,0,0.2-0.1,0.3
				c-1.3,3-2.5,5.6-3.7,7.8c0,0,0,0.1,0,0.1s0,0,0.1,0c2.2-0.1,5.3-0.2,9.3-0.4c0,0,0,0,0.1-0.1c0,0,0-0.1,0-0.1
				C112.3,556,111.5,554.9,110.6,553.9z M110.3,542.6c-0.1-0.1-0.1-0.2-0.1-0.4c0-0.1,0-0.2,0-0.3c0.1-0.2,0.2-0.4,0.4-0.4
				c0.1,0,0.2-0.1,0.4-0.1c0.1,0,0.2,0,0.3,0c0.2,0.1,0.4,0.2,0.5,0.4c0.7,1.1,1.4,2.3,2.4,3.5c0.9,1.2,1.8,2.3,2.7,3.2
				c0.2,0.2,0.3,0.4,0.3,0.6c0,0.3-0.1,0.5-0.3,0.7c-0.2,0.2-0.4,0.3-0.6,0.3c0,0,0,0,0,0c-0.2,0-0.4-0.1-0.6-0.3
				c-0.9-1-1.8-2.2-2.8-3.5C111.9,545.2,111,543.9,110.3,542.6z"/>
			<path id="XMLID_233_" d="M138.7,555.4c0.2,0,0.4,0.1,0.5,0.2c0.1,0.1,0.2,0.3,0.2,0.5s-0.1,0.4-0.2,0.5c-0.1,0.1-0.3,0.2-0.5,0.2
				h-8.1c-0.1,0-0.2,0.1-0.2,0.2v2.3c0,0.2-0.1,0.4-0.2,0.6s-0.4,0.2-0.6,0.2s-0.4-0.1-0.6-0.2c-0.2-0.2-0.2-0.4-0.2-0.6v-2.3
				c0-0.1-0.1-0.2-0.1-0.2h-8c-0.2,0-0.4-0.1-0.5-0.2s-0.2-0.3-0.2-0.5s0.1-0.4,0.2-0.5s0.3-0.2,0.5-0.2h8c0.1,0,0.1-0.1,0.1-0.2
				v-1.5c0-0.1-0.1-0.2-0.1-0.2h-5.1c-0.3,0-0.6-0.1-0.9-0.4c-0.2-0.2-0.4-0.5-0.4-0.9v-6c0-0.3,0.1-0.6,0.4-0.9
				c0.2-0.2,0.5-0.4,0.9-0.4h5.1c0.1,0,0.1,0,0.1-0.1v-1.3c0-0.1-0.1-0.1-0.1-0.1h-7.3c-0.2,0-0.4-0.1-0.5-0.2
				c-0.1-0.2-0.2-0.3-0.2-0.5s0.1-0.4,0.2-0.5c0.1-0.1,0.3-0.2,0.5-0.2h7.3c0.1,0,0.1,0,0.1-0.1v-1c0-0.2,0.1-0.4,0.2-0.6
				c0.2-0.2,0.4-0.2,0.6-0.2s0.4,0.1,0.6,0.2c0.2,0.2,0.2,0.4,0.2,0.6v1c0,0.1,0.1,0.1,0.2,0.1h7.4c0.2,0,0.4,0.1,0.5,0.2
				c0.1,0.1,0.2,0.3,0.2,0.5s-0.1,0.4-0.2,0.5c-0.1,0.1-0.3,0.2-0.5,0.2h-7.4c-0.1,0-0.2,0.1-0.2,0.1v1.3c0,0.1,0.1,0.1,0.2,0.1h5.3
				c0.3,0,0.6,0.1,0.9,0.4s0.4,0.5,0.4,0.9v6c0,0.3-0.1,0.6-0.4,0.9s-0.5,0.4-0.9,0.4h-5.3c-0.1,0-0.2,0.1-0.2,0.2v1.5
				c0,0.1,0.1,0.2,0.2,0.2H138.7z M123.8,546.5c-0.1,0-0.1,0-0.1,0.1v1.9c0,0.1,0,0.1,0.1,0.1h4.7c0.1,0,0.1,0,0.1-0.1v-1.9
				c0-0.1-0.1-0.1-0.1-0.1H123.8z M123.7,552.2c0,0.1,0,0.1,0.1,0.1h4.7c0.1,0,0.1,0,0.1-0.1v-1.9c0-0.1-0.1-0.2-0.1-0.2h-4.7
				c-0.1,0-0.1,0.1-0.1,0.2V552.2z M135.4,546.7c0-0.1-0.1-0.1-0.1-0.1h-4.8c-0.1,0-0.2,0-0.2,0.1v1.9c0,0.1,0.1,0.1,0.2,0.1h4.8
				c0.1,0,0.1,0,0.1-0.1V546.7z M135.3,552.3c0.1,0,0.1,0,0.1-0.1v-1.9c0-0.1-0.1-0.2-0.1-0.2h-4.8c-0.1,0-0.2,0.1-0.2,0.2v1.9
				c0,0.1,0.1,0.1,0.2,0.1H135.3z"/>
		</g>
		<g id="XMLID_211_">
			<path id="XMLID_212_" d="M320.8,560.2c-3,0-5.4-0.9-7.5-2.6c-0.3-0.3-0.5-0.6-0.5-1.1c0-0.4,0.1-0.7,0.3-0.9s0.5-0.4,0.9-0.5
				c0.4,0,0.7,0.1,1,0.3c1.6,1.4,3.5,2.1,5.6,2.1c1.6,0,2.9-0.4,3.9-1.3s1.5-2.1,1.5-3.6c0-3.3-2.3-5-7-5.2c-0.4,0-0.7-0.2-0.9-0.4
				s-0.4-0.5-0.4-0.9s0.1-0.7,0.4-0.9s0.5-0.4,0.9-0.4c2.1-0.2,3.6-0.7,4.6-1.6s1.4-2,1.4-3.4c0-1.3-0.4-2.3-1.2-3.1
				c-0.8-0.8-1.9-1.2-3.3-1.2c-1.5,0-3,0.6-4.4,1.7c-0.3,0.2-0.6,0.3-1,0.3c-0.4,0-0.7-0.2-0.9-0.5s-0.3-0.6-0.3-1s0.2-0.7,0.5-0.9
				c1.9-1.5,4.1-2.3,6.3-2.3s4.1,0.6,5.5,1.8c1.4,1.2,2.1,2.8,2.1,4.9c0,1.5-0.4,2.9-1.2,3.9c-0.8,1.1-2,1.9-3.4,2.4
				c0,0-0.1,0.1-0.1,0.1c0,0,0,0.1,0.1,0.1c1.6,0.4,3,1.2,4,2.4c1,1.2,1.5,2.6,1.5,4.3c0,2.3-0.8,4.1-2.4,5.5
				C325.2,559.5,323.2,560.2,320.8,560.2z"/>
			<path id="XMLID_214_" d="M348.2,534.6c0.3,0.3,0.4,0.6,0.4,1s-0.1,0.7-0.4,1c-0.2,0.3-0.5,0.4-0.9,0.4c-0.4,0-0.7-0.1-1-0.3
				c-1-0.7-2.1-1.1-3.3-1.1c-2,0-3.6,0.8-4.8,2.5c-1.2,1.7-1.9,4.4-2,8.2c0,0,0,0.1,0,0.1c0,0,0.1,0,0.1,0c0.8-0.9,1.7-1.7,2.8-2.2
				c1-0.5,2.1-0.8,3.1-0.8c2.3,0,4.1,0.7,5.4,2.1s1.9,3.5,1.9,6.2c0,2.5-0.7,4.5-2.2,6.1c-1.5,1.6-3.3,2.4-5.4,2.4
				c-2.6,0-4.8-1.1-6.4-3.4c-1.6-2.2-2.4-5.5-2.4-9.7c0-2.5,0.3-4.7,0.8-6.6c0.5-1.9,1.3-3.4,2.2-4.5s2-1.9,3.1-2.4
				c1.1-0.5,2.4-0.8,3.7-0.8C345,532.8,346.7,533.4,348.2,534.6z M342.1,557.7c1.3,0,2.4-0.6,3.2-1.7s1.3-2.6,1.3-4.3
				c0-1.8-0.4-3.3-1.2-4.3c-0.8-1-2-1.5-3.6-1.5c-1.9,0-3.7,1.1-5.2,3.2c-0.1,0.1-0.2,0.3-0.1,0.5c0.2,2.7,0.8,4.7,1.8,6.1
				S340.4,557.7,342.1,557.7z"/>
			<path id="XMLID_217_" d="M361.2,560.2c-2.6,0-4.6-1.2-6.1-3.5c-1.5-2.3-2.2-5.7-2.2-10.2c0-4.5,0.7-7.9,2.2-10.2
				c1.5-2.3,3.5-3.4,6.1-3.4c2.6,0,4.6,1.1,6,3.4c1.5,2.3,2.2,5.7,2.2,10.2c0,4.5-0.7,7.9-2.2,10.2
				C365.8,559,363.8,560.2,361.2,560.2z M361.2,557.6c1.5,0,2.8-0.9,3.7-2.8c0.9-1.8,1.3-4.6,1.3-8.4c0-3.7-0.4-6.5-1.3-8.2
				s-2.1-2.7-3.7-2.7c-1.6,0-2.8,0.9-3.7,2.7s-1.3,4.5-1.3,8.2c0,3.8,0.4,6.5,1.3,8.4C358.4,556.7,359.6,557.6,361.2,557.6z"/>
			<path id="XMLID_220_" d="M385.7,554c-0.1,0-0.2,0.1-0.2,0.2v1.5c0,0.1,0.1,0.2,0.2,0.2h2.6c0.2,0,0.4,0.1,0.6,0.2
				s0.2,0.3,0.2,0.5s-0.1,0.4-0.2,0.6s-0.3,0.2-0.6,0.2h-2.6c-0.1,0-0.2,0.1-0.2,0.2v3.3c0,0.2-0.1,0.4-0.2,0.6s-0.3,0.2-0.5,0.2
				s-0.4-0.1-0.5-0.2s-0.2-0.3-0.2-0.6v-3.3c0-0.1-0.1-0.2-0.2-0.2H381c-0.2,0-0.4-0.1-0.6-0.2s-0.2-0.3-0.2-0.6s0.1-0.4,0.2-0.5
				s0.3-0.2,0.6-0.2h2.8c0.1,0,0.2-0.1,0.2-0.2v-1.5c0-0.1-0.1-0.2-0.2-0.2h-1.5c-0.4,0-0.7-0.1-1-0.4s-0.4-0.6-0.4-1v-5.7
				c0-0.4,0.1-0.7,0.4-1s0.6-0.4,1-0.4h1.5c0.1,0,0.2-0.1,0.2-0.2V544c0-0.1-0.1-0.2-0.2-0.2h-2.6c-0.2,0-0.4-0.1-0.6-0.2
				s-0.2-0.3-0.2-0.5s0.1-0.4,0.2-0.5s0.3-0.2,0.6-0.2h2.6c0.1,0,0.2-0.1,0.2-0.2v-1.6c0-0.2,0.1-0.4,0.2-0.6s0.3-0.2,0.5-0.2
				s0.4,0.1,0.5,0.2s0.2,0.3,0.2,0.6v1.6c0,0.1,0.1,0.2,0.2,0.2h2.4c0.2,0,0.4,0.1,0.6,0.2s0.2,0.3,0.2,0.5s-0.1,0.4-0.2,0.5
				s-0.3,0.2-0.6,0.2h-2.4c-0.1,0-0.2,0.1-0.2,0.2v1.4c0,0.1,0.1,0.2,0.2,0.2h1.5c0.4,0,0.7,0.1,1,0.4s0.4,0.6,0.4,1v5.7
				c0,0.4-0.1,0.7-0.4,1s-0.6,0.4-1,0.4H385.7z M382.4,546.8c-0.1,0-0.2,0.1-0.2,0.2v1.9c0,0.1,0.1,0.2,0.2,0.2h1.6
				c0.1,0,0.2-0.1,0.2-0.2V547c0-0.1-0.1-0.2-0.2-0.2H382.4z M382.4,550.4c-0.1,0-0.2,0.1-0.2,0.2v1.9c0,0.1,0.1,0.2,0.2,0.2h1.6
				c0.1,0,0.2-0.1,0.2-0.2v-1.9c0-0.1-0.1-0.2-0.2-0.2H382.4z M387.2,549.1c0.1,0,0.2-0.1,0.2-0.2V547c0-0.1-0.1-0.2-0.2-0.2h-1.6
				c-0.1,0-0.2,0.1-0.2,0.2v1.9c0,0.1,0.1,0.2,0.2,0.2H387.2z M387.2,552.6c0.1,0,0.2-0.1,0.2-0.2v-1.9c0-0.1-0.1-0.2-0.2-0.2h-1.6
				c-0.1,0-0.2,0.1-0.2,0.2v1.9c0,0.1,0.1,0.2,0.2,0.2H387.2z M401.8,541.8c0.2,0.1,0.2,0.3,0.2,0.6s-0.1,0.4-0.2,0.6
				s-0.3,0.2-0.5,0.2h-4.7c-0.1,0-0.2,0.1-0.2,0.2v2c0,0.1,0.1,0.2,0.2,0.2h3.8c0.4,0,0.7,0.1,1,0.4s0.4,0.6,0.4,1v12.8
				c0,0.4-0.1,0.8-0.2,1s-0.3,0.4-0.6,0.6c-0.4,0.2-1.2,0.3-2.2,0.3c-0.2,0-0.4-0.1-0.6-0.2s-0.3-0.3-0.4-0.6c0-0.2,0-0.3,0.1-0.5
				s0.2-0.2,0.4-0.2c0.4,0,0.7,0,0.9,0c0.3,0,0.5,0,0.7,0c0.1,0,0.2,0,0.3-0.1s0.1-0.2,0.1-0.3v-2.9c0,0,0,0,0,0s0,0,0,0
				c-0.1,0.1-0.3,0.2-0.4,0.1s-0.3-0.1-0.4-0.2c-0.5-0.8-0.8-1.7-1-2.8c0,0,0,0,0,0s0,0,0,0c-0.2,1.1-0.6,1.9-1,2.6
				c-0.1,0.2-0.3,0.3-0.5,0.3s-0.4-0.1-0.6-0.2c0,0,0,0-0.1,0s0,0,0,0.1v4.2c0,0.2-0.1,0.3-0.2,0.4s-0.3,0.2-0.4,0.2
				s-0.3-0.1-0.4-0.2s-0.2-0.3-0.2-0.4v-4.2c0-0.1,0-0.1-0.1,0c-0.2,0.1-0.4,0.2-0.6,0.2s-0.4-0.2-0.4-0.3c-0.3-0.6-0.5-1.4-0.7-2.2
				c0,0,0,0,0,0s0,0,0,0c-0.2,1.1-0.6,2-1,2.7c-0.1,0.1-0.2,0.2-0.3,0.2s-0.2-0.1-0.3-0.2c-0.1-0.2-0.2-0.3-0.2-0.5
				c0-0.1,0-0.3,0.1-0.4c0.7-1.1,1.1-2.9,1.4-5.5c0-0.1,0-0.1-0.1-0.1h-0.4c-0.2,0-0.3-0.1-0.4-0.2s-0.2-0.3-0.2-0.4
				s0.1-0.3,0.2-0.4s0.2-0.2,0.4-0.2h0.5c0.3,0,0.5,0.1,0.7,0.3s0.3,0.5,0.3,0.8c0,2.6,0.4,4.6,1.1,5.9c0,0,0,0,0.1,0s0,0,0,0v-8.8
				c0-0.1-0.1-0.2-0.2-0.2h-3.7c-0.1,0-0.2,0.1-0.2,0.2v13.7c0,0.2-0.1,0.3-0.2,0.5s-0.3,0.2-0.5,0.2s-0.4-0.1-0.5-0.2
				s-0.2-0.3-0.2-0.5v-14c0-0.4,0.1-0.7,0.4-1s0.6-0.4,1-0.4h3.6c0.1,0,0.2-0.1,0.2-0.2v-2c0-0.1-0.1-0.2-0.2-0.2h-4.5
				c-0.2,0-0.4-0.1-0.5-0.2s-0.2-0.3-0.2-0.6s0.1-0.4,0.2-0.6s0.3-0.2,0.5-0.2h11.1C401.5,541.6,401.6,541.6,401.8,541.8z
				 M400.2,555.9C400.2,555.9,400.2,555.9,400.2,555.9C400.3,555.9,400.3,555.9,400.2,555.9l0.1-8.7c0-0.1-0.1-0.2-0.2-0.2h-3.8
				c-0.1,0-0.2,0.1-0.2,0.2v8.9c0,0,0,0.1,0,0.1s0.1,0,0.1,0c0.8-1,1.3-2.9,1.6-5.8c0-0.1,0-0.1-0.1-0.1h-0.4
				c-0.2,0-0.3-0.1-0.4-0.2s-0.2-0.3-0.2-0.4s0.1-0.3,0.2-0.4s0.2-0.2,0.4-0.2h0.5c0.3,0,0.6,0.1,0.8,0.3s0.3,0.5,0.3,0.8
				c0,1.2,0.1,2.2,0.3,3.2S399.7,555.1,400.2,555.9z"/>
		</g>
	</g>
	<g id="XMLID_601_" class="st11">
		<g id="XMLID_666_">
			<path id="XMLID_668_" class="st23" d="M261.6,516.6h-35.1c-1.3,0-2.3,1-2.3,2.3v4.7h42.1v-2.3
				C266.3,518.7,264.2,516.6,261.6,516.6z"/>
			<path id="XMLID_667_" class="st23" d="M219.5,518.9H189c-1.3,0-2.3,1-2.3,2.3v2.3h35.1v-2.3C221.8,520,220.7,518.9,219.5,518.9z"
				/>
		</g>
		<path id="XMLID_665_" class="st16" d="M160.9,521.3h126.9c1.1,0,2,0.8,2.3,1.8l4.2,19c0,0.2,0.1,0.3,0.1,0.5v13.8
			c0,1.3-1,2.3-2.3,2.3h-96l-35.3-2.2c-1.2-0.1-2.2-1.1-2.2-2.3v-30.6C158.6,522.3,159.6,521.3,160.9,521.3z"/>
		<path id="XMLID_664_" class="st8" d="M164.4,542.4h129.7c0.1-0.1,0.1-0.1,0.2-0.3l-3.6-16.1H164.4c-0.6,0-1.2,0.5-1.2,1.2v14
			C163.3,541.8,163.8,542.4,164.4,542.4z"/>
		<path id="XMLID_663_" class="st23" d="M160.8,556.5l35.3,2.2h96c1.3,0,2.3-1,2.3-2.3v-4.7H158.6v2.5
			C158.6,555.4,159.6,556.5,160.8,556.5z"/>
		<circle id="XMLID_656_" class="st4" cx="193.7" cy="556.4" r="7"/>
		<circle id="XMLID_655_" class="st5" cx="193.7" cy="556.4" r="3.5"/>
		<circle id="XMLID_654_" class="st4" cx="261.6" cy="556.4" r="7"/>
		<circle id="XMLID_653_" class="st5" cx="261.6" cy="556.4" r="3.5"/>
		<g id="XMLID_650_">
			<path id="XMLID_652_" class="st4" d="M273.3,528.3H285c1.3,0,2.3,1,2.3,2.3v25.8c0,1.3-1,2.3-2.3,2.3h-11.7c-1.3,0-2.3-1-2.3-2.3
				v-25.8C271,529.4,272,528.3,273.3,528.3z"/>
			<path id="XMLID_651_" class="st4" d="M212.4,528.3h11.7c1.3,0,2.3,1,2.3,2.3v25.8c0,1.3-1,2.3-2.3,2.3h-11.7
				c-1.3,0-2.3-1-2.3-2.3v-25.8C210.1,529.4,211.1,528.3,212.4,528.3z"/>
		</g>
		<g id="XMLID_645_">
			<path id="XMLID_649_" class="st8" d="M215.9,554.1h-2.3c-0.6,0-1.2-0.5-1.2-1.2v-18.7c0-0.6,0.5-1.2,1.2-1.2h2.3
				c0.6,0,1.2,0.5,1.2,1.2v18.7C217.1,553.5,216.6,554.1,215.9,554.1z"/>
			<path id="XMLID_648_" class="st8" d="M223,554.1h-2.3c-0.6,0-1.2-0.5-1.2-1.2v-18.7c0-0.6,0.5-1.2,1.2-1.2h2.3
				c0.6,0,1.2,0.5,1.2,1.2v18.7C224.1,553.5,223.6,554.1,223,554.1z"/>
			<path id="XMLID_647_" class="st8" d="M276.8,554.1h-2.3c-0.6,0-1.2-0.5-1.2-1.2v-18.7c0-0.6,0.5-1.2,1.2-1.2h2.3
				c0.6,0,1.2,0.5,1.2,1.2v18.7C278,553.5,277.5,554.1,276.8,554.1z"/>
			<path id="XMLID_646_" class="st8" d="M283.8,554.1h-2.3c-0.6,0-1.2-0.5-1.2-1.2v-18.7c0-0.6,0.5-1.2,1.2-1.2h2.3
				c0.6,0,1.2,0.5,1.2,1.2v18.7C285,553.5,284.5,554.1,283.8,554.1z"/>
		</g>
		<g id="XMLID_639_">
			<path id="XMLID_644_" class="st21" d="M230,540h16.4c0.6,0,1.2-0.5,1.2-1.2v-9.4c0-0.6-0.5-1.2-1.2-1.2H230
				c-0.6,0-1.2,0.5-1.2,1.2v9.4C228.8,539.5,229.3,540,230,540z"/>
			<path id="XMLID_643_" class="st21" d="M190.2,540h16.4c0.6,0,1.2-0.5,1.2-1.2v-9.4c0-0.6-0.5-1.2-1.2-1.2h-16.4
				c-0.6,0-1.2,0.5-1.2,1.2v9.4C189,539.5,189.5,540,190.2,540z"/>
			<path id="XMLID_642_" class="st21" d="M169.1,540h16.4c0.6,0,1.2-0.5,1.2-1.2v-9.4c0-0.6-0.5-1.2-1.2-1.2h-16.4
				c-0.6,0-1.2,0.5-1.2,1.2v9.4C168,539.5,168.5,540,169.1,540z"/>
			<path id="XMLID_641_" class="st21" d="M251.1,540h16.4c0.6,0,1.2-0.5,1.2-1.2v-9.4c0-0.6-0.5-1.2-1.2-1.2h-16.4
				c-0.6,0-1.2,0.5-1.2,1.2v9.4C249.9,539.5,250.4,540,251.1,540z"/>
			<path id="XMLID_640_" class="st21" d="M291.2,528.3h-0.4c-0.6,0-1.2,0.5-1.2,1.2v9.4c0,0.6,0.5,1.2,1.2,1.2h3L291.2,528.3z"/>
		</g>
		<g id="XMLID_638_">
		</g>
		<g id="XMLID_636_">
		</g>
		<g id="XMLID_635_">
		</g>
		<g id="XMLID_634_">
		</g>
		<g id="XMLID_633_">
		</g>
		<g id="XMLID_614_">
		</g>
		<g id="XMLID_613_">
		</g>
		<g id="XMLID_612_">
		</g>
		<g id="XMLID_609_">
		</g>
		<g id="XMLID_607_">
		</g>
		<g id="XMLID_606_">
		</g>
		<g id="XMLID_605_">
		</g>
		<g id="XMLID_604_">
		</g>
		<g id="XMLID_603_">
		</g>
		<g id="XMLID_602_">
		</g>
	</g>
</g>
<g id="XMLID_129_" class="st10">
	<g id="XMLID_1147_" class="st11">
		<rect id="XMLID_864_" x="147.2" y="299.4" class="st0" width="76.8" height="22.4"/>
		<g id="XMLID_121_">
			<path id="XMLID_122_" d="M103.1,307c0.1-0.2,0.3-0.3,0.5-0.4c0.1,0,0.2-0.1,0.3-0.1c0.1,0,0.2,0,0.4,0.1c0.2,0.1,0.3,0.2,0.4,0.4
				c0.1,0.2,0,0.4-0.1,0.6c-0.5,0.8-1.1,1.6-1.9,2.5c-0.1,0.1-0.1,0.2-0.1,0.3v10.6c0,0.2-0.1,0.4-0.2,0.6c-0.2,0.2-0.3,0.2-0.6,0.2
				s-0.4-0.1-0.6-0.2c-0.2-0.2-0.2-0.3-0.2-0.6v-8.8c0,0,0,0,0-0.1c0,0-0.1,0-0.1,0c-0.6,0.6-1.2,1.2-1.7,1.6
				c-0.2,0.1-0.3,0.2-0.5,0.2c0,0-0.1,0-0.1,0c-0.2,0-0.4-0.1-0.6-0.3c-0.1-0.2-0.2-0.3-0.2-0.5c0-0.3,0.1-0.5,0.3-0.7
				c0.9-0.7,1.8-1.5,2.6-2.5C101.6,308.9,102.4,308,103.1,307z M102.1,302.3c0.2-0.2,0.4-0.3,0.6-0.4c0.1,0,0.2,0,0.3,0
				c0.1,0,0.3,0,0.4,0.1c0.2,0.1,0.3,0.2,0.4,0.4c0.1,0.2,0,0.4-0.1,0.6c-0.6,0.7-1.3,1.5-2.1,2.2c-0.8,0.8-1.6,1.5-2.4,2.1
				c-0.2,0.1-0.4,0.2-0.6,0.2c-0.2,0-0.4-0.1-0.5-0.3c-0.1-0.2-0.2-0.4-0.1-0.6c0-0.2,0.1-0.4,0.3-0.5c0.7-0.5,1.4-1.1,2.1-1.8
				C101.1,303.5,101.6,302.9,102.1,302.3z M116.8,308.9c0.2,0,0.4,0.1,0.6,0.2s0.2,0.3,0.2,0.6c0,0.2-0.1,0.4-0.2,0.6
				s-0.3,0.2-0.6,0.2h-2.3c-0.1,0-0.2,0-0.2,0.1v8.9c0,0.5-0.1,0.9-0.2,1.2c-0.1,0.3-0.4,0.5-0.7,0.6c-0.5,0.1-1.6,0.2-3.3,0.3
				c-0.2,0-0.5-0.1-0.6-0.2c-0.2-0.1-0.3-0.3-0.4-0.6c-0.1-0.2,0-0.4,0.1-0.5c0.1-0.2,0.3-0.2,0.4-0.2c0.6,0,1.2,0,1.6,0
				c0.4,0,0.7,0,1,0c0.2,0,0.4-0.1,0.4-0.1c0.1-0.1,0.1-0.2,0.1-0.4v-8.9c0-0.1-0.1-0.1-0.1-0.1h-6.4c-0.2,0-0.4-0.1-0.6-0.2
				c-0.1-0.1-0.2-0.3-0.2-0.6c0-0.2,0.1-0.4,0.2-0.6c0.1-0.1,0.3-0.2,0.6-0.2H116.8z M116.2,303c0.2,0,0.4,0.1,0.5,0.2
				c0.1,0.1,0.2,0.3,0.2,0.5c0,0.2-0.1,0.4-0.2,0.5c-0.1,0.1-0.3,0.2-0.5,0.2H107c-0.2,0-0.4-0.1-0.5-0.2c-0.1-0.1-0.2-0.3-0.2-0.5
				c0-0.2,0.1-0.4,0.2-0.5c0.1-0.2,0.3-0.2,0.5-0.2H116.2z"/>
			<path id="XMLID_127_" d="M128.4,303.2c0-0.3,0.1-0.5,0.3-0.6c0.2-0.2,0.4-0.3,0.7-0.3c0.2,0,0.4,0.1,0.6,0.3
				c0.2,0.2,0.2,0.4,0.2,0.6v0.1c0,0.5,0.1,1.1,0.2,1.7s0.2,1.3,0.4,2.3c0.2,0.9,0.4,1.9,0.7,2.7c0.3,0.9,0.7,1.8,1.2,2.8
				c0.5,1,1.1,2,1.7,2.8c0.6,0.9,1.4,1.7,2.4,2.5c0.7,0.6,1.5,1.1,2.3,1.6c0.2,0.1,0.3,0.3,0.3,0.6c0,0.2-0.1,0.3-0.2,0.4
				c-0.2,0.2-0.4,0.3-0.6,0.4c-0.1,0-0.2,0-0.3,0c-0.1,0-0.3,0-0.4-0.1c-1-0.6-2-1.2-2.8-2c-1.1-1-2-2.1-2.7-3.3
				c-0.7-1.2-1.3-2.3-1.7-3.4c-0.4-1.1-0.8-2.2-1-3.3c0,0,0,0,0,0s0,0,0,0c-1.2,5.6-3.9,9.6-7.9,12c-0.2,0.1-0.3,0.1-0.5,0.1
				c-0.1,0-0.1,0-0.2,0c-0.2-0.1-0.5-0.2-0.7-0.4c-0.1-0.1-0.2-0.3-0.2-0.5c0-0.2,0.1-0.4,0.3-0.5c0.9-0.5,1.6-1.1,2.4-1.7
				c0.9-0.9,1.7-1.7,2.3-2.5c0.6-0.8,1.1-1.8,1.6-2.9c0.5-1.1,0.8-2,1-2.8c0.2-0.8,0.4-1.7,0.6-2.8c0.1-1,0.2-1.8,0.3-2.3
				C128.4,304.2,128.4,303.8,128.4,303.2z"/>
		</g>
		<g id="XMLID_110_">
			<path id="XMLID_111_" d="M268.8,320.2c-0.3,0-0.5-0.1-0.7-0.3c-0.2-0.2-0.3-0.4-0.3-0.7c0-0.6,0.2-1.2,0.7-1.6
				c3.9-3.5,6.8-6.5,8.6-9.1c1.8-2.6,2.7-5,2.7-7.2c0-1.6-0.4-2.8-1.2-3.8s-2-1.4-3.6-1.4s-3.1,0.7-4.6,2.1
				c-0.3,0.3-0.6,0.4-0.9,0.4c-0.4,0-0.7-0.1-0.9-0.4c-0.3-0.3-0.4-0.6-0.4-0.9c0-0.4,0.1-0.7,0.4-0.9c2.1-2,4.3-3,6.8-3
				c2.3,0,4.2,0.7,5.6,2.1c1.4,1.4,2.1,3.3,2.1,5.7c0,2.5-0.9,5-2.6,7.6s-4.2,5.5-7.5,8.7c0,0-0.1,0.1,0,0.1c0,0,0.1,0.1,0.1,0.1
				c1.9-0.2,3.3-0.2,4-0.2h5.9c0.4,0,0.7,0.1,1,0.4s0.4,0.6,0.4,1s-0.1,0.7-0.4,1s-0.6,0.4-1,0.4H268.8z"/>
			<path id="XMLID_113_" d="M290.8,320.2c-0.4,0-0.7-0.1-1-0.4c-0.3-0.3-0.4-0.6-0.4-1c0-0.4,0.1-0.7,0.4-1c0.3-0.3,0.6-0.4,1-0.4
				h4.3c0.2,0,0.2-0.1,0.2-0.2v-19.2c0-0.2-0.1-0.3-0.2-0.3h-3.4c-0.3,0-0.6-0.1-0.8-0.3c-0.2-0.2-0.3-0.5-0.3-0.8
				c0-0.3,0.1-0.5,0.3-0.8c0.2-0.2,0.4-0.4,0.7-0.5c1.2-0.3,2.4-0.6,3.3-1.1c0.8-0.4,1.6-0.6,2.4-0.6c0.4,0,0.7,0.1,0.9,0.4
				s0.4,0.5,0.4,0.9v22.1c0,0.2,0.1,0.2,0.3,0.2h3.7c0.4,0,0.7,0.1,1,0.4c0.3,0.3,0.4,0.6,0.4,1c0,0.4-0.1,0.7-0.4,1
				c-0.3,0.3-0.6,0.4-1,0.4H290.8z"/>
			<path id="XMLID_115_" d="M315.6,320.7c-2.8,0-5.3-0.9-7.4-2.6c-0.3-0.3-0.5-0.6-0.5-1.1c0-0.3,0.1-0.6,0.3-0.9s0.5-0.4,0.8-0.5
				c0.4,0,0.7,0.1,0.9,0.3c1.6,1.3,3.4,2,5.5,2c1.6,0,2.9-0.6,4-1.7c1.1-1.1,1.6-2.6,1.6-4.5c0-1.9-0.5-3.3-1.5-4.4
				c-1-1.1-2.3-1.6-4-1.6c-1.2,0-2.4,0.3-3.5,1c-0.3,0.2-0.6,0.2-0.9,0.2c-0.3,0-0.6-0.1-0.8-0.2c-0.6-0.4-0.9-0.9-0.8-1.6l0.6-9.2
				c0-0.6,0.3-1.1,0.7-1.5c0.4-0.4,0.9-0.6,1.5-0.6h9.4c0.4,0,0.7,0.1,1,0.4s0.4,0.6,0.4,1s-0.1,0.7-0.4,1c-0.3,0.3-0.6,0.4-1,0.4
				h-8.3c-0.2,0-0.3,0.1-0.3,0.3l-0.6,7.1c0,0,0,0.1,0.1,0.1s0.1,0,0.1,0c1.1-0.6,2.4-0.9,3.7-0.9c2.3,0,4.2,0.7,5.7,2.1
				s2.2,3.5,2.2,6.3c0,1.9-0.4,3.5-1.2,4.9s-1.9,2.4-3.2,3.1S317.1,320.7,315.6,320.7z"/>
			<path id="XMLID_117_" d="M328.7,320.2c-0.3,0-0.5-0.1-0.7-0.3c-0.2-0.2-0.3-0.4-0.3-0.7c0-0.6,0.2-1.2,0.7-1.6
				c3.9-3.5,6.8-6.5,8.6-9.1c1.8-2.6,2.7-5,2.7-7.2c0-1.6-0.4-2.8-1.2-3.8s-2-1.4-3.6-1.4s-3.1,0.7-4.6,2.1
				c-0.3,0.3-0.6,0.4-0.9,0.4c-0.4,0-0.7-0.1-0.9-0.4c-0.3-0.3-0.4-0.6-0.4-0.9c0-0.4,0.1-0.7,0.4-0.9c2.1-2,4.3-3,6.8-3
				c2.3,0,4.2,0.7,5.6,2.1c1.4,1.4,2.1,3.3,2.1,5.7c0,2.5-0.9,5-2.6,7.6s-4.2,5.5-7.5,8.7c0,0-0.1,0.1,0,0.1c0,0,0.1,0.1,0.1,0.1
				c1.9-0.2,3.3-0.2,4-0.2h5.9c0.4,0,0.7,0.1,1,0.4s0.4,0.6,0.4,1s-0.1,0.7-0.4,1s-0.6,0.4-1,0.4H328.7z"/>
			<path id="XMLID_119_" d="M364.9,301.4c0-0.3,0.1-0.5,0.3-0.7s0.4-0.3,0.7-0.3c0.3,0,0.5,0.1,0.7,0.3c0.2,0.2,0.3,0.4,0.3,0.7v0.1
				c0,0.6,0.1,1.2,0.2,1.8s0.2,1.4,0.4,2.5s0.5,2,0.8,3s0.7,2,1.3,3.1s1.2,2.2,1.9,3.1s1.6,1.8,2.6,2.7c0.8,0.7,1.6,1.2,2.5,1.7
				c0.2,0.1,0.4,0.3,0.4,0.6c0,0.2-0.1,0.4-0.2,0.5c-0.2,0.2-0.4,0.4-0.7,0.4c-0.1,0-0.2,0-0.3,0c-0.2,0-0.3,0-0.5-0.1
				c-1.1-0.6-2.2-1.4-3.1-2.2c-1.2-1.1-2.2-2.3-2.9-3.6s-1.4-2.6-1.9-3.8c-0.5-1.2-0.9-2.4-1.1-3.7c0,0,0,0,0,0s0,0,0,0
				c-1.4,6.1-4.3,10.5-8.7,13.2c-0.2,0.1-0.4,0.1-0.6,0.1c-0.1,0-0.1,0-0.2,0c-0.3-0.1-0.5-0.2-0.7-0.4c-0.2-0.1-0.2-0.3-0.2-0.5
				c0-0.3,0.1-0.5,0.3-0.6c0.9-0.5,1.8-1.2,2.6-1.9c1-0.9,1.9-1.9,2.5-2.8s1.2-2,1.7-3.2s0.9-2.2,1.1-3.1s0.5-1.9,0.6-3
				s0.3-2,0.3-2.5C364.9,302.5,364.9,301.9,364.9,301.4z"/>
		</g>
		<g id="XMLID_480_">
			<line id="XMLID_481_" class="st1" x1="159" y1="310.7" x2="207" y2="310.7"/>
		</g>
	</g>
	<g id="XMLID_544_" class="st11">
		<g id="XMLID_597_">
			<g id="XMLID_598_">
				<path id="XMLID_600_" class="st4" d="M235,265.5c1.4,0,2.6-0.6,3.5-1.6s1.4-2.3,1.4-3.7c0-1.4-0.6-2.6-1.6-3.6
					c-1-1-2.2-1.5-3.6-1.4s-2.6,0.6-3.5,1.6s-1.4,2.3-1.4,3.7c0,1.4,0.5,2.6,1.6,3.6C232.4,265.1,233.6,265.6,235,265.5z"/>
				<path id="XMLID_599_" class="st4" d="M252.3,282.8l-7.5-4.1l-6.1-9.8c-1.2-1.5-2.6-2.2-4.4-2.2c-1.2,0-2.3,0.5-3.4,1.5l-9.3,9.4
					c-0.3,0.4-0.5,0.8-0.5,1.2l-1.2,10.5v0.3c0,0.6,0.2,1.2,0.7,1.6c0.5,0.5,1,0.7,1.6,0.7s1.2-0.2,1.6-0.7c0.4-0.5,0.7-1,0.7-1.5
					l1-9l3.3-3.3l-3,25l-5.3,11.8c-0.2,0.5-0.3,1-0.3,1.5c0,1,0.3,1.8,1,2.5c0.7,0.7,1.5,1,2.5,0.9c1.4,0,2.4-0.6,3-1.9l5.7-12.8
					c0-0.1,0-0.2,0.1-0.5c0.1-0.2,0.2-0.4,0.3-0.6c0.1-0.2,0.1-0.4,0.1-0.5l0.7-6.1l5.9,20.1c0.6,1.6,1.8,2.4,3.4,2.3
					c0.9,0,1.7-0.3,2.4-1c0.7-0.7,1-1.5,1-2.5c0-0.1,0-0.2-0.1-0.3c0-0.1-0.1-0.2-0.1-0.3l-8.2-27.9l1-9.1l2.3,3.7
					c0.2,0.3,0.4,0.5,0.7,0.7l8,4.5c0.5,0.2,0.9,0.3,1.1,0.3c0.6,0,1.2-0.2,1.6-0.7c0.5-0.5,0.7-1.1,0.7-1.7
					C253.3,283.8,253,283.2,252.3,282.8z"/>
			</g>
		</g>
		<g id="XMLID_596_">
		</g>
		<g id="XMLID_594_">
		</g>
		<g id="XMLID_590_">
		</g>
		<g id="XMLID_558_">
		</g>
		<g id="XMLID_557_">
		</g>
		<g id="XMLID_555_">
		</g>
		<g id="XMLID_554_">
		</g>
		<g id="XMLID_553_">
		</g>
		<g id="XMLID_552_">
		</g>
		<g id="XMLID_551_">
		</g>
		<g id="XMLID_550_">
		</g>
		<g id="XMLID_549_">
		</g>
		<g id="XMLID_548_">
		</g>
		<g id="XMLID_546_">
		</g>
		<g id="XMLID_545_">
		</g>
	</g>
</g>
</svg>
