<?xml version="1.0" encoding="utf-8"?>
<!-- Generator: Adobe Illustrator 19.0.0, SVG Export Plug-In . SVG Version: 6.00 Build 0)  -->
<svg version="1.1" id="圖層_1" xmlns="http://www.w3.org/2000/svg" xmlns:xlink="http://www.w3.org/1999/xlink" x="0px" y="0px"
	 viewBox="0 0 1280 77.8" style="enable-background:new 0 0 1280 77.8;" xml:space="preserve">
<style type="text/css">
	.st0{display:none;}
	.st1{display:inline;}
	.st2{fill:#808080;}
	.st3{fill:#FFD16F;stroke:#FFD16F;stroke-width:2;stroke-linecap:round;stroke-linejoin:round;stroke-miterlimit:10;}
	.st4{fill:#CAC9CD;}
	.st5{fill:#B9B7BD;}
	.st6{fill:#504B5A;}
	.st7{fill:#DCDBDE;}
	.st8{fill:#00AADC;}
	.st9{fill:#64BEF0;}
	.st10{fill:#625D6B;}
	.st11{fill:#EDEDEE;}
	.st12{fill:#FF9164;}
	.st13{fill:#AFF078;}
	.st14{fill:#96E178;}
	.st15{fill:#8CCD73;}
	.st16{fill:#FF6464;}
	.st17{fill:#FCDFAC;}
	.st18{fill:#FFD16F;}
	.st19{fill:#F9B438;}
	.st20{font-family:'ArialRoundedMTBold';}
	.st21{font-size:4.2319px;}
	.st22{fill:#736F7B;}
	.st23{fill:#514A5B;}
	.st24{fill:#D2555A;}
</style>
<g id="XMLID_67_" class="st0">
	<g id="XMLID_851_" class="st1">
		<g id="XMLID_23_">
			<path id="XMLID_24_" d="M114.5-103.8c0.1-0.2,0.2-0.3,0.4-0.4c0.2-0.1,0.4-0.1,0.6,0c0.2,0.1,0.3,0.2,0.4,0.4s0.1,0.4,0,0.6
				c-0.5,1-1.2,1.9-2.1,2.7c-0.1,0.1-0.1,0.2,0,0.3c0.6,1.1,1.3,1.6,2.1,1.6c0.3,0,0.5-0.1,0.6-0.4c0.1-0.3,0.2-0.7,0.3-1.4
				c0-0.1,0.1-0.2,0.2-0.3c0.1,0,0.2,0,0.4,0c0.4,0.2,0.5,0.5,0.5,0.8c0,0,0,0.1,0,0.1c-0.1,1-0.4,1.6-0.7,2
				c-0.3,0.4-0.8,0.5-1.4,0.5c-1.2,0-2.2-0.7-3.1-2.1c-0.1-0.1-0.1-0.1-0.2,0c-0.9,0.7-1.9,1.3-3.1,1.8c-0.2,0.1-0.4,0.1-0.6,0.1
				c-0.2,0-0.3-0.2-0.5-0.3c-0.1-0.1-0.1-0.3-0.1-0.4c0-0.2,0.1-0.3,0.3-0.3c1.3-0.6,2.4-1.2,3.4-2c0.1-0.1,0.1-0.2,0.1-0.3
				c-0.4-1.1-0.8-2.3-1-3.8c0-0.1-0.1-0.1-0.2-0.1h-3.1c-0.1,0-0.2,0.1-0.2,0.1c0,0.1,0,0.4-0.1,1c0,0.1,0,0.2,0.1,0.2
				c0.9,0.6,1.7,1.1,2.3,1.6c0.2,0.1,0.2,0.3,0.3,0.5c0,0.2,0,0.4-0.2,0.5c-0.1,0.2-0.3,0.2-0.5,0.3c-0.2,0-0.4,0-0.5-0.2
				c-0.5-0.4-1.1-0.8-1.7-1.3c-0.1-0.1-0.1,0-0.1,0.1c-0.2,0.9-0.5,1.7-0.9,2.4s-0.8,1.3-1.4,1.8c-0.2,0.1-0.3,0.2-0.5,0.2
				c-0.2,0-0.4-0.1-0.5-0.3c-0.1-0.1-0.2-0.3-0.2-0.5c0-0.2,0.1-0.3,0.2-0.5c0.7-0.6,1.2-1.4,1.5-2.4c0.3-1,0.5-2.1,0.7-3.4
				c0-0.1,0-0.1-0.1-0.1h-0.3c-0.3,0-0.6-0.1-0.8-0.3c-0.2-0.2-0.3-0.5-0.3-0.8v0c0,0,0,0,0,0s0,0,0,0c-0.1,0.2-0.3,0.3-0.5,0.2
				s-0.4-0.1-0.5-0.3c-0.3-0.6-0.6-1.3-1-2.1c0,0,0,0-0.1,0c0,0,0,0,0,0v10c0,0.2-0.1,0.4-0.2,0.5c-0.1,0.1-0.3,0.2-0.5,0.2
				s-0.4-0.1-0.5-0.2c-0.1-0.1-0.2-0.3-0.2-0.5v-9.2c0,0,0,0,0,0c0,0,0,0,0,0c-0.6,2.1-1.3,3.8-2,5.1c-0.1,0.2-0.2,0.2-0.4,0.2
				s-0.3-0.1-0.4-0.2c-0.1-0.2-0.2-0.5-0.2-0.7c0-0.2,0.1-0.4,0.2-0.7c0.5-0.9,1-2,1.5-3.4c0.5-1.3,0.9-2.7,1.1-4
				c0-0.1,0-0.1-0.1-0.1h-1.7c-0.2,0-0.4-0.1-0.5-0.2c-0.1-0.1-0.2-0.3-0.2-0.5s0.1-0.4,0.2-0.5c0.1-0.1,0.3-0.2,0.5-0.2h1.9
				c0.1,0,0.1,0,0.1-0.1v-3.8c0-0.2,0.1-0.4,0.2-0.5c0.1-0.1,0.3-0.2,0.5-0.2s0.4,0.1,0.5,0.2c0.1,0.1,0.2,0.3,0.2,0.5v3.8
				c0,0.1,0,0.1,0.1,0.1h1.5c0.2,0,0.4,0.1,0.5,0.2c0.1,0.1,0.2,0.3,0.2,0.5s-0.1,0.4-0.2,0.5c-0.1,0.1-0.3,0.2-0.5,0.2h-1.5
				c-0.1,0-0.1,0.1-0.1,0.1v0.7c0,0.1,0,0.2,0.1,0.3c0.8,1.2,1.6,2.3,2.2,3.5c0.1,0.1,0.1,0.2,0,0.2v0h6c0.1,0,0.1,0,0.1-0.1
				c-0.4-2.7-0.6-6.1-0.7-10.2c0-0.2,0.1-0.4,0.2-0.5c0.1-0.1,0.3-0.2,0.5-0.2c0.2,0,0.4,0.1,0.5,0.2c0.1,0.1,0.2,0.3,0.2,0.5
				c0,0.1,0,0.2,0,0.3c0,3.7,0.2,7,0.6,9.9c0,0.1,0.1,0.1,0.2,0.1h2.7c0,0,0,0,0,0c0,0,0,0,0-0.1c-0.4-0.3-0.8-0.6-1.2-0.9
				c-0.1-0.1-0.2-0.2-0.2-0.3c0-0.1,0-0.3,0.1-0.4c0.2-0.2,0.3-0.2,0.5-0.2c0.1,0,0.2,0,0.4,0.1c0.5,0.3,1,0.6,1.4,0.9
				c0.1,0.1,0.2,0.2,0.2,0.4c0,0.2,0,0.3-0.2,0.4l0,0h1.1c0.2,0,0.3,0.1,0.5,0.2c0.1,0.1,0.2,0.3,0.2,0.5c0,0.2-0.1,0.3-0.2,0.5
				c-0.1,0.1-0.3,0.2-0.5,0.2h-4.5c-0.1,0-0.1,0.1-0.1,0.1c0.2,1,0.4,1.9,0.7,2.7c0,0,0,0,0.1,0.1c0,0,0.1,0,0.1,0
				C113.7-102.5,114.1-103.1,114.5-103.8z M104.3-108.4c0-0.2,0-0.3,0.1-0.5s0.2-0.2,0.4-0.2h0c0.1,0,0.1,0,0.1-0.1
				c0.4-0.5,0.8-1.1,1.3-1.9c0.1-0.1,0-0.2,0-0.3c-0.5-0.6-1.1-1.2-1.8-1.8c-0.1-0.1-0.2-0.2-0.2-0.4c0-0.2,0-0.3,0.1-0.4
				c0.1-0.1,0.2-0.2,0.4-0.2c0.1,0,0.3,0,0.4,0.1h0c0,0,0.1,0,0.1,0c0.4-0.7,0.7-1.5,1-2.4c0.1-0.2,0.2-0.3,0.4-0.4s0.3-0.1,0.5,0
				c0.2,0.1,0.3,0.2,0.3,0.4c0.1,0.2,0.1,0.3,0,0.5c-0.6,1.2-1.1,2.1-1.4,2.5c-0.1,0.1,0,0.2,0,0.2c0.3,0.3,0.5,0.5,0.7,0.7
				c0.1,0.1,0.1,0.1,0.2,0c0.4-0.7,0.7-1.3,1-1.8c0.1-0.2,0.2-0.3,0.4-0.3c0.2-0.1,0.3-0.1,0.5,0c0.2,0.1,0.3,0.2,0.3,0.4
				s0,0.3-0.1,0.5c-1.1,1.8-2,3.3-2.9,4.4c0,0,0,0.1,0,0.1s0,0,0.1,0l1.8-0.1c0.1,0,0.1,0,0.1-0.1c-0.1-0.3-0.2-0.5-0.3-0.7
				c-0.1-0.1-0.1-0.3,0-0.4c0-0.1,0.1-0.2,0.3-0.3c0.1,0,0.3,0,0.4,0c0.1,0.1,0.2,0.1,0.3,0.3c0.4,0.7,0.6,1.4,0.8,2.1
				c0.1,0.2,0,0.3,0,0.5c-0.1,0.1-0.2,0.3-0.4,0.3c-0.1,0.1-0.3,0-0.4,0c-0.1-0.1-0.2-0.2-0.3-0.3c0,0,0-0.1,0-0.1
				c0-0.1-0.1-0.1-0.1-0.1c-0.9,0.1-2.1,0.2-3.7,0.3c-0.2,0-0.4,0-0.5-0.1C104.5-108.1,104.4-108.2,104.3-108.4z M111.9-108.7
				c0-0.2,0-0.3,0.1-0.4c0.1-0.1,0.2-0.2,0.4-0.2c0,0,0.1,0,0.1-0.1c0.4-0.6,0.8-1.1,1.2-1.7c0.1-0.1,0-0.2,0-0.3
				c-0.5-0.6-1.1-1.2-1.8-1.8c-0.1-0.1-0.2-0.2-0.2-0.4c0-0.1,0-0.3,0.1-0.4c0.1-0.1,0.2-0.2,0.4-0.2s0.3,0,0.4,0.1c0,0,0.1,0,0.1,0
				c0.4-0.8,0.8-1.6,1.1-2.4c0.1-0.2,0.2-0.3,0.4-0.4c0.2-0.1,0.3-0.1,0.5,0c0.2,0.1,0.3,0.2,0.4,0.4c0.1,0.2,0.1,0.3,0,0.5
				c-0.5,0.9-1,1.8-1.4,2.5c-0.1,0.1,0,0.2,0,0.3c0.4,0.4,0.6,0.6,0.7,0.7c0.1,0.1,0.1,0.1,0.2,0c0.4-0.7,0.7-1.3,1-1.8
				c0.1-0.2,0.2-0.3,0.4-0.3c0.2-0.1,0.3-0.1,0.5,0c0.2,0.1,0.3,0.2,0.3,0.4c0,0.2,0,0.3-0.1,0.5c-1,1.7-1.9,3.1-2.7,4.2
				c0,0,0,0.1,0,0.1c0,0,0,0,0.1,0l2-0.1c0,0,0.1,0,0.1-0.1c0,0,0-0.1,0-0.1c-0.1-0.2-0.2-0.4-0.3-0.6c-0.1-0.1-0.1-0.3,0-0.4
				s0.1-0.2,0.3-0.3c0.1-0.1,0.3-0.1,0.4,0c0.1,0.1,0.3,0.1,0.3,0.3c0.4,0.8,0.7,1.5,0.9,2.1c0.1,0.2,0,0.3,0,0.5
				c-0.1,0.1-0.2,0.3-0.3,0.4c-0.1,0.1-0.3,0.1-0.4,0c-0.1-0.1-0.2-0.2-0.3-0.3c0-0.1,0-0.1-0.1-0.2c0-0.1-0.1-0.1-0.1-0.1
				c-0.3,0-1.5,0.1-3.8,0.3c-0.2,0-0.3,0-0.5-0.1C112-108.3,111.9-108.5,111.9-108.7z"/>
			<path id="XMLID_28_" d="M138.7-102.4c0.2,0,0.4,0.1,0.5,0.2c0.1,0.1,0.2,0.3,0.2,0.5c0,0.2-0.1,0.4-0.2,0.5
				c-0.1,0.1-0.3,0.2-0.5,0.2h-8.1c-0.1,0-0.2,0.1-0.2,0.2v2.3c0,0.2-0.1,0.4-0.2,0.6s-0.4,0.2-0.6,0.2s-0.4-0.1-0.6-0.2
				c-0.2-0.2-0.2-0.4-0.2-0.6v-2.3c0-0.1-0.1-0.2-0.1-0.2h-8c-0.2,0-0.4-0.1-0.5-0.2c-0.1-0.1-0.2-0.3-0.2-0.5
				c0-0.2,0.1-0.4,0.2-0.5c0.1-0.1,0.3-0.2,0.5-0.2h8c0.1,0,0.1-0.1,0.1-0.2v-1.5c0-0.1-0.1-0.2-0.1-0.2h-5.1
				c-0.3,0-0.6-0.1-0.9-0.4c-0.2-0.2-0.4-0.5-0.4-0.9v-6c0-0.3,0.1-0.6,0.4-0.9c0.2-0.2,0.5-0.4,0.9-0.4h5.1c0.1,0,0.1,0,0.1-0.1
				v-1.3c0-0.1-0.1-0.1-0.1-0.1h-7.3c-0.2,0-0.4-0.1-0.5-0.2c-0.1-0.1-0.2-0.3-0.2-0.5c0-0.2,0.1-0.4,0.2-0.5
				c0.1-0.1,0.3-0.2,0.5-0.2h7.3c0.1,0,0.1,0,0.1-0.1v-1c0-0.2,0.1-0.4,0.2-0.6c0.2-0.2,0.4-0.2,0.6-0.2s0.4,0.1,0.6,0.2
				c0.2,0.2,0.2,0.4,0.2,0.6v1c0,0.1,0.1,0.1,0.2,0.1h7.4c0.2,0,0.4,0.1,0.5,0.2c0.1,0.1,0.2,0.3,0.2,0.5c0,0.2-0.1,0.4-0.2,0.5
				c-0.1,0.1-0.3,0.2-0.5,0.2h-7.4c-0.1,0-0.2,0-0.2,0.1v1.3c0,0.1,0.1,0.1,0.2,0.1h5.3c0.3,0,0.6,0.1,0.9,0.4s0.4,0.5,0.4,0.9v6
				c0,0.3-0.1,0.6-0.4,0.9s-0.5,0.4-0.9,0.4h-5.3c-0.1,0-0.2,0.1-0.2,0.2v1.5c0,0.1,0.1,0.2,0.2,0.2H138.7z M123.8-111.3
				c-0.1,0-0.1,0.1-0.1,0.1v1.9c0,0.1,0,0.1,0.1,0.1h4.7c0.1,0,0.1,0,0.1-0.1v-1.9c0-0.1-0.1-0.1-0.1-0.1H123.8z M123.7-105.7
				c0,0.1,0,0.1,0.1,0.1h4.7c0.1,0,0.1,0,0.1-0.1v-1.9c0-0.1-0.1-0.2-0.1-0.2h-4.7c-0.1,0-0.1,0.1-0.1,0.2V-105.7z M135.4-111.1
				c0-0.1-0.1-0.1-0.1-0.1h-4.8c-0.1,0-0.2,0.1-0.2,0.1v1.9c0,0.1,0.1,0.1,0.2,0.1h4.8c0.1,0,0.1,0,0.1-0.1V-111.1z M135.3-105.5
				c0.1,0,0.1,0,0.1-0.1v-1.9c0-0.1-0.1-0.2-0.1-0.2h-4.8c-0.1,0-0.2,0.1-0.2,0.2v1.9c0,0.1,0.1,0.1,0.2,0.1H135.3z"/>
		</g>
		<g id="XMLID_1_">
			<path id="XMLID_2_" d="M1063.6-96.4c-0.3,0-0.5-0.1-0.7-0.3c-0.2-0.2-0.3-0.4-0.3-0.7c0-0.6,0.2-1.2,0.7-1.6
				c3.9-3.5,6.8-6.5,8.6-9.1c1.8-2.6,2.7-5,2.7-7.2c0-1.6-0.4-2.8-1.2-3.8s-2-1.4-3.6-1.4s-3.1,0.7-4.6,2.1
				c-0.3,0.3-0.6,0.4-0.9,0.4c-0.4,0-0.7-0.1-0.9-0.4c-0.3-0.3-0.4-0.6-0.4-0.9c0-0.4,0.1-0.7,0.4-0.9c2.1-2,4.3-3,6.8-3
				c2.3,0,4.2,0.7,5.6,2.1c1.4,1.4,2.1,3.3,2.1,5.7c0,2.5-0.9,5-2.6,7.6s-4.2,5.5-7.5,8.7c0,0-0.1,0.1,0,0.1c0,0,0.1,0.1,0.1,0.1
				c1.9-0.2,3.3-0.2,4-0.2h5.9c0.4,0,0.7,0.1,1,0.4s0.4,0.6,0.4,1s-0.1,0.7-0.4,1s-0.6,0.4-1,0.4H1063.6z"/>
			<path id="XMLID_4_" d="M1098.5-106.4c0.4,0,0.7,0.1,0.9,0.4c0.3,0.3,0.4,0.6,0.4,0.9c0,0.4-0.1,0.7-0.4,0.9
				c-0.3,0.3-0.6,0.4-0.9,0.4h-1.9c-0.2,0-0.3,0.1-0.3,0.3v5.4c0,0.4-0.2,0.8-0.5,1.1c-0.3,0.3-0.7,0.5-1.1,0.5s-0.8-0.2-1.1-0.5
				c-0.3-0.3-0.5-0.7-0.5-1.1v-5.4c0-0.2-0.1-0.3-0.2-0.3h-10.2c-0.3,0-0.6-0.1-0.8-0.3s-0.3-0.5-0.3-0.8c0-0.7,0.2-1.4,0.6-2
				l9.4-14.5c0.7-1,1.6-1.5,2.8-1.5c0.5,0,0.9,0.2,1.3,0.5c0.4,0.4,0.5,0.8,0.5,1.3v14.4c0,0.2,0.1,0.2,0.3,0.2H1098.5z
				 M1085.3-106.6c0,0,0,0.1,0,0.1c0,0,0.1,0.1,0.1,0.1h7.6c0.2,0,0.2-0.1,0.2-0.2v-7.8c0-0.5,0.1-2.1,0.2-4.7c0,0,0-0.1-0.1-0.1
				s-0.1,0-0.1,0.1c-0.6,1.1-1.3,2.4-2.1,3.8L1085.3-106.6z"/>
			<path id="XMLID_7_" d="M1110.3-96c-2.8,0-5.3-0.9-7.4-2.6c-0.3-0.3-0.5-0.6-0.5-1.1c0-0.3,0.1-0.6,0.3-0.9s0.5-0.4,0.8-0.5
				c0.4,0,0.7,0.1,0.9,0.3c1.6,1.3,3.4,2,5.5,2c1.6,0,2.9-0.6,4-1.7c1.1-1.1,1.6-2.6,1.6-4.5c0-1.9-0.5-3.3-1.5-4.4
				c-1-1.1-2.3-1.6-4-1.6c-1.2,0-2.4,0.3-3.5,1c-0.3,0.2-0.6,0.2-0.9,0.2c-0.3,0-0.6-0.1-0.8-0.2c-0.6-0.4-0.9-0.9-0.8-1.6l0.6-9.2
				c0-0.6,0.3-1.1,0.7-1.5c0.4-0.4,0.9-0.6,1.5-0.6h9.4c0.4,0,0.7,0.1,1,0.4s0.4,0.6,0.4,1s-0.1,0.7-0.4,1c-0.3,0.3-0.6,0.4-1,0.4
				h-8.3c-0.2,0-0.3,0.1-0.3,0.3l-0.6,7.1c0,0,0,0.1,0.1,0.1s0.1,0,0.1,0c1.1-0.6,2.4-0.9,3.7-0.9c2.3,0,4.2,0.7,5.7,2.1
				s2.2,3.5,2.2,6.3c0,1.9-0.4,3.5-1.2,4.9s-1.9,2.4-3.2,3.1S1111.8-96,1110.3-96z"/>
			<path id="XMLID_9_" d="M1124-97.7c-0.3-0.2-0.5-0.5-0.5-0.9s0.1-0.7,0.4-1c0.2-0.3,0.5-0.4,0.9-0.4c0.4,0,0.7,0.1,1,0.3
				c1.1,0.7,2.2,1.1,3.4,1.1c1.9,0,3.4-0.8,4.6-2.5c1.2-1.7,1.9-4.4,2-8.2c0,0,0-0.1-0.1-0.1c0,0-0.1,0-0.1,0
				c-0.8,0.9-1.7,1.7-2.8,2.2c-1,0.6-2.1,0.8-3.1,0.8c-2.2,0-4-0.7-5.3-2.1c-1.3-1.4-2-3.5-2-6.2c0-2.5,0.7-4.6,2.2-6.2
				c1.5-1.6,3.3-2.4,5.4-2.4c2.6,0,4.8,1.1,6.4,3.2c1.6,2.2,2.4,5.3,2.4,9.3c0,2.6-0.3,4.8-0.8,6.8c-0.5,2-1.2,3.5-2.1,4.6
				c-0.9,1.1-1.9,2-3,2.5s-2.3,0.8-3.6,0.8C1127.3-96,1125.5-96.6,1124-97.7z M1130.3-108.9c2,0,3.8-1.1,5.4-3.3
				c0.1-0.1,0.1-0.3,0.1-0.5c-0.2-2.6-0.8-4.6-1.8-6s-2.3-2.1-4-2.1c-1.3,0-2.4,0.6-3.2,1.7c-0.8,1.1-1.3,2.5-1.3,4.3
				c0,1.8,0.4,3.3,1.2,4.3C1127.6-109.4,1128.8-108.9,1130.3-108.9z"/>
			<path id="XMLID_12_" d="M1144-97.7c-0.3-0.2-0.5-0.5-0.5-0.9s0.1-0.7,0.4-1c0.2-0.3,0.5-0.4,0.9-0.4c0.4,0,0.7,0.1,1,0.3
				c1.1,0.7,2.2,1.1,3.4,1.1c1.9,0,3.4-0.8,4.6-2.5c1.2-1.7,1.9-4.4,2-8.2c0,0,0-0.1-0.1-0.1c0,0-0.1,0-0.1,0
				c-0.8,0.9-1.7,1.7-2.8,2.2c-1,0.6-2.1,0.8-3.1,0.8c-2.2,0-4-0.7-5.3-2.1c-1.3-1.4-2-3.5-2-6.2c0-2.5,0.7-4.6,2.2-6.2
				c1.5-1.6,3.3-2.4,5.4-2.4c2.6,0,4.8,1.1,6.4,3.2c1.6,2.2,2.4,5.3,2.4,9.3c0,2.6-0.3,4.8-0.8,6.8c-0.5,2-1.2,3.5-2.1,4.6
				c-0.9,1.1-1.9,2-3,2.5s-2.3,0.8-3.6,0.8C1147.3-96,1145.5-96.6,1144-97.7z M1150.3-108.9c2,0,3.8-1.1,5.4-3.3
				c0.1-0.1,0.1-0.3,0.1-0.5c-0.2-2.6-0.8-4.6-1.8-6s-2.3-2.1-4-2.1c-1.3,0-2.4,0.6-3.2,1.7c-0.8,1.1-1.3,2.5-1.3,4.3
				c0,1.8,0.4,3.3,1.2,4.3C1147.6-109.4,1148.7-108.9,1150.3-108.9z"/>
			<path id="XMLID_15_" d="M1175.4-102.2c-0.1,0-0.2,0.1-0.2,0.2v1.5c0,0.1,0.1,0.2,0.2,0.2h2.6c0.2,0,0.4,0.1,0.6,0.2
				s0.2,0.3,0.2,0.5s-0.1,0.4-0.2,0.6s-0.3,0.2-0.6,0.2h-2.6c-0.1,0-0.2,0.1-0.2,0.2v3.3c0,0.2-0.1,0.4-0.2,0.6s-0.3,0.2-0.5,0.2
				s-0.4-0.1-0.5-0.2s-0.2-0.3-0.2-0.6v-3.3c0-0.1-0.1-0.2-0.2-0.2h-2.8c-0.2,0-0.4-0.1-0.6-0.2s-0.2-0.3-0.2-0.6s0.1-0.4,0.2-0.5
				s0.3-0.2,0.6-0.2h2.8c0.1,0,0.2-0.1,0.2-0.2v-1.5c0-0.1-0.1-0.2-0.2-0.2h-1.5c-0.4,0-0.7-0.1-1-0.4s-0.4-0.6-0.4-1v-5.7
				c0-0.4,0.1-0.7,0.4-1s0.6-0.4,1-0.4h1.5c0.1,0,0.2-0.1,0.2-0.2v-1.4c0-0.1-0.1-0.2-0.2-0.2h-2.6c-0.2,0-0.4-0.1-0.6-0.2
				s-0.2-0.3-0.2-0.5s0.1-0.4,0.2-0.5s0.3-0.2,0.6-0.2h2.6c0.1,0,0.2-0.1,0.2-0.2v-1.6c0-0.2,0.1-0.4,0.2-0.6s0.3-0.2,0.5-0.2
				s0.4,0.1,0.5,0.2s0.2,0.3,0.2,0.6v1.6c0,0.1,0.1,0.2,0.2,0.2h2.4c0.2,0,0.4,0.1,0.6,0.2s0.2,0.3,0.2,0.5s-0.1,0.4-0.2,0.5
				s-0.3,0.2-0.6,0.2h-2.4c-0.1,0-0.2,0.1-0.2,0.2v1.4c0,0.1,0.1,0.2,0.2,0.2h1.5c0.4,0,0.7,0.1,1,0.4s0.4,0.6,0.4,1v5.7
				c0,0.4-0.1,0.7-0.4,1s-0.6,0.4-1,0.4H1175.4z M1172.1-109.3c-0.1,0-0.2,0.1-0.2,0.2v1.9c0,0.1,0.1,0.2,0.2,0.2h1.6
				c0.1,0,0.2-0.1,0.2-0.2v-1.9c0-0.1-0.1-0.2-0.2-0.2H1172.1z M1172.1-105.8c-0.1,0-0.2,0.1-0.2,0.2v1.9c0,0.1,0.1,0.2,0.2,0.2h1.6
				c0.1,0,0.2-0.1,0.2-0.2v-1.9c0-0.1-0.1-0.2-0.2-0.2H1172.1z M1176.9-107.1c0.1,0,0.2-0.1,0.2-0.2v-1.9c0-0.1-0.1-0.2-0.2-0.2
				h-1.6c-0.1,0-0.2,0.1-0.2,0.2v1.9c0,0.1,0.1,0.2,0.2,0.2H1176.9z M1176.9-103.5c0.1,0,0.2-0.1,0.2-0.2v-1.9
				c0-0.1-0.1-0.2-0.2-0.2h-1.6c-0.1,0-0.2,0.1-0.2,0.2v1.9c0,0.1,0.1,0.2,0.2,0.2H1176.9z M1191.5-114.4c0.2,0.1,0.2,0.3,0.2,0.6
				s-0.1,0.4-0.2,0.6s-0.3,0.2-0.5,0.2h-4.7c-0.1,0-0.2,0.1-0.2,0.2v2c0,0.1,0.1,0.2,0.2,0.2h3.8c0.4,0,0.7,0.1,1,0.4s0.4,0.6,0.4,1
				v12.8c0,0.4-0.1,0.8-0.2,1s-0.3,0.4-0.6,0.6c-0.4,0.2-1.2,0.3-2.2,0.3c-0.2,0-0.4-0.1-0.6-0.2s-0.3-0.3-0.4-0.6
				c0-0.2,0-0.3,0.1-0.5s0.2-0.2,0.4-0.2c0.4,0,0.7,0,0.9,0c0.3,0,0.5,0,0.7,0c0.1,0,0.2,0,0.3-0.1s0.1-0.2,0.1-0.3v-2.9
				c0,0,0,0,0,0s0,0,0,0c-0.1,0.1-0.3,0.2-0.4,0.1s-0.3-0.1-0.4-0.2c-0.5-0.8-0.8-1.7-1-2.8c0,0,0,0,0,0s0,0,0,0
				c-0.2,1.1-0.6,1.9-1,2.6c-0.1,0.2-0.3,0.3-0.5,0.3s-0.4-0.1-0.6-0.2c0,0,0,0-0.1,0s0,0,0,0.1v4.2c0,0.2-0.1,0.3-0.2,0.4
				s-0.3,0.2-0.4,0.2s-0.3-0.1-0.4-0.2s-0.2-0.3-0.2-0.4v-4.2c0-0.1,0-0.1-0.1,0c-0.2,0.1-0.4,0.2-0.6,0.2s-0.4-0.2-0.4-0.3
				c-0.3-0.6-0.5-1.4-0.7-2.2c0,0,0,0,0,0s0,0,0,0c-0.2,1.1-0.6,2-1,2.7c-0.1,0.1-0.2,0.2-0.3,0.2s-0.2-0.1-0.3-0.2
				c-0.1-0.2-0.2-0.3-0.2-0.5c0-0.1,0-0.3,0.1-0.4c0.7-1.1,1.1-2.9,1.4-5.5c0-0.1,0-0.1-0.1-0.1h-0.4c-0.2,0-0.3-0.1-0.4-0.2
				s-0.2-0.3-0.2-0.4s0.1-0.3,0.2-0.4s0.2-0.2,0.4-0.2h0.5c0.3,0,0.5,0.1,0.7,0.3s0.3,0.5,0.3,0.8c0,2.6,0.4,4.6,1.1,5.9
				c0,0,0,0,0.1,0s0,0,0,0v-8.8c0-0.1-0.1-0.2-0.2-0.2h-3.7c-0.1,0-0.2,0.1-0.2,0.2v13.7c0,0.2-0.1,0.3-0.2,0.5s-0.3,0.2-0.5,0.2
				s-0.4-0.1-0.5-0.2s-0.2-0.3-0.2-0.5v-14c0-0.4,0.1-0.7,0.4-1s0.6-0.4,1-0.4h3.6c0.1,0,0.2-0.1,0.2-0.2v-2c0-0.1-0.1-0.2-0.2-0.2
				h-4.5c-0.2,0-0.4-0.1-0.5-0.2s-0.2-0.3-0.2-0.6s0.1-0.4,0.2-0.6s0.3-0.2,0.5-0.2h11.1C1191.1-114.6,1191.3-114.6,1191.5-114.4z
				 M1189.8-100.3C1189.9-100.3,1189.9-100.3,1189.8-100.3C1189.9-100.3,1189.9-100.3,1189.8-100.3l0.1-8.7c0-0.1-0.1-0.2-0.2-0.2
				h-3.8c-0.1,0-0.2,0.1-0.2,0.2v8.9c0,0,0,0.1,0,0.1s0.1,0,0.1,0c0.8-1,1.3-2.9,1.6-5.8c0-0.1,0-0.1-0.1-0.1h-0.4
				c-0.2,0-0.3-0.1-0.4-0.2s-0.2-0.3-0.2-0.4s0.1-0.3,0.2-0.4s0.2-0.2,0.4-0.2h0.5c0.3,0,0.6,0.1,0.8,0.3s0.3,0.5,0.3,0.8
				c0,1.2,0.1,2.2,0.3,3.2S1189.4-101.1,1189.8-100.3z"/>
		</g>
		<g id="XMLID_448_">
			<rect id="XMLID_867_" x="147.2" y="-118" class="st2" width="852.5" height="22.4"/>
			<g id="XMLID_494_">
				<line id="XMLID_533_" class="st3" x1="159" y1="-107.2" x2="207" y2="-107.2"/>
				<line id="XMLID_504_" class="st3" x1="232" y1="-107.2" x2="280" y2="-107.2"/>
				<line id="XMLID_503_" class="st3" x1="306" y1="-107.2" x2="354" y2="-107.2"/>
				<line id="XMLID_502_" class="st3" x1="379" y1="-107.2" x2="427" y2="-107.2"/>
				<line id="XMLID_501_" class="st3" x1="453" y1="-107.2" x2="501" y2="-107.2"/>
				<line id="XMLID_500_" class="st3" x1="526" y1="-107.2" x2="574" y2="-107.2"/>
				<line id="XMLID_499_" class="st3" x1="599" y1="-107.2" x2="647" y2="-107.2"/>
				<line id="XMLID_498_" class="st3" x1="673" y1="-107.2" x2="721" y2="-107.2"/>
				<line id="XMLID_497_" class="st3" x1="746" y1="-107.2" x2="794" y2="-107.2"/>
				<line id="XMLID_496_" class="st3" x1="820" y1="-107.2" x2="868" y2="-107.2"/>
				<line id="XMLID_495_" class="st3" x1="893" y1="-107.2" x2="941" y2="-107.2"/>
			</g>
		</g>
	</g>
	<g id="XMLID_814_" class="st1">

			<rect id="XMLID_850_" x="998.1" y="-163.3" transform="matrix(0.4472 0.8944 -0.8944 0.4472 410.493 -987.2719)" class="st4" width="11.8" height="3.5"/>
		<path id="XMLID_849_" class="st5" d="M1030.3-105.4c-2.4,0-4.4-2-4.4-4.4s2-4.4,4.4-4.4s4.4,2,4.4,4.4
			C1034.6-107.4,1032.7-105.4,1030.3-105.4z"/>
		<path id="XMLID_846_" class="st6" d="M1030.3-123c-7.3,0-13.1,5.9-13.1,13.1s5.9,13.1,13.1,13.1c7.3,0,13.1-5.9,13.1-13.1
			S1037.5-123,1030.3-123z M1030.3-101.9c-4.4,0-7.9-3.5-7.9-7.9s3.5-7.9,7.9-7.9s7.9,3.5,7.9,7.9
			C1038.2-105.5,1034.6-101.9,1030.3-101.9z"/>
		<path id="XMLID_845_" class="st7" d="M1030.2-108.2c-0.6,0-1.2-0.3-1.5-0.8l-8.6-14.4c-0.5-0.8-0.2-1.9,0.6-2.4
			c0.8-0.5,1.9-0.2,2.4,0.6l8.6,14.4c0.5,0.8,0.2,1.9-0.6,2.4C1030.8-108.3,1030.5-108.2,1030.2-108.2z"/>
		<path id="XMLID_844_" class="st8" d="M1018.5-118.7h16.4c0.7,0,1.3-0.4,1.6-1l0.9-1.8c0.5-1,0.2-2.1-0.6-2.8
			c-1.9-1.7-6.2-4.5-14.5-5.6L1018.5-118.7z"/>
		<path id="XMLID_841_" class="st6" d="M958.4-123c-7.3,0-13.1,5.9-13.1,13.1s5.9,13.1,13.1,13.1c7.3,0,13.1-5.9,13.1-13.1
			S965.6-123,958.4-123z M958.4-101.9c-4.4,0-7.9-3.5-7.9-7.9s3.5-7.9,7.9-7.9c4.4,0,7.9,3.5,7.9,7.9
			C966.3-105.5,962.7-101.9,958.4-101.9z"/>
		<path id="XMLID_840_" class="st7" d="M975.9-105.4h-17.5c-2.4,0-4.4-2-4.4-4.4l0,0c0-2.4,2-4.4,4.4-4.4h17.5c2.4,0,4.4,2,4.4,4.4
			l0,0C980.3-107.4,978.3-105.4,975.9-105.4z"/>
		<path id="XMLID_839_" class="st8" d="M1006.6-110.7l3-16.7c0.3-1.7,0.3-3.5-0.2-5.2l-4.6-20.2h5.3l8.8,22.8l-5.3,19.3
			L1006.6-110.7L1006.6-110.7z"/>
		<path id="XMLID_838_" class="st9" d="M1017.2-111.3l7.4-16.1c0.7-1.6,0.6-3.5-0.3-5l-10-15.7c-0.4-0.6-1.2-0.9-1.9-0.5l0,0
			c-1.3,0.7-2,2.2-1.6,3.6l2.9,9.6c1.1,3.6,1.3,7.4,0.5,11l-1.8,9.1c-0.3,1.6-1.8,2.8-3.4,2.8h-18.2l3.5-19.3l-3.5-5.3l-22.8-1.8
			l-13.4,1.5c-1.4,0.2-2.4,1.3-2.4,2.7l0,0c0,0.7,0.3,1.4,0.8,1.9l2.7,2.7c0,0-14,3.5-14,12.3v1.8c0,1,0.8,1.8,1.8,1.8h26.6
			c0.9,0,1.8,0.4,2.5,1l5,5c0.7,0.7,1.5,1,2.5,1h30.9C1013.6-107.2,1016.1-108.8,1017.2-111.3z"/>
		<path id="XMLID_837_" class="st8" d="M994.3-131.7l-3.5-5.3l-22.8-1.8l-13.4,1.5c-1.4,0.2-2.4,1.3-2.4,2.7c0,0.7,0.3,1.4,0.8,1.9
			l2.7,2.7H994L994.3-131.7z"/>
		<path id="XMLID_836_" class="st9" d="M1015.4-151h-8.8c-1.9,0-3.5-1.6-3.5-3.5l0,0c0-1.9,1.6-3.5,3.5-3.5h8.8V-151z"/>
		<path id="XMLID_835_" class="st10" d="M1006.6-152.8c-0.4,0-0.9-0.2-1.2-0.5l-1.2-1.2h-4.5c-1,0-1.8-0.8-1.8-1.8
			c0-1,0.8-1.8,1.8-1.8h4.5c0.9,0,1.8,0.4,2.5,1l1.2,1.2c0.7,0.7,0.7,1.8,0,2.5C1007.5-152.9,1007-152.8,1006.6-152.8z"/>
		<path id="XMLID_834_" class="st7" d="M1015.4-151h-1.8v-7h1.8c1,0,1.8,0.8,1.8,1.8v3.5C1017.1-151.8,1016.3-151,1015.4-151z"/>
		<circle id="XMLID_833_" class="st11" cx="958.4" cy="-109.8" r="4.4"/>
		<path id="XMLID_832_" class="st10" d="M964.5-138.2L964.5-138.2c0,0.8,0.4,1.5,1,1.9l6,4c2.3,1.5,5,2.4,7.8,2.4h14.7
			c1.1,0,1.9-1,1.7-2.1l-0.2-1c-0.7-3.3-3.5-5.6-6.9-5.6h-9.4c-1.6,0-3.1-0.2-4.7-0.6l-2.4-0.6c-1.5-0.4-3.1-0.6-4.7-0.6h-0.6
			C965.5-140.5,964.5-139.5,964.5-138.2z"/>
		<path id="XMLID_831_" class="st8" d="M974-120.9l5.3,7c0.7,0.9,1.7,1.4,2.8,1.4h8.8l2.5-14h-16.6
			C973.9-126.5,972.3-123.2,974-120.9z"/>
		<path id="XMLID_830_" class="st7" d="M1001.3-161.5h-1.8c-1,0-1.8-0.8-1.8-1.8v-3.5c0-1,0.8-1.8,1.8-1.8h1.8
			c1.9,0,3.5,1.6,3.5,3.5l0,0C1004.8-163.1,1003.3-161.5,1001.3-161.5z"/>
		<g id="XMLID_829_">
		</g>
		<g id="XMLID_828_">
		</g>
		<g id="XMLID_827_">
		</g>
		<g id="XMLID_826_">
		</g>
		<g id="XMLID_825_">
		</g>
		<g id="XMLID_824_">
		</g>
		<g id="XMLID_823_">
		</g>
		<g id="XMLID_822_">
		</g>
		<g id="XMLID_821_">
		</g>
		<g id="XMLID_820_">
		</g>
		<g id="XMLID_819_">
		</g>
		<g id="XMLID_818_">
		</g>
		<g id="XMLID_817_">
		</g>
		<g id="XMLID_816_">
		</g>
		<g id="XMLID_815_">
		</g>
	</g>
</g>
<g id="XMLID_68_" class="st0">
	<g id="XMLID_852_" class="st1">
		<rect id="XMLID_866_" x="147.2" y="-38.5" class="st2" width="340.5" height="22.4"/>
		<g id="XMLID_53_">
			<path id="XMLID_54_" d="M101.7-29.1c0.2,0.1,0.3,0.3,0.4,0.5c0,0.2,0,0.4-0.1,0.6c-0.1,0.2-0.3,0.3-0.5,0.3c-0.2,0-0.4,0-0.6-0.1
				c-0.7-0.4-1.5-0.9-2.5-1.4c-0.2-0.1-0.3-0.2-0.3-0.4c0-0.1,0-0.1,0-0.1c0-0.1,0-0.2,0.1-0.4c0.1-0.2,0.3-0.3,0.5-0.3
				c0.1,0,0.2,0,0.3,0c0.1,0,0.2,0,0.4,0.1C100.1-30,100.9-29.5,101.7-29.1z M100.2-18.3c-0.1,0.2-0.3,0.3-0.5,0.4
				c-0.2,0-0.4,0-0.6-0.1c-0.2-0.1-0.3-0.3-0.4-0.6c0-0.1,0-0.1,0-0.2c0-0.2,0-0.3,0.1-0.5c0.9-1.5,1.8-3.2,2.8-5.2
				c0.1-0.2,0.2-0.3,0.4-0.3c0.2,0,0.4,0,0.5,0.1c0.2,0.2,0.3,0.4,0.4,0.6c0,0.1,0,0.1,0,0.2c0,0.2,0,0.3-0.1,0.4
				C102-21.6,101.1-19.9,100.2-18.3z M102.9-34.8c0.2,0.1,0.3,0.3,0.3,0.5c0,0.2,0,0.4-0.2,0.6c-0.1,0.2-0.3,0.3-0.5,0.3
				c-0.2,0-0.4,0-0.6-0.2c-0.7-0.5-1.5-1-2.4-1.5c-0.2-0.1-0.3-0.2-0.3-0.4s0-0.4,0.1-0.5c0.1-0.2,0.3-0.3,0.5-0.3
				c0.1,0,0.1,0,0.2,0c0.1,0,0.3,0,0.4,0.1C101.5-35.8,102.3-35.3,102.9-34.8z M117.4-34.3c0.1,0.1,0.2,0.3,0.2,0.5
				c0,0.2-0.1,0.4-0.2,0.5c-0.1,0.1-0.3,0.2-0.5,0.2h-10c-0.1,0-0.2,0-0.2,0.1c-0.5,0.9-1.1,1.8-1.8,2.5c-0.1,0.2-0.3,0.3-0.6,0.3
				s-0.4,0-0.6-0.2c-0.2-0.1-0.3-0.3-0.3-0.5c0-0.2,0-0.4,0.2-0.6c1.2-1.4,2.2-3,3-5c0.1-0.2,0.2-0.4,0.4-0.5
				c0.1-0.1,0.3-0.1,0.4-0.1c0.1,0,0.1,0,0.2,0c0.2,0.1,0.3,0.2,0.4,0.4s0.1,0.4,0,0.6c-0.2,0.4-0.3,0.8-0.5,1.3c0,0,0,0.1,0,0.1
				s0,0.1,0.1,0.1h9.3C117.1-34.5,117.3-34.4,117.4-34.3z M104.3-26.9c-0.1-0.1-0.2-0.3-0.2-0.5s0.1-0.4,0.2-0.5
				c0.1-0.1,0.3-0.2,0.5-0.2h9.1c0.4,0,0.7,0.1,0.9,0.4s0.4,0.5,0.4,0.9c0,2.7,0.1,4.8,0.3,6.2c0.2,1.4,0.5,2.1,1,2.1
				c0.2,0,0.4-0.8,0.4-2.3c0-0.1,0.1-0.2,0.2-0.3c0.1,0,0.2,0,0.3,0.1c0.3,0.3,0.5,0.6,0.5,1c0,1-0.1,1.7-0.4,2.3
				c-0.2,0.4-0.6,0.6-1.1,0.6c-0.3,0-0.6-0.1-0.9-0.2c-0.3-0.2-0.5-0.4-0.7-0.6c-0.2-0.3-0.3-0.6-0.5-1.1c-0.1-0.4-0.2-0.9-0.3-1.4
				c-0.1-0.5-0.2-1.1-0.2-1.8s-0.1-1.4-0.1-2c0-0.6,0-1.4-0.1-2.3c0-0.1-0.1-0.2-0.2-0.2h-8.6C104.6-26.7,104.4-26.7,104.3-26.9z
				 M115.6-31.1c0.1,0.1,0.2,0.3,0.2,0.5c0,0.2-0.1,0.4-0.2,0.5c-0.1,0.1-0.3,0.2-0.5,0.2h-8.3c-0.2,0-0.3-0.1-0.5-0.2
				s-0.2-0.3-0.2-0.5c0-0.2,0.1-0.4,0.2-0.5c0.1-0.1,0.3-0.2,0.5-0.2h8.3C115.3-31.3,115.4-31.3,115.6-31.1z"/>
			<path id="XMLID_61_" d="M138.7-22.2c0.2,0,0.4,0.1,0.5,0.2c0.1,0.1,0.2,0.3,0.2,0.5c0,0.2-0.1,0.4-0.2,0.5
				c-0.1,0.1-0.3,0.2-0.5,0.2h-8.1c-0.1,0-0.2,0.1-0.2,0.2v2.3c0,0.2-0.1,0.4-0.2,0.6s-0.4,0.2-0.6,0.2s-0.4-0.1-0.6-0.2
				c-0.2-0.2-0.2-0.4-0.2-0.6v-2.3c0-0.1-0.1-0.2-0.1-0.2h-8c-0.2,0-0.4-0.1-0.5-0.2c-0.1-0.1-0.2-0.3-0.2-0.5
				c0-0.2,0.1-0.4,0.2-0.5c0.1-0.1,0.3-0.2,0.5-0.2h8c0.1,0,0.1-0.1,0.1-0.2v-1.5c0-0.1-0.1-0.2-0.1-0.2h-5.1
				c-0.3,0-0.6-0.1-0.9-0.4c-0.2-0.2-0.4-0.5-0.4-0.9v-6c0-0.3,0.1-0.6,0.4-0.9c0.2-0.2,0.5-0.4,0.9-0.4h5.1c0.1,0,0.1,0,0.1-0.1
				v-1.3c0-0.1-0.1-0.1-0.1-0.1h-7.3c-0.2,0-0.4-0.1-0.5-0.2c-0.1-0.1-0.2-0.3-0.2-0.5c0-0.2,0.1-0.4,0.2-0.5
				c0.1-0.1,0.3-0.2,0.5-0.2h7.3c0.1,0,0.1,0,0.1-0.1v-1c0-0.2,0.1-0.4,0.2-0.6c0.2-0.2,0.4-0.2,0.6-0.2s0.4,0.1,0.6,0.2
				c0.2,0.2,0.2,0.4,0.2,0.6v1c0,0.1,0.1,0.1,0.2,0.1h7.4c0.2,0,0.4,0.1,0.5,0.2c0.1,0.1,0.2,0.3,0.2,0.5c0,0.2-0.1,0.4-0.2,0.5
				c-0.1,0.1-0.3,0.2-0.5,0.2h-7.4c-0.1,0-0.2,0-0.2,0.1v1.3c0,0.1,0.1,0.1,0.2,0.1h5.3c0.3,0,0.6,0.1,0.9,0.4s0.4,0.5,0.4,0.9v6
				c0,0.3-0.1,0.6-0.4,0.9s-0.5,0.4-0.9,0.4h-5.3c-0.1,0-0.2,0.1-0.2,0.2v1.5c0,0.1,0.1,0.2,0.2,0.2H138.7z M123.8-31.1
				c-0.1,0-0.1,0.1-0.1,0.1v1.9c0,0.1,0,0.1,0.1,0.1h4.7c0.1,0,0.1,0,0.1-0.1V-31c0-0.1-0.1-0.1-0.1-0.1H123.8z M123.7-25.5
				c0,0.1,0,0.1,0.1,0.1h4.7c0.1,0,0.1,0,0.1-0.1v-1.9c0-0.1-0.1-0.2-0.1-0.2h-4.7c-0.1,0-0.1,0.1-0.1,0.2V-25.5z M135.4-31
				c0-0.1-0.1-0.1-0.1-0.1h-4.8c-0.1,0-0.2,0.1-0.2,0.1v1.9c0,0.1,0.1,0.1,0.2,0.1h4.8c0.1,0,0.1,0,0.1-0.1V-31z M135.3-25.4
				c0.1,0,0.1,0,0.1-0.1v-1.9c0-0.1-0.1-0.2-0.1-0.2h-4.8c-0.1,0-0.2,0.1-0.2,0.2v1.9c0,0.1,0.1,0.1,0.2,0.1H135.3z"/>
		</g>
		<g id="XMLID_34_">
			<path id="XMLID_35_" d="M634.1-16.1c-0.3-0.2-0.5-0.5-0.5-0.9s0.1-0.7,0.4-1c0.2-0.3,0.5-0.4,0.9-0.4c0.4,0,0.7,0.1,1,0.3
				c1.1,0.7,2.2,1.1,3.4,1.1c1.9,0,3.4-0.8,4.6-2.5c1.2-1.7,1.9-4.4,2-8.2c0,0,0-0.1-0.1-0.1c0,0-0.1,0-0.1,0
				c-0.8,0.9-1.7,1.7-2.8,2.2c-1,0.6-2.1,0.8-3.1,0.8c-2.2,0-4-0.7-5.3-2.1c-1.3-1.4-2-3.5-2-6.2c0-2.5,0.7-4.6,2.2-6.2
				c1.5-1.6,3.3-2.4,5.4-2.4c2.6,0,4.8,1.1,6.4,3.2c1.6,2.2,2.4,5.3,2.4,9.3c0,2.6-0.3,4.8-0.8,6.8c-0.5,2-1.2,3.5-2.1,4.6
				c-0.9,1.1-1.9,2-3,2.5s-2.3,0.8-3.6,0.8C637.4-14.3,635.6-14.9,634.1-16.1z M640.4-27.2c2,0,3.8-1.1,5.4-3.3
				c0.1-0.1,0.1-0.3,0.1-0.5c-0.2-2.6-0.8-4.6-1.8-6s-2.3-2.1-4-2.1c-1.3,0-2.4,0.6-3.2,1.7c-0.8,1.1-1.3,2.5-1.3,4.3
				c0,1.8,0.4,3.3,1.2,4.3C637.7-27.7,638.9-27.2,640.4-27.2z"/>
			<path id="XMLID_38_" d="M661.6-16.5c0,0.5-0.2,0.9-0.5,1.2c-0.3,0.3-0.8,0.5-1.2,0.5c-0.5,0-0.9-0.2-1.2-0.5
				c-0.3-0.3-0.5-0.7-0.5-1.1c0-3.7,0.7-7.7,2-11.9c1.1-3.3,2.8-6.6,5.1-9.9c0,0,0.1-0.1,0-0.1c0,0-0.1-0.1-0.1-0.1h-11.1
				c-0.4,0-0.7-0.1-1-0.4c-0.3-0.3-0.4-0.6-0.4-1s0.1-0.7,0.4-1s0.6-0.4,1-0.4h14.1c0.3,0,0.5,0.1,0.7,0.3c0.2,0.2,0.3,0.4,0.3,0.7
				c0,0.6-0.2,1.2-0.6,1.8c-2.5,3.4-4.3,6.7-5.3,9.9S661.8-21.3,661.6-16.5z"/>
			<path id="XMLID_40_" d="M681.6-16.5c0,0.5-0.2,0.9-0.5,1.2c-0.3,0.3-0.8,0.5-1.2,0.5c-0.5,0-0.9-0.2-1.2-0.5
				c-0.3-0.3-0.5-0.7-0.5-1.1c0-3.7,0.7-7.7,2-11.9c1.1-3.3,2.8-6.6,5.1-9.9c0,0,0.1-0.1,0-0.1c0,0-0.1-0.1-0.1-0.1h-11.1
				c-0.4,0-0.7-0.1-1-0.4c-0.3-0.3-0.4-0.6-0.4-1s0.1-0.7,0.4-1s0.6-0.4,1-0.4h14.1c0.3,0,0.5,0.1,0.7,0.3c0.2,0.2,0.3,0.4,0.3,0.7
				c0,0.6-0.2,1.2-0.6,1.8c-2.5,3.4-4.3,6.7-5.3,9.9S681.8-21.3,681.6-16.5z"/>
			<path id="XMLID_42_" d="M694-16.1c-0.3-0.2-0.5-0.5-0.5-0.9s0.1-0.7,0.4-1c0.2-0.3,0.5-0.4,0.9-0.4c0.4,0,0.7,0.1,1,0.3
				c1.1,0.7,2.2,1.1,3.4,1.1c1.9,0,3.4-0.8,4.6-2.5c1.2-1.7,1.9-4.4,2-8.2c0,0,0-0.1-0.1-0.1c0,0-0.1,0-0.1,0
				c-0.8,0.9-1.7,1.7-2.8,2.2c-1,0.6-2.1,0.8-3.1,0.8c-2.2,0-4-0.7-5.3-2.1c-1.3-1.4-2-3.5-2-6.2c0-2.5,0.7-4.6,2.2-6.2
				c1.5-1.6,3.3-2.4,5.4-2.4c2.6,0,4.8,1.1,6.4,3.2c1.6,2.2,2.4,5.3,2.4,9.3c0,2.6-0.3,4.8-0.8,6.8c-0.5,2-1.2,3.5-2.1,4.6
				c-0.9,1.1-1.9,2-3,2.5s-2.3,0.8-3.6,0.8C697.3-14.3,695.5-14.9,694-16.1z M700.3-27.2c2,0,3.8-1.1,5.4-3.3
				c0.1-0.1,0.1-0.3,0.1-0.5c-0.2-2.6-0.8-4.6-1.8-6s-2.3-2.1-4-2.1c-1.3,0-2.4,0.6-3.2,1.7c-0.8,1.1-1.3,2.5-1.3,4.3
				c0,1.8,0.4,3.3,1.2,4.3C697.6-27.7,698.8-27.2,700.3-27.2z"/>
			<path id="XMLID_45_" d="M725.4-20.5c-0.1,0-0.2,0.1-0.2,0.2v1.5c0,0.1,0.1,0.2,0.2,0.2h2.6c0.2,0,0.4,0.1,0.6,0.2
				s0.2,0.3,0.2,0.5s-0.1,0.4-0.2,0.6s-0.3,0.2-0.6,0.2h-2.6c-0.1,0-0.2,0.1-0.2,0.2v3.3c0,0.2-0.1,0.4-0.2,0.6s-0.3,0.2-0.5,0.2
				s-0.4-0.1-0.5-0.2s-0.2-0.3-0.2-0.6V-17c0-0.1-0.1-0.2-0.2-0.2h-2.8c-0.2,0-0.4-0.1-0.6-0.2s-0.2-0.3-0.2-0.6s0.1-0.4,0.2-0.5
				s0.3-0.2,0.6-0.2h2.8c0.1,0,0.2-0.1,0.2-0.2v-1.5c0-0.1-0.1-0.2-0.2-0.2h-1.5c-0.4,0-0.7-0.1-1-0.4s-0.4-0.6-0.4-1v-5.7
				c0-0.4,0.1-0.7,0.4-1s0.6-0.4,1-0.4h1.5c0.1,0,0.2-0.1,0.2-0.2v-1.4c0-0.1-0.1-0.2-0.2-0.2h-2.6c-0.2,0-0.4-0.1-0.6-0.2
				s-0.2-0.3-0.2-0.5s0.1-0.4,0.2-0.5s0.3-0.2,0.6-0.2h2.6c0.1,0,0.2-0.1,0.2-0.2v-1.6c0-0.2,0.1-0.4,0.2-0.6s0.3-0.2,0.5-0.2
				s0.4,0.1,0.5,0.2s0.2,0.3,0.2,0.6v1.6c0,0.1,0.1,0.2,0.2,0.2h2.4c0.2,0,0.4,0.1,0.6,0.2s0.2,0.3,0.2,0.5s-0.1,0.4-0.2,0.5
				s-0.3,0.2-0.6,0.2h-2.4c-0.1,0-0.2,0.1-0.2,0.2v1.4c0,0.1,0.1,0.2,0.2,0.2h1.5c0.4,0,0.7,0.1,1,0.4s0.4,0.6,0.4,1v5.7
				c0,0.4-0.1,0.7-0.4,1s-0.6,0.4-1,0.4H725.4z M722.1-27.7c-0.1,0-0.2,0.1-0.2,0.2v1.9c0,0.1,0.1,0.2,0.2,0.2h1.6
				c0.1,0,0.2-0.1,0.2-0.2v-1.9c0-0.1-0.1-0.2-0.2-0.2H722.1z M722.1-24.2c-0.1,0-0.2,0.1-0.2,0.2v1.9c0,0.1,0.1,0.2,0.2,0.2h1.6
				c0.1,0,0.2-0.1,0.2-0.2V-24c0-0.1-0.1-0.2-0.2-0.2H722.1z M726.9-25.4c0.1,0,0.2-0.1,0.2-0.2v-1.9c0-0.1-0.1-0.2-0.2-0.2h-1.6
				c-0.1,0-0.2,0.1-0.2,0.2v1.9c0,0.1,0.1,0.2,0.2,0.2H726.9z M726.9-21.9c0.1,0,0.2-0.1,0.2-0.2V-24c0-0.1-0.1-0.2-0.2-0.2h-1.6
				c-0.1,0-0.2,0.1-0.2,0.2v1.9c0,0.1,0.1,0.2,0.2,0.2H726.9z M741.5-32.7c0.2,0.1,0.2,0.3,0.2,0.6s-0.1,0.4-0.2,0.6
				s-0.3,0.2-0.5,0.2h-4.7c-0.1,0-0.2,0.1-0.2,0.2v2c0,0.1,0.1,0.2,0.2,0.2h3.8c0.4,0,0.7,0.1,1,0.4s0.4,0.6,0.4,1v12.8
				c0,0.4-0.1,0.8-0.2,1s-0.3,0.4-0.6,0.6c-0.4,0.2-1.2,0.3-2.2,0.3c-0.2,0-0.4-0.1-0.6-0.2s-0.3-0.3-0.4-0.6c0-0.2,0-0.3,0.1-0.5
				s0.2-0.2,0.4-0.2c0.4,0,0.7,0,0.9,0c0.3,0,0.5,0,0.7,0c0.1,0,0.2,0,0.3-0.1s0.1-0.2,0.1-0.3v-2.9c0,0,0,0,0,0s0,0,0,0
				c-0.1,0.1-0.3,0.2-0.4,0.1s-0.3-0.1-0.4-0.2c-0.5-0.8-0.8-1.7-1-2.8c0,0,0,0,0,0s0,0,0,0c-0.2,1.1-0.6,1.9-1,2.6
				c-0.1,0.2-0.3,0.3-0.5,0.3s-0.4-0.1-0.6-0.2c0,0,0,0-0.1,0s0,0,0,0.1v4.2c0,0.2-0.1,0.3-0.2,0.4s-0.3,0.2-0.4,0.2
				s-0.3-0.1-0.4-0.2s-0.2-0.3-0.2-0.4v-4.2c0-0.1,0-0.1-0.1,0c-0.2,0.1-0.4,0.2-0.6,0.2s-0.4-0.2-0.4-0.3c-0.3-0.6-0.5-1.4-0.7-2.2
				c0,0,0,0,0,0s0,0,0,0c-0.2,1.1-0.6,2-1,2.7c-0.1,0.1-0.2,0.2-0.3,0.2s-0.2-0.1-0.3-0.2c-0.1-0.2-0.2-0.3-0.2-0.5
				c0-0.1,0-0.3,0.1-0.4c0.7-1.1,1.1-2.9,1.4-5.5c0-0.1,0-0.1-0.1-0.1H732c-0.2,0-0.3-0.1-0.4-0.2s-0.2-0.3-0.2-0.4s0.1-0.3,0.2-0.4
				s0.2-0.2,0.4-0.2h0.5c0.3,0,0.5,0.1,0.7,0.3s0.3,0.5,0.3,0.8c0,2.6,0.4,4.6,1.1,5.9c0,0,0,0,0.1,0s0,0,0,0v-8.8
				c0-0.1-0.1-0.2-0.2-0.2h-3.7c-0.1,0-0.2,0.1-0.2,0.2v13.7c0,0.2-0.1,0.3-0.2,0.5S730.2-13,730-13s-0.4-0.1-0.5-0.2
				s-0.2-0.3-0.2-0.5v-14c0-0.4,0.1-0.7,0.4-1s0.6-0.4,1-0.4h3.6c0.1,0,0.2-0.1,0.2-0.2v-2c0-0.1-0.1-0.2-0.2-0.2h-4.5
				c-0.2,0-0.4-0.1-0.5-0.2s-0.2-0.3-0.2-0.6s0.1-0.4,0.2-0.6s0.3-0.2,0.5-0.2H741C741.2-33,741.3-32.9,741.5-32.7z M739.9-18.6
				C739.9-18.6,739.9-18.6,739.9-18.6C740-18.6,740-18.7,739.9-18.6l0.1-8.7c0-0.1-0.1-0.2-0.2-0.2h-3.8c-0.1,0-0.2,0.1-0.2,0.2v8.9
				c0,0,0,0.1,0,0.1s0.1,0,0.1,0c0.8-1,1.3-2.9,1.6-5.8c0-0.1,0-0.1-0.1-0.1h-0.4c-0.2,0-0.3-0.1-0.4-0.2s-0.2-0.3-0.2-0.4
				s0.1-0.3,0.2-0.4s0.2-0.2,0.4-0.2h0.5c0.3,0,0.6,0.1,0.8,0.3s0.3,0.5,0.3,0.8c0,1.2,0.1,2.2,0.3,3.2S739.4-19.4,739.9-18.6z"/>
		</g>
		<g id="XMLID_485_">
			<line id="XMLID_491_" class="st3" x1="158" y1="-27.2" x2="206" y2="-27.2"/>
			<line id="XMLID_489_" class="st3" x1="231" y1="-27.2" x2="278" y2="-27.2"/>
			<line id="XMLID_488_" class="st3" x1="304" y1="-27.2" x2="352" y2="-27.2"/>
			<line id="XMLID_487_" class="st3" x1="377" y1="-27.2" x2="425" y2="-27.2"/>
			<line id="XMLID_486_" class="st3" x1="452" y1="-27.2" x2="485" y2="-27.2"/>
		</g>
	</g>
	<g id="XMLID_772_" class="st1">
		<path id="XMLID_813_" class="st12" d="M486.4-38.4l1.5-6.1c0.4-1.5,1.1-2.8,2.2-3.9l9.5-11.9c1.6-2,4-3.1,6.5-3.1H553
			c1.9,0,3.7,0.9,4.9,2.3l11.5,14.3L486.4-38.4z"/>
		<path id="XMLID_812_" class="st13" d="M553-63.3h-46.9c-2.5,0-4.9,1.1-6.5,3.1l-9.5,11.9c-1.1,1.1-1.8,2.4-2.2,3.9l-1.5,6.1
			l31.1,16.6h87.2v-15.9c0-3-2.2-5.7-5.2-6.1c-10.5-1.7-30.2-2.8-30.2-2.8L557.8-61C556.6-62.4,554.9-63.3,553-63.3z"/>
		<g id="XMLID_809_">
			<path id="XMLID_811_" class="st14" d="M553-63.3h-46.8c-2.5,0-4.9,1.2-6.5,3.1l-9.1,11.4l66.3,2.1h12.5L557.8-61
				C556.6-62.4,554.9-63.3,553-63.3z"/>
			<path id="XMLID_810_" class="st14" d="M604.7-35.6c0-1.8-1.2-3.5-3-4c-4.1-1.2-13.4-3-32.3-3h-80.9c-1.1,0-2.1,0.9-2.1,2.1
				l0,12.5l39.4,4.2h78.9V-35.6z"/>
		</g>
		<path id="XMLID_808_" class="st15" d="M604.7-25.9h-97.3L489-30c-1.1-0.2-2.2,0.5-2.5,1.6c-0.2,1.1,0.5,2.2,1.6,2.5l18.7,4.2
			c0.1,0,0.3,0,0.4,0h97.5c1.1,0,2.1-0.9,2.1-2.1C606.8-25,605.9-25.9,604.7-25.9z"/>
		<circle id="XMLID_807_" class="st11" cx="506.1" cy="-22.8" r="9.5"/>
		<path id="XMLID_804_" class="st6" d="M506.1-11.4c-6.3,0-11.4-5.1-11.4-11.4s5.1-11.4,11.4-11.4s11.4,5.1,11.4,11.4
			C517.6-16.5,512.4-11.4,506.1-11.4z M506.1-30.1c-4,0-7.3,3.3-7.3,7.3s3.3,7.3,7.3,7.3c4,0,7.3-3.3,7.3-7.3S510.2-30.1,506.1-30.1
			z"/>
		<circle id="XMLID_803_" class="st7" cx="506.1" cy="-22.8" r="4.2"/>
		<g id="XMLID_800_">
			<path id="XMLID_802_" class="st15" d="M567.4-30.1h-45.7c-1.1,0-2.1-0.9-2.1-2.1l0,0c0-1.1,0.9-2.1,2.1-2.1h45.7
				c1.1,0,2.1,0.9,2.1,2.1l0,0C569.4-31,568.5-30.1,567.4-30.1z"/>
			<path id="XMLID_801_" class="st15" d="M604.7-30.1h-4.2c-1.1,0-2.1-0.9-2.1-2.1l0,0c0-1.1,0.9-2.1,2.1-2.1h4.2
				c1.1,0,2.1,0.9,2.1,2.1l0,0C606.8-31,605.9-30.1,604.7-30.1z"/>
		</g>
		<path id="XMLID_799_" class="st16" d="M487.9-44.5l-0.5,1.9h5.2c1.1,0,2.1-0.9,2.1-2.1c0-1.1-0.9-2.1-2.1-2.1h-3.8
			C488.5-46,488.1-45.2,487.9-44.5z"/>
		<circle id="XMLID_798_" class="st11" cx="582.9" cy="-22.8" r="9.5"/>
		<path id="XMLID_795_" class="st6" d="M582.9-11.4c-6.3,0-11.4-5.1-11.4-11.4s5.1-11.4,11.4-11.4c6.3,0,11.4,5.1,11.4,11.4
			C594.4-16.5,589.2-11.4,582.9-11.4z M582.9-30.1c-4,0-7.3,3.3-7.3,7.3s3.3,7.3,7.3,7.3c4,0,7.3-3.3,7.3-7.3S586.9-30.1,582.9-30.1
			z"/>
		<circle id="XMLID_794_" class="st7" cx="582.9" cy="-22.8" r="4.2"/>
		<path id="XMLID_793_" class="st10" d="M557.6-48.3l-8.7-11.3c-0.8-1-2-1.6-3.3-1.6h-30c-1.8,0-3.4,1.2-4,2.9l-2.2,7.2
			c-0.7,1.4,0.3,3,1.8,3l45.7,1.4h0C557.7-46.7,558.1-47.6,557.6-48.3z"/>
		<path id="XMLID_792_" class="st11" d="M604.7-37.7c0-1-0.3-1.9-0.7-2.7h-3.5c-1.1,0-2.1,0.9-2.1,2.1c0,1.1,0.9,2.1,2.1,2.1h4.2
			V-37.7L604.7-37.7z"/>
		<polygon id="XMLID_791_" class="st6" points="530,-47.5 534.2,-47.4 533.3,-61.2 529.1,-61.2 		"/>
		<g id="XMLID_788_">
			<path id="XMLID_790_" class="st10" d="M557.7-61.2C557.6-61.2,557.6-61.2,557.7-61.2l-3.4,0c-1,0-1.6,1.1-0.9,1.9l9,11.6
				c0.5,0.6,1.3,1,2.1,1h4.9L557.7-61.2z"/>
			<path id="XMLID_789_" class="st10" d="M507.4-59.2c0.5-0.9-0.2-2-1.3-2h-5.4c-0.4,0.3-0.7,0.7-1.1,1.1l-9.1,11.4l8.8,0.3
				c1.6,0.1,3.1-0.9,3.9-2.3L507.4-59.2z"/>
		</g>
		<g id="XMLID_787_">
		</g>
		<g id="XMLID_786_">
		</g>
		<g id="XMLID_785_">
		</g>
		<g id="XMLID_784_">
		</g>
		<g id="XMLID_783_">
		</g>
		<g id="XMLID_782_">
		</g>
		<g id="XMLID_781_">
		</g>
		<g id="XMLID_780_">
		</g>
		<g id="XMLID_779_">
		</g>
		<g id="XMLID_778_">
		</g>
		<g id="XMLID_777_">
		</g>
		<g id="XMLID_776_">
		</g>
		<g id="XMLID_775_">
		</g>
		<g id="XMLID_774_">
		</g>
		<g id="XMLID_773_">
		</g>
	</g>
</g>
<g id="XMLID_109_">
	<g id="XMLID_860_">
		<rect id="XMLID_865_" x="147.2" y="41" class="st2" width="114.8" height="22.4"/>
		<g id="XMLID_89_">
			<path id="XMLID_90_" d="M83.8,46.7c0.2,0,0.3,0.1,0.5,0.2c0.1,0.1,0.2,0.3,0.2,0.5c0,0.2-0.1,0.3-0.2,0.5
				C84.1,48,83.9,48,83.8,48h-7.3c-0.2,0-0.3-0.1-0.5-0.2c-0.1-0.1-0.2-0.3-0.2-0.5c0-0.2,0.1-0.3,0.2-0.5c0.1-0.1,0.3-0.2,0.5-0.2
				H83.8z M82.3,55.5c0.3,0,0.6,0.1,0.9,0.4s0.4,0.5,0.4,0.9v3.8c0,0.4-0.1,0.7-0.4,0.9c-0.2,0.2-0.5,0.4-0.9,0.4h-3.9
				c-0.1,0-0.1,0-0.1,0.1v0.2c0,0.2-0.1,0.4-0.2,0.5c-0.1,0.1-0.3,0.2-0.5,0.2c-0.2,0-0.4-0.1-0.5-0.2c-0.1-0.1-0.2-0.3-0.2-0.5
				v-5.3c0-0.4,0.1-0.7,0.4-0.9s0.5-0.4,0.9-0.4H82.3z M77.5,51c-0.2,0-0.3-0.1-0.4-0.2c-0.1-0.1-0.2-0.3-0.2-0.5
				c0-0.2,0.1-0.3,0.2-0.5c0.1-0.1,0.3-0.2,0.4-0.2H83c0.2,0,0.3,0.1,0.5,0.2c0.1,0.1,0.2,0.3,0.2,0.5c0,0.2-0.1,0.3-0.2,0.5
				C83.3,50.9,83.1,51,83,51H77.5z M77.5,53.9c-0.2,0-0.3-0.1-0.5-0.2c-0.1-0.1-0.2-0.3-0.2-0.5c0-0.2,0.1-0.3,0.2-0.5
				c0.1-0.1,0.3-0.2,0.5-0.2H83c0.2,0,0.3,0.1,0.5,0.2c0.1,0.1,0.2,0.3,0.2,0.5c0,0.2-0.1,0.3-0.2,0.5c-0.1,0.1-0.3,0.2-0.5,0.2
				H77.5z M83,43.9c0.2,0,0.3,0.1,0.5,0.2c0.1,0.1,0.2,0.3,0.2,0.5c0,0.2-0.1,0.3-0.2,0.5c-0.1,0.1-0.3,0.2-0.5,0.2h-5.4
				c-0.2,0-0.3-0.1-0.5-0.2c-0.1-0.1-0.2-0.3-0.2-0.5c0-0.2,0.1-0.3,0.2-0.5c0.1-0.1,0.3-0.2,0.5-0.2H83z M82.1,57
				c0-0.1-0.1-0.1-0.2-0.1h-3.5c-0.1,0-0.1,0.1-0.1,0.1v3.4c0,0.1,0,0.1,0.1,0.1h3.5c0.1,0,0.2,0,0.2-0.1V57z M95.2,50.5
				c0.2,0,0.4,0.1,0.6,0.2s0.2,0.3,0.2,0.6c0,0.2-0.1,0.4-0.2,0.6s-0.3,0.2-0.6,0.2h-4c-0.1,0-0.1,0.1-0.1,0.1v10
				c0,0.2-0.1,0.4-0.2,0.6s-0.3,0.2-0.6,0.2c-0.2,0-0.4-0.1-0.6-0.2c-0.2-0.2-0.2-0.3-0.2-0.6v-10c0-0.1,0-0.1-0.1-0.1h-4.2
				c-0.2,0-0.4-0.1-0.6-0.2s-0.2-0.3-0.2-0.6c0-0.2,0.1-0.4,0.2-0.6s0.3-0.2,0.6-0.2h4.2c0.1,0,0.1,0,0.1-0.1V44
				c0-0.2,0.1-0.4,0.2-0.6c0.2-0.2,0.3-0.2,0.6-0.2c0.2,0,0.4,0.1,0.6,0.2s0.2,0.3,0.2,0.6v6.4c0,0.1,0,0.1,0.1,0.1H95.2z"/>
			<path id="XMLID_98_" d="M105.5,54.5c0.2,0.2,0.3,0.4,0.3,0.6c0,0.2-0.1,0.4-0.2,0.6c-0.1,0.2-0.3,0.2-0.5,0.2s-0.4-0.1-0.5-0.2
				c-0.4-0.6-0.9-1.3-1.4-1.9c0,0-0.1,0-0.1,0c0,0,0,0,0,0.1v8.4c0,0.2-0.1,0.4-0.2,0.6c-0.2,0.2-0.3,0.2-0.6,0.2s-0.4-0.1-0.6-0.2
				c-0.2-0.2-0.2-0.3-0.2-0.6v-8.7c0,0,0,0,0,0s0,0,0,0c-0.8,2-1.7,3.6-2.6,4.9c-0.1,0.2-0.3,0.2-0.5,0.2c-0.2,0-0.3-0.1-0.4-0.3
				c-0.1-0.2-0.2-0.4-0.2-0.6c0-0.3,0.1-0.5,0.3-0.7c0.6-0.8,1.2-1.7,1.7-2.8c0.6-1.1,1-2.2,1.4-3.3c0,0,0-0.1,0-0.1
				c0,0-0.1-0.1-0.1-0.1h-2.4c-0.2,0-0.4-0.1-0.5-0.2s-0.2-0.3-0.2-0.5c0-0.2,0.1-0.4,0.2-0.5c0.1-0.1,0.3-0.2,0.5-0.2h2.6
				c0.1,0,0.1-0.1,0.1-0.2v-3c0-0.1,0-0.1-0.1-0.1c-0.7,0.1-1.4,0.3-2.4,0.4c-0.2,0-0.4,0-0.5-0.1c-0.2-0.1-0.3-0.3-0.4-0.4
				c-0.1-0.2-0.1-0.3,0-0.5c0.1-0.1,0.2-0.2,0.4-0.3c2.3-0.4,4.1-0.8,5.4-1.3c0.2-0.1,0.4-0.1,0.5-0.1c0.3,0,0.6,0.1,0.8,0.4
				c0.1,0.1,0.2,0.3,0.1,0.5c0,0.2-0.2,0.3-0.4,0.4c-0.6,0.2-1.2,0.4-1.8,0.5c-0.1,0-0.1,0.1-0.1,0.2v3.4c0,0.1,0,0.2,0.1,0.2h1.8
				c0.2,0,0.4,0.1,0.5,0.2c0.1,0.1,0.2,0.3,0.2,0.5c0,0.2-0.1,0.4-0.2,0.5c-0.1,0.1-0.3,0.2-0.5,0.2h-1.8c-0.1,0-0.1,0.1-0.1,0.2v1
				c0,0.1,0,0.2,0.1,0.3C103.7,52.7,104.5,53.4,105.5,54.5z M112.4,60.9c0,0.1,0.1,0.2,0.2,0.2h4.4c0.2,0,0.4,0.1,0.5,0.2
				c0.1,0.1,0.2,0.3,0.2,0.5c0,0.2-0.1,0.4-0.2,0.5c-0.1,0.1-0.3,0.2-0.5,0.2h-11.2c-0.2,0-0.4-0.1-0.5-0.2
				c-0.1-0.1-0.2-0.3-0.2-0.5c0-0.2,0.1-0.4,0.2-0.5c0.1-0.1,0.3-0.2,0.5-0.2h4.8c0.1,0,0.1-0.1,0.1-0.2v-2.5c0-0.1,0-0.2-0.1-0.2
				h-3.4c-0.2,0-0.4-0.1-0.5-0.2s-0.2-0.3-0.2-0.5c0-0.2,0.1-0.4,0.2-0.5c0.1-0.1,0.3-0.2,0.5-0.2h3.4c0.1,0,0.1-0.1,0.1-0.2v-2.3
				c0-0.1,0-0.2-0.1-0.2h-3.9c-0.2,0-0.4-0.1-0.5-0.2c-0.1-0.1-0.2-0.3-0.2-0.5s0.1-0.4,0.2-0.5c0.1-0.1,0.3-0.2,0.5-0.2h9.8
				c0.2,0,0.4,0.1,0.5,0.2c0.1,0.1,0.2,0.3,0.2,0.5s-0.1,0.4-0.2,0.5c-0.1,0.1-0.3,0.2-0.5,0.2h-4c-0.1,0-0.2,0.1-0.2,0.2v2.3
				c0,0.1,0.1,0.2,0.2,0.2h3.5c0.2,0,0.3,0.1,0.5,0.2c0.1,0.1,0.2,0.3,0.2,0.5c0,0.2-0.1,0.4-0.2,0.5c-0.1,0.1-0.3,0.2-0.5,0.2h-3.5
				c-0.1,0-0.2,0.1-0.2,0.2V60.9z M115.3,44c0.3,0,0.6,0.1,0.9,0.4c0.2,0.2,0.4,0.5,0.4,0.9v4.3c0,0.4-0.1,0.7-0.4,0.9
				c-0.2,0.2-0.5,0.4-0.9,0.4h-7.1c-0.3,0-0.6-0.1-0.9-0.4c-0.2-0.2-0.4-0.5-0.4-0.9v-4.3c0-0.4,0.1-0.7,0.4-0.9
				c0.2-0.2,0.5-0.4,0.9-0.4H115.3z M114.8,49.4c0.1,0,0.2-0.1,0.2-0.2v-3.7c0-0.1-0.1-0.2-0.2-0.2h-6.2c-0.1,0-0.1,0.1-0.1,0.2v3.7
				c0,0.1,0,0.2,0.1,0.2H114.8z"/>
			<path id="XMLID_103_" d="M138.7,57.9c0.2,0,0.4,0.1,0.5,0.2c0.1,0.1,0.2,0.3,0.2,0.5c0,0.2-0.1,0.4-0.2,0.5
				c-0.1,0.1-0.3,0.2-0.5,0.2h-8.1c-0.1,0-0.2,0.1-0.2,0.2v2.3c0,0.2-0.1,0.4-0.2,0.6s-0.4,0.2-0.6,0.2s-0.4-0.1-0.6-0.2
				c-0.2-0.2-0.2-0.4-0.2-0.6v-2.3c0-0.1-0.1-0.2-0.1-0.2h-8c-0.2,0-0.4-0.1-0.5-0.2c-0.1-0.1-0.2-0.3-0.2-0.5
				c0-0.2,0.1-0.4,0.2-0.5c0.1-0.1,0.3-0.2,0.5-0.2h8c0.1,0,0.1-0.1,0.1-0.2v-1.5c0-0.1-0.1-0.2-0.1-0.2h-5.1
				c-0.3,0-0.6-0.1-0.9-0.4c-0.2-0.2-0.4-0.5-0.4-0.9v-6c0-0.3,0.1-0.6,0.4-0.9c0.2-0.2,0.5-0.4,0.9-0.4h5.1c0.1,0,0.1,0,0.1-0.1
				v-1.3c0-0.1-0.1-0.1-0.1-0.1h-7.3c-0.2,0-0.4-0.1-0.5-0.2c-0.1-0.1-0.2-0.3-0.2-0.5c0-0.2,0.1-0.4,0.2-0.5
				c0.1-0.1,0.3-0.2,0.5-0.2h7.3c0.1,0,0.1,0,0.1-0.1v-1c0-0.2,0.1-0.4,0.2-0.6c0.2-0.2,0.4-0.2,0.6-0.2s0.4,0.1,0.6,0.2
				c0.2,0.2,0.2,0.4,0.2,0.6v1c0,0.1,0.1,0.1,0.2,0.1h7.4c0.2,0,0.4,0.1,0.5,0.2c0.1,0.1,0.2,0.3,0.2,0.5c0,0.2-0.1,0.4-0.2,0.5
				c-0.1,0.1-0.3,0.2-0.5,0.2h-7.4c-0.1,0-0.2,0-0.2,0.1v1.3c0,0.1,0.1,0.1,0.2,0.1h5.3c0.3,0,0.6,0.1,0.9,0.4s0.4,0.5,0.4,0.9v6
				c0,0.3-0.1,0.6-0.4,0.9s-0.5,0.4-0.9,0.4h-5.3c-0.1,0-0.2,0.1-0.2,0.2v1.5c0,0.1,0.1,0.2,0.2,0.2H138.7z M123.9,49
				c-0.1,0-0.1,0.1-0.1,0.1v1.9c0,0.1,0,0.1,0.1,0.1h4.7c0.1,0,0.1,0,0.1-0.1v-1.9c0-0.1-0.1-0.1-0.1-0.1H123.9z M123.7,54.6
				c0,0.1,0,0.1,0.1,0.1h4.7c0.1,0,0.1,0,0.1-0.1v-1.9c0-0.1-0.1-0.2-0.1-0.2h-4.7c-0.1,0-0.1,0.1-0.1,0.2V54.6z M135.5,49.2
				c0-0.1-0.1-0.1-0.1-0.1h-4.8c-0.1,0-0.2,0.1-0.2,0.1v1.9c0,0.1,0.1,0.1,0.2,0.1h4.8c0.1,0,0.1,0,0.1-0.1V49.2z M135.3,54.8
				c0.1,0,0.1,0,0.1-0.1v-1.9c0-0.1-0.1-0.2-0.1-0.2h-4.8c-0.1,0-0.2,0.1-0.2,0.2v1.9c0,0.1,0.1,0.1,0.2,0.1H135.3z"/>
		</g>
		<g id="XMLID_69_">
			<path id="XMLID_70_" d="M408.5,63.7c-3,0-5.4-0.9-7.5-2.6c-0.3-0.3-0.5-0.6-0.5-1.1c0-0.4,0.1-0.7,0.3-0.9s0.5-0.4,0.9-0.5
				c0.4,0,0.7,0.1,1,0.3c1.6,1.4,3.5,2.1,5.6,2.1c1.6,0,2.9-0.4,3.9-1.3s1.5-2.1,1.5-3.6c0-3.3-2.3-5-7-5.2c-0.4,0-0.7-0.2-0.9-0.4
				s-0.4-0.5-0.4-0.9s0.1-0.7,0.4-0.9s0.5-0.4,0.9-0.4c2.1-0.2,3.6-0.7,4.6-1.6s1.4-2,1.4-3.4c0-1.3-0.4-2.3-1.2-3.1
				c-0.8-0.8-1.9-1.2-3.3-1.2c-1.5,0-3,0.6-4.4,1.7c-0.3,0.2-0.6,0.3-1,0.3c-0.4,0-0.7-0.2-0.9-0.5s-0.3-0.6-0.3-1s0.2-0.7,0.5-0.9
				c1.9-1.5,4.1-2.3,6.3-2.3s4.1,0.6,5.5,1.8c1.4,1.2,2.1,2.8,2.1,4.9c0,1.5-0.4,2.9-1.2,3.9c-0.8,1.1-2,1.9-3.4,2.4
				c0,0-0.1,0.1-0.1,0.1c0,0,0,0.1,0.1,0.1c1.6,0.4,3,1.2,4,2.4c1,1.2,1.5,2.6,1.5,4.3c0,2.3-0.8,4.1-2.4,5.5
				C412.9,63,410.9,63.7,408.5,63.7z"/>
			<path id="XMLID_72_" d="M435.9,38.1c0.3,0.3,0.4,0.6,0.4,1s-0.1,0.7-0.4,1c-0.2,0.3-0.5,0.4-0.9,0.4c-0.4,0-0.7-0.1-1-0.3
				c-1-0.7-2.1-1.1-3.3-1.1c-2,0-3.6,0.8-4.8,2.5c-1.2,1.7-1.9,4.4-2,8.2c0,0,0,0.1,0,0.1c0,0,0.1,0,0.1,0c0.8-0.9,1.7-1.7,2.8-2.2
				c1-0.5,2.1-0.8,3.1-0.8c2.3,0,4.1,0.7,5.4,2.1s1.9,3.5,1.9,6.2c0,2.5-0.7,4.5-2.2,6.1c-1.5,1.6-3.3,2.4-5.4,2.4
				c-2.6,0-4.8-1.1-6.4-3.4c-1.6-2.2-2.4-5.5-2.4-9.7c0-2.5,0.3-4.7,0.8-6.6c0.5-1.9,1.3-3.4,2.2-4.5s2-1.9,3.1-2.4
				c1.1-0.5,2.4-0.8,3.7-0.8C432.7,36.3,434.4,36.9,435.9,38.1z M429.8,61.1c1.3,0,2.4-0.6,3.2-1.7s1.3-2.6,1.3-4.3
				c0-1.8-0.4-3.3-1.2-4.3c-0.8-1-2-1.5-3.6-1.5c-1.9,0-3.7,1.1-5.2,3.2c-0.1,0.1-0.2,0.3-0.1,0.5c0.2,2.7,0.8,4.7,1.8,6.1
				S428.2,61.1,429.8,61.1z"/>
			<path id="XMLID_75_" d="M441.5,63.2c-0.3,0-0.5-0.1-0.7-0.3c-0.2-0.2-0.3-0.4-0.3-0.7c0-0.6,0.2-1.2,0.7-1.6
				c3.9-3.5,6.8-6.5,8.6-9.1c1.8-2.6,2.7-5,2.7-7.2c0-1.6-0.4-2.8-1.2-3.8s-2-1.4-3.6-1.4s-3.1,0.7-4.6,2.1
				c-0.3,0.3-0.6,0.4-0.9,0.4c-0.4,0-0.7-0.1-0.9-0.4c-0.3-0.3-0.4-0.6-0.4-0.9c0-0.4,0.1-0.7,0.4-0.9c2.1-2,4.3-3,6.8-3
				c2.3,0,4.2,0.7,5.6,2.1c1.4,1.4,2.1,3.3,2.1,5.7c0,2.5-0.9,5-2.6,7.6s-4.2,5.5-7.5,8.7c0,0-0.1,0.1,0,0.1c0,0,0.1,0.1,0.1,0.1
				c1.9-0.2,3.3-0.2,4-0.2h5.9c0.4,0,0.7,0.1,1,0.4s0.4,0.6,0.4,1s-0.1,0.7-0.4,1s-0.6,0.4-1,0.4H441.5z"/>
			<path id="XMLID_77_" d="M469,63.7c-2.4,0-4.5-0.7-6-2c-1.6-1.3-2.4-3-2.4-5c0-1.6,0.5-3,1.4-4.3s2.1-2.2,3.4-3
				c0,0,0.1-0.1,0.1-0.1c0-0.1,0-0.1-0.1-0.2c-2.3-1.6-3.5-3.6-3.5-6c0-2,0.7-3.6,2-4.9c1.4-1.2,3.1-1.9,5.2-1.9
				c2.2,0,4,0.6,5.3,1.9c1.3,1.3,2,3,2,5c0,1.2-0.3,2.4-1,3.5c-0.7,1.1-1.5,2-2.4,2.8c0,0-0.1,0.1-0.1,0.2c0,0.1,0,0.1,0.1,0.1
				c2.9,1.7,4.4,4,4.4,6.9c0,1.9-0.8,3.6-2.3,4.9S471.4,63.7,469,63.7z M469,61.2c1.5,0,2.7-0.4,3.7-1.2c0.9-0.8,1.4-1.9,1.4-3.2
				c0-0.7-0.1-1.3-0.4-1.9s-0.6-1-0.9-1.4c-0.4-0.4-0.9-0.8-1.5-1.2c-0.7-0.4-1.3-0.7-1.8-0.9c-0.5-0.2-1.2-0.5-2.1-0.9
				c0,0-0.1,0-0.2,0c-0.1,0-0.2,0-0.3,0.1c-1,0.7-1.9,1.6-2.5,2.5c-0.6,1-0.9,2.1-0.9,3.3c0,1.4,0.5,2.6,1.6,3.5
				C466.1,60.8,467.4,61.2,469,61.2z M470.5,48.8c0.2,0,0.3,0,0.4-0.1c1.7-1.5,2.6-3.3,2.6-5.1c0-1.3-0.4-2.5-1.2-3.4
				c-0.8-0.9-1.9-1.4-3.3-1.4c-1.2,0-2.2,0.4-3,1.2c-0.8,0.8-1.2,1.8-1.2,3.1c0,0.7,0.1,1.4,0.4,2s0.7,1.1,1.3,1.6
				c0.6,0.4,1.2,0.8,1.8,1.1C468.9,48.1,469.6,48.4,470.5,48.8z"/>
			<path id="XMLID_81_" d="M493.4,57.4c-0.1,0-0.2,0.1-0.2,0.2v1.5c0,0.1,0.1,0.2,0.2,0.2h2.6c0.2,0,0.4,0.1,0.6,0.2
				s0.2,0.3,0.2,0.5s-0.1,0.4-0.2,0.6s-0.3,0.2-0.6,0.2h-2.6c-0.1,0-0.2,0.1-0.2,0.2v3.3c0,0.2-0.1,0.4-0.2,0.6s-0.3,0.2-0.5,0.2
				s-0.4-0.1-0.5-0.2s-0.2-0.3-0.2-0.6V61c0-0.1-0.1-0.2-0.2-0.2h-2.8c-0.2,0-0.4-0.1-0.6-0.2s-0.2-0.3-0.2-0.6s0.1-0.4,0.2-0.5
				s0.3-0.2,0.6-0.2h2.8c0.1,0,0.2-0.1,0.2-0.2v-1.5c0-0.1-0.1-0.2-0.2-0.2h-1.5c-0.4,0-0.7-0.1-1-0.4s-0.4-0.6-0.4-1v-5.7
				c0-0.4,0.1-0.7,0.4-1s0.6-0.4,1-0.4h1.5c0.1,0,0.2-0.1,0.2-0.2v-1.4c0-0.1-0.1-0.2-0.2-0.2h-2.6c-0.2,0-0.4-0.1-0.6-0.2
				s-0.2-0.3-0.2-0.5s0.1-0.4,0.2-0.5s0.3-0.2,0.6-0.2h2.6c0.1,0,0.2-0.1,0.2-0.2v-1.6c0-0.2,0.1-0.4,0.2-0.6s0.3-0.2,0.5-0.2
				s0.4,0.1,0.5,0.2s0.2,0.3,0.2,0.6v1.6c0,0.1,0.1,0.2,0.2,0.2h2.4c0.2,0,0.4,0.1,0.6,0.2s0.2,0.3,0.2,0.5s-0.1,0.4-0.2,0.5
				s-0.3,0.2-0.6,0.2h-2.4c-0.1,0-0.2,0.1-0.2,0.2v1.4c0,0.1,0.1,0.2,0.2,0.2h1.5c0.4,0,0.7,0.1,1,0.4s0.4,0.6,0.4,1v5.7
				c0,0.4-0.1,0.7-0.4,1s-0.6,0.4-1,0.4H493.4z M490.1,50.3c-0.1,0-0.2,0.1-0.2,0.2v1.9c0,0.1,0.1,0.2,0.2,0.2h1.6
				c0.1,0,0.2-0.1,0.2-0.2v-1.9c0-0.1-0.1-0.2-0.2-0.2H490.1z M490.1,53.8c-0.1,0-0.2,0.1-0.2,0.2v1.9c0,0.1,0.1,0.2,0.2,0.2h1.6
				c0.1,0,0.2-0.1,0.2-0.2V54c0-0.1-0.1-0.2-0.2-0.2H490.1z M494.9,52.5c0.1,0,0.2-0.1,0.2-0.2v-1.9c0-0.1-0.1-0.2-0.2-0.2h-1.6
				c-0.1,0-0.2,0.1-0.2,0.2v1.9c0,0.1,0.1,0.2,0.2,0.2H494.9z M494.9,56.1c0.1,0,0.2-0.1,0.2-0.2V54c0-0.1-0.1-0.2-0.2-0.2h-1.6
				c-0.1,0-0.2,0.1-0.2,0.2v1.9c0,0.1,0.1,0.2,0.2,0.2H494.9z M509.5,45.2c0.2,0.1,0.2,0.3,0.2,0.6s-0.1,0.4-0.2,0.6
				s-0.3,0.2-0.5,0.2h-4.7c-0.1,0-0.2,0.1-0.2,0.2v2c0,0.1,0.1,0.2,0.2,0.2h3.8c0.4,0,0.7,0.1,1,0.4s0.4,0.6,0.4,1v12.8
				c0,0.4-0.1,0.8-0.2,1s-0.3,0.4-0.6,0.6c-0.4,0.2-1.2,0.3-2.2,0.3c-0.2,0-0.4-0.1-0.6-0.2s-0.3-0.3-0.4-0.6c0-0.2,0-0.3,0.1-0.5
				s0.2-0.2,0.4-0.2c0.4,0,0.7,0,0.9,0c0.3,0,0.5,0,0.7,0c0.1,0,0.2,0,0.3-0.1s0.1-0.2,0.1-0.3v-2.9c0,0,0,0,0,0s0,0,0,0
				c-0.1,0.1-0.3,0.2-0.4,0.1s-0.3-0.1-0.4-0.2c-0.5-0.8-0.8-1.7-1-2.8c0,0,0,0,0,0s0,0,0,0c-0.2,1.1-0.6,1.9-1,2.6
				c-0.1,0.2-0.3,0.3-0.5,0.3s-0.4-0.1-0.6-0.2c0,0,0,0-0.1,0s0,0,0,0.1v4.2c0,0.2-0.1,0.3-0.2,0.4s-0.3,0.2-0.4,0.2
				s-0.3-0.1-0.4-0.2s-0.2-0.3-0.2-0.4v-4.2c0-0.1,0-0.1-0.1,0c-0.2,0.1-0.4,0.2-0.6,0.2s-0.4-0.2-0.4-0.3c-0.3-0.6-0.5-1.4-0.7-2.2
				c0,0,0,0,0,0s0,0,0,0c-0.2,1.1-0.6,2-1,2.7c-0.1,0.1-0.2,0.2-0.3,0.2s-0.2-0.1-0.3-0.2c-0.1-0.2-0.2-0.3-0.2-0.5
				c0-0.1,0-0.3,0.1-0.4c0.7-1.1,1.1-2.9,1.4-5.5c0-0.1,0-0.1-0.1-0.1H500c-0.2,0-0.3-0.1-0.4-0.2s-0.2-0.3-0.2-0.4s0.1-0.3,0.2-0.4
				s0.2-0.2,0.4-0.2h0.5c0.3,0,0.5,0.1,0.7,0.3s0.3,0.5,0.3,0.8c0,2.6,0.4,4.6,1.1,5.9c0,0,0,0,0.1,0s0,0,0,0v-8.8
				c0-0.1-0.1-0.2-0.2-0.2h-3.7c-0.1,0-0.2,0.1-0.2,0.2v13.7c0,0.2-0.1,0.3-0.2,0.5S498.2,65,498,65s-0.4-0.1-0.5-0.2
				s-0.2-0.3-0.2-0.5v-14c0-0.4,0.1-0.7,0.4-1s0.6-0.4,1-0.4h3.6c0.1,0,0.2-0.1,0.2-0.2v-2c0-0.1-0.1-0.2-0.2-0.2h-4.5
				c-0.2,0-0.4-0.1-0.5-0.2s-0.2-0.3-0.2-0.6s0.1-0.4,0.2-0.6s0.3-0.2,0.5-0.2H509C509.2,45,509.3,45.1,509.5,45.2z M507.9,59.3
				C507.9,59.3,507.9,59.4,507.9,59.3C508,59.3,508,59.3,507.9,59.3l0.1-8.7c0-0.1-0.1-0.2-0.2-0.2h-3.8c-0.1,0-0.2,0.1-0.2,0.2v8.9
				c0,0,0,0.1,0,0.1s0.1,0,0.1,0c0.8-1,1.3-2.9,1.6-5.8c0-0.1,0-0.1-0.1-0.1h-0.4c-0.2,0-0.3-0.1-0.4-0.2s-0.2-0.3-0.2-0.4
				s0.1-0.3,0.2-0.4s0.2-0.2,0.4-0.2h0.5c0.3,0,0.6,0.1,0.8,0.3s0.3,0.5,0.3,0.8c0,1.2,0.1,2.2,0.3,3.2S507.4,58.6,507.9,59.3z"/>
		</g>
		<g id="XMLID_482_">
			<line id="XMLID_484_" class="st3" x1="159" y1="51.8" x2="204" y2="51.8"/>
			<line id="XMLID_483_" class="st3" x1="228" y1="51.8" x2="255" y2="51.8"/>
		</g>
	</g>
	<g id="XMLID_747_">
		<path id="XMLID_771_" class="st17" d="M371,37.8c-3.9-2.4-16.5-5.5-34.2-5.5l-9.4-10.9c-2-2.3-4.8-3.6-7.9-3.6h-28
			c-3,0-5.9,1.1-8.1,3l-11,9.5L260.7,32c-1.7,0.2-3,1.5-3.4,3.1l-1.4,5.6L287,55.2h87.2V43.5C374.2,41.2,373,39,371,37.8z"/>
		<path id="XMLID_770_" class="st18" d="M374.2,44.8c0-4.2-6.2-8.3-35.3-8.3h-80.9c-1.2,0-2.1,0.9-2.1,2.1V51l39.4,6.2h78.9
			L374.2,44.8L374.2,44.8z"/>
		<path id="XMLID_769_" class="st19" d="M374.2,53.1h-97.3L258.4,49c-1.1-0.2-2.2,0.4-2.5,1.6c-0.3,1.1,0.4,2.2,1.6,2.5l18.7,4.2
			c0.1,0,0.3,0,0.4,0h97.5c1.2,0,2.1-0.9,2.1-2.1C376.2,54,375.3,53.1,374.2,53.1z"/>
		<circle id="XMLID_768_" class="st11" cx="355.5" cy="53.1" r="10.4"/>
		<path id="XMLID_765_" class="st6" d="M355.5,65.6c-6.9,0-12.5-5.6-12.5-12.5s5.6-12.5,12.5-12.5c6.9,0,12.5,5.6,12.5,12.5
			S362.3,65.6,355.5,65.6z M355.5,44.8c-4.6,0-8.3,3.7-8.3,8.3s3.7,8.3,8.3,8.3c4.6,0,8.3-3.7,8.3-8.3
			C363.8,48.5,360.1,44.8,355.5,44.8z"/>
		<circle id="XMLID_764_" class="st7" cx="355.5" cy="53.1" r="4.2"/>
		<circle id="XMLID_763_" class="st11" cx="276.6" cy="53.1" r="10.4"/>
		<path id="XMLID_760_" class="st6" d="M276.6,65.6c-6.9,0-12.5-5.6-12.5-12.5s5.6-12.5,12.5-12.5c6.9,0,12.5,5.6,12.5,12.5
			C289,60,283.5,65.6,276.6,65.6z M276.6,44.8c-4.6,0-8.3,3.7-8.3,8.3s3.7,8.3,8.3,8.3c4.6,0,8.3-3.7,8.3-8.3
			C284.9,48.5,281.2,44.8,276.6,44.8z"/>
		<circle id="XMLID_759_" class="st7" cx="276.6" cy="53.1" r="4.2"/>
		<g id="XMLID_756_">
			<path id="XMLID_758_" class="st19" d="M338.9,49h-43.6c-1.2,0-2.1-0.9-2.1-2.1l0,0c0-1.2,0.9-2.1,2.1-2.1h43.6
				c1.2,0,2.1,0.9,2.1,2.1l0,0C340.9,48,340,49,338.9,49z"/>
			<path id="XMLID_757_" class="st19" d="M374.2,49h-2.1c-1.2,0-2.1-0.9-2.1-2.1l0,0c0-1.2,0.9-2.1,2.1-2.1h2.1
				c1.2,0,2.1,0.9,2.1,2.1l0,0C376.2,48,375.3,49,374.2,49z"/>
		</g>
		<path id="XMLID_755_" class="st18" d="M272.4,30.3l11-9.5c2.3-1.9,5.1-3,8.1-3h28c3,0,5.9,1.3,7.9,3.6l9.4,10.9h-49.1
			c-1.8,0-3.6-0.1-5.5-0.4L272.4,30.3z"/>
		<path id="XMLID_754_" class="st10" d="M317.3,21.4c-0.8-0.9-2-1.5-3.2-1.5h-19.2c-1.1,0-2.2,0.4-2.9,1.2l-6.2,6.2
			c-0.5,0.5-0.9,1.3-0.9,2.1l0,0c0,1.6,1.3,2.9,2.9,2.9h36.3c0.9,0,1.4-1,0.8-1.7L317.3,21.4z"/>
		<polygon id="XMLID_753_" class="st6" points="299.4,32.4 293.2,32.4 297.4,19.9 301.5,19.9 		"/>
		<path id="XMLID_752_" class="st11" d="M371.9,38.6H370c-1.2,0-2.1,0.9-2.1,2.1s0.9,2.1,2.1,2.1h4.1
			C373.9,41.1,373.1,39.7,371.9,38.6z"/>
		<path id="XMLID_751_" class="st10" d="M327.4,21.5c-0.5-0.6-1.1-1.1-1.6-1.6h-3.4c-0.9,0-1.4,1-0.8,1.7l7.7,9.3
			c0.8,0.9,2,1.5,3.2,1.5h4.3L327.4,21.5z"/>
		<path id="XMLID_750_" class="st16" d="M255.9,38.6v2.1h4.2c1.2,0,2.1-0.9,2.1-2.1c0-1.1-0.9-2.1-2.1-2.1h-2.1
			C256.8,36.5,255.9,37.4,255.9,38.6z"/>
		<path id="XMLID_749_" class="st19" d="M314.3,16.5h-15.4c-1.6,0-2.8-1.3-2.8-2.8v-0.2c0-1.6,1.3-2.8,2.8-2.8h15.4
			c1.6,0,2.8,1.3,2.8,2.8v0.2C317.1,15.3,315.8,16.5,314.3,16.5z"/>
		<text id="XMLID_748_" transform="matrix(1 0 0 1 300.9912 15.1372)" class="st6 st20 st21">TAXI</text>
	</g>
</g>
<g id="XMLID_169_" class="st0">
	<g id="XMLID_1148_" class="st1">
		<rect id="XMLID_863_" x="147.2" y="200" class="st2" width="54.2" height="22.4"/>
		<g id="XMLID_149_">
			<path id="XMLID_150_" d="M79.2,207.2c0-0.3,0.2-0.5,0.4-0.6c0.2-0.1,0.3-0.1,0.5-0.1c0.1,0,0.1,0,0.2,0c0.2,0.1,0.4,0.2,0.6,0.4
				c0.1,0.1,0.1,0.3,0.1,0.5c0,0.1,0,0.1,0,0.2c-0.8,3.4-1.9,6-3.2,7.9c-0.1,0.2-0.3,0.3-0.6,0.4c-0.1,0-0.1,0-0.2,0
				c-0.2,0-0.4,0-0.5-0.1c-0.2-0.1-0.3-0.3-0.4-0.5c0-0.1,0-0.1,0-0.2c0-0.2,0-0.3,0.1-0.4c0.7-0.9,1.3-2.1,1.8-3.4
				C78.5,209.9,78.9,208.6,79.2,207.2z M85.1,202.1c0-0.2,0.1-0.4,0.3-0.6s0.4-0.3,0.6-0.3c0.2,0,0.4,0.1,0.6,0.3s0.3,0.4,0.3,0.6
				v16.5c0,0.6-0.1,1-0.3,1.3c-0.2,0.3-0.4,0.5-0.8,0.7c-0.6,0.2-1.7,0.3-3.3,0.3c-0.3,0-0.5-0.1-0.7-0.2c-0.2-0.2-0.4-0.4-0.5-0.6
				c-0.1-0.2-0.1-0.4,0.1-0.6c0.1-0.2,0.3-0.3,0.5-0.3c0.5,0,0.9,0,1.3,0c0.5,0,0.9,0,1.3,0c0.4,0,0.6-0.2,0.6-0.6V202.1z
				 M90.7,207.4c-0.1-0.2-0.1-0.4,0-0.6s0.2-0.3,0.4-0.4c0.1-0.1,0.2-0.1,0.3-0.1c0.1,0,0.2,0,0.3,0.1c0.2,0.1,0.4,0.2,0.5,0.4
				c0.8,1.4,1.6,2.8,2.2,4.3c0.6,1.4,1.1,2.6,1.4,3.7c0,0.1,0,0.2,0,0.3c0,0.2,0,0.3-0.1,0.5c-0.1,0.2-0.3,0.4-0.6,0.5
				c-0.1,0-0.2,0.1-0.3,0.1c-0.1,0-0.2,0-0.4-0.1c-0.2-0.1-0.3-0.3-0.4-0.5c-0.3-1.1-0.7-2.4-1.3-3.8
				C92.2,210.3,91.5,208.8,90.7,207.4z"/>
			<path id="XMLID_154_" d="M103.1,208.3c-0.1,0.2-0.3,0.2-0.5,0.2c-0.2,0-0.4-0.1-0.5-0.2c-0.1-0.2-0.2-0.3-0.2-0.6v-2.4
				c0,0,0-0.1-0.1-0.1c0,0-0.1,0-0.1,0c-0.7,0.5-1.4,0.9-2.1,1.3c-0.2,0.1-0.3,0.1-0.5,0.1c-0.1,0-0.1,0-0.2,0
				c-0.2,0-0.5-0.2-0.6-0.3c-0.1-0.1-0.2-0.2-0.2-0.4c0-0.2,0.1-0.4,0.3-0.5c2.1-1,3.8-2.2,5.1-3.5c0.3-0.3,0.5-0.4,0.8-0.4
				c0.1,0,0.3,0,0.4,0.1c0.2,0.1,0.3,0.2,0.3,0.4c0,0.2,0,0.3-0.1,0.5c-0.4,0.5-0.9,0.9-1.5,1.4c-0.1,0.1-0.1,0.2-0.1,0.3v3.6
				C103.3,207.9,103.3,208.1,103.1,208.3z M103.7,218.5c0.3-0.1,0.5-0.2,0.8-0.2s0.5,0.1,0.7,0.2c0.2,0.1,0.2,0.2,0.2,0.4
				s-0.1,0.3-0.2,0.4c-1.5,0.7-3.2,1.4-5.1,2c-0.1,0-0.3,0.1-0.4,0.1c-0.4,0-0.7-0.2-1-0.5c-0.1-0.1-0.1-0.2-0.1-0.3
				c0,0,0-0.1,0-0.1c0-0.2,0.2-0.3,0.3-0.3C100.8,219.6,102.4,219.1,103.7,218.5z M102,217.9c-0.3,0-0.6-0.1-0.9-0.4
				c-0.2-0.2-0.4-0.5-0.4-0.9v-6.3c0-0.3,0.1-0.6,0.4-0.9c0.2-0.2,0.5-0.4,0.9-0.4h11.6c0.3,0,0.6,0.1,0.9,0.4
				c0.2,0.2,0.4,0.5,0.4,0.9v6.3c0,0.3-0.1,0.6-0.4,0.9c-0.2,0.2-0.5,0.4-0.9,0.4H102z M102.5,210.2c-0.1,0-0.2,0.1-0.2,0.1v1.2
				c0,0.1,0.1,0.1,0.2,0.1h10.6c0.1,0,0.1,0,0.1-0.1v-1.2c0-0.1,0-0.1-0.1-0.1H102.5z M102.5,212.7c-0.1,0-0.2,0.1-0.2,0.2v1.2
				c0,0.1,0.1,0.2,0.2,0.2h10.6c0.1,0,0.1-0.1,0.1-0.2v-1.2c0-0.1,0-0.2-0.1-0.2H102.5z M102.5,215.3c-0.1,0-0.2,0.1-0.2,0.2v1.2
				c0,0.1,0.1,0.2,0.2,0.2h10.6c0.1,0,0.1-0.1,0.1-0.2v-1.2c0-0.1,0-0.2-0.1-0.2H102.5z M114.8,208.2H110c-1.2,0-2-0.1-2.4-0.4
				c-0.4-0.3-0.6-0.8-0.6-1.7v-3.7c0-0.2,0.1-0.4,0.2-0.5s0.3-0.2,0.6-0.2c0.2,0,0.4,0.1,0.5,0.2c0.1,0.1,0.2,0.3,0.2,0.5v1.3
				c0,0.1,0,0.2,0.1,0.1c2.2-0.4,4-0.9,5.4-1.3c0.2-0.1,0.4-0.1,0.5-0.1c0.3,0,0.6,0.1,0.9,0.3c0.1,0.1,0.2,0.3,0.1,0.5
				c0,0.2-0.1,0.3-0.3,0.4c-1.8,0.6-4,1.1-6.6,1.5c-0.1,0-0.1,0.1-0.1,0.2v0.9c0,0.3,0.1,0.5,0.3,0.6c0.2,0.1,0.6,0.1,1.3,0.1h4.6
				c0.4,0,0.7-0.1,0.8-0.2c0.2-0.1,0.3-0.4,0.3-0.9c0-0.2,0.1-0.3,0.3-0.4c0.2-0.1,0.3-0.1,0.5,0c0.2,0.1,0.4,0.2,0.5,0.4
				c0.1,0.1,0.1,0.3,0.1,0.4c0,0.1,0,0.1,0,0.1c-0.1,0.8-0.4,1.3-0.7,1.5C116.2,208.1,115.6,208.2,114.8,208.2z M110.3,219.3
				c-0.2-0.1-0.3-0.2-0.3-0.4c0-0.1,0.1-0.2,0.2-0.3c0.3-0.2,0.6-0.3,0.9-0.3c0.2,0,0.3,0,0.5,0.1c1.9,0.6,3.6,1.2,4.9,1.8
				c0.2,0.1,0.3,0.2,0.3,0.4c0,0.2-0.1,0.3-0.3,0.4c-0.3,0.1-0.6,0.2-0.9,0.2c-0.3,0-0.6-0.1-0.9-0.2
				C113.5,220.4,112,219.9,110.3,219.3z"/>
			<path id="XMLID_163_" d="M138.7,216.2c0.2,0,0.4,0.1,0.5,0.2c0.1,0.1,0.2,0.3,0.2,0.5s-0.1,0.4-0.2,0.5c-0.1,0.1-0.3,0.2-0.5,0.2
				h-8.1c-0.1,0-0.2,0.1-0.2,0.2v2.3c0,0.2-0.1,0.4-0.2,0.6s-0.4,0.2-0.6,0.2s-0.4-0.1-0.6-0.2c-0.2-0.2-0.2-0.4-0.2-0.6v-2.3
				c0-0.1-0.1-0.2-0.1-0.2h-8c-0.2,0-0.4-0.1-0.5-0.2s-0.2-0.3-0.2-0.5s0.1-0.4,0.2-0.5s0.3-0.2,0.5-0.2h8c0.1,0,0.1-0.1,0.1-0.2
				v-1.5c0-0.1-0.1-0.2-0.1-0.2h-5.1c-0.3,0-0.6-0.1-0.9-0.4c-0.2-0.2-0.4-0.5-0.4-0.9v-6c0-0.3,0.1-0.6,0.4-0.9
				c0.2-0.2,0.5-0.4,0.9-0.4h5.1c0.1,0,0.1,0,0.1-0.1v-1.3c0-0.1-0.1-0.1-0.1-0.1h-7.3c-0.2,0-0.4-0.1-0.5-0.2
				c-0.1-0.2-0.2-0.3-0.2-0.5s0.1-0.4,0.2-0.5c0.1-0.1,0.3-0.2,0.5-0.2h7.3c0.1,0,0.1,0,0.1-0.1v-1c0-0.2,0.1-0.4,0.2-0.6
				c0.2-0.2,0.4-0.2,0.6-0.2s0.4,0.1,0.6,0.2c0.2,0.2,0.2,0.4,0.2,0.6v1c0,0.1,0.1,0.1,0.2,0.1h7.4c0.2,0,0.4,0.1,0.5,0.2
				c0.1,0.1,0.2,0.3,0.2,0.5s-0.1,0.4-0.2,0.5c-0.1,0.1-0.3,0.2-0.5,0.2h-7.4c-0.1,0-0.2,0.1-0.2,0.1v1.3c0,0.1,0.1,0.1,0.2,0.1h5.3
				c0.3,0,0.6,0.1,0.9,0.4s0.4,0.5,0.4,0.9v6c0,0.3-0.1,0.6-0.4,0.9s-0.5,0.4-0.9,0.4h-5.3c-0.1,0-0.2,0.1-0.2,0.2v1.5
				c0,0.1,0.1,0.2,0.2,0.2H138.7z M123.8,207.3c-0.1,0-0.1,0-0.1,0.1v1.9c0,0.1,0,0.1,0.1,0.1h4.7c0.1,0,0.1,0,0.1-0.1v-1.9
				c0-0.1-0.1-0.1-0.1-0.1H123.8z M123.7,213c0,0.1,0,0.1,0.1,0.1h4.7c0.1,0,0.1,0,0.1-0.1V211c0-0.1-0.1-0.2-0.1-0.2h-4.7
				c-0.1,0-0.1,0.1-0.1,0.2V213z M135.4,207.5c0-0.1-0.1-0.1-0.1-0.1h-4.8c-0.1,0-0.2,0-0.2,0.1v1.9c0,0.1,0.1,0.1,0.2,0.1h4.8
				c0.1,0,0.1,0,0.1-0.1V207.5z M135.3,213.1c0.1,0,0.1,0,0.1-0.1V211c0-0.1-0.1-0.2-0.1-0.2h-4.8c-0.1,0-0.2,0.1-0.2,0.2v1.9
				c0,0.1,0.1,0.1,0.2,0.1H135.3z"/>
		</g>
		<g id="XMLID_130_">
			<path id="XMLID_131_" d="M341.3,222.7c-0.4,0-0.7-0.1-1-0.4s-0.4-0.6-0.4-1s0.1-0.7,0.4-1s0.6-0.4,1-0.4h4.3
				c0.2,0,0.2-0.1,0.2-0.2v-19.2c0-0.2-0.1-0.3-0.2-0.3h-3.4c-0.3,0-0.6-0.1-0.8-0.3s-0.3-0.5-0.3-0.8c0-0.3,0.1-0.5,0.3-0.8
				s0.4-0.4,0.7-0.5c1.2-0.3,2.4-0.6,3.3-1.1c0.8-0.4,1.6-0.6,2.4-0.6c0.4,0,0.7,0.1,0.9,0.4s0.4,0.5,0.4,0.9v22.1
				c0,0.2,0.1,0.2,0.3,0.2h3.7c0.4,0,0.7,0.1,1,0.4s0.4,0.6,0.4,1s-0.1,0.7-0.4,1s-0.6,0.4-1,0.4H341.3z"/>
			<path id="XMLID_133_" d="M366.2,223.2c-2.8,0-5.3-0.9-7.4-2.6c-0.3-0.3-0.5-0.6-0.5-1.1c0-0.3,0.1-0.6,0.3-0.9s0.5-0.4,0.8-0.5
				s0.7,0.1,0.9,0.3c1.6,1.3,3.4,2,5.5,2c1.6,0,2.9-0.6,4-1.7s1.6-2.6,1.6-4.5s-0.5-3.3-1.5-4.4s-2.3-1.6-4-1.6
				c-1.2,0-2.4,0.3-3.5,1c-0.3,0.2-0.6,0.2-0.9,0.2c-0.3,0-0.6-0.1-0.8-0.2c-0.6-0.4-0.9-0.9-0.8-1.6l0.6-9.2c0-0.6,0.3-1.1,0.7-1.5
				s0.9-0.6,1.5-0.6h9.4c0.4,0,0.7,0.1,1,0.4s0.4,0.6,0.4,1s-0.1,0.7-0.4,1s-0.6,0.4-1,0.4h-8.3c-0.2,0-0.3,0.1-0.3,0.3l-0.6,7.1
				c0,0,0,0.1,0.1,0.1s0.1,0,0.1,0c1.1-0.6,2.4-0.9,3.7-0.9c2.3,0,4.2,0.7,5.7,2.1s2.2,3.5,2.2,6.3c0,1.9-0.4,3.5-1.2,4.9
				s-1.9,2.4-3.2,3.1S367.7,223.2,366.2,223.2z"/>
			<path id="XMLID_135_" d="M386.8,223.2c-2.6,0-4.6-1.2-6.1-3.5s-2.2-5.7-2.2-10.2c0-4.5,0.7-7.9,2.2-10.2s3.5-3.4,6.1-3.4
				c2.6,0,4.6,1.1,6,3.4s2.2,5.7,2.2,10.2c0,4.5-0.7,7.9-2.2,10.2S389.3,223.2,386.8,223.2z M386.8,220.6c1.5,0,2.8-0.9,3.7-2.8
				s1.3-4.6,1.3-8.4c0-3.7-0.4-6.5-1.3-8.2s-2.1-2.7-3.7-2.7c-1.6,0-2.8,0.9-3.7,2.7s-1.3,4.5-1.3,8.2c0,3.8,0.4,6.5,1.3,8.4
				S385.2,220.6,386.8,220.6z"/>
			<path id="XMLID_138_" d="M413.6,197.6c0.3,0.3,0.4,0.6,0.4,1s-0.1,0.7-0.4,1c-0.2,0.3-0.5,0.4-0.9,0.4s-0.7-0.1-1-0.3
				c-1-0.7-2.1-1.1-3.3-1.1c-2,0-3.6,0.8-4.8,2.5s-1.9,4.4-2,8.2c0,0,0,0.1,0,0.1s0.1,0,0.1,0c0.8-0.9,1.7-1.7,2.8-2.2
				s2.1-0.8,3.1-0.8c2.3,0,4.1,0.7,5.4,2.1s1.9,3.5,1.9,6.2c0,2.5-0.7,4.5-2.2,6.1s-3.3,2.4-5.4,2.4c-2.6,0-4.8-1.1-6.4-3.4
				s-2.4-5.5-2.4-9.7c0-2.5,0.3-4.7,0.8-6.6s1.3-3.4,2.2-4.5s2-1.9,3.1-2.4s2.4-0.8,3.7-0.8C410.5,195.8,412.2,196.4,413.6,197.6z
				 M407.5,220.6c1.3,0,2.4-0.6,3.2-1.7s1.3-2.6,1.3-4.3c0-1.8-0.4-3.3-1.2-4.3s-2-1.5-3.6-1.5c-1.9,0-3.7,1.1-5.2,3.2
				c-0.1,0.1-0.2,0.3-0.1,0.5c0.2,2.7,0.8,4.7,1.8,6.1S405.9,220.6,407.5,220.6z"/>
			<path id="XMLID_141_" d="M431.2,216.9c-0.1,0-0.2,0.1-0.2,0.2v1.5c0,0.1,0.1,0.2,0.2,0.2h2.6c0.2,0,0.4,0.1,0.6,0.2
				s0.2,0.3,0.2,0.5s-0.1,0.4-0.2,0.6s-0.3,0.2-0.6,0.2h-2.6c-0.1,0-0.2,0.1-0.2,0.2v3.3c0,0.2-0.1,0.4-0.2,0.6s-0.3,0.2-0.5,0.2
				s-0.4-0.1-0.5-0.2s-0.2-0.3-0.2-0.6v-3.3c0-0.1-0.1-0.2-0.2-0.2h-2.8c-0.2,0-0.4-0.1-0.6-0.2s-0.2-0.3-0.2-0.6s0.1-0.4,0.2-0.5
				s0.3-0.2,0.6-0.2h2.8c0.1,0,0.2-0.1,0.2-0.2v-1.5c0-0.1-0.1-0.2-0.2-0.2h-1.5c-0.4,0-0.7-0.1-1-0.4s-0.4-0.6-0.4-1v-5.7
				c0-0.4,0.1-0.7,0.4-1s0.6-0.4,1-0.4h1.5c0.1,0,0.2-0.1,0.2-0.2v-1.4c0-0.1-0.1-0.2-0.2-0.2h-2.6c-0.2,0-0.4-0.1-0.6-0.2
				s-0.2-0.3-0.2-0.5s0.1-0.4,0.2-0.5s0.3-0.2,0.6-0.2h2.6c0.1,0,0.2-0.1,0.2-0.2v-1.6c0-0.2,0.1-0.4,0.2-0.6s0.3-0.2,0.5-0.2
				s0.4,0.1,0.5,0.2s0.2,0.3,0.2,0.6v1.6c0,0.1,0.1,0.2,0.2,0.2h2.4c0.2,0,0.4,0.1,0.6,0.2s0.2,0.3,0.2,0.5s-0.1,0.4-0.2,0.5
				s-0.3,0.2-0.6,0.2h-2.4c-0.1,0-0.2,0.1-0.2,0.2v1.4c0,0.1,0.1,0.2,0.2,0.2h1.5c0.4,0,0.7,0.1,1,0.4s0.4,0.6,0.4,1v5.7
				c0,0.4-0.1,0.7-0.4,1s-0.6,0.4-1,0.4H431.2z M427.9,209.8c-0.1,0-0.2,0.1-0.2,0.2v1.9c0,0.1,0.1,0.2,0.2,0.2h1.6
				c0.1,0,0.2-0.1,0.2-0.2V210c0-0.1-0.1-0.2-0.2-0.2H427.9z M427.9,213.3c-0.1,0-0.2,0.1-0.2,0.2v1.9c0,0.1,0.1,0.2,0.2,0.2h1.6
				c0.1,0,0.2-0.1,0.2-0.2v-1.9c0-0.1-0.1-0.2-0.2-0.2H427.9z M432.7,212c0.1,0,0.2-0.1,0.2-0.2V210c0-0.1-0.1-0.2-0.2-0.2h-1.6
				c-0.1,0-0.2,0.1-0.2,0.2v1.9c0,0.1,0.1,0.2,0.2,0.2H432.7z M432.7,215.6c0.1,0,0.2-0.1,0.2-0.2v-1.9c0-0.1-0.1-0.2-0.2-0.2h-1.6
				c-0.1,0-0.2,0.1-0.2,0.2v1.9c0,0.1,0.1,0.2,0.2,0.2H432.7z M447.3,204.7c0.2,0.1,0.2,0.3,0.2,0.6s-0.1,0.4-0.2,0.6
				s-0.3,0.2-0.5,0.2h-4.7c-0.1,0-0.2,0.1-0.2,0.2v2c0,0.1,0.1,0.2,0.2,0.2h3.8c0.4,0,0.7,0.1,1,0.4s0.4,0.6,0.4,1v12.8
				c0,0.4-0.1,0.8-0.2,1s-0.3,0.4-0.6,0.6c-0.4,0.2-1.2,0.3-2.2,0.3c-0.2,0-0.4-0.1-0.6-0.2s-0.3-0.3-0.4-0.6c0-0.2,0-0.3,0.1-0.5
				s0.2-0.2,0.4-0.2c0.4,0,0.7,0,0.9,0c0.3,0,0.5,0,0.7,0c0.1,0,0.2,0,0.3-0.1s0.1-0.2,0.1-0.3v-2.9c0,0,0,0,0,0s0,0,0,0
				c-0.1,0.1-0.3,0.2-0.4,0.1s-0.3-0.1-0.4-0.2c-0.5-0.8-0.8-1.7-1-2.8c0,0,0,0,0,0s0,0,0,0c-0.2,1.1-0.6,1.9-1,2.6
				c-0.1,0.2-0.3,0.3-0.5,0.3s-0.4-0.1-0.6-0.2c0,0,0,0-0.1,0s0,0,0,0.1v4.2c0,0.2-0.1,0.3-0.2,0.4s-0.3,0.2-0.4,0.2
				s-0.3-0.1-0.4-0.2s-0.2-0.3-0.2-0.4v-4.2c0-0.1,0-0.1-0.1,0c-0.2,0.1-0.4,0.2-0.6,0.2s-0.4-0.2-0.4-0.3c-0.3-0.6-0.5-1.4-0.7-2.2
				c0,0,0,0,0,0s0,0,0,0c-0.2,1.1-0.6,2-1,2.7c-0.1,0.1-0.2,0.2-0.3,0.2s-0.2-0.1-0.3-0.2c-0.1-0.2-0.2-0.3-0.2-0.5
				c0-0.1,0-0.3,0.1-0.4c0.7-1.1,1.1-2.9,1.4-5.5c0-0.1,0-0.1-0.1-0.1h-0.4c-0.2,0-0.3-0.1-0.4-0.2s-0.2-0.3-0.2-0.4
				s0.1-0.3,0.2-0.4s0.2-0.2,0.4-0.2h0.5c0.3,0,0.5,0.1,0.7,0.3s0.3,0.5,0.3,0.8c0,2.6,0.4,4.6,1.1,5.9c0,0,0,0,0.1,0s0,0,0,0v-8.8
				c0-0.1-0.1-0.2-0.2-0.2h-3.7c-0.1,0-0.2,0.1-0.2,0.2v13.7c0,0.2-0.1,0.3-0.2,0.5s-0.3,0.2-0.5,0.2s-0.4-0.1-0.5-0.2
				s-0.2-0.3-0.2-0.5v-14c0-0.4,0.1-0.7,0.4-1s0.6-0.4,1-0.4h3.6c0.1,0,0.2-0.1,0.2-0.2v-2c0-0.1-0.1-0.2-0.2-0.2h-4.5
				c-0.2,0-0.4-0.1-0.5-0.2s-0.2-0.3-0.2-0.6s0.1-0.4,0.2-0.6s0.3-0.2,0.5-0.2h11.1C447,204.5,447.1,204.6,447.3,204.7z
				 M445.7,218.8C445.7,218.8,445.7,218.9,445.7,218.8C445.8,218.8,445.8,218.8,445.7,218.8l0.1-8.7c0-0.1-0.1-0.2-0.2-0.2h-3.8
				c-0.1,0-0.2,0.1-0.2,0.2v8.9c0,0,0,0.1,0,0.1s0.1,0,0.1,0c0.8-1,1.3-2.9,1.6-5.8c0-0.1,0-0.1-0.1-0.1h-0.4
				c-0.2,0-0.3-0.1-0.4-0.2s-0.2-0.3-0.2-0.4s0.1-0.3,0.2-0.4s0.2-0.2,0.4-0.2h0.5c0.3,0,0.6,0.1,0.8,0.3s0.3,0.5,0.3,0.8
				c0,1.2,0.1,2.2,0.3,3.2S445.2,218.1,445.7,218.8z"/>
		</g>
		<g id="XMLID_478_">
			<line id="XMLID_479_" class="st3" x1="159" y1="210.8" x2="200" y2="210.8"/>
		</g>
	</g>
	<g id="XMLID_711_" class="st1">
		<path id="XMLID_746_" class="st10" d="M291.1,198.6h-20.2v6.1h-66.6c-1.1,0-2,0.9-2,2v4c0,1.1,0.9,2,2,2h86.8L291.1,198.6
			L291.1,198.6z"/>
		<path id="XMLID_745_" class="st7" d="M272.9,156.2h-74.7c-1.1,0-2,0.9-2,2v44.4c0,1.1,0.9,2,2,2h74.7c1.1,0,2-0.9,2-2v-44.4
			C274.9,157.1,274,156.2,272.9,156.2z"/>
		<g id="XMLID_742_">
			<path id="XMLID_744_" class="st4" d="M268.9,200.6h-66.6c-1.1,0-2-0.9-2-2l0,0c0-1.1,0.9-2,2-2h66.6c1.1,0,2,0.9,2,2l0,0
				C270.9,199.7,270,200.6,268.9,200.6z"/>
			<path id="XMLID_743_" class="st4" d="M268.9,164.3h-66.6c-1.1,0-2-0.9-2-2l0,0c0-1.1,0.9-2,2-2h66.6c1.1,0,2,0.9,2,2l0,0
				C270.9,163.3,270,164.3,268.9,164.3z"/>
		</g>
		<path id="XMLID_741_" class="st9" d="M298.4,166.3H281c-1.1,0-2,0.9-2,2v30.3c0,1.1,0.9,2,2,2h9.1v10.1h21.2v-14.4
			c0-2.5-0.5-4.9-1.3-7.2l-7.8-20.2C301.6,167.3,300.1,166.3,298.4,166.3z"/>
		<rect id="XMLID_740_" x="290.1" y="200.6" class="st8" width="21.2" height="10.1"/>
		<circle id="XMLID_739_" class="st11" cx="219.4" cy="211.7" r="9.3"/>
		<path id="XMLID_736_" class="st6" d="M219.4,222.8c-6.1,0-11.1-5-11.1-11.1s5-11.1,11.1-11.1s11.1,5,11.1,11.1
			S225.5,222.8,219.4,222.8z M219.4,204.6c-3.9,0-7.1,3.2-7.1,7.1c0,3.9,3.2,7.1,7.1,7.1c3.9,0,7.1-3.2,7.1-7.1
			C226.5,207.8,223.3,204.6,219.4,204.6z"/>
		<circle id="XMLID_735_" class="st7" cx="219.4" cy="211.7" r="4"/>
		<circle id="XMLID_734_" class="st11" cx="290.1" cy="211.7" r="9.3"/>
		<path id="XMLID_731_" class="st6" d="M290.1,222.8c-6.1,0-11.1-5-11.1-11.1s5-11.1,11.1-11.1c6.1,0,11.1,5,11.1,11.1
			C301.2,217.8,296.2,222.8,290.1,222.8z M290.1,204.6c-3.9,0-7.1,3.2-7.1,7.1c0,3.9,3.2,7.1,7.1,7.1c3.9,0,7.1-3.2,7.1-7.1
			C297.1,207.8,294,204.6,290.1,204.6z"/>
		<circle id="XMLID_730_" class="st7" cx="290.1" cy="211.7" r="4"/>
		<path id="XMLID_729_" class="st10" d="M309.2,212.7h2c1.1,0,2-0.9,2-2v-4c0-1.1-0.9-2-2-2h-2c-1.1,0-2,0.9-2,2v4
			C307.2,211.8,308.1,212.7,309.2,212.7z"/>
		<path id="XMLID_728_" class="st11" d="M309.2,196.5h2v6.1h-2c-1.1,0-2-0.9-2-2v-2C307.2,197.5,308.1,196.5,309.2,196.5z"/>
		<path id="XMLID_727_" class="st10" d="M297.8,170.3H285c-1.1,0-2,0.9-2,2v10.1c0,1.1,0.9,2,2,2h18.9c1,0,1.7-1,1.4-2l-3.7-9.6
			C301,171.3,299.5,170.3,297.8,170.3z"/>
		<g id="XMLID_726_">
		</g>
		<g id="XMLID_725_">
		</g>
		<g id="XMLID_724_">
		</g>
		<g id="XMLID_723_">
		</g>
		<g id="XMLID_722_">
		</g>
		<g id="XMLID_721_">
		</g>
		<g id="XMLID_720_">
		</g>
		<g id="XMLID_719_">
		</g>
		<g id="XMLID_718_">
		</g>
		<g id="XMLID_717_">
		</g>
		<g id="XMLID_716_">
		</g>
		<g id="XMLID_715_">
		</g>
		<g id="XMLID_714_">
		</g>
		<g id="XMLID_713_">
		</g>
		<g id="XMLID_712_">
		</g>
	</g>
</g>
<g id="XMLID_210_" class="st0">
	<g id="XMLID_1149_" class="st1">
		<rect id="XMLID_862_" x="147.2" y="279.4" class="st2" width="43.8" height="22.4"/>
		<g id="XMLID_187_">
			<path id="XMLID_188_" d="M84.9,286.7c0.1-0.2,0.2-0.3,0.4-0.4c0.2-0.1,0.4-0.2,0.6-0.2c0.4,0,0.8,0.2,1.1,0.5
				c1.1,1.3,1.9,2.6,2.6,3.7c0.1,0.2,0.1,0.4,0.1,0.6s-0.1,0.4-0.3,0.5c-0.1,0.1-0.3,0.2-0.5,0.1c-0.2,0-0.3-0.1-0.4-0.3
				c-0.7-1.3-1.4-2.5-2.2-3.6c0,0-0.1,0-0.1,0c0,0-0.1,0-0.1,0c-0.7,1.5-1.5,2.8-2.3,3.9c0,0,0,0.1,0,0.1c0,0,0,0,0.1,0h3.6
				c0.4,0,0.7,0.1,0.9,0.4s0.4,0.5,0.4,0.9v6.3c0,0.2-0.1,0.3-0.2,0.5c-0.1,0.1-0.3,0.2-0.5,0.2c-0.2,0-0.3-0.1-0.5-0.2
				c-0.1-0.1-0.2-0.3-0.2-0.5v-0.2c0-0.1,0-0.1-0.1-0.1h-2.5c-0.1,0-0.1,0-0.1,0.1v0.4c0,0.2-0.1,0.3-0.2,0.5
				c-0.1,0.1-0.3,0.2-0.5,0.2c-0.2,0-0.3-0.1-0.5-0.2c-0.1-0.1-0.2-0.3-0.2-0.5v-7.2c0,0,0,0,0,0c0,0,0,0,0,0
				c-0.1,0.2-0.3,0.2-0.5,0.2c-0.2,0-0.4-0.1-0.6-0.2c-0.1-0.1-0.2-0.2-0.3-0.2c0,0-0.1,0-0.1,0c0,0,0,0,0,0.1v6.5
				c0,0.7-0.2,1.2-0.6,1.5c-0.3,0.1-0.8,0.2-1.4,0.2c-0.2,0-0.4,0-0.6-0.2c-0.2-0.1-0.3-0.3-0.4-0.5c0-0.2,0-0.3,0.1-0.4
				c0.1-0.1,0.2-0.2,0.4-0.2c0.2,0,0.3,0,0.4,0c0.1,0,0.2,0,0.3,0c0.1,0,0.2,0,0.2,0c0.1,0,0.2,0,0.2-0.1c0,0,0.1-0.1,0.1-0.3v-5.4
				c0-0.1-0.1-0.1-0.2-0.1h-1.8c-0.1,0-0.2,0-0.2,0.1c-0.2,2.7-0.5,4.8-1,6.5c-0.1,0.2-0.2,0.3-0.3,0.3c-0.2,0-0.3,0-0.5-0.1
				c-0.2-0.1-0.3-0.2-0.4-0.4c0-0.1-0.1-0.2-0.1-0.3c0-0.1,0-0.2,0-0.2c0.7-2.2,1-5.6,1-10.1v-6.4c0-0.4,0.1-0.7,0.4-0.9
				c0.2-0.2,0.5-0.4,0.9-0.4h2.2c0.4,0,0.7,0.1,0.9,0.4c0.2,0.2,0.4,0.5,0.4,0.9v9.3c0,0,0,0,0,0.1c0,0,0,0,0.1,0
				C83,290.6,84.1,288.8,84.9,286.7z M78.2,291.6c0,0.1,0,0.1,0.1,0.1h1.7c0.1,0,0.2,0,0.2-0.1v-3.5c0-0.1-0.1-0.2-0.2-0.2h-1.7
				c-0.1,0-0.1,0.1-0.1,0.2v0.9C78.3,290.2,78.3,291,78.2,291.6z M80.3,283c0-0.1-0.1-0.2-0.2-0.2h-1.7c-0.1,0-0.1,0.1-0.1,0.2v3.4
				c0,0.1,0,0.1,0.1,0.1h1.7c0.1,0,0.2,0,0.2-0.1V283z M83.9,281.6c0.1-0.2,0.2-0.3,0.3-0.4c0.1-0.1,0.2-0.1,0.3-0.1
				c0.1,0,0.1,0,0.2,0c0.2,0,0.3,0.1,0.4,0.3c0.1,0.2,0.1,0.3,0,0.5c-0.5,1.5-1.2,2.9-1.9,4c-0.1,0.1-0.2,0.2-0.4,0.2
				s-0.3,0-0.5-0.1c-0.1-0.1-0.2-0.3-0.3-0.4c0-0.2,0-0.4,0.1-0.5C82.9,284.2,83.4,283,83.9,281.6z M87.3,293.4
				c0-0.1-0.1-0.1-0.2-0.1h-2.4c-0.1,0-0.1,0-0.1,0.1v4.2c0,0.1,0,0.2,0.1,0.2h2.4c0.1,0,0.2-0.1,0.2-0.2V293.4z M89.3,284.9
				c0.1,0.2,0,0.4,0,0.5c-0.1,0.2-0.2,0.3-0.4,0.4c-0.2,0.1-0.3,0.1-0.5,0s-0.3-0.2-0.3-0.4c-0.4-1.1-0.9-2.2-1.5-3.5
				c-0.1-0.1-0.1-0.3,0-0.4c0.1-0.2,0.2-0.3,0.3-0.3c0.1,0,0.2-0.1,0.3-0.1c0.1,0,0.1,0,0.2,0c0.2,0.1,0.3,0.2,0.4,0.3
				C88.4,282.7,88.9,283.8,89.3,284.9z M93.9,281.4c0.4,0,0.7,0.1,0.9,0.4s0.4,0.5,0.4,0.9v12.3c0,0.7-0.2,1.1-0.6,1.4
				c-0.3,0.2-0.7,0.3-1.3,0.3c-0.2,0-0.4,0-0.6-0.2c-0.2-0.1-0.3-0.3-0.4-0.6c-0.1-0.2,0-0.3,0.1-0.5s0.2-0.2,0.4-0.2
				c0.1,0,0.3,0,0.3,0c0.1,0,0.2,0,0.3,0c0.1,0,0.1,0,0.2,0c0.1,0,0.2,0,0.2-0.1c0,0,0.1-0.1,0.1-0.2V283c0-0.1-0.1-0.2-0.2-0.2
				h-2.1c-0.1,0-0.2,0.1-0.2,0.2v16.9c0,0.2-0.1,0.4-0.2,0.5c-0.1,0.1-0.3,0.2-0.5,0.2c-0.2,0-0.4-0.1-0.5-0.2
				c-0.1-0.1-0.2-0.3-0.2-0.5v-17.2c0-0.4,0.1-0.7,0.4-0.9s0.5-0.4,0.9-0.4H93.9z"/>
			<path id="XMLID_196_" d="M102.8,296.3C102.8,296.3,102.8,296.3,102.8,296.3c0.1,0.1,0.1,0.1,0.1,0.1l2.1-0.6
				c0.2-0.1,0.3,0,0.5,0.1s0.2,0.2,0.3,0.4c0,0.2,0,0.4-0.1,0.6c-0.1,0.2-0.3,0.3-0.4,0.3c-2,0.6-4.1,1.3-6.4,2
				c-0.2,0.1-0.4,0.1-0.6-0.1c-0.2-0.1-0.3-0.3-0.4-0.5c0-0.1,0-0.1,0-0.2c0-0.1,0-0.3,0.1-0.4c0.1-0.2,0.3-0.3,0.5-0.4
				c0,0,0,0,0.1,0c0,0,0,0,0.1,0c0.1,0,0.1-0.1,0.1-0.1v-6.7c0-0.2,0.1-0.3,0.2-0.5c0.1-0.1,0.3-0.2,0.5-0.2s0.3,0.1,0.5,0.2
				c0.1,0.1,0.2,0.3,0.2,0.5v6.3c0,0,0,0.1,0,0.1c0,0,0.1,0,0.1,0l1.1-0.3c0.1,0,0.1-0.1,0.1-0.2v-8.4c0-0.1,0-0.2-0.1-0.2h-1.5
				c-0.4,0-0.7-0.1-0.9-0.4s-0.4-0.5-0.4-0.9v-4.1c0-0.3,0.1-0.6,0.4-0.9s0.5-0.4,0.9-0.4h4.1c0.4,0,0.7,0.1,0.9,0.4
				s0.4,0.5,0.4,0.9v4.1c0,0.4-0.1,0.7-0.4,0.9s-0.5,0.4-0.9,0.4h-1c-0.1,0-0.1,0.1-0.1,0.2v2.7c0,0.1,0,0.2,0.1,0.2h1.6
				c0.2,0,0.4,0.1,0.5,0.2c0.1,0.1,0.2,0.3,0.2,0.5s-0.1,0.4-0.2,0.5s-0.3,0.2-0.5,0.2h-1.6c-0.1,0-0.1,0.1-0.1,0.2V296.3z
				 M100.1,282.9c-0.1,0-0.2,0-0.2,0.1v3.5c0,0.1,0.1,0.2,0.2,0.2h3.5c0.1,0,0.2-0.1,0.2-0.2v-3.5c0-0.1-0.1-0.1-0.2-0.1H100.1z
				 M108.8,283.4c0.4,0,0.7,0,0.9,0.1c0.1,0,0.2,0.1,0.3,0.2c0.1,0.1,0.1,0.2,0.1,0.4c-0.6,2.7-1.7,4.7-3.5,6
				c-0.2,0.1-0.3,0.2-0.5,0.1c-0.2,0-0.4-0.1-0.5-0.3c-0.1-0.1-0.1-0.2-0.1-0.4c0-0.2,0.1-0.4,0.3-0.5c1.2-0.9,2.1-2.3,2.7-4.1
				c0,0,0-0.1,0-0.1s-0.1,0-0.1,0h-1.8c-0.2,0-0.4-0.1-0.5-0.2s-0.2-0.3-0.2-0.5s0.1-0.4,0.2-0.5s0.3-0.2,0.5-0.2H108.8z
				 M107.6,300.5c-0.2,0-0.4-0.1-0.5-0.2c-0.1-0.2-0.2-0.3-0.2-0.5v-7c0-0.4,0.1-0.7,0.4-0.9c0.2-0.2,0.5-0.4,0.9-0.4h7.2
				c0.3,0,0.6,0.1,0.9,0.4c0.2,0.2,0.4,0.5,0.4,0.9v6.9c0,0.2-0.1,0.4-0.2,0.6s-0.3,0.2-0.6,0.2h-0.2c-0.2,0-0.3-0.1-0.4-0.2
				c-0.1-0.1-0.2-0.3-0.2-0.4c0-0.1,0-0.1-0.1-0.1h-6.4c-0.1,0-0.1,0-0.1,0.1c0,0.2-0.1,0.3-0.2,0.5
				C108,300.5,107.9,300.5,107.6,300.5L107.6,300.5z M115,293c0-0.1-0.1-0.2-0.2-0.2h-6.3c-0.1,0-0.1,0.1-0.1,0.2v1.7
				c0,0.1,0,0.2,0.1,0.2h6.3c0.1,0,0.2-0.1,0.2-0.2V293z M108.4,298.2c0,0.1,0,0.1,0.1,0.1h6.3c0.1,0,0.2,0,0.2-0.1v-1.9
				c0-0.1-0.1-0.2-0.2-0.2h-6.3c-0.1,0-0.1,0.1-0.1,0.2V298.2z M115.5,282.9c0.2-0.2,0.3-0.3,0.6-0.3c0.2,0,0.4,0,0.6,0.2
				c0.2,0.1,0.3,0.3,0.3,0.5c0,0.2-0.1,0.4-0.2,0.5c-0.9,0.8-1.7,1.5-2.4,2c-0.1,0.1-0.1,0.1,0,0.2c0.9,1.2,1.9,2.2,3,2.7
				c0.2,0.1,0.3,0.2,0.3,0.4c0,0,0,0.1,0,0.1c0,0.1,0,0.2-0.1,0.4c-0.2,0.2-0.3,0.3-0.6,0.4c-0.2,0.1-0.4,0-0.6-0.1
				c-1.6-1-2.9-2.6-3.9-4.9c0,0,0,0,0,0c0,0,0,0,0,0v4.2c0,0.4,0,0.7-0.1,0.9s-0.3,0.4-0.5,0.5c-0.3,0.2-0.9,0.3-1.8,0.3
				c-0.2,0-0.4-0.1-0.6-0.2c-0.2-0.1-0.3-0.3-0.4-0.5c0-0.1,0-0.1,0-0.2c0-0.1,0-0.2,0.1-0.3c0.1-0.1,0.2-0.2,0.4-0.2
				c0.2,0,0.3,0,0.5,0c0.3,0,0.6,0,0.7,0c0.1,0,0.2,0,0.3-0.1c0,0,0.1-0.1,0.1-0.2v-8c0-0.2,0.1-0.4,0.2-0.5s0.3-0.2,0.5-0.2
				s0.4,0.1,0.5,0.2c0.1,0.1,0.2,0.3,0.2,0.5v0.3c0,0.1,0,0.2,0,0.3c0.3,1.1,0.7,2,1.1,2.8c0,0.1,0.1,0.1,0.2,0
				C114.4,284.2,115,283.5,115.5,282.9z"/>
			<path id="XMLID_204_" d="M138.7,295.4c0.2,0,0.4,0.1,0.5,0.2c0.1,0.1,0.2,0.3,0.2,0.5s-0.1,0.4-0.2,0.5c-0.1,0.1-0.3,0.2-0.5,0.2
				h-8.1c-0.1,0-0.2,0.1-0.2,0.2v2.3c0,0.2-0.1,0.4-0.2,0.6s-0.4,0.2-0.6,0.2s-0.4-0.1-0.6-0.2c-0.2-0.2-0.2-0.4-0.2-0.6V297
				c0-0.1-0.1-0.2-0.1-0.2h-8c-0.2,0-0.4-0.1-0.5-0.2s-0.2-0.3-0.2-0.5s0.1-0.4,0.2-0.5s0.3-0.2,0.5-0.2h8c0.1,0,0.1-0.1,0.1-0.2
				v-1.5c0-0.1-0.1-0.2-0.1-0.2h-5.1c-0.3,0-0.6-0.1-0.9-0.4c-0.2-0.2-0.4-0.5-0.4-0.9v-6c0-0.3,0.1-0.6,0.4-0.9
				c0.2-0.2,0.5-0.4,0.9-0.4h5.1c0.1,0,0.1,0,0.1-0.1v-1.3c0-0.1-0.1-0.1-0.1-0.1h-7.3c-0.2,0-0.4-0.1-0.5-0.2
				c-0.1-0.2-0.2-0.3-0.2-0.5s0.1-0.4,0.2-0.5c0.1-0.1,0.3-0.2,0.5-0.2h7.3c0.1,0,0.1,0,0.1-0.1v-1c0-0.2,0.1-0.4,0.2-0.6
				c0.2-0.2,0.4-0.2,0.6-0.2s0.4,0.1,0.6,0.2c0.2,0.2,0.2,0.4,0.2,0.6v1c0,0.1,0.1,0.1,0.2,0.1h7.4c0.2,0,0.4,0.1,0.5,0.2
				c0.1,0.1,0.2,0.3,0.2,0.5s-0.1,0.4-0.2,0.5c-0.1,0.1-0.3,0.2-0.5,0.2h-7.4c-0.1,0-0.2,0.1-0.2,0.1v1.3c0,0.1,0.1,0.1,0.2,0.1h5.3
				c0.3,0,0.6,0.1,0.9,0.4s0.4,0.5,0.4,0.9v6c0,0.3-0.1,0.6-0.4,0.9s-0.5,0.4-0.9,0.4h-5.3c-0.1,0-0.2,0.1-0.2,0.2v1.5
				c0,0.1,0.1,0.2,0.2,0.2H138.7z M123.8,286.5c-0.1,0-0.1,0-0.1,0.1v1.9c0,0.1,0,0.1,0.1,0.1h4.7c0.1,0,0.1,0,0.1-0.1v-1.9
				c0-0.1-0.1-0.1-0.1-0.1H123.8z M123.7,292.1c0,0.1,0,0.1,0.1,0.1h4.7c0.1,0,0.1,0,0.1-0.1v-1.9c0-0.1-0.1-0.2-0.1-0.2h-4.7
				c-0.1,0-0.1,0.1-0.1,0.2V292.1z M135.4,286.6c0-0.1-0.1-0.1-0.1-0.1h-4.8c-0.1,0-0.2,0-0.2,0.1v1.9c0,0.1,0.1,0.1,0.2,0.1h4.8
				c0.1,0,0.1,0,0.1-0.1V286.6z M135.3,292.3c0.1,0,0.1,0,0.1-0.1v-1.9c0-0.1-0.1-0.2-0.1-0.2h-4.8c-0.1,0-0.2,0.1-0.2,0.2v1.9
				c0,0.1,0.1,0.1,0.2,0.1H135.3z"/>
		</g>
		<g id="XMLID_170_">
			<path id="XMLID_171_" d="M282.5,302.9c-0.4,0-0.7-0.1-1-0.4s-0.4-0.6-0.4-1s0.1-0.7,0.4-1s0.6-0.4,1-0.4h4.3
				c0.2,0,0.2-0.1,0.2-0.2v-19.2c0-0.2-0.1-0.3-0.2-0.3h-3.4c-0.3,0-0.6-0.1-0.8-0.3s-0.3-0.5-0.3-0.8c0-0.3,0.1-0.5,0.3-0.8
				s0.4-0.4,0.7-0.5c1.2-0.3,2.4-0.6,3.3-1.1c0.8-0.4,1.6-0.6,2.4-0.6c0.4,0,0.7,0.1,0.9,0.4s0.4,0.5,0.4,0.9v22.1
				c0,0.2,0.1,0.2,0.3,0.2h3.7c0.4,0,0.7,0.1,1,0.4s0.4,0.6,0.4,1s-0.1,0.7-0.4,1s-0.6,0.4-1,0.4H282.5z"/>
			<path id="XMLID_173_" d="M300.5,302.9c-0.3,0-0.5-0.1-0.7-0.3s-0.3-0.4-0.3-0.7c0-0.6,0.2-1.2,0.7-1.6c3.9-3.5,6.8-6.5,8.6-9.1
				s2.7-5,2.7-7.2c0-1.6-0.4-2.8-1.2-3.8s-2-1.4-3.6-1.4s-3.1,0.7-4.6,2.1c-0.3,0.3-0.6,0.4-0.9,0.4s-0.7-0.1-0.9-0.4
				s-0.4-0.6-0.4-0.9s0.1-0.7,0.4-0.9c2.1-2,4.3-3,6.8-3c2.3,0,4.2,0.7,5.6,2.1s2.1,3.3,2.1,5.7c0,2.5-0.9,5-2.6,7.6
				s-4.2,5.5-7.5,8.7c0,0-0.1,0.1,0,0.1s0.1,0.1,0.1,0.1c1.9-0.2,3.3-0.2,4-0.2h5.9c0.4,0,0.7,0.1,1,0.4s0.4,0.6,0.4,1
				s-0.1,0.7-0.4,1s-0.6,0.4-1,0.4H300.5z"/>
			<path id="XMLID_175_" d="M322.5,302.9c-0.4,0-0.7-0.1-1-0.4s-0.4-0.6-0.4-1s0.1-0.7,0.4-1s0.6-0.4,1-0.4h4.3
				c0.2,0,0.2-0.1,0.2-0.2v-19.2c0-0.2-0.1-0.3-0.2-0.3h-3.4c-0.3,0-0.6-0.1-0.8-0.3s-0.3-0.5-0.3-0.8c0-0.3,0.1-0.5,0.3-0.8
				s0.4-0.4,0.7-0.5c1.2-0.3,2.4-0.6,3.3-1.1c0.8-0.4,1.6-0.6,2.4-0.6c0.4,0,0.7,0.1,0.9,0.4s0.4,0.5,0.4,0.9v22.1
				c0,0.2,0.1,0.2,0.3,0.2h3.7c0.4,0,0.7,0.1,1,0.4s0.4,0.6,0.4,1s-0.1,0.7-0.4,1s-0.6,0.4-1,0.4H322.5z"/>
			<path id="XMLID_177_" d="M348.5,301.2c0,0.5-0.2,0.9-0.5,1.2s-0.8,0.5-1.2,0.5c-0.5,0-0.9-0.2-1.2-0.5s-0.5-0.7-0.5-1.1
				c0-3.8,0.7-7.7,2-11.9c1.1-3.3,2.8-6.6,5.1-9.9c0,0,0.1-0.1,0-0.1s-0.1-0.1-0.1-0.1h-11.1c-0.4,0-0.7-0.1-1-0.4s-0.4-0.6-0.4-1
				s0.1-0.7,0.4-1s0.6-0.4,1-0.4h14.1c0.3,0,0.5,0.1,0.7,0.3s0.3,0.4,0.3,0.7c0,0.6-0.2,1.2-0.6,1.8c-2.5,3.4-4.3,6.7-5.3,9.9
				S348.7,296.4,348.5,301.2z"/>
			<path id="XMLID_179_" d="M372.4,297.1c-0.1,0-0.2,0.1-0.2,0.2v1.5c0,0.1,0.1,0.2,0.2,0.2h2.6c0.2,0,0.4,0.1,0.6,0.2
				s0.2,0.3,0.2,0.5s-0.1,0.4-0.2,0.6s-0.3,0.2-0.6,0.2h-2.6c-0.1,0-0.2,0.1-0.2,0.2v3.3c0,0.2-0.1,0.4-0.2,0.6s-0.3,0.2-0.5,0.2
				s-0.4-0.1-0.5-0.2s-0.2-0.3-0.2-0.6v-3.3c0-0.1-0.1-0.2-0.2-0.2h-2.8c-0.2,0-0.4-0.1-0.6-0.2s-0.2-0.3-0.2-0.6s0.1-0.4,0.2-0.5
				s0.3-0.2,0.6-0.2h2.8c0.1,0,0.2-0.1,0.2-0.2v-1.5c0-0.1-0.1-0.2-0.2-0.2H369c-0.4,0-0.7-0.1-1-0.4s-0.4-0.6-0.4-1V290
				c0-0.4,0.1-0.7,0.4-1s0.6-0.4,1-0.4h1.5c0.1,0,0.2-0.1,0.2-0.2v-1.4c0-0.1-0.1-0.2-0.2-0.2h-2.6c-0.2,0-0.4-0.1-0.6-0.2
				s-0.2-0.3-0.2-0.5s0.1-0.4,0.2-0.5s0.3-0.2,0.6-0.2h2.6c0.1,0,0.2-0.1,0.2-0.2v-1.6c0-0.2,0.1-0.4,0.2-0.6s0.3-0.2,0.5-0.2
				s0.4,0.1,0.5,0.2s0.2,0.3,0.2,0.6v1.6c0,0.1,0.1,0.2,0.2,0.2h2.4c0.2,0,0.4,0.1,0.6,0.2s0.2,0.3,0.2,0.5s-0.1,0.4-0.2,0.5
				s-0.3,0.2-0.6,0.2h-2.4c-0.1,0-0.2,0.1-0.2,0.2v1.4c0,0.1,0.1,0.2,0.2,0.2h1.5c0.4,0,0.7,0.1,1,0.4s0.4,0.6,0.4,1v5.7
				c0,0.4-0.1,0.7-0.4,1s-0.6,0.4-1,0.4H372.4z M369.1,290c-0.1,0-0.2,0.1-0.2,0.2v1.9c0,0.1,0.1,0.2,0.2,0.2h1.6
				c0.1,0,0.2-0.1,0.2-0.2v-1.9c0-0.1-0.1-0.2-0.2-0.2H369.1z M369.1,293.5c-0.1,0-0.2,0.1-0.2,0.2v1.9c0,0.1,0.1,0.2,0.2,0.2h1.6
				c0.1,0,0.2-0.1,0.2-0.2v-1.9c0-0.1-0.1-0.2-0.2-0.2H369.1z M373.9,292.2c0.1,0,0.2-0.1,0.2-0.2v-1.9c0-0.1-0.1-0.2-0.2-0.2h-1.6
				c-0.1,0-0.2,0.1-0.2,0.2v1.9c0,0.1,0.1,0.2,0.2,0.2H373.9z M373.9,295.8c0.1,0,0.2-0.1,0.2-0.2v-1.9c0-0.1-0.1-0.2-0.2-0.2h-1.6
				c-0.1,0-0.2,0.1-0.2,0.2v1.9c0,0.1,0.1,0.2,0.2,0.2H373.9z M388.5,284.9c0.2,0.1,0.2,0.3,0.2,0.6s-0.1,0.4-0.2,0.6
				s-0.3,0.2-0.5,0.2h-4.7c-0.1,0-0.2,0.1-0.2,0.2v2c0,0.1,0.1,0.2,0.2,0.2h3.8c0.4,0,0.7,0.1,1,0.4s0.4,0.6,0.4,1v12.8
				c0,0.4-0.1,0.8-0.2,1s-0.3,0.4-0.6,0.6c-0.4,0.2-1.2,0.3-2.2,0.3c-0.2,0-0.4-0.1-0.6-0.2s-0.3-0.3-0.4-0.6c0-0.2,0-0.3,0.1-0.5
				s0.2-0.2,0.4-0.2c0.4,0,0.7,0,0.9,0c0.3,0,0.5,0,0.7,0c0.1,0,0.2,0,0.3-0.1s0.1-0.2,0.1-0.3v-2.9c0,0,0,0,0,0s0,0,0,0
				c-0.1,0.1-0.3,0.2-0.4,0.1s-0.3-0.1-0.4-0.2c-0.5-0.8-0.8-1.7-1-2.8c0,0,0,0,0,0s0,0,0,0c-0.2,1.1-0.6,1.9-1,2.6
				c-0.1,0.2-0.3,0.3-0.5,0.3s-0.4-0.1-0.6-0.2c0,0,0,0-0.1,0s0,0,0,0.1v4.2c0,0.2-0.1,0.3-0.2,0.4s-0.3,0.2-0.4,0.2
				s-0.3-0.1-0.4-0.2s-0.2-0.3-0.2-0.4v-4.2c0-0.1,0-0.1-0.1,0c-0.2,0.1-0.4,0.2-0.6,0.2s-0.4-0.2-0.4-0.3c-0.3-0.6-0.5-1.4-0.7-2.2
				c0,0,0,0,0,0s0,0,0,0c-0.2,1.1-0.6,2-1,2.7c-0.1,0.1-0.2,0.2-0.3,0.2s-0.2-0.1-0.3-0.2c-0.1-0.2-0.2-0.3-0.2-0.5
				c0-0.1,0-0.3,0.1-0.4c0.7-1.1,1.1-2.9,1.4-5.5c0-0.1,0-0.1-0.1-0.1H379c-0.2,0-0.3-0.1-0.4-0.2s-0.2-0.3-0.2-0.4s0.1-0.3,0.2-0.4
				s0.2-0.2,0.4-0.2h0.5c0.3,0,0.5,0.1,0.7,0.3s0.3,0.5,0.3,0.8c0,2.6,0.4,4.6,1.1,5.9c0,0,0,0,0.1,0s0,0,0,0v-8.8
				c0-0.1-0.1-0.2-0.2-0.2h-3.7c-0.1,0-0.2,0.1-0.2,0.2V304c0,0.2-0.1,0.3-0.2,0.5s-0.3,0.2-0.5,0.2s-0.4-0.1-0.5-0.2
				s-0.2-0.3-0.2-0.5v-14c0-0.4,0.1-0.7,0.4-1s0.6-0.4,1-0.4h3.6c0.1,0,0.2-0.1,0.2-0.2v-2c0-0.1-0.1-0.2-0.2-0.2h-4.5
				c-0.2,0-0.4-0.1-0.5-0.2s-0.2-0.3-0.2-0.6s0.1-0.4,0.2-0.6s0.3-0.2,0.5-0.2h11.1C388.1,284.7,388.3,284.8,388.5,284.9z
				 M386.9,299C386.9,299,386.9,299,386.9,299C386.9,299,387,299,386.9,299l0.1-8.7c0-0.1-0.1-0.2-0.2-0.2H383
				c-0.1,0-0.2,0.1-0.2,0.2v8.9c0,0,0,0.1,0,0.1s0.1,0,0.1,0c0.8-1,1.3-2.9,1.6-5.8c0-0.1,0-0.1-0.1-0.1h-0.4
				c-0.2,0-0.3-0.1-0.4-0.2s-0.2-0.3-0.2-0.4s0.1-0.3,0.2-0.4s0.2-0.2,0.4-0.2h0.5c0.3,0,0.6,0.1,0.8,0.3s0.3,0.5,0.3,0.8
				c0,1.2,0.1,2.2,0.3,3.2S386.4,298.2,386.9,299z"/>
		</g>
		<g id="XMLID_449_">
			<line id="XMLID_477_" class="st3" x1="159" y1="290.8" x2="185" y2="290.8"/>
		</g>
	</g>
	<g id="XMLID_669_" class="st1">
		<path id="XMLID_710_" class="st10" d="M238.3,260c-0.4,0-0.7-0.1-1-0.4c-0.5-0.5-0.5-1.4,0-2l2.1-2.1l-0.2-0.3
			c-0.2-0.5-0.7-0.8-1.2-0.8h-3.8c-0.8,0-1.4-0.6-1.4-1.4c0-0.8,0.6-1.4,1.4-1.4h3.8c1.6,0,3,0.9,3.7,2.3l0.6,1.2
			c0.3,0.5,0.2,1.2-0.3,1.6l-2.8,2.8C239,259.9,238.7,260,238.3,260z"/>
		<path id="XMLID_707_" class="st6" d="M202.3,301.7c-9.2,0-16.7-7.5-16.7-16.7s7.5-16.7,16.7-16.7s16.7,7.5,16.7,16.7
			S211.4,301.7,202.3,301.7z M202.3,271.1c-7.7,0-13.9,6.2-13.9,13.9s6.2,13.9,13.9,13.9c7.7,0,13.9-6.2,13.9-13.9
			S209.9,271.1,202.3,271.1z"/>
		<path id="XMLID_704_" class="st11" d="M202.3,298.9c-7.7,0-13.9-6.2-13.9-13.9s6.2-13.9,13.9-13.9c7.7,0,13.9,6.2,13.9,13.9
			S209.9,298.9,202.3,298.9z M202.3,273.9c-6.1,0-11.1,5-11.1,11.1c0,6.1,5,11.1,11.1,11.1s11.1-5,11.1-11.1
			C213.4,278.9,208.4,273.9,202.3,273.9z"/>
		<path id="XMLID_701_" class="st6" d="M249.4,301.7c-9.2,0-16.7-7.5-16.7-16.7s7.5-16.7,16.7-16.7s16.7,7.5,16.7,16.7
			S258.6,301.7,249.4,301.7z M249.4,271.1c-7.7,0-13.9,6.2-13.9,13.9s6.2,13.9,13.9,13.9c7.7,0,13.9-6.2,13.9-13.9
			S257.1,271.1,249.4,271.1z"/>
		<path id="XMLID_698_" class="st11" d="M249.4,298.9c-7.7,0-13.9-6.2-13.9-13.9s6.2-13.9,13.9-13.9c7.7,0,13.9,6.2,13.9,13.9
			S257.1,298.9,249.4,298.9z M249.4,273.9c-6.1,0-11.1,5-11.1,11.1c0,6.1,5,11.1,11.1,11.1s11.1-5,11.1-11.1
			C260.5,278.9,255.6,273.9,249.4,273.9z"/>
		<g id="XMLID_695_">
			<circle id="XMLID_697_" class="st22" cx="202.3" cy="285" r="2.8"/>
			<circle id="XMLID_696_" class="st22" cx="249.4" cy="285" r="1.4"/>
		</g>
		<path id="XMLID_691_" class="st12" d="M250.6,284.3l-4.1-6.8l-6.9-19.3c-0.3-0.7-1.1-1.1-1.8-0.8c-0.7,0.3-1.1,1.1-0.8,1.8
			l0.4,1.1c-5.9,1.9-9.1,6.3-11.7,9.9c-1.6,2.2-3,4-4.6,5.1l-5-14.3l-2.6,0.9l2.9,8.2l-15,13.9c-0.4,0.4-0.6,1-0.3,1.5
			c0.2,0.5,0.7,0.9,1.3,0.9h20.8c4.3,0,6.3-4.2,8.4-8.6c2-4.1,4.2-8.7,8.4-10.8l4.1,11.5c0,0.1,0.1,0.2,0.1,0.2l4.2,6.9
			c0.3,0.4,0.7,0.7,1.2,0.7c0.2,0,0.5-0.1,0.7-0.2C250.8,285.8,251,284.9,250.6,284.3z M217.3,272.9l3.8,10.7h-15.3L217.3,272.9z
			 M228.9,276.6c-1.8,3.8-3.1,6.3-4.9,6.9l-2-5.6c2.4-1.3,4.1-3.7,5.9-6.1c2.6-3.6,5.3-7.3,10.4-8.9l0.6,1.6
			C233.6,266.8,231,272.2,228.9,276.6z"/>
		<path id="XMLID_690_" class="st10" d="M209.2,261.4c0,0.8,0.6,1.4,1.4,1.4h4.2c1,0,4-0.7,5.7-1.1c0.7-0.2,1.2-0.8,1.2-1.5l0,0
			c0-0.9-0.7-1.6-1.6-1.6h-9.5c-0.8,0-1.4,0.6-1.4,1.4L209.2,261.4L209.2,261.4z"/>
		<path id="XMLID_687_" class="st22" d="M224.5,291.9c-3.1,0-5.6-2.5-5.6-5.6c0-3.1,2.5-5.6,5.6-5.6c3.1,0,5.6,2.5,5.6,5.6
			C230,289.4,227.5,291.9,224.5,291.9z M224.5,283.6c-1.5,0-2.8,1.2-2.8,2.8c0,1.5,1.2,2.8,2.8,2.8c1.5,0,2.8-1.2,2.8-2.8
			C227.2,284.9,226,283.6,224.5,283.6z"/>
		<path id="XMLID_686_" class="st10" d="M227.2,296.1c-0.6,0-1.1-0.4-1.3-0.9l-2.8-8.3c-0.2-0.7,0.2-1.5,0.9-1.8
			c0.7-0.2,1.5,0.2,1.8,0.9l2.8,8.3c0.2,0.7-0.2,1.5-0.9,1.8C227.5,296.1,227.4,296.1,227.2,296.1z"/>
		<path id="XMLID_685_" class="st23" d="M230,296.1h-4.2c-0.8,0-1.4-0.6-1.4-1.4s0.6-1.4,1.4-1.4h4.2c0.8,0,1.4,0.6,1.4,1.4
			S230.8,296.1,230,296.1z"/>
		<g id="XMLID_684_">
		</g>
		<g id="XMLID_683_">
		</g>
		<g id="XMLID_682_">
		</g>
		<g id="XMLID_681_">
		</g>
		<g id="XMLID_680_">
		</g>
		<g id="XMLID_679_">
		</g>
		<g id="XMLID_678_">
		</g>
		<g id="XMLID_677_">
		</g>
		<g id="XMLID_676_">
		</g>
		<g id="XMLID_675_">
		</g>
		<g id="XMLID_674_">
		</g>
		<g id="XMLID_673_">
		</g>
		<g id="XMLID_672_">
		</g>
		<g id="XMLID_671_">
		</g>
		<g id="XMLID_670_">
		</g>
	</g>
</g>
<g id="XMLID_239_" class="st0">
	<g id="XMLID_1150_" class="st1">
		<rect id="XMLID_861_" x="147.2" y="358.9" class="st2" width="12.9" height="22.4"/>
		<g id="XMLID_228_">
			<path id="XMLID_229_" d="M103.4,363.2c0.1-0.2,0.3-0.4,0.5-0.5c0.1-0.1,0.3-0.1,0.4-0.1c0.1,0,0.2,0,0.3,0
				c0.2,0.1,0.4,0.2,0.5,0.4c0.1,0.1,0.1,0.2,0.1,0.3c0,0.1,0,0.2-0.1,0.3c-1.3,2.9-3,5.4-5,7.4c-0.2,0.2-0.4,0.3-0.7,0.3
				c0,0,0,0,0,0c-0.3,0-0.5-0.1-0.7-0.3c-0.2-0.2-0.3-0.4-0.3-0.6c0-0.2,0.1-0.4,0.2-0.5C100.6,368.2,102.1,365.9,103.4,363.2z
				 M110.6,375c-0.1-0.2-0.2-0.4-0.1-0.6c0-0.2,0.2-0.3,0.4-0.4c0.1-0.1,0.3-0.1,0.4-0.1c0.1,0,0.2,0,0.3,0c0.2,0,0.4,0.2,0.6,0.4
				c1.7,2.1,3.2,4,4.3,5.8c0.1,0.1,0.1,0.3,0.1,0.4c0,0.1,0,0.1,0,0.2c-0.1,0.2-0.2,0.4-0.4,0.6c-0.1,0.1-0.3,0.1-0.4,0.1
				c-0.1,0-0.2,0-0.3,0c-0.2-0.1-0.4-0.2-0.6-0.4c-0.2-0.3-0.3-0.6-0.5-0.9c-0.1-0.1-0.1-0.1-0.2-0.1c-2.1,0.1-6.8,0.4-14.2,0.7
				c0,0-0.1,0-0.1,0c-0.2,0-0.4-0.1-0.6-0.2c-0.2-0.2-0.3-0.4-0.3-0.6c0,0,0-0.1,0-0.1c0-0.2,0.1-0.3,0.2-0.5
				c0.1-0.2,0.3-0.3,0.6-0.3c1,0,1.6,0,2-0.1c0.1,0,0.2,0,0.2-0.1c1.5-2.7,2.7-5.4,3.7-8.3c0.1-0.3,0.3-0.4,0.5-0.6
				c0.2-0.1,0.3-0.1,0.5-0.1c0.1,0,0.2,0,0.3,0c0.2,0.1,0.4,0.2,0.5,0.4c0.1,0.1,0.1,0.3,0.1,0.4c0,0.1,0,0.2-0.1,0.3
				c-1.3,3-2.5,5.6-3.7,7.8c0,0,0,0.1,0,0.1s0,0,0.1,0c2.2-0.1,5.3-0.2,9.3-0.4c0,0,0,0,0.1-0.1c0,0,0-0.1,0-0.1
				C112.3,377.1,111.5,376,110.6,375z M110.3,363.7c-0.1-0.1-0.1-0.2-0.1-0.4c0-0.1,0-0.2,0-0.3c0.1-0.2,0.2-0.4,0.4-0.4
				c0.1,0,0.2-0.1,0.4-0.1c0.1,0,0.2,0,0.3,0c0.2,0.1,0.4,0.2,0.5,0.4c0.7,1.1,1.4,2.3,2.4,3.5c0.9,1.2,1.8,2.3,2.7,3.2
				c0.2,0.2,0.3,0.4,0.3,0.6c0,0.3-0.1,0.5-0.3,0.7c-0.2,0.2-0.4,0.3-0.6,0.3c0,0,0,0,0,0c-0.2,0-0.4-0.1-0.6-0.3
				c-0.9-1-1.8-2.2-2.8-3.5C111.9,366.3,111,365,110.3,363.7z"/>
			<path id="XMLID_233_" d="M138.7,376.6c0.2,0,0.4,0.1,0.5,0.2c0.1,0.1,0.2,0.3,0.2,0.5s-0.1,0.4-0.2,0.5c-0.1,0.1-0.3,0.2-0.5,0.2
				h-8.1c-0.1,0-0.2,0.1-0.2,0.2v2.3c0,0.2-0.1,0.4-0.2,0.6s-0.4,0.2-0.6,0.2s-0.4-0.1-0.6-0.2c-0.2-0.2-0.2-0.4-0.2-0.6v-2.3
				c0-0.1-0.1-0.2-0.1-0.2h-8c-0.2,0-0.4-0.1-0.5-0.2s-0.2-0.3-0.2-0.5s0.1-0.4,0.2-0.5s0.3-0.2,0.5-0.2h8c0.1,0,0.1-0.1,0.1-0.2
				v-1.5c0-0.1-0.1-0.2-0.1-0.2h-5.1c-0.3,0-0.6-0.1-0.9-0.4c-0.2-0.2-0.4-0.5-0.4-0.9v-6c0-0.3,0.1-0.6,0.4-0.9
				c0.2-0.2,0.5-0.4,0.9-0.4h5.1c0.1,0,0.1,0,0.1-0.1v-1.3c0-0.1-0.1-0.1-0.1-0.1h-7.3c-0.2,0-0.4-0.1-0.5-0.2
				c-0.1-0.2-0.2-0.3-0.2-0.5s0.1-0.4,0.2-0.5c0.1-0.1,0.3-0.2,0.5-0.2h7.3c0.1,0,0.1,0,0.1-0.1v-1c0-0.2,0.1-0.4,0.2-0.6
				c0.2-0.2,0.4-0.2,0.6-0.2s0.4,0.1,0.6,0.2c0.2,0.2,0.2,0.4,0.2,0.6v1c0,0.1,0.1,0.1,0.2,0.1h7.4c0.2,0,0.4,0.1,0.5,0.2
				c0.1,0.1,0.2,0.3,0.2,0.5s-0.1,0.4-0.2,0.5c-0.1,0.1-0.3,0.2-0.5,0.2h-7.4c-0.1,0-0.2,0.1-0.2,0.1v1.3c0,0.1,0.1,0.1,0.2,0.1h5.3
				c0.3,0,0.6,0.1,0.9,0.4s0.4,0.5,0.4,0.9v6c0,0.3-0.1,0.6-0.4,0.9s-0.5,0.4-0.9,0.4h-5.3c-0.1,0-0.2,0.1-0.2,0.2v1.5
				c0,0.1,0.1,0.2,0.2,0.2H138.7z M123.8,367.7c-0.1,0-0.1,0-0.1,0.1v1.9c0,0.1,0,0.1,0.1,0.1h4.7c0.1,0,0.1,0,0.1-0.1v-1.9
				c0-0.1-0.1-0.1-0.1-0.1H123.8z M123.7,373.3c0,0.1,0,0.1,0.1,0.1h4.7c0.1,0,0.1,0,0.1-0.1v-1.9c0-0.1-0.1-0.2-0.1-0.2h-4.7
				c-0.1,0-0.1,0.1-0.1,0.2V373.3z M135.4,367.8c0-0.1-0.1-0.1-0.1-0.1h-4.8c-0.1,0-0.2,0-0.2,0.1v1.9c0,0.1,0.1,0.1,0.2,0.1h4.8
				c0.1,0,0.1,0,0.1-0.1V367.8z M135.3,373.4c0.1,0,0.1,0,0.1-0.1v-1.9c0-0.1-0.1-0.2-0.1-0.2h-4.8c-0.1,0-0.2,0.1-0.2,0.2v1.9
				c0,0.1,0.1,0.1,0.2,0.1H135.3z"/>
		</g>
		<g id="XMLID_211_">
			<path id="XMLID_212_" d="M320.8,381.3c-3,0-5.4-0.9-7.5-2.6c-0.3-0.3-0.5-0.6-0.5-1.1c0-0.4,0.1-0.7,0.3-0.9s0.5-0.4,0.9-0.5
				c0.4,0,0.7,0.1,1,0.3c1.6,1.4,3.5,2.1,5.6,2.1c1.6,0,2.9-0.4,3.9-1.3s1.5-2.1,1.5-3.6c0-3.3-2.3-5-7-5.2c-0.4,0-0.7-0.2-0.9-0.4
				s-0.4-0.5-0.4-0.9s0.1-0.7,0.4-0.9s0.5-0.4,0.9-0.4c2.1-0.2,3.6-0.7,4.6-1.6s1.4-2,1.4-3.4c0-1.3-0.4-2.3-1.2-3.1
				c-0.8-0.8-1.9-1.2-3.3-1.2c-1.5,0-3,0.6-4.4,1.7c-0.3,0.2-0.6,0.3-1,0.3c-0.4,0-0.7-0.2-0.9-0.5s-0.3-0.6-0.3-1s0.2-0.7,0.5-0.9
				c1.9-1.5,4.1-2.3,6.3-2.3s4.1,0.6,5.5,1.8c1.4,1.2,2.1,2.8,2.1,4.9c0,1.5-0.4,2.9-1.2,3.9c-0.8,1.1-2,1.9-3.4,2.4
				c0,0-0.1,0.1-0.1,0.1c0,0,0,0.1,0.1,0.1c1.6,0.4,3,1.2,4,2.4c1,1.2,1.5,2.6,1.5,4.3c0,2.3-0.8,4.1-2.4,5.5
				C325.2,380.6,323.2,381.3,320.8,381.3z"/>
			<path id="XMLID_214_" d="M348.2,355.7c0.3,0.3,0.4,0.6,0.4,1s-0.1,0.7-0.4,1c-0.2,0.3-0.5,0.4-0.9,0.4c-0.4,0-0.7-0.1-1-0.3
				c-1-0.7-2.1-1.1-3.3-1.1c-2,0-3.6,0.8-4.8,2.5c-1.2,1.7-1.9,4.4-2,8.2c0,0,0,0.1,0,0.1c0,0,0.1,0,0.1,0c0.8-0.9,1.7-1.7,2.8-2.2
				c1-0.5,2.1-0.8,3.1-0.8c2.3,0,4.1,0.7,5.4,2.1s1.9,3.5,1.9,6.2c0,2.5-0.7,4.5-2.2,6.1c-1.5,1.6-3.3,2.4-5.4,2.4
				c-2.6,0-4.8-1.1-6.4-3.4c-1.6-2.2-2.4-5.5-2.4-9.7c0-2.5,0.3-4.7,0.8-6.6c0.5-1.9,1.3-3.4,2.2-4.5s2-1.9,3.1-2.4
				c1.1-0.5,2.4-0.8,3.7-0.8C345,354,346.7,354.5,348.2,355.7z M342.1,378.8c1.3,0,2.4-0.6,3.2-1.7s1.3-2.6,1.3-4.3
				c0-1.8-0.4-3.3-1.2-4.3c-0.8-1-2-1.5-3.6-1.5c-1.9,0-3.7,1.1-5.2,3.2c-0.1,0.1-0.2,0.3-0.1,0.5c0.2,2.7,0.8,4.7,1.8,6.1
				S340.4,378.8,342.1,378.8z"/>
			<path id="XMLID_217_" d="M361.2,381.3c-2.6,0-4.6-1.2-6.1-3.5c-1.5-2.3-2.2-5.7-2.2-10.2c0-4.5,0.7-7.9,2.2-10.2
				c1.5-2.3,3.5-3.4,6.1-3.4c2.6,0,4.6,1.1,6,3.4c1.5,2.3,2.2,5.7,2.2,10.2c0,4.5-0.7,7.9-2.2,10.2
				C365.8,380.1,363.8,381.3,361.2,381.3z M361.2,378.7c1.5,0,2.8-0.9,3.7-2.8c0.9-1.8,1.3-4.6,1.3-8.4c0-3.7-0.4-6.5-1.3-8.2
				s-2.1-2.7-3.7-2.7c-1.6,0-2.8,0.9-3.7,2.7s-1.3,4.5-1.3,8.2c0,3.8,0.4,6.5,1.3,8.4C358.4,377.8,359.6,378.7,361.2,378.7z"/>
			<path id="XMLID_220_" d="M385.7,375.1c-0.1,0-0.2,0.1-0.2,0.2v1.5c0,0.1,0.1,0.2,0.2,0.2h2.6c0.2,0,0.4,0.1,0.6,0.2
				s0.2,0.3,0.2,0.5s-0.1,0.4-0.2,0.6s-0.3,0.2-0.6,0.2h-2.6c-0.1,0-0.2,0.1-0.2,0.2v3.3c0,0.2-0.1,0.4-0.2,0.6s-0.3,0.2-0.5,0.2
				s-0.4-0.1-0.5-0.2s-0.2-0.3-0.2-0.6v-3.3c0-0.1-0.1-0.2-0.2-0.2H381c-0.2,0-0.4-0.1-0.6-0.2s-0.2-0.3-0.2-0.6s0.1-0.4,0.2-0.5
				s0.3-0.2,0.6-0.2h2.8c0.1,0,0.2-0.1,0.2-0.2v-1.5c0-0.1-0.1-0.2-0.2-0.2h-1.5c-0.4,0-0.7-0.1-1-0.4s-0.4-0.6-0.4-1V368
				c0-0.4,0.1-0.7,0.4-1s0.6-0.4,1-0.4h1.5c0.1,0,0.2-0.1,0.2-0.2v-1.4c0-0.1-0.1-0.2-0.2-0.2h-2.6c-0.2,0-0.4-0.1-0.6-0.2
				s-0.2-0.3-0.2-0.5s0.1-0.4,0.2-0.5s0.3-0.2,0.6-0.2h2.6c0.1,0,0.2-0.1,0.2-0.2v-1.6c0-0.2,0.1-0.4,0.2-0.6s0.3-0.2,0.5-0.2
				s0.4,0.1,0.5,0.2s0.2,0.3,0.2,0.6v1.6c0,0.1,0.1,0.2,0.2,0.2h2.4c0.2,0,0.4,0.1,0.6,0.2s0.2,0.3,0.2,0.5s-0.1,0.4-0.2,0.5
				s-0.3,0.2-0.6,0.2h-2.4c-0.1,0-0.2,0.1-0.2,0.2v1.4c0,0.1,0.1,0.2,0.2,0.2h1.5c0.4,0,0.7,0.1,1,0.4s0.4,0.6,0.4,1v5.7
				c0,0.4-0.1,0.7-0.4,1s-0.6,0.4-1,0.4H385.7z M382.4,368c-0.1,0-0.2,0.1-0.2,0.2v1.9c0,0.1,0.1,0.2,0.2,0.2h1.6
				c0.1,0,0.2-0.1,0.2-0.2v-1.9c0-0.1-0.1-0.2-0.2-0.2H382.4z M382.4,371.5c-0.1,0-0.2,0.1-0.2,0.2v1.9c0,0.1,0.1,0.2,0.2,0.2h1.6
				c0.1,0,0.2-0.1,0.2-0.2v-1.9c0-0.1-0.1-0.2-0.2-0.2H382.4z M387.2,370.2c0.1,0,0.2-0.1,0.2-0.2v-1.9c0-0.1-0.1-0.2-0.2-0.2h-1.6
				c-0.1,0-0.2,0.1-0.2,0.2v1.9c0,0.1,0.1,0.2,0.2,0.2H387.2z M387.2,373.7c0.1,0,0.2-0.1,0.2-0.2v-1.9c0-0.1-0.1-0.2-0.2-0.2h-1.6
				c-0.1,0-0.2,0.1-0.2,0.2v1.9c0,0.1,0.1,0.2,0.2,0.2H387.2z M401.8,362.9c0.2,0.1,0.2,0.3,0.2,0.6s-0.1,0.4-0.2,0.6
				s-0.3,0.2-0.5,0.2h-4.7c-0.1,0-0.2,0.1-0.2,0.2v2c0,0.1,0.1,0.2,0.2,0.2h3.8c0.4,0,0.7,0.1,1,0.4s0.4,0.6,0.4,1v12.8
				c0,0.4-0.1,0.8-0.2,1s-0.3,0.4-0.6,0.6c-0.4,0.2-1.2,0.3-2.2,0.3c-0.2,0-0.4-0.1-0.6-0.2s-0.3-0.3-0.4-0.6c0-0.2,0-0.3,0.1-0.5
				s0.2-0.2,0.4-0.2c0.4,0,0.7,0,0.9,0c0.3,0,0.5,0,0.7,0c0.1,0,0.2,0,0.3-0.1s0.1-0.2,0.1-0.3v-2.9c0,0,0,0,0,0s0,0,0,0
				c-0.1,0.1-0.3,0.2-0.4,0.1s-0.3-0.1-0.4-0.2c-0.5-0.8-0.8-1.7-1-2.8c0,0,0,0,0,0s0,0,0,0c-0.2,1.1-0.6,1.9-1,2.6
				c-0.1,0.2-0.3,0.3-0.5,0.3s-0.4-0.1-0.6-0.2c0,0,0,0-0.1,0s0,0,0,0.1v4.2c0,0.2-0.1,0.3-0.2,0.4s-0.3,0.2-0.4,0.2
				s-0.3-0.1-0.4-0.2s-0.2-0.3-0.2-0.4v-4.2c0-0.1,0-0.1-0.1,0c-0.2,0.1-0.4,0.2-0.6,0.2s-0.4-0.2-0.4-0.3c-0.3-0.6-0.5-1.4-0.7-2.2
				c0,0,0,0,0,0s0,0,0,0c-0.2,1.1-0.6,2-1,2.7c-0.1,0.1-0.2,0.2-0.3,0.2s-0.2-0.1-0.3-0.2c-0.1-0.2-0.2-0.3-0.2-0.5
				c0-0.1,0-0.3,0.1-0.4c0.7-1.1,1.1-2.9,1.4-5.5c0-0.1,0-0.1-0.1-0.1h-0.4c-0.2,0-0.3-0.1-0.4-0.2s-0.2-0.3-0.2-0.4
				s0.1-0.3,0.2-0.4s0.2-0.2,0.4-0.2h0.5c0.3,0,0.5,0.1,0.7,0.3s0.3,0.5,0.3,0.8c0,2.6,0.4,4.6,1.1,5.9c0,0,0,0,0.1,0s0,0,0,0v-8.8
				c0-0.1-0.1-0.2-0.2-0.2h-3.7c-0.1,0-0.2,0.1-0.2,0.2V382c0,0.2-0.1,0.3-0.2,0.5s-0.3,0.2-0.5,0.2s-0.4-0.1-0.5-0.2
				s-0.2-0.3-0.2-0.5v-14c0-0.4,0.1-0.7,0.4-1s0.6-0.4,1-0.4h3.6c0.1,0,0.2-0.1,0.2-0.2v-2c0-0.1-0.1-0.2-0.2-0.2h-4.5
				c-0.2,0-0.4-0.1-0.5-0.2s-0.2-0.3-0.2-0.6s0.1-0.4,0.2-0.6s0.3-0.2,0.5-0.2h11.1C401.5,362.7,401.6,362.7,401.8,362.9z
				 M400.2,377C400.2,377,400.2,377,400.2,377C400.3,377,400.3,377,400.2,377l0.1-8.7c0-0.1-0.1-0.2-0.2-0.2h-3.8
				c-0.1,0-0.2,0.1-0.2,0.2v8.9c0,0,0,0.1,0,0.1s0.1,0,0.1,0c0.8-1,1.3-2.9,1.6-5.8c0-0.1,0-0.1-0.1-0.1h-0.4
				c-0.2,0-0.3-0.1-0.4-0.2s-0.2-0.3-0.2-0.4s0.1-0.3,0.2-0.4s0.2-0.2,0.4-0.2h0.5c0.3,0,0.6,0.1,0.8,0.3s0.3,0.5,0.3,0.8
				c0,1.2,0.1,2.2,0.3,3.2S399.7,376.2,400.2,377z"/>
		</g>
	</g>
	<g id="XMLID_601_" class="st1">
		<g id="XMLID_666_">
			<path id="XMLID_668_" class="st24" d="M261.6,337.7h-35.1c-1.3,0-2.3,1-2.3,2.3v4.7h42.1v-2.3
				C266.3,339.8,264.2,337.7,261.6,337.7z"/>
			<path id="XMLID_667_" class="st24" d="M219.5,340.1H189c-1.3,0-2.3,1-2.3,2.3v2.3h35.1v-2.3C221.8,341.1,220.7,340.1,219.5,340.1
				z"/>
		</g>
		<path id="XMLID_665_" class="st16" d="M160.9,342.4h126.9c1.1,0,2,0.8,2.3,1.8l4.2,19c0,0.2,0.1,0.3,0.1,0.5v13.8
			c0,1.3-1,2.3-2.3,2.3h-96l-35.3-2.2c-1.2-0.1-2.2-1.1-2.2-2.3v-30.6C158.6,343.4,159.6,342.4,160.9,342.4z"/>
		<path id="XMLID_664_" class="st10" d="M164.4,363.5h129.7c0.1-0.1,0.1-0.1,0.2-0.3l-3.6-16.1H164.4c-0.6,0-1.2,0.5-1.2,1.2v14
			C163.3,362.9,163.8,363.5,164.4,363.5z"/>
		<path id="XMLID_663_" class="st24" d="M160.8,377.6l35.3,2.2h96c1.3,0,2.3-1,2.3-2.3v-4.7H158.6v2.5
			C158.6,376.5,159.6,377.6,160.8,377.6z"/>
		<circle id="XMLID_656_" class="st6" cx="193.7" cy="377.5" r="7"/>
		<circle id="XMLID_655_" class="st7" cx="193.7" cy="377.5" r="3.5"/>
		<circle id="XMLID_654_" class="st6" cx="261.6" cy="377.5" r="7"/>
		<circle id="XMLID_653_" class="st7" cx="261.6" cy="377.5" r="3.5"/>
		<g id="XMLID_650_">
			<path id="XMLID_652_" class="st6" d="M273.3,349.4H285c1.3,0,2.3,1,2.3,2.3v25.8c0,1.3-1,2.3-2.3,2.3h-11.7c-1.3,0-2.3-1-2.3-2.3
				v-25.8C271,350.5,272,349.4,273.3,349.4z"/>
			<path id="XMLID_651_" class="st6" d="M212.4,349.4h11.7c1.3,0,2.3,1,2.3,2.3v25.8c0,1.3-1,2.3-2.3,2.3h-11.7
				c-1.3,0-2.3-1-2.3-2.3v-25.8C210.1,350.5,211.1,349.4,212.4,349.4z"/>
		</g>
		<g id="XMLID_645_">
			<path id="XMLID_649_" class="st10" d="M215.9,375.2h-2.3c-0.6,0-1.2-0.5-1.2-1.2v-18.7c0-0.6,0.5-1.2,1.2-1.2h2.3
				c0.6,0,1.2,0.5,1.2,1.2V374C217.1,374.6,216.6,375.2,215.9,375.2z"/>
			<path id="XMLID_648_" class="st10" d="M223,375.2h-2.3c-0.6,0-1.2-0.5-1.2-1.2v-18.7c0-0.6,0.5-1.2,1.2-1.2h2.3
				c0.6,0,1.2,0.5,1.2,1.2V374C224.1,374.6,223.6,375.2,223,375.2z"/>
			<path id="XMLID_647_" class="st10" d="M276.8,375.2h-2.3c-0.6,0-1.2-0.5-1.2-1.2v-18.7c0-0.6,0.5-1.2,1.2-1.2h2.3
				c0.6,0,1.2,0.5,1.2,1.2V374C278,374.6,277.5,375.2,276.8,375.2z"/>
			<path id="XMLID_646_" class="st10" d="M283.8,375.2h-2.3c-0.6,0-1.2-0.5-1.2-1.2v-18.7c0-0.6,0.5-1.2,1.2-1.2h2.3
				c0.6,0,1.2,0.5,1.2,1.2V374C285,374.6,284.5,375.2,283.8,375.2z"/>
		</g>
		<g id="XMLID_639_">
			<path id="XMLID_644_" class="st22" d="M230,361.1h16.4c0.6,0,1.2-0.5,1.2-1.2v-9.4c0-0.6-0.5-1.2-1.2-1.2H230
				c-0.6,0-1.2,0.5-1.2,1.2v9.4C228.8,360.6,229.3,361.1,230,361.1z"/>
			<path id="XMLID_643_" class="st22" d="M190.2,361.1h16.4c0.6,0,1.2-0.5,1.2-1.2v-9.4c0-0.6-0.5-1.2-1.2-1.2h-16.4
				c-0.6,0-1.2,0.5-1.2,1.2v9.4C189,360.6,189.5,361.1,190.2,361.1z"/>
			<path id="XMLID_642_" class="st22" d="M169.1,361.1h16.4c0.6,0,1.2-0.5,1.2-1.2v-9.4c0-0.6-0.5-1.2-1.2-1.2h-16.4
				c-0.6,0-1.2,0.5-1.2,1.2v9.4C168,360.6,168.5,361.1,169.1,361.1z"/>
			<path id="XMLID_641_" class="st22" d="M251.1,361.1h16.4c0.6,0,1.2-0.5,1.2-1.2v-9.4c0-0.6-0.5-1.2-1.2-1.2h-16.4
				c-0.6,0-1.2,0.5-1.2,1.2v9.4C249.9,360.6,250.4,361.1,251.1,361.1z"/>
			<path id="XMLID_640_" class="st22" d="M291.2,349.4h-0.4c-0.6,0-1.2,0.5-1.2,1.2v9.4c0,0.6,0.5,1.2,1.2,1.2h3L291.2,349.4z"/>
		</g>
		<g id="XMLID_638_">
		</g>
		<g id="XMLID_636_">
		</g>
		<g id="XMLID_635_">
		</g>
		<g id="XMLID_634_">
		</g>
		<g id="XMLID_633_">
		</g>
		<g id="XMLID_614_">
		</g>
		<g id="XMLID_613_">
		</g>
		<g id="XMLID_612_">
		</g>
		<g id="XMLID_609_">
		</g>
		<g id="XMLID_607_">
		</g>
		<g id="XMLID_606_">
		</g>
		<g id="XMLID_605_">
		</g>
		<g id="XMLID_604_">
		</g>
		<g id="XMLID_603_">
		</g>
		<g id="XMLID_602_">
		</g>
	</g>
</g>
<g id="XMLID_129_" class="st0">
	<g id="XMLID_1147_" class="st1">
		<rect id="XMLID_864_" x="147.2" y="120.5" class="st2" width="76.8" height="22.4"/>
		<g id="XMLID_121_">
			<path id="XMLID_122_" d="M103.1,128.1c0.1-0.2,0.3-0.3,0.5-0.4c0.1,0,0.2-0.1,0.3-0.1c0.1,0,0.2,0,0.4,0.1
				c0.2,0.1,0.3,0.2,0.4,0.4c0.1,0.2,0,0.4-0.1,0.6c-0.5,0.8-1.1,1.6-1.9,2.5c-0.1,0.1-0.1,0.2-0.1,0.3V142c0,0.2-0.1,0.4-0.2,0.6
				c-0.2,0.2-0.3,0.2-0.6,0.2s-0.4-0.1-0.6-0.2c-0.2-0.2-0.2-0.3-0.2-0.6v-8.8c0,0,0,0,0-0.1c0,0-0.1,0-0.1,0
				c-0.6,0.6-1.2,1.2-1.7,1.6c-0.2,0.1-0.3,0.2-0.5,0.2c0,0-0.1,0-0.1,0c-0.2,0-0.4-0.1-0.6-0.3c-0.1-0.2-0.2-0.3-0.2-0.5
				c0-0.3,0.1-0.5,0.3-0.7c0.9-0.7,1.8-1.5,2.6-2.5C101.6,130,102.4,129.1,103.1,128.1z M102.1,123.4c0.2-0.2,0.4-0.3,0.6-0.4
				c0.1,0,0.2,0,0.3,0c0.1,0,0.3,0,0.4,0.1c0.2,0.1,0.3,0.2,0.4,0.4c0.1,0.2,0,0.4-0.1,0.6c-0.6,0.7-1.3,1.5-2.1,2.2
				c-0.8,0.8-1.6,1.5-2.4,2.1c-0.2,0.1-0.4,0.2-0.6,0.2c-0.2,0-0.4-0.1-0.5-0.3c-0.1-0.2-0.2-0.4-0.1-0.6c0-0.2,0.1-0.4,0.3-0.5
				c0.7-0.5,1.4-1.1,2.1-1.8C101.1,124.6,101.6,124,102.1,123.4z M116.8,130.1c0.2,0,0.4,0.1,0.6,0.2s0.2,0.3,0.2,0.6
				c0,0.2-0.1,0.4-0.2,0.6s-0.3,0.2-0.6,0.2h-2.3c-0.1,0-0.2,0-0.2,0.1v8.9c0,0.5-0.1,0.9-0.2,1.2c-0.1,0.3-0.4,0.5-0.7,0.6
				c-0.5,0.1-1.6,0.2-3.3,0.3c-0.2,0-0.5-0.1-0.6-0.2c-0.2-0.1-0.3-0.3-0.4-0.6c-0.1-0.2,0-0.4,0.1-0.5c0.1-0.2,0.3-0.2,0.4-0.2
				c0.6,0,1.2,0,1.6,0c0.4,0,0.7,0,1,0c0.2,0,0.4-0.1,0.4-0.1c0.1-0.1,0.1-0.2,0.1-0.4v-8.9c0-0.1-0.1-0.1-0.1-0.1h-6.4
				c-0.2,0-0.4-0.1-0.6-0.2c-0.1-0.1-0.2-0.3-0.2-0.6c0-0.2,0.1-0.4,0.2-0.6c0.1-0.1,0.3-0.2,0.6-0.2H116.8z M116.2,124.1
				c0.2,0,0.4,0.1,0.5,0.2c0.1,0.1,0.2,0.3,0.2,0.5c0,0.2-0.1,0.4-0.2,0.5c-0.1,0.1-0.3,0.2-0.5,0.2H107c-0.2,0-0.4-0.1-0.5-0.2
				c-0.1-0.1-0.2-0.3-0.2-0.5c0-0.2,0.1-0.4,0.2-0.5c0.1-0.2,0.3-0.2,0.5-0.2H116.2z"/>
			<path id="XMLID_127_" d="M128.4,124.3c0-0.3,0.1-0.5,0.3-0.6c0.2-0.2,0.4-0.3,0.7-0.3c0.2,0,0.4,0.1,0.6,0.3
				c0.2,0.2,0.2,0.4,0.2,0.6v0.1c0,0.5,0.1,1.1,0.2,1.7s0.2,1.3,0.4,2.3c0.2,0.9,0.4,1.9,0.7,2.7c0.3,0.9,0.7,1.8,1.2,2.8
				c0.5,1,1.1,2,1.7,2.8c0.6,0.9,1.4,1.7,2.4,2.5c0.7,0.6,1.5,1.1,2.3,1.6c0.2,0.1,0.3,0.3,0.3,0.6c0,0.2-0.1,0.3-0.2,0.4
				c-0.2,0.2-0.4,0.3-0.6,0.4c-0.1,0-0.2,0-0.3,0c-0.1,0-0.3,0-0.4-0.1c-1-0.6-2-1.2-2.8-2c-1.1-1-2-2.1-2.7-3.3
				c-0.7-1.2-1.3-2.3-1.7-3.4c-0.4-1.1-0.8-2.2-1-3.3c0,0,0,0,0,0s0,0,0,0c-1.2,5.6-3.9,9.6-7.9,12c-0.2,0.1-0.3,0.1-0.5,0.1
				c-0.1,0-0.1,0-0.2,0c-0.2-0.1-0.5-0.2-0.7-0.4c-0.1-0.1-0.2-0.3-0.2-0.5c0-0.2,0.1-0.4,0.3-0.5c0.9-0.5,1.6-1.1,2.4-1.7
				c0.9-0.9,1.7-1.7,2.3-2.5c0.6-0.8,1.1-1.8,1.6-2.9c0.5-1.1,0.8-2,1-2.8c0.2-0.8,0.4-1.7,0.6-2.8c0.1-1,0.2-1.8,0.3-2.3
				C128.4,125.4,128.4,124.9,128.4,124.3z"/>
		</g>
		<g id="XMLID_110_">
			<path id="XMLID_111_" d="M268.8,141.4c-0.3,0-0.5-0.1-0.7-0.3c-0.2-0.2-0.3-0.4-0.3-0.7c0-0.6,0.2-1.2,0.7-1.6
				c3.9-3.5,6.8-6.5,8.6-9.1c1.8-2.6,2.7-5,2.7-7.2c0-1.6-0.4-2.8-1.2-3.8s-2-1.4-3.6-1.4s-3.1,0.7-4.6,2.1
				c-0.3,0.3-0.6,0.4-0.9,0.4c-0.4,0-0.7-0.1-0.9-0.4c-0.3-0.3-0.4-0.6-0.4-0.9c0-0.4,0.1-0.7,0.4-0.9c2.1-2,4.3-3,6.8-3
				c2.3,0,4.2,0.7,5.6,2.1c1.4,1.4,2.1,3.3,2.1,5.7c0,2.5-0.9,5-2.6,7.6c-1.7,2.6-4.2,5.5-7.5,8.7c0,0-0.1,0.1,0,0.1
				c0,0,0.1,0.1,0.1,0.1c1.9-0.2,3.3-0.2,4-0.2h5.9c0.4,0,0.7,0.1,1,0.4s0.4,0.6,0.4,1s-0.1,0.7-0.4,1s-0.6,0.4-1,0.4H268.8z"/>
			<path id="XMLID_113_" d="M290.8,141.4c-0.4,0-0.7-0.1-1-0.4c-0.3-0.3-0.4-0.6-0.4-1c0-0.4,0.1-0.7,0.4-1c0.3-0.3,0.6-0.4,1-0.4
				h4.3c0.2,0,0.2-0.1,0.2-0.2v-19.2c0-0.2-0.1-0.3-0.2-0.3h-3.4c-0.3,0-0.6-0.1-0.8-0.3c-0.2-0.2-0.3-0.5-0.3-0.8
				c0-0.3,0.1-0.5,0.3-0.8c0.2-0.2,0.4-0.4,0.7-0.5c1.2-0.3,2.4-0.6,3.3-1.1c0.8-0.4,1.6-0.6,2.4-0.6c0.4,0,0.7,0.1,0.9,0.4
				s0.4,0.5,0.4,0.9v22.1c0,0.2,0.1,0.2,0.3,0.2h3.7c0.4,0,0.7,0.1,1,0.4c0.3,0.3,0.4,0.6,0.4,1c0,0.4-0.1,0.7-0.4,1
				c-0.3,0.3-0.6,0.4-1,0.4H290.8z"/>
			<path id="XMLID_115_" d="M315.6,141.8c-2.8,0-5.3-0.9-7.4-2.6c-0.3-0.3-0.5-0.6-0.5-1.1c0-0.3,0.1-0.6,0.3-0.9s0.5-0.4,0.8-0.5
				c0.4,0,0.7,0.1,0.9,0.3c1.6,1.3,3.4,2,5.5,2c1.6,0,2.9-0.6,4-1.7c1.1-1.1,1.6-2.6,1.6-4.5c0-1.9-0.5-3.3-1.5-4.4
				c-1-1.1-2.3-1.6-4-1.6c-1.2,0-2.4,0.3-3.5,1c-0.3,0.2-0.6,0.2-0.9,0.2c-0.3,0-0.6-0.1-0.8-0.2c-0.6-0.4-0.9-0.9-0.8-1.6l0.6-9.2
				c0-0.6,0.3-1.1,0.7-1.5c0.4-0.4,0.9-0.6,1.5-0.6h9.4c0.4,0,0.7,0.1,1,0.4s0.4,0.6,0.4,1s-0.1,0.7-0.4,1c-0.3,0.3-0.6,0.4-1,0.4
				h-8.3c-0.2,0-0.3,0.1-0.3,0.3l-0.6,7.1c0,0,0,0.1,0.1,0.1s0.1,0,0.1,0c1.1-0.6,2.4-0.9,3.7-0.9c2.3,0,4.2,0.7,5.7,2.1
				s2.2,3.5,2.2,6.3c0,1.9-0.4,3.5-1.2,4.9s-1.9,2.4-3.2,3.1S317.1,141.8,315.6,141.8z"/>
			<path id="XMLID_117_" d="M328.7,141.4c-0.3,0-0.5-0.1-0.7-0.3c-0.2-0.2-0.3-0.4-0.3-0.7c0-0.6,0.2-1.2,0.7-1.6
				c3.9-3.5,6.8-6.5,8.6-9.1c1.8-2.6,2.7-5,2.7-7.2c0-1.6-0.4-2.8-1.2-3.8s-2-1.4-3.6-1.4s-3.1,0.7-4.6,2.1
				c-0.3,0.3-0.6,0.4-0.9,0.4c-0.4,0-0.7-0.1-0.9-0.4c-0.3-0.3-0.4-0.6-0.4-0.9c0-0.4,0.1-0.7,0.4-0.9c2.1-2,4.3-3,6.8-3
				c2.3,0,4.2,0.7,5.6,2.1c1.4,1.4,2.1,3.3,2.1,5.7c0,2.5-0.9,5-2.6,7.6c-1.7,2.6-4.2,5.5-7.5,8.7c0,0-0.1,0.1,0,0.1
				c0,0,0.1,0.1,0.1,0.1c1.9-0.2,3.3-0.2,4-0.2h5.9c0.4,0,0.7,0.1,1,0.4s0.4,0.6,0.4,1s-0.1,0.7-0.4,1s-0.6,0.4-1,0.4H328.7z"/>
			<path id="XMLID_119_" d="M364.9,122.5c0-0.3,0.1-0.5,0.3-0.7s0.4-0.3,0.7-0.3c0.3,0,0.5,0.1,0.7,0.3c0.2,0.2,0.3,0.4,0.3,0.7v0.1
				c0,0.6,0.1,1.2,0.2,1.8s0.2,1.4,0.4,2.5s0.5,2,0.8,3s0.7,2,1.3,3.1s1.2,2.2,1.9,3.1s1.6,1.8,2.6,2.7c0.8,0.7,1.6,1.2,2.5,1.7
				c0.2,0.1,0.4,0.3,0.4,0.6c0,0.2-0.1,0.4-0.2,0.5c-0.2,0.2-0.4,0.4-0.7,0.4c-0.1,0-0.2,0-0.3,0c-0.2,0-0.3,0-0.5-0.1
				c-1.1-0.6-2.2-1.4-3.1-2.2c-1.2-1.1-2.2-2.3-2.9-3.6s-1.4-2.6-1.9-3.8c-0.5-1.2-0.9-2.4-1.1-3.7c0,0,0,0,0,0s0,0,0,0
				c-1.4,6.1-4.3,10.5-8.7,13.2c-0.2,0.1-0.4,0.1-0.6,0.1c-0.1,0-0.1,0-0.2,0c-0.3-0.1-0.5-0.2-0.7-0.4c-0.2-0.1-0.2-0.3-0.2-0.5
				c0-0.3,0.1-0.5,0.3-0.6c0.9-0.5,1.8-1.2,2.6-1.9c1-0.9,1.9-1.9,2.5-2.8s1.2-2,1.7-3.2s0.9-2.2,1.1-3.1s0.5-1.9,0.6-3
				s0.3-2,0.3-2.5C364.9,123.6,364.9,123.1,364.9,122.5z"/>
		</g>
		<g id="XMLID_480_">
			<line id="XMLID_481_" class="st3" x1="159" y1="131.8" x2="207" y2="131.8"/>
		</g>
	</g>
	<g id="XMLID_544_" class="st1">
		<g id="XMLID_597_">
			<g id="XMLID_598_">
				<path id="XMLID_600_" class="st6" d="M235,86.6c1.4,0,2.6-0.6,3.5-1.6c1-1,1.4-2.3,1.4-3.7c0-1.4-0.6-2.6-1.6-3.6
					c-1-1-2.2-1.5-3.6-1.4s-2.6,0.6-3.5,1.6c-1,1-1.4,2.3-1.4,3.7c0,1.4,0.5,2.6,1.6,3.6C232.4,86.2,233.6,86.7,235,86.6z"/>
				<path id="XMLID_599_" class="st6" d="M252.3,103.9l-7.5-4.1l-6.1-9.8c-1.2-1.5-2.6-2.2-4.4-2.2c-1.2,0-2.3,0.5-3.4,1.5l-9.3,9.4
					c-0.3,0.4-0.5,0.8-0.5,1.2l-1.2,10.5v0.3c0,0.6,0.2,1.2,0.7,1.6c0.5,0.5,1,0.7,1.6,0.7s1.2-0.2,1.6-0.7c0.4-0.5,0.7-1,0.7-1.5
					l1-9l3.3-3.3l-3,25l-5.3,11.8c-0.2,0.5-0.3,1-0.3,1.5c0,1,0.3,1.8,1,2.5c0.7,0.7,1.5,1,2.5,0.9c1.4,0,2.4-0.6,3-1.9l5.7-12.8
					c0-0.1,0-0.2,0.1-0.5c0.1-0.2,0.2-0.4,0.3-0.6c0.1-0.2,0.1-0.4,0.1-0.5l0.7-6.1l5.9,20.1c0.6,1.6,1.8,2.4,3.4,2.3
					c0.9,0,1.7-0.3,2.4-1c0.7-0.7,1-1.5,1-2.5c0-0.1,0-0.2-0.1-0.3c0-0.1-0.1-0.2-0.1-0.3l-8.2-27.9l1-9.1l2.3,3.7
					c0.2,0.3,0.4,0.5,0.7,0.7l8,4.5c0.5,0.2,0.9,0.3,1.1,0.3c0.6,0,1.2-0.2,1.6-0.7c0.5-0.5,0.7-1.1,0.7-1.7
					C253.3,105,253,104.3,252.3,103.9z"/>
			</g>
		</g>
		<g id="XMLID_596_">
		</g>
		<g id="XMLID_594_">
		</g>
		<g id="XMLID_590_">
		</g>
		<g id="XMLID_558_">
		</g>
		<g id="XMLID_557_">
		</g>
		<g id="XMLID_555_">
		</g>
		<g id="XMLID_554_">
		</g>
		<g id="XMLID_553_">
		</g>
		<g id="XMLID_552_">
		</g>
		<g id="XMLID_551_">
		</g>
		<g id="XMLID_550_">
		</g>
		<g id="XMLID_549_">
		</g>
		<g id="XMLID_548_">
		</g>
		<g id="XMLID_546_">
		</g>
		<g id="XMLID_545_">
		</g>
	</g>
</g>
</svg>
