<?xml version="1.0" encoding="utf-8"?>
<!-- Generator: Adobe Illustrator 19.0.0, SVG Export Plug-In . SVG Version: 6.00 Build 0)  -->
<svg version="1.1" id="圖層_1" xmlns="http://www.w3.org/2000/svg" xmlns:xlink="http://www.w3.org/1999/xlink" x="0px" y="0px"
	 viewBox="0 0 840.3 159.1" style="enable-background:new 0 0 840.3 159.1;" xml:space="preserve">
<style type="text/css">
	.st0{fill:#B3B3B3;}
	.st1{fill:#00AADC;}
</style>
<g id="XMLID_443_">
	<g id="XMLID_141_">
		<path id="XMLID_142_" class="st0" d="M300,59.4c0.3-0.5,0.7-0.9,1.2-1.1c0.5-0.2,1.1-0.2,1.6,0c0.5,0.2,0.9,0.5,1.1,1.1
			c0.2,0.5,0.2,1-0.1,1.5c-1.5,2.7-3.4,5.2-5.7,7.5c-0.2,0.2-0.3,0.4-0.1,0.7c1.7,3,3.6,4.5,5.7,4.5c0.8,0,1.4-0.4,1.7-1.1
			c0.4-0.7,0.7-2,0.8-3.9c0-0.4,0.2-0.7,0.6-0.8c0.3-0.1,0.7-0.1,1,0.1c1,0.6,1.5,1.3,1.5,2.3c0,0.1,0,0.2-0.1,0.4
			c-0.4,2.6-1,4.4-1.8,5.4s-2.1,1.5-3.9,1.5c-3.3,0-6.2-1.9-8.5-5.8c-0.2-0.3-0.4-0.3-0.6-0.1c-2.5,2-5.3,3.6-8.4,5
			c-0.5,0.2-1,0.3-1.5,0.1c-0.5-0.1-1-0.4-1.3-0.8c-0.3-0.4-0.4-0.7-0.3-1.2c0.1-0.4,0.3-0.7,0.7-0.9c3.6-1.5,6.6-3.4,9.2-5.6
			c0.2-0.2,0.3-0.4,0.2-0.7c-1.1-2.9-2.1-6.3-2.8-10.4c-0.1-0.3-0.3-0.4-0.5-0.4h-8.5c-0.3,0-0.4,0.1-0.5,0.4c0,0.3-0.1,1.2-0.3,2.6
			c0,0.3,0.1,0.5,0.4,0.6c2.5,1.5,4.6,3,6.4,4.4c0.4,0.3,0.7,0.8,0.7,1.3c0,0.6-0.1,1-0.5,1.4c-0.3,0.4-0.7,0.7-1.3,0.7
			c-0.5,0-1-0.1-1.4-0.5c-1.4-1.1-3-2.3-4.7-3.5c-0.2-0.2-0.4-0.1-0.4,0.2c-0.6,2.4-1.4,4.6-2.4,6.5s-2.3,3.6-3.8,5
			c-0.4,0.4-0.9,0.5-1.4,0.4s-1-0.3-1.4-0.7c-0.4-0.4-0.5-0.8-0.5-1.3c0-0.5,0.2-0.9,0.6-1.3c1.9-1.8,3.3-4,4.2-6.6
			c0.9-2.7,1.5-5.8,1.8-9.3c0-0.3-0.1-0.4-0.4-0.4h-0.9c-0.8,0-1.5-0.3-2.1-0.9s-0.9-1.3-0.9-2.1v-0.1c0,0,0-0.1-0.1-0.1
			c0,0-0.1,0-0.1,0c-0.4,0.5-0.8,0.7-1.5,0.7s-1.1-0.4-1.4-0.9c-0.8-1.7-1.7-3.6-2.8-5.6c0,0-0.1,0-0.1,0c-0.1,0-0.1,0-0.1,0.1v27.5
			c0,0.6-0.2,1.1-0.6,1.5c-0.4,0.4-0.9,0.6-1.4,0.6c-0.6,0-1-0.2-1.4-0.6c-0.4-0.4-0.6-0.9-0.6-1.5V50c0,0,0-0.1,0-0.1
			c0,0,0,0-0.1,0.1c-1.6,5.8-3.4,10.5-5.4,14c-0.2,0.4-0.5,0.6-1,0.6c-0.5,0-0.8-0.2-1.1-0.6c-0.4-0.6-0.5-1.2-0.5-1.9
			c0-0.6,0.2-1.2,0.5-1.8c1.4-2.5,2.8-5.6,4.1-9.3c1.3-3.7,2.3-7.4,3.1-11c0-0.3-0.1-0.4-0.4-0.4h-4.7c-0.5,0-1-0.2-1.4-0.6
			s-0.6-0.9-0.6-1.5c0-0.6,0.2-1,0.6-1.4c0.4-0.4,0.9-0.6,1.4-0.6h5.1c0.3,0,0.4-0.1,0.4-0.4V24.6c0-0.5,0.2-1,0.6-1.4
			c0.4-0.4,0.9-0.6,1.4-0.6c0.6,0,1,0.2,1.4,0.6c0.4,0.4,0.6,0.9,0.6,1.4v10.5c0,0.3,0.1,0.4,0.4,0.4h4c0.5,0,1,0.2,1.4,0.6
			c0.4,0.4,0.6,0.9,0.6,1.4c0,0.6-0.2,1.1-0.6,1.5s-0.9,0.6-1.4,0.6h-4c-0.3,0-0.4,0.1-0.4,0.4v1.8c0,0.3,0.1,0.6,0.2,0.8
			c2.2,3.2,4.3,6.4,6.1,9.7c0.2,0.2,0.2,0.4,0,0.6V53h16.3c0.3,0,0.4-0.1,0.4-0.4c-1.1-7.5-1.7-16.8-1.8-28c0-0.5,0.2-1,0.6-1.4
			c0.4-0.4,0.9-0.6,1.4-0.6c0.5,0,1,0.2,1.4,0.6c0.4,0.4,0.6,0.9,0.6,1.4c0,0.2,0,0.5,0,0.8c0,10.2,0.6,19.3,1.8,27.2
			c0,0.3,0.2,0.4,0.5,0.4h7.3c0,0,0.1,0,0.1-0.1c0-0.1,0-0.1-0.1-0.2c-1.1-0.9-2.3-1.7-3.4-2.4c-0.3-0.2-0.5-0.5-0.6-0.9
			c-0.1-0.4,0-0.7,0.3-1c0.4-0.4,0.9-0.6,1.3-0.6c0.3,0,0.6,0.1,1,0.3c1.5,0.9,2.8,1.7,3.9,2.5c0.3,0.3,0.5,0.6,0.5,1.1
			c0,0.4-0.1,0.8-0.4,1.2l0.1,0.1h2.9c0.5,0,0.9,0.2,1.3,0.5s0.5,0.8,0.5,1.3c0,0.5-0.2,0.9-0.5,1.3s-0.8,0.5-1.3,0.5h-12.4
			c-0.3,0-0.4,0.1-0.4,0.4c0.5,2.8,1.2,5.3,1.9,7.4c0,0.1,0.1,0.1,0.2,0.1c0.1,0,0.2,0,0.3-0.1C297.9,62.9,299,61.2,300,59.4z
			 M272.3,46.8c-0.1-0.5,0-0.9,0.3-1.3c0.3-0.4,0.7-0.6,1.1-0.6h0.1c0.2,0,0.3-0.1,0.4-0.2c1-1.3,2.2-3.1,3.7-5.3
			c0.2-0.3,0.1-0.5-0.1-0.7c-1.3-1.6-3-3.2-4.9-4.8c-0.3-0.3-0.5-0.6-0.6-1.1c-0.1-0.4,0-0.8,0.3-1.2c0.3-0.4,0.6-0.6,1-0.6
			s0.8,0,1.1,0.3h0.1c0.1,0.1,0.2,0.1,0.2-0.1c1.1-2,2-4.2,2.9-6.4c0.2-0.5,0.5-0.8,1-1c0.4-0.2,0.9-0.2,1.4,0
			c0.4,0.2,0.7,0.5,0.9,1s0.1,0.9-0.1,1.3c-1.8,3.4-3,5.7-3.8,6.9c-0.2,0.2-0.1,0.4,0.1,0.6c0.8,0.7,1.4,1.4,2,2.1
			c0.2,0.2,0.3,0.2,0.5-0.1c1.1-1.8,2-3.5,2.8-5c0.2-0.4,0.5-0.7,1-0.9s0.9-0.1,1.3,0.1c0.5,0.2,0.8,0.5,0.9,1
			c0.1,0.5,0.1,0.9-0.1,1.3c-3,5-5.6,9-7.9,12.1c0,0.1,0,0.1,0,0.2c0,0.1,0.1,0.1,0.2,0.1l5-0.3c0.3,0,0.4-0.1,0.3-0.4
			c-0.2-0.7-0.5-1.4-0.8-2c-0.2-0.4-0.2-0.7,0-1.1c0.1-0.4,0.4-0.6,0.8-0.8c0.4-0.1,0.8-0.1,1.2,0c0.4,0.1,0.7,0.4,0.9,0.8
			c1,1.9,1.7,3.8,2.3,5.8c0.2,0.4,0.1,0.8-0.1,1.3c-0.2,0.4-0.5,0.7-1,0.9c-0.4,0.2-0.8,0.1-1.1-0.1c-0.4-0.2-0.6-0.5-0.7-0.9
			c0-0.1-0.1-0.2-0.1-0.2c-0.1-0.2-0.2-0.2-0.4-0.2c-2.4,0.2-5.8,0.5-10.1,0.9c-0.5,0.1-1,0-1.4-0.4
			C272.6,47.7,272.4,47.3,272.3,46.8z M293,46.1c-0.1-0.4,0-0.8,0.3-1.2c0.3-0.4,0.6-0.5,1.1-0.6c0.1,0,0.2-0.1,0.4-0.2
			c1.1-1.6,2.2-3.1,3.2-4.7c0.2-0.3,0.1-0.5-0.1-0.7c-1.3-1.6-2.9-3.2-4.8-4.8c-0.4-0.3-0.6-0.6-0.6-1s0-0.8,0.3-1.1
			c0.3-0.4,0.6-0.6,1-0.6s0.8,0,1.1,0.3c0.1,0.1,0.2,0.1,0.2,0c1.1-2.2,2.1-4.4,2.9-6.5c0.2-0.5,0.5-0.8,1-1c0.4-0.2,0.9-0.2,1.4,0
			c0.5,0.2,0.8,0.5,1,1s0.1,0.9-0.1,1.3c-1.4,2.6-2.7,4.9-3.9,6.9c-0.2,0.2-0.1,0.5,0.1,0.7c1.1,1.1,1.7,1.7,2,2.1
			c0.2,0.2,0.4,0.2,0.5-0.1c1.1-1.8,2-3.5,2.8-5c0.2-0.4,0.5-0.7,1-0.9s0.9-0.1,1.4,0.1c0.4,0.2,0.7,0.5,0.8,1
			c0.1,0.5,0.1,0.9-0.2,1.3c-2.8,4.7-5.3,8.5-7.4,11.4c0,0.1,0,0.2,0,0.2c0,0.1,0.1,0.1,0.2,0.1l5.5-0.4c0.1,0,0.2,0,0.2-0.1
			c0-0.1,0-0.2,0-0.3c-0.3-0.6-0.5-1.2-0.8-1.8c-0.2-0.4-0.2-0.7-0.1-1.1c0.1-0.4,0.4-0.6,0.7-0.8c0.4-0.2,0.8-0.2,1.2,0
			c0.4,0.1,0.7,0.4,0.9,0.8c1.2,2.1,2,4.1,2.6,5.8c0.2,0.4,0.1,0.8-0.1,1.3c-0.2,0.4-0.5,0.7-0.9,1c-0.4,0.2-0.8,0.1-1.1,0
			s-0.6-0.5-0.8-0.8c0-0.2-0.1-0.4-0.2-0.6c-0.1-0.2-0.2-0.2-0.4-0.2c-0.7,0.1-4.2,0.4-10.5,0.9c-0.5,0-1-0.1-1.3-0.4
			C293.3,46.9,293.1,46.5,293,46.1z"/>
		<path id="XMLID_146_" class="st0" d="M372.4,63.3c0.5,0,1,0.2,1.4,0.6c0.4,0.4,0.6,0.9,0.6,1.4c0,0.5-0.2,1-0.6,1.4
			c-0.4,0.4-0.9,0.6-1.4,0.6h-22.3c-0.3,0-0.5,0.2-0.5,0.5v6.2c0,0.6-0.2,1.1-0.7,1.6c-0.4,0.4-1,0.7-1.6,0.7
			c-0.6,0-1.1-0.2-1.6-0.7c-0.4-0.4-0.7-1-0.7-1.6v-6.2c0-0.3-0.1-0.5-0.4-0.5h-21.9c-0.5,0-1-0.2-1.4-0.6c-0.4-0.4-0.6-0.9-0.6-1.4
			c0-0.5,0.2-1,0.6-1.4c0.4-0.4,0.9-0.6,1.4-0.6h21.9c0.3,0,0.4-0.2,0.4-0.5v-4c0-0.3-0.1-0.5-0.4-0.5h-14.1c-0.9,0-1.7-0.3-2.4-1
			c-0.7-0.7-1-1.5-1-2.4V38.6c0-0.9,0.3-1.7,1-2.4c0.7-0.7,1.5-1,2.4-1h14.1c0.3,0,0.4-0.1,0.4-0.4v-3.5c0-0.3-0.1-0.4-0.4-0.4h-20
			c-0.5,0-1-0.2-1.4-0.6s-0.6-0.9-0.6-1.4c0-0.5,0.2-1,0.6-1.4s0.9-0.6,1.4-0.6h20c0.3,0,0.4-0.1,0.4-0.4v-2.7
			c0-0.6,0.2-1.2,0.7-1.6c0.4-0.4,1-0.7,1.6-0.7c0.6,0,1.1,0.2,1.6,0.7c0.4,0.4,0.7,1,0.7,1.6v2.7c0,0.3,0.2,0.4,0.5,0.4h20.2
			c0.5,0,1,0.2,1.4,0.6s0.6,0.9,0.6,1.4c0,0.5-0.2,1-0.6,1.4s-0.9,0.6-1.4,0.6h-20.2c-0.3,0-0.5,0.1-0.5,0.4v3.5
			c0,0.3,0.2,0.4,0.5,0.4h14.5c0.9,0,1.7,0.3,2.4,1c0.7,0.7,1,1.5,1,2.4v16.3c0,0.9-0.3,1.7-1,2.4c-0.7,0.7-1.5,1-2.4,1h-14.5
			c-0.3,0-0.5,0.2-0.5,0.5v4c0,0.3,0.2,0.5,0.5,0.5H372.4z M331.8,38.8c-0.3,0-0.4,0.1-0.4,0.4v5.3c0,0.3,0.1,0.4,0.4,0.4h12.9
			c0.3,0,0.4-0.1,0.4-0.4v-5.3c0-0.3-0.1-0.4-0.4-0.4H331.8z M331.4,54.3c0,0.3,0.1,0.4,0.4,0.4h12.9c0.3,0,0.4-0.1,0.4-0.4V49
			c0-0.3-0.1-0.5-0.4-0.5h-12.9c-0.3,0-0.4,0.2-0.4,0.5V54.3z M363.6,39.3c0-0.3-0.1-0.4-0.4-0.4h-13.1c-0.3,0-0.5,0.1-0.5,0.4v5.3
			c0,0.3,0.2,0.4,0.5,0.4h13.1c0.3,0,0.4-0.1,0.4-0.4V39.3z M363.2,54.7c0.3,0,0.4-0.1,0.4-0.4V49c0-0.3-0.1-0.5-0.4-0.5h-13.1
			c-0.3,0-0.5,0.2-0.5,0.5v5.3c0,0.3,0.2,0.4,0.5,0.4H363.2z"/>
	</g>
	<g id="XMLID_102_">
		<path id="XMLID_103_" class="st1" d="M298.5,57.5c0.3-0.5,0.7-0.9,1.2-1.1c0.5-0.2,1.1-0.2,1.6,0c0.5,0.2,0.9,0.5,1.1,1.1
			c0.2,0.5,0.2,1-0.1,1.5c-1.5,2.7-3.4,5.2-5.7,7.5c-0.2,0.2-0.3,0.4-0.1,0.7c1.7,3,3.6,4.5,5.7,4.5c0.8,0,1.4-0.4,1.7-1.1
			c0.4-0.7,0.7-2,0.8-3.9c0-0.4,0.2-0.7,0.6-0.8c0.3-0.1,0.7-0.1,1,0.1c1,0.6,1.5,1.3,1.5,2.3c0,0.1,0,0.2-0.1,0.4
			c-0.4,2.6-1,4.4-1.8,5.4s-2.1,1.5-3.9,1.5c-3.3,0-6.2-1.9-8.5-5.8c-0.2-0.3-0.4-0.3-0.6-0.1c-2.5,2-5.3,3.6-8.4,5
			c-0.5,0.2-1,0.3-1.5,0.1c-0.5-0.1-1-0.4-1.3-0.8c-0.3-0.4-0.4-0.7-0.3-1.2c0.1-0.4,0.3-0.7,0.7-0.9c3.6-1.5,6.6-3.4,9.2-5.6
			c0.2-0.2,0.3-0.4,0.2-0.7c-1.1-2.9-2.1-6.3-2.8-10.4c-0.1-0.3-0.3-0.4-0.5-0.4h-8.5c-0.3,0-0.4,0.1-0.5,0.4c0,0.3-0.1,1.2-0.3,2.6
			c0,0.3,0.1,0.5,0.4,0.6c2.5,1.5,4.6,3,6.4,4.4c0.4,0.3,0.7,0.8,0.7,1.3c0,0.6-0.1,1-0.5,1.4c-0.3,0.4-0.7,0.7-1.3,0.7
			c-0.5,0-1-0.1-1.4-0.5c-1.4-1.1-3-2.3-4.7-3.5c-0.2-0.2-0.4-0.1-0.4,0.2c-0.6,2.4-1.4,4.6-2.4,6.5s-2.3,3.6-3.8,5
			c-0.4,0.4-0.9,0.5-1.4,0.4s-1-0.3-1.4-0.7c-0.4-0.4-0.5-0.8-0.5-1.3c0-0.5,0.2-0.9,0.6-1.3c1.9-1.8,3.3-4,4.2-6.6
			c0.9-2.7,1.5-5.8,1.8-9.3c0-0.3-0.1-0.4-0.4-0.4H274c-0.8,0-1.5-0.3-2.1-0.9s-0.9-1.3-0.9-2.1v-0.1c0,0,0-0.1-0.1-0.1
			c0,0-0.1,0-0.1,0c-0.4,0.5-0.8,0.7-1.5,0.7s-1.1-0.4-1.4-0.9c-0.8-1.7-1.7-3.6-2.8-5.6c0,0-0.1,0-0.1,0c-0.1,0-0.1,0-0.1,0.1v27.5
			c0,0.6-0.2,1.1-0.6,1.5c-0.4,0.4-0.9,0.6-1.4,0.6c-0.6,0-1-0.2-1.4-0.6c-0.4-0.4-0.6-0.9-0.6-1.5V48.1c0,0,0-0.1,0-0.1
			c0,0,0,0-0.1,0.1c-1.6,5.8-3.4,10.5-5.4,14c-0.2,0.4-0.5,0.6-1,0.6c-0.5,0-0.8-0.2-1.1-0.6c-0.4-0.6-0.5-1.2-0.5-1.9
			c0-0.6,0.2-1.2,0.5-1.8c1.4-2.5,2.8-5.6,4.1-9.3c1.3-3.7,2.3-7.4,3.1-11c0-0.3-0.1-0.4-0.4-0.4h-4.7c-0.5,0-1-0.2-1.4-0.6
			s-0.6-0.9-0.6-1.5c0-0.6,0.2-1,0.6-1.4c0.4-0.4,0.9-0.6,1.4-0.6h5.1c0.3,0,0.4-0.1,0.4-0.4V22.7c0-0.5,0.2-1,0.6-1.4
			c0.4-0.4,0.9-0.6,1.4-0.6c0.6,0,1,0.2,1.4,0.6c0.4,0.4,0.6,0.9,0.6,1.4v10.5c0,0.3,0.1,0.4,0.4,0.4h4c0.5,0,1,0.2,1.4,0.6
			c0.4,0.4,0.6,0.9,0.6,1.4c0,0.6-0.2,1.1-0.6,1.5s-0.9,0.6-1.4,0.6h-4c-0.3,0-0.4,0.1-0.4,0.4v1.8c0,0.3,0.1,0.6,0.2,0.8
			c2.2,3.2,4.3,6.4,6.1,9.7c0.2,0.2,0.2,0.4,0,0.6v0.1h16.3c0.3,0,0.4-0.1,0.4-0.4c-1.1-7.5-1.7-16.8-1.8-28c0-0.5,0.2-1,0.6-1.4
			c0.4-0.4,0.9-0.6,1.4-0.6c0.5,0,1,0.2,1.4,0.6c0.4,0.4,0.6,0.9,0.6,1.4c0,0.2,0,0.5,0,0.8c0,10.2,0.6,19.3,1.8,27.2
			c0,0.3,0.2,0.4,0.5,0.4h7.3c0,0,0.1,0,0.1-0.1c0-0.1,0-0.1-0.1-0.2c-1.1-0.9-2.3-1.7-3.4-2.4c-0.3-0.2-0.5-0.5-0.6-0.9
			c-0.1-0.4,0-0.7,0.3-1c0.4-0.4,0.9-0.6,1.3-0.6c0.3,0,0.6,0.1,1,0.3c1.5,0.9,2.8,1.7,3.9,2.5c0.3,0.3,0.5,0.6,0.5,1.1
			c0,0.4-0.1,0.8-0.4,1.2l0.1,0.1h2.9c0.5,0,0.9,0.2,1.3,0.5s0.5,0.8,0.5,1.3c0,0.5-0.2,0.9-0.5,1.3s-0.8,0.5-1.3,0.5h-12.4
			c-0.3,0-0.4,0.1-0.4,0.4c0.5,2.8,1.2,5.3,1.9,7.4c0,0.1,0.1,0.1,0.2,0.1c0.1,0,0.2,0,0.3-0.1C296.3,61,297.5,59.3,298.5,57.5z
			 M270.8,44.9c-0.1-0.5,0-0.9,0.3-1.3c0.3-0.4,0.7-0.6,1.1-0.6h0.1c0.2,0,0.3-0.1,0.4-0.2c1-1.3,2.2-3.1,3.7-5.3
			c0.2-0.3,0.1-0.5-0.1-0.7c-1.3-1.6-3-3.2-4.9-4.8c-0.3-0.3-0.5-0.6-0.6-1.1c-0.1-0.4,0-0.8,0.3-1.2c0.3-0.4,0.6-0.6,1-0.6
			s0.8,0,1.1,0.3h0.1c0.1,0.1,0.2,0.1,0.2-0.1c1.1-2,2-4.2,2.9-6.4c0.2-0.5,0.5-0.8,1-1c0.4-0.2,0.9-0.2,1.4,0
			c0.4,0.2,0.7,0.5,0.9,1s0.1,0.9-0.1,1.3c-1.8,3.4-3,5.7-3.8,6.9c-0.2,0.2-0.1,0.4,0.1,0.6c0.8,0.7,1.4,1.4,2,2.1
			c0.2,0.2,0.3,0.2,0.5-0.1c1.1-1.8,2-3.5,2.8-5c0.2-0.4,0.5-0.7,1-0.9s0.9-0.1,1.3,0.1c0.5,0.2,0.8,0.5,0.9,1
			c0.1,0.5,0.1,0.9-0.1,1.3c-3,5-5.6,9-7.9,12.1c0,0.1,0,0.1,0,0.2c0,0.1,0.1,0.1,0.2,0.1l5-0.3c0.3,0,0.4-0.1,0.3-0.4
			c-0.2-0.7-0.5-1.4-0.8-2c-0.2-0.4-0.2-0.7,0-1.1c0.1-0.4,0.4-0.6,0.8-0.8c0.4-0.1,0.8-0.1,1.2,0c0.4,0.1,0.7,0.4,0.9,0.8
			c1,1.9,1.7,3.8,2.3,5.8c0.2,0.4,0.1,0.8-0.1,1.3c-0.2,0.4-0.5,0.7-1,0.9c-0.4,0.2-0.8,0.1-1.1-0.1c-0.4-0.2-0.6-0.5-0.7-0.9
			c0-0.1-0.1-0.2-0.1-0.2c-0.1-0.2-0.2-0.2-0.4-0.2c-2.4,0.2-5.8,0.5-10.1,0.9c-0.5,0.1-1,0-1.4-0.4
			C271.1,45.8,270.9,45.4,270.8,44.9z M291.5,44.2c-0.1-0.4,0-0.8,0.3-1.2c0.3-0.4,0.6-0.5,1.1-0.6c0.1,0,0.2-0.1,0.4-0.2
			c1.1-1.6,2.2-3.1,3.2-4.7c0.2-0.3,0.1-0.5-0.1-0.7c-1.3-1.6-2.9-3.2-4.8-4.8c-0.4-0.3-0.6-0.6-0.6-1s0-0.8,0.3-1.1
			c0.3-0.4,0.6-0.6,1-0.6s0.8,0,1.1,0.3c0.1,0.1,0.2,0.1,0.2,0c1.1-2.2,2.1-4.4,2.9-6.5c0.2-0.5,0.5-0.8,1-1c0.4-0.2,0.9-0.2,1.4,0
			c0.5,0.2,0.8,0.5,1,1s0.1,0.9-0.1,1.3c-1.4,2.6-2.7,4.9-3.9,6.9c-0.2,0.2-0.1,0.5,0.1,0.7c1.1,1.1,1.7,1.7,2,2.1
			c0.2,0.2,0.4,0.2,0.5-0.1c1.1-1.8,2-3.5,2.8-5c0.2-0.4,0.5-0.7,1-0.9s0.9-0.1,1.4,0.1c0.4,0.2,0.7,0.5,0.8,1
			c0.1,0.5,0.1,0.9-0.2,1.3c-2.8,4.7-5.3,8.5-7.4,11.4c0,0.1,0,0.2,0,0.2c0,0.1,0.1,0.1,0.2,0.1l5.5-0.4c0.1,0,0.2,0,0.2-0.1
			c0-0.1,0-0.2,0-0.3c-0.3-0.6-0.5-1.2-0.8-1.8c-0.2-0.4-0.2-0.7-0.1-1.1c0.1-0.4,0.4-0.6,0.7-0.8c0.4-0.2,0.8-0.2,1.2,0
			c0.4,0.1,0.7,0.4,0.9,0.8c1.2,2.1,2,4.1,2.6,5.8c0.2,0.4,0.1,0.8-0.1,1.3c-0.2,0.4-0.5,0.7-0.9,1c-0.4,0.2-0.8,0.1-1.1,0
			s-0.6-0.5-0.8-0.8c0-0.2-0.1-0.4-0.2-0.6c-0.1-0.2-0.2-0.2-0.4-0.2c-0.7,0.1-4.2,0.4-10.5,0.9c-0.5,0-1-0.1-1.3-0.4
			C291.8,45,291.6,44.6,291.5,44.2z"/>
		<path id="XMLID_107_" class="st1" d="M370.9,61.4c0.5,0,1,0.2,1.4,0.6c0.4,0.4,0.6,0.9,0.6,1.4c0,0.5-0.2,1-0.6,1.4
			c-0.4,0.4-0.9,0.6-1.4,0.6h-22.3c-0.3,0-0.5,0.2-0.5,0.5v6.2c0,0.6-0.2,1.1-0.7,1.6c-0.4,0.4-1,0.7-1.6,0.7
			c-0.6,0-1.1-0.2-1.6-0.7c-0.4-0.4-0.7-1-0.7-1.6v-6.2c0-0.3-0.1-0.5-0.4-0.5h-21.9c-0.5,0-1-0.2-1.4-0.6c-0.4-0.4-0.6-0.9-0.6-1.4
			c0-0.5,0.2-1,0.6-1.4c0.4-0.4,0.9-0.6,1.4-0.6h21.9c0.3,0,0.4-0.2,0.4-0.5v-4c0-0.3-0.1-0.5-0.4-0.5h-14.1c-0.9,0-1.7-0.3-2.4-1
			c-0.7-0.7-1-1.5-1-2.4V36.7c0-0.9,0.3-1.7,1-2.4c0.7-0.7,1.5-1,2.4-1h14.1c0.3,0,0.4-0.1,0.4-0.4v-3.5c0-0.3-0.1-0.4-0.4-0.4h-20
			c-0.5,0-1-0.2-1.4-0.6s-0.6-0.9-0.6-1.4c0-0.5,0.2-1,0.6-1.4s0.9-0.6,1.4-0.6h20c0.3,0,0.4-0.1,0.4-0.4v-2.7
			c0-0.6,0.2-1.2,0.7-1.6c0.4-0.4,1-0.7,1.6-0.7c0.6,0,1.1,0.2,1.6,0.7c0.4,0.4,0.7,1,0.7,1.6v2.7c0,0.3,0.2,0.4,0.5,0.4h20.2
			c0.5,0,1,0.2,1.4,0.6s0.6,0.9,0.6,1.4c0,0.5-0.2,1-0.6,1.4s-0.9,0.6-1.4,0.6h-20.2c-0.3,0-0.5,0.1-0.5,0.4v3.5
			c0,0.3,0.2,0.4,0.5,0.4h14.5c0.9,0,1.7,0.3,2.4,1c0.7,0.7,1,1.5,1,2.4V53c0,0.9-0.3,1.7-1,2.4c-0.7,0.7-1.5,1-2.4,1h-14.5
			c-0.3,0-0.5,0.2-0.5,0.5v4c0,0.3,0.2,0.5,0.5,0.5H370.9z M330.3,37c-0.3,0-0.4,0.1-0.4,0.4v5.3c0,0.3,0.1,0.4,0.4,0.4h12.9
			c0.3,0,0.4-0.1,0.4-0.4v-5.3c0-0.3-0.1-0.4-0.4-0.4H330.3z M329.9,52.4c0,0.3,0.1,0.4,0.4,0.4h12.9c0.3,0,0.4-0.1,0.4-0.4v-5.3
			c0-0.3-0.1-0.5-0.4-0.5h-12.9c-0.3,0-0.4,0.2-0.4,0.5V52.4z M362.1,37.4c0-0.3-0.1-0.4-0.4-0.4h-13.1c-0.3,0-0.5,0.1-0.5,0.4v5.3
			c0,0.3,0.2,0.4,0.5,0.4h13.1c0.3,0,0.4-0.1,0.4-0.4V37.4z M361.7,52.8c0.3,0,0.4-0.1,0.4-0.4v-5.3c0-0.3-0.1-0.5-0.4-0.5h-13.1
			c-0.3,0-0.5,0.2-0.5,0.5v5.3c0,0.3,0.2,0.4,0.5,0.4H361.7z"/>
		<path id="XMLID_113_" d="M413.4,60c0.6,0,1,0.2,1.4,0.6c0.3,0.4,0.5,0.8,0.5,1.3c0,0.1,0,0.1,0,0.2c-0.3,3.3-0.6,5.8-1,7.4
			c-0.4,1.6-0.8,2.7-1.4,3.2c-0.5,0.6-1.3,0.9-2.3,0.9c-0.4,0-0.9,0.1-1.5,0.1c-0.5,0-1,0-1.7,0c-0.4,0-0.7-0.2-0.9-0.4
			c-0.3-0.2-0.5-0.5-0.5-0.9c-0.1-0.3,0-0.5,0.1-0.8c0.2-0.2,0.4-0.3,0.6-0.3c0.8,0,1.7,0.1,2.8,0.1c0.6,0,1-0.1,1.3-0.4
			c0.8-0.7,1.4-3.5,1.9-8.3c0-0.2-0.1-0.3-0.2-0.3h-21c-0.2,0-0.4,0.1-0.5,0.2c-1.6,1.3-3.2,2.5-4.9,3.4c-0.3,0.2-0.7,0.2-1,0.1
			c-0.3-0.1-0.6-0.3-0.8-0.6c-0.1-0.2-0.2-0.4-0.2-0.6c0-0.1,0-0.2,0-0.3c0.1-0.3,0.3-0.6,0.6-0.7c5.7-3.2,10.3-7.9,13.9-14.1
			c0,0,0.1-0.1,0-0.1s-0.1-0.1-0.1-0.1h-11.4c-0.3,0-0.6-0.1-0.8-0.4c-0.2-0.2-0.3-0.5-0.3-0.8s0.1-0.6,0.3-0.8
			c0.2-0.2,0.5-0.4,0.8-0.4h5.7c0.1,0,0.1,0,0.2-0.1s0-0.1,0-0.2c-0.4-1.2-1.1-2.5-2-3.9c-0.2-0.3-0.2-0.6-0.1-0.9
			c0.1-0.3,0.3-0.5,0.6-0.6c0.3-0.1,0.7-0.2,1-0.1c0.3,0.1,0.6,0.3,0.8,0.6c0.6,0.9,1.1,1.7,1.5,2.5c0.1,0.3,0.2,0.5,0.2,0.8
			c0,0.2,0,0.5-0.1,0.7c-0.2,0.5-0.6,0.8-1.1,1.1c0,0,0,0,0,0.1c0,0,0,0,0.1,0h5.9c0.2,0,0.3-0.1,0.4-0.2c0.8-1.6,1.4-3.2,2-4.7
			c0.1-0.4,0.4-0.6,0.7-0.8c0.2-0.1,0.4-0.2,0.7-0.2c0.1,0,0.2,0,0.4,0.1c0.4,0.1,0.6,0.3,0.8,0.6c0.2,0.3,0.2,0.7,0.1,1
			c-0.6,1.5-1.1,2.8-1.7,4c0,0.1,0,0.1,0,0.2s0.1,0.1,0.1,0.1h5.1c0.5,0,1,0.2,1.3,0.6c0.3,0.3,0.4,0.7,0.4,1.1c0,0.1,0,0.2,0,0.3
			c-0.3,1.7-0.6,3.1-0.8,4.2c0,0.2,0,0.2,0.2,0.2h1.8c0.5,0,1,0.2,1.3,0.6c0.3,0.3,0.4,0.7,0.4,1.1c0,0.1,0,0.2,0,0.4
			c-0.3,1.9-0.6,3.2-0.8,4.1c0,0.2,0,0.3,0.2,0.3H413.4z M388.1,72.4c-0.3,0.3-0.6,0.4-0.9,0.4c-0.4,0-0.7-0.1-1-0.3
			c-0.3-0.2-0.4-0.4-0.4-0.7c0-0.3,0.1-0.6,0.3-0.8c1.3-1.3,2.2-3.2,2.9-5.4c0.1-0.3,0.3-0.5,0.6-0.7s0.6-0.2,0.9-0.1
			c0.3,0.1,0.6,0.3,0.7,0.6c0.2,0.3,0.2,0.6,0.1,0.9C390.4,69,389.4,71,388.1,72.4z M410.1,56.1c0-0.2-0.1-0.2-0.2-0.2h-12.2
			c-0.2,0-0.3,0.1-0.4,0.2c-1.2,1.5-2.3,2.7-3.3,3.8c0,0,0,0.1,0,0.1c0,0,0,0.1,0.1,0.1h15.2c0.2,0,0.3-0.1,0.3-0.3
			C409.6,59,409.8,57.7,410.1,56.1z M394.2,66.6c-0.1-0.3,0-0.5,0.1-0.8c0.2-0.2,0.4-0.4,0.7-0.4c0.3,0,0.6,0,0.9,0.2
			c0.3,0.2,0.4,0.4,0.5,0.7c0.4,1.4,0.6,2.8,0.7,4.3c0,0.3-0.1,0.6-0.3,0.9c-0.2,0.3-0.5,0.4-0.9,0.5c-0.3,0-0.6,0-0.8-0.2
			c-0.2-0.2-0.4-0.5-0.4-0.8C394.7,69.5,394.5,68.1,394.2,66.6z M407.2,49.7c0-0.2-0.1-0.2-0.2-0.2h-5.2c-0.2,0-0.3,0.1-0.4,0.2
			c-0.7,1.2-1.4,2.5-2.2,3.7c0,0-0.1,0.1,0,0.1c0,0,0.1,0.1,0.1,0.1h6.8c0.2,0,0.3-0.1,0.3-0.2C406.7,52.4,406.9,51.2,407.2,49.7z
			 M399.8,66.1c-0.1-0.3-0.1-0.5,0-0.8c0.1-0.2,0.3-0.4,0.6-0.5c0.3-0.1,0.6,0,0.9,0.1c0.3,0.1,0.5,0.3,0.6,0.6
			c0.5,1.1,0.9,2.4,1.3,3.7c0.1,0.3,0,0.6-0.1,0.9c-0.2,0.3-0.4,0.5-0.7,0.5c-0.3,0.1-0.6,0-0.9-0.1c-0.3-0.2-0.4-0.4-0.5-0.7
			C400.7,68.6,400.3,67.4,399.8,66.1z M408.8,67.5c0.1,0.1,0.1,0.3,0.1,0.4c0,0.1,0,0.2-0.1,0.4c-0.1,0.3-0.3,0.5-0.6,0.6
			c-0.1,0-0.2,0.1-0.4,0.1s-0.3,0-0.4-0.1c-0.3-0.1-0.4-0.3-0.6-0.6c-0.5-1-1-2.1-1.7-3.1c-0.1-0.1-0.1-0.3-0.1-0.4
			c0-0.1,0-0.2,0.1-0.2c0.1-0.2,0.2-0.4,0.5-0.5c0.1,0,0.3-0.1,0.5-0.1c0.1,0,0.2,0,0.4,0c0.3,0.1,0.5,0.3,0.7,0.5
			C407.7,65.5,408.3,66.5,408.8,67.5z"/>
		<path id="XMLID_121_" d="M454.5,65.2c0.3,0,0.6,0.1,0.8,0.4c0.2,0.2,0.4,0.5,0.4,0.8s-0.1,0.6-0.4,0.8c-0.2,0.2-0.5,0.4-0.8,0.4
			h-13.4c-0.2,0-0.3,0.1-0.3,0.3v3.7c0,0.4-0.1,0.7-0.4,0.9c-0.3,0.3-0.6,0.4-0.9,0.4c-0.4,0-0.7-0.1-0.9-0.4
			c-0.3-0.3-0.4-0.6-0.4-0.9v-3.7c0-0.2-0.1-0.3-0.2-0.3h-13.1c-0.3,0-0.6-0.1-0.8-0.4c-0.2-0.2-0.4-0.5-0.4-0.8s0.1-0.6,0.4-0.8
			c0.2-0.2,0.5-0.4,0.8-0.4h13.1c0.2,0,0.2-0.1,0.2-0.3v-2.4c0-0.2-0.1-0.3-0.2-0.3h-8.5c-0.6,0-1-0.2-1.5-0.6
			c-0.4-0.4-0.6-0.9-0.6-1.5v-9.8c0-0.6,0.2-1,0.6-1.5c0.4-0.4,0.9-0.6,1.5-0.6h8.5c0.2,0,0.2-0.1,0.2-0.2v-2.1
			c0-0.2-0.1-0.2-0.2-0.2h-12c-0.3,0-0.6-0.1-0.9-0.4s-0.4-0.5-0.4-0.9s0.1-0.6,0.4-0.9s0.5-0.4,0.9-0.4h12c0.2,0,0.2-0.1,0.2-0.2
			v-1.6c0-0.4,0.1-0.7,0.4-1c0.3-0.3,0.6-0.4,0.9-0.4c0.4,0,0.7,0.1,0.9,0.4c0.3,0.3,0.4,0.6,0.4,1V43c0,0.2,0.1,0.2,0.3,0.2h12.1
			c0.3,0,0.6,0.1,0.9,0.4s0.4,0.5,0.4,0.9s-0.1,0.6-0.4,0.9s-0.5,0.4-0.9,0.4h-12.1c-0.2,0-0.3,0.1-0.3,0.2V48
			c0,0.2,0.1,0.2,0.3,0.2h8.7c0.6,0,1,0.2,1.5,0.6c0.4,0.4,0.6,0.9,0.6,1.5v9.8c0,0.6-0.2,1-0.6,1.5c-0.4,0.4-0.9,0.6-1.5,0.6h-8.7
			c-0.2,0-0.3,0.1-0.3,0.3v2.4c0,0.2,0.1,0.3,0.3,0.3H454.5z M430.2,50.5c-0.2,0-0.2,0.1-0.2,0.2v3.2c0,0.2,0.1,0.2,0.2,0.2h7.7
			c0.2,0,0.2-0.1,0.2-0.2v-3.2c0-0.2-0.1-0.2-0.2-0.2H430.2z M429.9,59.8c0,0.2,0.1,0.2,0.2,0.2h7.7c0.2,0,0.2-0.1,0.2-0.2v-3.2
			c0-0.2-0.1-0.3-0.2-0.3h-7.7c-0.2,0-0.2,0.1-0.2,0.3V59.8z M449.3,50.8c0-0.2-0.1-0.2-0.2-0.2h-7.9c-0.2,0-0.3,0.1-0.3,0.2v3.2
			c0,0.2,0.1,0.2,0.3,0.2h7.9c0.2,0,0.2-0.1,0.2-0.2V50.8z M449,60c0.2,0,0.2-0.1,0.2-0.2v-3.2c0-0.2-0.1-0.3-0.2-0.3h-7.9
			c-0.2,0-0.3,0.1-0.3,0.3v3.2c0,0.2,0.1,0.2,0.3,0.2H449z"/>
		<path id="XMLID_127_" d="M492.9,54.7c0.6,0,1,0.2,1.5,0.6c0.4,0.4,0.6,0.9,0.6,1.4V71c0,0.6-0.1,1.1-0.2,1.4
			c-0.2,0.4-0.4,0.6-0.8,0.8c-0.6,0.2-1.5,0.4-3,0.4h0c-0.3,0-0.6-0.1-0.9-0.3c-0.3-0.2-0.5-0.5-0.6-0.8c-0.1-0.3-0.1-0.5,0.1-0.7
			c0.2-0.2,0.4-0.3,0.6-0.3c0.3,0,0.6,0,0.8,0c0.5,0,0.9,0,1.1,0c0.2,0,0.3,0,0.4-0.1s0.1-0.2,0.1-0.4V57.2c0-0.2-0.1-0.2-0.3-0.2
			h-13.7c-0.2,0-0.3,0.1-0.3,0.2v15.2c0,0.4-0.1,0.6-0.4,0.9c-0.2,0.2-0.5,0.4-0.8,0.4c-0.3,0-0.6-0.1-0.8-0.4
			c-0.2-0.2-0.4-0.5-0.4-0.9V60.8c0,0,0-0.1-0.1-0.1s-0.1,0-0.1,0.1c-0.3,0.4-0.7,0.6-1.1,0.6c0,0,0,0-0.1,0c-0.4,0-0.8-0.2-1.1-0.5
			c-0.8-0.9-1.6-1.7-2.4-2.5c0,0-0.1-0.1-0.1,0c0,0-0.1,0.1-0.1,0.1v13.9c0,0.4-0.1,0.7-0.4,0.9s-0.6,0.4-0.9,0.4
			c-0.4,0-0.7-0.1-0.9-0.4s-0.4-0.6-0.4-0.9V60.2c0,0,0-0.1-0.1-0.1c0,0-0.1,0-0.1,0c-1.2,1.2-2.4,2.3-3.6,3.2
			c-0.3,0.2-0.6,0.3-0.9,0.2c-0.3-0.1-0.6-0.3-0.8-0.6c-0.1-0.2-0.2-0.5-0.2-0.7c0-0.1,0-0.2,0-0.3c0.1-0.4,0.3-0.7,0.6-0.9
			c1.8-1.3,3.5-2.9,5.1-4.8s2.9-3.9,4-5.9c0-0.1,0-0.1,0-0.2c0,0-0.1-0.1-0.1-0.1h-7.6c-0.3,0-0.6-0.1-0.9-0.4s-0.4-0.5-0.4-0.9
			s0.1-0.6,0.4-0.9s0.5-0.4,0.9-0.4h3.4c0.2,0,0.3-0.1,0.3-0.2v-5.1c0-0.4,0.1-0.7,0.4-0.9s0.5-0.4,0.9-0.4c0.4,0,0.7,0.1,0.9,0.4
			s0.4,0.6,0.4,0.9v5.1c0,0.2,0.1,0.2,0.3,0.2h2.6c0,0,0.1,0,0.1,0c0.3-0.1,0.6,0,0.8,0.1l0.4,0.2c0.2,0.1,0.4,0.3,0.4,0.6
			c0.1,0.2,0.1,0.5-0.1,0.7c-0.9,2.2-2.1,4.4-3.7,6.6c-0.1,0.1-0.1,0.3,0.1,0.4c1.1,0.9,2.4,2,3.9,3.4c0,0,0.1,0.1,0.1,0
			c0,0,0.1-0.1,0.1-0.1v-2.7c0-0.6,0.2-1,0.6-1.5c0.4-0.4,0.9-0.6,1.5-0.6h0.2c0.2,0,0.2-0.1,0.2-0.2v-9.8c0-0.6,0.2-1,0.6-1.5
			c0.4-0.4,0.9-0.6,1.5-0.6h10.2c0.6,0,1,0.2,1.5,0.6c0.4,0.4,0.6,0.9,0.6,1.5v9.8C492.7,54.6,492.7,54.7,492.9,54.7z M480.9,44.7
			c-0.2,0-0.2,0.1-0.2,0.2v9.5c0,0.2,0.1,0.2,0.2,0.2h2.8c0.2,0,0.2-0.1,0.2-0.2v-4.6c0-0.6,0.2-1.1,0.6-1.5
			c0.4-0.4,0.9-0.6,1.5-0.6h4c0.2,0,0.2-0.1,0.2-0.3V45c0-0.2-0.1-0.2-0.2-0.2H480.9z M489.7,66.3c0,0.6-0.2,1.1-0.6,1.5
			c-0.4,0.4-0.9,0.6-1.5,0.6h-4.5c-0.1,0-0.2,0.1-0.2,0.2v0.7c0,0.3-0.1,0.5-0.3,0.7c-0.2,0.2-0.4,0.3-0.7,0.3
			c-0.3,0-0.5-0.1-0.7-0.3c-0.2-0.2-0.3-0.4-0.3-0.7v-7.5c0-0.6,0.2-1.1,0.6-1.5c0.4-0.4,0.9-0.6,1.5-0.6h4.6c0.6,0,1,0.2,1.5,0.6
			c0.4,0.4,0.6,0.9,0.6,1.5V66.3z M487.8,62c0-0.2-0.1-0.2-0.3-0.2h-4.3c-0.2,0-0.2,0.1-0.2,0.2v4.2c0,0.2,0.1,0.2,0.2,0.2h4.3
			c0.2,0,0.3-0.1,0.3-0.2V62z M490.1,54.7c0.2,0,0.2-0.1,0.2-0.2v-4.4c0-0.2-0.1-0.2-0.2-0.2h-3.8c-0.2,0-0.2,0.1-0.2,0.2v4.4
			c0,0.2,0.1,0.2,0.2,0.2H490.1z"/>
		<path id="XMLID_133_" d="M534.2,50.6c0.3,0.3,0.4,0.6,0.4,1s-0.1,0.7-0.4,1s-0.6,0.4-1,0.4h-12c0,0-0.1,0-0.1,0.1s-0.1,0.1,0,0.2
			c1.3,4,3.1,7.5,5.5,10.4c2,2.6,4.4,4.5,7.1,5.9c0.4,0.2,0.6,0.4,0.6,0.8s0,0.7-0.2,1c-0.3,0.4-0.7,0.6-1.1,0.7
			c-0.2,0-0.3,0.1-0.5,0.1c-0.3,0-0.6-0.1-0.8-0.2c-5.7-3.2-10-8.8-12.8-16.8c0,0,0,0-0.1,0s-0.1,0-0.1,0c-2,7.8-6.3,13.4-12.9,16.9
			c-0.3,0.1-0.5,0.2-0.7,0.2c-0.1,0-0.3,0-0.5-0.1c-0.4-0.1-0.8-0.3-1.1-0.7c-0.2-0.3-0.3-0.6-0.3-0.9s0.2-0.6,0.5-0.7
			c6.6-3.4,10.8-8.9,12.6-16.7c0-0.2,0-0.2-0.2-0.2h-11.6c-0.4,0-0.7-0.1-1-0.4s-0.4-0.6-0.4-1s0.1-0.7,0.4-1s0.6-0.4,1-0.4h12.1
			c0.2,0,0.3-0.1,0.3-0.2c0.3-1.9,0.4-4.7,0.5-8.5c0-0.4,0.2-0.7,0.5-1s0.6-0.4,1-0.4s0.7,0.1,1,0.4c0.3,0.3,0.4,0.6,0.4,1
			c0,3-0.2,5.9-0.5,8.6c0,0.2,0,0.2,0.2,0.2h13.3C533.6,50.2,533.9,50.4,534.2,50.6z"/>
		<path id="XMLID_135_" d="M542.9,60c-0.3-0.2-0.4-0.5-0.4-0.9s0.1-0.7,0.4-0.9c0.3-0.3,0.6-0.4,0.9-0.4h29.4c0.4,0,0.7,0.1,0.9,0.4
			c0.3,0.3,0.4,0.6,0.4,0.9s-0.1,0.7-0.4,0.9c-0.3,0.2-0.6,0.4-0.9,0.4H560c-0.2,0-0.2,0.1-0.2,0.2v9.9c0,0.8-0.1,1.4-0.3,1.8
			c-0.2,0.4-0.6,0.7-1.2,0.9c-0.8,0.2-2.2,0.4-4.4,0.4c-0.4,0-0.7-0.1-1-0.4c-0.3-0.2-0.5-0.6-0.6-0.9c-0.1-0.3-0.1-0.6,0.1-0.8
			s0.4-0.4,0.7-0.4c0.5,0,1.6,0,3.4,0c0.3,0,0.5-0.1,0.6-0.2s0.2-0.2,0.2-0.5v-9.9c0-0.2-0.1-0.2-0.2-0.2h-13
			C543.4,60.3,543.1,60.2,542.9,60z M548.1,64.1c0.2-0.3,0.5-0.6,0.9-0.7c0.2-0.1,0.4-0.1,0.6-0.1c0.2,0,0.4,0,0.5,0.1
			c0.3,0.1,0.6,0.3,0.7,0.7c0.1,0.3,0.1,0.6-0.1,0.9c-1.5,2.3-3.3,4.3-5.3,6.2c-0.3,0.3-0.7,0.4-1.1,0.4h0c-0.4,0-0.8-0.1-1.1-0.4
			c-0.3-0.2-0.4-0.5-0.4-0.8s0.1-0.6,0.4-0.8C545.2,67.9,546.8,66.1,548.1,64.1z M546.3,46.9c-0.2,0-0.2,0.1-0.2,0.2v3.6
			c0,0.4-0.1,0.7-0.4,0.9c-0.3,0.2-0.6,0.4-0.9,0.4c-0.4,0-0.7-0.1-0.9-0.4c-0.3-0.2-0.4-0.6-0.4-0.9v-4.3c0-0.6,0.2-1,0.6-1.5
			c0.4-0.4,0.9-0.6,1.5-0.6h11.2c0.2,0,0.2-0.1,0.2-0.2V42c0-0.4,0.1-0.7,0.4-1c0.3-0.3,0.6-0.4,1-0.4s0.7,0.1,1,0.4
			c0.3,0.3,0.4,0.6,0.4,1v2.1c0,0.2,0.1,0.2,0.2,0.2h11.6c0.6,0,1.1,0.2,1.5,0.6c0.4,0.4,0.6,0.9,0.6,1.5v4.3c0,0.4-0.1,0.7-0.4,0.9
			c-0.3,0.3-0.6,0.4-1,0.4c-0.4,0-0.7-0.1-1-0.4c-0.3-0.3-0.4-0.6-0.4-0.9v-3.6c0-0.2-0.1-0.2-0.2-0.2H546.3z M567.5,51.5
			c0.2,0.2,0.4,0.5,0.4,0.8s-0.1,0.6-0.4,0.8c-0.2,0.2-0.5,0.4-0.8,0.4H550c-0.3,0-0.6-0.1-0.8-0.4c-0.2-0.2-0.4-0.5-0.4-0.8
			s0.1-0.6,0.4-0.8c0.2-0.2,0.5-0.4,0.8-0.4h16.7C567,51.2,567.3,51.3,567.5,51.5z M565.8,65.2c-0.2-0.2-0.3-0.5-0.3-0.8
			s0.2-0.6,0.5-0.7c0.3-0.2,0.7-0.3,1-0.3s0.7,0.2,1,0.4c2.2,2,4,3.9,5.3,5.7c0.2,0.3,0.3,0.6,0.2,1s-0.3,0.7-0.6,0.9
			c-0.3,0.2-0.7,0.3-1.1,0.2s-0.7-0.3-0.9-0.6C569.7,69.1,567.9,67.2,565.8,65.2z"/>
	</g>
	<g id="XMLID_1_">
		<path id="XMLID_2_" d="M13.7,140.4c-0.3,0-0.5-0.1-0.7-0.3c-0.2-0.2-0.3-0.4-0.3-0.7c0-0.6,0.2-1.2,0.7-1.6
			c3.9-3.5,6.8-6.5,8.6-9.1s2.7-5,2.7-7.2c0-1.6-0.4-2.8-1.2-3.8c-0.8-0.9-2-1.4-3.6-1.4s-3.1,0.7-4.6,2.1c-0.3,0.3-0.6,0.4-0.9,0.4
			c-0.4,0-0.7-0.1-0.9-0.4c-0.3-0.3-0.4-0.6-0.4-0.9c0-0.4,0.1-0.7,0.4-0.9c2.1-2,4.3-3,6.8-3c2.3,0,4.2,0.7,5.6,2.1
			c1.4,1.4,2.1,3.3,2.1,5.7c0,2.5-0.9,5-2.6,7.6c-1.7,2.6-4.2,5.5-7.5,8.7c0,0-0.1,0.1,0,0.1c0,0,0.1,0.1,0.1,0.1
			c1.9-0.2,3.3-0.2,4-0.2h5.9c0.4,0,0.7,0.1,1,0.4s0.4,0.6,0.4,1s-0.1,0.7-0.4,1s-0.6,0.4-1,0.4H13.7z"/>
		<path id="XMLID_4_" d="M44.7,140.8c-2.6,0-4.6-1.2-6.1-3.5c-1.5-2.3-2.2-5.7-2.2-10.2c0-4.5,0.7-7.9,2.2-10.2
			c1.5-2.3,3.5-3.4,6.1-3.4c2.6,0,4.6,1.1,6,3.4c1.5,2.3,2.2,5.7,2.2,10.2c0,4.5-0.7,7.9-2.2,10.2C49.3,139.7,47.3,140.8,44.7,140.8
			z M44.7,138.2c1.5,0,2.8-0.9,3.7-2.8c0.9-1.8,1.3-4.6,1.3-8.4c0-3.7-0.4-6.5-1.3-8.2c-0.9-1.8-2.1-2.7-3.7-2.7
			c-1.6,0-2.8,0.9-3.7,2.7c-0.9,1.8-1.3,4.5-1.3,8.2c0,3.8,0.4,6.5,1.3,8.4C41.9,137.3,43.1,138.2,44.7,138.2z"/>
		<path id="XMLID_7_" d="M62.8,140.4c-0.4,0-0.7-0.1-1-0.4c-0.3-0.3-0.4-0.6-0.4-1s0.1-0.7,0.4-1c0.3-0.3,0.6-0.4,1-0.4H67
			c0.2,0,0.2-0.1,0.2-0.2v-19.2c0-0.2-0.1-0.3-0.2-0.3h-3.4c-0.3,0-0.6-0.1-0.8-0.3c-0.2-0.2-0.3-0.5-0.3-0.8c0-0.3,0.1-0.5,0.3-0.8
			c0.2-0.2,0.4-0.4,0.7-0.5c1.2-0.3,2.4-0.6,3.3-1.1c0.8-0.4,1.6-0.6,2.4-0.6c0.4,0,0.7,0.1,0.9,0.4s0.4,0.5,0.4,0.9v22.1
			c0,0.2,0.1,0.2,0.3,0.2h3.7c0.4,0,0.7,0.1,1,0.4c0.3,0.3,0.4,0.6,0.4,1s-0.1,0.7-0.4,1c-0.3,0.3-0.6,0.4-1,0.4H62.8z"/>
		<path id="XMLID_9_" d="M91.2,140.8c-2.8,0-5.3-0.9-7.4-2.6c-0.3-0.3-0.5-0.6-0.5-1.1c0-0.3,0.1-0.6,0.3-0.9s0.5-0.4,0.8-0.5
			s0.7,0.1,0.9,0.3c1.6,1.3,3.4,2,5.5,2c1.6,0,2.9-0.6,4-1.7c1.1-1.1,1.6-2.6,1.6-4.5s-0.5-3.3-1.5-4.4c-1-1.1-2.3-1.6-4-1.6
			c-1.2,0-2.4,0.3-3.5,1c-0.3,0.2-0.6,0.2-0.9,0.2c-0.3,0-0.6-0.1-0.8-0.2c-0.6-0.4-0.9-0.9-0.8-1.6l0.6-9.2c0-0.6,0.3-1.1,0.7-1.5
			c0.4-0.4,0.9-0.6,1.5-0.6h9.4c0.4,0,0.7,0.1,1,0.4c0.3,0.3,0.4,0.6,0.4,1s-0.1,0.7-0.4,1c-0.3,0.3-0.6,0.4-1,0.4h-8.3
			c-0.2,0-0.3,0.1-0.3,0.3l-0.6,7.1c0,0,0,0.1,0.1,0.1c0,0,0.1,0,0.1,0c1.1-0.6,2.4-0.9,3.7-0.9c2.3,0,4.2,0.7,5.7,2.1
			c1.5,1.4,2.2,3.5,2.2,6.3c0,1.9-0.4,3.5-1.2,4.9c-0.8,1.4-1.9,2.4-3.2,3.1C94.1,140.5,92.7,140.8,91.2,140.8z"/>
		<path id="XMLID_11_" d="M138.3,132.3c0.4,0,0.7,0.1,0.9,0.4c0.3,0.2,0.4,0.6,0.4,0.9s-0.1,0.7-0.4,0.9c-0.3,0.2-0.6,0.4-0.9,0.4
			h-11.5c-0.2,0-0.3,0.1-0.3,0.3v6.6c0,0.4-0.1,0.7-0.4,1c-0.3,0.3-0.6,0.4-0.9,0.4c-0.4,0-0.7-0.1-1-0.4c-0.3-0.3-0.4-0.6-0.4-1
			v-6.6c0-0.2-0.1-0.3-0.2-0.3h-15.1c-0.4,0-0.7-0.1-0.9-0.4c-0.3-0.2-0.4-0.6-0.4-0.9s0.1-0.7,0.4-0.9c0.3-0.2,0.6-0.4,0.9-0.4h4.4
			c0.2,0,0.2-0.1,0.2-0.3v-7.3c0-0.6,0.2-1,0.6-1.5c0.4-0.4,0.9-0.6,1.5-0.6h8.4c0.2,0,0.2-0.1,0.2-0.2v-5c0-0.2-0.1-0.2-0.2-0.2
			h-8.2c-0.2,0-0.3,0.1-0.4,0.2c-1.3,2.2-2.8,4.1-4.4,5.8c-0.3,0.3-0.6,0.5-1,0.5c0,0,0,0-0.1,0c-0.4,0-0.7-0.1-1-0.4
			c-0.3-0.2-0.4-0.5-0.5-0.9s0.1-0.7,0.3-0.9c2.8-2.7,5-6.1,6.6-10.1c0.1-0.4,0.4-0.7,0.7-0.8c0.2-0.1,0.5-0.2,0.7-0.2
			c0.1,0,0.2,0,0.4,0c0.4,0.1,0.6,0.3,0.8,0.6c0.2,0.3,0.2,0.7,0,1c-0.3,0.7-0.6,1.5-1,2.2c0,0-0.1,0.1,0,0.2s0.1,0.1,0.2,0.1h19.9
			c0.4,0,0.7,0.1,0.9,0.4c0.3,0.2,0.4,0.6,0.4,0.9s-0.1,0.7-0.4,0.9c-0.3,0.3-0.6,0.4-0.9,0.4h-9.8c-0.2,0-0.3,0.1-0.3,0.2v5
			c0,0.2,0.1,0.2,0.3,0.2h9c0.4,0,0.7,0.1,0.9,0.4s0.4,0.5,0.4,0.9s-0.1,0.7-0.4,0.9s-0.5,0.4-0.9,0.4h-9c-0.2,0-0.3,0.1-0.3,0.2
			v6.6c0,0.2,0.1,0.3,0.3,0.3H138.3z M115.8,132.1c0,0.2,0.1,0.3,0.2,0.3h7.6c0.2,0,0.2-0.1,0.2-0.3v-6.6c0-0.2-0.1-0.2-0.2-0.2H116
			c-0.2,0-0.2,0.1-0.2,0.2V132.1z"/>
		<path id="XMLID_14_" d="M170.8,128.7c0,0.2,0.1,0.2,0.3,0.2h6.9c0.4,0,0.7,0.1,0.9,0.4c0.3,0.3,0.4,0.6,0.4,0.9s-0.1,0.7-0.4,0.9
			c-0.3,0.3-0.6,0.4-0.9,0.4h-29.8c-0.4,0-0.7-0.1-0.9-0.4c-0.3-0.2-0.4-0.6-0.4-0.9s0.1-0.7,0.4-0.9c0.3-0.3,0.6-0.4,0.9-0.4h6.7
			c0.2,0,0.3-0.1,0.3-0.2v-8c0-0.2-0.1-0.2-0.3-0.2h-5.3c-0.4,0-0.7-0.1-0.9-0.4c-0.3-0.3-0.4-0.6-0.4-0.9s0.1-0.7,0.4-0.9
			c0.3-0.3,0.6-0.4,0.9-0.4h5.3c0.2,0,0.3-0.1,0.3-0.3v-5.6c0-0.4,0.1-0.7,0.4-1c0.3-0.3,0.6-0.4,0.9-0.4c0.4,0,0.7,0.1,1,0.4
			c0.3,0.3,0.4,0.6,0.4,1v5.6c0,0.2,0.1,0.3,0.2,0.3h9.7c0.2,0,0.2-0.1,0.2-0.3v-5.6c0-0.4,0.1-0.7,0.4-1c0.3-0.3,0.6-0.4,1-0.4
			c0.4,0,0.7,0.1,1,0.4c0.3,0.3,0.4,0.6,0.4,1v5.6c0,0.2,0.1,0.3,0.3,0.3h5.6c0.4,0,0.7,0.1,0.9,0.4c0.3,0.3,0.4,0.6,0.4,0.9
			s-0.1,0.7-0.4,0.9c-0.3,0.3-0.6,0.4-0.9,0.4h-5.6c-0.2,0-0.3,0.1-0.3,0.2V128.7z M156,134.8c0.3-0.3,0.7-0.6,1.1-0.7
			c0.2,0,0.3-0.1,0.5-0.1c0.2,0,0.5,0,0.7,0.1c0.4,0.1,0.6,0.4,0.7,0.7c0.1,0.4,0,0.7-0.2,0.9c-2.3,2.5-4.9,4.7-8,6.6
			c-0.3,0.2-0.6,0.2-0.9,0.2c-0.1,0-0.1,0-0.2,0c-0.4,0-0.8-0.2-1.1-0.5c-0.3-0.2-0.4-0.5-0.3-0.9s0.2-0.6,0.5-0.8
			C151.6,138.9,154,136.9,156,134.8z M158.1,120.5c-0.2,0-0.2,0.1-0.2,0.2v8c0,0.2,0.1,0.2,0.2,0.2h9.7c0.2,0,0.2-0.1,0.2-0.2v-8
			c0-0.2-0.1-0.2-0.2-0.2H158.1z M167.2,135.7c-0.2-0.2-0.3-0.4-0.3-0.8c0-0.3,0.2-0.6,0.4-0.7c0.4-0.2,0.7-0.3,1.1-0.3
			c0.4,0,0.8,0.1,1.2,0.4c3.1,2.2,5.7,4.3,7.8,6.1c0.3,0.3,0.4,0.6,0.4,0.9s-0.2,0.7-0.5,0.9c-0.3,0.2-0.6,0.3-1,0.3
			c-0.1,0-0.1,0-0.2,0c-0.4,0-0.8-0.2-1.1-0.5C172.8,140.2,170.2,138,167.2,135.7z"/>
		<path id="XMLID_19_" d="M187.2,140.4c-0.3,0-0.5-0.1-0.7-0.3c-0.2-0.2-0.3-0.4-0.3-0.7c0-0.6,0.2-1.2,0.7-1.6
			c3.9-3.5,6.8-6.5,8.6-9.1s2.7-5,2.7-7.2c0-1.6-0.4-2.8-1.2-3.8c-0.8-0.9-2-1.4-3.6-1.4s-3.1,0.7-4.6,2.1c-0.3,0.3-0.6,0.4-0.9,0.4
			c-0.4,0-0.7-0.1-0.9-0.4c-0.3-0.3-0.4-0.6-0.4-0.9c0-0.4,0.1-0.7,0.4-0.9c2.1-2,4.3-3,6.8-3c2.3,0,4.2,0.7,5.6,2.1
			c1.4,1.4,2.1,3.3,2.1,5.7c0,2.5-0.9,5-2.6,7.6c-1.7,2.6-4.2,5.5-7.5,8.7c0,0-0.1,0.1,0,0.1c0,0,0.1,0.1,0.1,0.1
			c1.9-0.2,3.3-0.2,4-0.2h5.9c0.4,0,0.7,0.1,1,0.4s0.4,0.6,0.4,1s-0.1,0.7-0.4,1s-0.6,0.4-1,0.4H187.2z"/>
		<path id="XMLID_21_" d="M225.7,130.5c0.4,0,0.7,0.1,0.9,0.4c0.3,0.3,0.4,0.6,0.4,0.9s-0.1,0.7-0.4,0.9c-0.3,0.3-0.6,0.4-0.9,0.4
			h-1.9c-0.2,0-0.3,0.1-0.3,0.3v5.4c0,0.4-0.2,0.8-0.5,1.1c-0.3,0.3-0.7,0.5-1.1,0.5c-0.4,0-0.8-0.2-1.1-0.5
			c-0.3-0.3-0.5-0.7-0.5-1.1v-5.4c0-0.2-0.1-0.3-0.2-0.3H210c-0.3,0-0.6-0.1-0.8-0.3s-0.3-0.5-0.3-0.8c0-0.7,0.2-1.4,0.6-2l9.4-14.5
			c0.7-1,1.6-1.5,2.8-1.5c0.5,0,0.9,0.2,1.3,0.5s0.5,0.8,0.5,1.3v14.4c0,0.2,0.1,0.2,0.3,0.2H225.7z M212.5,130.3c0,0,0,0.1,0,0.1
			c0,0,0.1,0.1,0.1,0.1h7.6c0.2,0,0.2-0.1,0.2-0.2v-7.8c0-0.5,0.1-2.1,0.2-4.7c0,0,0-0.1-0.1-0.1c0,0-0.1,0-0.1,0.1
			c-0.6,1.1-1.3,2.4-2.1,3.8L212.5,130.3z"/>
		<path id="XMLID_24_" d="M241.1,140.8c-2.8,0-5.3-0.9-7.4-2.6c-0.3-0.3-0.5-0.6-0.5-1.1c0-0.3,0.1-0.6,0.3-0.9s0.5-0.4,0.8-0.5
			s0.7,0.1,0.9,0.3c1.6,1.3,3.4,2,5.5,2c1.6,0,2.9-0.6,4-1.7c1.1-1.1,1.6-2.6,1.6-4.5s-0.5-3.3-1.5-4.4c-1-1.1-2.3-1.6-4-1.6
			c-1.2,0-2.4,0.3-3.5,1c-0.3,0.2-0.6,0.2-0.9,0.2c-0.3,0-0.6-0.1-0.8-0.2c-0.6-0.4-0.9-0.9-0.8-1.6l0.6-9.2c0-0.6,0.3-1.1,0.7-1.5
			c0.4-0.4,0.9-0.6,1.5-0.6h9.4c0.4,0,0.7,0.1,1,0.4c0.3,0.3,0.4,0.6,0.4,1s-0.1,0.7-0.4,1c-0.3,0.3-0.6,0.4-1,0.4h-8.3
			c-0.2,0-0.3,0.1-0.3,0.3l-0.6,7.1c0,0,0,0.1,0.1,0.1c0,0,0.1,0,0.1,0c1.1-0.6,2.4-0.9,3.7-0.9c2.3,0,4.2,0.7,5.7,2.1
			c1.5,1.4,2.2,3.5,2.2,6.3c0,1.9-0.4,3.5-1.2,4.9c-0.8,1.4-1.9,2.4-3.2,3.1C244,140.5,242.6,140.8,241.1,140.8z"/>
		<path id="XMLID_26_" d="M258.4,139.1c-0.3-0.2-0.5-0.5-0.5-0.9c0-0.4,0.1-0.7,0.4-1c0.2-0.3,0.5-0.4,0.9-0.4c0.4,0,0.7,0.1,1,0.3
			c1.1,0.7,2.2,1.1,3.4,1.1c1.9,0,3.4-0.8,4.6-2.5c1.2-1.7,1.9-4.4,2-8.2c0,0,0-0.1-0.1-0.1c0,0-0.1,0-0.1,0
			c-0.8,0.9-1.7,1.7-2.8,2.2c-1,0.6-2.1,0.8-3.1,0.8c-2.2,0-4-0.7-5.3-2.1s-2-3.5-2-6.2c0-2.5,0.7-4.6,2.2-6.2
			c1.5-1.6,3.3-2.4,5.4-2.4c2.6,0,4.8,1.1,6.4,3.2c1.6,2.2,2.4,5.3,2.4,9.3c0,2.6-0.3,4.8-0.8,6.8s-1.2,3.5-2.1,4.6
			c-0.9,1.1-1.9,2-3,2.5c-1.1,0.6-2.3,0.8-3.6,0.8C261.7,140.8,259.9,140.3,258.4,139.1z M264.7,127.9c2,0,3.8-1.1,5.4-3.3
			c0.1-0.1,0.1-0.3,0.1-0.5c-0.2-2.6-0.8-4.6-1.8-6s-2.3-2.1-4-2.1c-1.3,0-2.4,0.6-3.2,1.7s-1.3,2.5-1.3,4.3c0,1.8,0.4,3.3,1.2,4.3
			S263.2,127.9,264.7,127.9z"/>
		<path id="XMLID_29_" d="M282,139.1c-0.3-0.2-0.5-0.5-0.5-0.9c0-0.4,0.1-0.7,0.4-1c0.2-0.3,0.5-0.4,0.9-0.4c0.4,0,0.7,0.1,1,0.3
			c1.1,0.7,2.2,1.1,3.4,1.1c1.9,0,3.4-0.8,4.6-2.5c1.2-1.7,1.9-4.4,2-8.2c0,0,0-0.1-0.1-0.1c0,0-0.1,0-0.1,0
			c-0.8,0.9-1.7,1.7-2.8,2.2c-1,0.6-2.1,0.8-3.1,0.8c-2.2,0-4-0.7-5.3-2.1s-2-3.5-2-6.2c0-2.5,0.7-4.6,2.2-6.2
			c1.5-1.6,3.3-2.4,5.4-2.4c2.6,0,4.8,1.1,6.4,3.2c1.6,2.2,2.4,5.3,2.4,9.3c0,2.6-0.3,4.8-0.8,6.8s-1.2,3.5-2.1,4.6
			c-0.9,1.1-1.9,2-3,2.5c-1.1,0.6-2.3,0.8-3.6,0.8C285.3,140.8,283.5,140.3,282,139.1z M288.3,127.9c2,0,3.8-1.1,5.4-3.3
			c0.1-0.1,0.1-0.3,0.1-0.5c-0.2-2.6-0.8-4.6-1.8-6s-2.3-2.1-4-2.1c-1.3,0-2.4,0.6-3.2,1.7s-1.3,2.5-1.3,4.3c0,1.8,0.4,3.3,1.2,4.3
			S286.7,127.9,288.3,127.9z"/>
		<path id="XMLID_32_" d="M312.2,131.7c-0.2,0-0.3,0.1-0.3,0.3v2.3c0,0.2,0.1,0.2,0.3,0.2h3.9c0.3,0,0.6,0.1,0.8,0.3
			c0.2,0.2,0.3,0.5,0.3,0.8s-0.1,0.6-0.3,0.8c-0.2,0.2-0.5,0.4-0.8,0.4h-3.9c-0.2,0-0.3,0.1-0.3,0.2v4.9c0,0.3-0.1,0.6-0.3,0.8
			c-0.2,0.2-0.5,0.3-0.8,0.3s-0.6-0.1-0.8-0.3c-0.2-0.2-0.3-0.5-0.3-0.8v-4.9c0-0.2-0.1-0.2-0.3-0.2h-4.2c-0.3,0-0.6-0.1-0.8-0.4
			c-0.2-0.2-0.3-0.5-0.3-0.8s0.1-0.6,0.3-0.8c0.2-0.2,0.5-0.3,0.8-0.3h4.2c0.2,0,0.3-0.1,0.3-0.2V132c0-0.2-0.1-0.3-0.3-0.3h-2.2
			c-0.6,0-1.1-0.2-1.5-0.6c-0.4-0.4-0.6-0.9-0.6-1.5v-8.5c0-0.6,0.2-1.1,0.6-1.5c0.4-0.4,0.9-0.6,1.5-0.6h2.2c0.2,0,0.3-0.1,0.3-0.3
			v-2c0-0.2-0.1-0.3-0.3-0.3h-3.9c-0.3,0-0.6-0.1-0.8-0.3c-0.2-0.2-0.3-0.5-0.3-0.8s0.1-0.6,0.3-0.8c0.2-0.2,0.5-0.3,0.8-0.3h3.9
			c0.2,0,0.3-0.1,0.3-0.3v-2.5c0-0.3,0.1-0.6,0.3-0.8c0.2-0.2,0.5-0.3,0.8-0.3s0.6,0.1,0.8,0.3c0.2,0.2,0.3,0.5,0.3,0.8v2.5
			c0,0.2,0.1,0.3,0.3,0.3h3.6c0.3,0,0.6,0.1,0.8,0.3c0.2,0.2,0.3,0.5,0.3,0.8s-0.1,0.6-0.3,0.8c-0.2,0.2-0.5,0.3-0.8,0.3h-3.6
			c-0.2,0-0.3,0.1-0.3,0.3v2c0,0.2,0.1,0.3,0.3,0.3h2.3c0.6,0,1.1,0.2,1.5,0.6c0.4,0.4,0.6,0.9,0.6,1.5v8.5c0,0.6-0.2,1.1-0.6,1.5
			c-0.4,0.4-0.9,0.6-1.5,0.6H312.2z M307.3,121.1c-0.2,0-0.3,0.1-0.3,0.3v2.8c0,0.2,0.1,0.2,0.3,0.2h2.4c0.2,0,0.3-0.1,0.3-0.2v-2.8
			c0-0.2-0.1-0.3-0.3-0.3H307.3z M307.3,126.3c-0.2,0-0.3,0.1-0.3,0.2v2.9c0,0.2,0.1,0.3,0.3,0.3h2.4c0.2,0,0.3-0.1,0.3-0.3v-2.9
			c0-0.2-0.1-0.2-0.3-0.2H307.3z M314.4,124.4c0.2,0,0.2-0.1,0.2-0.2v-2.8c0-0.2-0.1-0.3-0.2-0.3H312c-0.2,0-0.3,0.1-0.3,0.3v2.8
			c0,0.2,0.1,0.2,0.3,0.2H314.4z M314.4,129.7c0.2,0,0.2-0.1,0.2-0.3v-2.9c0-0.2-0.1-0.2-0.2-0.2H312c-0.2,0-0.3,0.1-0.3,0.2v2.9
			c0,0.2,0.1,0.3,0.3,0.3H314.4z M336.3,113.4c0.2,0.2,0.4,0.5,0.4,0.8s-0.1,0.6-0.4,0.8c-0.2,0.2-0.5,0.3-0.8,0.3h-7
			c-0.2,0-0.3,0.1-0.3,0.3v3c0,0.2,0.1,0.3,0.3,0.3h5.7c0.6,0,1,0.2,1.5,0.6c0.4,0.4,0.6,0.9,0.6,1.5v19.2c0,0.7-0.1,1.2-0.2,1.5
			c-0.2,0.4-0.4,0.6-0.8,0.8c-0.6,0.3-1.7,0.4-3.3,0.4c-0.3,0-0.6-0.1-0.9-0.3c-0.3-0.2-0.5-0.5-0.6-0.8c-0.1-0.3,0-0.5,0.1-0.7
			c0.2-0.2,0.4-0.3,0.7-0.3c0.5,0,1,0,1.4,0c0.4,0,0.8,0,1,0c0.2,0,0.3,0,0.4-0.1c0.1-0.1,0.1-0.2,0.1-0.4v-4.4c0,0,0,0,0,0
			c0,0,0,0-0.1,0c-0.2,0.2-0.4,0.2-0.7,0.2s-0.4-0.1-0.5-0.4c-0.7-1.2-1.2-2.6-1.5-4.1c0,0,0,0-0.1,0c0,0,0,0-0.1,0
			c-0.4,1.6-0.8,2.9-1.4,3.9c-0.2,0.3-0.4,0.4-0.7,0.4c-0.3,0-0.6-0.1-0.9-0.4c0,0-0.1,0-0.1,0s-0.1,0-0.1,0.1v6.3
			c0,0.2-0.1,0.4-0.3,0.6s-0.4,0.3-0.6,0.3s-0.5-0.1-0.6-0.3c-0.2-0.2-0.2-0.4-0.2-0.6v-6.3c0-0.1,0-0.1-0.1-0.1
			c-0.3,0.2-0.5,0.3-0.9,0.2s-0.5-0.2-0.7-0.5c-0.4-1-0.8-2.1-1.1-3.3c0,0,0-0.1,0-0.1c0,0,0,0-0.1,0.1c-0.4,1.7-0.9,3-1.5,4
			c-0.1,0.2-0.3,0.2-0.5,0.2c-0.2,0-0.4-0.1-0.5-0.3c-0.2-0.2-0.3-0.5-0.3-0.7c0-0.2,0.1-0.4,0.2-0.6c1-1.6,1.7-4.4,2-8.3
			c0-0.1,0-0.2-0.2-0.2h-0.5c-0.2,0-0.4-0.1-0.6-0.3c-0.2-0.2-0.2-0.4-0.2-0.6s0.1-0.4,0.2-0.6c0.2-0.2,0.4-0.3,0.6-0.3h0.7
			c0.4,0,0.8,0.2,1.1,0.5s0.5,0.7,0.5,1.1c0,3.9,0.6,6.9,1.7,8.8c0,0,0.1,0,0.1,0s0.1,0,0.1-0.1v-13.3c0-0.2-0.1-0.3-0.3-0.3h-5.5
			c-0.2,0-0.2,0.1-0.2,0.3V142c0,0.3-0.1,0.5-0.3,0.7c-0.2,0.2-0.4,0.3-0.7,0.3s-0.5-0.1-0.7-0.3s-0.3-0.4-0.3-0.7v-21
			c0-0.6,0.2-1.1,0.6-1.5c0.4-0.4,0.9-0.6,1.5-0.6h5.4c0.2,0,0.3-0.1,0.3-0.3v-3c0-0.2-0.1-0.3-0.3-0.3h-6.8c-0.3,0-0.6-0.1-0.8-0.3
			c-0.2-0.2-0.4-0.5-0.4-0.8s0.1-0.6,0.4-0.8c0.2-0.2,0.5-0.3,0.8-0.3h16.7C335.8,113.1,336.1,113.2,336.3,113.4z M333.9,134.6
			C333.9,134.6,333.9,134.6,333.9,134.6c0.1,0,0.1,0,0.1,0v-13c0-0.2-0.1-0.3-0.2-0.3h-5.6c-0.2,0-0.2,0.1-0.2,0.3v13.4
			c0,0,0,0.1,0.1,0.1c0,0,0.1,0,0.1,0c1.2-1.5,2-4.4,2.5-8.6c0-0.1,0-0.2-0.2-0.2h-0.7c-0.2,0-0.4-0.1-0.6-0.3
			c-0.2-0.2-0.2-0.4-0.2-0.6s0.1-0.4,0.2-0.6c0.2-0.2,0.4-0.3,0.6-0.3h0.8c0.4,0,0.8,0.2,1.2,0.5c0.3,0.3,0.5,0.7,0.5,1.2
			c0,1.8,0.2,3.4,0.4,4.7S333.2,133.4,333.9,134.6z"/>
		<path id="XMLID_40_" d="M371.1,132.4c0.2-0.3,0.4-0.5,0.7-0.7s0.6-0.1,1,0c0.3,0.1,0.5,0.3,0.6,0.6c0.1,0.3,0.1,0.6-0.1,0.9
			c-0.9,1.6-2,3.1-3.4,4.5c-0.1,0.1-0.2,0.3-0.1,0.4c1,1.8,2.2,2.7,3.4,2.7c0.5,0,0.8-0.2,1-0.6c0.2-0.4,0.4-1.2,0.5-2.4
			c0-0.2,0.1-0.4,0.3-0.5c0.2-0.1,0.4-0.1,0.6,0.1c0.6,0.4,0.9,0.8,0.9,1.4c0,0.1,0,0.1,0,0.2c-0.2,1.6-0.6,2.7-1.1,3.3
			s-1.3,0.9-2.4,0.9c-2,0-3.7-1.2-5.1-3.5c-0.1-0.2-0.2-0.2-0.4-0.1c-1.5,1.2-3.2,2.2-5,3c-0.3,0.1-0.6,0.2-0.9,0.1
			c-0.3-0.1-0.6-0.3-0.8-0.5c-0.2-0.2-0.2-0.4-0.2-0.7c0.1-0.3,0.2-0.4,0.4-0.6c2.1-0.9,4-2,5.5-3.3c0.1-0.1,0.2-0.3,0.1-0.4
			c-0.7-1.7-1.2-3.8-1.7-6.2c0-0.2-0.2-0.2-0.3-0.2h-5.1c-0.2,0-0.3,0.1-0.3,0.2c0,0.2-0.1,0.7-0.2,1.6c0,0.2,0.1,0.3,0.2,0.4
			c1.5,0.9,2.8,1.8,3.8,2.6c0.3,0.2,0.4,0.5,0.4,0.8c0,0.3-0.1,0.6-0.3,0.9c-0.2,0.3-0.4,0.4-0.8,0.4c-0.3,0-0.6-0.1-0.8-0.3
			c-0.8-0.7-1.8-1.4-2.8-2.1c-0.1-0.1-0.2-0.1-0.2,0.1c-0.4,1.5-0.9,2.8-1.5,3.9s-1.4,2.2-2.3,3c-0.3,0.2-0.5,0.3-0.9,0.3
			s-0.6-0.2-0.8-0.4c-0.2-0.2-0.3-0.5-0.3-0.8c0-0.3,0.1-0.6,0.4-0.8c1.1-1.1,2-2.4,2.5-4c0.5-1.6,0.9-3.5,1.1-5.6
			c0-0.2,0-0.2-0.2-0.2h-0.5c-0.5,0-0.9-0.2-1.3-0.5s-0.5-0.8-0.5-1.3v0c0,0,0,0,0-0.1c0,0,0,0-0.1,0c-0.2,0.3-0.5,0.4-0.9,0.4
			s-0.7-0.2-0.8-0.5c-0.5-1-1-2.1-1.7-3.4c0,0-0.1,0-0.1,0s-0.1,0-0.1,0.1v16.5c0,0.4-0.1,0.6-0.4,0.9c-0.2,0.2-0.5,0.4-0.9,0.4
			c-0.3,0-0.6-0.1-0.9-0.4c-0.2-0.2-0.4-0.5-0.4-0.9v-15.2c0,0,0,0,0,0c0,0,0,0-0.1,0c-1,3.5-2.1,6.3-3.2,8.4
			c-0.1,0.3-0.3,0.4-0.6,0.4s-0.5-0.1-0.7-0.4c-0.2-0.4-0.3-0.8-0.3-1.1c0-0.4,0.1-0.7,0.3-1.1c0.9-1.5,1.7-3.4,2.5-5.6
			c0.8-2.2,1.4-4.4,1.8-6.6c0-0.2,0-0.2-0.2-0.2h-2.8c-0.3,0-0.6-0.1-0.9-0.4s-0.4-0.5-0.4-0.9s0.1-0.6,0.4-0.9s0.5-0.4,0.9-0.4h3.1
			c0.2,0,0.2-0.1,0.2-0.2v-6.3c0-0.3,0.1-0.6,0.4-0.8c0.2-0.2,0.5-0.4,0.9-0.4c0.3,0,0.6,0.1,0.9,0.4c0.2,0.2,0.4,0.5,0.4,0.8v6.3
			c0,0.2,0.1,0.2,0.2,0.2h2.4c0.3,0,0.6,0.1,0.9,0.4s0.4,0.5,0.4,0.9s-0.1,0.6-0.4,0.9s-0.5,0.4-0.9,0.4h-2.4
			c-0.2,0-0.2,0.1-0.2,0.2v1.1c0,0.2,0,0.4,0.1,0.5c1.3,1.9,2.6,3.8,3.7,5.8c0.1,0.1,0.1,0.3,0,0.4v0h9.8c0.2,0,0.2-0.1,0.2-0.2
			c-0.7-4.5-1-10.1-1.1-16.8c0-0.3,0.1-0.6,0.4-0.8c0.2-0.2,0.5-0.4,0.8-0.4c0.3,0,0.6,0.1,0.8,0.4c0.2,0.2,0.4,0.5,0.4,0.8
			c0,0.1,0,0.3,0,0.5c0,6.1,0.4,11.6,1.1,16.3c0,0.2,0.1,0.2,0.3,0.2h4.4c0,0,0,0,0.1-0.1c0,0,0-0.1,0-0.1c-0.7-0.5-1.4-1-2-1.4
			c-0.2-0.1-0.3-0.3-0.3-0.5s0-0.4,0.2-0.6c0.3-0.3,0.5-0.4,0.8-0.4c0.2,0,0.4,0.1,0.6,0.2c0.9,0.5,1.7,1,2.3,1.5
			c0.2,0.2,0.3,0.4,0.3,0.7c0,0.3-0.1,0.5-0.3,0.7l0,0.1h1.8c0.3,0,0.6,0.1,0.8,0.3s0.3,0.5,0.3,0.8s-0.1,0.6-0.3,0.8
			s-0.5,0.3-0.8,0.3h-7.5c-0.2,0-0.2,0.1-0.2,0.2c0.3,1.7,0.7,3.2,1.2,4.5c0,0,0.1,0.1,0.1,0.1c0.1,0,0.1,0,0.2-0.1
			C369.8,134.5,370.6,133.4,371.1,132.4z M354.5,124.8c0-0.3,0-0.5,0.2-0.8s0.4-0.3,0.7-0.4h0c0.1,0,0.2,0,0.2-0.1
			c0.6-0.8,1.3-1.9,2.2-3.2c0.1-0.2,0.1-0.3,0-0.4c-0.8-0.9-1.8-1.9-3-2.9c-0.2-0.2-0.3-0.4-0.3-0.6s0-0.5,0.2-0.7
			c0.2-0.2,0.4-0.3,0.6-0.4s0.5,0,0.7,0.2h0c0,0.1,0.1,0.1,0.1,0c0.6-1.2,1.2-2.5,1.7-3.9c0.1-0.3,0.3-0.5,0.6-0.6
			c0.3-0.1,0.6-0.1,0.9,0c0.3,0.1,0.4,0.3,0.5,0.6s0.1,0.6-0.1,0.8c-1.1,2-1.8,3.4-2.2,4.1c-0.1,0.1-0.1,0.3,0.1,0.4
			c0.5,0.4,0.9,0.9,1.2,1.2c0.1,0.1,0.2,0.1,0.3,0c0.6-1.1,1.2-2.1,1.7-3c0.1-0.3,0.3-0.4,0.6-0.5s0.6-0.1,0.8,0.1
			c0.3,0.1,0.5,0.3,0.5,0.6c0.1,0.3,0.1,0.6-0.1,0.8c-1.8,3-3.4,5.4-4.7,7.2c0,0,0,0.1,0,0.1c0,0,0.1,0.1,0.1,0.1l3-0.2
			c0.2,0,0.2-0.1,0.2-0.2c-0.1-0.4-0.3-0.8-0.5-1.2c-0.1-0.2-0.1-0.4,0-0.7c0.1-0.2,0.2-0.4,0.5-0.5c0.2-0.1,0.5-0.1,0.7,0
			c0.2,0.1,0.4,0.2,0.5,0.5c0.6,1.1,1,2.3,1.4,3.5c0.1,0.3,0.1,0.5-0.1,0.8c-0.1,0.2-0.3,0.4-0.6,0.5c-0.2,0.1-0.5,0.1-0.7,0
			s-0.4-0.3-0.4-0.5c0,0,0-0.1,0-0.1c0-0.1-0.1-0.1-0.2-0.1c-1.5,0.1-3.5,0.3-6,0.6c-0.3,0-0.6,0-0.8-0.2S354.6,125.1,354.5,124.8z
			 M366.9,124.4c0-0.3,0-0.5,0.2-0.7c0.2-0.2,0.4-0.3,0.7-0.4c0.1,0,0.1,0,0.2-0.1c0.7-0.9,1.3-1.9,1.9-2.8c0.1-0.2,0.1-0.3,0-0.4
			c-0.8-0.9-1.7-1.9-2.9-2.9c-0.2-0.2-0.3-0.4-0.4-0.6s0-0.5,0.2-0.7c0.2-0.2,0.4-0.3,0.6-0.4s0.5,0,0.7,0.2c0,0,0.1,0,0.1,0
			c0.7-1.3,1.3-2.6,1.8-3.9c0.1-0.3,0.3-0.5,0.6-0.6c0.3-0.1,0.6-0.1,0.8,0c0.3,0.1,0.5,0.3,0.6,0.6s0.1,0.6-0.1,0.8
			c-0.8,1.5-1.6,2.9-2.3,4.1c-0.1,0.1-0.1,0.3,0.1,0.4c0.6,0.6,1,1,1.2,1.2c0.1,0.1,0.2,0.1,0.3,0c0.6-1.1,1.2-2.1,1.7-3
			c0.1-0.3,0.3-0.4,0.6-0.5s0.6-0.1,0.8,0.1c0.3,0.1,0.4,0.3,0.5,0.6c0.1,0.3,0,0.6-0.1,0.8c-1.7,2.8-3.2,5.1-4.4,6.9
			c0,0,0,0.1,0,0.1c0,0,0.1,0.1,0.1,0.1l3.3-0.2c0.1,0,0.1,0,0.1-0.1c0-0.1,0-0.1,0-0.2c-0.2-0.4-0.3-0.7-0.5-1.1
			c-0.1-0.2-0.1-0.4-0.1-0.7c0.1-0.2,0.2-0.4,0.4-0.5c0.2-0.1,0.5-0.1,0.7,0s0.4,0.2,0.5,0.5c0.7,1.3,1.2,2.4,1.5,3.5
			c0.1,0.3,0.1,0.5,0,0.8c-0.1,0.2-0.3,0.4-0.6,0.6c-0.2,0.1-0.5,0.1-0.7,0s-0.4-0.3-0.5-0.5c0-0.1-0.1-0.2-0.1-0.4
			c0-0.1-0.1-0.1-0.2-0.1c-0.4,0-2.5,0.2-6.3,0.6c-0.3,0-0.6-0.1-0.8-0.2C367.1,124.9,367,124.6,366.9,124.4z"/>
		<path id="XMLID_44_" d="M414.6,134.7c0.3,0,0.6,0.1,0.8,0.4c0.2,0.2,0.4,0.5,0.4,0.8s-0.1,0.6-0.4,0.8c-0.2,0.2-0.5,0.4-0.8,0.4
			h-13.4c-0.2,0-0.3,0.1-0.3,0.3v3.7c0,0.4-0.1,0.7-0.4,0.9c-0.3,0.3-0.6,0.4-0.9,0.4c-0.4,0-0.7-0.1-0.9-0.4
			c-0.3-0.3-0.4-0.6-0.4-0.9v-3.7c0-0.2-0.1-0.3-0.2-0.3h-13.1c-0.3,0-0.6-0.1-0.8-0.4c-0.2-0.2-0.4-0.5-0.4-0.8s0.1-0.6,0.4-0.8
			c0.2-0.2,0.5-0.4,0.8-0.4H398c0.2,0,0.2-0.1,0.2-0.3V132c0-0.2-0.1-0.3-0.2-0.3h-8.5c-0.6,0-1-0.2-1.5-0.6
			c-0.4-0.4-0.6-0.9-0.6-1.5v-9.8c0-0.6,0.2-1,0.6-1.5c0.4-0.4,0.9-0.6,1.5-0.6h8.5c0.2,0,0.2-0.1,0.2-0.2v-2.1
			c0-0.2-0.1-0.2-0.2-0.2h-12c-0.3,0-0.6-0.1-0.9-0.4s-0.4-0.5-0.4-0.9s0.1-0.6,0.4-0.9s0.5-0.4,0.9-0.4h12c0.2,0,0.2-0.1,0.2-0.2
			v-1.6c0-0.4,0.1-0.7,0.4-1c0.3-0.3,0.6-0.4,0.9-0.4c0.4,0,0.7,0.1,0.9,0.4c0.3,0.3,0.4,0.6,0.4,1v1.6c0,0.2,0.1,0.2,0.3,0.2h12.1
			c0.3,0,0.6,0.1,0.9,0.4s0.4,0.5,0.4,0.9s-0.1,0.6-0.4,0.9s-0.5,0.4-0.9,0.4h-12.1c-0.2,0-0.3,0.1-0.3,0.2v2.1
			c0,0.2,0.1,0.2,0.3,0.2h8.7c0.6,0,1,0.2,1.5,0.6c0.4,0.4,0.6,0.9,0.6,1.5v9.8c0,0.6-0.2,1-0.6,1.5c-0.4,0.4-0.9,0.6-1.5,0.6h-8.7
			c-0.2,0-0.3,0.1-0.3,0.3v2.4c0,0.2,0.1,0.3,0.3,0.3H414.6z M390.2,120c-0.2,0-0.2,0.1-0.2,0.2v3.2c0,0.2,0.1,0.2,0.2,0.2h7.7
			c0.2,0,0.2-0.1,0.2-0.2v-3.2c0-0.2-0.1-0.2-0.2-0.2H390.2z M390,129.3c0,0.2,0.1,0.2,0.2,0.2h7.7c0.2,0,0.2-0.1,0.2-0.2v-3.2
			c0-0.2-0.1-0.3-0.2-0.3h-7.7c-0.2,0-0.2,0.1-0.2,0.3V129.3z M409.3,120.3c0-0.2-0.1-0.2-0.2-0.2h-7.9c-0.2,0-0.3,0.1-0.3,0.2v3.2
			c0,0.2,0.1,0.2,0.3,0.2h7.9c0.2,0,0.2-0.1,0.2-0.2V120.3z M409.1,129.5c0.2,0,0.2-0.1,0.2-0.2v-3.2c0-0.2-0.1-0.3-0.2-0.3h-7.9
			c-0.2,0-0.3,0.1-0.3,0.3v3.2c0,0.2,0.1,0.2,0.3,0.2H409.1z"/>
		<path id="XMLID_50_" d="M450.6,129.7c0-0.4,0.1-0.7,0.4-1s0.6-0.4,1-0.4s0.7,0.1,1,0.4s0.4,0.6,0.4,1v12c0,0.4-0.1,0.7-0.4,1
			s-0.6,0.4-1,0.4s-0.7-0.1-1-0.4s-0.4-0.6-0.4-1v-0.6c0-0.2-0.1-0.2-0.2-0.2h-22c-0.2,0-0.2,0.1-0.2,0.2v0.7c0,0.4-0.1,0.7-0.4,0.9
			c-0.3,0.3-0.6,0.4-0.9,0.4c-0.4,0-0.7-0.1-0.9-0.4c-0.3-0.3-0.4-0.6-0.4-0.9v-12.2c0-0.4,0.1-0.7,0.4-0.9c0.3-0.3,0.6-0.4,0.9-0.4
			c0.4,0,0.7,0.1,0.9,0.4c0.3,0.3,0.4,0.6,0.4,0.9v8.4c0,0.2,0.1,0.3,0.2,0.3h9.1c0.2,0,0.3-0.1,0.3-0.3v-11.7
			c0-0.2-0.1-0.3-0.3-0.3h-8.5c-0.6,0-1.1-0.2-1.5-0.6c-0.4-0.4-0.6-0.9-0.6-1.5V115c0-0.4,0.1-0.7,0.4-0.9c0.3-0.3,0.6-0.4,0.9-0.4
			c0.4,0,0.7,0.1,0.9,0.4c0.3,0.3,0.4,0.6,0.4,0.9v8.1c0,0.2,0.1,0.3,0.3,0.3h7.7c0.2,0,0.3-0.1,0.3-0.3v-11.3c0-0.4,0.1-0.7,0.4-1
			s0.6-0.4,1-0.4s0.7,0.1,1,0.4s0.4,0.6,0.4,1v11.3c0,0.2,0.1,0.3,0.2,0.3h8.1c0.2,0,0.3-0.1,0.3-0.3v-8.1c0-0.4,0.1-0.7,0.4-1
			s0.6-0.4,1-0.4s0.7,0.1,1,0.4s0.4,0.6,0.4,1v8.8c0,0.6-0.2,1.1-0.6,1.5s-0.9,0.6-1.5,0.6h-9.1c-0.2,0-0.2,0.1-0.2,0.3V138
			c0,0.2,0.1,0.3,0.2,0.3h9.6c0.2,0,0.3-0.1,0.3-0.3V129.7z"/>
		<path id="XMLID_52_" d="M493.8,134.7c0.3,0,0.6,0.1,0.8,0.4c0.2,0.2,0.4,0.5,0.4,0.8s-0.1,0.6-0.4,0.8c-0.2,0.2-0.5,0.4-0.8,0.4
			h-13.4c-0.2,0-0.3,0.1-0.3,0.3v3.7c0,0.4-0.1,0.7-0.4,0.9c-0.3,0.3-0.6,0.4-0.9,0.4c-0.4,0-0.7-0.1-0.9-0.4
			c-0.3-0.3-0.4-0.6-0.4-0.9v-3.7c0-0.2-0.1-0.3-0.2-0.3H464c-0.3,0-0.6-0.1-0.8-0.4c-0.2-0.2-0.4-0.5-0.4-0.8s0.1-0.6,0.4-0.8
			c0.2-0.2,0.5-0.4,0.8-0.4h13.1c0.2,0,0.2-0.1,0.2-0.3V132c0-0.2-0.1-0.3-0.2-0.3h-8.5c-0.6,0-1-0.2-1.5-0.6
			c-0.4-0.4-0.6-0.9-0.6-1.5v-9.8c0-0.6,0.2-1,0.6-1.5c0.4-0.4,0.9-0.6,1.5-0.6h8.5c0.2,0,0.2-0.1,0.2-0.2v-2.1
			c0-0.2-0.1-0.2-0.2-0.2h-12c-0.3,0-0.6-0.1-0.9-0.4s-0.4-0.5-0.4-0.9s0.1-0.6,0.4-0.9s0.5-0.4,0.9-0.4h12c0.2,0,0.2-0.1,0.2-0.2
			v-1.6c0-0.4,0.1-0.7,0.4-1c0.3-0.3,0.6-0.4,0.9-0.4c0.4,0,0.7,0.1,0.9,0.4c0.3,0.3,0.4,0.6,0.4,1v1.6c0,0.2,0.1,0.2,0.3,0.2h12.1
			c0.3,0,0.6,0.1,0.9,0.4s0.4,0.5,0.4,0.9s-0.1,0.6-0.4,0.9s-0.5,0.4-0.9,0.4h-12.1c-0.2,0-0.3,0.1-0.3,0.2v2.1
			c0,0.2,0.1,0.2,0.3,0.2h8.7c0.6,0,1,0.2,1.5,0.6c0.4,0.4,0.6,0.9,0.6,1.5v9.8c0,0.6-0.2,1-0.6,1.5c-0.4,0.4-0.9,0.6-1.5,0.6h-8.7
			c-0.2,0-0.3,0.1-0.3,0.3v2.4c0,0.2,0.1,0.3,0.3,0.3H493.8z M469.4,120c-0.2,0-0.2,0.1-0.2,0.2v3.2c0,0.2,0.1,0.2,0.2,0.2h7.7
			c0.2,0,0.2-0.1,0.2-0.2v-3.2c0-0.2-0.1-0.2-0.2-0.2H469.4z M469.2,129.3c0,0.2,0.1,0.2,0.2,0.2h7.7c0.2,0,0.2-0.1,0.2-0.2v-3.2
			c0-0.2-0.1-0.3-0.2-0.3h-7.7c-0.2,0-0.2,0.1-0.2,0.3V129.3z M488.5,120.3c0-0.2-0.1-0.2-0.2-0.2h-7.9c-0.2,0-0.3,0.1-0.3,0.2v3.2
			c0,0.2,0.1,0.2,0.3,0.2h7.9c0.2,0,0.2-0.1,0.2-0.2V120.3z M488.3,129.5c0.2,0,0.2-0.1,0.2-0.2v-3.2c0-0.2-0.1-0.3-0.2-0.3h-7.9
			c-0.2,0-0.3,0.1-0.3,0.3v3.2c0,0.2,0.1,0.2,0.3,0.2H488.3z"/>
		<path id="XMLID_58_" d="M532.1,124.2c0.6,0,1,0.2,1.5,0.6s0.6,0.9,0.6,1.4v14.2c0,0.6-0.1,1.1-0.2,1.4s-0.4,0.6-0.8,0.8
			c-0.6,0.2-1.5,0.4-3,0.4h0c-0.3,0-0.6-0.1-0.9-0.3c-0.3-0.2-0.5-0.5-0.6-0.8c-0.1-0.3-0.1-0.5,0.1-0.7s0.4-0.3,0.6-0.3
			c0.3,0,0.6,0,0.8,0c0.5,0,0.9,0,1.1,0c0.2,0,0.3,0,0.4-0.1s0.1-0.2,0.1-0.4v-13.7c0-0.2-0.1-0.2-0.3-0.2h-13.7
			c-0.2,0-0.3,0.1-0.3,0.2v15.2c0,0.4-0.1,0.6-0.4,0.9s-0.5,0.4-0.8,0.4s-0.6-0.1-0.8-0.4s-0.4-0.5-0.4-0.9v-11.5c0,0,0-0.1-0.1-0.1
			s-0.1,0-0.1,0.1c-0.3,0.4-0.7,0.6-1.1,0.6c0,0,0,0-0.1,0c-0.4,0-0.8-0.2-1.1-0.5c-0.8-0.9-1.6-1.7-2.4-2.5c0,0-0.1-0.1-0.1,0
			s-0.1,0.1-0.1,0.1v13.9c0,0.4-0.1,0.7-0.4,0.9s-0.6,0.4-0.9,0.4s-0.7-0.1-0.9-0.4s-0.4-0.6-0.4-0.9v-12.1c0,0,0-0.1-0.1-0.1
			s-0.1,0-0.1,0c-1.2,1.2-2.4,2.3-3.6,3.2c-0.3,0.2-0.6,0.3-0.9,0.2s-0.6-0.3-0.8-0.6c-0.1-0.2-0.2-0.5-0.2-0.7c0-0.1,0-0.2,0-0.3
			c0.1-0.4,0.3-0.7,0.6-0.9c1.8-1.3,3.5-2.9,5.1-4.8s2.9-3.9,4-5.9c0-0.1,0-0.1,0-0.2s-0.1-0.1-0.1-0.1h-7.6c-0.3,0-0.6-0.1-0.9-0.4
			s-0.4-0.5-0.4-0.9s0.1-0.6,0.4-0.9s0.5-0.4,0.9-0.4h3.4c0.2,0,0.3-0.1,0.3-0.2v-5.1c0-0.4,0.1-0.7,0.4-0.9s0.6-0.4,0.9-0.4
			s0.7,0.1,0.9,0.4s0.4,0.6,0.4,0.9v5.1c0,0.2,0.1,0.2,0.3,0.2h2.6c0,0,0.1,0,0.1,0c0.3-0.1,0.6,0,0.8,0.1l0.4,0.2
			c0.2,0.1,0.4,0.3,0.4,0.6s0.1,0.5-0.1,0.7c-0.9,2.2-2.1,4.4-3.7,6.6c-0.1,0.1-0.1,0.3,0.1,0.4c1.1,0.9,2.4,2,3.9,3.4
			c0,0,0.1,0.1,0.1,0s0.1-0.1,0.1-0.1v-2.7c0-0.6,0.2-1,0.6-1.5s0.9-0.6,1.5-0.6h0.2c0.2,0,0.2-0.1,0.2-0.2v-9.8
			c0-0.6,0.2-1,0.6-1.5s0.9-0.6,1.5-0.6h10.2c0.6,0,1,0.2,1.5,0.6s0.6,0.9,0.6,1.5v9.8C531.9,124.1,532,124.2,532.1,124.2z
			 M520.1,114.2c-0.2,0-0.2,0.1-0.2,0.2v9.5c0,0.2,0.1,0.2,0.2,0.2h2.8c0.2,0,0.2-0.1,0.2-0.2v-4.6c0-0.6,0.2-1.1,0.6-1.5
			s0.9-0.6,1.5-0.6h4c0.2,0,0.2-0.1,0.2-0.3v-2.6c0-0.2-0.1-0.2-0.2-0.2H520.1z M529,135.8c0,0.6-0.2,1.1-0.6,1.5s-0.9,0.6-1.5,0.6
			h-4.5c-0.1,0-0.2,0.1-0.2,0.2v0.7c0,0.3-0.1,0.5-0.3,0.7s-0.4,0.3-0.7,0.3s-0.5-0.1-0.7-0.3s-0.3-0.4-0.3-0.7v-7.5
			c0-0.6,0.2-1.1,0.6-1.5s0.9-0.6,1.5-0.6h4.6c0.6,0,1,0.2,1.5,0.6s0.6,0.9,0.6,1.5V135.8z M527.1,131.5c0-0.2-0.1-0.2-0.3-0.2h-4.3
			c-0.2,0-0.2,0.1-0.2,0.2v4.2c0,0.2,0.1,0.2,0.2,0.2h4.3c0.2,0,0.3-0.1,0.3-0.2V131.5z M529.3,124.2c0.2,0,0.2-0.1,0.2-0.2v-4.4
			c0-0.2-0.1-0.2-0.2-0.2h-3.8c-0.2,0-0.2,0.1-0.2,0.2v4.4c0,0.2,0.1,0.2,0.2,0.2H529.3z"/>
		<path id="XMLID_64_" d="M594.9,134.8c-0.2,0-0.3,0.1-0.3,0.3v4.4c0,0.2,0.1,0.3,0.2,0.3c1.2,0.1,2.6,0.2,4,0.2c4.3,0,7.4,0,9.2,0
			c0.3,0,0.5,0.1,0.7,0.4c0.1,0.2,0.2,0.3,0.2,0.5c0,0.1,0,0.2-0.1,0.4c-0.1,0.4-0.4,0.7-0.7,0.9s-0.7,0.4-1,0.4h-8.4
			c-3.8,0-6.8-0.4-9.1-1.2c-2.3-0.8-4.1-2.3-5.5-4.6c0,0-0.1-0.1-0.1-0.1c-0.1,0-0.1,0-0.1,0.1c-1.2,2.2-2.6,4.1-4.4,5.7
			c-0.3,0.2-0.6,0.4-0.9,0.4c0,0-0.1,0-0.1,0c-0.4,0-0.7-0.2-1-0.5c-0.2-0.2-0.3-0.5-0.3-0.8c0-0.4,0.1-0.6,0.4-0.9
			c2.7-2.2,4.6-5.4,5.6-9.6c0.1-0.4,0.3-0.7,0.6-0.9s0.7-0.3,1-0.3c0.4,0,0.7,0.2,0.9,0.5s0.3,0.6,0.2,1c-0.2,0.6-0.4,1.3-0.6,2
			c0,0.2,0,0.4,0,0.5c1.2,2.7,3.4,4.5,6.4,5.4c0.1,0,0.1,0,0.2,0c0,0,0.1-0.1,0.1-0.2v-10.3c0-0.2-0.1-0.3-0.2-0.3h-13.3
			c-0.3,0-0.6-0.1-0.9-0.4s-0.4-0.5-0.4-0.8s0.1-0.6,0.4-0.9s0.5-0.4,0.9-0.4h29.2c0.3,0,0.6,0.1,0.9,0.4s0.4,0.5,0.4,0.9
			s-0.1,0.6-0.4,0.8s-0.5,0.4-0.9,0.4h-12.7c-0.2,0-0.3,0.1-0.3,0.3v3.4c0,0.2,0.1,0.3,0.3,0.3h10.4c0.3,0,0.6,0.1,0.8,0.3
			c0.2,0.2,0.4,0.5,0.4,0.8s-0.1,0.6-0.4,0.8c-0.2,0.2-0.5,0.4-0.8,0.4H594.9z M602.8,111.7c0.6,0,1,0.2,1.5,0.6
			c0.4,0.4,0.6,0.9,0.6,1.5v7.7c0,0.6-0.2,1-0.6,1.5c-0.4,0.4-0.9,0.6-1.5,0.6H583c-0.6,0-1-0.2-1.5-0.6c-0.4-0.4-0.6-0.9-0.6-1.5
			v-7.7c0-0.6,0.2-1.1,0.6-1.5c0.4-0.4,0.9-0.6,1.5-0.6H602.8z M602,116.7c0.2,0,0.2-0.1,0.2-0.2v-2.4c0-0.2-0.1-0.3-0.2-0.3h-18.1
			c-0.2,0-0.2,0.1-0.2,0.3v2.4c0,0.2,0.1,0.2,0.2,0.2H602z M602,121.5c0.2,0,0.2-0.1,0.2-0.2v-2.4c0-0.2-0.1-0.2-0.2-0.2h-18.1
			c-0.2,0-0.2,0.1-0.2,0.2v2.4c0,0.2,0.1,0.2,0.2,0.2H602z"/>
		<path id="XMLID_69_" d="M622.6,123.4c0.3,0.2,0.5,0.5,0.6,0.8s0,0.7-0.2,1c-0.2,0.3-0.5,0.5-0.8,0.6s-0.7,0-1-0.2
			c-1.1-0.7-2.5-1.5-4-2.2c-0.3-0.2-0.5-0.4-0.6-0.7c0-0.1,0-0.2,0-0.2c0-0.2,0.1-0.4,0.2-0.6c0.2-0.3,0.5-0.5,0.8-0.6
			c0.1,0,0.3-0.1,0.4-0.1c0.2,0,0.4,0,0.6,0.1C620.1,121.9,621.5,122.6,622.6,123.4z M620.2,141.1c-0.2,0.4-0.5,0.6-0.9,0.6
			s-0.7,0-1-0.2c-0.3-0.2-0.5-0.6-0.6-1c0-0.1,0-0.2,0-0.3c0-0.3,0.1-0.6,0.2-0.8c1.5-2.5,3-5.3,4.6-8.5c0.1-0.3,0.4-0.5,0.7-0.6
			s0.6,0,0.9,0.2c0.3,0.3,0.5,0.6,0.6,1c0,0.1,0,0.2,0,0.4c0,0.3-0.1,0.5-0.2,0.7C623.1,135.7,621.7,138.5,620.2,141.1z
			 M624.7,113.9c0.3,0.2,0.5,0.5,0.5,0.9s0,0.7-0.3,1c-0.2,0.3-0.5,0.4-0.9,0.5s-0.7,0-1-0.3c-1.1-0.8-2.4-1.7-3.9-2.5
			c-0.3-0.2-0.5-0.4-0.5-0.7s0-0.6,0.2-0.9c0.2-0.3,0.5-0.5,0.8-0.5c0.1,0,0.2,0,0.4,0c0.2,0,0.4,0,0.7,0.1
			C622.3,112.4,623.6,113.2,624.7,113.9z M648.6,114.9c0.2,0.2,0.4,0.5,0.4,0.8s-0.1,0.6-0.4,0.8s-0.5,0.3-0.8,0.3h-16.5
			c-0.2,0-0.3,0.1-0.4,0.2c-0.9,1.5-1.9,2.9-2.9,4.2c-0.2,0.3-0.5,0.4-0.9,0.5s-0.7-0.1-1-0.3c-0.3-0.2-0.4-0.5-0.5-0.8
			s0.1-0.7,0.3-0.9c2-2.2,3.7-4.9,4.9-8.2c0.1-0.4,0.3-0.6,0.7-0.8c0.2-0.1,0.4-0.2,0.7-0.2c0.1,0,0.2,0,0.4,0
			c0.3,0.1,0.6,0.3,0.7,0.6s0.2,0.6,0.1,0.9c-0.3,0.7-0.6,1.4-0.9,2.1c0,0,0,0.1,0,0.2s0.1,0.1,0.1,0.1h15.3
			C648.1,114.5,648.4,114.6,648.6,114.9z M627,127c-0.2-0.2-0.4-0.5-0.4-0.8s0.1-0.6,0.4-0.8s0.5-0.4,0.8-0.4h14.9
			c0.6,0,1.1,0.2,1.5,0.6s0.6,0.9,0.6,1.5c0,4.5,0.2,7.9,0.5,10.2s0.8,3.4,1.6,3.4c0.4,0,0.6-1.2,0.7-3.7c0-0.2,0.1-0.4,0.3-0.4
			s0.4,0,0.5,0.1c0.5,0.5,0.8,1.1,0.8,1.7c0,1.6-0.2,2.9-0.7,3.8c-0.4,0.7-1,1-1.9,1.1c-0.5,0-1-0.1-1.4-0.4s-0.8-0.6-1.1-1.1
			s-0.5-1-0.8-1.8s-0.4-1.5-0.5-2.3s-0.3-1.8-0.3-2.9s-0.1-2.3-0.2-3.3s-0.1-2.3-0.1-3.8c0-0.2-0.1-0.3-0.3-0.3h-14.2
			C627.5,127.4,627.2,127.3,627,127z M645.5,120c0.2,0.2,0.3,0.5,0.3,0.8s-0.1,0.6-0.3,0.8s-0.5,0.3-0.8,0.3H631
			c-0.3,0-0.6-0.1-0.8-0.3s-0.3-0.5-0.3-0.8s0.1-0.6,0.3-0.8s0.5-0.3,0.8-0.3h13.7C645,119.7,645.3,119.8,645.5,120z"/>
		<path id="XMLID_76_" d="M687.1,134.7c0.3,0,0.6,0.1,0.8,0.4s0.4,0.5,0.4,0.8s-0.1,0.6-0.4,0.8s-0.5,0.4-0.8,0.4h-13.4
			c-0.2,0-0.3,0.1-0.3,0.3v3.7c0,0.4-0.1,0.7-0.4,0.9s-0.6,0.4-0.9,0.4s-0.7-0.1-0.9-0.4s-0.4-0.6-0.4-0.9v-3.7
			c0-0.2-0.1-0.3-0.2-0.3h-13.1c-0.3,0-0.6-0.1-0.8-0.4c-0.2-0.2-0.4-0.5-0.4-0.8s0.1-0.6,0.4-0.8c0.2-0.2,0.5-0.4,0.8-0.4h13.1
			c0.2,0,0.2-0.1,0.2-0.3V132c0-0.2-0.1-0.3-0.2-0.3H662c-0.6,0-1-0.2-1.5-0.6s-0.6-0.9-0.6-1.5v-9.8c0-0.6,0.2-1,0.6-1.5
			s0.9-0.6,1.5-0.6h8.5c0.2,0,0.2-0.1,0.2-0.2v-2.1c0-0.2-0.1-0.2-0.2-0.2h-12c-0.3,0-0.6-0.1-0.9-0.4s-0.4-0.5-0.4-0.9
			s0.1-0.6,0.4-0.9s0.5-0.4,0.9-0.4h12c0.2,0,0.2-0.1,0.2-0.2v-1.6c0-0.4,0.1-0.7,0.4-1s0.6-0.4,0.9-0.4s0.7,0.1,0.9,0.4
			s0.4,0.6,0.4,1v1.6c0,0.2,0.1,0.2,0.3,0.2h12.1c0.3,0,0.6,0.1,0.9,0.4s0.4,0.5,0.4,0.9s-0.1,0.6-0.4,0.9s-0.5,0.4-0.9,0.4h-12.1
			c-0.2,0-0.3,0.1-0.3,0.2v2.1c0,0.2,0.1,0.2,0.3,0.2h8.7c0.6,0,1,0.2,1.5,0.6s0.6,0.9,0.6,1.5v9.8c0,0.6-0.2,1-0.6,1.5
			s-0.9,0.6-1.5,0.6h-8.7c-0.2,0-0.3,0.1-0.3,0.3v2.4c0,0.2,0.1,0.3,0.3,0.3H687.1z M662.8,120c-0.2,0-0.2,0.1-0.2,0.2v3.2
			c0,0.2,0.1,0.2,0.2,0.2h7.7c0.2,0,0.2-0.1,0.2-0.2v-3.2c0-0.2-0.1-0.2-0.2-0.2H662.8z M662.5,129.3c0,0.2,0.1,0.2,0.2,0.2h7.7
			c0.2,0,0.2-0.1,0.2-0.2v-3.2c0-0.2-0.1-0.3-0.2-0.3h-7.7c-0.2,0-0.2,0.1-0.2,0.3V129.3z M681.9,120.3c0-0.2-0.1-0.2-0.2-0.2h-7.9
			c-0.2,0-0.3,0.1-0.3,0.2v3.2c0,0.2,0.1,0.2,0.3,0.2h7.9c0.2,0,0.2-0.1,0.2-0.2V120.3z M681.6,129.5c0.2,0,0.2-0.1,0.2-0.2v-3.2
			c0-0.2-0.1-0.3-0.2-0.3h-7.9c-0.2,0-0.3,0.1-0.3,0.3v3.2c0,0.2,0.1,0.2,0.3,0.2H681.6z"/>
		<path id="XMLID_82_" d="M702.2,111.6c0.1-0.4,0.3-0.7,0.6-0.9c0.3-0.2,0.5-0.2,0.8-0.2c0.1,0,0.2,0,0.3,0c0.4,0.1,0.7,0.3,0.9,0.6
			s0.2,0.7,0.1,1.1c-0.6,1.7-1,2.9-1.3,3.7c0,0,0,0.1,0,0.2s0.1,0.1,0.2,0.1h3.6c0.6,0,1.1,0.2,1.5,0.6s0.6,0.9,0.6,1.5v19.2
			c0,0.6-0.2,1.1-0.6,1.5s-0.9,0.6-1.5,0.6h-7.7c-0.2,0-0.2,0.1-0.2,0.3v1.3c0,0.4-0.1,0.6-0.4,0.9s-0.5,0.4-0.9,0.4
			s-0.6-0.1-0.9-0.4s-0.4-0.5-0.4-0.9v-22.9c0-0.6,0.2-1.1,0.6-1.5s0.9-0.6,1.5-0.6h1.7c0.2,0,0.3-0.1,0.4-0.2
			C701.6,114.3,701.9,112.9,702.2,111.6z M706.8,125.9c0.2,0,0.3-0.1,0.3-0.2v-7c0-0.2-0.1-0.3-0.3-0.3h-7c-0.2,0-0.2,0.1-0.2,0.3v7
			c0,0.2,0.1,0.2,0.2,0.2H706.8z M699.5,136.7c0,0.2,0.1,0.3,0.2,0.3h7c0.2,0,0.3-0.1,0.3-0.3v-8.1c0-0.2-0.1-0.2-0.3-0.2h-7
			c-0.2,0-0.2,0.1-0.2,0.2V136.7z M725,115.9c0.6,0,1.1,0.2,1.5,0.6c0.4,0.4,0.6,0.8,0.6,1.4c0,5.4-0.3,11.1-0.9,17.1
			c-0.3,3.2-0.8,5.2-1.5,6c-0.4,0.5-0.8,0.8-1.2,1.1s-1,0.3-1.6,0.4c-0.5,0.1-1.1,0.1-1.9,0.1c-0.6,0-1.3,0-2.1-0.1
			c-0.4,0-0.8-0.1-1.1-0.4s-0.5-0.6-0.6-1c-0.1-0.3-0.1-0.6,0.1-0.8s0.4-0.4,0.7-0.3c1.2,0.1,2.5,0.1,3.9,0.1c0.7,0,1.2-0.2,1.5-0.6
			c0.6-0.6,1-2.4,1.4-5.5s0.6-8.2,0.8-15.3c0-0.2-0.1-0.3-0.2-0.3h-8.6c-0.2,0-0.3,0.1-0.4,0.2c-0.8,2-1.7,3.6-2.5,5
			c-0.2,0.3-0.5,0.5-0.9,0.5s-0.7,0-1-0.2c-0.3-0.2-0.5-0.5-0.6-0.8c0-0.1,0-0.2,0-0.2c0-0.3,0.1-0.5,0.2-0.7
			c1.8-2.8,3.3-6.3,4.4-10.7c0.1-0.4,0.3-0.6,0.6-0.8c0.2-0.1,0.4-0.2,0.7-0.2c0.1,0,0.2,0,0.3,0.1c0.4,0.1,0.6,0.3,0.8,0.6
			s0.2,0.6,0.1,1c-0.4,1.3-0.7,2.5-1.1,3.7c0,0,0,0.1,0,0.2s0.1,0.1,0.2,0.1H725z M720.7,131c0.1,0.2,0.2,0.4,0.2,0.7
			c0,0.1,0,0.2,0,0.4c-0.1,0.4-0.3,0.6-0.6,0.8c-0.2,0.1-0.4,0.2-0.6,0.2c-0.1,0-0.2,0-0.4-0.1c-0.3-0.1-0.6-0.3-0.8-0.6
			c-1.1-1.8-2.4-3.9-4.1-6.2c-0.1-0.2-0.2-0.4-0.2-0.6c0-0.1,0-0.1,0-0.2c0.1-0.3,0.2-0.6,0.5-0.7c0.2-0.1,0.4-0.2,0.7-0.2
			c0.1,0,0.2,0,0.2,0c0.4,0.1,0.6,0.2,0.8,0.5C718.3,127.2,719.7,129.2,720.7,131z"/>
		<path id="XMLID_88_" d="M736,140.4c-0.3,0-0.5-0.1-0.7-0.3s-0.3-0.4-0.3-0.7c0-0.6,0.2-1.2,0.7-1.6c3.9-3.5,6.8-6.5,8.6-9.1
			s2.7-5,2.7-7.2c0-1.6-0.4-2.8-1.2-3.8s-2-1.4-3.6-1.4s-3.1,0.7-4.6,2.1c-0.3,0.3-0.6,0.4-0.9,0.4s-0.7-0.1-0.9-0.4
			s-0.4-0.6-0.4-0.9s0.1-0.7,0.4-0.9c2.1-2,4.3-3,6.8-3c2.3,0,4.2,0.7,5.6,2.1s2.1,3.3,2.1,5.7c0,2.5-0.9,5-2.6,7.6
			s-4.2,5.5-7.5,8.7c0,0-0.1,0.1,0,0.1s0.1,0.1,0.1,0.1c1.9-0.2,3.3-0.2,4-0.2h5.9c0.4,0,0.7,0.1,1,0.4s0.4,0.6,0.4,1
			s-0.1,0.7-0.4,1s-0.6,0.4-1,0.4H736z"/>
		<path id="XMLID_90_" d="M763.7,140.2c-0.5,0.5-1,0.7-1.7,0.7s-1.2-0.2-1.7-0.7s-0.7-1-0.7-1.8s0.2-1.3,0.7-1.8s1-0.7,1.7-0.7
			s1.2,0.2,1.7,0.7s0.7,1.1,0.7,1.8S764.1,139.7,763.7,140.2z"/>
		<path id="XMLID_92_" d="M779.9,140.8c-2.8,0-5.3-0.9-7.4-2.6c-0.3-0.3-0.5-0.6-0.5-1.1c0-0.3,0.1-0.6,0.3-0.9s0.5-0.4,0.8-0.5
			s0.7,0.1,0.9,0.3c1.6,1.3,3.4,2,5.5,2c1.6,0,2.9-0.6,4-1.7s1.6-2.6,1.6-4.5s-0.5-3.3-1.5-4.4s-2.3-1.6-4-1.6c-1.2,0-2.4,0.3-3.5,1
			c-0.3,0.2-0.6,0.2-0.9,0.2c-0.3,0-0.6-0.1-0.8-0.2c-0.6-0.4-0.9-0.9-0.8-1.6l0.6-9.2c0-0.6,0.3-1.1,0.7-1.5s0.9-0.6,1.5-0.6h9.4
			c0.4,0,0.7,0.1,1,0.4s0.4,0.6,0.4,1s-0.1,0.7-0.4,1s-0.6,0.4-1,0.4h-8.3c-0.2,0-0.3,0.1-0.3,0.3l-0.6,7.1c0,0,0,0.1,0.1,0.1
			s0.1,0,0.1,0c1.1-0.6,2.4-0.9,3.7-0.9c2.3,0,4.2,0.7,5.7,2.1s2.2,3.5,2.2,6.3c0,1.9-0.4,3.5-1.2,4.9s-1.9,2.4-3.2,3.1
			S781.5,140.8,779.9,140.8z"/>
		<path id="XMLID_94_" d="M803.3,111.6c0.1-0.3,0.4-0.6,0.7-0.7c0.2-0.1,0.4-0.1,0.6-0.1c0.1,0,0.3,0,0.4,0.1
			c0.3,0.1,0.6,0.3,0.7,0.6s0.2,0.6,0.1,1c-0.9,2.2-1.9,4.3-3.1,6.3c-0.1,0.2-0.1,0.3-0.1,0.5v22.6c0,0.4-0.1,0.7-0.4,0.9
			s-0.5,0.4-0.9,0.4s-0.7-0.1-0.9-0.4s-0.4-0.5-0.4-0.9v-18.7c0,0,0-0.1-0.1-0.1s-0.1,0-0.1,0c-0.8,1.1-1.6,2.1-2.5,3.1
			c-0.3,0.3-0.6,0.4-0.9,0.3s-0.6-0.2-0.8-0.5s-0.3-0.7-0.3-1c0,0,0-0.1,0-0.2c0-0.4,0.2-0.8,0.5-1.1
			C798.8,120.3,801.3,116.3,803.3,111.6z M805.1,126c-0.2-0.2-0.4-0.5-0.4-0.9s0.1-0.6,0.4-0.9s0.5-0.4,0.9-0.4h21.5
			c0.3,0,0.6,0.1,0.9,0.4s0.4,0.5,0.4,0.9s-0.1,0.6-0.4,0.9s-0.5,0.4-0.9,0.4H806C805.6,126.3,805.3,126.2,805.1,126z M806.6,116.4
			c-0.2-0.2-0.4-0.5-0.4-0.8s0.1-0.6,0.4-0.8s0.5-0.4,0.8-0.4h7.9c0.2,0,0.2-0.1,0.2-0.3v-2.5c0-0.4,0.1-0.7,0.4-0.9s0.6-0.4,1-0.4
			s0.7,0.1,0.9,0.4s0.4,0.6,0.4,0.9v2.5c0,0.2,0.1,0.3,0.3,0.3h8.2c0.3,0,0.6,0.1,0.9,0.4s0.4,0.5,0.4,0.8s-0.1,0.6-0.4,0.8
			s-0.5,0.4-0.9,0.4h-19.4C807.1,116.8,806.8,116.6,806.6,116.4z M810.3,142.8c-0.3,0.3-0.6,0.4-0.9,0.4s-0.7-0.1-0.9-0.4
			s-0.4-0.6-0.4-0.9v-10.1c0-0.6,0.2-1.1,0.6-1.5s0.9-0.6,1.5-0.6H824c0.6,0,1.1,0.2,1.5,0.6s0.6,0.9,0.6,1.5v9.8
			c0,0.4-0.1,0.7-0.4,1s-0.6,0.4-0.9,0.4h0c-0.4,0-0.7-0.1-0.9-0.4s-0.4-0.6-0.4-0.9c0-0.1-0.1-0.1-0.2-0.1h-12.3
			c-0.1,0-0.2,0.1-0.2,0.2v0.2C810.7,142.2,810.6,142.5,810.3,142.8z M813.2,121.7c0.1,0.4,0,0.7-0.2,1s-0.5,0.5-0.8,0.6
			c-0.3,0.1-0.6,0.1-0.9-0.1s-0.5-0.4-0.6-0.8c-0.3-1.1-0.6-2.3-1.1-3.6c-0.1-0.3-0.1-0.6,0-0.8s0.4-0.5,0.7-0.5
			c0.3-0.1,0.7-0.1,1,0.1s0.5,0.4,0.7,0.7C812.5,119.4,812.9,120.5,813.2,121.7z M823.4,132.4c0-0.2-0.1-0.2-0.3-0.2H811
			c-0.2,0-0.3,0.1-0.3,0.2v6.4c0,0.2,0.1,0.2,0.3,0.2h12.1c0.2,0,0.3-0.1,0.3-0.2V132.4z M822.7,122.6c-0.1,0.3-0.4,0.5-0.7,0.7
			s-0.6,0.2-1,0.1c-0.3-0.1-0.5-0.2-0.7-0.5s-0.1-0.5,0-0.8c0.5-1.2,0.9-2.4,1.3-3.7c0.1-0.4,0.3-0.6,0.7-0.8s0.7-0.3,1.1-0.2
			c0.4,0.1,0.6,0.3,0.8,0.6s0.2,0.6,0.1,1C823.6,120.5,823.1,121.8,822.7,122.6z"/>
	</g>
</g>
</svg>
