<?xml version="1.0" encoding="utf-8"?>
<!-- Generator: Adobe Illustrator 19.0.0, SVG Export Plug-In . SVG Version: 6.00 Build 0)  -->
<svg version="1.1" id="圖層_1" xmlns="http://www.w3.org/2000/svg" xmlns:xlink="http://www.w3.org/1999/xlink" x="0px" y="0px"
	 viewBox="0 0 1280 101.1" style="enable-background:new 0 0 1280 101.1;" xml:space="preserve">
<style type="text/css">
	.st0{display:none;}
	.st1{display:inline;}
	.st2{fill:#808080;}
	.st3{fill:#FFD16F;stroke:#FFD16F;stroke-width:2;stroke-linecap:round;stroke-linejoin:round;stroke-miterlimit:10;}
	.st4{fill:#CAC9CD;}
	.st5{fill:#B9B7BD;}
	.st6{fill:#504B5A;}
	.st7{fill:#DCDBDE;}
	.st8{fill:#00AADC;}
	.st9{fill:#64BEF0;}
	.st10{fill:#625D6B;}
	.st11{fill:#EDEDEE;}
	.st12{fill:#FF9164;}
	.st13{fill:#AFF078;}
	.st14{fill:#96E178;}
	.st15{fill:#8CCD73;}
	.st16{fill:#FF6464;}
	.st17{fill:#FCDFAC;}
	.st18{fill:#FFD16F;}
	.st19{fill:#F9B438;}
	.st20{enable-background:new    ;}
	.st21{fill:#736F7B;}
	.st22{fill:#514A5B;}
	.st23{fill:#D2555A;}
</style>
<g id="XMLID_67_" class="st0">
	<g id="XMLID_851_" class="st1">
		<g id="XMLID_23_">
			<path id="XMLID_24_" d="M114.5-242.7c0.1-0.2,0.2-0.3,0.4-0.4c0.2-0.1,0.4-0.1,0.6,0c0.2,0.1,0.3,0.2,0.4,0.4s0.1,0.4,0,0.6
				c-0.5,1-1.2,1.9-2.1,2.7c-0.1,0.1-0.1,0.2,0,0.3c0.6,1.1,1.3,1.6,2.1,1.6c0.3,0,0.5-0.1,0.6-0.4c0.1-0.3,0.2-0.7,0.3-1.4
				c0-0.1,0.1-0.2,0.2-0.3c0.1,0,0.2,0,0.4,0c0.4,0.2,0.5,0.5,0.5,0.8c0,0,0,0.1,0,0.1c-0.1,1-0.4,1.6-0.7,2
				c-0.3,0.4-0.8,0.5-1.4,0.5c-1.2,0-2.2-0.7-3.1-2.1c-0.1-0.1-0.1-0.1-0.2,0c-0.9,0.7-1.9,1.3-3.1,1.8c-0.2,0.1-0.4,0.1-0.6,0.1
				c-0.2,0-0.3-0.2-0.5-0.3c-0.1-0.1-0.1-0.3-0.1-0.4c0-0.2,0.1-0.3,0.3-0.3c1.3-0.6,2.4-1.2,3.4-2c0.1-0.1,0.1-0.2,0.1-0.3
				c-0.4-1.1-0.8-2.3-1-3.8c0-0.1-0.1-0.1-0.2-0.1h-3.1c-0.1,0-0.2,0.1-0.2,0.1c0,0.1,0,0.4-0.1,1c0,0.1,0,0.2,0.1,0.2
				c0.9,0.6,1.7,1.1,2.3,1.6c0.2,0.1,0.2,0.3,0.3,0.5c0,0.2,0,0.4-0.2,0.5c-0.1,0.2-0.3,0.2-0.5,0.3c-0.2,0-0.4,0-0.5-0.2
				c-0.5-0.4-1.1-0.8-1.7-1.3c-0.1-0.1-0.1,0-0.1,0.1c-0.2,0.9-0.5,1.7-0.9,2.4s-0.8,1.3-1.4,1.8c-0.2,0.1-0.3,0.2-0.5,0.2
				c-0.2,0-0.4-0.1-0.5-0.3c-0.1-0.1-0.2-0.3-0.2-0.5c0-0.2,0.1-0.3,0.2-0.5c0.7-0.6,1.2-1.4,1.5-2.4c0.3-1,0.5-2.1,0.7-3.4
				c0-0.1,0-0.1-0.1-0.1h-0.3c-0.3,0-0.6-0.1-0.8-0.3c-0.2-0.2-0.3-0.5-0.3-0.8v0c0,0,0,0,0,0s0,0,0,0c-0.1,0.2-0.3,0.3-0.5,0.2
				s-0.4-0.1-0.5-0.3c-0.3-0.6-0.6-1.3-1-2.1c0,0,0,0-0.1,0c0,0,0,0,0,0v10c0,0.2-0.1,0.4-0.2,0.5c-0.1,0.1-0.3,0.2-0.5,0.2
				s-0.4-0.1-0.5-0.2c-0.1-0.1-0.2-0.3-0.2-0.5v-9.2c0,0,0,0,0,0c0,0,0,0,0,0c-0.6,2.1-1.3,3.8-2,5.1c-0.1,0.2-0.2,0.2-0.4,0.2
				s-0.3-0.1-0.4-0.2c-0.1-0.2-0.2-0.5-0.2-0.7c0-0.2,0.1-0.4,0.2-0.7c0.5-0.9,1-2,1.5-3.4c0.5-1.3,0.9-2.7,1.1-4
				c0-0.1,0-0.1-0.1-0.1h-1.7c-0.2,0-0.4-0.1-0.5-0.2c-0.1-0.1-0.2-0.3-0.2-0.5s0.1-0.4,0.2-0.5c0.1-0.1,0.3-0.2,0.5-0.2h1.9
				c0.1,0,0.1,0,0.1-0.1v-3.8c0-0.2,0.1-0.4,0.2-0.5c0.1-0.1,0.3-0.2,0.5-0.2s0.4,0.1,0.5,0.2c0.1,0.1,0.2,0.3,0.2,0.5v3.8
				c0,0.1,0,0.1,0.1,0.1h1.5c0.2,0,0.4,0.1,0.5,0.2c0.1,0.1,0.2,0.3,0.2,0.5s-0.1,0.4-0.2,0.5c-0.1,0.1-0.3,0.2-0.5,0.2h-1.5
				c-0.1,0-0.1,0.1-0.1,0.1v0.7c0,0.1,0,0.2,0.1,0.3c0.8,1.2,1.6,2.3,2.2,3.5c0.1,0.1,0.1,0.2,0,0.2v0h6c0.1,0,0.1,0,0.1-0.1
				c-0.4-2.7-0.6-6.1-0.7-10.2c0-0.2,0.1-0.4,0.2-0.5c0.1-0.1,0.3-0.2,0.5-0.2c0.2,0,0.4,0.1,0.5,0.2c0.1,0.1,0.2,0.3,0.2,0.5
				c0,0.1,0,0.2,0,0.3c0,3.7,0.2,7,0.6,9.9c0,0.1,0.1,0.1,0.2,0.1h2.7c0,0,0,0,0,0c0,0,0,0,0-0.1c-0.4-0.3-0.8-0.6-1.2-0.9
				c-0.1-0.1-0.2-0.2-0.2-0.3c0-0.1,0-0.3,0.1-0.4c0.2-0.2,0.3-0.2,0.5-0.2c0.1,0,0.2,0,0.4,0.1c0.5,0.3,1,0.6,1.4,0.9
				c0.1,0.1,0.2,0.2,0.2,0.4c0,0.2,0,0.3-0.2,0.4l0,0h1.1c0.2,0,0.3,0.1,0.5,0.2c0.1,0.1,0.2,0.3,0.2,0.5c0,0.2-0.1,0.3-0.2,0.5
				c-0.1,0.1-0.3,0.2-0.5,0.2h-4.5c-0.1,0-0.1,0.1-0.1,0.1c0.2,1,0.4,1.9,0.7,2.7c0,0,0,0,0.1,0.1c0,0,0.1,0,0.1,0
				C113.7-241.4,114.1-242,114.5-242.7z M104.3-247.3c0-0.2,0-0.3,0.1-0.5s0.2-0.2,0.4-0.2h0c0.1,0,0.1,0,0.1-0.1
				c0.4-0.5,0.8-1.1,1.3-1.9c0.1-0.1,0-0.2,0-0.3c-0.5-0.6-1.1-1.2-1.8-1.8c-0.1-0.1-0.2-0.2-0.2-0.4c0-0.2,0-0.3,0.1-0.4
				c0.1-0.1,0.2-0.2,0.4-0.2c0.1,0,0.3,0,0.4,0.1h0c0,0,0.1,0,0.1,0c0.4-0.7,0.7-1.5,1-2.4c0.1-0.2,0.2-0.3,0.4-0.4s0.3-0.1,0.5,0
				c0.2,0.1,0.3,0.2,0.3,0.4c0.1,0.2,0.1,0.3,0,0.5c-0.6,1.2-1.1,2.1-1.4,2.5c-0.1,0.1,0,0.2,0,0.2c0.3,0.3,0.5,0.5,0.7,0.7
				c0.1,0.1,0.1,0.1,0.2,0c0.4-0.7,0.7-1.3,1-1.8c0.1-0.2,0.2-0.3,0.4-0.3c0.2-0.1,0.3-0.1,0.5,0c0.2,0.1,0.3,0.2,0.3,0.4
				s0,0.3-0.1,0.5c-1.1,1.8-2,3.3-2.9,4.4c0,0,0,0.1,0,0.1s0,0,0.1,0l1.8-0.1c0.1,0,0.1,0,0.1-0.1c-0.1-0.3-0.2-0.5-0.3-0.7
				c-0.1-0.1-0.1-0.3,0-0.4c0-0.1,0.1-0.2,0.3-0.3c0.1,0,0.3,0,0.4,0c0.1,0.1,0.2,0.1,0.3,0.3c0.4,0.7,0.6,1.4,0.8,2.1
				c0.1,0.2,0,0.3,0,0.5c-0.1,0.1-0.2,0.3-0.4,0.3c-0.1,0.1-0.3,0-0.4,0c-0.1-0.1-0.2-0.2-0.3-0.3c0,0,0-0.1,0-0.1
				c0-0.1-0.1-0.1-0.1-0.1c-0.9,0.1-2.1,0.2-3.7,0.3c-0.2,0-0.4,0-0.5-0.1C104.5-247,104.4-247.1,104.3-247.3z M111.9-247.5
				c0-0.2,0-0.3,0.1-0.4c0.1-0.1,0.2-0.2,0.4-0.2c0,0,0.1,0,0.1-0.1c0.4-0.6,0.8-1.1,1.2-1.7c0.1-0.1,0-0.2,0-0.3
				c-0.5-0.6-1.1-1.2-1.8-1.8c-0.1-0.1-0.2-0.2-0.2-0.4c0-0.1,0-0.3,0.1-0.4c0.1-0.1,0.2-0.2,0.4-0.2s0.3,0,0.4,0.1c0,0,0.1,0,0.1,0
				c0.4-0.8,0.8-1.6,1.1-2.4c0.1-0.2,0.2-0.3,0.4-0.4c0.2-0.1,0.3-0.1,0.5,0c0.2,0.1,0.3,0.2,0.4,0.4c0.1,0.2,0.1,0.3,0,0.5
				c-0.5,0.9-1,1.8-1.4,2.5c-0.1,0.1,0,0.2,0,0.3c0.4,0.4,0.6,0.6,0.7,0.7c0.1,0.1,0.1,0.1,0.2,0c0.4-0.7,0.7-1.3,1-1.8
				c0.1-0.2,0.2-0.3,0.4-0.3c0.2-0.1,0.3-0.1,0.5,0c0.2,0.1,0.3,0.2,0.3,0.4c0,0.2,0,0.3-0.1,0.5c-1,1.7-1.9,3.1-2.7,4.2
				c0,0,0,0.1,0,0.1c0,0,0,0,0.1,0l2-0.1c0,0,0.1,0,0.1-0.1c0,0,0-0.1,0-0.1c-0.1-0.2-0.2-0.4-0.3-0.6c-0.1-0.1-0.1-0.3,0-0.4
				s0.1-0.2,0.3-0.3c0.1-0.1,0.3-0.1,0.4,0c0.1,0.1,0.3,0.1,0.3,0.3c0.4,0.8,0.7,1.5,0.9,2.1c0.1,0.2,0,0.3,0,0.5
				c-0.1,0.1-0.2,0.3-0.3,0.4c-0.1,0.1-0.3,0.1-0.4,0c-0.1-0.1-0.2-0.2-0.3-0.3c0-0.1,0-0.1-0.1-0.2c0-0.1-0.1-0.1-0.1-0.1
				c-0.3,0-1.5,0.1-3.8,0.3c-0.2,0-0.3,0-0.5-0.1C112-247.2,111.9-247.4,111.9-247.5z"/>
			<path id="XMLID_28_" d="M138.7-241.3c0.2,0,0.4,0.1,0.5,0.2c0.1,0.1,0.2,0.3,0.2,0.5c0,0.2-0.1,0.4-0.2,0.5
				c-0.1,0.1-0.3,0.2-0.5,0.2h-8.1c-0.1,0-0.2,0.1-0.2,0.2v2.3c0,0.2-0.1,0.4-0.2,0.6s-0.4,0.2-0.6,0.2s-0.4-0.1-0.6-0.2
				c-0.2-0.2-0.2-0.4-0.2-0.6v-2.3c0-0.1-0.1-0.2-0.1-0.2h-8c-0.2,0-0.4-0.1-0.5-0.2c-0.1-0.1-0.2-0.3-0.2-0.5
				c0-0.2,0.1-0.4,0.2-0.5c0.1-0.1,0.3-0.2,0.5-0.2h8c0.1,0,0.1-0.1,0.1-0.2v-1.5c0-0.1-0.1-0.2-0.1-0.2h-5.1
				c-0.3,0-0.6-0.1-0.9-0.4c-0.2-0.2-0.4-0.5-0.4-0.9v-6c0-0.3,0.1-0.6,0.4-0.9c0.2-0.2,0.5-0.4,0.9-0.4h5.1c0.1,0,0.1,0,0.1-0.1
				v-1.3c0-0.1-0.1-0.1-0.1-0.1h-7.3c-0.2,0-0.4-0.1-0.5-0.2c-0.1-0.1-0.2-0.3-0.2-0.5c0-0.2,0.1-0.4,0.2-0.5
				c0.1-0.1,0.3-0.2,0.5-0.2h7.3c0.1,0,0.1,0,0.1-0.1v-1c0-0.2,0.1-0.4,0.2-0.6c0.2-0.2,0.4-0.2,0.6-0.2s0.4,0.1,0.6,0.2
				c0.2,0.2,0.2,0.4,0.2,0.6v1c0,0.1,0.1,0.1,0.2,0.1h7.4c0.2,0,0.4,0.1,0.5,0.2c0.1,0.1,0.2,0.3,0.2,0.5c0,0.2-0.1,0.4-0.2,0.5
				c-0.1,0.1-0.3,0.2-0.5,0.2h-7.4c-0.1,0-0.2,0-0.2,0.1v1.3c0,0.1,0.1,0.1,0.2,0.1h5.3c0.3,0,0.6,0.1,0.9,0.4s0.4,0.5,0.4,0.9v6
				c0,0.3-0.1,0.6-0.4,0.9s-0.5,0.4-0.9,0.4h-5.3c-0.1,0-0.2,0.1-0.2,0.2v1.5c0,0.1,0.1,0.2,0.2,0.2H138.7z M123.8-250.2
				c-0.1,0-0.1,0.1-0.1,0.1v1.9c0,0.1,0,0.1,0.1,0.1h4.7c0.1,0,0.1,0,0.1-0.1v-1.9c0-0.1-0.1-0.1-0.1-0.1H123.8z M123.7-244.6
				c0,0.1,0,0.1,0.1,0.1h4.7c0.1,0,0.1,0,0.1-0.1v-1.9c0-0.1-0.1-0.2-0.1-0.2h-4.7c-0.1,0-0.1,0.1-0.1,0.2V-244.6z M135.4-250
				c0-0.1-0.1-0.1-0.1-0.1h-4.8c-0.1,0-0.2,0.1-0.2,0.1v1.9c0,0.1,0.1,0.1,0.2,0.1h4.8c0.1,0,0.1,0,0.1-0.1V-250z M135.3-244.4
				c0.1,0,0.1,0,0.1-0.1v-1.9c0-0.1-0.1-0.2-0.1-0.2h-4.8c-0.1,0-0.2,0.1-0.2,0.2v1.9c0,0.1,0.1,0.1,0.2,0.1H135.3z"/>
		</g>
		<g id="XMLID_1_">
			<path id="XMLID_2_" d="M1063.6-235.3c-0.3,0-0.5-0.1-0.7-0.3c-0.2-0.2-0.3-0.4-0.3-0.7c0-0.6,0.2-1.2,0.7-1.6
				c3.9-3.5,6.8-6.5,8.6-9.1c1.8-2.6,2.7-5,2.7-7.2c0-1.6-0.4-2.8-1.2-3.8s-2-1.4-3.6-1.4s-3.1,0.7-4.6,2.1
				c-0.3,0.3-0.6,0.4-0.9,0.4c-0.4,0-0.7-0.1-0.9-0.4c-0.3-0.3-0.4-0.6-0.4-0.9c0-0.4,0.1-0.7,0.4-0.9c2.1-2,4.3-3,6.8-3
				c2.3,0,4.2,0.7,5.6,2.1c1.4,1.4,2.1,3.3,2.1,5.7c0,2.5-0.9,5-2.6,7.6s-4.2,5.5-7.5,8.7c0,0-0.1,0.1,0,0.1c0,0,0.1,0.1,0.1,0.1
				c1.9-0.2,3.3-0.2,4-0.2h5.9c0.4,0,0.7,0.1,1,0.4s0.4,0.6,0.4,1s-0.1,0.7-0.4,1s-0.6,0.4-1,0.4H1063.6z"/>
			<path id="XMLID_4_" d="M1098.5-245.2c0.4,0,0.7,0.1,0.9,0.4c0.3,0.3,0.4,0.6,0.4,0.9c0,0.4-0.1,0.7-0.4,0.9
				c-0.3,0.3-0.6,0.4-0.9,0.4h-1.9c-0.2,0-0.3,0.1-0.3,0.3v5.4c0,0.4-0.2,0.8-0.5,1.1c-0.3,0.3-0.7,0.5-1.1,0.5s-0.8-0.2-1.1-0.5
				c-0.3-0.3-0.5-0.7-0.5-1.1v-5.4c0-0.2-0.1-0.3-0.2-0.3h-10.2c-0.3,0-0.6-0.1-0.8-0.3s-0.3-0.5-0.3-0.8c0-0.7,0.2-1.4,0.6-2
				l9.4-14.5c0.7-1,1.6-1.5,2.8-1.5c0.5,0,0.9,0.2,1.3,0.5c0.4,0.4,0.5,0.8,0.5,1.3v14.4c0,0.2,0.1,0.2,0.3,0.2H1098.5z
				 M1085.3-245.5c0,0,0,0.1,0,0.1c0,0,0.1,0.1,0.1,0.1h7.6c0.2,0,0.2-0.1,0.2-0.2v-7.8c0-0.5,0.1-2.1,0.2-4.7c0,0,0-0.1-0.1-0.1
				s-0.1,0-0.1,0.1c-0.6,1.1-1.3,2.4-2.1,3.8L1085.3-245.5z"/>
			<path id="XMLID_7_" d="M1110.3-234.9c-2.8,0-5.3-0.9-7.4-2.6c-0.3-0.3-0.5-0.6-0.5-1.1c0-0.3,0.1-0.6,0.3-0.9s0.5-0.4,0.8-0.5
				c0.4,0,0.7,0.1,0.9,0.3c1.6,1.3,3.4,2,5.5,2c1.6,0,2.9-0.6,4-1.7c1.1-1.1,1.6-2.6,1.6-4.5c0-1.9-0.5-3.3-1.5-4.4
				c-1-1.1-2.3-1.6-4-1.6c-1.2,0-2.4,0.3-3.5,1c-0.3,0.2-0.6,0.2-0.9,0.2c-0.3,0-0.6-0.1-0.8-0.2c-0.6-0.4-0.9-0.9-0.8-1.6l0.6-9.2
				c0-0.6,0.3-1.1,0.7-1.5c0.4-0.4,0.9-0.6,1.5-0.6h9.4c0.4,0,0.7,0.1,1,0.4s0.4,0.6,0.4,1s-0.1,0.7-0.4,1c-0.3,0.3-0.6,0.4-1,0.4
				h-8.3c-0.2,0-0.3,0.1-0.3,0.3l-0.6,7.1c0,0,0,0.1,0.1,0.1s0.1,0,0.1,0c1.1-0.6,2.4-0.9,3.7-0.9c2.3,0,4.2,0.7,5.7,2.1
				s2.2,3.5,2.2,6.3c0,1.9-0.4,3.5-1.2,4.9s-1.9,2.4-3.2,3.1S1111.8-234.9,1110.3-234.9z"/>
			<path id="XMLID_9_" d="M1124-236.6c-0.3-0.2-0.5-0.5-0.5-0.9s0.1-0.7,0.4-1c0.2-0.3,0.5-0.4,0.9-0.4c0.4,0,0.7,0.1,1,0.3
				c1.1,0.7,2.2,1.1,3.4,1.1c1.9,0,3.4-0.8,4.6-2.5c1.2-1.7,1.9-4.4,2-8.2c0,0,0-0.1-0.1-0.1c0,0-0.1,0-0.1,0
				c-0.8,0.9-1.7,1.7-2.8,2.2c-1,0.6-2.1,0.8-3.1,0.8c-2.2,0-4-0.7-5.3-2.1c-1.3-1.4-2-3.5-2-6.2c0-2.5,0.7-4.6,2.2-6.2
				c1.5-1.6,3.3-2.4,5.4-2.4c2.6,0,4.8,1.1,6.4,3.2c1.6,2.2,2.4,5.3,2.4,9.3c0,2.6-0.3,4.8-0.8,6.8c-0.5,2-1.2,3.5-2.1,4.6
				c-0.9,1.1-1.9,2-3,2.5s-2.3,0.8-3.6,0.8C1127.3-234.9,1125.5-235.5,1124-236.6z M1130.3-247.8c2,0,3.8-1.1,5.4-3.3
				c0.1-0.1,0.1-0.3,0.1-0.5c-0.2-2.6-0.8-4.6-1.8-6s-2.3-2.1-4-2.1c-1.3,0-2.4,0.6-3.2,1.7c-0.8,1.1-1.3,2.5-1.3,4.3
				c0,1.8,0.4,3.3,1.2,4.3C1127.6-248.3,1128.8-247.8,1130.3-247.8z"/>
			<path id="XMLID_12_" d="M1144-236.6c-0.3-0.2-0.5-0.5-0.5-0.9s0.1-0.7,0.4-1c0.2-0.3,0.5-0.4,0.9-0.4c0.4,0,0.7,0.1,1,0.3
				c1.1,0.7,2.2,1.1,3.4,1.1c1.9,0,3.4-0.8,4.6-2.5c1.2-1.7,1.9-4.4,2-8.2c0,0,0-0.1-0.1-0.1c0,0-0.1,0-0.1,0
				c-0.8,0.9-1.7,1.7-2.8,2.2c-1,0.6-2.1,0.8-3.1,0.8c-2.2,0-4-0.7-5.3-2.1c-1.3-1.4-2-3.5-2-6.2c0-2.5,0.7-4.6,2.2-6.2
				c1.5-1.6,3.3-2.4,5.4-2.4c2.6,0,4.8,1.1,6.4,3.2c1.6,2.2,2.4,5.3,2.4,9.3c0,2.6-0.3,4.8-0.8,6.8c-0.5,2-1.2,3.5-2.1,4.6
				c-0.9,1.1-1.9,2-3,2.5s-2.3,0.8-3.6,0.8C1147.3-234.9,1145.5-235.5,1144-236.6z M1150.3-247.8c2,0,3.8-1.1,5.4-3.3
				c0.1-0.1,0.1-0.3,0.1-0.5c-0.2-2.6-0.8-4.6-1.8-6s-2.3-2.1-4-2.1c-1.3,0-2.4,0.6-3.2,1.7c-0.8,1.1-1.3,2.5-1.3,4.3
				c0,1.8,0.4,3.3,1.2,4.3C1147.6-248.3,1148.7-247.8,1150.3-247.8z"/>
			<path id="XMLID_15_" d="M1175.4-241.1c-0.1,0-0.2,0.1-0.2,0.2v1.5c0,0.1,0.1,0.2,0.2,0.2h2.6c0.2,0,0.4,0.1,0.6,0.2
				s0.2,0.3,0.2,0.5s-0.1,0.4-0.2,0.6s-0.3,0.2-0.6,0.2h-2.6c-0.1,0-0.2,0.1-0.2,0.2v3.3c0,0.2-0.1,0.4-0.2,0.6s-0.3,0.2-0.5,0.2
				s-0.4-0.1-0.5-0.2s-0.2-0.3-0.2-0.6v-3.3c0-0.1-0.1-0.2-0.2-0.2h-2.8c-0.2,0-0.4-0.1-0.6-0.2s-0.2-0.3-0.2-0.6s0.1-0.4,0.2-0.5
				s0.3-0.2,0.6-0.2h2.8c0.1,0,0.2-0.1,0.2-0.2v-1.5c0-0.1-0.1-0.2-0.2-0.2h-1.5c-0.4,0-0.7-0.1-1-0.4s-0.4-0.6-0.4-1v-5.7
				c0-0.4,0.1-0.7,0.4-1s0.6-0.4,1-0.4h1.5c0.1,0,0.2-0.1,0.2-0.2v-1.4c0-0.1-0.1-0.2-0.2-0.2h-2.6c-0.2,0-0.4-0.1-0.6-0.2
				s-0.2-0.3-0.2-0.5s0.1-0.4,0.2-0.5s0.3-0.2,0.6-0.2h2.6c0.1,0,0.2-0.1,0.2-0.2v-1.6c0-0.2,0.1-0.4,0.2-0.6s0.3-0.2,0.5-0.2
				s0.4,0.1,0.5,0.2s0.2,0.3,0.2,0.6v1.6c0,0.1,0.1,0.2,0.2,0.2h2.4c0.2,0,0.4,0.1,0.6,0.2s0.2,0.3,0.2,0.5s-0.1,0.4-0.2,0.5
				s-0.3,0.2-0.6,0.2h-2.4c-0.1,0-0.2,0.1-0.2,0.2v1.4c0,0.1,0.1,0.2,0.2,0.2h1.5c0.4,0,0.7,0.1,1,0.4s0.4,0.6,0.4,1v5.7
				c0,0.4-0.1,0.7-0.4,1s-0.6,0.4-1,0.4H1175.4z M1172.1-248.2c-0.1,0-0.2,0.1-0.2,0.2v1.9c0,0.1,0.1,0.2,0.2,0.2h1.6
				c0.1,0,0.2-0.1,0.2-0.2v-1.9c0-0.1-0.1-0.2-0.2-0.2H1172.1z M1172.1-244.7c-0.1,0-0.2,0.1-0.2,0.2v1.9c0,0.1,0.1,0.2,0.2,0.2h1.6
				c0.1,0,0.2-0.1,0.2-0.2v-1.9c0-0.1-0.1-0.2-0.2-0.2H1172.1z M1176.9-246c0.1,0,0.2-0.1,0.2-0.2v-1.9c0-0.1-0.1-0.2-0.2-0.2h-1.6
				c-0.1,0-0.2,0.1-0.2,0.2v1.9c0,0.1,0.1,0.2,0.2,0.2H1176.9z M1176.9-242.4c0.1,0,0.2-0.1,0.2-0.2v-1.9c0-0.1-0.1-0.2-0.2-0.2
				h-1.6c-0.1,0-0.2,0.1-0.2,0.2v1.9c0,0.1,0.1,0.2,0.2,0.2H1176.9z M1191.5-253.3c0.2,0.1,0.2,0.3,0.2,0.6s-0.1,0.4-0.2,0.6
				s-0.3,0.2-0.5,0.2h-4.7c-0.1,0-0.2,0.1-0.2,0.2v2c0,0.1,0.1,0.2,0.2,0.2h3.8c0.4,0,0.7,0.1,1,0.4s0.4,0.6,0.4,1v12.8
				c0,0.4-0.1,0.8-0.2,1s-0.3,0.4-0.6,0.6c-0.4,0.2-1.2,0.3-2.2,0.3c-0.2,0-0.4-0.1-0.6-0.2s-0.3-0.3-0.4-0.6c0-0.2,0-0.3,0.1-0.5
				s0.2-0.2,0.4-0.2c0.4,0,0.7,0,0.9,0c0.3,0,0.5,0,0.7,0c0.1,0,0.2,0,0.3-0.1s0.1-0.2,0.1-0.3v-2.9c0,0,0,0,0,0s0,0,0,0
				c-0.1,0.1-0.3,0.2-0.4,0.1s-0.3-0.1-0.4-0.2c-0.5-0.8-0.8-1.7-1-2.8c0,0,0,0,0,0s0,0,0,0c-0.2,1.1-0.6,1.9-1,2.6
				c-0.1,0.2-0.3,0.3-0.5,0.3s-0.4-0.1-0.6-0.2c0,0,0,0-0.1,0s0,0,0,0.1v4.2c0,0.2-0.1,0.3-0.2,0.4s-0.3,0.2-0.4,0.2
				s-0.3-0.1-0.4-0.2s-0.2-0.3-0.2-0.4v-4.2c0-0.1,0-0.1-0.1,0c-0.2,0.1-0.4,0.2-0.6,0.2s-0.4-0.2-0.4-0.3c-0.3-0.6-0.5-1.4-0.7-2.2
				c0,0,0,0,0,0s0,0,0,0c-0.2,1.1-0.6,2-1,2.7c-0.1,0.1-0.2,0.2-0.3,0.2s-0.2-0.1-0.3-0.2c-0.1-0.2-0.2-0.3-0.2-0.5
				c0-0.1,0-0.3,0.1-0.4c0.7-1.1,1.1-2.9,1.4-5.5c0-0.1,0-0.1-0.1-0.1h-0.4c-0.2,0-0.3-0.1-0.4-0.2s-0.2-0.3-0.2-0.4
				s0.1-0.3,0.2-0.4s0.2-0.2,0.4-0.2h0.5c0.3,0,0.5,0.1,0.7,0.3s0.3,0.5,0.3,0.8c0,2.6,0.4,4.6,1.1,5.9c0,0,0,0,0.1,0s0,0,0,0v-8.8
				c0-0.1-0.1-0.2-0.2-0.2h-3.7c-0.1,0-0.2,0.1-0.2,0.2v13.7c0,0.2-0.1,0.3-0.2,0.5s-0.3,0.2-0.5,0.2s-0.4-0.1-0.5-0.2
				s-0.2-0.3-0.2-0.5v-14c0-0.4,0.1-0.7,0.4-1s0.6-0.4,1-0.4h3.6c0.1,0,0.2-0.1,0.2-0.2v-2c0-0.1-0.1-0.2-0.2-0.2h-4.5
				c-0.2,0-0.4-0.1-0.5-0.2s-0.2-0.3-0.2-0.6s0.1-0.4,0.2-0.6s0.3-0.2,0.5-0.2h11.1C1191.1-253.5,1191.3-253.4,1191.5-253.3z
				 M1189.8-239.2C1189.9-239.2,1189.9-239.2,1189.8-239.2C1189.9-239.2,1189.9-239.2,1189.8-239.2l0.1-8.7c0-0.1-0.1-0.2-0.2-0.2
				h-3.8c-0.1,0-0.2,0.1-0.2,0.2v8.9c0,0,0,0.1,0,0.1s0.1,0,0.1,0c0.8-1,1.3-2.9,1.6-5.8c0-0.1,0-0.1-0.1-0.1h-0.4
				c-0.2,0-0.3-0.1-0.4-0.2s-0.2-0.3-0.2-0.4s0.1-0.3,0.2-0.4s0.2-0.2,0.4-0.2h0.5c0.3,0,0.6,0.1,0.8,0.3s0.3,0.5,0.3,0.8
				c0,1.2,0.1,2.2,0.3,3.2S1189.4-240,1189.8-239.2z"/>
		</g>
		<g id="XMLID_448_">
			<rect id="XMLID_867_" x="147.2" y="-256.9" class="st2" width="852.5" height="22.4"/>
			<g id="XMLID_494_">
				<line id="XMLID_533_" class="st3" x1="159" y1="-246.1" x2="207" y2="-246.1"/>
				<line id="XMLID_504_" class="st3" x1="232" y1="-246.1" x2="280" y2="-246.1"/>
				<line id="XMLID_503_" class="st3" x1="306" y1="-246.1" x2="354" y2="-246.1"/>
				<line id="XMLID_502_" class="st3" x1="379" y1="-246.1" x2="427" y2="-246.1"/>
				<line id="XMLID_501_" class="st3" x1="453" y1="-246.1" x2="501" y2="-246.1"/>
				<line id="XMLID_500_" class="st3" x1="526" y1="-246.1" x2="574" y2="-246.1"/>
				<line id="XMLID_499_" class="st3" x1="599" y1="-246.1" x2="647" y2="-246.1"/>
				<line id="XMLID_498_" class="st3" x1="673" y1="-246.1" x2="721" y2="-246.1"/>
				<line id="XMLID_497_" class="st3" x1="746" y1="-246.1" x2="794" y2="-246.1"/>
				<line id="XMLID_496_" class="st3" x1="820" y1="-246.1" x2="868" y2="-246.1"/>
				<line id="XMLID_495_" class="st3" x1="893" y1="-246.1" x2="941" y2="-246.1"/>
			</g>
		</g>
	</g>
	<g id="XMLID_814_" class="st1">

			<rect id="XMLID_850_" x="998.1" y="-302.2" transform="matrix(0.4472 0.8944 -0.8944 0.4472 286.267 -1064.0477)" class="st4" width="11.8" height="3.5"/>
		<path id="XMLID_849_" class="st5" d="M1030.3-244.3c-2.4,0-4.4-2-4.4-4.4c0-2.4,2-4.4,4.4-4.4s4.4,2,4.4,4.4
			C1034.6-246.3,1032.7-244.3,1030.3-244.3z"/>
		<path id="XMLID_846_" class="st6" d="M1030.3-261.9c-7.3,0-13.1,5.9-13.1,13.1s5.9,13.1,13.1,13.1c7.3,0,13.1-5.9,13.1-13.1
			S1037.5-261.9,1030.3-261.9z M1030.3-240.8c-4.4,0-7.9-3.5-7.9-7.9s3.5-7.9,7.9-7.9s7.9,3.5,7.9,7.9
			C1038.2-244.4,1034.6-240.8,1030.3-240.8z"/>
		<path id="XMLID_845_" class="st7" d="M1030.2-247.1c-0.6,0-1.2-0.3-1.5-0.8l-8.6-14.4c-0.5-0.8-0.2-1.9,0.6-2.4
			c0.8-0.5,1.9-0.2,2.4,0.6l8.6,14.4c0.5,0.8,0.2,1.9-0.6,2.4C1030.8-247.1,1030.5-247.1,1030.2-247.1z"/>
		<path id="XMLID_844_" class="st8" d="M1018.5-257.6h16.4c0.7,0,1.3-0.4,1.6-1l0.9-1.8c0.5-1,0.2-2.1-0.6-2.8
			c-1.9-1.7-6.2-4.5-14.5-5.6L1018.5-257.6z"/>
		<path id="XMLID_841_" class="st6" d="M958.4-261.9c-7.3,0-13.1,5.9-13.1,13.1s5.9,13.1,13.1,13.1c7.3,0,13.1-5.9,13.1-13.1
			S965.6-261.9,958.4-261.9z M958.4-240.8c-4.4,0-7.9-3.5-7.9-7.9s3.5-7.9,7.9-7.9c4.4,0,7.9,3.5,7.9,7.9
			C966.3-244.4,962.7-240.8,958.4-240.8z"/>
		<path id="XMLID_840_" class="st7" d="M975.9-244.3h-17.5c-2.4,0-4.4-2-4.4-4.4l0,0c0-2.4,2-4.4,4.4-4.4h17.5c2.4,0,4.4,2,4.4,4.4
			l0,0C980.3-246.3,978.3-244.3,975.9-244.3z"/>
		<path id="XMLID_839_" class="st8" d="M1006.6-249.6l3-16.7c0.3-1.7,0.3-3.5-0.2-5.2l-4.6-20.2h5.3l8.8,22.8l-5.3,19.3
			L1006.6-249.6L1006.6-249.6z"/>
		<path id="XMLID_838_" class="st9" d="M1017.2-250.2l7.4-16.1c0.7-1.6,0.6-3.5-0.3-5l-10-15.7c-0.4-0.6-1.2-0.9-1.9-0.5l0,0
			c-1.3,0.7-2,2.2-1.6,3.6l2.9,9.6c1.1,3.6,1.3,7.4,0.5,11l-1.8,9.1c-0.3,1.6-1.8,2.8-3.4,2.8h-18.2l3.5-19.3l-3.5-5.3l-22.8-1.8
			l-13.4,1.5c-1.4,0.2-2.4,1.3-2.4,2.7l0,0c0,0.7,0.3,1.4,0.8,1.9l2.7,2.7c0,0-14,3.5-14,12.3v1.8c0,1,0.8,1.8,1.8,1.8h26.6
			c0.9,0,1.8,0.4,2.5,1l5,5c0.7,0.7,1.5,1,2.5,1h30.9C1013.6-246.1,1016.1-247.7,1017.2-250.2z"/>
		<path id="XMLID_837_" class="st8" d="M994.3-270.6l-3.5-5.3l-22.8-1.8l-13.4,1.5c-1.4,0.2-2.4,1.3-2.4,2.7c0,0.7,0.3,1.4,0.8,1.9
			l2.7,2.7H994L994.3-270.6z"/>
		<path id="XMLID_836_" class="st9" d="M1015.4-289.9h-8.8c-1.9,0-3.5-1.6-3.5-3.5l0,0c0-1.9,1.6-3.5,3.5-3.5h8.8V-289.9z"/>
		<path id="XMLID_835_" class="st10" d="M1006.6-291.7c-0.4,0-0.9-0.2-1.2-0.5l-1.2-1.2h-4.5c-1,0-1.8-0.8-1.8-1.8
			c0-1,0.8-1.8,1.8-1.8h4.5c0.9,0,1.8,0.4,2.5,1l1.2,1.2c0.7,0.7,0.7,1.8,0,2.5C1007.5-291.8,1007-291.7,1006.6-291.7z"/>
		<path id="XMLID_834_" class="st7" d="M1015.4-289.9h-1.8v-7h1.8c1,0,1.8,0.8,1.8,1.8v3.5C1017.1-290.7,1016.3-289.9,1015.4-289.9z
			"/>
		<circle id="XMLID_833_" class="st11" cx="958.4" cy="-248.7" r="4.4"/>
		<path id="XMLID_832_" class="st10" d="M964.5-277.1L964.5-277.1c0,0.8,0.4,1.5,1,1.9l6,4c2.3,1.5,5,2.4,7.8,2.4h14.7
			c1.1,0,1.9-1,1.7-2.1l-0.2-1c-0.7-3.3-3.5-5.6-6.9-5.6h-9.4c-1.6,0-3.1-0.2-4.7-0.6l-2.4-0.6c-1.5-0.4-3.1-0.6-4.7-0.6h-0.6
			C965.5-279.4,964.5-278.4,964.5-277.1z"/>
		<path id="XMLID_831_" class="st8" d="M974-259.8l5.3,7c0.7,0.9,1.7,1.4,2.8,1.4h8.8l2.5-14h-16.6
			C973.9-265.4,972.3-262.1,974-259.8z"/>
		<path id="XMLID_830_" class="st7" d="M1001.3-300.4h-1.8c-1,0-1.8-0.8-1.8-1.8v-3.5c0-1,0.8-1.8,1.8-1.8h1.8
			c1.9,0,3.5,1.6,3.5,3.5l0,0C1004.8-302,1003.3-300.4,1001.3-300.4z"/>
		<g id="XMLID_829_">
		</g>
		<g id="XMLID_828_">
		</g>
		<g id="XMLID_827_">
		</g>
		<g id="XMLID_826_">
		</g>
		<g id="XMLID_825_">
		</g>
		<g id="XMLID_824_">
		</g>
		<g id="XMLID_823_">
		</g>
		<g id="XMLID_822_">
		</g>
		<g id="XMLID_821_">
		</g>
		<g id="XMLID_820_">
		</g>
		<g id="XMLID_819_">
		</g>
		<g id="XMLID_818_">
		</g>
		<g id="XMLID_817_">
		</g>
		<g id="XMLID_816_">
		</g>
		<g id="XMLID_815_">
		</g>
	</g>
</g>
<g id="XMLID_68_" class="st0">
	<g id="XMLID_852_" class="st1">
		<rect id="XMLID_866_" x="147.2" y="-177.4" class="st2" width="340.5" height="22.4"/>
		<g id="XMLID_53_">
			<path id="XMLID_54_" d="M101.7-168c0.2,0.1,0.3,0.3,0.4,0.5c0,0.2,0,0.4-0.1,0.6c-0.1,0.2-0.3,0.3-0.5,0.3c-0.2,0-0.4,0-0.6-0.1
				c-0.7-0.4-1.5-0.9-2.5-1.4c-0.2-0.1-0.3-0.2-0.3-0.4c0-0.1,0-0.1,0-0.1c0-0.1,0-0.2,0.1-0.4c0.1-0.2,0.3-0.3,0.5-0.3
				c0.1,0,0.2,0,0.3,0c0.1,0,0.2,0,0.4,0.1C100.1-168.9,100.9-168.4,101.7-168z M100.2-157.2c-0.1,0.2-0.3,0.3-0.5,0.4
				c-0.2,0-0.4,0-0.6-0.1c-0.2-0.1-0.3-0.3-0.4-0.6c0-0.1,0-0.1,0-0.2c0-0.2,0-0.3,0.1-0.5c0.9-1.5,1.8-3.2,2.8-5.2
				c0.1-0.2,0.2-0.3,0.4-0.3c0.2,0,0.4,0,0.5,0.1c0.2,0.2,0.3,0.4,0.4,0.6c0,0.1,0,0.1,0,0.2c0,0.2,0,0.3-0.1,0.4
				C102-160.5,101.1-158.8,100.2-157.2z M102.9-173.7c0.2,0.1,0.3,0.3,0.3,0.5c0,0.2,0,0.4-0.2,0.6c-0.1,0.2-0.3,0.3-0.5,0.3
				c-0.2,0-0.4,0-0.6-0.2c-0.7-0.5-1.5-1-2.4-1.5c-0.2-0.1-0.3-0.2-0.3-0.4s0-0.4,0.1-0.5c0.1-0.2,0.3-0.3,0.5-0.3
				c0.1,0,0.1,0,0.2,0c0.1,0,0.3,0,0.4,0.1C101.5-174.7,102.3-174.2,102.9-173.7z M117.4-173.2c0.1,0.1,0.2,0.3,0.2,0.5
				c0,0.2-0.1,0.4-0.2,0.5c-0.1,0.1-0.3,0.2-0.5,0.2h-10c-0.1,0-0.2,0-0.2,0.1c-0.5,0.9-1.1,1.8-1.8,2.5c-0.1,0.2-0.3,0.3-0.6,0.3
				s-0.4,0-0.6-0.2c-0.2-0.1-0.3-0.3-0.3-0.5c0-0.2,0-0.4,0.2-0.6c1.2-1.4,2.2-3,3-5c0.1-0.2,0.2-0.4,0.4-0.5
				c0.1-0.1,0.3-0.1,0.4-0.1c0.1,0,0.1,0,0.2,0c0.2,0.1,0.3,0.2,0.4,0.4s0.1,0.4,0,0.6c-0.2,0.4-0.3,0.8-0.5,1.3c0,0,0,0.1,0,0.1
				s0,0.1,0.1,0.1h9.3C117.1-173.4,117.3-173.3,117.4-173.2z M104.3-165.8c-0.1-0.1-0.2-0.3-0.2-0.5s0.1-0.4,0.2-0.5
				c0.1-0.1,0.3-0.2,0.5-0.2h9.1c0.4,0,0.7,0.1,0.9,0.4s0.4,0.5,0.4,0.9c0,2.7,0.1,4.8,0.3,6.2c0.2,1.4,0.5,2.1,1,2.1
				c0.2,0,0.4-0.8,0.4-2.3c0-0.1,0.1-0.2,0.2-0.3c0.1,0,0.2,0,0.3,0.1c0.3,0.3,0.5,0.6,0.5,1c0,1-0.1,1.7-0.4,2.3
				c-0.2,0.4-0.6,0.6-1.1,0.6c-0.3,0-0.6-0.1-0.9-0.2c-0.3-0.2-0.5-0.4-0.7-0.6c-0.2-0.3-0.3-0.6-0.5-1.1c-0.1-0.4-0.2-0.9-0.3-1.4
				c-0.1-0.5-0.2-1.1-0.2-1.8s-0.1-1.4-0.1-2c0-0.6,0-1.4-0.1-2.3c0-0.1-0.1-0.2-0.2-0.2h-8.6C104.6-165.6,104.4-165.6,104.3-165.8z
				 M115.6-170c0.1,0.1,0.2,0.3,0.2,0.5c0,0.2-0.1,0.4-0.2,0.5c-0.1,0.1-0.3,0.2-0.5,0.2h-8.3c-0.2,0-0.3-0.1-0.5-0.2
				s-0.2-0.3-0.2-0.5c0-0.2,0.1-0.4,0.2-0.5c0.1-0.1,0.3-0.2,0.5-0.2h8.3C115.3-170.2,115.4-170.1,115.6-170z"/>
			<path id="XMLID_61_" d="M138.7-161.1c0.2,0,0.4,0.1,0.5,0.2c0.1,0.1,0.2,0.3,0.2,0.5c0,0.2-0.1,0.4-0.2,0.5
				c-0.1,0.1-0.3,0.2-0.5,0.2h-8.1c-0.1,0-0.2,0.1-0.2,0.2v2.3c0,0.2-0.1,0.4-0.2,0.6s-0.4,0.2-0.6,0.2s-0.4-0.1-0.6-0.2
				c-0.2-0.2-0.2-0.4-0.2-0.6v-2.3c0-0.1-0.1-0.2-0.1-0.2h-8c-0.2,0-0.4-0.1-0.5-0.2c-0.1-0.1-0.2-0.3-0.2-0.5
				c0-0.2,0.1-0.4,0.2-0.5c0.1-0.1,0.3-0.2,0.5-0.2h8c0.1,0,0.1-0.1,0.1-0.2v-1.5c0-0.1-0.1-0.2-0.1-0.2h-5.1
				c-0.3,0-0.6-0.1-0.9-0.4c-0.2-0.2-0.4-0.5-0.4-0.9v-6c0-0.3,0.1-0.6,0.4-0.9c0.2-0.2,0.5-0.4,0.9-0.4h5.1c0.1,0,0.1,0,0.1-0.1
				v-1.3c0-0.1-0.1-0.1-0.1-0.1h-7.3c-0.2,0-0.4-0.1-0.5-0.2c-0.1-0.1-0.2-0.3-0.2-0.5c0-0.2,0.1-0.4,0.2-0.5
				c0.1-0.1,0.3-0.2,0.5-0.2h7.3c0.1,0,0.1,0,0.1-0.1v-1c0-0.2,0.1-0.4,0.2-0.6c0.2-0.2,0.4-0.2,0.6-0.2s0.4,0.1,0.6,0.2
				c0.2,0.2,0.2,0.4,0.2,0.6v1c0,0.1,0.1,0.1,0.2,0.1h7.4c0.2,0,0.4,0.1,0.5,0.2c0.1,0.1,0.2,0.3,0.2,0.5c0,0.2-0.1,0.4-0.2,0.5
				c-0.1,0.1-0.3,0.2-0.5,0.2h-7.4c-0.1,0-0.2,0-0.2,0.1v1.3c0,0.1,0.1,0.1,0.2,0.1h5.3c0.3,0,0.6,0.1,0.9,0.4s0.4,0.5,0.4,0.9v6
				c0,0.3-0.1,0.6-0.4,0.9s-0.5,0.4-0.9,0.4h-5.3c-0.1,0-0.2,0.1-0.2,0.2v1.5c0,0.1,0.1,0.2,0.2,0.2H138.7z M123.8-170
				c-0.1,0-0.1,0.1-0.1,0.1v1.9c0,0.1,0,0.1,0.1,0.1h4.7c0.1,0,0.1,0,0.1-0.1v-1.9c0-0.1-0.1-0.1-0.1-0.1H123.8z M123.7-164.4
				c0,0.1,0,0.1,0.1,0.1h4.7c0.1,0,0.1,0,0.1-0.1v-1.9c0-0.1-0.1-0.2-0.1-0.2h-4.7c-0.1,0-0.1,0.1-0.1,0.2V-164.4z M135.4-169.9
				c0-0.1-0.1-0.1-0.1-0.1h-4.8c-0.1,0-0.2,0.1-0.2,0.1v1.9c0,0.1,0.1,0.1,0.2,0.1h4.8c0.1,0,0.1,0,0.1-0.1V-169.9z M135.3-164.2
				c0.1,0,0.1,0,0.1-0.1v-1.9c0-0.1-0.1-0.2-0.1-0.2h-4.8c-0.1,0-0.2,0.1-0.2,0.2v1.9c0,0.1,0.1,0.1,0.2,0.1H135.3z"/>
		</g>
		<g id="XMLID_34_">
			<path id="XMLID_35_" d="M634.1-155c-0.3-0.2-0.5-0.5-0.5-0.9s0.1-0.7,0.4-1c0.2-0.3,0.5-0.4,0.9-0.4c0.4,0,0.7,0.1,1,0.3
				c1.1,0.7,2.2,1.1,3.4,1.1c1.9,0,3.4-0.8,4.6-2.5c1.2-1.7,1.9-4.4,2-8.2c0,0,0-0.1-0.1-0.1c0,0-0.1,0-0.1,0
				c-0.8,0.9-1.7,1.7-2.8,2.2c-1,0.6-2.1,0.8-3.1,0.8c-2.2,0-4-0.7-5.3-2.1c-1.3-1.4-2-3.5-2-6.2c0-2.5,0.7-4.6,2.2-6.2
				c1.5-1.6,3.3-2.4,5.4-2.4c2.6,0,4.8,1.1,6.4,3.2c1.6,2.2,2.4,5.3,2.4,9.3c0,2.6-0.3,4.8-0.8,6.8c-0.5,2-1.2,3.5-2.1,4.6
				c-0.9,1.1-1.9,2-3,2.5s-2.3,0.8-3.6,0.8C637.4-153.2,635.6-153.8,634.1-155z M640.4-166.1c2,0,3.8-1.1,5.4-3.3
				c0.1-0.1,0.1-0.3,0.1-0.5c-0.2-2.6-0.8-4.6-1.8-6s-2.3-2.1-4-2.1c-1.3,0-2.4,0.6-3.2,1.7c-0.8,1.1-1.3,2.5-1.3,4.3
				c0,1.8,0.4,3.3,1.2,4.3C637.7-166.6,638.9-166.1,640.4-166.1z"/>
			<path id="XMLID_38_" d="M661.6-155.4c0,0.5-0.2,0.9-0.5,1.2c-0.3,0.3-0.8,0.5-1.2,0.5c-0.5,0-0.9-0.2-1.2-0.5
				c-0.3-0.3-0.5-0.7-0.5-1.1c0-3.7,0.7-7.7,2-11.9c1.1-3.3,2.8-6.6,5.1-9.9c0,0,0.1-0.1,0-0.1c0,0-0.1-0.1-0.1-0.1h-11.1
				c-0.4,0-0.7-0.1-1-0.4c-0.3-0.3-0.4-0.6-0.4-1s0.1-0.7,0.4-1s0.6-0.4,1-0.4h14.1c0.3,0,0.5,0.1,0.7,0.3c0.2,0.2,0.3,0.4,0.3,0.7
				c0,0.6-0.2,1.2-0.6,1.8c-2.5,3.4-4.3,6.7-5.3,9.9S661.8-160.2,661.6-155.4z"/>
			<path id="XMLID_40_" d="M681.6-155.4c0,0.5-0.2,0.9-0.5,1.2c-0.3,0.3-0.8,0.5-1.2,0.5c-0.5,0-0.9-0.2-1.2-0.5
				c-0.3-0.3-0.5-0.7-0.5-1.1c0-3.7,0.7-7.7,2-11.9c1.1-3.3,2.8-6.6,5.1-9.9c0,0,0.1-0.1,0-0.1c0,0-0.1-0.1-0.1-0.1h-11.1
				c-0.4,0-0.7-0.1-1-0.4c-0.3-0.3-0.4-0.6-0.4-1s0.1-0.7,0.4-1s0.6-0.4,1-0.4h14.1c0.3,0,0.5,0.1,0.7,0.3c0.2,0.2,0.3,0.4,0.3,0.7
				c0,0.6-0.2,1.2-0.6,1.8c-2.5,3.4-4.3,6.7-5.3,9.9S681.8-160.2,681.6-155.4z"/>
			<path id="XMLID_42_" d="M694-155c-0.3-0.2-0.5-0.5-0.5-0.9s0.1-0.7,0.4-1c0.2-0.3,0.5-0.4,0.9-0.4c0.4,0,0.7,0.1,1,0.3
				c1.1,0.7,2.2,1.1,3.4,1.1c1.9,0,3.4-0.8,4.6-2.5c1.2-1.7,1.9-4.4,2-8.2c0,0,0-0.1-0.1-0.1c0,0-0.1,0-0.1,0
				c-0.8,0.9-1.7,1.7-2.8,2.2c-1,0.6-2.1,0.8-3.1,0.8c-2.2,0-4-0.7-5.3-2.1c-1.3-1.4-2-3.5-2-6.2c0-2.5,0.7-4.6,2.2-6.2
				c1.5-1.6,3.3-2.4,5.4-2.4c2.6,0,4.8,1.1,6.4,3.2c1.6,2.2,2.4,5.3,2.4,9.3c0,2.6-0.3,4.8-0.8,6.8c-0.5,2-1.2,3.5-2.1,4.6
				c-0.9,1.1-1.9,2-3,2.5s-2.3,0.8-3.6,0.8C697.3-153.2,695.5-153.8,694-155z M700.3-166.1c2,0,3.8-1.1,5.4-3.3
				c0.1-0.1,0.1-0.3,0.1-0.5c-0.2-2.6-0.8-4.6-1.8-6s-2.3-2.1-4-2.1c-1.3,0-2.4,0.6-3.2,1.7c-0.8,1.1-1.3,2.5-1.3,4.3
				c0,1.8,0.4,3.3,1.2,4.3C697.6-166.6,698.8-166.1,700.3-166.1z"/>
			<path id="XMLID_45_" d="M725.4-159.4c-0.1,0-0.2,0.1-0.2,0.2v1.5c0,0.1,0.1,0.2,0.2,0.2h2.6c0.2,0,0.4,0.1,0.6,0.2
				s0.2,0.3,0.2,0.5s-0.1,0.4-0.2,0.6s-0.3,0.2-0.6,0.2h-2.6c-0.1,0-0.2,0.1-0.2,0.2v3.3c0,0.2-0.1,0.4-0.2,0.6s-0.3,0.2-0.5,0.2
				s-0.4-0.1-0.5-0.2s-0.2-0.3-0.2-0.6v-3.3c0-0.1-0.1-0.2-0.2-0.2h-2.8c-0.2,0-0.4-0.1-0.6-0.2s-0.2-0.3-0.2-0.6s0.1-0.4,0.2-0.5
				s0.3-0.2,0.6-0.2h2.8c0.1,0,0.2-0.1,0.2-0.2v-1.5c0-0.1-0.1-0.2-0.2-0.2h-1.5c-0.4,0-0.7-0.1-1-0.4s-0.4-0.6-0.4-1v-5.7
				c0-0.4,0.1-0.7,0.4-1s0.6-0.4,1-0.4h1.5c0.1,0,0.2-0.1,0.2-0.2v-1.4c0-0.1-0.1-0.2-0.2-0.2h-2.6c-0.2,0-0.4-0.1-0.6-0.2
				s-0.2-0.3-0.2-0.5s0.1-0.4,0.2-0.5s0.3-0.2,0.6-0.2h2.6c0.1,0,0.2-0.1,0.2-0.2v-1.6c0-0.2,0.1-0.4,0.2-0.6s0.3-0.2,0.5-0.2
				s0.4,0.1,0.5,0.2s0.2,0.3,0.2,0.6v1.6c0,0.1,0.1,0.2,0.2,0.2h2.4c0.2,0,0.4,0.1,0.6,0.2s0.2,0.3,0.2,0.5s-0.1,0.4-0.2,0.5
				s-0.3,0.2-0.6,0.2h-2.4c-0.1,0-0.2,0.1-0.2,0.2v1.4c0,0.1,0.1,0.2,0.2,0.2h1.5c0.4,0,0.7,0.1,1,0.4s0.4,0.6,0.4,1v5.7
				c0,0.4-0.1,0.7-0.4,1s-0.6,0.4-1,0.4H725.4z M722.1-166.6c-0.1,0-0.2,0.1-0.2,0.2v1.9c0,0.1,0.1,0.2,0.2,0.2h1.6
				c0.1,0,0.2-0.1,0.2-0.2v-1.9c0-0.1-0.1-0.2-0.2-0.2H722.1z M722.1-163c-0.1,0-0.2,0.1-0.2,0.2v1.9c0,0.1,0.1,0.2,0.2,0.2h1.6
				c0.1,0,0.2-0.1,0.2-0.2v-1.9c0-0.1-0.1-0.2-0.2-0.2H722.1z M726.9-164.3c0.1,0,0.2-0.1,0.2-0.2v-1.9c0-0.1-0.1-0.2-0.2-0.2h-1.6
				c-0.1,0-0.2,0.1-0.2,0.2v1.9c0,0.1,0.1,0.2,0.2,0.2H726.9z M726.9-160.8c0.1,0,0.2-0.1,0.2-0.2v-1.9c0-0.1-0.1-0.2-0.2-0.2h-1.6
				c-0.1,0-0.2,0.1-0.2,0.2v1.9c0,0.1,0.1,0.2,0.2,0.2H726.9z M741.5-171.6c0.2,0.1,0.2,0.3,0.2,0.6s-0.1,0.4-0.2,0.6
				s-0.3,0.2-0.5,0.2h-4.7c-0.1,0-0.2,0.1-0.2,0.2v2c0,0.1,0.1,0.2,0.2,0.2h3.8c0.4,0,0.7,0.1,1,0.4s0.4,0.6,0.4,1v12.8
				c0,0.4-0.1,0.8-0.2,1s-0.3,0.4-0.6,0.6c-0.4,0.2-1.2,0.3-2.2,0.3c-0.2,0-0.4-0.1-0.6-0.2s-0.3-0.3-0.4-0.6c0-0.2,0-0.3,0.1-0.5
				s0.2-0.2,0.4-0.2c0.4,0,0.7,0,0.9,0c0.3,0,0.5,0,0.7,0c0.1,0,0.2,0,0.3-0.1s0.1-0.2,0.1-0.3v-2.9c0,0,0,0,0,0s0,0,0,0
				c-0.1,0.1-0.3,0.2-0.4,0.1s-0.3-0.1-0.4-0.2c-0.5-0.8-0.8-1.7-1-2.8c0,0,0,0,0,0s0,0,0,0c-0.2,1.1-0.6,1.9-1,2.6
				c-0.1,0.2-0.3,0.3-0.5,0.3s-0.4-0.1-0.6-0.2c0,0,0,0-0.1,0s0,0,0,0.1v4.2c0,0.2-0.1,0.3-0.2,0.4s-0.3,0.2-0.4,0.2
				s-0.3-0.1-0.4-0.2s-0.2-0.3-0.2-0.4v-4.2c0-0.1,0-0.1-0.1,0c-0.2,0.1-0.4,0.2-0.6,0.2s-0.4-0.2-0.4-0.3c-0.3-0.6-0.5-1.4-0.7-2.2
				c0,0,0,0,0,0s0,0,0,0c-0.2,1.1-0.6,2-1,2.7c-0.1,0.1-0.2,0.2-0.3,0.2s-0.2-0.1-0.3-0.2c-0.1-0.2-0.2-0.3-0.2-0.5
				c0-0.1,0-0.3,0.1-0.4c0.7-1.1,1.1-2.9,1.4-5.5c0-0.1,0-0.1-0.1-0.1H732c-0.2,0-0.3-0.1-0.4-0.2s-0.2-0.3-0.2-0.4s0.1-0.3,0.2-0.4
				s0.2-0.2,0.4-0.2h0.5c0.3,0,0.5,0.1,0.7,0.3s0.3,0.5,0.3,0.8c0,2.6,0.4,4.6,1.1,5.9c0,0,0,0,0.1,0s0,0,0,0v-8.8
				c0-0.1-0.1-0.2-0.2-0.2h-3.7c-0.1,0-0.2,0.1-0.2,0.2v13.7c0,0.2-0.1,0.3-0.2,0.5s-0.3,0.2-0.5,0.2s-0.4-0.1-0.5-0.2
				s-0.2-0.3-0.2-0.5v-14c0-0.4,0.1-0.7,0.4-1s0.6-0.4,1-0.4h3.6c0.1,0,0.2-0.1,0.2-0.2v-2c0-0.1-0.1-0.2-0.2-0.2h-4.5
				c-0.2,0-0.4-0.1-0.5-0.2s-0.2-0.3-0.2-0.6s0.1-0.4,0.2-0.6s0.3-0.2,0.5-0.2H741C741.2-171.9,741.3-171.8,741.5-171.6z
				 M739.9-157.5C739.9-157.5,739.9-157.5,739.9-157.5C740-157.5,740-157.5,739.9-157.5l0.1-8.7c0-0.1-0.1-0.2-0.2-0.2h-3.8
				c-0.1,0-0.2,0.1-0.2,0.2v8.9c0,0,0,0.1,0,0.1s0.1,0,0.1,0c0.8-1,1.3-2.9,1.6-5.8c0-0.1,0-0.1-0.1-0.1h-0.4
				c-0.2,0-0.3-0.1-0.4-0.2s-0.2-0.3-0.2-0.4s0.1-0.3,0.2-0.4s0.2-0.2,0.4-0.2h0.5c0.3,0,0.6,0.1,0.8,0.3s0.3,0.5,0.3,0.8
				c0,1.2,0.1,2.2,0.3,3.2S739.4-158.3,739.9-157.5z"/>
		</g>
		<g id="XMLID_485_">
			<line id="XMLID_491_" class="st3" x1="158" y1="-166.1" x2="206" y2="-166.1"/>
			<line id="XMLID_489_" class="st3" x1="231" y1="-166.1" x2="278" y2="-166.1"/>
			<line id="XMLID_488_" class="st3" x1="304" y1="-166.1" x2="352" y2="-166.1"/>
			<line id="XMLID_487_" class="st3" x1="377" y1="-166.1" x2="425" y2="-166.1"/>
			<line id="XMLID_486_" class="st3" x1="452" y1="-166.1" x2="485" y2="-166.1"/>
		</g>
	</g>
	<g id="XMLID_772_" class="st1">
		<path id="XMLID_813_" class="st12" d="M486.4-177.3l1.5-6.1c0.4-1.5,1.1-2.8,2.2-3.9l9.5-11.9c1.6-2,4-3.1,6.5-3.1H553
			c1.9,0,3.7,0.9,4.9,2.3l11.5,14.3L486.4-177.3z"/>
		<path id="XMLID_812_" class="st13" d="M553-202.2h-46.9c-2.5,0-4.9,1.1-6.5,3.1l-9.5,11.9c-1.1,1.1-1.8,2.4-2.2,3.9l-1.5,6.1
			l31.1,16.6h87.2v-15.9c0-3-2.2-5.7-5.2-6.1c-10.5-1.7-30.2-2.8-30.2-2.8l-11.5-14.3C556.6-201.3,554.9-202.2,553-202.2z"/>
		<g id="XMLID_809_">
			<path id="XMLID_811_" class="st14" d="M553-202.2h-46.8c-2.5,0-4.9,1.2-6.5,3.1l-9.1,11.4l66.3,2.1h12.5l-11.5-14.3
				C556.6-201.3,554.9-202.2,553-202.2z"/>
			<path id="XMLID_810_" class="st14" d="M604.7-174.4c0-1.8-1.2-3.5-3-4c-4.1-1.2-13.4-3-32.3-3h-80.9c-1.1,0-2.1,0.9-2.1,2.1
				l0,12.5l39.4,4.2h78.9V-174.4z"/>
		</g>
		<path id="XMLID_808_" class="st15" d="M604.7-164.8h-97.3l-18.5-4.1c-1.1-0.2-2.2,0.5-2.5,1.6c-0.2,1.1,0.5,2.2,1.6,2.5l18.7,4.2
			c0.1,0,0.3,0,0.4,0h97.5c1.1,0,2.1-0.9,2.1-2.1C606.8-163.9,605.9-164.8,604.7-164.8z"/>
		<circle id="XMLID_807_" class="st11" cx="506.1" cy="-161.7" r="9.5"/>
		<path id="XMLID_804_" class="st6" d="M506.1-150.3c-6.3,0-11.4-5.1-11.4-11.4s5.1-11.4,11.4-11.4s11.4,5.1,11.4,11.4
			C517.6-155.4,512.4-150.3,506.1-150.3z M506.1-169c-4,0-7.3,3.3-7.3,7.3s3.3,7.3,7.3,7.3c4,0,7.3-3.3,7.3-7.3S510.2-169,506.1-169
			z"/>
		<circle id="XMLID_803_" class="st7" cx="506.1" cy="-161.7" r="4.2"/>
		<g id="XMLID_800_">
			<path id="XMLID_802_" class="st15" d="M567.4-169h-45.7c-1.1,0-2.1-0.9-2.1-2.1l0,0c0-1.1,0.9-2.1,2.1-2.1h45.7
				c1.1,0,2.1,0.9,2.1,2.1l0,0C569.4-169.9,568.5-169,567.4-169z"/>
			<path id="XMLID_801_" class="st15" d="M604.7-169h-4.2c-1.1,0-2.1-0.9-2.1-2.1l0,0c0-1.1,0.9-2.1,2.1-2.1h4.2
				c1.1,0,2.1,0.9,2.1,2.1l0,0C606.8-169.9,605.9-169,604.7-169z"/>
		</g>
		<path id="XMLID_799_" class="st16" d="M487.9-183.3l-0.5,1.9h5.2c1.1,0,2.1-0.9,2.1-2.1s-0.9-2.1-2.1-2.1h-3.8
			C488.5-184.9,488.1-184.1,487.9-183.3z"/>
		<circle id="XMLID_798_" class="st11" cx="582.9" cy="-161.7" r="9.5"/>
		<path id="XMLID_795_" class="st6" d="M582.9-150.3c-6.3,0-11.4-5.1-11.4-11.4s5.1-11.4,11.4-11.4c6.3,0,11.4,5.1,11.4,11.4
			C594.4-155.4,589.2-150.3,582.9-150.3z M582.9-169c-4,0-7.3,3.3-7.3,7.3s3.3,7.3,7.3,7.3c4,0,7.3-3.3,7.3-7.3S586.9-169,582.9-169
			z"/>
		<circle id="XMLID_794_" class="st7" cx="582.9" cy="-161.7" r="4.2"/>
		<path id="XMLID_793_" class="st10" d="M557.6-187.2l-8.7-11.3c-0.8-1-2-1.6-3.3-1.6h-30c-1.8,0-3.4,1.2-4,2.9l-2.2,7.2
			c-0.7,1.4,0.3,3,1.8,3l45.7,1.4h0C557.7-185.6,558.1-186.5,557.6-187.2z"/>
		<path id="XMLID_792_" class="st11" d="M604.7-176.6c0-1-0.3-1.9-0.7-2.7h-3.5c-1.1,0-2.1,0.9-2.1,2.1s0.9,2.1,2.1,2.1h4.2V-176.6
			L604.7-176.6z"/>
		<polygon id="XMLID_791_" class="st6" points="530,-186.4 534.2,-186.3 533.3,-200.1 529.1,-200.1 		"/>
		<g id="XMLID_788_">
			<path id="XMLID_790_" class="st10" d="M557.7-200.1C557.6-200.1,557.6-200.1,557.7-200.1l-3.4,0c-1,0-1.6,1.1-0.9,1.9l9,11.6
				c0.5,0.6,1.3,1,2.1,1h4.9L557.7-200.1z"/>
			<path id="XMLID_789_" class="st10" d="M507.4-198.1c0.5-0.9-0.2-2-1.3-2h-5.4c-0.4,0.3-0.7,0.7-1.1,1.1l-9.1,11.4l8.8,0.3
				c1.6,0.1,3.1-0.9,3.9-2.3L507.4-198.1z"/>
		</g>
		<g id="XMLID_787_">
		</g>
		<g id="XMLID_786_">
		</g>
		<g id="XMLID_785_">
		</g>
		<g id="XMLID_784_">
		</g>
		<g id="XMLID_783_">
		</g>
		<g id="XMLID_782_">
		</g>
		<g id="XMLID_781_">
		</g>
		<g id="XMLID_780_">
		</g>
		<g id="XMLID_779_">
		</g>
		<g id="XMLID_778_">
		</g>
		<g id="XMLID_777_">
		</g>
		<g id="XMLID_776_">
		</g>
		<g id="XMLID_775_">
		</g>
		<g id="XMLID_774_">
		</g>
		<g id="XMLID_773_">
		</g>
	</g>
</g>
<g id="XMLID_109_" class="st0">
	<g id="XMLID_860_" class="st1">
		<rect id="XMLID_865_" x="147.2" y="-97.9" class="st2" width="114.8" height="22.4"/>
		<g id="XMLID_89_">
			<path id="XMLID_90_" d="M83.8-92.2c0.2,0,0.3,0.1,0.5,0.2c0.1,0.1,0.2,0.3,0.2,0.5c0,0.2-0.1,0.3-0.2,0.5
				c-0.1,0.1-0.3,0.2-0.5,0.2h-7.3c-0.2,0-0.3-0.1-0.5-0.2c-0.1-0.1-0.2-0.3-0.2-0.5c0-0.2,0.1-0.3,0.2-0.5c0.1-0.1,0.3-0.2,0.5-0.2
				H83.8z M82.3-83.4c0.3,0,0.6,0.1,0.9,0.4s0.4,0.5,0.4,0.9v3.8c0,0.4-0.1,0.7-0.4,0.9c-0.2,0.2-0.5,0.4-0.9,0.4h-3.9
				c-0.1,0-0.1,0-0.1,0.1v0.2c0,0.2-0.1,0.4-0.2,0.5c-0.1,0.1-0.3,0.2-0.5,0.2c-0.2,0-0.4-0.1-0.5-0.2c-0.1-0.1-0.2-0.3-0.2-0.5
				v-5.3c0-0.4,0.1-0.7,0.4-0.9s0.5-0.4,0.9-0.4H82.3z M77.5-87.9c-0.2,0-0.3-0.1-0.4-0.2c-0.1-0.1-0.2-0.3-0.2-0.5
				c0-0.2,0.1-0.3,0.2-0.5c0.1-0.1,0.3-0.2,0.4-0.2H83c0.2,0,0.3,0.1,0.5,0.2c0.1,0.1,0.2,0.3,0.2,0.5c0,0.2-0.1,0.3-0.2,0.5
				c-0.1,0.1-0.3,0.2-0.5,0.2H77.5z M77.5-85c-0.2,0-0.3-0.1-0.5-0.2c-0.1-0.1-0.2-0.3-0.2-0.5c0-0.2,0.1-0.3,0.2-0.5
				c0.1-0.1,0.3-0.2,0.5-0.2H83c0.2,0,0.3,0.1,0.5,0.2c0.1,0.1,0.2,0.3,0.2,0.5c0,0.2-0.1,0.3-0.2,0.5C83.3-85.1,83.1-85,83-85H77.5
				z M83-95c0.2,0,0.3,0.1,0.5,0.2c0.1,0.1,0.2,0.3,0.2,0.5c0,0.2-0.1,0.3-0.2,0.5c-0.1,0.1-0.3,0.2-0.5,0.2h-5.4
				c-0.2,0-0.3-0.1-0.5-0.2c-0.1-0.1-0.2-0.3-0.2-0.5c0-0.2,0.1-0.3,0.2-0.5c0.1-0.1,0.3-0.2,0.5-0.2H83z M82.1-81.9
				c0-0.1-0.1-0.1-0.2-0.1h-3.5c-0.1,0-0.1,0.1-0.1,0.1v3.4c0,0.1,0,0.1,0.1,0.1h3.5c0.1,0,0.2,0,0.2-0.1V-81.9z M95.2-88.4
				c0.2,0,0.4,0.1,0.6,0.2s0.2,0.3,0.2,0.6c0,0.2-0.1,0.4-0.2,0.6s-0.3,0.2-0.6,0.2h-4c-0.1,0-0.1,0.1-0.1,0.1v10
				c0,0.2-0.1,0.4-0.2,0.6s-0.3,0.2-0.6,0.2c-0.2,0-0.4-0.1-0.6-0.2c-0.2-0.2-0.2-0.3-0.2-0.6v-10c0-0.1,0-0.1-0.1-0.1h-4.2
				c-0.2,0-0.4-0.1-0.6-0.2s-0.2-0.3-0.2-0.6c0-0.2,0.1-0.4,0.2-0.6s0.3-0.2,0.6-0.2h4.2c0.1,0,0.1,0,0.1-0.1v-6.4
				c0-0.2,0.1-0.4,0.2-0.6c0.2-0.2,0.3-0.2,0.6-0.2c0.2,0,0.4,0.1,0.6,0.2s0.2,0.3,0.2,0.6v6.4c0,0.1,0,0.1,0.1,0.1H95.2z"/>
			<path id="XMLID_98_" d="M105.5-84.4c0.2,0.2,0.3,0.4,0.3,0.6c0,0.2-0.1,0.4-0.2,0.6c-0.1,0.2-0.3,0.2-0.5,0.2s-0.4-0.1-0.5-0.2
				c-0.4-0.6-0.9-1.3-1.4-1.9c0,0-0.1,0-0.1,0c0,0,0,0,0,0.1v8.4c0,0.2-0.1,0.4-0.2,0.6c-0.2,0.2-0.3,0.2-0.6,0.2s-0.4-0.1-0.6-0.2
				c-0.2-0.2-0.2-0.3-0.2-0.6v-8.7c0,0,0,0,0,0s0,0,0,0c-0.8,2-1.7,3.6-2.6,4.9c-0.1,0.2-0.3,0.2-0.5,0.2c-0.2,0-0.3-0.1-0.4-0.3
				c-0.1-0.2-0.2-0.4-0.2-0.6c0-0.3,0.1-0.5,0.3-0.7c0.6-0.8,1.2-1.7,1.7-2.8c0.6-1.1,1-2.2,1.4-3.3c0,0,0-0.1,0-0.1
				c0,0-0.1-0.1-0.1-0.1h-2.4c-0.2,0-0.4-0.1-0.5-0.2s-0.2-0.3-0.2-0.5c0-0.2,0.1-0.4,0.2-0.5c0.1-0.1,0.3-0.2,0.5-0.2h2.6
				c0.1,0,0.1-0.1,0.1-0.2v-3c0-0.1,0-0.1-0.1-0.1c-0.7,0.1-1.4,0.3-2.4,0.4c-0.2,0-0.4,0-0.5-0.1c-0.2-0.1-0.3-0.3-0.4-0.4
				c-0.1-0.2-0.1-0.3,0-0.5c0.1-0.1,0.2-0.2,0.4-0.3c2.3-0.4,4.1-0.8,5.4-1.3c0.2-0.1,0.4-0.1,0.5-0.1c0.3,0,0.6,0.1,0.8,0.4
				c0.1,0.1,0.2,0.3,0.1,0.5c0,0.2-0.2,0.3-0.4,0.4c-0.6,0.2-1.2,0.4-1.8,0.5c-0.1,0-0.1,0.1-0.1,0.2v3.4c0,0.1,0,0.2,0.1,0.2h1.8
				c0.2,0,0.4,0.1,0.5,0.2c0.1,0.1,0.2,0.3,0.2,0.5c0,0.2-0.1,0.4-0.2,0.5c-0.1,0.1-0.3,0.2-0.5,0.2h-1.8c-0.1,0-0.1,0.1-0.1,0.2v1
				c0,0.1,0,0.2,0.1,0.3C103.7-86.2,104.5-85.5,105.5-84.4z M112.4-78c0,0.1,0.1,0.2,0.2,0.2h4.4c0.2,0,0.4,0.1,0.5,0.2
				c0.1,0.1,0.2,0.3,0.2,0.5c0,0.2-0.1,0.4-0.2,0.5c-0.1,0.1-0.3,0.2-0.5,0.2h-11.2c-0.2,0-0.4-0.1-0.5-0.2
				c-0.1-0.1-0.2-0.3-0.2-0.5c0-0.2,0.1-0.4,0.2-0.5c0.1-0.1,0.3-0.2,0.5-0.2h4.8c0.1,0,0.1-0.1,0.1-0.2v-2.5c0-0.1,0-0.2-0.1-0.2
				h-3.4c-0.2,0-0.4-0.1-0.5-0.2s-0.2-0.3-0.2-0.5c0-0.2,0.1-0.4,0.2-0.5c0.1-0.1,0.3-0.2,0.5-0.2h3.4c0.1,0,0.1-0.1,0.1-0.2v-2.3
				c0-0.1,0-0.2-0.1-0.2h-3.9c-0.2,0-0.4-0.1-0.5-0.2c-0.1-0.1-0.2-0.3-0.2-0.5s0.1-0.4,0.2-0.5c0.1-0.1,0.3-0.2,0.5-0.2h9.8
				c0.2,0,0.4,0.1,0.5,0.2c0.1,0.1,0.2,0.3,0.2,0.5s-0.1,0.4-0.2,0.5c-0.1,0.1-0.3,0.2-0.5,0.2h-4c-0.1,0-0.2,0.1-0.2,0.2v2.3
				c0,0.1,0.1,0.2,0.2,0.2h3.5c0.2,0,0.3,0.1,0.5,0.2c0.1,0.1,0.2,0.3,0.2,0.5c0,0.2-0.1,0.4-0.2,0.5c-0.1,0.1-0.3,0.2-0.5,0.2h-3.5
				c-0.1,0-0.2,0.1-0.2,0.2V-78z M115.3-94.9c0.3,0,0.6,0.1,0.9,0.4c0.2,0.2,0.4,0.5,0.4,0.9v4.3c0,0.4-0.1,0.7-0.4,0.9
				c-0.2,0.2-0.5,0.4-0.9,0.4h-7.1c-0.3,0-0.6-0.1-0.9-0.4c-0.2-0.2-0.4-0.5-0.4-0.9v-4.3c0-0.4,0.1-0.7,0.4-0.9
				c0.2-0.2,0.5-0.4,0.9-0.4H115.3z M114.8-89.5c0.1,0,0.2-0.1,0.2-0.2v-3.7c0-0.1-0.1-0.2-0.2-0.2h-6.2c-0.1,0-0.1,0.1-0.1,0.2v3.7
				c0,0.1,0,0.2,0.1,0.2H114.8z"/>
			<path id="XMLID_103_" d="M138.7-81c0.2,0,0.4,0.1,0.5,0.2c0.1,0.1,0.2,0.3,0.2,0.5c0,0.2-0.1,0.4-0.2,0.5
				c-0.1,0.1-0.3,0.2-0.5,0.2h-8.1c-0.1,0-0.2,0.1-0.2,0.2v2.3c0,0.2-0.1,0.4-0.2,0.6s-0.4,0.2-0.6,0.2s-0.4-0.1-0.6-0.2
				c-0.2-0.2-0.2-0.4-0.2-0.6v-2.3c0-0.1-0.1-0.2-0.1-0.2h-8c-0.2,0-0.4-0.1-0.5-0.2c-0.1-0.1-0.2-0.3-0.2-0.5
				c0-0.2,0.1-0.4,0.2-0.5c0.1-0.1,0.3-0.2,0.5-0.2h8c0.1,0,0.1-0.1,0.1-0.2v-1.5c0-0.1-0.1-0.2-0.1-0.2h-5.1
				c-0.3,0-0.6-0.1-0.9-0.4c-0.2-0.2-0.4-0.5-0.4-0.9v-6c0-0.3,0.1-0.6,0.4-0.9c0.2-0.2,0.5-0.4,0.9-0.4h5.1c0.1,0,0.1,0,0.1-0.1
				v-1.3c0-0.1-0.1-0.1-0.1-0.1h-7.3c-0.2,0-0.4-0.1-0.5-0.2c-0.1-0.1-0.2-0.3-0.2-0.5c0-0.2,0.1-0.4,0.2-0.5
				c0.1-0.1,0.3-0.2,0.5-0.2h7.3c0.1,0,0.1,0,0.1-0.1v-1c0-0.2,0.1-0.4,0.2-0.6c0.2-0.2,0.4-0.2,0.6-0.2s0.4,0.1,0.6,0.2
				c0.2,0.2,0.2,0.4,0.2,0.6v1c0,0.1,0.1,0.1,0.2,0.1h7.4c0.2,0,0.4,0.1,0.5,0.2c0.1,0.1,0.2,0.3,0.2,0.5c0,0.2-0.1,0.4-0.2,0.5
				c-0.1,0.1-0.3,0.2-0.5,0.2h-7.4c-0.1,0-0.2,0-0.2,0.1v1.3c0,0.1,0.1,0.1,0.2,0.1h5.3c0.3,0,0.6,0.1,0.9,0.4s0.4,0.5,0.4,0.9v6
				c0,0.3-0.1,0.6-0.4,0.9s-0.5,0.4-0.9,0.4h-5.3c-0.1,0-0.2,0.1-0.2,0.2v1.5c0,0.1,0.1,0.2,0.2,0.2H138.7z M123.9-89.9
				c-0.1,0-0.1,0.1-0.1,0.1v1.9c0,0.1,0,0.1,0.1,0.1h4.7c0.1,0,0.1,0,0.1-0.1v-1.9c0-0.1-0.1-0.1-0.1-0.1H123.9z M123.7-84.2
				c0,0.1,0,0.1,0.1,0.1h4.7c0.1,0,0.1,0,0.1-0.1v-1.9c0-0.1-0.1-0.2-0.1-0.2h-4.7c-0.1,0-0.1,0.1-0.1,0.2V-84.2z M135.5-89.7
				c0-0.1-0.1-0.1-0.1-0.1h-4.8c-0.1,0-0.2,0.1-0.2,0.1v1.9c0,0.1,0.1,0.1,0.2,0.1h4.8c0.1,0,0.1,0,0.1-0.1V-89.7z M135.3-84.1
				c0.1,0,0.1,0,0.1-0.1v-1.9c0-0.1-0.1-0.2-0.1-0.2h-4.8c-0.1,0-0.2,0.1-0.2,0.2v1.9c0,0.1,0.1,0.1,0.2,0.1H135.3z"/>
		</g>
		<g id="XMLID_69_">
			<path id="XMLID_70_" d="M408.5-75.2c-3,0-5.4-0.9-7.5-2.6c-0.3-0.3-0.5-0.6-0.5-1.1c0-0.4,0.1-0.7,0.3-0.9s0.5-0.4,0.9-0.5
				c0.4,0,0.7,0.1,1,0.3c1.6,1.4,3.5,2.1,5.6,2.1c1.6,0,2.9-0.4,3.9-1.3s1.5-2.1,1.5-3.6c0-3.3-2.3-5-7-5.2c-0.4,0-0.7-0.2-0.9-0.4
				s-0.4-0.5-0.4-0.9s0.1-0.7,0.4-0.9s0.5-0.4,0.9-0.4c2.1-0.2,3.6-0.7,4.6-1.6s1.4-2,1.4-3.4c0-1.3-0.4-2.3-1.2-3.1
				c-0.8-0.8-1.9-1.2-3.3-1.2c-1.5,0-3,0.6-4.4,1.7c-0.3,0.2-0.6,0.3-1,0.3c-0.4,0-0.7-0.2-0.9-0.5s-0.3-0.6-0.3-1s0.2-0.7,0.5-0.9
				c1.9-1.5,4.1-2.3,6.3-2.3s4.1,0.6,5.5,1.8c1.4,1.2,2.1,2.8,2.1,4.9c0,1.5-0.4,2.9-1.2,3.9c-0.8,1.1-2,1.9-3.4,2.4
				c0,0-0.1,0.1-0.1,0.1c0,0,0,0.1,0.1,0.1c1.6,0.4,3,1.2,4,2.4c1,1.2,1.5,2.6,1.5,4.3c0,2.3-0.8,4.1-2.4,5.5
				C412.9-75.9,410.9-75.2,408.5-75.2z"/>
			<path id="XMLID_72_" d="M435.9-100.8c0.3,0.3,0.4,0.6,0.4,1s-0.1,0.7-0.4,1c-0.2,0.3-0.5,0.4-0.9,0.4c-0.4,0-0.7-0.1-1-0.3
				c-1-0.7-2.1-1.1-3.3-1.1c-2,0-3.6,0.8-4.8,2.5c-1.2,1.7-1.9,4.4-2,8.2c0,0,0,0.1,0,0.1c0,0,0.1,0,0.1,0c0.8-0.9,1.7-1.7,2.8-2.2
				c1-0.5,2.1-0.8,3.1-0.8c2.3,0,4.1,0.7,5.4,2.1s1.9,3.5,1.9,6.2c0,2.5-0.7,4.5-2.2,6.1c-1.5,1.6-3.3,2.4-5.4,2.4
				c-2.6,0-4.8-1.1-6.4-3.4c-1.6-2.2-2.4-5.5-2.4-9.7c0-2.5,0.3-4.7,0.8-6.6c0.5-1.9,1.3-3.4,2.2-4.5s2-1.9,3.1-2.4
				c1.1-0.5,2.4-0.8,3.7-0.8C432.7-102.6,434.4-102,435.9-100.8z M429.8-77.8c1.3,0,2.4-0.6,3.2-1.7s1.3-2.6,1.3-4.3
				c0-1.8-0.4-3.3-1.2-4.3c-0.8-1-2-1.5-3.6-1.5c-1.9,0-3.7,1.1-5.2,3.2c-0.1,0.1-0.2,0.3-0.1,0.5c0.2,2.7,0.8,4.7,1.8,6.1
				S428.2-77.8,429.8-77.8z"/>
			<path id="XMLID_75_" d="M441.5-75.7c-0.3,0-0.5-0.1-0.7-0.3c-0.2-0.2-0.3-0.4-0.3-0.7c0-0.6,0.2-1.2,0.7-1.6
				c3.9-3.5,6.8-6.5,8.6-9.1c1.8-2.6,2.7-5,2.7-7.2c0-1.6-0.4-2.8-1.2-3.8s-2-1.4-3.6-1.4s-3.1,0.7-4.6,2.1
				c-0.3,0.3-0.6,0.4-0.9,0.4c-0.4,0-0.7-0.1-0.9-0.4c-0.3-0.3-0.4-0.6-0.4-0.9c0-0.4,0.1-0.7,0.4-0.9c2.1-2,4.3-3,6.8-3
				c2.3,0,4.2,0.7,5.6,2.1c1.4,1.4,2.1,3.3,2.1,5.7c0,2.5-0.9,5-2.6,7.6s-4.2,5.5-7.5,8.7c0,0-0.1,0.1,0,0.1c0,0,0.1,0.1,0.1,0.1
				c1.9-0.2,3.3-0.2,4-0.2h5.9c0.4,0,0.7,0.1,1,0.4s0.4,0.6,0.4,1s-0.1,0.7-0.4,1s-0.6,0.4-1,0.4H441.5z"/>
			<path id="XMLID_77_" d="M469-75.2c-2.4,0-4.5-0.7-6-2c-1.6-1.3-2.4-3-2.4-5c0-1.6,0.5-3,1.4-4.3s2.1-2.2,3.4-3
				c0,0,0.1-0.1,0.1-0.1c0-0.1,0-0.1-0.1-0.2c-2.3-1.6-3.5-3.6-3.5-6c0-2,0.7-3.6,2-4.9c1.4-1.2,3.1-1.9,5.2-1.9
				c2.2,0,4,0.6,5.3,1.9c1.3,1.3,2,3,2,5c0,1.2-0.3,2.4-1,3.5c-0.7,1.1-1.5,2-2.4,2.8c0,0-0.1,0.1-0.1,0.2c0,0.1,0,0.1,0.1,0.1
				c2.9,1.7,4.4,4,4.4,6.9c0,1.9-0.8,3.6-2.3,4.9S471.4-75.2,469-75.2z M469-77.7c1.5,0,2.7-0.4,3.7-1.2c0.9-0.8,1.4-1.9,1.4-3.2
				c0-0.7-0.1-1.3-0.4-1.9s-0.6-1-0.9-1.4c-0.4-0.4-0.9-0.8-1.5-1.2c-0.7-0.4-1.3-0.7-1.8-0.9c-0.5-0.2-1.2-0.5-2.1-0.9
				c0,0-0.1,0-0.2,0c-0.1,0-0.2,0-0.3,0.1c-1,0.7-1.9,1.6-2.5,2.5c-0.6,1-0.9,2.1-0.9,3.3c0,1.4,0.5,2.6,1.6,3.5
				C466.1-78.1,467.4-77.7,469-77.7z M470.5-90.1c0.2,0,0.3,0,0.4-0.1c1.7-1.5,2.6-3.3,2.6-5.1c0-1.3-0.4-2.5-1.2-3.4
				c-0.8-0.9-1.9-1.4-3.3-1.4c-1.2,0-2.2,0.4-3,1.2c-0.8,0.8-1.2,1.8-1.2,3.1c0,0.7,0.1,1.4,0.4,2s0.7,1.1,1.3,1.6
				c0.6,0.4,1.2,0.8,1.8,1.1C468.9-90.8,469.6-90.5,470.5-90.1z"/>
			<path id="XMLID_81_" d="M493.4-81.5c-0.1,0-0.2,0.1-0.2,0.2v1.5c0,0.1,0.1,0.2,0.2,0.2h2.6c0.2,0,0.4,0.1,0.6,0.2
				s0.2,0.3,0.2,0.5s-0.1,0.4-0.2,0.6S496.2-78,496-78h-2.6c-0.1,0-0.2,0.1-0.2,0.2v3.3c0,0.2-0.1,0.4-0.2,0.6s-0.3,0.2-0.5,0.2
				s-0.4-0.1-0.5-0.2s-0.2-0.3-0.2-0.6v-3.3c0-0.1-0.1-0.2-0.2-0.2h-2.8c-0.2,0-0.4-0.1-0.6-0.2s-0.2-0.3-0.2-0.6s0.1-0.4,0.2-0.5
				s0.3-0.2,0.6-0.2h2.8c0.1,0,0.2-0.1,0.2-0.2v-1.5c0-0.1-0.1-0.2-0.2-0.2h-1.5c-0.4,0-0.7-0.1-1-0.4s-0.4-0.6-0.4-1v-5.7
				c0-0.4,0.1-0.7,0.4-1s0.6-0.4,1-0.4h1.5c0.1,0,0.2-0.1,0.2-0.2v-1.4c0-0.1-0.1-0.2-0.2-0.2h-2.6c-0.2,0-0.4-0.1-0.6-0.2
				s-0.2-0.3-0.2-0.5s0.1-0.4,0.2-0.5s0.3-0.2,0.6-0.2h2.6c0.1,0,0.2-0.1,0.2-0.2V-95c0-0.2,0.1-0.4,0.2-0.6s0.3-0.2,0.5-0.2
				s0.4,0.1,0.5,0.2s0.2,0.3,0.2,0.6v1.6c0,0.1,0.1,0.2,0.2,0.2h2.4c0.2,0,0.4,0.1,0.6,0.2s0.2,0.3,0.2,0.5s-0.1,0.4-0.2,0.5
				s-0.3,0.2-0.6,0.2h-2.4c-0.1,0-0.2,0.1-0.2,0.2v1.4c0,0.1,0.1,0.2,0.2,0.2h1.5c0.4,0,0.7,0.1,1,0.4s0.4,0.6,0.4,1v5.7
				c0,0.4-0.1,0.7-0.4,1s-0.6,0.4-1,0.4H493.4z M490.1-88.6c-0.1,0-0.2,0.1-0.2,0.2v1.9c0,0.1,0.1,0.2,0.2,0.2h1.6
				c0.1,0,0.2-0.1,0.2-0.2v-1.9c0-0.1-0.1-0.2-0.2-0.2H490.1z M490.1-85.1c-0.1,0-0.2,0.1-0.2,0.2v1.9c0,0.1,0.1,0.2,0.2,0.2h1.6
				c0.1,0,0.2-0.1,0.2-0.2v-1.9c0-0.1-0.1-0.2-0.2-0.2H490.1z M494.9-86.4c0.1,0,0.2-0.1,0.2-0.2v-1.9c0-0.1-0.1-0.2-0.2-0.2h-1.6
				c-0.1,0-0.2,0.1-0.2,0.2v1.9c0,0.1,0.1,0.2,0.2,0.2H494.9z M494.9-82.8c0.1,0,0.2-0.1,0.2-0.2v-1.9c0-0.1-0.1-0.2-0.2-0.2h-1.6
				c-0.1,0-0.2,0.1-0.2,0.2v1.9c0,0.1,0.1,0.2,0.2,0.2H494.9z M509.5-93.7c0.2,0.1,0.2,0.3,0.2,0.6s-0.1,0.4-0.2,0.6
				s-0.3,0.2-0.5,0.2h-4.7c-0.1,0-0.2,0.1-0.2,0.2v2c0,0.1,0.1,0.2,0.2,0.2h3.8c0.4,0,0.7,0.1,1,0.4s0.4,0.6,0.4,1v12.8
				c0,0.4-0.1,0.8-0.2,1s-0.3,0.4-0.6,0.6c-0.4,0.2-1.2,0.3-2.2,0.3c-0.2,0-0.4-0.1-0.6-0.2s-0.3-0.3-0.4-0.6c0-0.2,0-0.3,0.1-0.5
				s0.2-0.2,0.4-0.2c0.4,0,0.7,0,0.9,0c0.3,0,0.5,0,0.7,0c0.1,0,0.2,0,0.3-0.1s0.1-0.2,0.1-0.3v-2.9c0,0,0,0,0,0s0,0,0,0
				c-0.1,0.1-0.3,0.2-0.4,0.1s-0.3-0.1-0.4-0.2c-0.5-0.8-0.8-1.7-1-2.8c0,0,0,0,0,0s0,0,0,0c-0.2,1.1-0.6,1.9-1,2.6
				c-0.1,0.2-0.3,0.3-0.5,0.3s-0.4-0.1-0.6-0.2c0,0,0,0-0.1,0s0,0,0,0.1v4.2c0,0.2-0.1,0.3-0.2,0.4s-0.3,0.2-0.4,0.2
				s-0.3-0.1-0.4-0.2s-0.2-0.3-0.2-0.4v-4.2c0-0.1,0-0.1-0.1,0c-0.2,0.1-0.4,0.2-0.6,0.2s-0.4-0.2-0.4-0.3c-0.3-0.6-0.5-1.4-0.7-2.2
				c0,0,0,0,0,0s0,0,0,0c-0.2,1.1-0.6,2-1,2.7c-0.1,0.1-0.2,0.2-0.3,0.2s-0.2-0.1-0.3-0.2c-0.1-0.2-0.2-0.3-0.2-0.5
				c0-0.1,0-0.3,0.1-0.4c0.7-1.1,1.1-2.9,1.4-5.5c0-0.1,0-0.1-0.1-0.1H500c-0.2,0-0.3-0.1-0.4-0.2s-0.2-0.3-0.2-0.4s0.1-0.3,0.2-0.4
				s0.2-0.2,0.4-0.2h0.5c0.3,0,0.5,0.1,0.7,0.3s0.3,0.5,0.3,0.8c0,2.6,0.4,4.6,1.1,5.9c0,0,0,0,0.1,0s0,0,0,0v-8.8
				c0-0.1-0.1-0.2-0.2-0.2h-3.7c-0.1,0-0.2,0.1-0.2,0.2v13.7c0,0.2-0.1,0.3-0.2,0.5s-0.3,0.2-0.5,0.2s-0.4-0.1-0.5-0.2
				s-0.2-0.3-0.2-0.5v-14c0-0.4,0.1-0.7,0.4-1s0.6-0.4,1-0.4h3.6c0.1,0,0.2-0.1,0.2-0.2v-2c0-0.1-0.1-0.2-0.2-0.2h-4.5
				c-0.2,0-0.4-0.1-0.5-0.2s-0.2-0.3-0.2-0.6s0.1-0.4,0.2-0.6s0.3-0.2,0.5-0.2H509C509.2-93.9,509.3-93.8,509.5-93.7z M507.9-79.6
				C507.9-79.5,507.9-79.5,507.9-79.6C508-79.6,508-79.6,507.9-79.6l0.1-8.7c0-0.1-0.1-0.2-0.2-0.2h-3.8c-0.1,0-0.2,0.1-0.2,0.2v8.9
				c0,0,0,0.1,0,0.1s0.1,0,0.1,0c0.8-1,1.3-2.9,1.6-5.8c0-0.1,0-0.1-0.1-0.1h-0.4c-0.2,0-0.3-0.1-0.4-0.2s-0.2-0.3-0.2-0.4
				s0.1-0.3,0.2-0.4s0.2-0.2,0.4-0.2h0.5c0.3,0,0.6,0.1,0.8,0.3s0.3,0.5,0.3,0.8c0,1.2,0.1,2.2,0.3,3.2S507.4-80.3,507.9-79.6z"/>
		</g>
		<g id="XMLID_482_">
			<line id="XMLID_484_" class="st3" x1="159" y1="-87.1" x2="204" y2="-87.1"/>
			<line id="XMLID_483_" class="st3" x1="228" y1="-87.1" x2="255" y2="-87.1"/>
		</g>
	</g>
	<g id="XMLID_747_" class="st1">
		<path id="XMLID_771_" class="st17" d="M371-101c-3.9-2.4-16.5-5.5-34.2-5.5l-9.4-10.9c-2-2.3-4.8-3.6-7.9-3.6h-28
			c-3,0-5.9,1.1-8.1,3l-11,9.5l-11.8,1.7c-1.7,0.2-3,1.5-3.4,3.1l-1.4,5.6L287-83.7h87.2v-11.7C374.2-97.7,373-99.8,371-101z"/>
		<path id="XMLID_770_" class="st18" d="M374.2-94.1c0-4.2-6.2-8.3-35.3-8.3h-80.9c-1.2,0-2.1,0.9-2.1,2.1v12.5l39.4,6.2h78.9
			L374.2-94.1L374.2-94.1z"/>
		<path id="XMLID_769_" class="st19" d="M374.2-85.8h-97.3l-18.5-4.1c-1.1-0.2-2.2,0.4-2.5,1.6c-0.3,1.1,0.4,2.2,1.6,2.5l18.7,4.2
			c0.1,0,0.3,0,0.4,0h97.5c1.2,0,2.1-0.9,2.1-2.1C376.2-84.8,375.3-85.8,374.2-85.8z"/>
		<circle id="XMLID_768_" class="st11" cx="355.5" cy="-85.8" r="10.4"/>
		<path id="XMLID_765_" class="st6" d="M355.5-73.3c-6.9,0-12.5-5.6-12.5-12.5s5.6-12.5,12.5-12.5c6.9,0,12.5,5.6,12.5,12.5
			S362.3-73.3,355.5-73.3z M355.5-94.1c-4.6,0-8.3,3.7-8.3,8.3c0,4.6,3.7,8.3,8.3,8.3c4.6,0,8.3-3.7,8.3-8.3
			C363.8-90.3,360.1-94.1,355.5-94.1z"/>
		<circle id="XMLID_764_" class="st7" cx="355.5" cy="-85.8" r="4.2"/>
		<circle id="XMLID_763_" class="st11" cx="276.6" cy="-85.8" r="10.4"/>
		<path id="XMLID_760_" class="st6" d="M276.6-73.3c-6.9,0-12.5-5.6-12.5-12.5s5.6-12.5,12.5-12.5c6.9,0,12.5,5.6,12.5,12.5
			C289-78.9,283.5-73.3,276.6-73.3z M276.6-94.1c-4.6,0-8.3,3.7-8.3,8.3c0,4.6,3.7,8.3,8.3,8.3c4.6,0,8.3-3.7,8.3-8.3
			C284.9-90.3,281.2-94.1,276.6-94.1z"/>
		<circle id="XMLID_759_" class="st7" cx="276.6" cy="-85.8" r="4.2"/>
		<g id="XMLID_756_">
			<path id="XMLID_758_" class="st19" d="M338.9-89.9h-43.6c-1.2,0-2.1-0.9-2.1-2.1l0,0c0-1.2,0.9-2.1,2.1-2.1h43.6
				c1.2,0,2.1,0.9,2.1,2.1l0,0C340.9-90.9,340-89.9,338.9-89.9z"/>
			<path id="XMLID_757_" class="st19" d="M374.2-89.9h-2.1c-1.2,0-2.1-0.9-2.1-2.1l0,0c0-1.2,0.9-2.1,2.1-2.1h2.1
				c1.2,0,2.1,0.9,2.1,2.1l0,0C376.2-90.9,375.3-89.9,374.2-89.9z"/>
		</g>
		<path id="XMLID_755_" class="st18" d="M272.4-108.6l11-9.5c2.3-1.9,5.1-3,8.1-3h28c3,0,5.9,1.3,7.9,3.6l9.4,10.9h-49.1
			c-1.8,0-3.6-0.1-5.5-0.4L272.4-108.6z"/>
		<path id="XMLID_754_" class="st10" d="M317.3-117.5c-0.8-0.9-2-1.5-3.2-1.5h-19.2c-1.1,0-2.2,0.4-2.9,1.2l-6.2,6.2
			c-0.5,0.5-0.9,1.3-0.9,2.1l0,0c0,1.6,1.3,2.9,2.9,2.9h36.3c0.9,0,1.4-1,0.8-1.7L317.3-117.5z"/>
		<polygon id="XMLID_753_" class="st6" points="299.4,-106.5 293.2,-106.5 297.4,-119 301.5,-119 		"/>
		<path id="XMLID_752_" class="st11" d="M371.9-100.3H370c-1.2,0-2.1,0.9-2.1,2.1c0,1.1,0.9,2.1,2.1,2.1h4.1
			C373.9-97.8,373.1-99.2,371.9-100.3z"/>
		<path id="XMLID_751_" class="st10" d="M327.4-117.4c-0.5-0.6-1.1-1.1-1.6-1.6h-3.4c-0.9,0-1.4,1-0.8,1.7l7.7,9.3
			c0.8,0.9,2,1.5,3.2,1.5h4.3L327.4-117.4z"/>
		<path id="XMLID_750_" class="st16" d="M255.9-100.3v2.1h4.2c1.2,0,2.1-0.9,2.1-2.1c0-1.1-0.9-2.1-2.1-2.1h-2.1
			C256.8-102.4,255.9-101.4,255.9-100.3z"/>
		<path id="XMLID_749_" class="st19" d="M314.3-122.3h-15.4c-1.6,0-2.8-1.3-2.8-2.8v-0.2c0-1.6,1.3-2.8,2.8-2.8h15.4
			c1.6,0,2.8,1.3,2.8,2.8v0.2C317.1-123.6,315.8-122.3,314.3-122.3z"/>

			<text id="XMLID_748_" transform="matrix(1 0 0 1 300.9912 -123.7517)" class="st6" style="font-family:'ArialRoundedMTBold'; font-size:4.2319px;">TAXI</text>
	</g>
</g>
<g id="XMLID_169_">
	<g id="XMLID_1148_">
		<rect id="XMLID_863_" x="147.2" y="61.1" class="st2" width="54.2" height="22.4"/>
		<g id="XMLID_149_">
			<path id="XMLID_150_" d="M79.2,68.3c0-0.3,0.2-0.5,0.4-0.6c0.2-0.1,0.3-0.1,0.5-0.1c0.1,0,0.1,0,0.2,0c0.2,0.1,0.4,0.2,0.6,0.4
				c0.1,0.1,0.1,0.3,0.1,0.5c0,0.1,0,0.1,0,0.2c-0.8,3.4-1.9,6-3.2,7.9c-0.1,0.2-0.3,0.3-0.6,0.4c-0.1,0-0.1,0-0.2,0
				c-0.2,0-0.4,0-0.5-0.1c-0.2-0.1-0.3-0.3-0.4-0.5c0-0.1,0-0.1,0-0.2c0-0.2,0-0.3,0.1-0.4c0.7-0.9,1.3-2.1,1.8-3.4
				C78.5,71,78.9,69.7,79.2,68.3z M85.1,63.2c0-0.2,0.1-0.4,0.3-0.6s0.4-0.3,0.6-0.3c0.2,0,0.4,0.1,0.6,0.3s0.3,0.4,0.3,0.6v16.5
				c0,0.6-0.1,1-0.3,1.3c-0.2,0.3-0.4,0.5-0.8,0.7C85.1,81.9,84,82,82.4,82c-0.3,0-0.5-0.1-0.7-0.2c-0.2-0.2-0.4-0.4-0.5-0.6
				c-0.1-0.2-0.1-0.4,0.1-0.6c0.1-0.2,0.3-0.3,0.5-0.3c0.5,0,0.9,0,1.3,0c0.5,0,0.9,0,1.3,0c0.4,0,0.6-0.2,0.6-0.6V63.2z M90.7,68.6
				c-0.1-0.2-0.1-0.4,0-0.6s0.2-0.3,0.4-0.4c0.1-0.1,0.2-0.1,0.3-0.1c0.1,0,0.2,0,0.3,0.1c0.2,0.1,0.4,0.2,0.5,0.4
				c0.8,1.4,1.6,2.8,2.2,4.3c0.6,1.4,1.1,2.6,1.4,3.7c0,0.1,0,0.2,0,0.3c0,0.2,0,0.3-0.1,0.5c-0.1,0.2-0.3,0.4-0.6,0.5
				c-0.1,0-0.2,0.1-0.3,0.1c-0.1,0-0.2,0-0.4-0.1c-0.2-0.1-0.3-0.3-0.4-0.5c-0.3-1.1-0.7-2.4-1.3-3.8C92.2,71.4,91.5,69.9,90.7,68.6
				z"/>
			<path id="XMLID_154_" d="M103.1,69.4c-0.1,0.2-0.3,0.2-0.5,0.2c-0.2,0-0.4-0.1-0.5-0.2c-0.1-0.2-0.2-0.3-0.2-0.6v-2.4
				c0,0,0-0.1-0.1-0.1c0,0-0.1,0-0.1,0c-0.7,0.5-1.4,0.9-2.1,1.3c-0.2,0.1-0.3,0.1-0.5,0.1c-0.1,0-0.1,0-0.2,0
				c-0.2,0-0.5-0.2-0.6-0.3c-0.1-0.1-0.2-0.2-0.2-0.4c0-0.2,0.1-0.4,0.3-0.5c2.1-1,3.8-2.2,5.1-3.5c0.3-0.3,0.5-0.4,0.8-0.4
				c0.1,0,0.3,0,0.4,0.1c0.2,0.1,0.3,0.2,0.3,0.4c0,0.2,0,0.3-0.1,0.5c-0.4,0.5-0.9,0.9-1.5,1.4c-0.1,0.1-0.1,0.2-0.1,0.3v3.6
				C103.3,69.1,103.3,69.2,103.1,69.4z M103.7,79.6c0.3-0.1,0.5-0.2,0.8-0.2s0.5,0.1,0.7,0.2c0.2,0.1,0.2,0.2,0.2,0.4
				s-0.1,0.3-0.2,0.4c-1.5,0.7-3.2,1.4-5.1,2c-0.1,0-0.3,0.1-0.4,0.1c-0.4,0-0.7-0.2-1-0.5c-0.1-0.1-0.1-0.2-0.1-0.3
				c0,0,0-0.1,0-0.1c0-0.2,0.2-0.3,0.3-0.3C100.8,80.7,102.4,80.2,103.7,79.6z M102,79c-0.3,0-0.6-0.1-0.9-0.4
				c-0.2-0.2-0.4-0.5-0.4-0.9v-6.3c0-0.3,0.1-0.6,0.4-0.9c0.2-0.2,0.5-0.4,0.9-0.4h11.6c0.3,0,0.6,0.1,0.9,0.4
				c0.2,0.2,0.4,0.5,0.4,0.9v6.3c0,0.3-0.1,0.6-0.4,0.9c-0.2,0.2-0.5,0.4-0.9,0.4H102z M102.5,71.3c-0.1,0-0.2,0.1-0.2,0.1v1.2
				c0,0.1,0.1,0.1,0.2,0.1h10.6c0.1,0,0.1,0,0.1-0.1v-1.2c0-0.1,0-0.1-0.1-0.1H102.5z M102.5,73.8c-0.1,0-0.2,0.1-0.2,0.2v1.2
				c0,0.1,0.1,0.2,0.2,0.2h10.6c0.1,0,0.1-0.1,0.1-0.2V74c0-0.1,0-0.2-0.1-0.2H102.5z M102.5,76.4c-0.1,0-0.2,0.1-0.2,0.2v1.2
				c0,0.1,0.1,0.2,0.2,0.2h10.6c0.1,0,0.1-0.1,0.1-0.2v-1.2c0-0.1,0-0.2-0.1-0.2H102.5z M114.8,69.3H110c-1.2,0-2-0.1-2.4-0.4
				c-0.4-0.3-0.6-0.8-0.6-1.7v-3.7c0-0.2,0.1-0.4,0.2-0.5s0.3-0.2,0.6-0.2c0.2,0,0.4,0.1,0.5,0.2c0.1,0.1,0.2,0.3,0.2,0.5v1.3
				c0,0.1,0,0.2,0.1,0.1c2.2-0.4,4-0.9,5.4-1.3c0.2-0.1,0.4-0.1,0.5-0.1c0.3,0,0.6,0.1,0.9,0.3c0.1,0.1,0.2,0.3,0.1,0.5
				c0,0.2-0.1,0.3-0.3,0.4c-1.8,0.6-4,1.1-6.6,1.5c-0.1,0-0.1,0.1-0.1,0.2v0.9c0,0.3,0.1,0.5,0.3,0.6c0.2,0.1,0.6,0.1,1.3,0.1h4.6
				c0.4,0,0.7-0.1,0.8-0.2c0.2-0.1,0.3-0.4,0.3-0.9c0-0.2,0.1-0.3,0.3-0.4c0.2-0.1,0.3-0.1,0.5,0c0.2,0.1,0.4,0.2,0.5,0.4
				c0.1,0.1,0.1,0.3,0.1,0.4c0,0.1,0,0.1,0,0.1c-0.1,0.8-0.4,1.3-0.7,1.5C116.2,69.2,115.6,69.3,114.8,69.3z M110.3,80.4
				c-0.2-0.1-0.3-0.2-0.3-0.4c0-0.1,0.1-0.2,0.2-0.3c0.3-0.2,0.6-0.3,0.9-0.3c0.2,0,0.3,0,0.5,0.1c1.9,0.6,3.6,1.2,4.9,1.8
				c0.2,0.1,0.3,0.2,0.3,0.4c0,0.2-0.1,0.3-0.3,0.4c-0.3,0.1-0.6,0.2-0.9,0.2c-0.3,0-0.6-0.1-0.9-0.2C113.5,81.5,112,81,110.3,80.4z
				"/>
			<path id="XMLID_163_" d="M138.7,77.4c0.2,0,0.4,0.1,0.5,0.2c0.1,0.1,0.2,0.3,0.2,0.5s-0.1,0.4-0.2,0.5c-0.1,0.1-0.3,0.2-0.5,0.2
				h-8.1c-0.1,0-0.2,0.1-0.2,0.2v2.3c0,0.2-0.1,0.4-0.2,0.6s-0.4,0.2-0.6,0.2s-0.4-0.1-0.6-0.2c-0.2-0.2-0.2-0.4-0.2-0.6V79
				c0-0.1-0.1-0.2-0.1-0.2h-8c-0.2,0-0.4-0.1-0.5-0.2s-0.2-0.3-0.2-0.5s0.1-0.4,0.2-0.5s0.3-0.2,0.5-0.2h8c0.1,0,0.1-0.1,0.1-0.2
				v-1.5c0-0.1-0.1-0.2-0.1-0.2h-5.1c-0.3,0-0.6-0.1-0.9-0.4c-0.2-0.2-0.4-0.5-0.4-0.9v-6c0-0.3,0.1-0.6,0.4-0.9
				c0.2-0.2,0.5-0.4,0.9-0.4h5.1c0.1,0,0.1,0,0.1-0.1v-1.3c0-0.1-0.1-0.1-0.1-0.1h-7.3c-0.2,0-0.4-0.1-0.5-0.2
				c-0.1-0.2-0.2-0.3-0.2-0.5s0.1-0.4,0.2-0.5c0.1-0.1,0.3-0.2,0.5-0.2h7.3c0.1,0,0.1,0,0.1-0.1v-1c0-0.2,0.1-0.4,0.2-0.6
				c0.2-0.2,0.4-0.2,0.6-0.2s0.4,0.1,0.6,0.2c0.2,0.2,0.2,0.4,0.2,0.6v1c0,0.1,0.1,0.1,0.2,0.1h7.4c0.2,0,0.4,0.1,0.5,0.2
				c0.1,0.1,0.2,0.3,0.2,0.5s-0.1,0.4-0.2,0.5c-0.1,0.1-0.3,0.2-0.5,0.2h-7.4c-0.1,0-0.2,0.1-0.2,0.1v1.3c0,0.1,0.1,0.1,0.2,0.1h5.3
				c0.3,0,0.6,0.1,0.9,0.4s0.4,0.5,0.4,0.9v6c0,0.3-0.1,0.6-0.4,0.9s-0.5,0.4-0.9,0.4h-5.3c-0.1,0-0.2,0.1-0.2,0.2v1.5
				c0,0.1,0.1,0.2,0.2,0.2H138.7z M123.8,68.5c-0.1,0-0.1,0-0.1,0.1v1.9c0,0.1,0,0.1,0.1,0.1h4.7c0.1,0,0.1,0,0.1-0.1v-1.9
				c0-0.1-0.1-0.1-0.1-0.1H123.8z M123.7,74.1c0,0.1,0,0.1,0.1,0.1h4.7c0.1,0,0.1,0,0.1-0.1v-1.9c0-0.1-0.1-0.2-0.1-0.2h-4.7
				c-0.1,0-0.1,0.1-0.1,0.2V74.1z M135.4,68.6c0-0.1-0.1-0.1-0.1-0.1h-4.8c-0.1,0-0.2,0-0.2,0.1v1.9c0,0.1,0.1,0.1,0.2,0.1h4.8
				c0.1,0,0.1,0,0.1-0.1V68.6z M135.3,74.2c0.1,0,0.1,0,0.1-0.1v-1.9c0-0.1-0.1-0.2-0.1-0.2h-4.8c-0.1,0-0.2,0.1-0.2,0.2v1.9
				c0,0.1,0.1,0.1,0.2,0.1H135.3z"/>
		</g>
		<g id="XMLID_130_">
			<path id="XMLID_131_" d="M341.3,83.8c-0.4,0-0.7-0.1-1-0.4s-0.4-0.6-0.4-1s0.1-0.7,0.4-1s0.6-0.4,1-0.4h4.3
				c0.2,0,0.2-0.1,0.2-0.2V61.7c0-0.2-0.1-0.3-0.2-0.3h-3.4c-0.3,0-0.6-0.1-0.8-0.3s-0.3-0.5-0.3-0.8c0-0.3,0.1-0.5,0.3-0.8
				s0.4-0.4,0.7-0.5c1.2-0.3,2.4-0.6,3.3-1.1c0.8-0.4,1.6-0.6,2.4-0.6c0.4,0,0.7,0.1,0.9,0.4s0.4,0.5,0.4,0.9v22.1
				c0,0.2,0.1,0.2,0.3,0.2h3.7c0.4,0,0.7,0.1,1,0.4s0.4,0.6,0.4,1s-0.1,0.7-0.4,1s-0.6,0.4-1,0.4H341.3z"/>
			<path id="XMLID_133_" d="M366.2,84.3c-2.8,0-5.3-0.9-7.4-2.6c-0.3-0.3-0.5-0.6-0.5-1.1c0-0.3,0.1-0.6,0.3-0.9s0.5-0.4,0.8-0.5
				s0.7,0.1,0.9,0.3c1.6,1.3,3.4,2,5.5,2c1.6,0,2.9-0.6,4-1.7s1.6-2.6,1.6-4.5S371,72,370,70.9s-2.3-1.6-4-1.6c-1.2,0-2.4,0.3-3.5,1
				c-0.3,0.2-0.6,0.2-0.9,0.2c-0.3,0-0.6-0.1-0.8-0.2c-0.6-0.4-0.9-0.9-0.8-1.6l0.6-9.2c0-0.6,0.3-1.1,0.7-1.5s0.9-0.6,1.5-0.6h9.4
				c0.4,0,0.7,0.1,1,0.4s0.4,0.6,0.4,1s-0.1,0.7-0.4,1s-0.6,0.4-1,0.4h-8.3c-0.2,0-0.3,0.1-0.3,0.3l-0.6,7.1c0,0,0,0.1,0.1,0.1
				s0.1,0,0.1,0c1.1-0.6,2.4-0.9,3.7-0.9c2.3,0,4.2,0.7,5.7,2.1s2.2,3.5,2.2,6.3c0,1.9-0.4,3.5-1.2,4.9s-1.9,2.4-3.2,3.1
				S367.7,84.3,366.2,84.3z"/>
			<path id="XMLID_135_" d="M386.8,84.3c-2.6,0-4.6-1.2-6.1-3.5s-2.2-5.7-2.2-10.2c0-4.5,0.7-7.9,2.2-10.2s3.5-3.4,6.1-3.4
				c2.6,0,4.6,1.1,6,3.4s2.2,5.7,2.2,10.2c0,4.5-0.7,7.9-2.2,10.2S389.3,84.3,386.8,84.3z M386.8,81.7c1.5,0,2.8-0.9,3.7-2.8
				s1.3-4.6,1.3-8.4c0-3.7-0.4-6.5-1.3-8.2c-0.9-1.8-2.1-2.7-3.7-2.7c-1.6,0-2.8,0.9-3.7,2.7c-0.9,1.8-1.3,4.5-1.3,8.2
				c0,3.8,0.4,6.5,1.3,8.4S385.2,81.7,386.8,81.7z"/>
			<path id="XMLID_138_" d="M413.6,58.7c0.3,0.3,0.4,0.6,0.4,1s-0.1,0.7-0.4,1c-0.2,0.3-0.5,0.4-0.9,0.4s-0.7-0.1-1-0.3
				c-1-0.7-2.1-1.1-3.3-1.1c-2,0-3.6,0.8-4.8,2.5s-1.9,4.4-2,8.2c0,0,0,0.1,0,0.1s0.1,0,0.1,0c0.8-0.9,1.7-1.7,2.8-2.2
				s2.1-0.8,3.1-0.8c2.3,0,4.1,0.7,5.4,2.1s1.9,3.5,1.9,6.2c0,2.5-0.7,4.5-2.2,6.1s-3.3,2.4-5.4,2.4c-2.6,0-4.8-1.1-6.4-3.4
				s-2.4-5.5-2.4-9.7c0-2.5,0.3-4.7,0.8-6.6c0.5-1.9,1.3-3.4,2.2-4.5s2-1.9,3.1-2.4s2.4-0.8,3.7-0.8
				C410.5,56.9,412.2,57.5,413.6,58.7z M407.5,81.7c1.3,0,2.4-0.6,3.2-1.7s1.3-2.6,1.3-4.3c0-1.8-0.4-3.3-1.2-4.3s-2-1.5-3.6-1.5
				c-1.9,0-3.7,1.1-5.2,3.2c-0.1,0.1-0.2,0.3-0.1,0.5c0.2,2.7,0.8,4.7,1.8,6.1S405.9,81.7,407.5,81.7z"/>
			<path id="XMLID_141_" d="M431.2,78c-0.1,0-0.2,0.1-0.2,0.2v1.5c0,0.1,0.1,0.2,0.2,0.2h2.6c0.2,0,0.4,0.1,0.6,0.2s0.2,0.3,0.2,0.5
				s-0.1,0.4-0.2,0.6s-0.3,0.2-0.6,0.2h-2.6c-0.1,0-0.2,0.1-0.2,0.2v3.3c0,0.2-0.1,0.4-0.2,0.6s-0.3,0.2-0.5,0.2s-0.4-0.1-0.5-0.2
				s-0.2-0.3-0.2-0.6v-3.3c0-0.1-0.1-0.2-0.2-0.2h-2.8c-0.2,0-0.4-0.1-0.6-0.2s-0.2-0.3-0.2-0.6s0.1-0.4,0.2-0.5s0.3-0.2,0.6-0.2
				h2.8c0.1,0,0.2-0.1,0.2-0.2v-1.5c0-0.1-0.1-0.2-0.2-0.2h-1.5c-0.4,0-0.7-0.1-1-0.4s-0.4-0.6-0.4-1V71c0-0.4,0.1-0.7,0.4-1
				s0.6-0.4,1-0.4h1.5c0.1,0,0.2-0.1,0.2-0.2V68c0-0.1-0.1-0.2-0.2-0.2h-2.6c-0.2,0-0.4-0.1-0.6-0.2s-0.2-0.3-0.2-0.5
				s0.1-0.4,0.2-0.5s0.3-0.2,0.6-0.2h2.6c0.1,0,0.2-0.1,0.2-0.2v-1.6c0-0.2,0.1-0.4,0.2-0.6c0.1-0.1,0.3-0.2,0.5-0.2
				s0.4,0.1,0.5,0.2c0.1,0.1,0.2,0.3,0.2,0.6v1.6c0,0.1,0.1,0.2,0.2,0.2h2.4c0.2,0,0.4,0.1,0.6,0.2s0.2,0.3,0.2,0.5
				s-0.1,0.4-0.2,0.5s-0.3,0.2-0.6,0.2h-2.4c-0.1,0-0.2,0.1-0.2,0.2v1.4c0,0.1,0.1,0.2,0.2,0.2h1.5c0.4,0,0.7,0.1,1,0.4
				s0.4,0.6,0.4,1v5.7c0,0.4-0.1,0.7-0.4,1s-0.6,0.4-1,0.4H431.2z M427.9,70.9c-0.1,0-0.2,0.1-0.2,0.2V73c0,0.1,0.1,0.2,0.2,0.2h1.6
				c0.1,0,0.2-0.1,0.2-0.2v-1.9c0-0.1-0.1-0.2-0.2-0.2H427.9z M427.9,74.4c-0.1,0-0.2,0.1-0.2,0.2v1.9c0,0.1,0.1,0.2,0.2,0.2h1.6
				c0.1,0,0.2-0.1,0.2-0.2v-1.9c0-0.1-0.1-0.2-0.2-0.2H427.9z M432.7,73.1c0.1,0,0.2-0.1,0.2-0.2v-1.9c0-0.1-0.1-0.2-0.2-0.2h-1.6
				c-0.1,0-0.2,0.1-0.2,0.2V73c0,0.1,0.1,0.2,0.2,0.2H432.7z M432.7,76.7c0.1,0,0.2-0.1,0.2-0.2v-1.9c0-0.1-0.1-0.2-0.2-0.2h-1.6
				c-0.1,0-0.2,0.1-0.2,0.2v1.9c0,0.1,0.1,0.2,0.2,0.2H432.7z M447.3,65.8c0.2,0.1,0.2,0.3,0.2,0.6s-0.1,0.4-0.2,0.6
				s-0.3,0.2-0.5,0.2h-4.7c-0.1,0-0.2,0.1-0.2,0.2v2c0,0.1,0.1,0.2,0.2,0.2h3.8c0.4,0,0.7,0.1,1,0.4s0.4,0.6,0.4,1v12.8
				c0,0.4-0.1,0.8-0.2,1s-0.3,0.4-0.6,0.6c-0.4,0.2-1.2,0.3-2.2,0.3c-0.2,0-0.4-0.1-0.6-0.2s-0.3-0.3-0.4-0.6c0-0.2,0-0.3,0.1-0.5
				s0.2-0.2,0.4-0.2c0.4,0,0.7,0,0.9,0c0.3,0,0.5,0,0.7,0c0.1,0,0.2,0,0.3-0.1s0.1-0.2,0.1-0.3v-2.9c0,0,0,0,0,0s0,0,0,0
				c-0.1,0.1-0.3,0.2-0.4,0.1s-0.3-0.1-0.4-0.2c-0.5-0.8-0.8-1.7-1-2.8c0,0,0,0,0,0s0,0,0,0c-0.2,1.1-0.6,1.9-1,2.6
				c-0.1,0.2-0.3,0.3-0.5,0.3s-0.4-0.1-0.6-0.2c0,0,0,0-0.1,0s0,0,0,0.1v4.2c0,0.2-0.1,0.3-0.2,0.4s-0.3,0.2-0.4,0.2
				s-0.3-0.1-0.4-0.2s-0.2-0.3-0.2-0.4v-4.2c0-0.1,0-0.1-0.1,0c-0.2,0.1-0.4,0.2-0.6,0.2s-0.4-0.2-0.4-0.3c-0.3-0.6-0.5-1.4-0.7-2.2
				c0,0,0,0,0,0s0,0,0,0c-0.2,1.1-0.6,2-1,2.7c-0.1,0.1-0.2,0.2-0.3,0.2s-0.2-0.1-0.3-0.2c-0.1-0.2-0.2-0.3-0.2-0.5
				c0-0.1,0-0.3,0.1-0.4c0.7-1.1,1.1-2.9,1.4-5.5c0-0.1,0-0.1-0.1-0.1h-0.4c-0.2,0-0.3-0.1-0.4-0.2s-0.2-0.3-0.2-0.4
				s0.1-0.3,0.2-0.4s0.2-0.2,0.4-0.2h0.5c0.3,0,0.5,0.1,0.7,0.3s0.3,0.5,0.3,0.8c0,2.6,0.4,4.6,1.1,5.9c0,0,0,0,0.1,0s0,0,0,0v-8.8
				c0-0.1-0.1-0.2-0.2-0.2h-3.7c-0.1,0-0.2,0.1-0.2,0.2v13.7c0,0.2-0.1,0.3-0.2,0.5s-0.3,0.2-0.5,0.2s-0.4-0.1-0.5-0.2
				s-0.2-0.3-0.2-0.5v-14c0-0.4,0.1-0.7,0.4-1s0.6-0.4,1-0.4h3.6c0.1,0,0.2-0.1,0.2-0.2v-2c0-0.1-0.1-0.2-0.2-0.2h-4.5
				c-0.2,0-0.4-0.1-0.5-0.2s-0.2-0.3-0.2-0.6s0.1-0.4,0.2-0.6s0.3-0.2,0.5-0.2h11.1C447,65.6,447.1,65.7,447.3,65.8z M445.7,79.9
				C445.7,80,445.7,80,445.7,79.9C445.8,79.9,445.8,79.9,445.7,79.9l0.1-8.7c0-0.1-0.1-0.2-0.2-0.2h-3.8c-0.1,0-0.2,0.1-0.2,0.2v8.9
				c0,0,0,0.1,0,0.1s0.1,0,0.1,0c0.8-1,1.3-2.9,1.6-5.8c0-0.1,0-0.1-0.1-0.1h-0.4c-0.2,0-0.3-0.1-0.4-0.2s-0.2-0.3-0.2-0.4
				s0.1-0.3,0.2-0.4s0.2-0.2,0.4-0.2h0.5c0.3,0,0.6,0.1,0.8,0.3s0.3,0.5,0.3,0.8c0,1.2,0.1,2.2,0.3,3.2S445.2,79.2,445.7,79.9z"/>
		</g>
		<g id="XMLID_478_">
			<line id="XMLID_479_" class="st3" x1="159" y1="71.9" x2="200" y2="71.9"/>
		</g>
	</g>
	<g id="XMLID_711_">
		<path id="XMLID_746_" class="st10" d="M291.1,59.7h-20.2v6.1h-66.6c-1.1,0-2,0.9-2,2v4c0,1.1,0.9,2,2,2h86.8L291.1,59.7
			L291.1,59.7z"/>
		<path id="XMLID_745_" class="st7" d="M272.9,17.3h-74.7c-1.1,0-2,0.9-2,2v44.4c0,1.1,0.9,2,2,2h74.7c1.1,0,2-0.9,2-2V19.3
			C274.9,18.2,274,17.3,272.9,17.3z"/>
		<g id="XMLID_742_">
			<path id="XMLID_744_" class="st4" d="M268.9,61.7h-66.6c-1.1,0-2-0.9-2-2l0,0c0-1.1,0.9-2,2-2h66.6c1.1,0,2,0.9,2,2l0,0
				C270.9,60.8,270,61.7,268.9,61.7z"/>
			<path id="XMLID_743_" class="st4" d="M268.9,25.4h-66.6c-1.1,0-2-0.9-2-2l0,0c0-1.1,0.9-2,2-2h66.6c1.1,0,2,0.9,2,2l0,0
				C270.9,24.5,270,25.4,268.9,25.4z"/>
		</g>
		<path id="XMLID_741_" class="st9" d="M298.4,27.4H281c-1.1,0-2,0.9-2,2v30.3c0,1.1,0.9,2,2,2h9.1v10.1h21.2V57.4
			c0-2.5-0.5-4.9-1.3-7.2L302.2,30C301.6,28.4,300.1,27.4,298.4,27.4z"/>
		<rect id="XMLID_740_" x="290.1" y="61.7" class="st8" width="21.2" height="10.1"/>
		<circle id="XMLID_739_" class="st11" cx="219.4" cy="72.8" r="9.3"/>
		<path id="XMLID_736_" class="st6" d="M219.4,83.9c-6.1,0-11.1-5-11.1-11.1s5-11.1,11.1-11.1s11.1,5,11.1,11.1
			S225.5,83.9,219.4,83.9z M219.4,65.7c-3.9,0-7.1,3.2-7.1,7.1c0,3.9,3.2,7.1,7.1,7.1c3.9,0,7.1-3.2,7.1-7.1S223.3,65.7,219.4,65.7z
			"/>
		<circle id="XMLID_735_" class="st7" cx="219.4" cy="72.8" r="4"/>
		<circle id="XMLID_734_" class="st11" cx="290.1" cy="72.8" r="9.3"/>
		<path id="XMLID_731_" class="st6" d="M290.1,83.9c-6.1,0-11.1-5-11.1-11.1s5-11.1,11.1-11.1c6.1,0,11.1,5,11.1,11.1
			C301.2,78.9,296.2,83.9,290.1,83.9z M290.1,65.7c-3.9,0-7.1,3.2-7.1,7.1c0,3.9,3.2,7.1,7.1,7.1c3.9,0,7.1-3.2,7.1-7.1
			S294,65.7,290.1,65.7z"/>
		<circle id="XMLID_730_" class="st7" cx="290.1" cy="72.8" r="4"/>
		<path id="XMLID_729_" class="st10" d="M309.2,73.8h2c1.1,0,2-0.9,2-2v-4c0-1.1-0.9-2-2-2h-2c-1.1,0-2,0.9-2,2v4
			C307.2,72.9,308.1,73.8,309.2,73.8z"/>
		<path id="XMLID_728_" class="st11" d="M309.2,57.7h2v6.1h-2c-1.1,0-2-0.9-2-2v-2C307.2,58.6,308.1,57.7,309.2,57.7z"/>
		<path id="XMLID_727_" class="st10" d="M297.8,31.4H285c-1.1,0-2,0.9-2,2v10.1c0,1.1,0.9,2,2,2h18.9c1,0,1.7-1,1.4-2l-3.7-9.6
			C301,32.4,299.5,31.4,297.8,31.4z"/>
		<g id="XMLID_726_">
		</g>
		<g id="XMLID_725_">
		</g>
		<g id="XMLID_724_">
		</g>
		<g id="XMLID_723_">
		</g>
		<g id="XMLID_722_">
		</g>
		<g id="XMLID_721_">
		</g>
		<g id="XMLID_720_">
		</g>
		<g id="XMLID_719_">
		</g>
		<g id="XMLID_718_">
		</g>
		<g id="XMLID_717_">
		</g>
		<g id="XMLID_716_">
		</g>
		<g id="XMLID_715_">
		</g>
		<g id="XMLID_714_">
		</g>
		<g id="XMLID_713_">
		</g>
		<g id="XMLID_712_">
		</g>
	</g>
</g>
<g id="XMLID_210_" class="st0">
	<g id="XMLID_1149_" class="st1">
		<rect id="XMLID_862_" x="147.2" y="140.6" class="st2" width="43.8" height="22.4"/>
		<g id="XMLID_187_">
			<path id="XMLID_188_" d="M84.9,147.8c0.1-0.2,0.2-0.3,0.4-0.4c0.2-0.1,0.4-0.2,0.6-0.2c0.4,0,0.8,0.2,1.1,0.5
				c1.1,1.3,1.9,2.6,2.6,3.7c0.1,0.2,0.1,0.4,0.1,0.6s-0.1,0.4-0.3,0.5c-0.1,0.1-0.3,0.2-0.5,0.1c-0.2,0-0.3-0.1-0.4-0.3
				c-0.7-1.3-1.4-2.5-2.2-3.6c0,0-0.1,0-0.1,0c0,0-0.1,0-0.1,0c-0.7,1.5-1.5,2.8-2.3,3.9c0,0,0,0.1,0,0.1c0,0,0,0,0.1,0h3.6
				c0.4,0,0.7,0.1,0.9,0.4s0.4,0.5,0.4,0.9v6.3c0,0.2-0.1,0.3-0.2,0.5c-0.1,0.1-0.3,0.2-0.5,0.2c-0.2,0-0.3-0.1-0.5-0.2
				c-0.1-0.1-0.2-0.3-0.2-0.5v-0.2c0-0.1,0-0.1-0.1-0.1h-2.5c-0.1,0-0.1,0-0.1,0.1v0.4c0,0.2-0.1,0.3-0.2,0.5
				c-0.1,0.1-0.3,0.2-0.5,0.2c-0.2,0-0.3-0.1-0.5-0.2c-0.1-0.1-0.2-0.3-0.2-0.5v-7.2c0,0,0,0,0,0c0,0,0,0,0,0
				c-0.1,0.2-0.3,0.2-0.5,0.2c-0.2,0-0.4-0.1-0.6-0.2c-0.1-0.1-0.2-0.2-0.3-0.2c0,0-0.1,0-0.1,0c0,0,0,0,0,0.1v6.5
				c0,0.7-0.2,1.2-0.6,1.5c-0.3,0.1-0.8,0.2-1.4,0.2c-0.2,0-0.4,0-0.6-0.2c-0.2-0.1-0.3-0.3-0.4-0.5c0-0.2,0-0.3,0.1-0.4
				c0.1-0.1,0.2-0.2,0.4-0.2c0.2,0,0.3,0,0.4,0c0.1,0,0.2,0,0.3,0c0.1,0,0.2,0,0.2,0c0.1,0,0.2,0,0.2-0.1c0,0,0.1-0.1,0.1-0.3v-5.4
				c0-0.1-0.1-0.1-0.2-0.1h-1.8c-0.1,0-0.2,0-0.2,0.1c-0.2,2.7-0.5,4.8-1,6.5c-0.1,0.2-0.2,0.3-0.3,0.3c-0.2,0-0.3,0-0.5-0.1
				c-0.2-0.1-0.3-0.2-0.4-0.4c0-0.1-0.1-0.2-0.1-0.3c0-0.1,0-0.2,0-0.2c0.7-2.2,1-5.6,1-10.1v-6.4c0-0.4,0.1-0.7,0.4-0.9
				c0.2-0.2,0.5-0.4,0.9-0.4h2.2c0.4,0,0.7,0.1,0.9,0.4c0.2,0.2,0.4,0.5,0.4,0.9v9.3c0,0,0,0,0,0.1c0,0,0,0,0.1,0
				C83,151.7,84.1,149.9,84.9,147.8z M78.2,152.7c0,0.1,0,0.1,0.1,0.1h1.7c0.1,0,0.2,0,0.2-0.1v-3.5c0-0.1-0.1-0.2-0.2-0.2h-1.7
				c-0.1,0-0.1,0.1-0.1,0.2v0.9C78.3,151.3,78.3,152.1,78.2,152.7z M80.3,144.1c0-0.1-0.1-0.2-0.2-0.2h-1.7c-0.1,0-0.1,0.1-0.1,0.2
				v3.4c0,0.1,0,0.1,0.1,0.1h1.7c0.1,0,0.2,0,0.2-0.1V144.1z M83.9,142.8c0.1-0.2,0.2-0.3,0.3-0.4c0.1-0.1,0.2-0.1,0.3-0.1
				c0.1,0,0.1,0,0.2,0c0.2,0,0.3,0.1,0.4,0.3c0.1,0.2,0.1,0.3,0,0.5c-0.5,1.5-1.2,2.9-1.9,4c-0.1,0.1-0.2,0.2-0.4,0.2
				s-0.3,0-0.5-0.1c-0.1-0.1-0.2-0.3-0.3-0.4c0-0.2,0-0.4,0.1-0.5C82.9,145.3,83.4,144.1,83.9,142.8z M87.3,154.5
				c0-0.1-0.1-0.1-0.2-0.1h-2.4c-0.1,0-0.1,0-0.1,0.1v4.2c0,0.1,0,0.2,0.1,0.2h2.4c0.1,0,0.2-0.1,0.2-0.2V154.5z M89.3,146
				c0.1,0.2,0,0.4,0,0.5c-0.1,0.2-0.2,0.3-0.4,0.4c-0.2,0.1-0.3,0.1-0.5,0s-0.3-0.2-0.3-0.4c-0.4-1.1-0.9-2.2-1.5-3.5
				c-0.1-0.1-0.1-0.3,0-0.4c0.1-0.2,0.2-0.3,0.3-0.3c0.1,0,0.2-0.1,0.3-0.1c0.1,0,0.1,0,0.2,0c0.2,0.1,0.3,0.2,0.4,0.3
				C88.4,143.8,88.9,144.9,89.3,146z M93.9,142.5c0.4,0,0.7,0.1,0.9,0.4s0.4,0.5,0.4,0.9V156c0,0.7-0.2,1.1-0.6,1.4
				c-0.3,0.2-0.7,0.3-1.3,0.3c-0.2,0-0.4,0-0.6-0.2c-0.2-0.1-0.3-0.3-0.4-0.6c-0.1-0.2,0-0.3,0.1-0.5s0.2-0.2,0.4-0.2
				c0.1,0,0.3,0,0.3,0c0.1,0,0.2,0,0.3,0c0.1,0,0.1,0,0.2,0c0.1,0,0.2,0,0.2-0.1c0,0,0.1-0.1,0.1-0.2v-11.9c0-0.1-0.1-0.2-0.2-0.2
				h-2.1c-0.1,0-0.2,0.1-0.2,0.2V161c0,0.2-0.1,0.4-0.2,0.5c-0.1,0.1-0.3,0.2-0.5,0.2c-0.2,0-0.4-0.1-0.5-0.2
				c-0.1-0.1-0.2-0.3-0.2-0.5v-17.2c0-0.4,0.1-0.7,0.4-0.9s0.5-0.4,0.9-0.4H93.9z"/>
			<path id="XMLID_196_" d="M102.8,157.4C102.8,157.4,102.8,157.4,102.8,157.4c0.1,0.1,0.1,0.1,0.1,0.1l2.1-0.6
				c0.2-0.1,0.3,0,0.5,0.1s0.2,0.2,0.3,0.4c0,0.2,0,0.4-0.1,0.6c-0.1,0.2-0.3,0.3-0.4,0.3c-2,0.6-4.1,1.3-6.4,2
				c-0.2,0.1-0.4,0.1-0.6-0.1c-0.2-0.1-0.3-0.3-0.4-0.5c0-0.1,0-0.1,0-0.2c0-0.1,0-0.3,0.1-0.4c0.1-0.2,0.3-0.3,0.5-0.4
				c0,0,0,0,0.1,0c0,0,0,0,0.1,0c0.1,0,0.1-0.1,0.1-0.1v-6.7c0-0.2,0.1-0.3,0.2-0.5c0.1-0.1,0.3-0.2,0.5-0.2s0.3,0.1,0.5,0.2
				c0.1,0.1,0.2,0.3,0.2,0.5v6.3c0,0,0,0.1,0,0.1c0,0,0.1,0,0.1,0l1.1-0.3c0.1,0,0.1-0.1,0.1-0.2v-8.4c0-0.1,0-0.2-0.1-0.2h-1.5
				c-0.4,0-0.7-0.1-0.9-0.4s-0.4-0.5-0.4-0.9v-4.1c0-0.3,0.1-0.6,0.4-0.9s0.5-0.4,0.9-0.4h4.1c0.4,0,0.7,0.1,0.9,0.4
				s0.4,0.5,0.4,0.9v4.1c0,0.4-0.1,0.7-0.4,0.9s-0.5,0.4-0.9,0.4h-1c-0.1,0-0.1,0.1-0.1,0.2v2.7c0,0.1,0,0.2,0.1,0.2h1.6
				c0.2,0,0.4,0.1,0.5,0.2c0.1,0.1,0.2,0.3,0.2,0.5s-0.1,0.4-0.2,0.5s-0.3,0.2-0.5,0.2h-1.6c-0.1,0-0.1,0.1-0.1,0.2V157.4z
				 M100.1,144c-0.1,0-0.2,0-0.2,0.1v3.5c0,0.1,0.1,0.2,0.2,0.2h3.5c0.1,0,0.2-0.1,0.2-0.2v-3.5c0-0.1-0.1-0.1-0.2-0.1H100.1z
				 M108.8,144.5c0.4,0,0.7,0,0.9,0.1c0.1,0,0.2,0.1,0.3,0.2c0.1,0.1,0.1,0.2,0.1,0.4c-0.6,2.7-1.7,4.7-3.5,6
				c-0.2,0.1-0.3,0.2-0.5,0.1c-0.2,0-0.4-0.1-0.5-0.3c-0.1-0.1-0.1-0.2-0.1-0.4c0-0.2,0.1-0.4,0.3-0.5c1.2-0.9,2.1-2.3,2.7-4.1
				c0,0,0-0.1,0-0.1s-0.1,0-0.1,0h-1.8c-0.2,0-0.4-0.1-0.5-0.2s-0.2-0.3-0.2-0.5s0.1-0.4,0.2-0.5s0.3-0.2,0.5-0.2H108.8z
				 M107.6,161.6c-0.2,0-0.4-0.1-0.5-0.2c-0.1-0.2-0.2-0.3-0.2-0.5v-7c0-0.4,0.1-0.7,0.4-0.9c0.2-0.2,0.5-0.4,0.9-0.4h7.2
				c0.3,0,0.6,0.1,0.9,0.4c0.2,0.2,0.4,0.5,0.4,0.9v6.9c0,0.2-0.1,0.4-0.2,0.6s-0.3,0.2-0.6,0.2h-0.2c-0.2,0-0.3-0.1-0.4-0.2
				c-0.1-0.1-0.2-0.3-0.2-0.4c0-0.1,0-0.1-0.1-0.1h-6.4c-0.1,0-0.1,0-0.1,0.1c0,0.2-0.1,0.3-0.2,0.5
				C108,161.6,107.9,161.6,107.6,161.6L107.6,161.6z M115,154.1c0-0.1-0.1-0.2-0.2-0.2h-6.3c-0.1,0-0.1,0.1-0.1,0.2v1.7
				c0,0.1,0,0.2,0.1,0.2h6.3c0.1,0,0.2-0.1,0.2-0.2V154.1z M108.4,159.3c0,0.1,0,0.1,0.1,0.1h6.3c0.1,0,0.2,0,0.2-0.1v-1.9
				c0-0.1-0.1-0.2-0.2-0.2h-6.3c-0.1,0-0.1,0.1-0.1,0.2V159.3z M115.5,144c0.2-0.2,0.3-0.3,0.6-0.3c0.2,0,0.4,0,0.6,0.2
				c0.2,0.1,0.3,0.3,0.3,0.5c0,0.2-0.1,0.4-0.2,0.5c-0.9,0.8-1.7,1.5-2.4,2c-0.1,0.1-0.1,0.1,0,0.2c0.9,1.2,1.9,2.2,3,2.7
				c0.2,0.1,0.3,0.2,0.3,0.4c0,0,0,0.1,0,0.1c0,0.1,0,0.2-0.1,0.4c-0.2,0.2-0.3,0.3-0.6,0.4c-0.2,0.1-0.4,0-0.6-0.1
				c-1.6-1-2.9-2.6-3.9-4.9c0,0,0,0,0,0c0,0,0,0,0,0v4.2c0,0.4,0,0.7-0.1,0.9s-0.3,0.4-0.5,0.5c-0.3,0.2-0.9,0.3-1.8,0.3
				c-0.2,0-0.4-0.1-0.6-0.2c-0.2-0.1-0.3-0.3-0.4-0.5c0-0.1,0-0.1,0-0.2c0-0.1,0-0.2,0.1-0.3c0.1-0.1,0.2-0.2,0.4-0.2
				c0.2,0,0.3,0,0.5,0c0.3,0,0.6,0,0.7,0c0.1,0,0.2,0,0.3-0.1c0,0,0.1-0.1,0.1-0.2v-8c0-0.2,0.1-0.4,0.2-0.5s0.3-0.2,0.5-0.2
				s0.4,0.1,0.5,0.2c0.1,0.1,0.2,0.3,0.2,0.5v0.3c0,0.1,0,0.2,0,0.3c0.3,1.1,0.7,2,1.1,2.8c0,0.1,0.1,0.1,0.2,0
				C114.4,145.3,115,144.7,115.5,144z"/>
			<path id="XMLID_204_" d="M138.7,156.5c0.2,0,0.4,0.1,0.5,0.2c0.1,0.1,0.2,0.3,0.2,0.5s-0.1,0.4-0.2,0.5c-0.1,0.1-0.3,0.2-0.5,0.2
				h-8.1c-0.1,0-0.2,0.1-0.2,0.2v2.3c0,0.2-0.1,0.4-0.2,0.6s-0.4,0.2-0.6,0.2s-0.4-0.1-0.6-0.2c-0.2-0.2-0.2-0.4-0.2-0.6v-2.3
				c0-0.1-0.1-0.2-0.1-0.2h-8c-0.2,0-0.4-0.1-0.5-0.2s-0.2-0.3-0.2-0.5s0.1-0.4,0.2-0.5s0.3-0.2,0.5-0.2h8c0.1,0,0.1-0.1,0.1-0.2
				v-1.5c0-0.1-0.1-0.2-0.1-0.2h-5.1c-0.3,0-0.6-0.1-0.9-0.4c-0.2-0.2-0.4-0.5-0.4-0.9v-6c0-0.3,0.1-0.6,0.4-0.9
				c0.2-0.2,0.5-0.4,0.9-0.4h5.1c0.1,0,0.1,0,0.1-0.1v-1.3c0-0.1-0.1-0.1-0.1-0.1h-7.3c-0.2,0-0.4-0.1-0.5-0.2
				c-0.1-0.2-0.2-0.3-0.2-0.5s0.1-0.4,0.2-0.5c0.1-0.1,0.3-0.2,0.5-0.2h7.3c0.1,0,0.1,0,0.1-0.1v-1c0-0.2,0.1-0.4,0.2-0.6
				c0.2-0.2,0.4-0.2,0.6-0.2s0.4,0.1,0.6,0.2c0.2,0.2,0.2,0.4,0.2,0.6v1c0,0.1,0.1,0.1,0.2,0.1h7.4c0.2,0,0.4,0.1,0.5,0.2
				c0.1,0.1,0.2,0.3,0.2,0.5s-0.1,0.4-0.2,0.5c-0.1,0.1-0.3,0.2-0.5,0.2h-7.4c-0.1,0-0.2,0.1-0.2,0.1v1.3c0,0.1,0.1,0.1,0.2,0.1h5.3
				c0.3,0,0.6,0.1,0.9,0.4s0.4,0.5,0.4,0.9v6c0,0.3-0.1,0.6-0.4,0.9s-0.5,0.4-0.9,0.4h-5.3c-0.1,0-0.2,0.1-0.2,0.2v1.5
				c0,0.1,0.1,0.2,0.2,0.2H138.7z M123.8,147.6c-0.1,0-0.1,0-0.1,0.1v1.9c0,0.1,0,0.1,0.1,0.1h4.7c0.1,0,0.1,0,0.1-0.1v-1.9
				c0-0.1-0.1-0.1-0.1-0.1H123.8z M123.7,153.2c0,0.1,0,0.1,0.1,0.1h4.7c0.1,0,0.1,0,0.1-0.1v-1.9c0-0.1-0.1-0.2-0.1-0.2h-4.7
				c-0.1,0-0.1,0.1-0.1,0.2V153.2z M135.4,147.8c0-0.1-0.1-0.1-0.1-0.1h-4.8c-0.1,0-0.2,0-0.2,0.1v1.9c0,0.1,0.1,0.1,0.2,0.1h4.8
				c0.1,0,0.1,0,0.1-0.1V147.8z M135.3,153.4c0.1,0,0.1,0,0.1-0.1v-1.9c0-0.1-0.1-0.2-0.1-0.2h-4.8c-0.1,0-0.2,0.1-0.2,0.2v1.9
				c0,0.1,0.1,0.1,0.2,0.1H135.3z"/>
		</g>
		<g id="XMLID_170_">
			<path id="XMLID_171_" d="M282.5,164c-0.4,0-0.7-0.1-1-0.4s-0.4-0.6-0.4-1s0.1-0.7,0.4-1s0.6-0.4,1-0.4h4.3c0.2,0,0.2-0.1,0.2-0.2
				v-19.2c0-0.2-0.1-0.3-0.2-0.3h-3.4c-0.3,0-0.6-0.1-0.8-0.3s-0.3-0.5-0.3-0.8c0-0.3,0.1-0.5,0.3-0.8s0.4-0.4,0.7-0.5
				c1.2-0.3,2.4-0.6,3.3-1.1c0.8-0.4,1.6-0.6,2.4-0.6c0.4,0,0.7,0.1,0.9,0.4s0.4,0.5,0.4,0.9V161c0,0.2,0.1,0.2,0.3,0.2h3.7
				c0.4,0,0.7,0.1,1,0.4s0.4,0.6,0.4,1s-0.1,0.7-0.4,1s-0.6,0.4-1,0.4H282.5z"/>
			<path id="XMLID_173_" d="M300.5,164c-0.3,0-0.5-0.1-0.7-0.3s-0.3-0.4-0.3-0.7c0-0.6,0.2-1.2,0.7-1.6c3.9-3.5,6.8-6.5,8.6-9.1
				s2.7-5,2.7-7.2c0-1.6-0.4-2.8-1.2-3.8s-2-1.4-3.6-1.4s-3.1,0.7-4.6,2.1c-0.3,0.3-0.6,0.4-0.9,0.4s-0.7-0.1-0.9-0.4
				s-0.4-0.6-0.4-0.9s0.1-0.7,0.4-0.9c2.1-2,4.3-3,6.8-3c2.3,0,4.2,0.7,5.6,2.1s2.1,3.3,2.1,5.7c0,2.5-0.9,5-2.6,7.6
				s-4.2,5.5-7.5,8.7c0,0-0.1,0.1,0,0.1s0.1,0.1,0.1,0.1c1.9-0.2,3.3-0.2,4-0.2h5.9c0.4,0,0.7,0.1,1,0.4s0.4,0.6,0.4,1
				s-0.1,0.7-0.4,1s-0.6,0.4-1,0.4H300.5z"/>
			<path id="XMLID_175_" d="M322.5,164c-0.4,0-0.7-0.1-1-0.4s-0.4-0.6-0.4-1s0.1-0.7,0.4-1s0.6-0.4,1-0.4h4.3c0.2,0,0.2-0.1,0.2-0.2
				v-19.2c0-0.2-0.1-0.3-0.2-0.3h-3.4c-0.3,0-0.6-0.1-0.8-0.3s-0.3-0.5-0.3-0.8c0-0.3,0.1-0.5,0.3-0.8s0.4-0.4,0.7-0.5
				c1.2-0.3,2.4-0.6,3.3-1.1c0.8-0.4,1.6-0.6,2.4-0.6c0.4,0,0.7,0.1,0.9,0.4s0.4,0.5,0.4,0.9V161c0,0.2,0.1,0.2,0.3,0.2h3.7
				c0.4,0,0.7,0.1,1,0.4s0.4,0.6,0.4,1s-0.1,0.7-0.4,1s-0.6,0.4-1,0.4H322.5z"/>
			<path id="XMLID_177_" d="M348.5,162.3c0,0.5-0.2,0.9-0.5,1.2s-0.8,0.5-1.2,0.5c-0.5,0-0.9-0.2-1.2-0.5s-0.5-0.7-0.5-1.1
				c0-3.8,0.7-7.7,2-11.9c1.1-3.3,2.8-6.6,5.1-9.9c0,0,0.1-0.1,0-0.1s-0.1-0.1-0.1-0.1h-11.1c-0.4,0-0.7-0.1-1-0.4s-0.4-0.6-0.4-1
				s0.1-0.7,0.4-1s0.6-0.4,1-0.4h14.1c0.3,0,0.5,0.1,0.7,0.3s0.3,0.4,0.3,0.7c0,0.6-0.2,1.2-0.6,1.8c-2.5,3.4-4.3,6.7-5.3,9.9
				S348.7,157.5,348.5,162.3z"/>
			<path id="XMLID_179_" d="M372.4,158.2c-0.1,0-0.2,0.1-0.2,0.2v1.5c0,0.1,0.1,0.2,0.2,0.2h2.6c0.2,0,0.4,0.1,0.6,0.2
				s0.2,0.3,0.2,0.5s-0.1,0.4-0.2,0.6s-0.3,0.2-0.6,0.2h-2.6c-0.1,0-0.2,0.1-0.2,0.2v3.3c0,0.2-0.1,0.4-0.2,0.6s-0.3,0.2-0.5,0.2
				s-0.4-0.1-0.5-0.2s-0.2-0.3-0.2-0.6v-3.3c0-0.1-0.1-0.2-0.2-0.2h-2.8c-0.2,0-0.4-0.1-0.6-0.2s-0.2-0.3-0.2-0.6s0.1-0.4,0.2-0.5
				s0.3-0.2,0.6-0.2h2.8c0.1,0,0.2-0.1,0.2-0.2v-1.5c0-0.1-0.1-0.2-0.2-0.2H369c-0.4,0-0.7-0.1-1-0.4s-0.4-0.6-0.4-1v-5.7
				c0-0.4,0.1-0.7,0.4-1s0.6-0.4,1-0.4h1.5c0.1,0,0.2-0.1,0.2-0.2v-1.4c0-0.1-0.1-0.2-0.2-0.2h-2.6c-0.2,0-0.4-0.1-0.6-0.2
				s-0.2-0.3-0.2-0.5s0.1-0.4,0.2-0.5s0.3-0.2,0.6-0.2h2.6c0.1,0,0.2-0.1,0.2-0.2v-1.6c0-0.2,0.1-0.4,0.2-0.6s0.3-0.2,0.5-0.2
				s0.4,0.1,0.5,0.2s0.2,0.3,0.2,0.6v1.6c0,0.1,0.1,0.2,0.2,0.2h2.4c0.2,0,0.4,0.1,0.6,0.2s0.2,0.3,0.2,0.5s-0.1,0.4-0.2,0.5
				s-0.3,0.2-0.6,0.2h-2.4c-0.1,0-0.2,0.1-0.2,0.2v1.4c0,0.1,0.1,0.2,0.2,0.2h1.5c0.4,0,0.7,0.1,1,0.4s0.4,0.6,0.4,1v5.7
				c0,0.4-0.1,0.7-0.4,1s-0.6,0.4-1,0.4H372.4z M369.1,151.1c-0.1,0-0.2,0.1-0.2,0.2v1.9c0,0.1,0.1,0.2,0.2,0.2h1.6
				c0.1,0,0.2-0.1,0.2-0.2v-1.9c0-0.1-0.1-0.2-0.2-0.2H369.1z M369.1,154.6c-0.1,0-0.2,0.1-0.2,0.2v1.9c0,0.1,0.1,0.2,0.2,0.2h1.6
				c0.1,0,0.2-0.1,0.2-0.2v-1.9c0-0.1-0.1-0.2-0.2-0.2H369.1z M373.9,153.3c0.1,0,0.2-0.1,0.2-0.2v-1.9c0-0.1-0.1-0.2-0.2-0.2h-1.6
				c-0.1,0-0.2,0.1-0.2,0.2v1.9c0,0.1,0.1,0.2,0.2,0.2H373.9z M373.9,156.9c0.1,0,0.2-0.1,0.2-0.2v-1.9c0-0.1-0.1-0.2-0.2-0.2h-1.6
				c-0.1,0-0.2,0.1-0.2,0.2v1.9c0,0.1,0.1,0.2,0.2,0.2H373.9z M388.5,146c0.2,0.1,0.2,0.3,0.2,0.6s-0.1,0.4-0.2,0.6
				s-0.3,0.2-0.5,0.2h-4.7c-0.1,0-0.2,0.1-0.2,0.2v2c0,0.1,0.1,0.2,0.2,0.2h3.8c0.4,0,0.7,0.1,1,0.4s0.4,0.6,0.4,1v12.8
				c0,0.4-0.1,0.8-0.2,1s-0.3,0.4-0.6,0.6c-0.4,0.2-1.2,0.3-2.2,0.3c-0.2,0-0.4-0.1-0.6-0.2s-0.3-0.3-0.4-0.6c0-0.2,0-0.3,0.1-0.5
				s0.2-0.2,0.4-0.2c0.4,0,0.7,0,0.9,0c0.3,0,0.5,0,0.7,0c0.1,0,0.2,0,0.3-0.1s0.1-0.2,0.1-0.3V161c0,0,0,0,0,0s0,0,0,0
				c-0.1,0.1-0.3,0.2-0.4,0.1s-0.3-0.1-0.4-0.2c-0.5-0.8-0.8-1.7-1-2.8c0,0,0,0,0,0s0,0,0,0c-0.2,1.1-0.6,1.9-1,2.6
				c-0.1,0.2-0.3,0.3-0.5,0.3s-0.4-0.1-0.6-0.2c0,0,0,0-0.1,0s0,0,0,0.1v4.2c0,0.2-0.1,0.3-0.2,0.4s-0.3,0.2-0.4,0.2
				s-0.3-0.1-0.4-0.2s-0.2-0.3-0.2-0.4v-4.2c0-0.1,0-0.1-0.1,0c-0.2,0.1-0.4,0.2-0.6,0.2s-0.4-0.2-0.4-0.3c-0.3-0.6-0.5-1.4-0.7-2.2
				c0,0,0,0,0,0s0,0,0,0c-0.2,1.1-0.6,2-1,2.7c-0.1,0.1-0.2,0.2-0.3,0.2s-0.2-0.1-0.3-0.2c-0.1-0.2-0.2-0.3-0.2-0.5
				c0-0.1,0-0.3,0.1-0.4c0.7-1.1,1.1-2.9,1.4-5.5c0-0.1,0-0.1-0.1-0.1H379c-0.2,0-0.3-0.1-0.4-0.2s-0.2-0.3-0.2-0.4s0.1-0.3,0.2-0.4
				s0.2-0.2,0.4-0.2h0.5c0.3,0,0.5,0.1,0.7,0.3s0.3,0.5,0.3,0.8c0,2.6,0.4,4.6,1.1,5.9c0,0,0,0,0.1,0s0,0,0,0v-8.8
				c0-0.1-0.1-0.2-0.2-0.2h-3.7c-0.1,0-0.2,0.1-0.2,0.2v13.7c0,0.2-0.1,0.3-0.2,0.5s-0.3,0.2-0.5,0.2s-0.4-0.1-0.5-0.2
				s-0.2-0.3-0.2-0.5v-14c0-0.4,0.1-0.7,0.4-1s0.6-0.4,1-0.4h3.6c0.1,0,0.2-0.1,0.2-0.2v-2c0-0.1-0.1-0.2-0.2-0.2h-4.5
				c-0.2,0-0.4-0.1-0.5-0.2s-0.2-0.3-0.2-0.6s0.1-0.4,0.2-0.6s0.3-0.2,0.5-0.2h11.1C388.1,145.8,388.3,145.9,388.5,146z
				 M386.9,160.1C386.9,160.1,386.9,160.1,386.9,160.1C386.9,160.1,387,160.1,386.9,160.1l0.1-8.7c0-0.1-0.1-0.2-0.2-0.2H383
				c-0.1,0-0.2,0.1-0.2,0.2v8.9c0,0,0,0.1,0,0.1s0.1,0,0.1,0c0.8-1,1.3-2.9,1.6-5.8c0-0.1,0-0.1-0.1-0.1h-0.4
				c-0.2,0-0.3-0.1-0.4-0.2s-0.2-0.3-0.2-0.4s0.1-0.3,0.2-0.4s0.2-0.2,0.4-0.2h0.5c0.3,0,0.6,0.1,0.8,0.3s0.3,0.5,0.3,0.8
				c0,1.2,0.1,2.2,0.3,3.2S386.4,159.4,386.9,160.1z"/>
		</g>
		<g id="XMLID_449_">
			<line id="XMLID_477_" class="st3" x1="159" y1="151.9" x2="185" y2="151.9"/>
		</g>
	</g>
	<g id="XMLID_669_" class="st1">
		<path id="XMLID_710_" class="st10" d="M238.3,121.1c-0.4,0-0.7-0.1-1-0.4c-0.5-0.5-0.5-1.4,0-2l2.1-2.1l-0.2-0.3
			c-0.2-0.5-0.7-0.8-1.2-0.8h-3.8c-0.8,0-1.4-0.6-1.4-1.4s0.6-1.4,1.4-1.4h3.8c1.6,0,3,0.9,3.7,2.3l0.6,1.2c0.3,0.5,0.2,1.2-0.3,1.6
			l-2.8,2.8C239,121,238.7,121.1,238.3,121.1z"/>
		<path id="XMLID_707_" class="st6" d="M202.3,162.8c-9.2,0-16.7-7.5-16.7-16.7c0-9.2,7.5-16.7,16.7-16.7s16.7,7.5,16.7,16.7
			C218.9,155.3,211.4,162.8,202.3,162.8z M202.3,132.2c-7.7,0-13.9,6.2-13.9,13.9c0,7.7,6.2,13.9,13.9,13.9
			c7.7,0,13.9-6.2,13.9-13.9C216.1,138.5,209.9,132.2,202.3,132.2z"/>
		<path id="XMLID_704_" class="st11" d="M202.3,160c-7.7,0-13.9-6.2-13.9-13.9c0-7.7,6.2-13.9,13.9-13.9c7.7,0,13.9,6.2,13.9,13.9
			C216.1,153.8,209.9,160,202.3,160z M202.3,135c-6.1,0-11.1,5-11.1,11.1c0,6.1,5,11.1,11.1,11.1s11.1-5,11.1-11.1
			C213.4,140,208.4,135,202.3,135z"/>
		<path id="XMLID_701_" class="st6" d="M249.4,162.8c-9.2,0-16.7-7.5-16.7-16.7c0-9.2,7.5-16.7,16.7-16.7s16.7,7.5,16.7,16.7
			C266.1,155.3,258.6,162.8,249.4,162.8z M249.4,132.2c-7.7,0-13.9,6.2-13.9,13.9c0,7.7,6.2,13.9,13.9,13.9
			c7.7,0,13.9-6.2,13.9-13.9C263.3,138.5,257.1,132.2,249.4,132.2z"/>
		<path id="XMLID_698_" class="st11" d="M249.4,160c-7.7,0-13.9-6.2-13.9-13.9c0-7.7,6.2-13.9,13.9-13.9c7.7,0,13.9,6.2,13.9,13.9
			C263.3,153.8,257.1,160,249.4,160z M249.4,135c-6.1,0-11.1,5-11.1,11.1c0,6.1,5,11.1,11.1,11.1s11.1-5,11.1-11.1
			C260.5,140,255.6,135,249.4,135z"/>
		<g id="XMLID_695_">
			<circle id="XMLID_697_" class="st21" cx="202.3" cy="146.1" r="2.8"/>
			<circle id="XMLID_696_" class="st21" cx="249.4" cy="146.1" r="1.4"/>
		</g>
		<path id="XMLID_691_" class="st12" d="M250.6,145.4l-4.1-6.8l-6.9-19.3c-0.3-0.7-1.1-1.1-1.8-0.8c-0.7,0.3-1.1,1.1-0.8,1.8
			l0.4,1.1c-5.9,1.9-9.1,6.3-11.7,9.9c-1.6,2.2-3,4-4.6,5.1l-5-14.3l-2.6,0.9l2.9,8.2l-15,13.9c-0.4,0.4-0.6,1-0.3,1.5
			s0.7,0.9,1.3,0.9h20.8c4.3,0,6.3-4.2,8.4-8.6c2-4.1,4.2-8.7,8.4-10.8l4.1,11.5c0,0.1,0.1,0.2,0.1,0.2l4.2,6.9
			c0.3,0.4,0.7,0.7,1.2,0.7c0.2,0,0.5-0.1,0.7-0.2C250.8,146.9,251,146.1,250.6,145.4z M217.3,134l3.8,10.7h-15.3L217.3,134z
			 M228.9,137.7c-1.8,3.8-3.1,6.3-4.9,6.9l-2-5.6c2.4-1.3,4.1-3.7,5.9-6.1c2.6-3.6,5.3-7.3,10.4-8.9l0.6,1.6
			C233.6,127.9,231,133.3,228.9,137.7z"/>
		<path id="XMLID_690_" class="st10" d="M209.2,122.5c0,0.8,0.6,1.4,1.4,1.4h4.2c1,0,4-0.7,5.7-1.1c0.7-0.2,1.2-0.8,1.2-1.5l0,0
			c0-0.9-0.7-1.6-1.6-1.6h-9.5c-0.8,0-1.4,0.6-1.4,1.4L209.2,122.5L209.2,122.5z"/>
		<path id="XMLID_687_" class="st21" d="M224.5,153.1c-3.1,0-5.6-2.5-5.6-5.6c0-3.1,2.5-5.6,5.6-5.6c3.1,0,5.6,2.5,5.6,5.6
			C230,150.6,227.5,153.1,224.5,153.1z M224.5,144.7c-1.5,0-2.8,1.2-2.8,2.8s1.2,2.8,2.8,2.8c1.5,0,2.8-1.2,2.8-2.8
			C227.2,146,226,144.7,224.5,144.7z"/>
		<path id="XMLID_686_" class="st10" d="M227.2,157.2c-0.6,0-1.1-0.4-1.3-0.9l-2.8-8.3c-0.2-0.7,0.2-1.5,0.9-1.8
			c0.7-0.2,1.5,0.2,1.8,0.9l2.8,8.3c0.2,0.7-0.2,1.5-0.9,1.8C227.5,157.2,227.4,157.2,227.2,157.2z"/>
		<path id="XMLID_685_" class="st22" d="M230,157.2h-4.2c-0.8,0-1.4-0.6-1.4-1.4c0-0.8,0.6-1.4,1.4-1.4h4.2c0.8,0,1.4,0.6,1.4,1.4
			C231.4,156.6,230.8,157.2,230,157.2z"/>
		<g id="XMLID_684_">
		</g>
		<g id="XMLID_683_">
		</g>
		<g id="XMLID_682_">
		</g>
		<g id="XMLID_681_">
		</g>
		<g id="XMLID_680_">
		</g>
		<g id="XMLID_679_">
		</g>
		<g id="XMLID_678_">
		</g>
		<g id="XMLID_677_">
		</g>
		<g id="XMLID_676_">
		</g>
		<g id="XMLID_675_">
		</g>
		<g id="XMLID_674_">
		</g>
		<g id="XMLID_673_">
		</g>
		<g id="XMLID_672_">
		</g>
		<g id="XMLID_671_">
		</g>
		<g id="XMLID_670_">
		</g>
	</g>
</g>
<g id="XMLID_239_" class="st0">
	<g id="XMLID_1150_" class="st1">
		<rect id="XMLID_861_" x="147.2" y="220.1" class="st2" width="12.9" height="22.4"/>
		<g id="XMLID_228_">
			<path id="XMLID_229_" d="M103.4,224.3c0.1-0.2,0.3-0.4,0.5-0.5c0.1-0.1,0.3-0.1,0.4-0.1c0.1,0,0.2,0,0.3,0
				c0.2,0.1,0.4,0.2,0.5,0.4c0.1,0.1,0.1,0.2,0.1,0.3c0,0.1,0,0.2-0.1,0.3c-1.3,2.9-3,5.4-5,7.4c-0.2,0.2-0.4,0.3-0.7,0.3
				c0,0,0,0,0,0c-0.3,0-0.5-0.1-0.7-0.3c-0.2-0.2-0.3-0.4-0.3-0.6c0-0.2,0.1-0.4,0.2-0.5C100.6,229.3,102.1,227,103.4,224.3z
				 M110.6,236.1c-0.1-0.2-0.2-0.4-0.1-0.6c0-0.2,0.2-0.3,0.4-0.4c0.1-0.1,0.3-0.1,0.4-0.1c0.1,0,0.2,0,0.3,0c0.2,0,0.4,0.2,0.6,0.4
				c1.7,2.1,3.2,4,4.3,5.8c0.1,0.1,0.1,0.3,0.1,0.4c0,0.1,0,0.1,0,0.2c-0.1,0.2-0.2,0.4-0.4,0.6c-0.1,0.1-0.3,0.1-0.4,0.1
				c-0.1,0-0.2,0-0.3,0c-0.2-0.1-0.4-0.2-0.6-0.4c-0.2-0.3-0.3-0.6-0.5-0.9c-0.1-0.1-0.1-0.1-0.2-0.1c-2.1,0.1-6.8,0.4-14.2,0.7
				c0,0-0.1,0-0.1,0c-0.2,0-0.4-0.1-0.6-0.2c-0.2-0.2-0.3-0.4-0.3-0.6c0,0,0-0.1,0-0.1c0-0.2,0.1-0.3,0.2-0.5
				c0.1-0.2,0.3-0.3,0.6-0.3c1,0,1.6,0,2-0.1c0.1,0,0.2,0,0.2-0.1c1.5-2.7,2.7-5.4,3.7-8.3c0.1-0.3,0.3-0.4,0.5-0.6
				c0.2-0.1,0.3-0.1,0.5-0.1c0.1,0,0.2,0,0.3,0c0.2,0.1,0.4,0.2,0.5,0.4c0.1,0.1,0.1,0.3,0.1,0.4c0,0.1,0,0.2-0.1,0.3
				c-1.3,3-2.5,5.6-3.7,7.8c0,0,0,0.1,0,0.1s0,0,0.1,0c2.2-0.1,5.3-0.2,9.3-0.4c0,0,0,0,0.1-0.1c0,0,0-0.1,0-0.1
				C112.3,238.2,111.5,237.1,110.6,236.1z M110.3,224.9c-0.1-0.1-0.1-0.2-0.1-0.4c0-0.1,0-0.2,0-0.3c0.1-0.2,0.2-0.4,0.4-0.4
				c0.1,0,0.2-0.1,0.4-0.1c0.1,0,0.2,0,0.3,0c0.2,0.1,0.4,0.2,0.5,0.4c0.7,1.1,1.4,2.3,2.4,3.5c0.9,1.2,1.8,2.3,2.7,3.2
				c0.2,0.2,0.3,0.4,0.3,0.6c0,0.3-0.1,0.5-0.3,0.7c-0.2,0.2-0.4,0.3-0.6,0.3c0,0,0,0,0,0c-0.2,0-0.4-0.1-0.6-0.3
				c-0.9-1-1.8-2.2-2.8-3.5C111.9,227.4,111,226.1,110.3,224.9z"/>
			<path id="XMLID_233_" d="M138.7,237.7c0.2,0,0.4,0.1,0.5,0.2c0.1,0.1,0.2,0.3,0.2,0.5s-0.1,0.4-0.2,0.5c-0.1,0.1-0.3,0.2-0.5,0.2
				h-8.1c-0.1,0-0.2,0.1-0.2,0.2v2.3c0,0.2-0.1,0.4-0.2,0.6s-0.4,0.2-0.6,0.2s-0.4-0.1-0.6-0.2c-0.2-0.2-0.2-0.4-0.2-0.6v-2.3
				c0-0.1-0.1-0.2-0.1-0.2h-8c-0.2,0-0.4-0.1-0.5-0.2s-0.2-0.3-0.2-0.5s0.1-0.4,0.2-0.5s0.3-0.2,0.5-0.2h8c0.1,0,0.1-0.1,0.1-0.2
				V236c0-0.1-0.1-0.2-0.1-0.2h-5.1c-0.3,0-0.6-0.1-0.9-0.4c-0.2-0.2-0.4-0.5-0.4-0.9v-6c0-0.3,0.1-0.6,0.4-0.9
				c0.2-0.2,0.5-0.4,0.9-0.4h5.1c0.1,0,0.1,0,0.1-0.1V226c0-0.1-0.1-0.1-0.1-0.1h-7.3c-0.2,0-0.4-0.1-0.5-0.2
				c-0.1-0.2-0.2-0.3-0.2-0.5s0.1-0.4,0.2-0.5c0.1-0.1,0.3-0.2,0.5-0.2h7.3c0.1,0,0.1,0,0.1-0.1v-1c0-0.2,0.1-0.4,0.2-0.6
				c0.2-0.2,0.4-0.2,0.6-0.2s0.4,0.1,0.6,0.2c0.2,0.2,0.2,0.4,0.2,0.6v1c0,0.1,0.1,0.1,0.2,0.1h7.4c0.2,0,0.4,0.1,0.5,0.2
				c0.1,0.1,0.2,0.3,0.2,0.5s-0.1,0.4-0.2,0.5c-0.1,0.1-0.3,0.2-0.5,0.2h-7.4c-0.1,0-0.2,0.1-0.2,0.1v1.3c0,0.1,0.1,0.1,0.2,0.1h5.3
				c0.3,0,0.6,0.1,0.9,0.4s0.4,0.5,0.4,0.9v6c0,0.3-0.1,0.6-0.4,0.9s-0.5,0.4-0.9,0.4h-5.3c-0.1,0-0.2,0.1-0.2,0.2v1.5
				c0,0.1,0.1,0.2,0.2,0.2H138.7z M123.8,228.8c-0.1,0-0.1,0-0.1,0.1v1.9c0,0.1,0,0.1,0.1,0.1h4.7c0.1,0,0.1,0,0.1-0.1v-1.9
				c0-0.1-0.1-0.1-0.1-0.1H123.8z M123.7,234.4c0,0.1,0,0.1,0.1,0.1h4.7c0.1,0,0.1,0,0.1-0.1v-1.9c0-0.1-0.1-0.2-0.1-0.2h-4.7
				c-0.1,0-0.1,0.1-0.1,0.2V234.4z M135.4,228.9c0-0.1-0.1-0.1-0.1-0.1h-4.8c-0.1,0-0.2,0-0.2,0.1v1.9c0,0.1,0.1,0.1,0.2,0.1h4.8
				c0.1,0,0.1,0,0.1-0.1V228.9z M135.3,234.5c0.1,0,0.1,0,0.1-0.1v-1.9c0-0.1-0.1-0.2-0.1-0.2h-4.8c-0.1,0-0.2,0.1-0.2,0.2v1.9
				c0,0.1,0.1,0.1,0.2,0.1H135.3z"/>
		</g>
		<g id="XMLID_211_">
			<path id="XMLID_212_" d="M320.8,242.4c-3,0-5.4-0.9-7.5-2.6c-0.3-0.3-0.5-0.6-0.5-1.1c0-0.4,0.1-0.7,0.3-0.9s0.5-0.4,0.9-0.5
				c0.4,0,0.7,0.1,1,0.3c1.6,1.4,3.5,2.1,5.6,2.1c1.6,0,2.9-0.4,3.9-1.3s1.5-2.1,1.5-3.6c0-3.3-2.3-5-7-5.2c-0.4,0-0.7-0.2-0.9-0.4
				s-0.4-0.5-0.4-0.9s0.1-0.7,0.4-0.9s0.5-0.4,0.9-0.4c2.1-0.2,3.6-0.7,4.6-1.6s1.4-2,1.4-3.4c0-1.3-0.4-2.3-1.2-3.1
				c-0.8-0.8-1.9-1.2-3.3-1.2c-1.5,0-3,0.6-4.4,1.7c-0.3,0.2-0.6,0.3-1,0.3c-0.4,0-0.7-0.2-0.9-0.5s-0.3-0.6-0.3-1s0.2-0.7,0.5-0.9
				c1.9-1.5,4.1-2.3,6.3-2.3s4.1,0.6,5.5,1.8c1.4,1.2,2.1,2.8,2.1,4.9c0,1.5-0.4,2.9-1.2,3.9c-0.8,1.1-2,1.9-3.4,2.4
				c0,0-0.1,0.1-0.1,0.1c0,0,0,0.1,0.1,0.1c1.6,0.4,3,1.2,4,2.4c1,1.2,1.5,2.6,1.5,4.3c0,2.3-0.8,4.1-2.4,5.5
				C325.2,241.7,323.2,242.4,320.8,242.4z"/>
			<path id="XMLID_214_" d="M348.2,216.8c0.3,0.3,0.4,0.6,0.4,1s-0.1,0.7-0.4,1c-0.2,0.3-0.5,0.4-0.9,0.4c-0.4,0-0.7-0.1-1-0.3
				c-1-0.7-2.1-1.1-3.3-1.1c-2,0-3.6,0.8-4.8,2.5c-1.2,1.7-1.9,4.4-2,8.2c0,0,0,0.1,0,0.1c0,0,0.1,0,0.1,0c0.8-0.9,1.7-1.7,2.8-2.2
				c1-0.5,2.1-0.8,3.1-0.8c2.3,0,4.1,0.7,5.4,2.1s1.9,3.5,1.9,6.2c0,2.5-0.7,4.5-2.2,6.1c-1.5,1.6-3.3,2.4-5.4,2.4
				c-2.6,0-4.8-1.1-6.4-3.4c-1.6-2.2-2.4-5.5-2.4-9.7c0-2.5,0.3-4.7,0.8-6.6c0.5-1.9,1.3-3.4,2.2-4.5s2-1.9,3.1-2.4
				c1.1-0.5,2.4-0.8,3.7-0.8C345,215.1,346.7,215.7,348.2,216.8z M342.1,239.9c1.3,0,2.4-0.6,3.2-1.7s1.3-2.6,1.3-4.3
				c0-1.8-0.4-3.3-1.2-4.3c-0.8-1-2-1.5-3.6-1.5c-1.9,0-3.7,1.1-5.2,3.2c-0.1,0.1-0.2,0.3-0.1,0.5c0.2,2.7,0.8,4.7,1.8,6.1
				S340.4,239.9,342.1,239.9z"/>
			<path id="XMLID_217_" d="M361.2,242.4c-2.6,0-4.6-1.2-6.1-3.5c-1.5-2.3-2.2-5.7-2.2-10.2c0-4.5,0.7-7.9,2.2-10.2
				c1.5-2.3,3.5-3.4,6.1-3.4c2.6,0,4.6,1.1,6,3.4c1.5,2.3,2.2,5.7,2.2,10.2c0,4.5-0.7,7.9-2.2,10.2
				C365.8,241.3,363.8,242.4,361.2,242.4z M361.2,239.8c1.5,0,2.8-0.9,3.7-2.8c0.9-1.8,1.3-4.6,1.3-8.4c0-3.7-0.4-6.5-1.3-8.2
				s-2.1-2.7-3.7-2.7c-1.6,0-2.8,0.9-3.7,2.7s-1.3,4.5-1.3,8.2c0,3.8,0.4,6.5,1.3,8.4C358.4,238.9,359.6,239.8,361.2,239.8z"/>
			<path id="XMLID_220_" d="M385.7,236.2c-0.1,0-0.2,0.1-0.2,0.2v1.5c0,0.1,0.1,0.2,0.2,0.2h2.6c0.2,0,0.4,0.1,0.6,0.2
				s0.2,0.3,0.2,0.5s-0.1,0.4-0.2,0.6s-0.3,0.2-0.6,0.2h-2.6c-0.1,0-0.2,0.1-0.2,0.2v3.3c0,0.2-0.1,0.4-0.2,0.6s-0.3,0.2-0.5,0.2
				s-0.4-0.1-0.5-0.2s-0.2-0.3-0.2-0.6v-3.3c0-0.1-0.1-0.2-0.2-0.2H381c-0.2,0-0.4-0.1-0.6-0.2s-0.2-0.3-0.2-0.6s0.1-0.4,0.2-0.5
				s0.3-0.2,0.6-0.2h2.8c0.1,0,0.2-0.1,0.2-0.2v-1.5c0-0.1-0.1-0.2-0.2-0.2h-1.5c-0.4,0-0.7-0.1-1-0.4s-0.4-0.6-0.4-1v-5.7
				c0-0.4,0.1-0.7,0.4-1s0.6-0.4,1-0.4h1.5c0.1,0,0.2-0.1,0.2-0.2v-1.4c0-0.1-0.1-0.2-0.2-0.2h-2.6c-0.2,0-0.4-0.1-0.6-0.2
				s-0.2-0.3-0.2-0.5s0.1-0.4,0.2-0.5s0.3-0.2,0.6-0.2h2.6c0.1,0,0.2-0.1,0.2-0.2v-1.6c0-0.2,0.1-0.4,0.2-0.6s0.3-0.2,0.5-0.2
				s0.4,0.1,0.5,0.2s0.2,0.3,0.2,0.6v1.6c0,0.1,0.1,0.2,0.2,0.2h2.4c0.2,0,0.4,0.1,0.6,0.2s0.2,0.3,0.2,0.5s-0.1,0.4-0.2,0.5
				s-0.3,0.2-0.6,0.2h-2.4c-0.1,0-0.2,0.1-0.2,0.2v1.4c0,0.1,0.1,0.2,0.2,0.2h1.5c0.4,0,0.7,0.1,1,0.4s0.4,0.6,0.4,1v5.7
				c0,0.4-0.1,0.7-0.4,1s-0.6,0.4-1,0.4H385.7z M382.4,229.1c-0.1,0-0.2,0.1-0.2,0.2v1.9c0,0.1,0.1,0.2,0.2,0.2h1.6
				c0.1,0,0.2-0.1,0.2-0.2v-1.9c0-0.1-0.1-0.2-0.2-0.2H382.4z M382.4,232.6c-0.1,0-0.2,0.1-0.2,0.2v1.9c0,0.1,0.1,0.2,0.2,0.2h1.6
				c0.1,0,0.2-0.1,0.2-0.2v-1.9c0-0.1-0.1-0.2-0.2-0.2H382.4z M387.2,231.3c0.1,0,0.2-0.1,0.2-0.2v-1.9c0-0.1-0.1-0.2-0.2-0.2h-1.6
				c-0.1,0-0.2,0.1-0.2,0.2v1.9c0,0.1,0.1,0.2,0.2,0.2H387.2z M387.2,234.9c0.1,0,0.2-0.1,0.2-0.2v-1.9c0-0.1-0.1-0.2-0.2-0.2h-1.6
				c-0.1,0-0.2,0.1-0.2,0.2v1.9c0,0.1,0.1,0.2,0.2,0.2H387.2z M401.8,224c0.2,0.1,0.2,0.3,0.2,0.6s-0.1,0.4-0.2,0.6
				s-0.3,0.2-0.5,0.2h-4.7c-0.1,0-0.2,0.1-0.2,0.2v2c0,0.1,0.1,0.2,0.2,0.2h3.8c0.4,0,0.7,0.1,1,0.4s0.4,0.6,0.4,1v12.8
				c0,0.4-0.1,0.8-0.2,1s-0.3,0.4-0.6,0.6c-0.4,0.2-1.2,0.3-2.2,0.3c-0.2,0-0.4-0.1-0.6-0.2s-0.3-0.3-0.4-0.6c0-0.2,0-0.3,0.1-0.5
				s0.2-0.2,0.4-0.2c0.4,0,0.7,0,0.9,0c0.3,0,0.5,0,0.7,0c0.1,0,0.2,0,0.3-0.1s0.1-0.2,0.1-0.3V239c0,0,0,0,0,0s0,0,0,0
				c-0.1,0.1-0.3,0.2-0.4,0.1s-0.3-0.1-0.4-0.2c-0.5-0.8-0.8-1.7-1-2.8c0,0,0,0,0,0s0,0,0,0c-0.2,1.1-0.6,1.9-1,2.6
				c-0.1,0.2-0.3,0.3-0.5,0.3s-0.4-0.1-0.6-0.2c0,0,0,0-0.1,0s0,0,0,0.1v4.2c0,0.2-0.1,0.3-0.2,0.4s-0.3,0.2-0.4,0.2
				s-0.3-0.1-0.4-0.2s-0.2-0.3-0.2-0.4v-4.2c0-0.1,0-0.1-0.1,0c-0.2,0.1-0.4,0.2-0.6,0.2s-0.4-0.2-0.4-0.3c-0.3-0.6-0.5-1.4-0.7-2.2
				c0,0,0,0,0,0s0,0,0,0c-0.2,1.1-0.6,2-1,2.7c-0.1,0.1-0.2,0.2-0.3,0.2s-0.2-0.1-0.3-0.2c-0.1-0.2-0.2-0.3-0.2-0.5
				c0-0.1,0-0.3,0.1-0.4c0.7-1.1,1.1-2.9,1.4-5.5c0-0.1,0-0.1-0.1-0.1h-0.4c-0.2,0-0.3-0.1-0.4-0.2s-0.2-0.3-0.2-0.4
				s0.1-0.3,0.2-0.4s0.2-0.2,0.4-0.2h0.5c0.3,0,0.5,0.1,0.7,0.3s0.3,0.5,0.3,0.8c0,2.6,0.4,4.6,1.1,5.9c0,0,0,0,0.1,0s0,0,0,0v-8.8
				c0-0.1-0.1-0.2-0.2-0.2h-3.7c-0.1,0-0.2,0.1-0.2,0.2v13.7c0,0.2-0.1,0.3-0.2,0.5s-0.3,0.2-0.5,0.2s-0.4-0.1-0.5-0.2
				s-0.2-0.3-0.2-0.5v-14c0-0.4,0.1-0.7,0.4-1s0.6-0.4,1-0.4h3.6c0.1,0,0.2-0.1,0.2-0.2v-2c0-0.1-0.1-0.2-0.2-0.2h-4.5
				c-0.2,0-0.4-0.1-0.5-0.2s-0.2-0.3-0.2-0.6s0.1-0.4,0.2-0.6s0.3-0.2,0.5-0.2h11.1C401.5,223.8,401.6,223.8,401.8,224z
				 M400.2,238.1C400.2,238.1,400.2,238.1,400.2,238.1C400.3,238.1,400.3,238.1,400.2,238.1l0.1-8.7c0-0.1-0.1-0.2-0.2-0.2h-3.8
				c-0.1,0-0.2,0.1-0.2,0.2v8.9c0,0,0,0.1,0,0.1s0.1,0,0.1,0c0.8-1,1.3-2.9,1.6-5.8c0-0.1,0-0.1-0.1-0.1h-0.4
				c-0.2,0-0.3-0.1-0.4-0.2s-0.2-0.3-0.2-0.4s0.1-0.3,0.2-0.4s0.2-0.2,0.4-0.2h0.5c0.3,0,0.6,0.1,0.8,0.3s0.3,0.5,0.3,0.8
				c0,1.2,0.1,2.2,0.3,3.2S399.7,237.3,400.2,238.1z"/>
		</g>
	</g>
	<g id="XMLID_601_" class="st1">
		<g id="XMLID_666_">
			<path id="XMLID_668_" class="st23" d="M261.6,198.8h-35.1c-1.3,0-2.3,1-2.3,2.3v4.7h42.1v-2.3
				C266.3,200.9,264.2,198.8,261.6,198.8z"/>
			<path id="XMLID_667_" class="st23" d="M219.5,201.2H189c-1.3,0-2.3,1-2.3,2.3v2.3h35.1v-2.3C221.8,202.2,220.7,201.2,219.5,201.2
				z"/>
		</g>
		<path id="XMLID_665_" class="st16" d="M160.9,203.5h126.9c1.1,0,2,0.8,2.3,1.8l4.2,19c0,0.2,0.1,0.3,0.1,0.5v13.8
			c0,1.3-1,2.3-2.3,2.3h-96l-35.3-2.2c-1.2-0.1-2.2-1.1-2.2-2.3v-30.6C158.6,204.6,159.6,203.5,160.9,203.5z"/>
		<path id="XMLID_664_" class="st10" d="M164.4,224.6h129.7c0.1-0.1,0.1-0.1,0.2-0.3l-3.6-16.1H164.4c-0.6,0-1.2,0.5-1.2,1.2v14
			C163.3,224.1,163.8,224.6,164.4,224.6z"/>
		<path id="XMLID_663_" class="st23" d="M160.8,238.8L196,241h96c1.3,0,2.3-1,2.3-2.3v-4.7H158.6v2.5
			C158.6,237.7,159.6,238.7,160.8,238.8z"/>
		<circle id="XMLID_656_" class="st6" cx="193.7" cy="238.6" r="7"/>
		<circle id="XMLID_655_" class="st7" cx="193.7" cy="238.6" r="3.5"/>
		<circle id="XMLID_654_" class="st6" cx="261.6" cy="238.6" r="7"/>
		<circle id="XMLID_653_" class="st7" cx="261.6" cy="238.6" r="3.5"/>
		<g id="XMLID_650_">
			<path id="XMLID_652_" class="st6" d="M273.3,210.5H285c1.3,0,2.3,1,2.3,2.3v25.8c0,1.3-1,2.3-2.3,2.3h-11.7c-1.3,0-2.3-1-2.3-2.3
				v-25.8C271,211.6,272,210.5,273.3,210.5z"/>
			<path id="XMLID_651_" class="st6" d="M212.4,210.5h11.7c1.3,0,2.3,1,2.3,2.3v25.8c0,1.3-1,2.3-2.3,2.3h-11.7
				c-1.3,0-2.3-1-2.3-2.3v-25.8C210.1,211.6,211.1,210.5,212.4,210.5z"/>
		</g>
		<g id="XMLID_645_">
			<path id="XMLID_649_" class="st10" d="M215.9,236.3h-2.3c-0.6,0-1.2-0.5-1.2-1.2v-18.7c0-0.6,0.5-1.2,1.2-1.2h2.3
				c0.6,0,1.2,0.5,1.2,1.2v18.7C217.1,235.8,216.6,236.3,215.9,236.3z"/>
			<path id="XMLID_648_" class="st10" d="M223,236.3h-2.3c-0.6,0-1.2-0.5-1.2-1.2v-18.7c0-0.6,0.5-1.2,1.2-1.2h2.3
				c0.6,0,1.2,0.5,1.2,1.2v18.7C224.1,235.8,223.6,236.3,223,236.3z"/>
			<path id="XMLID_647_" class="st10" d="M276.8,236.3h-2.3c-0.6,0-1.2-0.5-1.2-1.2v-18.7c0-0.6,0.5-1.2,1.2-1.2h2.3
				c0.6,0,1.2,0.5,1.2,1.2v18.7C278,235.8,277.5,236.3,276.8,236.3z"/>
			<path id="XMLID_646_" class="st10" d="M283.8,236.3h-2.3c-0.6,0-1.2-0.5-1.2-1.2v-18.7c0-0.6,0.5-1.2,1.2-1.2h2.3
				c0.6,0,1.2,0.5,1.2,1.2v18.7C285,235.8,284.5,236.3,283.8,236.3z"/>
		</g>
		<g id="XMLID_639_">
			<path id="XMLID_644_" class="st21" d="M230,222.2h16.4c0.6,0,1.2-0.5,1.2-1.2v-9.4c0-0.6-0.5-1.2-1.2-1.2H230
				c-0.6,0-1.2,0.5-1.2,1.2v9.4C228.8,221.7,229.3,222.2,230,222.2z"/>
			<path id="XMLID_643_" class="st21" d="M190.2,222.2h16.4c0.6,0,1.2-0.5,1.2-1.2v-9.4c0-0.6-0.5-1.2-1.2-1.2h-16.4
				c-0.6,0-1.2,0.5-1.2,1.2v9.4C189,221.7,189.5,222.2,190.2,222.2z"/>
			<path id="XMLID_642_" class="st21" d="M169.1,222.2h16.4c0.6,0,1.2-0.5,1.2-1.2v-9.4c0-0.6-0.5-1.2-1.2-1.2h-16.4
				c-0.6,0-1.2,0.5-1.2,1.2v9.4C168,221.7,168.5,222.2,169.1,222.2z"/>
			<path id="XMLID_641_" class="st21" d="M251.1,222.2h16.4c0.6,0,1.2-0.5,1.2-1.2v-9.4c0-0.6-0.5-1.2-1.2-1.2h-16.4
				c-0.6,0-1.2,0.5-1.2,1.2v9.4C249.9,221.7,250.4,222.2,251.1,222.2z"/>
			<path id="XMLID_640_" class="st21" d="M291.2,210.5h-0.4c-0.6,0-1.2,0.5-1.2,1.2v9.4c0,0.6,0.5,1.2,1.2,1.2h3L291.2,210.5z"/>
		</g>
		<g id="XMLID_638_">
		</g>
		<g id="XMLID_636_">
		</g>
		<g id="XMLID_635_">
		</g>
		<g id="XMLID_634_">
		</g>
		<g id="XMLID_633_">
		</g>
		<g id="XMLID_614_">
		</g>
		<g id="XMLID_613_">
		</g>
		<g id="XMLID_612_">
		</g>
		<g id="XMLID_609_">
		</g>
		<g id="XMLID_607_">
		</g>
		<g id="XMLID_606_">
		</g>
		<g id="XMLID_605_">
		</g>
		<g id="XMLID_604_">
		</g>
		<g id="XMLID_603_">
		</g>
		<g id="XMLID_602_">
		</g>
	</g>
</g>
<g id="XMLID_129_" class="st0">
	<g id="XMLID_1147_" class="st1">
		<rect id="XMLID_864_" x="147.2" y="-18.4" class="st2" width="76.8" height="22.4"/>
		<g id="XMLID_121_">
			<path id="XMLID_122_" d="M103.1-10.8c0.1-0.2,0.3-0.3,0.5-0.4c0.1,0,0.2-0.1,0.3-0.1c0.1,0,0.2,0,0.4,0.1
				c0.2,0.1,0.3,0.2,0.4,0.4c0.1,0.2,0,0.4-0.1,0.6c-0.5,0.8-1.1,1.6-1.9,2.5c-0.1,0.1-0.1,0.2-0.1,0.3V3.1c0,0.2-0.1,0.4-0.2,0.6
				c-0.2,0.2-0.3,0.2-0.6,0.2s-0.4-0.1-0.6-0.2c-0.2-0.2-0.2-0.3-0.2-0.6v-8.8c0,0,0,0,0-0.1c0,0-0.1,0-0.1,0
				c-0.6,0.6-1.2,1.2-1.7,1.6c-0.2,0.1-0.3,0.2-0.5,0.2c0,0-0.1,0-0.1,0c-0.2,0-0.4-0.1-0.6-0.3c-0.1-0.2-0.2-0.3-0.2-0.5
				c0-0.3,0.1-0.5,0.3-0.7c0.9-0.7,1.8-1.5,2.6-2.5C101.6-8.8,102.4-9.8,103.1-10.8z M102.1-15.5c0.2-0.2,0.4-0.3,0.6-0.4
				c0.1,0,0.2,0,0.3,0c0.1,0,0.3,0,0.4,0.1c0.2,0.1,0.3,0.2,0.4,0.4c0.1,0.2,0,0.4-0.1,0.6c-0.6,0.7-1.3,1.5-2.1,2.2
				c-0.8,0.8-1.6,1.5-2.4,2.1c-0.2,0.1-0.4,0.2-0.6,0.2c-0.2,0-0.4-0.1-0.5-0.3c-0.1-0.2-0.2-0.4-0.1-0.6c0-0.2,0.1-0.4,0.3-0.5
				c0.7-0.5,1.4-1.1,2.1-1.8C101.1-14.3,101.6-14.9,102.1-15.5z M116.8-8.8c0.2,0,0.4,0.1,0.6,0.2s0.2,0.3,0.2,0.6
				c0,0.2-0.1,0.4-0.2,0.6s-0.3,0.2-0.6,0.2h-2.3c-0.1,0-0.2,0-0.2,0.1v8.9c0,0.5-0.1,0.9-0.2,1.2c-0.1,0.3-0.4,0.5-0.7,0.6
				c-0.5,0.1-1.6,0.2-3.3,0.3c-0.2,0-0.5-0.1-0.6-0.2c-0.2-0.1-0.3-0.3-0.4-0.6c-0.1-0.2,0-0.4,0.1-0.5c0.1-0.2,0.3-0.2,0.4-0.2
				c0.6,0,1.2,0,1.6,0c0.4,0,0.7,0,1,0c0.2,0,0.4-0.1,0.4-0.1c0.1-0.1,0.1-0.2,0.1-0.4v-8.9c0-0.1-0.1-0.1-0.1-0.1h-6.4
				c-0.2,0-0.4-0.1-0.6-0.2c-0.1-0.1-0.2-0.3-0.2-0.6c0-0.2,0.1-0.4,0.2-0.6c0.1-0.1,0.3-0.2,0.6-0.2H116.8z M116.2-14.8
				c0.2,0,0.4,0.1,0.5,0.2c0.1,0.1,0.2,0.3,0.2,0.5c0,0.2-0.1,0.4-0.2,0.5c-0.1,0.1-0.3,0.2-0.5,0.2H107c-0.2,0-0.4-0.1-0.5-0.2
				c-0.1-0.1-0.2-0.3-0.2-0.5c0-0.2,0.1-0.4,0.2-0.5c0.1-0.2,0.3-0.2,0.5-0.2H116.2z"/>
			<path id="XMLID_127_" d="M128.4-14.6c0-0.3,0.1-0.5,0.3-0.6c0.2-0.2,0.4-0.3,0.7-0.3c0.2,0,0.4,0.1,0.6,0.3
				c0.2,0.2,0.2,0.4,0.2,0.6v0.1c0,0.5,0.1,1.1,0.2,1.7s0.2,1.3,0.4,2.3c0.2,0.9,0.4,1.9,0.7,2.7c0.3,0.9,0.7,1.8,1.2,2.8
				c0.5,1,1.1,2,1.7,2.8c0.6,0.9,1.4,1.7,2.4,2.5c0.7,0.6,1.5,1.1,2.3,1.6c0.2,0.1,0.3,0.3,0.3,0.6c0,0.2-0.1,0.3-0.2,0.4
				c-0.2,0.2-0.4,0.3-0.6,0.4c-0.1,0-0.2,0-0.3,0c-0.1,0-0.3,0-0.4-0.1c-1-0.6-2-1.2-2.8-2c-1.1-1-2-2.1-2.7-3.3
				c-0.7-1.2-1.3-2.3-1.7-3.4c-0.4-1.1-0.8-2.2-1-3.3c0,0,0,0,0,0s0,0,0,0c-1.2,5.6-3.9,9.6-7.9,12c-0.2,0.1-0.3,0.1-0.5,0.1
				c-0.1,0-0.1,0-0.2,0c-0.2-0.1-0.5-0.2-0.7-0.4c-0.1-0.1-0.2-0.3-0.2-0.5c0-0.2,0.1-0.4,0.3-0.5c0.9-0.5,1.6-1.1,2.4-1.7
				c0.9-0.9,1.7-1.7,2.3-2.5c0.6-0.8,1.1-1.8,1.6-2.9c0.5-1.1,0.8-2,1-2.8c0.2-0.8,0.4-1.7,0.6-2.8c0.1-1,0.2-1.8,0.3-2.3
				C128.4-13.5,128.4-14,128.4-14.6z"/>
		</g>
		<g id="XMLID_110_">
			<path id="XMLID_111_" d="M268.8,2.5c-0.3,0-0.5-0.1-0.7-0.3c-0.2-0.2-0.3-0.4-0.3-0.7c0-0.6,0.2-1.2,0.7-1.6
				c3.9-3.5,6.8-6.5,8.6-9.1c1.8-2.6,2.7-5,2.7-7.2c0-1.6-0.4-2.8-1.2-3.8s-2-1.4-3.6-1.4s-3.1,0.7-4.6,2.1
				c-0.3,0.3-0.6,0.4-0.9,0.4c-0.4,0-0.7-0.1-0.9-0.4c-0.3-0.3-0.4-0.6-0.4-0.9c0-0.4,0.1-0.7,0.4-0.9c2.1-2,4.3-3,6.8-3
				c2.3,0,4.2,0.7,5.6,2.1c1.4,1.4,2.1,3.3,2.1,5.7c0,2.5-0.9,5-2.6,7.6s-4.2,5.5-7.5,8.7c0,0-0.1,0.1,0,0.1c0,0,0.1,0.1,0.1,0.1
				c1.9-0.2,3.3-0.2,4-0.2h5.9c0.4,0,0.7,0.1,1,0.4s0.4,0.6,0.4,1s-0.1,0.7-0.4,1s-0.6,0.4-1,0.4H268.8z"/>
			<path id="XMLID_113_" d="M290.8,2.5c-0.4,0-0.7-0.1-1-0.4c-0.3-0.3-0.4-0.6-0.4-1c0-0.4,0.1-0.7,0.4-1c0.3-0.3,0.6-0.4,1-0.4h4.3
				c0.2,0,0.2-0.1,0.2-0.2v-19.2c0-0.2-0.1-0.3-0.2-0.3h-3.4c-0.3,0-0.6-0.1-0.8-0.3c-0.2-0.2-0.3-0.5-0.3-0.8
				c0-0.3,0.1-0.5,0.3-0.8c0.2-0.2,0.4-0.4,0.7-0.5c1.2-0.3,2.4-0.6,3.3-1.1c0.8-0.4,1.6-0.6,2.4-0.6c0.4,0,0.7,0.1,0.9,0.4
				s0.4,0.5,0.4,0.9v22.1c0,0.2,0.1,0.2,0.3,0.2h3.7c0.4,0,0.7,0.1,1,0.4c0.3,0.3,0.4,0.6,0.4,1c0,0.4-0.1,0.7-0.4,1
				c-0.3,0.3-0.6,0.4-1,0.4H290.8z"/>
			<path id="XMLID_115_" d="M315.6,2.9c-2.8,0-5.3-0.9-7.4-2.6c-0.3-0.3-0.5-0.6-0.5-1.1c0-0.3,0.1-0.6,0.3-0.9s0.5-0.4,0.8-0.5
				c0.4,0,0.7,0.1,0.9,0.3c1.6,1.3,3.4,2,5.5,2c1.6,0,2.9-0.6,4-1.7c1.1-1.1,1.6-2.6,1.6-4.5c0-1.9-0.5-3.3-1.5-4.4
				c-1-1.1-2.3-1.6-4-1.6c-1.2,0-2.4,0.3-3.5,1c-0.3,0.2-0.6,0.2-0.9,0.2c-0.3,0-0.6-0.1-0.8-0.2c-0.6-0.4-0.9-0.9-0.8-1.6l0.6-9.2
				c0-0.6,0.3-1.1,0.7-1.5c0.4-0.4,0.9-0.6,1.5-0.6h9.4c0.4,0,0.7,0.1,1,0.4s0.4,0.6,0.4,1s-0.1,0.7-0.4,1c-0.3,0.3-0.6,0.4-1,0.4
				h-8.3c-0.2,0-0.3,0.1-0.3,0.3l-0.6,7.1c0,0,0,0.1,0.1,0.1s0.1,0,0.1,0c1.1-0.6,2.4-0.9,3.7-0.9c2.3,0,4.2,0.7,5.7,2.1
				s2.2,3.5,2.2,6.3c0,1.9-0.4,3.5-1.2,4.9s-1.9,2.4-3.2,3.1S317.1,2.9,315.6,2.9z"/>
			<path id="XMLID_117_" d="M328.7,2.5c-0.3,0-0.5-0.1-0.7-0.3c-0.2-0.2-0.3-0.4-0.3-0.7c0-0.6,0.2-1.2,0.7-1.6
				c3.9-3.5,6.8-6.5,8.6-9.1c1.8-2.6,2.7-5,2.7-7.2c0-1.6-0.4-2.8-1.2-3.8s-2-1.4-3.6-1.4s-3.1,0.7-4.6,2.1
				c-0.3,0.3-0.6,0.4-0.9,0.4c-0.4,0-0.7-0.1-0.9-0.4c-0.3-0.3-0.4-0.6-0.4-0.9c0-0.4,0.1-0.7,0.4-0.9c2.1-2,4.3-3,6.8-3
				c2.3,0,4.2,0.7,5.6,2.1c1.4,1.4,2.1,3.3,2.1,5.7c0,2.5-0.9,5-2.6,7.6s-4.2,5.5-7.5,8.7c0,0-0.1,0.1,0,0.1c0,0,0.1,0.1,0.1,0.1
				c1.9-0.2,3.3-0.2,4-0.2h5.9c0.4,0,0.7,0.1,1,0.4s0.4,0.6,0.4,1s-0.1,0.7-0.4,1s-0.6,0.4-1,0.4H328.7z"/>
			<path id="XMLID_119_" d="M364.9-16.4c0-0.3,0.1-0.5,0.3-0.7s0.4-0.3,0.7-0.3c0.3,0,0.5,0.1,0.7,0.3c0.2,0.2,0.3,0.4,0.3,0.7v0.1
				c0,0.6,0.1,1.2,0.2,1.8s0.2,1.4,0.4,2.5s0.5,2,0.8,3s0.7,2,1.3,3.1s1.2,2.2,1.9,3.1S373-1,374-0.1c0.8,0.7,1.6,1.2,2.5,1.7
				c0.2,0.1,0.4,0.3,0.4,0.6c0,0.2-0.1,0.4-0.2,0.5c-0.2,0.2-0.4,0.4-0.7,0.4c-0.1,0-0.2,0-0.3,0c-0.2,0-0.3,0-0.5-0.1
				c-1.1-0.6-2.2-1.4-3.1-2.2c-1.2-1.1-2.2-2.3-2.9-3.6s-1.4-2.6-1.9-3.8c-0.5-1.2-0.9-2.4-1.1-3.7c0,0,0,0,0,0s0,0,0,0
				c-1.4,6.1-4.3,10.5-8.7,13.2c-0.2,0.1-0.4,0.1-0.6,0.1c-0.1,0-0.1,0-0.2,0c-0.3-0.1-0.5-0.2-0.7-0.4c-0.2-0.1-0.2-0.3-0.2-0.5
				c0-0.3,0.1-0.5,0.3-0.6c0.9-0.5,1.8-1.2,2.6-1.9c1-0.9,1.9-1.9,2.5-2.8s1.2-2,1.7-3.2s0.9-2.2,1.1-3.1s0.5-1.9,0.6-3
				s0.3-2,0.3-2.5C364.9-15.3,364.9-15.8,364.9-16.4z"/>
		</g>
		<g id="XMLID_480_">
			<line id="XMLID_481_" class="st3" x1="159" y1="-7.1" x2="207" y2="-7.1"/>
		</g>
	</g>
	<g id="XMLID_544_" class="st1">
		<g id="XMLID_597_">
			<g id="XMLID_598_">
				<path id="XMLID_600_" class="st6" d="M235-52.2c1.4,0,2.6-0.6,3.5-1.6c1-1,1.4-2.3,1.4-3.7c0-1.4-0.6-2.6-1.6-3.6
					c-1-1-2.2-1.5-3.6-1.4c-1.4,0-2.6,0.6-3.5,1.6c-1,1-1.4,2.3-1.4,3.7s0.5,2.6,1.6,3.6C232.4-52.7,233.6-52.2,235-52.2z"/>
				<path id="XMLID_599_" class="st6" d="M252.3-35l-7.5-4.1l-6.1-9.8c-1.2-1.5-2.6-2.2-4.4-2.2c-1.2,0-2.3,0.5-3.4,1.5l-9.3,9.4
					c-0.3,0.4-0.5,0.8-0.5,1.2l-1.2,10.5v0.3c0,0.6,0.2,1.2,0.7,1.6c0.5,0.5,1,0.7,1.6,0.7s1.2-0.2,1.6-0.7c0.4-0.5,0.7-1,0.7-1.5
					l1-9l3.3-3.3l-3,25l-5.3,11.8c-0.2,0.5-0.3,1-0.3,1.5c0,1,0.3,1.8,1,2.5c0.7,0.7,1.5,1,2.5,0.9c1.4,0,2.4-0.6,3-1.9l5.7-12.8
					c0-0.1,0-0.2,0.1-0.5c0.1-0.2,0.2-0.4,0.3-0.6c0.1-0.2,0.1-0.4,0.1-0.5l0.7-6.1l5.9,20.1c0.6,1.6,1.8,2.4,3.4,2.3
					c0.9,0,1.7-0.3,2.4-1c0.7-0.7,1-1.5,1-2.5c0-0.1,0-0.2-0.1-0.3c0-0.1-0.1-0.2-0.1-0.3L238-30.7l1-9.1l2.3,3.7
					c0.2,0.3,0.4,0.5,0.7,0.7l8,4.5c0.5,0.2,0.9,0.3,1.1,0.3c0.6,0,1.2-0.2,1.6-0.7c0.5-0.5,0.7-1.1,0.7-1.7
					C253.3-33.9,253-34.6,252.3-35z"/>
			</g>
		</g>
		<g id="XMLID_596_">
		</g>
		<g id="XMLID_594_">
		</g>
		<g id="XMLID_590_">
		</g>
		<g id="XMLID_558_">
		</g>
		<g id="XMLID_557_">
		</g>
		<g id="XMLID_555_">
		</g>
		<g id="XMLID_554_">
		</g>
		<g id="XMLID_553_">
		</g>
		<g id="XMLID_552_">
		</g>
		<g id="XMLID_551_">
		</g>
		<g id="XMLID_550_">
		</g>
		<g id="XMLID_549_">
		</g>
		<g id="XMLID_548_">
		</g>
		<g id="XMLID_546_">
		</g>
		<g id="XMLID_545_">
		</g>
	</g>
</g>
</svg>
