<?xml version="1.0" encoding="utf-8"?>
<!-- Generator: Adobe Illustrator 19.0.0, SVG Export Plug-In . SVG Version: 6.00 Build 0)  -->
<svg version="1.1" id="圖層_1" xmlns="http://www.w3.org/2000/svg" xmlns:xlink="http://www.w3.org/1999/xlink" x="0px" y="0px"
	 viewBox="0 0 150 150" style="enable-background:new 0 0 150 150;" xml:space="preserve">
<style type="text/css">
	.st0{fill:#64BEF0;}
</style>
<g id="clock_1_">
	<g id="XMLID_314_">
		<g id="XMLID_336_">
			<path id="XMLID_337_" class="st0" d="M75,43c-17.8,0-32.2,14.4-32.2,32.2s14.4,32.2,32.2,32.2s32.2-14.4,32.2-32.2S92.8,43,75,43
				z M88.9,81.3H75.2c0,0-0.1,0-0.1,0c0,0-0.1,0-0.1,0c-1.2,0-2.2-1-2.2-2.2V56.4c0-1.2,1-2.2,2.2-2.2s2.2,1,2.2,2.2v20.5h11.7
				c1.2,0,2.2,1,2.2,2.2S90.1,81.3,88.9,81.3z"/>
		</g>
	</g>
	<g id="XMLID_313_">
	</g>
	<g id="XMLID_312_">
	</g>
	<g id="XMLID_311_">
	</g>
	<g id="XMLID_310_">
	</g>
	<g id="XMLID_309_">
	</g>
	<g id="XMLID_308_">
	</g>
	<g id="XMLID_307_">
	</g>
	<g id="XMLID_306_">
	</g>
	<g id="XMLID_305_">
	</g>
	<g id="XMLID_304_">
	</g>
	<g id="XMLID_303_">
	</g>
	<g id="XMLID_302_">
	</g>
	<g id="XMLID_301_">
	</g>
	<g id="XMLID_300_">
	</g>
	<g id="XMLID_299_">
	</g>
</g>
</svg>
