<?xml version="1.0" encoding="utf-8"?>
<!-- Generator: Adobe Illustrator 19.0.0, SVG Export Plug-In . SVG Version: 6.00 Build 0)  -->
<svg version="1.1" id="圖層_1" xmlns="http://www.w3.org/2000/svg" xmlns:xlink="http://www.w3.org/1999/xlink" x="0px" y="0px"
	 viewBox="0 0 150 150" style="enable-background:new 0 0 150 150;" xml:space="preserve">
<style type="text/css">
	.st0{fill:#FF9164;}
	.st1{fill:#64BEF0;}
	.st2{fill:#FFFFFF;}
</style>
<g id="XMLID_505_">
	<g id="XMLID_521_">
		<path id="XMLID_529_" class="st0" d="M114.9,53.6h-10.3c-1.6,0-3.5,1-4.4,2.4l-7.6,11.7c-0.7,1.1-2.3,2.1-3.5,2.4l-9.2,1.7
			c-1.6,0.3-2.9,1.9-2.9,3.6V87c0,1.7,1.4,3.1,3.1,3.1h7.6c1,3.6,4.4,6.2,8.3,6.2c3.9,0,7.3-2.6,8.3-6.2h10.7c1.7,0,3.1-1.4,3.1-3.1
			V56.7C118,55,116.6,53.6,114.9,53.6z M95.9,91.9c-2.4,0-4.3-1.9-4.3-4.3c0-2.4,1.9-4.3,4.3-4.3c2.4,0,4.3,1.9,4.3,4.3
			C100.2,90,98.3,91.9,95.9,91.9z M114.8,68.2c0,1.1-0.9,2.1-2.1,2.1h-14c-1.1,0-1.6-0.8-1-1.8l5.5-9c0.6-1,2-1.8,3.1-1.8h6.4
			c1.1,0,2.1,0.9,2.1,2.1L114.8,68.2L114.8,68.2z"/>
		<path id="XMLID_525_" class="st1" d="M69.6,71.9l-9.2-1.7c-1.2-0.2-2.8-1.3-3.5-2.4L49.3,56c-0.9-1.3-2.8-2.4-4.4-2.4H34.6
			c-1.7,0-3.1,1.4-3.1,3.1V87c0,1.7,1.4,3.1,3.1,3.1h10.7c1,3.6,4.4,6.2,8.3,6.2s7.3-2.6,8.3-6.2h7.6c1.7,0,3.1-1.4,3.1-3.1V75.4
			C72.5,73.8,71.2,72.2,69.6,71.9z M36.7,70.2c-1.1,0-2.1-0.9-2.1-2.1v-8.4c0-1.1,0.9-2.1,2.1-2.1h6.4c1.1,0,2.5,0.8,3.1,1.8l5.5,9
			c0.6,1,0.1,1.8-1,1.8L36.7,70.2L36.7,70.2z M53.6,91.9c-2.4,0-4.3-1.9-4.3-4.3c0-2.4,1.9-4.3,4.3-4.3c2.4,0,4.3,1.9,4.3,4.3
			S55.9,91.9,53.6,91.9z"/>
		<path id="XMLID_524_" class="st2" d="M69.4,69.6C69.5,69.6,69.5,69.6,69.4,69.6c0.7,0,1.2-0.5,1.3-1.2l0.2-6.6
			c0-0.7-0.5-1.2-1.2-1.3c0,0,0,0,0,0c-0.7,0-1.2,0.5-1.2,1.2l-0.2,6.6C68.2,69,68.8,69.6,69.4,69.6z"/>
		<path id="XMLID_523_" class="st2" d="M76.2,61.7c-0.6-0.3-1.3-0.1-1.6,0.5l-2.8,5.6c-0.3,0.6-0.1,1.3,0.5,1.6
			c0.2,0.1,0.4,0.1,0.5,0.1c0.4,0,0.9-0.2,1.1-0.7l2.8-5.6C77.1,62.8,76.9,62,76.2,61.7z"/>
		<path id="XMLID_522_" class="st2" d="M81,67.1c-0.4-0.5-1.2-0.7-1.7-0.3l-4.7,3.4c-0.5,0.4-0.7,1.2-0.3,1.7c0.2,0.3,0.6,0.5,1,0.5
			c0.3,0,0.5-0.1,0.7-0.2l4.7-3.4C81.3,68.4,81.4,67.6,81,67.1z"/>
	</g>
	<g id="XMLID_520_">
	</g>
	<g id="XMLID_519_">
	</g>
	<g id="XMLID_518_">
	</g>
	<g id="XMLID_517_">
	</g>
	<g id="XMLID_516_">
	</g>
	<g id="XMLID_515_">
	</g>
	<g id="XMLID_514_">
	</g>
	<g id="XMLID_513_">
	</g>
	<g id="XMLID_512_">
	</g>
	<g id="XMLID_511_">
	</g>
	<g id="XMLID_510_">
	</g>
	<g id="XMLID_509_">
	</g>
	<g id="XMLID_508_">
	</g>
	<g id="XMLID_507_">
	</g>
	<g id="XMLID_506_">
	</g>
</g>
</svg>
