<?xml version="1.0" encoding="utf-8"?>
<!-- Generator: Adobe Illustrator 19.0.0, SVG Export Plug-In . SVG Version: 6.00 Build 0)  -->
<svg version="1.1" id="圖層_1" xmlns="http://www.w3.org/2000/svg" xmlns:xlink="http://www.w3.org/1999/xlink" x="0px" y="0px"
	 viewBox="0 0 150 150" style="enable-background:new 0 0 150 150;" xml:space="preserve">
<style type="text/css">
	.st0{fill:#FFFFFF;}
</style>
<g id="XMLID_1182_">
	<g id="XMLID_1205_">
		<g id="Layer_1_2_">
			<g id="XMLID_1206_">
				<path id="XMLID_1210_" class="st0" d="M75,88.3c-4.1,0-7.4,3.3-7.4,7.4v15c0,4.1,3.3,7.4,7.4,7.4s7.4-3.3,7.4-7.4v-15
					C82.5,91.6,79.1,88.3,75,88.3z"/>
				<path id="XMLID_1207_" class="st0" d="M102,42.8H87.7C86,37.4,81,33.5,75,33.5c-5.9,0-11,3.9-12.6,9.3H48.3
					c-2,0-3.7,1.7-3.7,3.7s1.7,3.7,3.7,3.7h14.3l0,0c0.9,3.2,3,5.8,5.8,7.4c-10,3-17.5,12.3-17.5,23.2v19.5c0,3.3,2.8,6.1,6.1,6.1h5
					V95.9c0-7.2,5.9-13.2,13.2-13.2c7.2,0,13.2,5.9,13.2,13.2v10.6h5c3.3,0,6.1-2.8,6.1-6.1V81c0-11-7.4-20.4-17.5-23.2
					c2.8-1.7,4.8-4.3,5.8-7.4l0,0h14.3c2,0,3.7-1.7,3.7-3.7C105.7,44.4,104,42.8,102,42.8z M75,54.1c-4.1,0-7.4-3.3-7.4-7.4
					s3.3-7.4,7.4-7.4s7.4,3.3,7.4,7.4C82.6,50.7,79.3,54.1,75,54.1z"/>
			</g>
		</g>
	</g>
	<g id="XMLID_1201_">
	</g>
	<g id="XMLID_1200_">
	</g>
	<g id="XMLID_1199_">
	</g>
	<g id="XMLID_1197_">
	</g>
	<g id="XMLID_1196_">
	</g>
	<g id="XMLID_1195_">
	</g>
	<g id="XMLID_1194_">
	</g>
	<g id="XMLID_1190_">
	</g>
	<g id="XMLID_1189_">
	</g>
	<g id="XMLID_1188_">
	</g>
	<g id="XMLID_1187_">
	</g>
	<g id="XMLID_1186_">
	</g>
	<g id="XMLID_1185_">
	</g>
	<g id="XMLID_1184_">
	</g>
	<g id="XMLID_1183_">
	</g>
</g>
</svg>
