<?xml version="1.0" encoding="utf-8"?>
<!-- Generator: Adobe Illustrator 19.0.0, SVG Export Plug-In . SVG Version: 6.00 Build 0)  -->
<svg version="1.1" id="圖層_1" xmlns="http://www.w3.org/2000/svg" xmlns:xlink="http://www.w3.org/1999/xlink" x="0px" y="0px"
	 viewBox="0 0 150 150" style="enable-background:new 0 0 150 150;" xml:space="preserve">
<style type="text/css">
	.st0{fill:#FFD16F;}
</style>
<g id="sun_1_">
	<g id="XMLID_355_">
		<g id="XMLID_356_">
			<g id="XMLID_361_">
				<path id="XMLID_370_" class="st0" d="M75,58.6c-9.4,0-17,7.6-17,17s7.6,17,17,17c9.4,0,17-7.6,17-17C92,66.3,84.4,58.6,75,58.6z
					"/>
				<path id="XMLID_369_" class="st0" d="M75,54.1c1.5,0,2.6-1.2,2.6-2.6v-7.6c0-1.5-1.2-2.6-2.6-2.6c-1.5,0-2.6,1.2-2.6,2.6v7.6
					C72.3,52.9,73.5,54.1,75,54.1z"/>
				<path id="XMLID_368_" class="st0" d="M92.1,61.2c0.7,0,1.3-0.3,1.9-0.8l5.4-5.4c1-1,1-2.7,0-3.7c-1-1-2.7-1-3.7,0l-5.4,5.4
					c-1,1-1,2.7,0,3.7C90.7,60.9,91.4,61.2,92.1,61.2z"/>
				<path id="XMLID_367_" class="st0" d="M106.8,73h-7.6c-1.5,0-2.6,1.2-2.6,2.6c0,1.5,1.2,2.6,2.6,2.6h7.6c1.5,0,2.6-1.2,2.6-2.6
					C109.4,74.2,108.2,73,106.8,73z"/>
				<path id="XMLID_366_" class="st0" d="M94,90.9c-1-1-2.7-1-3.7,0c-1,1-1,2.7,0,3.7l5.4,5.4c0.5,0.5,1.2,0.8,1.9,0.8
					c0.7,0,1.3-0.3,1.9-0.8c1-1,1-2.7,0-3.7L94,90.9z"/>
				<path id="XMLID_365_" class="st0" d="M75,97.2c-1.5,0-2.6,1.2-2.6,2.6v7.6c0,1.5,1.2,2.6,2.6,2.6c1.5,0,2.6-1.2,2.6-2.6v-7.6
					C77.6,98.4,76.4,97.2,75,97.2z"/>
				<path id="XMLID_364_" class="st0" d="M56,90.9l-5.4,5.4c-1,1-1,2.7,0,3.7c0.5,0.5,1.2,0.8,1.9,0.8c0.7,0,1.3-0.3,1.9-0.8
					l5.4-5.4c1-1,1-2.7,0-3.7S57,89.9,56,90.9z"/>
				<path id="XMLID_363_" class="st0" d="M53.4,75.7c0-1.5-1.2-2.6-2.6-2.6h-7.6c-1.5,0-2.6,1.2-2.6,2.6c0,1.5,1.2,2.6,2.6,2.6h7.6
					C52.2,78.3,53.4,77.1,53.4,75.7z"/>
				<path id="XMLID_362_" class="st0" d="M56,60.4c0.5,0.5,1.2,0.8,1.9,0.8c0.7,0,1.3-0.3,1.9-0.8c1-1,1-2.7,0-3.7l-5.4-5.4
					c-1-1-2.7-1-3.7,0c-1,1-1,2.7,0,3.7L56,60.4z"/>
			</g>
		</g>
	</g>
	<g id="XMLID_354_">
	</g>
	<g id="XMLID_353_">
	</g>
	<g id="XMLID_352_">
	</g>
	<g id="XMLID_351_">
	</g>
	<g id="XMLID_350_">
	</g>
	<g id="XMLID_349_">
	</g>
	<g id="XMLID_348_">
	</g>
	<g id="XMLID_347_">
	</g>
	<g id="XMLID_346_">
	</g>
	<g id="XMLID_345_">
	</g>
	<g id="XMLID_344_">
	</g>
	<g id="XMLID_343_">
	</g>
	<g id="XMLID_342_">
	</g>
	<g id="XMLID_341_">
	</g>
	<g id="XMLID_340_">
	</g>
</g>
</svg>
