<?xml version="1.0" encoding="utf-8"?>
<!-- Generator: Adobe Illustrator 19.0.0, SVG Export Plug-In . SVG Version: 6.00 Build 0)  -->
<svg version="1.1" id="圖層_1" xmlns="http://www.w3.org/2000/svg" xmlns:xlink="http://www.w3.org/1999/xlink" x="0px" y="0px"
	 viewBox="0 0 341.1 142.2" style="enable-background:new 0 0 341.1 142.2;" xml:space="preserve">
<style type="text/css">
	.st0{fill:#87D7FF;}
	.st1{fill:#64BEF0;}
	.st2{fill:#625D6B;}
	.st3{fill:#00AADC;}
	.st4{fill:#EDEDEE;}
	.st5{fill:#504B5A;}
	.st6{fill:#DCDBDE;}
	.st7{fill:#FF6464;}
</style>
<g id="XMLID_49_">
	<path id="XMLID_119_" class="st0" d="M319.4,63.7c-10.5-6.5-44.4-14.8-92-14.8l-25.1-29.3c-5.3-6.2-13-9.7-21.2-9.7H63.5
		c-5.9,0-11.6,2.4-15.8,6.5L19.6,44.6c-2.9,2.9-4.9,6.4-5.9,10.4L9.6,71.3l83.7,39.1h234.5V78.8C327.8,72.6,324.6,66.9,319.4,63.7z"
		/>
	<path id="XMLID_118_" class="st1" d="M202.2,19.6c-5.3-6.2-13-9.7-21.2-9.7H63.5c-5.9,0-11.6,2.4-15.8,6.5l-27,27h14.6
		c5.1,0,10.3,0.3,15.4,0.9l42.6,4.7h134L202.2,19.6z"/>
	<path id="XMLID_117_" class="st2" d="M193.5,48.9h-92.7c-4.9,0-9.9-0.3-14.8-0.8l-29.1-3.2c-6-0.7-8.9-7.7-5.1-12.4l10.3-12.9
		c2.1-2.6,5.3-4.2,8.7-4.2h95.5c3.3,0,6.5,1.5,8.6,4l20.8,24.9C197.1,46.2,195.8,48.9,193.5,48.9z"/>
	<path id="XMLID_116_" class="st1" d="M327.8,82.4c0-11.2-16.7-22.3-94.9-22.3H15.2c-3.1,0-5.6,2.5-5.6,5.6l0,27.9l106.1,11.2h212.2
		V82.4z"/>
	<path id="XMLID_115_" class="st3" d="M327.8,99.2H66l-49.6-11c-3-0.7-6,1.2-6.7,4.2c-0.7,3,1.2,6,4.2,6.7l50.2,11.2
		c0.4,0.1,0.8,0.1,1.2,0.1h262.4c3.1,0,5.6-2.5,5.6-5.6S330.9,99.2,327.8,99.2z"/>
	<circle id="XMLID_114_" class="st4" cx="57.1" cy="102" r="25.6"/>
	<path id="XMLID_111_" class="st5" d="M57.1,132.7c-16.9,0-30.7-13.8-30.7-30.7c0-16.9,13.8-30.7,30.7-30.7S87.8,85,87.8,102
		C87.8,118.9,74,132.7,57.1,132.7z M57.1,82.4c-10.8,0-19.5,8.8-19.5,19.5s8.8,19.5,19.5,19.5s19.5-8.8,19.5-19.5
		S67.8,82.4,57.1,82.4z"/>
	<circle id="XMLID_110_" class="st6" cx="57.1" cy="102" r="11.2"/>
	<g id="XMLID_107_">
		<path id="XMLID_109_" class="st3" d="M232.9,88h-134c-3.1,0-5.6-2.5-5.6-5.6l0,0c0-3.1,2.5-5.6,5.6-5.6h134c3.1,0,5.6,2.5,5.6,5.6
			l0,0C238.5,85.5,236,88,232.9,88z"/>
		<path id="XMLID_108_" class="st3" d="M327.8,88h-5.6c-3.1,0-5.6-2.5-5.6-5.6l0,0c0-3.1,2.5-5.6,5.6-5.6h5.6c3.1,0,5.6,2.5,5.6,5.6
			l0,0C333.4,85.5,330.9,88,327.8,88z"/>
	</g>
	<rect id="XMLID_106_" x="132.4" y="15.4" class="st5" width="11.2" height="33.5"/>
	<path id="XMLID_105_" class="st4" d="M321.8,65.7h-5.2c-3.1,0-5.6,2.5-5.6,5.6c0,3.1,2.5,5.6,5.6,5.6h10.9
		C327.1,72.5,325.1,68.6,321.8,65.7z"/>
	<path id="XMLID_104_" class="st2" d="M202.2,19.6c-1.3-1.6-2.8-3-4.4-4.2h-9.1c-2.4,0-3.7,2.8-2.1,4.6l20.8,24.9
		c2.1,2.5,5.3,4,8.6,4h11.5L202.2,19.6z"/>
	<polygon id="XMLID_103_" class="st5" points="82.6,47.7 93.4,15.4 82.2,15.4 66.9,46 	"/>
	<path id="XMLID_102_" class="st7" d="M13.7,54.9l-1.3,5.2h14c3.1,0,5.6-2.5,5.6-5.6c0-3.1-2.5-5.6-5.6-5.6H16.2
		C15.1,50.8,14.2,52.8,13.7,54.9z"/>
	<circle id="XMLID_101_" class="st4" cx="274.8" cy="102" r="25.6"/>
	<path id="XMLID_98_" class="st5" d="M274.8,132.7c-16.9,0-30.7-13.8-30.7-30.7c0-16.9,13.8-30.7,30.7-30.7S305.5,85,305.5,102
		S291.7,132.7,274.8,132.7z M274.8,82.4c-10.8,0-19.5,8.8-19.5,19.5s8.8,19.5,19.5,19.5s19.5-8.8,19.5-19.5S285.6,82.4,274.8,82.4z"
		/>
	<circle id="XMLID_97_" class="st6" cx="274.8" cy="102" r="11.2"/>
	<g id="XMLID_96_">
	</g>
	<g id="XMLID_95_">
	</g>
	<g id="XMLID_94_">
	</g>
	<g id="XMLID_93_">
	</g>
	<g id="XMLID_92_">
	</g>
	<g id="XMLID_91_">
	</g>
	<g id="XMLID_90_">
	</g>
	<g id="XMLID_89_">
	</g>
	<g id="XMLID_88_">
	</g>
	<g id="XMLID_87_">
	</g>
	<g id="XMLID_86_">
	</g>
	<g id="XMLID_85_">
	</g>
	<g id="XMLID_84_">
	</g>
	<g id="XMLID_52_">
	</g>
	<g id="XMLID_51_">
	</g>
</g>
</svg>
