<?xml version="1.0" encoding="utf-8"?>
<!-- Generator: Adobe Illustrator 19.0.0, SVG Export Plug-In . SVG Version: 6.00 Build 0)  -->
<svg version="1.1" id="圖層_1" xmlns="http://www.w3.org/2000/svg" xmlns:xlink="http://www.w3.org/1999/xlink" x="0px" y="0px"
	 viewBox="0 0 371.1 152.2" style="enable-background:new 0 0 371.1 152.2;" xml:space="preserve">
<style type="text/css">
	.st0{fill:#FFB47D;}
	.st1{fill:#FF9164;}
	.st2{fill:#FF7D5A;}
	.st3{fill:#EDEDEE;}
	.st4{fill:#504B5A;}
	.st5{fill:#DCDBDE;}
	.st6{fill:#625D6B;}
	.st7{fill:#FF6464;}
</style>
<g id="XMLID_49_">
	<path id="XMLID_118_" class="st0" d="M18.1,85.2v33.5h248.9L356,77.2l-4-16c-1.2-4.7-5.1-8.2-9.8-8.9l-33.6-4.8l-31.5-27
		c-6.4-5.5-14.7-8.6-23.1-8.6H174c-8.7,0-16.9,3.8-22.5,10.3l-26.7,31.1c-50.5,0-86.5,8.8-97.7,15.7C21.5,72.6,18.1,78.6,18.1,85.2z
		"/>
	<path id="XMLID_117_" class="st1" d="M18.1,89v35.6h225.2L356,106.8V71.3c0-3.3-2.7-5.9-5.9-5.9H118.9C35.9,65.3,18.1,77.2,18.1,89
		L18.1,89z"/>
	<path id="XMLID_116_" class="st2" d="M12.2,118.7c0,3.3,2.7,5.9,5.9,5.9h278.6c0.4,0,0.9,0,1.3-0.1l53.3-11.9
		c3.2-0.7,5.2-3.9,4.5-7.1c-0.7-3.2-3.9-5.2-7.1-4.5l-52.7,11.7H18.1C14.9,112.7,12.2,115.4,12.2,118.7z"/>
	<circle id="XMLID_115_" class="st3" cx="71.5" cy="112.7" r="29.6"/>
	<path id="XMLID_112_" class="st4" d="M35.9,112.7c0-19.6,16-35.6,35.6-35.6s35.6,16,35.6,35.6s-16,35.6-35.6,35.6
		S35.9,132.4,35.9,112.7z M47.8,112.7c0,13.1,10.6,23.7,23.7,23.7s23.7-10.6,23.7-23.7S84.6,89,71.5,89
		C58.4,89,47.8,99.7,47.8,112.7z"/>
	<circle id="XMLID_111_" class="st5" cx="71.5" cy="112.7" r="11.9"/>
	<circle id="XMLID_110_" class="st3" cx="296.7" cy="112.7" r="29.6"/>
	<path id="XMLID_107_" class="st4" d="M261.1,112.7c0-19.6,16-35.6,35.6-35.6c19.6,0,35.6,16,35.6,35.6s-16,35.6-35.6,35.6
		C277.1,148.3,261.1,132.4,261.1,112.7z M273,112.7c0,13.1,10.6,23.7,23.7,23.7c13.1,0,23.7-10.6,23.7-23.7S309.8,89,296.7,89
		C283.6,89,273,99.7,273,112.7z"/>
	<circle id="XMLID_106_" class="st5" cx="296.7" cy="112.7" r="11.9"/>
	<g id="XMLID_103_">
		<path id="XMLID_105_" class="st2" d="M113,95L113,95c0-3.3,2.7-5.9,5.9-5.9h124.5c3.3,0,5.9,2.7,5.9,5.9l0,0
			c0,3.3-2.7,5.9-5.9,5.9H118.9C115.6,100.9,113,98.2,113,95z"/>
		<path id="XMLID_104_" class="st2" d="M12.2,95L12.2,95c0-3.3,2.7-5.9,5.9-5.9h5.9c3.3,0,5.9,2.7,5.9,5.9l0,0
			c0,3.3-2.7,5.9-5.9,5.9h-5.9C14.9,100.9,12.2,98.2,12.2,95z"/>
	</g>
	<path id="XMLID_102_" class="st1" d="M280.7,52.2c-5.2,0.9-10.4,1.3-15.6,1.3H124.8l26.7-31.1C157.1,15.8,165.4,12,174,12h79.9
		c8.5,0,16.7,3,23.1,8.6l31.5,27L280.7,52.2z"/>
	<path id="XMLID_101_" class="st6" d="M158.5,48.6c-1.6,1.9-0.2,4.9,2.3,4.9h103.8c4.6,0,8.4-3.8,8.4-8.4l0,0c0-2.2-0.9-4.4-2.5-5.9
		l-17.8-17.8c-2.2-2.2-5.2-3.5-8.4-3.5h-54.7c-3.5,0-6.9,1.6-9.1,4.3L158.5,48.6z"/>
	<polygon id="XMLID_100_" class="st4" points="225.6,17.9 237.4,17.9 249.3,53.5 231.5,53.5 	"/>
	<path id="XMLID_99_" class="st3" d="M18.4,83.1H30c3.3,0,5.9-2.7,5.9-5.9s-2.7-5.9-5.9-5.9h-5.5C21.1,74.3,18.9,78.5,18.4,83.1z"/>
	<path id="XMLID_98_" class="st6" d="M124.8,53.5h12.2c3.5,0,6.9-1.6,9.1-4.3l22-26.4c1.6-1.9,0.2-4.9-2.3-4.9h-9.7
		c-1.7,1.3-3.3,2.8-4.7,4.4L124.8,53.5z"/>
	<path id="XMLID_97_" class="st7" d="M350,65.3h-5.9c-3.3,0-5.9,2.7-5.9,5.9s2.7,5.9,5.9,5.9H356v-5.9C356,68,353.3,65.3,350,65.3z"
		/>
	<g id="XMLID_96_">
	</g>
	<g id="XMLID_95_">
	</g>
	<g id="XMLID_94_">
	</g>
	<g id="XMLID_93_">
	</g>
	<g id="XMLID_92_">
	</g>
	<g id="XMLID_91_">
	</g>
	<g id="XMLID_90_">
	</g>
	<g id="XMLID_89_">
	</g>
	<g id="XMLID_88_">
	</g>
	<g id="XMLID_87_">
	</g>
	<g id="XMLID_86_">
	</g>
	<g id="XMLID_85_">
	</g>
	<g id="XMLID_84_">
	</g>
	<g id="XMLID_52_">
	</g>
	<g id="XMLID_51_">
	</g>
</g>
</svg>
