<?xml version="1.0" encoding="utf-8"?>
<!-- Generator: Adobe Illustrator 19.0.0, SVG Export Plug-In . SVG Version: 6.00 Build 0)  -->
<svg version="1.1" id="圖層_1" xmlns="http://www.w3.org/2000/svg" xmlns:xlink="http://www.w3.org/1999/xlink" x="0px" y="0px"
	 viewBox="0 0 150 150" style="enable-background:new 0 0 150 150;" xml:space="preserve">
<style type="text/css">
	.st0{display:none;}
	.st1{display:inline;}
	.st2{fill:#FFFFFF;}
	.st3{fill:#FF9164;stroke:#FFFFFF;stroke-width:2;stroke-miterlimit:10;}
	.st4{fill:#64BEF0;stroke:#FFFFFF;stroke-width:2;stroke-miterlimit:10;}
</style>
<g id="XMLID_182_" class="st0">
	<g id="XMLID_198_" class="st1">
		<path id="XMLID_206_" class="st2" d="M115.2,55.6h-10.3c-1.6,0-3.5,1-4.4,2.4l-7.6,11.7c-0.7,1.1-2.3,2.1-3.5,2.4l-9.2,1.7
			c-1.6,0.3-2.9,1.9-2.9,3.6v11.6c0,1.7,1.4,3.1,3.1,3.1h7.6c1,3.6,4.4,6.2,8.3,6.2c3.9,0,7.3-2.6,8.3-6.2h10.7
			c1.7,0,3.1-1.4,3.1-3.1V58.7C118.2,57,116.9,55.6,115.2,55.6z M96.2,93.9c-2.4,0-4.3-1.9-4.3-4.3c0-2.4,1.9-4.3,4.3-4.3
			c2.4,0,4.3,1.9,4.3,4.3C100.5,92,98.5,93.9,96.2,93.9z M115.1,70.1c0,1.1-0.9,2.1-2.1,2.1H99c-1.1,0-1.6-0.8-1-1.8l5.5-9
			c0.6-1,2-1.8,3.1-1.8h6.4c1.1,0,2.1,0.9,2.1,2.1L115.1,70.1L115.1,70.1z"/>
		<path id="XMLID_202_" class="st2" d="M69.9,73.8l-9.2-1.7c-1.2-0.2-2.8-1.3-3.5-2.4L49.5,58c-0.9-1.3-2.8-2.4-4.4-2.4H34.8
			c-1.7,0-3.1,1.4-3.1,3.1v30.3c0,1.7,1.4,3.1,3.1,3.1h10.7c1,3.6,4.4,6.2,8.3,6.2s7.3-2.6,8.3-6.2h7.6c1.7,0,3.1-1.4,3.1-3.1V77.4
			C72.8,75.7,71.5,74.1,69.9,73.8z M37,72.2c-1.1,0-2.1-0.9-2.1-2.1v-8.4c0-1.1,0.9-2.1,2.1-2.1h6.4c1.1,0,2.5,0.8,3.1,1.8l5.5,9
			c0.6,1,0.1,1.8-1,1.8L37,72.2L37,72.2z M53.8,93.9c-2.4,0-4.3-1.9-4.3-4.3c0-2.4,1.9-4.3,4.3-4.3c2.4,0,4.3,1.9,4.3,4.3
			C58.1,92,56.2,93.9,53.8,93.9z"/>
		<path id="XMLID_201_" class="st2" d="M69.7,71.6C69.7,71.6,69.7,71.6,69.7,71.6c0.7,0,1.2-0.5,1.3-1.2l0.2-6.6
			c0-0.7-0.5-1.2-1.2-1.3c0,0,0,0,0,0c-0.7,0-1.2,0.5-1.2,1.2l-0.2,6.6C68.5,71,69,71.6,69.7,71.6z"/>
		<path id="XMLID_200_" class="st2" d="M76.5,63.7c-0.6-0.3-1.3-0.1-1.6,0.5l-2.8,5.6c-0.3,0.6-0.1,1.3,0.5,1.6
			c0.2,0.1,0.4,0.1,0.5,0.1c0.4,0,0.9-0.2,1.1-0.7l2.8-5.6C77.4,64.7,77.1,64,76.5,63.7z"/>
		<path id="XMLID_199_" class="st2" d="M81.3,69c-0.4-0.5-1.2-0.7-1.7-0.3l-4.7,3.4c-0.5,0.4-0.7,1.2-0.3,1.7c0.2,0.3,0.6,0.5,1,0.5
			c0.3,0,0.5-0.1,0.7-0.2l4.7-3.4C81.5,70.3,81.7,69.6,81.3,69z"/>
	</g>
	<g id="XMLID_197_" class="st1">
	</g>
	<g id="XMLID_196_" class="st1">
	</g>
	<g id="XMLID_195_" class="st1">
	</g>
	<g id="XMLID_194_" class="st1">
	</g>
	<g id="XMLID_193_" class="st1">
	</g>
	<g id="XMLID_192_" class="st1">
	</g>
	<g id="XMLID_191_" class="st1">
	</g>
	<g id="XMLID_190_" class="st1">
	</g>
	<g id="XMLID_189_" class="st1">
	</g>
	<g id="XMLID_188_" class="st1">
	</g>
	<g id="XMLID_187_" class="st1">
	</g>
	<g id="XMLID_186_" class="st1">
	</g>
	<g id="XMLID_185_" class="st1">
	</g>
	<g id="XMLID_184_" class="st1">
	</g>
	<g id="XMLID_183_" class="st1">
	</g>
</g>
<g id="XMLID_505_">
	<g id="XMLID_521_">
		<path id="XMLID_529_" class="st3" d="M115.2,59.2h-10.3c-1.6,0-3.5,1-4.4,2.4l-7.6,11.7c-0.7,1.1-2.3,2.1-3.5,2.4l-9.2,1.7
			c-1.6,0.3-2.9,1.9-2.9,3.6v11.6c0,1.7,1.4,3.1,3.1,3.1h7.6c1,3.6,4.4,6.2,8.3,6.2c3.9,0,7.3-2.6,8.3-6.2h10.7
			c1.7,0,3.1-1.4,3.1-3.1V62.2C118.2,60.5,116.9,59.2,115.2,59.2z M96.2,97.5c-2.4,0-4.3-1.9-4.3-4.3c0-2.4,1.9-4.3,4.3-4.3
			c2.4,0,4.3,1.9,4.3,4.3C100.5,95.6,98.5,97.5,96.2,97.5z M115.1,73.7c0,1.1-0.9,2.1-2.1,2.1H99c-1.1,0-1.6-0.8-1-1.8l5.5-9
			c0.6-1,2-1.8,3.1-1.8h6.4c1.1,0,2.1,0.9,2.1,2.1L115.1,73.7L115.1,73.7z"/>
		<path id="XMLID_525_" class="st4" d="M69.9,77.4l-9.2-1.7c-1.2-0.2-2.8-1.3-3.5-2.4l-7.6-11.7c-0.9-1.3-2.8-2.4-4.4-2.4H34.8
			c-1.7,0-3.1,1.4-3.1,3.1v30.3c0,1.7,1.4,3.1,3.1,3.1h10.7c1,3.6,4.4,6.2,8.3,6.2s7.3-2.6,8.3-6.2h7.6c1.7,0,3.1-1.4,3.1-3.1V80.9
			C72.8,79.3,71.5,77.7,69.9,77.4z M37,75.8c-1.1,0-2.1-0.9-2.1-2.1v-8.4c0-1.1,0.9-2.1,2.1-2.1h6.4c1.1,0,2.5,0.8,3.1,1.8l5.5,9
			c0.6,1,0.1,1.8-1,1.8L37,75.8L37,75.8z M53.8,97.5c-2.4,0-4.3-1.9-4.3-4.3c0-2.4,1.9-4.3,4.3-4.3c2.4,0,4.3,1.9,4.3,4.3
			C58.1,95.6,56.2,97.5,53.8,97.5z"/>
		<path id="XMLID_524_" class="st2" d="M69.7,75.2C69.7,75.2,69.7,75.2,69.7,75.2c0.7,0,1.2-0.5,1.3-1.2l0.2-6.6
			c0-0.7-0.5-1.2-1.2-1.3c0,0,0,0,0,0c-0.7,0-1.2,0.5-1.2,1.2l-0.2,6.6C68.5,74.6,69,75.1,69.7,75.2z"/>
		<path id="XMLID_523_" class="st2" d="M76.5,67.2c-0.6-0.3-1.3-0.1-1.6,0.5l-2.8,5.6C71.8,74,72,74.7,72.6,75
			c0.2,0.1,0.4,0.1,0.5,0.1c0.4,0,0.9-0.2,1.1-0.7l2.8-5.6C77.4,68.3,77.1,67.5,76.5,67.2z"/>
		<path id="XMLID_522_" class="st2" d="M81.3,72.6c-0.4-0.5-1.2-0.7-1.7-0.3l-4.7,3.4c-0.5,0.4-0.7,1.2-0.3,1.7
			c0.2,0.3,0.6,0.5,1,0.5c0.3,0,0.5-0.1,0.7-0.2l4.7-3.4C81.5,73.9,81.7,73.1,81.3,72.6z"/>
	</g>
	<g id="XMLID_520_">
	</g>
	<g id="XMLID_519_">
	</g>
	<g id="XMLID_518_">
	</g>
	<g id="XMLID_517_">
	</g>
	<g id="XMLID_516_">
	</g>
	<g id="XMLID_515_">
	</g>
	<g id="XMLID_514_">
	</g>
	<g id="XMLID_513_">
	</g>
	<g id="XMLID_512_">
	</g>
	<g id="XMLID_511_">
	</g>
	<g id="XMLID_510_">
	</g>
	<g id="XMLID_509_">
	</g>
	<g id="XMLID_508_">
	</g>
	<g id="XMLID_507_">
	</g>
	<g id="XMLID_506_">
	</g>
</g>
</svg>
