<?xml version="1.0" encoding="utf-8"?>
<!-- Generator: Adobe Illustrator 19.0.0, SVG Export Plug-In . SVG Version: 6.00 Build 0)  -->
<svg version="1.1" id="圖層_1" xmlns="http://www.w3.org/2000/svg" xmlns:xlink="http://www.w3.org/1999/xlink" x="0px" y="0px"
	 viewBox="0 0 1280 241" style="enable-background:new 0 0 1280 241;" xml:space="preserve">
<style type="text/css">
	.st0{fill:#808080;}
	.st1{fill:#FFD16F;}
</style>
<g id="XMLID_49_">
	<rect id="XMLID_88_" x="0" y="0" class="st0" width="1280" height="241"/>
	<g id="XMLID_51_">
		<path id="XMLID_87_" class="st1" d="M223.5,111.9H39.7c-2.9,0-5.2-2.3-5.2-5.2v0c0-2.9,2.3-5.2,5.2-5.2h183.8
			c2.9,0,5.2,2.3,5.2,5.2v0C228.7,109.5,226.4,111.9,223.5,111.9z"/>
		<path id="XMLID_86_" class="st1" d="M466.4,111.9H282.6c-2.9,0-5.2-2.3-5.2-5.2v0c0-2.9,2.3-5.2,5.2-5.2h183.8
			c2.9,0,5.2,2.3,5.2,5.2v0C471.6,109.5,469.2,111.9,466.4,111.9z"/>
		<path id="XMLID_85_" class="st1" d="M719.4,111.9H535.6c-2.9,0-5.2-2.3-5.2-5.2v0c0-2.9,2.3-5.2,5.2-5.2h183.8
			c2.9,0,5.2,2.3,5.2,5.2v0C724.6,109.5,722.2,111.9,719.4,111.9z"/>
		<path id="XMLID_84_" class="st1" d="M968.6,111.9H784.8c-2.9,0-5.2-2.3-5.2-5.2v0c0-2.9,2.3-5.2,5.2-5.2h183.8
			c2.9,0,5.2,2.3,5.2,5.2v0C973.8,109.5,971.5,111.9,968.6,111.9z"/>
		<path id="XMLID_52_" class="st1" d="M1233.5,111.9h-183.8c-2.9,0-5.2-2.3-5.2-5.2v0c0-2.9,2.3-5.2,5.2-5.2h183.8
			c2.9,0,5.2,2.3,5.2,5.2v0C1238.7,109.5,1236.4,111.9,1233.5,111.9z"/>
	</g>
</g>
</svg>
