<?xml version="1.0" encoding="utf-8"?>
<!-- Generator: Adobe Illustrator 19.0.0, SVG Export Plug-In . SVG Version: 6.00 Build 0)  -->
<svg version="1.1" id="圖層_1" xmlns="http://www.w3.org/2000/svg" xmlns:xlink="http://www.w3.org/1999/xlink" x="0px" y="0px"
	 viewBox="0 0 1280 411.2" style="enable-background:new 0 0 1280 411.2;" xml:space="preserve">
<style type="text/css">
	.st0{fill:#A4A4A5;}
	.st1{fill:#4D4D4D;}
	.st2{fill:#A3242E;}
	.st3{fill:#FFD16F;}
	.st4{fill:#8CCD73;}
	.st5{fill:none;stroke:#4D4D4D;stroke-width:8;stroke-linecap:round;stroke-linejoin:round;stroke-miterlimit:10;}
</style>
<rect id="XMLID_1175_" x="1.2" y="-0.1" class="st0" width="1277.8" height="411.4"/>
<g id="XMLID_1_">
	<path id="XMLID_2_" d="M412.5,191.2c-0.1-0.2-0.1-0.4-0.1-0.7c0.1-0.2,0.2-0.4,0.4-0.4c0.2-0.1,0.4-0.1,0.5-0.1
		c0.4,0,0.8,0.2,1.1,0.6c0.8,1.1,1.4,2.2,1.8,3.3c0.1,0.3,0.1,0.6,0,0.8c-0.1,0.3-0.3,0.5-0.7,0.6c-0.3,0.1-0.5,0.1-0.8,0
		c-0.3-0.1-0.4-0.3-0.5-0.6c0-0.1-0.1-0.1-0.1-0.1c0-0.1-0.1-0.2-0.2-0.1c-1.5,0.1-4.5,0.3-9,0.6c-0.3,0-0.6-0.1-0.8-0.3
		c-0.3-0.2-0.4-0.5-0.5-0.8c0-0.3,0.1-0.6,0.3-0.8c0.2-0.2,0.5-0.4,0.8-0.4l1.5,0c0.2,0,0.4-0.1,0.6-0.3c0.5-0.5,1.1-1,1.6-1.5
		c0.2-0.2,0.2-0.4,0-0.5c-1-1.3-2.2-2.4-3.5-3.5c-0.2-0.2-0.3-0.4-0.3-0.6c0-0.3,0.1-0.5,0.3-0.7c0.2-0.2,0.5-0.3,0.8-0.4
		c0.3,0,0.6,0.1,0.8,0.3c0.1,0.1,0.2,0.2,0.4,0.3c0.1,0.1,0.2,0,0.3,0c0.8-1.1,1.6-2.2,2.2-3.2c0.1-0.1,0.1-0.1,0-0.2
		s-0.1-0.1-0.2-0.1h-8.4c-0.2,0-0.3,0.1-0.3,0.4v25.1c0,0.5-0.2,0.9-0.5,1.2s-0.7,0.5-1.2,0.5c-0.5,0-0.9-0.2-1.2-0.5
		s-0.5-0.7-0.5-1.2v-37.3c0-0.8,0.3-1.4,0.8-1.9c0.5-0.5,1.2-0.8,1.9-0.8h12c0.8,0,1.4,0.3,1.9,0.8c0.5,0.5,0.8,1.2,0.8,1.9v9.1
		c0,0.8-0.3,1.4-0.8,2c-0.5,0.5-1.2,0.8-1.9,0.8h-0.8c0,0,0,0.1,0,0.1c0.3,0.1,0.5,0.3,0.5,0.6c0.1,0.3,0,0.6-0.2,0.8
		c-1.1,1.3-2,2.4-2.7,3.2c-0.2,0.2-0.2,0.4,0,0.5c0.4,0.3,0.8,0.8,1.3,1.3c0.2,0.2,0.3,0.2,0.5,0c0.8-1,1.5-1.9,2.2-2.7
		c0.3-0.4,0.7-0.6,1.1-0.6c0.2,0,0.4,0,0.7,0.1c0.2,0.1,0.4,0.3,0.5,0.6c0.1,0.3,0,0.5-0.2,0.8c-1.8,2.2-3.5,4-5.1,5.4
		c-0.1,0.1-0.1,0.1,0,0.2c0,0,0.1,0.1,0.1,0.1l3.3-0.1c0.2,0,0.2-0.1,0.1-0.2C412.8,191.8,412.6,191.5,412.5,191.2z M411,170.4
		c0-0.2-0.1-0.4-0.3-0.4h-10c-0.2,0-0.3,0.1-0.3,0.4v2.9c0,0.2,0.1,0.3,0.3,0.3h10c0.2,0,0.3-0.1,0.3-0.3V170.4z M400.7,176
		c-0.2,0-0.3,0.1-0.3,0.4v2.7c0,0.2,0.1,0.4,0.3,0.4h10c0.2,0,0.3-0.1,0.3-0.4v-2.7c0-0.2-0.1-0.4-0.3-0.4H400.7z M412.4,199.9V197
		c0-0.4,0.1-0.7,0.4-0.9c0.2-0.2,0.6-0.4,0.9-0.4c0.4,0,0.7,0.1,0.9,0.4c0.2,0.2,0.4,0.6,0.4,0.9v3c0,0.9-0.1,1.8-0.2,2.5
		s-0.4,1.4-0.8,2.2s-0.9,1.5-1.7,2.1s-1.7,1.2-2.9,1.7c-0.3,0.1-0.5,0.1-0.7,0.1c-0.5,0-1-0.2-1.4-0.8c-0.2-0.2-0.3-0.5-0.2-0.8
		c0.1-0.3,0.2-0.5,0.5-0.6c1.9-0.8,3.2-1.7,3.9-3c0-0.1,0-0.1,0-0.2c0-0.1-0.1-0.1-0.2-0.1h-3.3c-0.8,0-1.4-0.3-1.9-0.8
		c-0.5-0.5-0.8-1.2-0.8-1.9v-2.7c0-0.3,0.1-0.6,0.4-0.9c0.2-0.2,0.5-0.4,0.9-0.4s0.6,0.1,0.9,0.4c0.2,0.2,0.4,0.5,0.4,0.9v2.9
		c0,0.2,0.1,0.4,0.3,0.4h3.8c0.2,0,0.4-0.1,0.4-0.4C412.4,200.4,412.4,200.2,412.4,199.9z M433.8,167.5c0.8,0,1.4,0.3,1.9,0.8
		c0.5,0.5,0.8,1.2,0.8,1.9v34.5c0,1-0.1,1.8-0.4,2.4c-0.3,0.6-0.7,1-1.3,1.3c-0.8,0.4-2.3,0.6-4.4,0.7h0c-0.5,0-1-0.2-1.4-0.5
		c-0.4-0.3-0.7-0.8-0.9-1.3c-0.1-0.4-0.1-0.8,0.2-1.1c0.2-0.4,0.6-0.5,1-0.5c0.6,0,1.2,0,1.6,0c0.6,0,1,0,1.3,0
		c0.3,0,0.5-0.1,0.6-0.2c0.1-0.1,0.2-0.3,0.2-0.7v-22.3c0-0.2-0.1-0.4-0.3-0.4h-9.7c0,0,0,0,0,0s0,0,0,0c0.2,0.1,0.4,0.3,0.4,0.5
		c0.1,0.2,0,0.5-0.1,0.7c-1.1,1.3-2.1,2.5-3,3.6c-0.2,0.2-0.2,0.4,0,0.5c0.4,0.4,0.8,0.8,1.2,1.3c0.2,0.2,0.3,0.2,0.5,0
		c0.8-0.8,1.5-1.7,2.2-2.6c0.3-0.4,0.7-0.6,1.1-0.6c0.2,0,0.4,0,0.7,0.1c0.3,0.1,0.5,0.3,0.5,0.6c0.1,0.3,0,0.5-0.2,0.8
		c-1.9,2.1-3.7,3.9-5.3,5.3c-0.1,0.1-0.1,0.1,0,0.2c0,0,0.1,0.1,0.1,0.1c0.5,0,1.3-0.1,2.4-0.1c1.1,0,1.8-0.1,2.3-0.1
		c0.1,0,0.1,0,0.1-0.1c0-0.1,0-0.1,0-0.2c-0.2-0.3-0.4-0.7-0.7-1c-0.2-0.2-0.2-0.5-0.1-0.7s0.3-0.4,0.5-0.5c0.2-0.1,0.4-0.1,0.5-0.1
		c0.4,0,0.8,0.2,1.1,0.6c0.9,1.3,1.7,2.6,2.2,3.8c0.1,0.3,0.1,0.6,0,0.8s-0.4,0.5-0.6,0.6c-0.3,0.1-0.6,0.1-0.8,0s-0.5-0.3-0.6-0.6
		c-0.1-0.1-0.1-0.2-0.2-0.4c-0.1-0.1-0.2-0.2-0.3-0.1c-1.2,0.1-2.8,0.2-5,0.3c-2.1,0.1-3.5,0.2-4.1,0.3c-0.3,0-0.6-0.1-0.9-0.3
		c-0.3-0.2-0.4-0.5-0.5-0.8c-0.1-0.3,0-0.6,0.2-0.8s0.4-0.4,0.7-0.4h0.4c0.1,0,0.2,0,0.3-0.1c0.6-0.5,1.2-1.1,1.8-1.7
		c0.2-0.2,0.2-0.4,0-0.6c-0.9-1.2-2.1-2.3-3.5-3.5c-0.2-0.2-0.3-0.4-0.3-0.7c0-0.2,0.1-0.5,0.3-0.6c0.3-0.2,0.6-0.4,0.8-0.4
		c0.2,0,0.5,0.1,0.8,0.3c0.2,0.1,0.3,0.2,0.5,0.3c0.1,0.1,0.2,0.1,0.3,0c1-1.3,1.8-2.4,2.3-3.3c0-0.1,0-0.1,0-0.2
		c0-0.1-0.1-0.1-0.1-0.1c-0.6,0-1.2-0.2-1.6-0.7c-0.5-0.4-0.7-1-0.7-1.6v-9.6c0-0.8,0.3-1.4,0.8-1.9c0.5-0.5,1.2-0.8,1.9-0.8H433.8z
		 M427.8,200.4c0,0.8-0.3,1.4-0.8,1.9c-0.5,0.5-1.2,0.8-1.9,0.8h-4c-0.3,0-0.4,0.1-0.4,0.3v3.6c0,0.4-0.1,0.7-0.4,0.9
		c-0.3,0.2-0.6,0.4-0.9,0.4s-0.7-0.1-0.9-0.4c-0.3-0.2-0.4-0.6-0.4-0.9v-10c0-0.3,0.1-0.6,0.4-0.9c0.2-0.3,0.6-0.4,0.9-0.4
		s0.7,0.1,0.9,0.4c0.2,0.3,0.4,0.6,0.4,0.9v3.5c0,0.2,0.1,0.4,0.4,0.4h3.9c0.2,0,0.3-0.1,0.3-0.4v-2.9c0-0.3,0.1-0.6,0.4-0.9
		c0.2-0.2,0.5-0.4,0.9-0.4s0.6,0.1,0.9,0.4c0.2,0.2,0.4,0.5,0.4,0.9V200.4z M433.1,170.4c0-0.2-0.1-0.4-0.3-0.4h-10.4
		c-0.2,0-0.3,0.1-0.3,0.4v2.9c0,0.2,0.1,0.3,0.3,0.3h10.4c0.2,0,0.3-0.1,0.3-0.3V170.4z M422.1,179.1c0,0.2,0.1,0.4,0.3,0.4h10.4
		c0.2,0,0.3-0.1,0.3-0.4v-2.7c0-0.2-0.1-0.4-0.3-0.4h-10.4c-0.2,0-0.3,0.1-0.3,0.4V179.1z"/>
	<path id="XMLID_11_" d="M451.5,182.7c0,0.2,0.1,0.4,0.3,0.4h6.3c0.8,0,1.4,0.3,1.9,0.8c0.5,0.5,0.8,1.2,0.8,1.9
		c0,2.9-0.1,6.9-0.4,12.1c-0.2,2.8-0.4,5-0.6,6.5s-0.6,2.6-1,3.1c-0.6,0.9-1.5,1.4-2.8,1.5c-0.6,0-1.3,0-2.2,0c-0.4,0-0.8,0-1.3,0
		s-0.9-0.2-1.2-0.5c-0.4-0.3-0.6-0.7-0.7-1.2c-0.1-0.4,0-0.7,0.2-1c0.2-0.3,0.5-0.4,0.9-0.4c0.8,0,1.8,0,2.8,0c0.1,0,0.1,0,0.2,0
		c0.6,0,1-0.2,1.3-0.6c0.4-0.5,0.7-2.1,0.9-4.9c0.2-2.7,0.4-7.3,0.5-13.9c0-0.2-0.1-0.4-0.3-0.4h-5.4c-0.3,0-0.4,0.1-0.4,0.4
		c-0.3,4.6-0.9,8.7-1.7,12.2s-2,6.5-3.6,9c-0.3,0.4-0.6,0.6-1.1,0.6s-0.9-0.1-1.2-0.4c-0.4-0.3-0.6-0.8-0.7-1.3
		c-0.1-0.5,0-1,0.3-1.4c1-1.6,1.8-3.4,2.4-5.5s1.1-4.5,1.5-7.1c0.3-2.7,0.5-5.1,0.6-7.4c0.1-2.3,0.2-5.1,0.3-8.4
		c0-0.2-0.1-0.4-0.4-0.4h-3.2c-0.4,0-0.8-0.2-1.1-0.5s-0.5-0.7-0.5-1.1s0.2-0.8,0.5-1.2s0.7-0.5,1.1-0.5h6.5c0.2,0,0.3-0.1,0.3-0.4
		v-5.6c0-0.5,0.2-0.9,0.5-1.2c0.3-0.3,0.8-0.5,1.2-0.5c0.5,0,0.9,0.2,1.2,0.5c0.3,0.3,0.5,0.8,0.5,1.2v5.6c0,0.2,0.1,0.4,0.4,0.4
		h6.3c0.5,0,0.9,0.2,1.2,0.5c0.3,0.3,0.5,0.7,0.5,1.2s-0.2,0.8-0.5,1.1c-0.3,0.3-0.7,0.5-1.2,0.5H452c-0.2,0-0.3,0.1-0.4,0.4
		C451.6,177.2,451.6,179.1,451.5,182.7z M471.4,167.2c0.2-0.5,0.5-1,0.9-1.3s0.9-0.5,1.4-0.5c0.5,0,1,0.2,1.5,0.5
		c0.5,0.3,0.8,0.7,1,1.2c1.2,2.8,2.5,5.5,4.2,8c1.6,2.5,3.3,4.6,5.2,6.2c0.4,0.4,0.7,0.8,0.8,1.4c0,0.2,0,0.3,0,0.5
		c0,0.4-0.1,0.7-0.3,1.1c-0.3,0.4-0.6,0.7-1.1,0.8s-0.9,0-1.3-0.4c-2-1.9-3.8-4.2-5.5-6.8s-3.1-5.3-4.1-8.1c0-0.1,0-0.1-0.1-0.1
		c-0.1,0-0.1,0-0.1,0.1c-0.9,2.7-2.2,5.4-3.9,8.1c-1.7,2.7-3.5,5-5.5,7c-0.3,0.2-0.5,0.3-0.9,0.3c-0.1,0-0.2,0-0.3,0
		c-0.5-0.1-0.8-0.4-1.1-0.8c-0.2-0.3-0.3-0.7-0.3-1.1c0-0.1,0-0.2,0-0.3c0.1-0.5,0.3-1,0.7-1.4c1.8-1.8,3.5-3.9,5.1-6.5
		C469.3,172.5,470.5,169.9,471.4,167.2z M466.5,199.7c-0.4-0.2-0.7-0.5-0.8-1c-0.1-0.4,0-0.8,0.3-1.1c0.3-0.4,0.7-0.7,1.2-0.8
		c0.5-0.1,1-0.1,1.5,0.1c5.3,2.5,9.7,5.2,13.2,8c0.4,0.3,0.7,0.8,0.8,1.3c0,0.1,0,0.1,0,0.2c0,0.4-0.1,0.8-0.4,1.2
		c-0.3,0.4-0.7,0.6-1.2,0.7c-0.1,0-0.1,0-0.2,0c-0.4,0-0.8-0.1-1.2-0.4C476.2,205.1,471.8,202.3,466.5,199.7z M478.8,189.6
		c0.4,0.3,0.6,0.8,0.5,1.3c0,0.5-0.2,0.9-0.5,1.3c-0.3,0.3-0.7,0.5-1.1,0.5c0,0-0.1,0-0.1,0c-0.5,0-0.9-0.2-1.2-0.5
		c-1.7-1.8-3.8-3.5-6.3-5.2c-0.3-0.2-0.5-0.5-0.6-1s0.1-0.8,0.4-1.1c0.3-0.3,0.8-0.5,1.2-0.6s0.9,0,1.3,0.3
		C475,186.3,477.1,188,478.8,189.6z"/>
	<path id="XMLID_16_" d="M532.5,198c0.4,0,0.8,0.2,1.1,0.5c0.3,0.3,0.5,0.7,0.5,1.1s-0.2,0.8-0.5,1.1c-0.3,0.3-0.7,0.5-1.1,0.5
		h-17.9c-0.3,0-0.4,0.1-0.4,0.4v5c0,0.5-0.2,0.9-0.5,1.2c-0.4,0.4-0.8,0.5-1.3,0.5c-0.5,0-0.9-0.2-1.3-0.5c-0.4-0.4-0.5-0.8-0.5-1.2
		v-5c0-0.2-0.1-0.4-0.3-0.4h-17.5c-0.4,0-0.8-0.2-1.1-0.5c-0.3-0.3-0.5-0.7-0.5-1.1s0.2-0.8,0.5-1.1c0.3-0.3,0.7-0.5,1.1-0.5h17.5
		c0.2,0,0.3-0.1,0.3-0.4v-3.2c0-0.2-0.1-0.4-0.3-0.4h-11.3c-0.8,0-1.4-0.3-1.9-0.8c-0.5-0.5-0.8-1.2-0.8-1.9v-13.1
		c0-0.8,0.3-1.4,0.8-1.9c0.5-0.5,1.2-0.8,1.9-0.8h11.3c0.2,0,0.3-0.1,0.3-0.3v-2.8c0-0.2-0.1-0.3-0.3-0.3h-16
		c-0.4,0-0.8-0.2-1.1-0.5s-0.5-0.7-0.5-1.1s0.2-0.8,0.5-1.1s0.7-0.5,1.1-0.5h16c0.2,0,0.3-0.1,0.3-0.3v-2.2c0-0.5,0.2-0.9,0.5-1.3
		c0.4-0.4,0.8-0.5,1.3-0.5c0.5,0,0.9,0.2,1.3,0.5c0.4,0.4,0.5,0.8,0.5,1.3v2.2c0,0.2,0.1,0.3,0.4,0.3h16.2c0.4,0,0.8,0.2,1.1,0.5
		s0.5,0.7,0.5,1.1s-0.2,0.8-0.5,1.1s-0.7,0.5-1.1,0.5h-16.2c-0.3,0-0.4,0.1-0.4,0.3v2.8c0,0.2,0.1,0.3,0.4,0.3h11.6
		c0.8,0,1.4,0.3,1.9,0.8c0.5,0.5,0.8,1.2,0.8,1.9v13.1c0,0.8-0.3,1.4-0.8,1.9c-0.5,0.5-1.2,0.8-1.9,0.8h-11.6
		c-0.3,0-0.4,0.1-0.4,0.4v3.2c0,0.2,0.1,0.4,0.4,0.4H532.5z M500.1,178.4c-0.2,0-0.3,0.1-0.3,0.3v4.2c0,0.2,0.1,0.3,0.3,0.3h10.3
		c0.2,0,0.3-0.1,0.3-0.3v-4.2c0-0.2-0.1-0.3-0.3-0.3H500.1z M499.7,190.8c0,0.2,0.1,0.3,0.3,0.3h10.3c0.2,0,0.3-0.1,0.3-0.3v-4.2
		c0-0.2-0.1-0.4-0.3-0.4h-10.3c-0.2,0-0.3,0.1-0.3,0.4V190.8z M525.5,178.8c0-0.2-0.1-0.3-0.3-0.3h-10.5c-0.3,0-0.4,0.1-0.4,0.3v4.2
		c0,0.2,0.1,0.3,0.4,0.3h10.5c0.2,0,0.3-0.1,0.3-0.3V178.8z M525.2,191.1c0.2,0,0.3-0.1,0.3-0.3v-4.2c0-0.2-0.1-0.4-0.3-0.4h-10.5
		c-0.3,0-0.4,0.1-0.4,0.4v4.2c0,0.2,0.1,0.3,0.4,0.3H525.2z"/>
	<path id="XMLID_22_" d="M578.9,184c0.8,0,1.4,0.3,1.9,0.8c0.5,0.5,0.8,1.2,0.8,1.9v18.9c0,0.8-0.1,1.5-0.3,1.9
		c-0.2,0.5-0.6,0.8-1.1,1.1c-0.8,0.3-2.1,0.5-3.9,0.5h0c-0.4,0-0.8-0.1-1.2-0.4c-0.4-0.3-0.7-0.6-0.8-1.1c-0.1-0.3-0.1-0.7,0.1-1
		c0.2-0.3,0.5-0.4,0.8-0.4c0.4,0,0.8,0,1.1,0c0.7,0,1.2,0,1.5,0c0.2,0,0.4,0,0.5-0.1s0.1-0.3,0.1-0.5v-18.3c0-0.2-0.1-0.3-0.4-0.3
		h-18.3c-0.3,0-0.4,0.1-0.4,0.3v20.2c0,0.5-0.2,0.9-0.5,1.2c-0.3,0.3-0.7,0.5-1.1,0.5c-0.4,0-0.8-0.2-1.1-0.5
		c-0.3-0.3-0.5-0.7-0.5-1.2v-15.4c0-0.1,0-0.1-0.1-0.1s-0.1,0-0.1,0.1c-0.4,0.5-0.9,0.8-1.5,0.8c0,0-0.1,0-0.1,0
		c-0.6,0-1-0.2-1.5-0.7c-1-1.2-2.1-2.3-3.2-3.4c-0.1-0.1-0.1-0.1-0.2,0c-0.1,0-0.1,0.1-0.1,0.1v18.5c0,0.5-0.2,0.9-0.5,1.2
		s-0.7,0.5-1.2,0.5c-0.5,0-0.9-0.2-1.2-0.5s-0.5-0.8-0.5-1.2v-16.1c0-0.1,0-0.1-0.1-0.1c-0.1,0-0.1,0-0.1,0
		c-1.6,1.7-3.2,3.1-4.7,4.3c-0.4,0.3-0.8,0.4-1.2,0.3c-0.5-0.1-0.8-0.4-1.1-0.8c-0.2-0.3-0.3-0.6-0.3-1c0-0.2,0-0.3,0-0.4
		c0.1-0.5,0.3-0.9,0.8-1.2c2.4-1.8,4.6-3.9,6.8-6.4s3.9-5.2,5.3-7.9c0-0.1,0-0.2,0-0.2c0-0.1-0.1-0.1-0.2-0.1h-10.1
		c-0.4,0-0.8-0.2-1.1-0.5s-0.5-0.7-0.5-1.1s0.2-0.8,0.5-1.2s0.7-0.5,1.1-0.5h4.5c0.2,0,0.4-0.1,0.4-0.3v-6.8c0-0.5,0.2-0.9,0.5-1.2
		s0.7-0.5,1.2-0.5c0.5,0,0.9,0.2,1.2,0.5s0.5,0.8,0.5,1.2v6.8c0,0.2,0.1,0.3,0.4,0.3h3.4c0,0,0.1,0,0.1,0c0.4-0.1,0.8,0,1.1,0.2
		l0.5,0.3c0.3,0.2,0.5,0.4,0.6,0.8c0.1,0.3,0.1,0.6-0.1,1c-1.2,2.9-2.9,5.9-4.9,8.8c-0.1,0.2-0.1,0.4,0.1,0.5
		c1.5,1.2,3.2,2.7,5.2,4.6c0.1,0.1,0.1,0.1,0.2,0c0.1,0,0.1-0.1,0.1-0.1v-3.6c0-0.8,0.3-1.4,0.8-1.9c0.5-0.5,1.2-0.8,2-0.8h0.3
		c0.2,0,0.3-0.1,0.3-0.3v-13.1c0-0.8,0.3-1.4,0.8-1.9c0.5-0.5,1.2-0.8,1.9-0.8h13.5c0.8,0,1.4,0.3,1.9,0.8c0.5,0.5,0.8,1.2,0.8,1.9
		v13.1C578.6,183.9,578.7,184,578.9,184z M562.9,170.7c-0.2,0-0.3,0.1-0.3,0.3v12.7c0,0.2,0.1,0.3,0.3,0.3h3.8
		c0.2,0,0.3-0.1,0.3-0.3v-6.1c0-0.8,0.3-1.4,0.8-2c0.5-0.5,1.2-0.8,1.9-0.8h5.3c0.2,0,0.3-0.1,0.3-0.4V171c0-0.2-0.1-0.3-0.3-0.3
		H562.9z M574.7,199.5c0,0.8-0.3,1.4-0.8,2c-0.5,0.5-1.2,0.8-1.9,0.8h-6c-0.2,0-0.2,0.1-0.2,0.3v0.9c0,0.3-0.1,0.6-0.4,0.9
		c-0.3,0.3-0.6,0.4-0.9,0.4c-0.4,0-0.7-0.1-0.9-0.4c-0.3-0.3-0.4-0.6-0.4-0.9v-9.9c0-0.8,0.3-1.4,0.8-2c0.5-0.5,1.2-0.8,1.9-0.8h6.1
		c0.8,0,1.4,0.3,1.9,0.8c0.5,0.5,0.8,1.2,0.8,2V199.5z M572.1,193.7c0-0.2-0.1-0.3-0.4-0.3H566c-0.2,0-0.3,0.1-0.3,0.3v5.6
		c0,0.2,0.1,0.3,0.3,0.3h5.7c0.2,0,0.4-0.1,0.4-0.3V193.7z M575.1,184c0.2,0,0.3-0.1,0.3-0.3v-5.8c0-0.2-0.1-0.3-0.3-0.3h-5
		c-0.2,0-0.3,0.1-0.3,0.3v5.8c0,0.2,0.1,0.3,0.3,0.3H575.1z"/>
	<path id="XMLID_28_" d="M595.9,167.2c0.1-0.5,0.4-1,0.8-1.3c0.3-0.2,0.7-0.3,1.1-0.3c0.1,0,0.2,0,0.4,0c0.5,0.1,0.9,0.4,1.1,0.8
		c0.3,0.4,0.3,0.9,0.1,1.4c-0.8,2.2-1.4,3.9-1.7,4.9c0,0.1,0,0.1,0,0.2s0.1,0.1,0.2,0.1h4.8c0.8,0,1.4,0.3,2,0.8
		c0.5,0.5,0.8,1.2,0.8,2v25.6c0,0.8-0.3,1.4-0.8,2c-0.5,0.5-1.2,0.8-2,0.8h-10.2c-0.2,0-0.3,0.1-0.3,0.4v1.8c0,0.5-0.2,0.9-0.5,1.2
		s-0.7,0.5-1.1,0.5c-0.4,0-0.8-0.2-1.1-0.5s-0.5-0.7-0.5-1.2v-30.5c0-0.8,0.3-1.4,0.8-2c0.5-0.5,1.2-0.8,1.9-0.8h2.2
		c0.2,0,0.4-0.1,0.5-0.3C595,170.8,595.5,168.9,595.9,167.2z M601.9,186.3c0.2,0,0.4-0.1,0.4-0.3v-9.3c0-0.2-0.1-0.4-0.4-0.4h-9.4
		c-0.2,0-0.3,0.1-0.3,0.4v9.3c0,0.2,0.1,0.3,0.3,0.3H601.9z M592.2,200.6c0,0.2,0.1,0.4,0.3,0.4h9.4c0.2,0,0.4-0.1,0.4-0.4v-10.8
		c0-0.2-0.1-0.3-0.4-0.3h-9.4c-0.2,0-0.3,0.1-0.3,0.3V200.6z M626.3,172.9c0.8,0,1.4,0.3,2,0.8c0.5,0.5,0.8,1.1,0.8,1.8
		c0,7.2-0.4,14.8-1.3,22.8c-0.4,4.2-1.1,6.9-2,8c-0.5,0.7-1.1,1.1-1.7,1.4c-0.6,0.3-1.3,0.5-2.1,0.5c-0.6,0.1-1.5,0.1-2.5,0.1
		c-0.8,0-1.7,0-2.8-0.1c-0.5,0-1-0.2-1.4-0.5c-0.4-0.4-0.7-0.8-0.8-1.3c-0.2-0.4-0.1-0.8,0.1-1.1s0.5-0.5,0.9-0.4
		c1.6,0.1,3.3,0.1,5.2,0.1c0.9,0,1.6-0.2,2-0.8c0.8-0.8,1.4-3.3,1.8-7.3s0.8-10.9,1.1-20.4c0-0.2-0.1-0.4-0.3-0.4h-11.5
		c-0.3,0-0.4,0.1-0.5,0.3c-1.1,2.7-2.2,4.9-3.3,6.6c-0.3,0.4-0.7,0.6-1.1,0.7c-0.5,0.1-0.9,0-1.3-0.3c-0.4-0.2-0.7-0.6-0.8-1.1
		c0-0.1,0-0.2,0-0.3c0-0.3,0.1-0.7,0.3-1c2.4-3.7,4.4-8.4,5.9-14.2c0.1-0.5,0.4-0.8,0.8-1.1c0.3-0.2,0.6-0.3,0.9-0.3
		c0.1,0,0.3,0,0.4,0.1c0.5,0.1,0.8,0.4,1.1,0.8c0.2,0.4,0.3,0.9,0.2,1.3c-0.5,1.7-1,3.4-1.5,4.9c0,0.1,0,0.1,0,0.2s0.1,0.1,0.2,0.1
		H626.3z M620.5,193c0.2,0.3,0.3,0.6,0.3,0.9c0,0.2,0,0.3,0,0.5c-0.1,0.5-0.4,0.8-0.8,1.1c-0.3,0.2-0.6,0.3-0.8,0.3
		c-0.2,0-0.3,0-0.5-0.1c-0.4-0.1-0.8-0.4-1-0.8c-1.4-2.4-3.2-5.2-5.5-8.2c-0.2-0.2-0.3-0.5-0.3-0.8c0-0.1,0-0.2,0-0.3
		c0.1-0.4,0.3-0.8,0.7-1c0.3-0.2,0.6-0.2,0.9-0.2c0.1,0,0.2,0,0.3,0c0.5,0.1,0.8,0.3,1.1,0.7C617.3,188,619.1,190.7,620.5,193z"/>
	<path id="XMLID_34_" d="M675.8,184.4c0.4,0.4,0.5,0.8,0.5,1.3s-0.2,0.9-0.5,1.3s-0.8,0.5-1.3,0.5h-15c-0.1,0-0.2,0-0.2,0.1
		s-0.1,0.1,0,0.2c1.5,4.4,3.7,8.1,6.5,11.1s6.5,5.1,10.9,6.5c0.4,0.2,0.7,0.5,0.8,0.9c0,0.2,0,0.3,0,0.4c0,0.3-0.1,0.6-0.3,0.8
		c-0.3,0.5-0.8,0.9-1.4,1.1c-0.3,0.1-0.6,0.2-0.9,0.2s-0.5,0-0.8-0.1c-4.2-1.5-7.7-3.6-10.5-6.4s-5.1-6.3-6.8-10.6
		c0-0.1-0.1-0.1-0.1-0.1s-0.1,0-0.1,0.1c-1.1,3.6-3.1,6.8-5.9,9.6s-6.9,5.3-12.2,7.3c-0.3,0.1-0.5,0.1-0.7,0.1c-0.3,0-0.5,0-0.8-0.1
		c-0.5-0.2-0.9-0.5-1.2-1c-0.3-0.4-0.3-0.8-0.2-1.2c0.1-0.4,0.4-0.7,0.8-0.9c2.9-1.1,5.4-2.4,7.6-3.8s3.9-2.8,5.2-4.4s2.3-3.1,3-4.6
		s1.2-3.2,1.6-4.9c0.1-0.2,0-0.3-0.3-0.3H639c-0.5,0-0.9-0.2-1.3-0.5c-0.4-0.4-0.5-0.8-0.5-1.3s0.2-0.9,0.5-1.3
		c0.4-0.4,0.8-0.5,1.3-0.5h15c0.2,0,0.4-0.1,0.4-0.3c0-0.5,0-1.3,0-2.4v-8.1c0-0.2-0.1-0.3-0.4-0.3h-16.6c-0.5,0-0.9-0.2-1.3-0.5
		c-0.3-0.4-0.5-0.8-0.5-1.3s0.2-0.9,0.5-1.3c0.3-0.4,0.8-0.5,1.3-0.5h38.3c0.5,0,0.9,0.2,1.3,0.5s0.5,0.8,0.5,1.3s-0.2,0.9-0.5,1.3
		s-0.8,0.5-1.3,0.5h-17.2c-0.2,0-0.3,0.1-0.3,0.3v8.2c0,1,0,1.8,0,2.3c0,0.2,0.1,0.3,0.3,0.3h16.1
		C675,183.9,675.5,184.1,675.8,184.4z"/>
	<path id="XMLID_36_" d="M724.3,170.2c0.3,0.3,0.4,0.6,0.4,1s-0.1,0.7-0.4,1s-0.6,0.4-1,0.4h-29.2c-0.2,0-0.4,0.1-0.5,0.3
		c-1.8,2.9-3.9,5.5-6.1,7.8c-0.4,0.4-0.9,0.6-1.5,0.6c0,0-0.1,0-0.1,0c-0.5,0-1-0.2-1.5-0.5s-0.7-0.7-0.7-1.3c0-0.5,0.2-0.8,0.5-1.1
		c3.5-3.1,6.3-7,8.3-11.5c0.2-0.5,0.6-0.9,1-1.1c0.3-0.2,0.6-0.2,1-0.2c0.2,0,0.4,0,0.6,0c0.5,0.1,0.9,0.4,1.1,0.9s0.2,0.9,0,1.4
		c-0.2,0.5-0.5,1-0.7,1.4c0,0.1,0,0.2,0,0.2s0.1,0.1,0.2,0.1h27.6C723.7,169.8,724,169.9,724.3,170.2z M697.9,185.9
		c0.3-0.3,0.8-0.5,1.2-0.5s0.9,0.2,1.2,0.5s0.5,0.7,0.5,1.2v6.4c0,0.2,0.1,0.3,0.4,0.3h10.7c0.4,0,0.7,0.1,1,0.4s0.4,0.6,0.4,1
		s-0.1,0.8-0.4,1s-0.6,0.4-1,0.4h-10.8c-0.2,0-0.3,0.1-0.3,0.2v0.2v0c0.1-0.1,0.1-0.1,0.2,0c4.2,2.3,7.7,4.5,10.5,6.7
		c0.3,0.2,0.5,0.6,0.5,1s-0.1,0.8-0.4,1.1s-0.7,0.5-1.2,0.5s-0.9-0.1-1.2-0.4c-2.1-1.7-4.8-3.6-8.2-5.6c-0.1,0-0.1,0-0.2,0
		s-0.1,0.1-0.1,0.2v6.8c0,0.5-0.2,0.9-0.5,1.2s-0.7,0.5-1.2,0.5s-0.9-0.2-1.2-0.5s-0.5-0.7-0.5-1.2v-8.8c0-0.1,0-0.1-0.1-0.1
		s-0.1,0-0.1,0c-2.8,3.6-6.2,6.5-10.1,8.9c-0.4,0.2-0.9,0.3-1.3,0.2s-0.9-0.3-1.2-0.8c-0.2-0.2-0.3-0.5-0.3-0.8c0-0.1,0-0.2,0-0.3
		c0.1-0.4,0.3-0.7,0.7-0.9c1.8-0.9,3.6-2.1,5.3-3.5s3.3-2.9,4.6-4.4c0.1,0,0.1-0.1,0-0.1s-0.1-0.1-0.1-0.1h-8.6
		c-0.4,0-0.8-0.1-1-0.4s-0.4-0.6-0.4-1s0.1-0.8,0.4-1s0.6-0.4,1-0.4h11c0.2,0,0.3-0.1,0.3-0.3v-6.4
		C697.4,186.6,697.6,186.2,697.9,185.9z M688.1,184c-0.3-0.3-0.4-0.6-0.4-1s0.1-0.7,0.4-1s0.6-0.4,1-0.4h26.5c0.8,0,1.4,0.3,1.9,0.8
		s0.8,1.2,0.9,2c0.4,14.2,1.9,21.4,4.6,21.4c0.7,0,1.1-1.8,1.3-5.2c0-0.3,0.1-0.5,0.4-0.6s0.5-0.1,0.8,0.2c0.8,0.7,1.2,1.5,1.2,2.3
		c0,2.2-0.4,4-1.1,5.4c-0.6,1-1.5,1.5-2.8,1.5c-1,0-1.9-0.3-2.7-0.8s-1.4-1.4-2-2.5s-1-2.3-1.4-3.7s-0.7-3-0.9-5s-0.4-3.9-0.5-5.8
		s-0.2-4.1-0.3-6.7c0-0.2-0.1-0.4-0.3-0.4h-25.5C688.7,184.4,688.4,184.2,688.1,184z M688.8,188.6c-0.2-0.3-0.3-0.6-0.2-1
		s0.3-0.6,0.6-0.8c0.4-0.2,0.8-0.2,1.2-0.1s0.8,0.3,1.1,0.7c0.9,1.2,1.7,2.4,2.2,3.5c0.2,0.4,0.2,0.8,0,1.1s-0.4,0.7-0.8,0.9
		c-0.4,0.2-0.8,0.2-1.1,0s-0.7-0.4-0.8-0.8C690.4,191,689.7,189.8,688.8,188.6z M720.7,176.1c0.3,0.3,0.4,0.6,0.4,1
		s-0.1,0.7-0.4,0.9s-0.6,0.4-0.9,0.4h-25.8c-0.4,0-0.7-0.1-1-0.4s-0.4-0.6-0.4-0.9s0.1-0.7,0.4-1s0.6-0.4,1-0.4h25.8
		C720.1,175.7,720.4,175.8,720.7,176.1z M707,187.4c0.2-0.4,0.6-0.7,1.1-0.8s0.9-0.2,1.3,0c0.4,0.2,0.6,0.4,0.8,0.8s0.1,0.8-0.2,1.1
		c-1.2,1.7-2.4,3-3.3,4.1c-0.4,0.4-0.8,0.6-1.2,0.6c-0.2,0-0.5-0.1-0.8-0.2c-0.3-0.2-0.5-0.4-0.5-0.7s0-0.6,0.2-0.8
		C705.2,190.2,706.1,188.8,707,187.4z"/>
	<path id="XMLID_43_" d="M743.6,203.9c0.3,0.4,0.5,0.8,0.5,1.4c0,0.7-0.2,1.2-0.8,1.6c-0.4,0.3-0.8,0.5-1.3,0.5c-0.1,0-0.1,0-0.2,0
		c-0.6-0.1-1-0.3-1.5-0.8c-2.3-2.7-4.9-5.3-7.6-7.7c-0.4-0.4-0.6-0.8-0.6-1.4c0-0.5,0.2-1,0.6-1.3c0.4-0.4,1-0.6,1.5-0.6h0
		c0.6,0,1.1,0.2,1.5,0.6C738.4,198.4,741,201,743.6,203.9z"/>
	<path id="XMLID_45_" d="M791.3,168.5c0.8,0,1.4,0.3,1.9,0.8s0.8,1.2,0.8,1.9v25.8c0,0.8-0.3,1.4-0.8,2s-1.2,0.8-1.9,0.8h-7.2
		c-0.2,0-0.3,0.1-0.3,0.4v1.9c0,0.5-0.2,0.9-0.5,1.2s-0.7,0.5-1.2,0.5s-0.8-0.2-1.1-0.5s-0.5-0.7-0.5-1.2v-30.8
		c0-0.8,0.3-1.4,0.8-1.9s1.2-0.8,2-0.8H791.3z M790.7,172.1c0-0.2-0.1-0.4-0.3-0.4h-6.3c-0.2,0-0.3,0.1-0.3,0.4v9.9
		c0,0.2,0.1,0.3,0.3,0.3h6.3c0.2,0,0.3-0.1,0.3-0.3V172.1z M783.8,196.3c0,0.2,0.1,0.4,0.3,0.4h6.3c0.2,0,0.3-0.1,0.3-0.4v-10.4
		c0-0.2-0.1-0.3-0.3-0.3h-6.3c-0.2,0-0.3,0.1-0.3,0.3V196.3z M822.3,180.8c0.3,0.3,0.5,0.7,0.5,1.1s-0.2,0.8-0.5,1.1
		s-0.7,0.5-1.1,0.5H817c-0.2,0-0.4,0.1-0.4,0.3v4.7c0,0.2,0.1,0.4,0.4,0.4h3.6c0.4,0,0.8,0.1,1.1,0.4s0.5,0.7,0.5,1.1
		s-0.2,0.8-0.5,1.1s-0.7,0.5-1.1,0.5H817c-0.2,0-0.4,0.1-0.4,0.4V205c0,1-0.1,1.8-0.4,2.3s-0.8,1-1.5,1.3c-1.1,0.4-3.1,0.6-6,0.6
		c-0.5,0-0.9-0.2-1.3-0.5s-0.7-0.7-0.8-1.2c-0.2-0.4-0.1-0.7,0.1-1.1s0.5-0.5,0.9-0.5c1.2,0,2.1,0,2.9,0c0.8,0,1.3,0,1.7,0
		s0.7-0.1,0.8-0.2s0.2-0.4,0.2-0.7v-12.5c0-0.2-0.1-0.4-0.3-0.4h-16.2c-0.4,0-0.8-0.2-1.1-0.5s-0.5-0.7-0.5-1.1s0.2-0.8,0.5-1.1
		s0.7-0.4,1.1-0.4h16.2c0.2,0,0.3-0.1,0.3-0.4v-4.7c0-0.2-0.1-0.3-0.3-0.3h-16.5c-0.4,0-0.8-0.2-1.1-0.5s-0.5-0.7-0.5-1.1
		s0.2-0.8,0.5-1.1s0.7-0.5,1.1-0.5h10.1c0.2,0,0.3-0.1,0.3-0.3v-5.4c0-0.2-0.1-0.4-0.3-0.4h-8.1c-0.4,0-0.8-0.1-1.1-0.4
		s-0.5-0.7-0.5-1.1s0.2-0.8,0.5-1.1s0.7-0.5,1.1-0.5h8.1c0.2,0,0.3-0.1,0.3-0.4v-3.6c0-0.5,0.2-0.9,0.5-1.2s0.8-0.5,1.2-0.5
		s0.9,0.2,1.2,0.5s0.5,0.8,0.5,1.2v3.6c0,0.2,0.1,0.4,0.3,0.4h8.4c0.4,0,0.8,0.2,1.1,0.5s0.5,0.7,0.5,1.1s-0.2,0.8-0.5,1.1
		s-0.7,0.4-1.1,0.4h-8.4c-0.2,0-0.3,0.1-0.3,0.4v5.4c0,0.2,0.1,0.3,0.3,0.3h10.5C821.6,180.3,822,180.5,822.3,180.8z M799.1,196.7
		c-0.2-0.3-0.3-0.7-0.3-1.1s0.3-0.7,0.6-0.9c0.4-0.2,0.9-0.3,1.4-0.3s0.9,0.3,1.2,0.6c1.7,1.9,3.1,3.7,4.2,5.4
		c0.2,0.4,0.3,0.9,0.2,1.4s-0.4,0.9-0.8,1.1c-0.4,0.2-0.8,0.3-1.3,0.2s-0.8-0.4-1.1-0.8C802.1,200.4,800.7,198.5,799.1,196.7z"/>
	<path id="XMLID_51_" d="M846.4,181.1c0,0.8-0.3,1.4-0.8,2s-1.2,0.8-1.9,0.8H833c-0.2,0-0.4,0.1-0.4,0.4v23.3c0,0.5-0.2,0.9-0.5,1.3
		s-0.8,0.5-1.3,0.5s-0.9-0.2-1.3-0.5s-0.5-0.8-0.5-1.3v-37.3c0-0.8,0.3-1.4,0.8-1.9s1.2-0.8,1.9-0.8h11.8c0.8,0,1.4,0.3,1.9,0.8
		s0.8,1.2,0.8,1.9V181.1z M843,170.6c0-0.2-0.1-0.4-0.3-0.4H833c-0.2,0-0.4,0.1-0.4,0.4v3.3c0,0.2,0.1,0.3,0.4,0.3h9.7
		c0.2,0,0.3-0.1,0.3-0.3V170.6z M832.6,180.7c0,0.2,0.1,0.4,0.4,0.4h9.7c0.2,0,0.3-0.1,0.3-0.4v-3.5c0-0.2-0.1-0.3-0.3-0.3H833
		c-0.2,0-0.4,0.1-0.4,0.3V180.7z M857.4,202.1c0,0.8-0.3,1.4-0.8,1.9s-1.2,0.8-2,0.8h-11.5c-0.2,0-0.3,0.1-0.3,0.2v0.6
		c0,0.4-0.2,0.8-0.5,1.1s-0.7,0.5-1.1,0.5s-0.8-0.2-1.1-0.5s-0.5-0.7-0.5-1.1v-15.4c0-0.8,0.3-1.4,0.8-2s1.2-0.8,2-0.8h12.2
		c0.8,0,1.4,0.3,2,0.8s0.8,1.2,0.8,2V202.1z M854.2,190.5c0-0.2-0.1-0.4-0.4-0.4h-10.5c-0.2,0-0.4,0.1-0.4,0.4v3.8
		c0,0.2,0.1,0.4,0.4,0.4h10.5c0.2,0,0.4-0.1,0.4-0.4V190.5z M842.9,201.6c0,0.2,0.1,0.3,0.4,0.3h10.5c0.2,0,0.4-0.1,0.4-0.3v-4
		c0-0.2-0.1-0.3-0.4-0.3h-10.5c-0.2,0-0.4,0.1-0.4,0.3V201.6z M865.7,167.5c0.8,0,1.4,0.3,1.9,0.8s0.8,1.2,0.8,1.9v34.3
		c0,1.2-0.2,2.1-0.5,2.7s-0.9,1.1-1.6,1.4c-1.1,0.4-3.1,0.6-6.1,0.6c-0.6,0-1.1-0.2-1.5-0.5s-0.8-0.8-0.9-1.3
		c-0.1-0.4-0.1-0.8,0.2-1.2s0.6-0.5,1-0.5c0.9,0,1.7,0,2.4,0c0.9,0,1.7,0,2.4,0c0.4,0,0.7-0.1,0.8-0.3s0.2-0.5,0.2-0.9v-20.2
		c0-0.2-0.1-0.4-0.3-0.4h-11.1c-0.8,0-1.4-0.3-1.9-0.8s-0.8-1.2-0.8-2v-10.9c0-0.8,0.3-1.4,0.8-1.9s1.2-0.8,1.9-0.8H865.7z
		 M864.8,170.6c0-0.2-0.1-0.4-0.3-0.4h-10.1c-0.2,0-0.3,0.1-0.3,0.4v3.3c0,0.2,0.1,0.3,0.3,0.3h10.1c0.2,0,0.3-0.1,0.3-0.3V170.6z
		 M854.1,180.8c0,0.2,0.1,0.4,0.3,0.4h10.1c0.2,0,0.3-0.1,0.3-0.4v-3.6c0-0.2-0.1-0.3-0.3-0.3h-10.1c-0.2,0-0.3,0.1-0.3,0.3V180.8z"
		/>
	<path id="XMLID_61_" d="M891.9,198.9c0.4-0.1,0.7-0.1,1.1,0.2s0.5,0.6,0.6,1c0.1,0.4,0,0.8-0.3,1.2s-0.6,0.6-1,0.7
		c-5.7,1.7-10.8,3.1-15.3,4.4c-0.5,0.1-0.9,0.1-1.3-0.2s-0.7-0.6-0.8-1.1c-0.1-0.2-0.1-0.3-0.1-0.5c0-0.3,0.1-0.6,0.2-0.8
		c0.2-0.4,0.6-0.7,1.1-0.8l0.5-0.1c0.2,0,0.3-0.1,0.3-0.3V188c0-0.4,0.1-0.8,0.4-1.1s0.6-0.4,1.1-0.4s0.8,0.1,1.1,0.4
		s0.4,0.6,0.4,1.1v13.7c0,0.1,0,0.2,0.1,0.2s0.1,0.1,0.2,0l2.6-0.7c0.2-0.1,0.3-0.2,0.3-0.5v-18.3c0-0.2-0.1-0.4-0.3-0.4h-3.2
		c-0.8,0-1.4-0.3-1.9-0.8s-0.8-1.2-0.8-2v-9.1c0-0.8,0.3-1.4,0.8-1.9s1.2-0.8,1.9-0.8h9.5c0.8,0,1.4,0.3,1.9,0.8s0.8,1.2,0.8,1.9
		v9.1c0,0.8-0.3,1.4-0.8,2s-1.2,0.8-1.9,0.8h-2.4c-0.2,0-0.3,0.1-0.3,0.4v5.8c0,0.2,0.1,0.4,0.3,0.4h4.8c0.4,0,0.8,0.1,1.1,0.4
		s0.5,0.7,0.5,1.1s-0.2,0.8-0.5,1.1s-0.7,0.5-1.1,0.5h-4.8c-0.2,0-0.3,0.1-0.3,0.4v7.8c0,0.1,0,0.2,0.1,0.2s0.1,0.1,0.2,0
		c0.6-0.2,1.4-0.4,2.6-0.7S891.3,199,891.9,198.9z M880.4,170.6c-0.2,0-0.3,0.1-0.3,0.3v7.7c0,0.2,0.1,0.4,0.3,0.4h7.9
		c0.2,0,0.4-0.1,0.4-0.4V171c0-0.2-0.1-0.3-0.4-0.3H880.4z M914.3,191.3c0.4-0.3,0.8-0.5,1.3-0.5s0.9,0.2,1.2,0.5s0.5,0.7,0.5,1.2
		s-0.2,0.8-0.5,1.1c-1.8,1.4-3.8,2.8-6.2,4.4c-0.2,0.1-0.2,0.3-0.1,0.5c1.8,3,4.1,5.3,6.8,6.9c0.4,0.2,0.6,0.6,0.7,1
		c0,0.1,0,0.2,0,0.3c0,0.3-0.1,0.7-0.3,0.9c-0.3,0.4-0.8,0.7-1.3,0.8c-0.2,0.1-0.4,0.1-0.5,0.1c-0.3,0-0.7-0.1-1-0.3
		c-5.5-3.5-9.4-9.9-11.5-19.2c-0.1-0.2-0.2-0.3-0.4-0.3h-3.6c-0.2,0-0.4,0.1-0.4,0.3v14c0,0.2,0.1,0.3,0.4,0.3
		c0.8-0.2,2-0.5,3.5-0.8s2.6-0.6,3.1-0.7c0.4-0.1,0.8,0,1.1,0.2s0.5,0.6,0.6,1c0.1,0.5,0,0.9-0.3,1.2s-0.6,0.6-1.1,0.7
		c-2.1,0.6-6.1,1.6-12,3c-0.5,0.1-0.9,0.1-1.3-0.2s-0.7-0.6-0.8-1c0-0.2,0-0.3,0-0.5c0-0.3,0.1-0.6,0.2-0.8c0.2-0.4,0.6-0.7,1.1-0.8
		c0.8-0.2,1.4-0.3,1.8-0.4c0.2-0.1,0.4-0.2,0.4-0.4v-33.7c0-0.8,0.3-1.4,0.8-1.9s1.2-0.8,2-0.8h14.7c0.8,0,1.4,0.3,1.9,0.8
		s0.8,1.2,0.8,1.9V186c0,0.8-0.3,1.4-0.8,1.9s-1.2,0.8-1.9,0.8h-6c-0.1,0-0.2,0-0.2,0.1s-0.1,0.1,0,0.2c0.6,2.2,1.2,4.2,2,6
		c0.1,0.2,0.2,0.3,0.4,0.1C911.3,193.8,913,192.5,914.3,191.3z M912.4,171.1c0-0.2-0.1-0.3-0.4-0.3h-12.5c-0.2,0-0.4,0.1-0.4,0.3v5
		c0,0.2,0.1,0.3,0.4,0.3H912c0.2,0,0.4-0.1,0.4-0.3V171.1z M899.5,179.6c-0.2,0-0.4,0.1-0.4,0.4v5.3c0,0.2,0.1,0.3,0.4,0.3H912
		c0.2,0,0.4-0.1,0.4-0.3V180c0-0.2-0.1-0.4-0.4-0.4H899.5z"/>
	<path id="XMLID_67_" d="M964.5,198c0.4,0,0.8,0.2,1.1,0.5s0.5,0.7,0.5,1.1s-0.2,0.8-0.5,1.1s-0.7,0.5-1.1,0.5h-17.9
		c-0.2,0-0.4,0.1-0.4,0.4v5c0,0.5-0.2,0.9-0.5,1.2s-0.8,0.5-1.3,0.5s-0.9-0.2-1.3-0.5s-0.5-0.8-0.5-1.2v-5c0-0.2-0.1-0.4-0.3-0.4
		h-17.5c-0.4,0-0.8-0.2-1.1-0.5s-0.5-0.7-0.5-1.1s0.2-0.8,0.5-1.1s0.7-0.5,1.1-0.5h17.5c0.2,0,0.3-0.1,0.3-0.4v-3.2
		c0-0.2-0.1-0.4-0.3-0.4h-11.3c-0.8,0-1.4-0.3-1.9-0.8s-0.8-1.2-0.8-1.9v-13.1c0-0.8,0.3-1.4,0.8-1.9s1.2-0.8,1.9-0.8h11.3
		c0.2,0,0.3-0.1,0.3-0.3v-2.8c0-0.2-0.1-0.3-0.3-0.3h-16c-0.4,0-0.8-0.2-1.1-0.5s-0.5-0.7-0.5-1.1s0.2-0.8,0.5-1.1s0.7-0.5,1.1-0.5
		h16c0.2,0,0.3-0.1,0.3-0.3v-2.2c0-0.5,0.2-0.9,0.5-1.3s0.8-0.5,1.3-0.5s0.9,0.2,1.3,0.5s0.5,0.8,0.5,1.3v2.2c0,0.2,0.1,0.3,0.4,0.3
		h16.2c0.4,0,0.8,0.2,1.1,0.5s0.5,0.7,0.5,1.1s-0.2,0.8-0.5,1.1s-0.7,0.5-1.1,0.5h-16.2c-0.2,0-0.4,0.1-0.4,0.3v2.8
		c0,0.2,0.1,0.3,0.4,0.3h11.6c0.8,0,1.4,0.3,1.9,0.8s0.8,1.2,0.8,1.9v13.1c0,0.8-0.3,1.4-0.8,1.9s-1.2,0.8-1.9,0.8h-11.6
		c-0.2,0-0.4,0.1-0.4,0.4v3.2c0,0.2,0.1,0.4,0.4,0.4H964.5z M932.1,178.4c-0.2,0-0.3,0.1-0.3,0.3v4.2c0,0.2,0.1,0.3,0.3,0.3h10.3
		c0.2,0,0.3-0.1,0.3-0.3v-4.2c0-0.2-0.1-0.3-0.3-0.3H932.1z M931.7,190.8c0,0.2,0.1,0.3,0.3,0.3h10.3c0.2,0,0.3-0.1,0.3-0.3v-4.2
		c0-0.2-0.1-0.4-0.3-0.4h-10.3c-0.2,0-0.3,0.1-0.3,0.4V190.8z M957.5,178.8c0-0.2-0.1-0.3-0.3-0.3h-10.5c-0.2,0-0.4,0.1-0.4,0.3v4.2
		c0,0.2,0.1,0.3,0.4,0.3h10.5c0.2,0,0.3-0.1,0.3-0.3V178.8z M957.2,191.1c0.2,0,0.3-0.1,0.3-0.3v-4.2c0-0.2-0.1-0.4-0.3-0.4h-10.5
		c-0.2,0-0.4,0.1-0.4,0.4v4.2c0,0.2,0.1,0.3,0.4,0.3H957.2z"/>
	<path id="XMLID_73_" d="M987.7,190.4c0.4,0.4,0.6,0.8,0.6,1.3s-0.1,1-0.4,1.4c-0.2,0.3-0.6,0.5-1,0.5s-0.8-0.2-1-0.5
		c-0.9-1.3-2-2.8-3.1-4.2c-0.1,0-0.1,0-0.2,0s-0.1,0.1-0.1,0.1v18.5c0,0.5-0.2,0.9-0.5,1.2s-0.8,0.5-1.2,0.5s-0.9-0.2-1.2-0.5
		s-0.5-0.8-0.5-1.2v-19.1c0-0.1,0-0.1,0-0.1s-0.1,0-0.1,0c-1.8,4.4-3.7,8-5.7,10.8c-0.2,0.3-0.6,0.5-1,0.4s-0.7-0.3-0.9-0.6
		c-0.3-0.5-0.4-1-0.4-1.4c0-0.6,0.2-1.1,0.6-1.6c1.3-1.7,2.5-3.7,3.8-6.1s2.3-4.8,3.1-7.1c0-0.1,0-0.1,0-0.2s-0.1-0.1-0.2-0.1h-5.3
		c-0.5,0-0.9-0.2-1.2-0.5s-0.5-0.7-0.5-1.2s0.2-0.8,0.5-1.2s0.7-0.5,1.2-0.5h5.8c0.2,0,0.3-0.1,0.3-0.4v-6.6c0-0.2-0.1-0.3-0.3-0.3
		c-1.4,0.3-3.2,0.6-5.2,0.9c-0.4,0.1-0.8,0-1.1-0.3s-0.6-0.6-0.8-1c-0.2-0.3-0.1-0.7,0-1s0.4-0.5,0.8-0.6c5-0.9,9-1.8,12-2.9
		c0.3-0.1,0.6-0.2,0.9-0.2c0.2,0,0.4,0,0.6,0c0.5,0.1,1,0.4,1.4,0.8c0.3,0.3,0.4,0.7,0.3,1.1s-0.3,0.7-0.8,0.8
		c-1.3,0.5-2.6,0.9-4.1,1.2c-0.2,0.1-0.3,0.2-0.3,0.4v7.4c0,0.2,0.1,0.4,0.3,0.4h4c0.5,0,0.9,0.2,1.2,0.5s0.5,0.7,0.5,1.2
		s-0.2,0.8-0.5,1.2s-0.7,0.5-1.2,0.5h-4c-0.2,0-0.3,0.1-0.3,0.4v2.2c0,0.2,0.1,0.5,0.3,0.6C983.8,186.4,985.5,188.1,987.7,190.4z
		 M1002.8,204.9c0,0.2,0.1,0.4,0.4,0.4h10.1c0.4,0,0.8,0.1,1.1,0.4s0.4,0.6,0.4,1.1s-0.1,0.8-0.4,1.1s-0.6,0.4-1.1,0.4h-25.5
		c-0.4,0-0.8-0.1-1.1-0.4s-0.4-0.6-0.4-1.1s0.1-0.8,0.4-1.1s0.6-0.4,1.1-0.4H999c0.2,0,0.3-0.1,0.3-0.4v-3c0-0.2-0.1-0.3-0.3-0.3
		h-8.6c-0.4,0-0.8-0.1-1-0.4s-0.4-0.6-0.4-1s0.1-0.7,0.4-1s0.6-0.4,1-0.4h8.6c0.2,0,0.3-0.1,0.3-0.4v-2.7c0-0.2-0.1-0.3-0.3-0.3
		h-6.8c-0.8,0-1.4-0.3-1.9-0.8s-0.8-1.2-0.8-1.9v-9.8c0-0.8,0.3-1.4,0.8-1.9s1.2-0.8,1.9-0.8h6.8c0.2,0,0.3-0.1,0.3-0.3v-2.5
		c0-0.2-0.1-0.3-0.3-0.3h-10.1c-0.4,0-0.8-0.1-1.1-0.4s-0.4-0.6-0.4-1.1s0.1-0.8,0.4-1s0.6-0.4,1.1-0.4H999c0.2,0,0.3-0.1,0.3-0.3
		v-2.5c0-0.2-0.1-0.3-0.3-0.3c-2.5,0.2-5.3,0.3-8.5,0.4c-0.4,0-0.7-0.1-1-0.4s-0.5-0.6-0.7-1c-0.1-0.3-0.1-0.6,0.1-0.9
		s0.4-0.4,0.8-0.5c8.5-0.4,15.2-1.1,20.2-2c0.2,0,0.4,0,0.7,0c0.8,0,1.6,0.4,2.2,1.1c0.2,0.3,0.3,0.7,0.1,1s-0.4,0.6-0.8,0.7
		c-2.5,0.5-5.5,0.9-9,1.2c-0.2,0-0.3,0.1-0.3,0.4v2.8c0,0.2,0.1,0.3,0.4,0.3h9.2c0.4,0,0.8,0.1,1.1,0.4s0.4,0.6,0.4,1
		s-0.1,0.8-0.4,1.1s-0.6,0.4-1.1,0.4h-9.2c-0.2,0-0.4,0.1-0.4,0.3v2.5c0,0.2,0.1,0.3,0.4,0.3h7c0.8,0,1.4,0.3,2,0.8s0.8,1.2,0.8,1.9
		v9.8c0,0.8-0.3,1.4-0.8,1.9s-1.2,0.8-2,0.8h-7c-0.2,0-0.4,0.1-0.4,0.3v2.7c0,0.2,0.1,0.4,0.4,0.4h8.6c0.4,0,0.7,0.1,1,0.4
		s0.4,0.6,0.4,1s-0.1,0.7-0.4,1s-0.6,0.4-1,0.4h-8.6c-0.2,0-0.4,0.1-0.4,0.3V204.9z M993,182.6c-0.2,0-0.4,0.1-0.4,0.3v3
		c0,0.2,0.1,0.3,0.4,0.3h6c0.2,0,0.3-0.1,0.3-0.3v-3c0-0.2-0.1-0.3-0.3-0.3H993z M992.6,192.2c0,0.2,0.1,0.3,0.4,0.3h6
		c0.2,0,0.3-0.1,0.3-0.3v-3.1c0-0.2-0.1-0.3-0.3-0.3h-6c-0.2,0-0.4,0.1-0.4,0.3V192.2z M1009.7,183c0-0.2-0.1-0.3-0.4-0.3h-6.2
		c-0.2,0-0.4,0.1-0.4,0.3v3c0,0.2,0.1,0.3,0.4,0.3h6.2c0.2,0,0.4-0.1,0.4-0.3V183z M1009.3,192.5c0.2,0,0.4-0.1,0.4-0.3v-3.1
		c0-0.2-0.1-0.3-0.4-0.3h-6.2c-0.2,0-0.4,0.1-0.4,0.3v3.1c0,0.2,0.1,0.3,0.4,0.3H1009.3z"/>
	<path id="XMLID_80_" d="M528.8,232.2c0.2-0.5,0.5-0.8,0.9-1c0.3-0.1,0.6-0.2,0.8-0.2c0.2,0,0.3,0,0.5,0.1c0.5,0.1,0.8,0.4,1,0.8
		c0.2,0.4,0.2,0.9,0,1.3c-1.2,2.8-2.6,5.6-4.1,8.3c-0.1,0.2-0.1,0.4-0.1,0.7v30.2c0,0.5-0.2,0.9-0.5,1.2c-0.3,0.3-0.8,0.5-1.2,0.5
		s-0.9-0.2-1.2-0.5s-0.5-0.8-0.5-1.2v-24.8c0-0.1,0-0.1-0.1-0.1s-0.1,0-0.1,0c-1,1.3-2.1,2.7-3.3,4.2c-0.3,0.4-0.7,0.5-1.2,0.4
		s-0.8-0.3-1.1-0.7c-0.3-0.4-0.4-0.9-0.4-1.4c0-0.1,0-0.2,0-0.3c0.1-0.6,0.3-1.1,0.7-1.5C523,243.8,526.3,238.5,528.8,232.2z
		 M558.5,243.3c0-0.2-0.1-0.4-0.3-0.4h-8.3c-0.3,0-0.4,0.1-0.4,0.4v26.6c0,1-0.1,1.8-0.4,2.3c-0.3,0.6-0.7,1-1.3,1.3
		c-0.9,0.4-2.4,0.7-4.5,0.7h0c-0.5,0-1-0.2-1.5-0.5c-0.4-0.3-0.8-0.8-0.9-1.3c-0.2-0.4-0.1-0.8,0.1-1.2c0.2-0.4,0.6-0.5,1-0.5
		c0.6,0,1,0,1.4,0c0.3,0,0.7,0,1,0s0.6,0,0.7,0c0.3,0,0.5-0.1,0.7-0.2c0.1-0.1,0.2-0.3,0.2-0.6v-26.6c0-0.2-0.1-0.4-0.4-0.4h-6.6
		c-0.3,0-0.4,0.1-0.5,0.3c-1.1,2.4-2.2,4.6-3.5,6.5c-0.3,0.4-0.6,0.6-1.1,0.7c-0.5,0-0.9-0.1-1.3-0.4c-0.4-0.3-0.6-0.7-0.7-1.2
		c0-0.1,0-0.2,0-0.3c0-0.4,0.1-0.8,0.3-1.1c2.7-3.9,4.8-9,6.4-15.1c0.1-0.5,0.4-0.8,0.8-1.1c0.3-0.2,0.6-0.3,0.9-0.3
		c0.1,0,0.3,0,0.4,0c0.5,0.1,0.8,0.4,1.1,0.8c0.2,0.4,0.3,0.8,0.2,1.3c-0.6,2.1-1.2,4.1-2,6.1c0,0.1,0,0.2,0,0.3s0.1,0.1,0.2,0.1h19
		c0,0,0.1,0,0.1,0c0.3-0.1,0.7-0.1,1,0l0.7,0.2c0.3,0.1,0.6,0.2,0.8,0.6c0.2,0.2,0.2,0.5,0.2,0.7c0,0.1,0,0.1,0,0.2
		c-0.5,2.6-1,5.1-1.5,7.5c-0.1,0.4-0.3,0.8-0.7,1c-0.4,0.2-0.7,0.3-1.1,0.2c-0.4-0.1-0.7-0.3-1-0.6c-0.3-0.3-0.3-0.7-0.2-1.1
		C558,246.1,558.3,244.5,558.5,243.3z M537.8,252.6c0.1-0.5,0.4-0.8,0.8-1.1s0.9-0.4,1.3-0.3s0.8,0.3,1.1,0.8
		c0.3,0.4,0.3,0.8,0.2,1.3c-1.4,5.2-3.3,9.5-5.5,13.1c-0.3,0.4-0.7,0.6-1.2,0.7c-0.5,0.1-1,0-1.4-0.3c-0.4-0.2-0.7-0.6-0.8-1.1
		s0-0.9,0.3-1.3C534.8,261.3,536.5,257.4,537.8,252.6z M553.7,253c-0.1-0.2-0.2-0.4-0.2-0.6s0-0.4,0.1-0.6c0.2-0.4,0.4-0.7,0.8-0.8
		c0.2-0.1,0.4-0.1,0.7-0.1c0.2,0,0.5,0,0.7,0.1c0.4,0.2,0.8,0.5,1,0.9c2.2,4.4,3.8,8.7,4.9,12.8c0,0.2,0,0.4,0,0.5
		c0,0.3-0.1,0.6-0.3,0.9c-0.3,0.4-0.6,0.7-1.1,0.9c-0.2,0.1-0.3,0.1-0.5,0.1c-0.3,0-0.5-0.1-0.8-0.2c-0.4-0.2-0.7-0.6-0.8-1
		C557.4,261.8,555.8,257.5,553.7,253z"/>
	<path id="XMLID_85_" d="M609.1,253.9c0.3,0.3,0.4,0.6,0.4,1.1s-0.1,0.8-0.4,1s-0.6,0.4-1,0.4h-17.6c-0.2,0-0.4,0.1-0.5,0.3
		c0,0.2-0.4,1.1-1,2.8c0,0.1,0,0.1,0,0.2s0.1,0.1,0.2,0.1h14.9c0.8,0,1.4,0.3,2,0.8c0.5,0.5,0.8,1.2,0.8,2v8.2
		c0,0.8-0.1,1.5-0.3,1.9c-0.2,0.4-0.6,0.8-1.2,1.1c-0.8,0.3-2.1,0.5-4,0.5c-0.4,0-0.8-0.1-1.2-0.4c-0.4-0.3-0.6-0.6-0.8-1.1
		c-0.2-0.3-0.1-0.7,0.1-1c0.2-0.3,0.5-0.4,0.8-0.4c0.4,0,0.8,0,1,0c0.7,0,1.2,0,1.5,0c0.2,0,0.4,0,0.5-0.1s0.1-0.2,0.1-0.5v-7.6
		c0-0.2-0.1-0.4-0.3-0.4h-6.8c-0.2,0-0.3,0.1-0.3,0.4v9.1c0,0.4-0.2,0.8-0.5,1.1s-0.7,0.5-1.2,0.5c-0.5,0-0.8-0.2-1.1-0.5
		c-0.3-0.3-0.5-0.7-0.5-1.1v-9.1c0-0.2-0.1-0.4-0.4-0.4h-6.6c-0.3,0-0.4,0.1-0.4,0.4v9.1c0,0.5-0.2,0.9-0.5,1.2
		c-0.3,0.3-0.7,0.5-1.1,0.5c-0.4,0-0.8-0.2-1.1-0.5c-0.3-0.3-0.5-0.7-0.5-1.2v-9.1c0-0.2-0.1-0.4-0.4-0.4h-6.4
		c-0.3,0-0.4,0.1-0.4,0.4v9.3c0,0.5-0.2,0.9-0.5,1.2s-0.7,0.5-1.2,0.5s-0.9-0.2-1.2-0.5c-0.3-0.3-0.5-0.8-0.5-1.2v-9.8
		c0-0.8,0.3-1.4,0.8-2c0.5-0.5,1.2-0.8,1.9-0.8h10.8c0.2,0,0.4-0.1,0.5-0.4c0.2-0.9,0.5-1.8,0.8-2.7c0-0.1,0-0.2,0-0.2
		c-0.1-0.1-0.1-0.1-0.2-0.1h-16.7c-0.4,0-0.8-0.1-1-0.4s-0.4-0.6-0.4-1s0.1-0.8,0.4-1.1s0.6-0.4,1-0.4h38.7
		C608.5,253.4,608.8,253.6,609.1,253.9z M572.1,240.6c-0.2,0-0.3,0.1-0.3,0.4v4.5c0,0.4-0.2,0.8-0.5,1.1s-0.7,0.5-1.1,0.5
		c-0.4,0-0.8-0.2-1.1-0.5c-0.3-0.3-0.5-0.7-0.5-1.1v-4.7c0-0.8,0.3-1.4,0.8-2c0.5-0.5,1.2-0.8,2-0.8h15.2c0.2,0,0.3-0.1,0.3-0.4
		v-2.1c0-0.2-0.1-0.4-0.3-0.4h-13.8c-0.4,0-0.8-0.1-1-0.4s-0.4-0.6-0.4-1s0.1-0.7,0.4-1s0.6-0.4,1-0.4h32c0.4,0,0.8,0.1,1,0.4
		s0.4,0.6,0.4,1s-0.1,0.7-0.4,1s-0.6,0.4-1,0.4h-14.1c-0.2,0-0.3,0.1-0.3,0.4v2.1c0,0.2,0.1,0.4,0.3,0.4h15.6c0.8,0,1.4,0.3,2,0.8
		c0.5,0.5,0.8,1.2,0.8,2v4.7c0,0.5-0.2,0.9-0.5,1.2s-0.7,0.5-1.2,0.5c-0.5,0-0.8-0.2-1.2-0.5s-0.5-0.7-0.5-1.2v-4.5
		c0-0.2-0.1-0.4-0.3-0.4h-14.7c-0.2,0-0.3,0.1-0.3,0.4v9.3c0,0.5-0.2,0.9-0.5,1.2s-0.7,0.5-1.2,0.5s-0.9-0.2-1.2-0.5
		s-0.5-0.7-0.5-1.2v-9.3c0-0.2-0.1-0.4-0.3-0.4H572.1z M574.3,250.6c-0.3,0-0.6-0.1-0.9-0.4s-0.4-0.5-0.4-0.8s0.1-0.6,0.4-0.8
		s0.5-0.4,0.9-0.4h8.9c0.3,0,0.6,0.1,0.9,0.4s0.4,0.5,0.4,0.8s-0.1,0.6-0.4,0.8s-0.5,0.4-0.9,0.4H574.3z M583.2,243.2
		c0.3,0,0.6,0.1,0.8,0.4s0.4,0.5,0.4,0.8s-0.1,0.6-0.4,0.8s-0.5,0.3-0.8,0.3h-7.9c-0.3,0-0.6-0.1-0.8-0.3c-0.2-0.2-0.3-0.5-0.3-0.8
		s0.1-0.6,0.3-0.8c0.2-0.2,0.5-0.4,0.8-0.4H583.2z M593,245.2c-0.2-0.2-0.4-0.5-0.4-0.8s0.1-0.6,0.4-0.8s0.5-0.4,0.8-0.4h8.2
		c0.3,0,0.6,0.1,0.8,0.4c0.2,0.2,0.3,0.5,0.3,0.8s-0.1,0.6-0.3,0.8c-0.2,0.2-0.5,0.3-0.8,0.3h-8.2
		C593.5,245.5,593.3,245.4,593,245.2z M593.9,250.6c-0.3,0-0.6-0.1-0.9-0.4s-0.4-0.5-0.4-0.8s0.1-0.6,0.4-0.8s0.5-0.4,0.9-0.4h9.3
		c0.3,0,0.6,0.1,0.9,0.4s0.4,0.5,0.4,0.8s-0.1,0.6-0.4,0.8s-0.5,0.4-0.9,0.4H593.9z"/>
	<path id="XMLID_92_" d="M657.9,256.9c0.3,0.3,0.4,0.4,0.4,0.4s0,0.2,0,0.6s-0.1,0.8-0.4,1s-0.6,0.4-1.1,0.4h-7.6
		c-0.2,0-0.4,0.1-0.5,0.3c-1.4,2.8-3.2,5.2-5.6,7.1c-0.1,0-0.1,0.1-0.1,0.2s0.1,0.1,0.1,0.1c4.5,1.2,8.5,2.4,12,3.7
		c0.4,0.2,0.7,0.5,0.8,0.9s0,0.8-0.2,1.2c-0.3,0.4-0.7,0.7-1.2,0.8c-0.2,0.1-0.5,0.1-0.7,0.1c-0.3,0-0.6,0-0.8-0.1
		c-4-1.5-8.5-3-13.5-4.3c-0.3-0.1-0.5,0-0.7,0.1c-4.7,2.3-11.4,3.8-20.2,4.5c-0.1,0-0.1,0-0.2,0c-0.4,0-0.8-0.1-1.1-0.4
		c-0.4-0.2-0.8-0.6-0.9-1.1c-0.2-0.4-0.1-0.7,0-1.1s0.5-0.5,0.8-0.5c7-0.5,12.5-1.4,16.4-2.8c0,0,0,0,0-0.1s0-0.1-0.1-0.1
		c-2.4-0.6-5.1-1.2-8.1-1.7c-0.1,0-0.2,0-0.3,0.1c-0.4,0.5-0.9,0.8-1.5,0.8c-0.3,0-0.5,0-0.8-0.1l-0.3-0.1c-0.4-0.1-0.7-0.4-0.8-0.8
		c-0.1-0.4-0.1-0.8,0.2-1.1c0.8-1,2-2.7,3.8-5.2c0.1-0.1,0.1-0.1,0-0.2c0-0.1-0.1-0.1-0.2-0.1h-9.3c-0.4,0-0.8-0.1-1.1-0.4
		c-0.3-0.3-0.4-0.6-0.4-1s0.1-0.8,0.4-1.1c0.3-0.3,0.6-0.4,1.1-0.4h11.4c0.2,0,0.4-0.1,0.6-0.3c1.4-2.2,2.2-3.4,2.5-3.8
		c0.1-0.1,0.1-0.1,0-0.2s-0.1-0.1-0.2-0.1h-9.5c-0.8,0-1.4-0.3-2-0.8c-0.5-0.5-0.8-1.2-0.8-1.9v-6.8c0-0.8,0.3-1.4,0.8-2
		c0.5-0.5,1.2-0.8,2-0.8h7.5c0.2,0,0.3-0.1,0.3-0.4V236c0-0.2-0.1-0.3-0.3-0.3h-11c-0.4,0-0.8-0.2-1.1-0.5c-0.3-0.3-0.5-0.7-0.5-1.1
		s0.2-0.8,0.5-1.1c0.3-0.3,0.7-0.5,1.1-0.5h37.8c0.4,0,0.8,0.2,1.1,0.5s0.5,0.7,0.5,1.1s-0.2,0.8-0.5,1.1s-0.7,0.5-1.1,0.5H644
		c-0.2,0-0.3,0.1-0.3,0.3v3.3c0,0.2,0.1,0.4,0.3,0.4h8.3c0.8,0,1.4,0.3,2,0.8s0.8,1.2,0.8,2v6.8c0,0.8-0.3,1.4-0.8,1.9
		s-1.2,0.8-2,0.8h-18.5h0l0,0c0.3,0.1,0.5,0.2,0.6,0.5c0.1,0.3,0.1,0.5-0.1,0.8c-0.6,1-1.2,1.9-1.9,2.8c0,0.1,0,0.1,0,0.2
		c0,0.1,0.1,0.1,0.1,0.1h24.2C657.3,256.5,657.6,256.6,657.9,256.9z M622.2,242.6c-0.2,0-0.3,0.1-0.3,0.4v5.8c0,0.2,0.1,0.3,0.3,0.3
		h6.6c0.2,0,0.3-0.1,0.3-0.3V243c0-0.2-0.1-0.4-0.3-0.4H622.2z M644.7,259.7c0.1-0.1,0.1-0.1,0-0.2s-0.1-0.1-0.2-0.1h-13.9
		c-0.2,0-0.4,0.1-0.5,0.3c-1.1,1.6-2,2.8-2.6,3.6c-0.1,0.1-0.1,0.2,0,0.2c0,0.1,0.1,0.1,0.2,0.1c3.5,0.7,7,1.4,10.5,2.2
		c0.2,0.1,0.4,0,0.6-0.1C641.3,264.2,643.3,262.2,644.7,259.7z M632.9,235.7c-0.2,0-0.3,0.1-0.3,0.3v3.3c0,0.2,0.1,0.4,0.3,0.4h7
		c0.2,0,0.4-0.1,0.4-0.4V236c0-0.2-0.1-0.3-0.4-0.3H632.9z M632.5,248.8c0,0.2,0.1,0.3,0.3,0.3h7c0.2,0,0.4-0.1,0.4-0.3V243
		c0-0.2-0.1-0.4-0.4-0.4h-7c-0.2,0-0.3,0.1-0.3,0.4V248.8z M651.6,243c0-0.2-0.1-0.4-0.3-0.4H644c-0.2,0-0.3,0.1-0.3,0.4v5.8
		c0,0.2,0.1,0.3,0.3,0.3h7.3c0.2,0,0.3-0.1,0.3-0.3V243z"/>
	<path id="XMLID_99_" d="M676.7,240.1c-0.2,0-0.3,0.1-0.3,0.3v7.6c0,0.5,0,1,0,1.3c0,0.2,0.1,0.4,0.3,0.4h7c0.5,0,0.9,0.2,1.2,0.5
		s0.5,0.7,0.5,1.2s-0.2,0.9-0.5,1.2s-0.7,0.5-1.2,0.5h-7.2c-0.2,0-0.3,0.1-0.4,0.4c-0.1,0.7-0.2,1.5-0.4,2.5c0,0.2,0,0.4,0.2,0.6
		c1.6,1.6,4.2,4.5,8,8.7c0.4,0.4,0.6,1,0.6,1.5c0,0.5-0.2,1-0.5,1.4c-0.3,0.4-0.7,0.6-1.2,0.6s-0.9-0.2-1.1-0.6
		c-1.8-2.4-4-5.1-6.6-8c-0.1-0.1-0.1-0.1-0.2,0s-0.1,0.1-0.1,0.1c-1.7,5.2-4.5,9.5-8.4,12.7c-0.3,0.2-0.7,0.4-1.1,0.4
		c-0.1,0-0.1,0-0.2,0c-0.5-0.1-0.9-0.3-1.3-0.7c-0.3-0.3-0.5-0.8-0.5-1.2s0.2-0.8,0.6-1.1c5-4.1,7.9-9.7,8.7-16.9
		c0-0.2-0.1-0.4-0.3-0.4h-7.5c-0.5,0-0.9-0.2-1.2-0.5s-0.5-0.7-0.5-1.2s0.2-0.9,0.5-1.2s0.7-0.5,1.2-0.5h7.8c0.2,0,0.3-0.1,0.3-0.4
		V248v-7.5c0-0.2-0.1-0.3-0.3-0.3h-3c-0.2,0-0.4,0.1-0.5,0.3c-0.9,2.3-1.8,4.2-2.8,5.7c-0.2,0.4-0.6,0.6-1.1,0.7s-0.9,0-1.3-0.3
		s-0.7-0.7-0.8-1.1s0-0.9,0.3-1.3c1.9-3,3.4-7,4.5-12c0.1-0.5,0.3-0.9,0.8-1.1c0.3-0.2,0.6-0.3,1-0.3c0.1,0,0.2,0,0.4,0
		c0.5,0.1,0.8,0.3,1.1,0.8s0.4,0.8,0.3,1.3c-0.3,1.2-0.6,2.4-1,3.7c0,0.1,0,0.2,0,0.2s0.1,0.1,0.2,0.1h11.7c0.5,0,0.9,0.2,1.2,0.5
		s0.5,0.7,0.5,1.2s-0.2,0.8-0.5,1.2s-0.7,0.5-1.2,0.5H676.7z M686.9,237.3c0-0.8,0.3-1.4,0.8-1.9s1.2-0.8,1.9-0.8h11.6
		c0.8,0,1.4,0.3,1.9,0.8s0.8,1.2,0.8,1.9v33.3c0,0.5-0.2,0.9-0.5,1.3s-0.8,0.5-1.3,0.5s-0.9-0.2-1.3-0.5s-0.5-0.8-0.5-1.3v-1.2
		c0-0.2-0.1-0.4-0.4-0.4h-9.4c-0.2,0-0.3,0.1-0.3,0.4v1.7c0,0.5-0.2,0.9-0.5,1.2s-0.8,0.5-1.2,0.5s-0.9-0.2-1.2-0.5
		s-0.5-0.7-0.5-1.2V237.3z M690.4,265.4c0,0.2,0.1,0.4,0.3,0.4h9.4c0.2,0,0.4-0.1,0.4-0.4v-27.1c0-0.2-0.1-0.3-0.4-0.3h-9.4
		c-0.2,0-0.3,0.1-0.3,0.3V265.4z"/>
	<path id="XMLID_103_" d="M718.5,249.2c0.8,0,1.4,0.3,2,0.8s0.8,1.2,0.8,1.9v12.2c0,0.2,0.1,0.5,0.2,0.7c2.2,3.2,6.1,4.9,11.7,5.1
		c2.2,0.1,4.5,0.1,6.8,0.1c4,0,8.2-0.1,12.8-0.3c0.4,0,0.8,0.1,1.1,0.5c0.2,0.2,0.2,0.5,0.2,0.7c0,0.2,0,0.3-0.1,0.5
		c-0.2,0.5-0.5,1-0.9,1.3s-0.9,0.6-1.5,0.6c-3.9,0.1-7.5,0.1-10.7,0.1c-2.8,0-5.4,0-7.7-0.1c-3.1-0.1-5.7-0.6-7.8-1.5
		s-4-2.2-5.5-3.9c-0.2-0.2-0.3-0.2-0.5,0c-2,1.8-3.8,3.3-5.4,4.6c-0.4,0.3-0.9,0.5-1.4,0.4s-0.9-0.4-1.2-0.9c-0.2-0.3-0.2-0.7-0.2-1
		c0-0.2,0-0.4,0-0.6c0.2-0.6,0.5-1,0.9-1.4c1.8-1.2,3.6-2.6,5.3-4.1c0.2-0.2,0.3-0.3,0.3-0.6v-11.4c0-0.2-0.1-0.4-0.4-0.4h-4.6
		c-0.5,0-0.9-0.2-1.2-0.5s-0.5-0.7-0.5-1.2s0.2-0.9,0.5-1.2s0.7-0.5,1.2-0.5H718.5z M721.5,237.6c0.3,0.4,0.5,0.8,0.4,1.3
		s-0.3,0.9-0.7,1.2s-0.9,0.4-1.3,0.4s-0.9-0.3-1.2-0.7c-1.5-1.7-3.4-3.5-5.7-5.2c-0.3-0.2-0.5-0.6-0.5-1s0.1-0.8,0.5-1
		c0.4-0.3,0.8-0.5,1.3-0.5c0,0,0.1,0,0.1,0c0.5,0,0.9,0.1,1.3,0.4C718,234.2,719.9,235.9,721.5,237.6z M727.7,246
		c0-0.8,0.3-1.4,0.8-1.9s1.2-0.8,2-0.8h4.9c0.2,0,0.4-0.1,0.4-0.3c0.3-1.5,0.5-2.5,0.6-3.1c0-0.2-0.1-0.4-0.3-0.4h-10.9
		c-0.4,0-0.8-0.1-1-0.4s-0.4-0.6-0.4-1s0.1-0.8,0.4-1.1s0.6-0.4,1-0.4h6.3c0.1,0,0.2,0,0.2-0.1s0.1-0.1,0-0.2
		c-0.5-1.1-1.2-2.2-2-3.4c-0.2-0.3-0.3-0.6-0.2-1s0.3-0.6,0.7-0.7c0.4-0.2,0.8-0.2,1.3-0.1s0.8,0.3,1.1,0.6c0.9,1.1,1.6,2.2,2.1,3.2
		c0.2,0.3,0.2,0.6,0,0.9s-0.3,0.5-0.7,0.7c0,0,0,0,0,0h7.3c0.2,0,0.4-0.1,0.6-0.3c0.8-1.2,1.6-2.6,2.3-4.2c0.2-0.5,0.6-0.8,1.1-1
		c0.3-0.2,0.6-0.2,0.9-0.2c0.2,0,0.4,0,0.6,0.1c0.4,0.1,0.8,0.4,0.9,0.8s0.2,0.8-0.1,1.2c-0.8,1.2-1.5,2.3-2.1,3.3
		c-0.1,0.1-0.1,0.1,0,0.2s0.1,0.1,0.2,0.1h6.8c0.4,0,0.8,0.1,1.1,0.4s0.4,0.6,0.4,1.1s-0.1,0.8-0.4,1s-0.6,0.4-1.1,0.4h-11.9
		c-0.2,0-0.4,0.1-0.5,0.4c-0.3,1-0.7,2.1-1.1,3.1c0,0.1,0,0.2,0,0.2s0.1,0.1,0.2,0.1h8.1c0.8,0,1.4,0.3,1.9,0.8s0.8,1.2,0.8,1.9
		v17.1c0,0.8-0.3,1.4-0.8,1.9s-1.2,0.8-1.9,0.8h-16.9c-0.8,0-1.4-0.3-2-0.8s-0.8-1.2-0.8-1.9V246z M746.2,250c0.2,0,0.4-0.1,0.4-0.4
		v-3.3c0-0.2-0.1-0.3-0.4-0.3h-14.8c-0.2,0-0.4,0.1-0.4,0.3v3.3c0,0.2,0.1,0.4,0.4,0.4H746.2z M746.2,256.5c0.2,0,0.4-0.1,0.4-0.4
		v-3.2c0-0.2-0.1-0.4-0.4-0.4h-14.8c-0.2,0-0.4,0.1-0.4,0.4v3.2c0,0.2,0.1,0.4,0.4,0.4H746.2z M746.2,263.1c0.2,0,0.4-0.1,0.4-0.3
		v-3.3c0-0.2-0.1-0.4-0.4-0.4h-14.8c-0.2,0-0.4,0.1-0.4,0.4v3.3c0,0.2,0.1,0.3,0.4,0.3H746.2z"/>
	<path id="XMLID_110_" d="M798.4,255.9c0,0.8-0.3,1.4-0.8,1.9s-1.2,0.8-1.9,0.8h-13c-0.2,0-0.4,0.1-0.4,0.3
		c-0.6,2.9-1.9,5.4-3.9,7.6c-0.2,0.2-0.1,0.3,0.1,0.4c2.6,1.2,5.8,2,9.4,2.5s8.1,0.9,13.3,1.1c0.4,0,0.8,0.2,0.9,0.6
		c0.1,0.2,0.2,0.4,0.2,0.6s0,0.4-0.1,0.6c-0.2,0.5-0.6,1-1,1.3c-0.4,0.3-0.9,0.5-1.4,0.5c0,0-0.1,0-0.1,0c-5.4-0.3-10.1-0.8-14-1.5
		s-7.2-1.8-10.1-3.3c-0.2-0.1-0.4-0.1-0.6,0c-3,1.9-6.9,3.4-11.8,4.6c-0.2,0.1-0.4,0.1-0.6,0.1c-0.3,0-0.7-0.1-1-0.2
		c-0.5-0.2-0.9-0.6-1.2-1.1c-0.2-0.3-0.3-0.7-0.2-1.1s0.4-0.7,0.9-0.8c4.5-1,8-2.2,10.5-3.6c0.2-0.1,0.2-0.2,0-0.4
		c-1.8-1.5-3.4-3.2-4.8-5.2c-0.2-0.3-0.3-0.7-0.2-1.1s0.4-0.7,0.8-0.8c0.4-0.2,0.9-0.2,1.3,0s0.8,0.4,1.1,0.8
		c1.3,1.8,2.9,3.3,4.6,4.5c0.2,0.1,0.4,0.1,0.6,0c1.7-1.5,2.9-3.5,3.5-5.8c0-0.1,0-0.2,0-0.2s-0.1-0.1-0.2-0.1h-11.1
		c-0.8,0-1.4-0.3-2-0.8s-0.8-1.2-0.8-1.9V243c0-0.8,0.3-1.4,0.8-2s1.2-0.8,2-0.8h11.7c0.2,0,0.3-0.1,0.3-0.4v-3.3
		c0-0.2-0.1-0.3-0.3-0.3h-17.2c-0.4,0-0.8-0.2-1.1-0.5s-0.5-0.7-0.5-1.1s0.2-0.8,0.5-1.1s0.7-0.5,1.1-0.5h38.2
		c0.4,0,0.8,0.2,1.1,0.5s0.5,0.7,0.5,1.1s-0.2,0.8-0.5,1.1s-0.7,0.5-1.1,0.5h-16.6c-0.2,0-0.4,0.1-0.4,0.3v3.3
		c0,0.2,0.1,0.4,0.4,0.4h12.5c0.8,0,1.4,0.3,1.9,0.8s0.8,1.2,0.8,2V255.9z M768,243.2c-0.2,0-0.3,0.1-0.3,0.4v4.1
		c0,0.2,0.1,0.4,0.3,0.4h10.7c0.2,0,0.3-0.1,0.3-0.4v-4.1c0-0.2-0.1-0.4-0.3-0.4H768z M767.7,255.3c0,0.2,0.1,0.4,0.3,0.4h10.6
		c0.2,0,0.3-0.1,0.4-0.4c0-0.6,0-1.4,0-2.6v-1.5c0-0.2-0.1-0.4-0.3-0.4H768c-0.2,0-0.3,0.1-0.3,0.4V255.3z M794.5,255.7
		c0.2,0,0.3-0.1,0.3-0.4v-4.1c0-0.2-0.1-0.4-0.3-0.4h-11.4c-0.2,0-0.4,0.1-0.4,0.4v1.6c0,0.7,0,1.5-0.1,2.5c0,0.2,0.1,0.4,0.4,0.4
		H794.5z M794.9,243.6c0-0.2-0.1-0.4-0.3-0.4h-11.4c-0.2,0-0.4,0.1-0.4,0.4v4.1c0,0.2,0.1,0.4,0.4,0.4h11.4c0.2,0,0.3-0.1,0.3-0.4
		V243.6z"/>
	<path id="XMLID_116_" d="M839.6,234.4c0.4-0.1,0.7,0,1,0.1l0.7,0.4c0.3,0.2,0.5,0.5,0.6,0.9s0,0.7-0.2,1c-1.5,2.4-3.3,4.6-5.6,6.7
		s-4.8,3.9-7.5,5.4s-5.5,2.9-8.4,4s-5.8,2.1-8.8,2.8c-0.5,0.1-1,0.1-1.4-0.2s-0.8-0.6-1.1-1.1c-0.1-0.2-0.2-0.4-0.2-0.6
		s0-0.4,0.1-0.5c0.2-0.4,0.4-0.6,0.8-0.7c5.8-1.2,11.1-3.2,16-5.9c0.2-0.1,0.2-0.3,0-0.4c-2-1.7-4.6-3.4-7.8-5
		c-0.2-0.1-0.4-0.1-0.6,0c-1.5,0.8-3.1,1.6-4.8,2.3c-0.3,0.1-0.6,0.2-0.9,0.2c-0.2,0-0.4,0-0.6-0.1c-0.5-0.2-0.9-0.4-1.3-0.8
		c-0.3-0.3-0.4-0.7-0.3-1.1s0.3-0.7,0.7-0.8c6.3-2.4,11.3-5.6,15.1-9.4c0.8-0.8,1.6-1.2,2.5-1.2c0.3,0,0.5,0,0.8,0.1
		c0.5,0.1,0.8,0.4,0.9,0.8s0,0.8-0.3,1.1c-0.5,0.5-1,1-1.5,1.5c-0.1,0-0.1,0.1,0,0.1s0.1,0.1,0.1,0.1h11.9
		C839.5,234.4,839.6,234.4,839.6,234.4z M846.6,251.1c0.4-0.1,0.8,0,1.1,0.2l0.6,0.3c0.3,0.2,0.5,0.5,0.7,0.8
		c0.1,0.2,0.1,0.3,0.1,0.5c0,0.2,0,0.4-0.1,0.6c-5.3,10.9-16.6,17.8-34.1,20.6c-0.1,0-0.2,0-0.4,0c-0.3,0-0.7-0.1-1-0.3
		c-0.5-0.2-0.8-0.6-1-1.1c-0.1-0.2-0.1-0.4-0.1-0.6s0-0.4,0.1-0.6c0.2-0.4,0.5-0.6,0.9-0.7c7.3-1.1,13.6-2.9,18.9-5.6
		c0.2-0.1,0.2-0.3,0-0.4c-2.4-2.2-5.2-4.2-8.6-6c-0.2-0.1-0.4-0.1-0.6,0c-2.1,1-4.1,1.9-6,2.6c-0.5,0.2-0.9,0.2-1.4,0
		s-0.9-0.4-1.2-0.8c-0.3-0.3-0.4-0.7-0.3-1.1s0.4-0.6,0.7-0.8c3.9-1.3,7.4-2.9,10.4-4.8s5.6-3.8,7.6-5.8c0.8-0.8,1.6-1.1,2.5-1.1
		c0.3,0,0.6,0,0.8,0.1c0.4,0.1,0.7,0.4,0.9,0.8s0.1,0.8-0.3,1.1c-0.6,0.7-1.2,1.3-1.9,1.8c-0.1,0.1-0.1,0.1-0.1,0.2s0.1,0.1,0.1,0.1
		h11.5C846.5,251.1,846.5,251.1,846.6,251.1z M837.1,237.7c0,0,0-0.1,0-0.2s-0.1-0.1-0.1-0.1h-13c-0.2,0-0.4,0.1-0.7,0.2
		c-0.7,0.5-1.5,1-2.4,1.6c-0.1,0.1-0.1,0.1-0.1,0.2s0,0.1,0.1,0.2c3.4,1.8,6,3.4,7.9,5c0.2,0.2,0.3,0.2,0.5,0
		C832.6,242.5,835.2,240.2,837.1,237.7z M844.4,254.4c0-0.1,0-0.1,0-0.2s-0.1-0.1-0.2-0.1h-13c-0.2,0-0.5,0.1-0.7,0.2
		c-1.1,0.8-2.3,1.6-3.6,2.3c-0.1,0.1-0.1,0.1-0.1,0.2s0,0.1,0.1,0.2c3.5,2,6.3,4,8.5,5.9c0.2,0.2,0.4,0.2,0.6,0
		C839.6,260.5,842.4,257.7,844.4,254.4z"/>
	<path id="XMLID_121_" d="M861.6,270.3c-0.6,0.6-1.4,0.9-2.2,0.9s-1.6-0.3-2.2-0.9s-0.9-1.4-0.9-2.4s0.3-1.8,0.9-2.4s1.4-1,2.2-1
		s1.6,0.3,2.2,1s0.9,1.5,0.9,2.4S862.2,269.7,861.6,270.3z"/>
	<path id="XMLID_123_" d="M874.9,270.3c-0.6,0.6-1.4,0.9-2.2,0.9s-1.6-0.3-2.2-0.9s-0.9-1.4-0.9-2.4s0.3-1.8,0.9-2.4s1.4-1,2.2-1
		s1.6,0.3,2.2,1s0.9,1.5,0.9,2.4S875.5,269.7,874.9,270.3z"/>
	<path id="XMLID_125_" d="M888.2,270.3c-0.6,0.6-1.4,0.9-2.2,0.9s-1.6-0.3-2.2-0.9s-0.9-1.4-0.9-2.4s0.3-1.8,0.9-2.4s1.4-1,2.2-1
		s1.6,0.3,2.2,1s0.9,1.5,0.9,2.4S888.8,269.7,888.2,270.3z"/>
</g>
<g id="XMLID_2225_">
	<g id="XMLID_2223_">
		<g id="XMLID_1330_">
			<g id="XMLID_2165_">
				<g id="XMLID_2166_">
					<path id="XMLID_2167_" class="st1" d="M161.4,30.7l-15.7,3.1c-11.3,2.2-19.6,11.2-21.3,22L189.4,43
						C183.7,33.7,172.7,28.5,161.4,30.7z"/>
				</g>
			</g>
			<g id="XMLID_2158_">
				<g id="XMLID_2159_">
					<path id="XMLID_2160_" class="st1" d="M112.4,74.5l52.5,269.6c1.8,9,10.5,14.9,19.5,13.1l62.5-12.2c9-1.8,14.9-10.5,13.1-19.5
						L207.5,55.9L112.4,74.5z M210.3,323.8c-16.6,3.2-32.8-7.7-36.1-24.3c-3.2-16.6,7.7-32.8,24.3-36.1c16.6-3.2,32.8,7.7,36.1,24.3
						C237.8,304.3,226.9,320.5,210.3,323.8z M193.4,237.2c-16.6,3.2-32.8-7.7-36.1-24.3s7.7-32.8,24.3-36.1
						c16.6-3.2,32.8,7.7,36.1,24.3S210.1,234,193.4,237.2z M176.6,150.7c-16.6,3.2-32.8-7.7-36.1-24.3c-3.2-16.6,7.7-32.8,24.3-36.1
						c16.6-3.2,32.8,7.7,36.1,24.3C204.2,131.3,193.2,147.5,176.6,150.7z"/>
				</g>
			</g>
			<g id="XMLID_2155_">
				<g id="XMLID_2156_">
					<path id="XMLID_2157_" class="st1" d="M69,95.6c-3.8,0.7-6.3,4.4-5.5,8.2l3.7,19.1l46.3,31.2l-7.6-65.8
						C105.9,88.4,69,95.6,69,95.6z"/>
				</g>
			</g>
			<g id="XMLID_2152_">
				<g id="XMLID_2153_">
					<path id="XMLID_2154_" class="st1" d="M255.7,59.3l-36.9,7.2l17.6,63.8l31.2-46.3l-3.7-19.1C263.1,61,259.5,58.5,255.7,59.3z"
						/>
				</g>
			</g>
			<g id="XMLID_1356_">
				<g id="XMLID_2150_">
					<path id="XMLID_2151_" class="st1" d="M86.5,185.7c-3.8,0.7-6.3,4.4-5.5,8.2l3.7,19.1l46.3,31.2l-7.6-65.8L86.5,185.7
						L86.5,185.7z"/>
				</g>
			</g>
			<g id="XMLID_1353_">
				<g id="XMLID_1354_">
					<path id="XMLID_1355_" class="st1" d="M273.2,149.3l-36.9,7.2l17.6,63.8l31.2-46.3l-3.7-19.1
						C280.7,151.1,277,148.6,273.2,149.3z"/>
				</g>
			</g>
			<g id="XMLID_1349_">
				<g id="XMLID_1350_">
					<path id="XMLID_1351_" class="st1" d="M104.1,275.8c-3.8,0.7-6.3,4.4-5.5,8.2l3.7,19.1l46.3,31.2l-7.6-65.8L104.1,275.8
						L104.1,275.8z"/>
				</g>
			</g>
			<g id="XMLID_1346_">
				<g id="XMLID_1347_">
					<path id="XMLID_1348_" class="st1" d="M290.8,239.4l-36.9,7.2l17.6,63.8l31.2-46.3l-3.7-19.1
						C298.2,241.1,294.5,238.7,290.8,239.4z"/>
				</g>
			</g>
			<g id="XMLID_1345_">
			</g>
			<g id="XMLID_1344_">
			</g>
			<g id="XMLID_1343_">
			</g>
			<g id="XMLID_1342_">
			</g>
			<g id="XMLID_1341_">
			</g>
			<g id="XMLID_1340_">
			</g>
			<g id="XMLID_1339_">
			</g>
			<g id="XMLID_1338_">
			</g>
			<g id="XMLID_1337_">
			</g>
			<g id="XMLID_1336_">
			</g>
			<g id="XMLID_1335_">
			</g>
			<g id="XMLID_1334_">
			</g>
			<g id="XMLID_1333_">
			</g>
			<g id="XMLID_1332_">
			</g>
			<g id="XMLID_1331_">
			</g>
		</g>
		<circle id="XMLID_2181_" class="st2" cx="170.3" cy="120.1" r="24.1"/>
		<circle id="XMLID_2182_" class="st3" cx="187.4" cy="208" r="24.1"/>
		<circle id="XMLID_2196_" class="st4" cx="204" cy="293.5" r="24.1"/>
	</g>
	<path id="XMLID_2224_" class="st5" d="M149.7,33.6C149.9,21.2,155,8.9,163.6,0"/>
</g>
</svg>
