<?xml version="1.0" encoding="utf-8"?>
<!-- Generator: Adobe Illustrator 19.0.0, SVG Export Plug-In . SVG Version: 6.00 Build 0)  -->
<svg version="1.1" id="圖層_1" xmlns="http://www.w3.org/2000/svg" xmlns:xlink="http://www.w3.org/1999/xlink" x="0px" y="0px"
	 viewBox="0 0 150 150" style="enable-background:new 0 0 150 150;" xml:space="preserve">
<style type="text/css">
	.st0{display:none;opacity:0.51;fill:#808080;}
	.st1{display:none;}
	.st2{display:inline;fill:#FFFFFF;}
	.st3{display:inline;}
	.st4{fill:#FFFFFF;}

		.st5{display:inline;fill:#FFFFFF;stroke:#FFFFFF;stroke-width:3;stroke-linecap:round;stroke-linejoin:round;stroke-miterlimit:10;}
	.st6{fill:#A3242E;stroke:#FFFFFF;stroke-width:3;stroke-miterlimit:10;}
	.st7{fill:#FFD16F;stroke:#FFFFFF;stroke-width:3;stroke-miterlimit:10;}
	.st8{fill:#64BEF0;stroke:#FFFFFF;stroke-width:3;stroke-miterlimit:10;}

		.st9{display:inline;fill:#504B5A;stroke:#FFFFFF;stroke-width:3;stroke-linecap:round;stroke-linejoin:round;stroke-miterlimit:10;}
</style>
<path id="XMLID_181_" class="st0" d="M21.6,302.8H-83c-6.6,0-12-5.4-12-12v-435.7c0-6.6,5.4-12,12-12H21.6c6.6,0,12,5.4,12,12v435.7
	C33.6,297.4,28.2,302.8,21.6,302.8z"/>
<g id="locate" class="st1">
	<path id="XMLID_237_" class="st2" d="M-15.2-115.3L-15.2-115.3c-8.7-8.7-22.9-8.7-31.6,0l0,0c-7.9,7.9-8.7,22.6-2.1,31.5L-31-57.9
		l17.9-25.8C-6.5-92.6-7.4-107.4-15.2-115.3z M-30.8-92.3c-4.1,0-7.4-3.3-7.4-7.4s3.3-7.4,7.4-7.4s7.4,3.3,7.4,7.4
		S-26.7-92.3-30.8-92.3z"/>
	<g id="XMLID_236_" class="st3">
	</g>
	<g id="XMLID_235_" class="st3">
	</g>
	<g id="XMLID_234_" class="st3">
	</g>
	<g id="XMLID_233_" class="st3">
	</g>
	<g id="XMLID_232_" class="st3">
	</g>
	<g id="XMLID_231_" class="st3">
	</g>
	<g id="XMLID_230_" class="st3">
	</g>
	<g id="XMLID_229_" class="st3">
	</g>
	<g id="XMLID_228_" class="st3">
	</g>
	<g id="XMLID_227_" class="st3">
	</g>
	<g id="XMLID_226_" class="st3">
	</g>
	<g id="XMLID_225_" class="st3">
	</g>
	<g id="XMLID_224_" class="st3">
	</g>
	<g id="XMLID_223_" class="st3">
	</g>
	<g id="XMLID_222_" class="st3">
	</g>
</g>
<g id="sun" class="st1">
	<g id="XMLID_275_" class="st3">
		<g id="XMLID_276_">
			<g id="XMLID_277_">
				<path id="XMLID_286_" class="st4" d="M75,55.3c-9.4,0-17,7.6-17,17c0,9.4,7.6,17,17,17c9.4,0,17-7.6,17-17
					C92,62.9,84.4,55.3,75,55.3z"/>
				<path id="XMLID_285_" class="st4" d="M75,50.8c1.5,0,2.6-1.2,2.6-2.6v-7.6c0-1.5-1.2-2.6-2.6-2.6c-1.5,0-2.6,1.2-2.6,2.6v7.6
					C72.4,49.6,73.5,50.8,75,50.8z"/>
				<path id="XMLID_284_" class="st4" d="M92.1,57.8c0.7,0,1.3-0.3,1.9-0.8l5.4-5.4c1-1,1-2.7,0-3.7c-1-1-2.7-1-3.7,0l-5.4,5.4
					c-1,1-1,2.7,0,3.7C90.8,57.6,91.4,57.8,92.1,57.8z"/>
				<path id="XMLID_283_" class="st4" d="M106.8,69.7h-7.6c-1.5,0-2.6,1.2-2.6,2.6c0,1.5,1.2,2.6,2.6,2.6h7.6c1.5,0,2.6-1.2,2.6-2.6
					C109.4,70.9,108.3,69.7,106.8,69.7z"/>
				<path id="XMLID_282_" class="st4" d="M94,87.6c-1-1-2.7-1-3.7,0c-1,1-1,2.7,0,3.7l5.4,5.4c0.5,0.5,1.2,0.8,1.9,0.8
					c0.7,0,1.3-0.3,1.9-0.8c1-1,1-2.7,0-3.7L94,87.6z"/>
				<path id="XMLID_281_" class="st4" d="M75,93.9c-1.5,0-2.6,1.2-2.6,2.6v7.6c0,1.5,1.2,2.6,2.6,2.6c1.5,0,2.6-1.2,2.6-2.6v-7.6
					C77.6,95.1,76.5,93.9,75,93.9z"/>
				<path id="XMLID_280_" class="st4" d="M56,87.6L50.6,93c-1,1-1,2.7,0,3.7c0.5,0.5,1.2,0.8,1.9,0.8c0.7,0,1.3-0.3,1.9-0.8l5.4-5.4
					c1-1,1-2.7,0-3.7S57,86.6,56,87.6z"/>
				<path id="XMLID_279_" class="st4" d="M53.4,72.3c0-1.5-1.2-2.6-2.6-2.6h-7.6c-1.5,0-2.6,1.2-2.6,2.6c0,1.5,1.2,2.6,2.6,2.6h7.6
					C52.2,75,53.4,73.8,53.4,72.3z"/>
				<path id="XMLID_278_" class="st4" d="M56,57.1c0.5,0.5,1.2,0.8,1.9,0.8c0.7,0,1.3-0.3,1.9-0.8c1-1,1-2.7,0-3.7L54.4,48
					c-1-1-2.7-1-3.7,0c-1,1-1,2.7,0,3.7L56,57.1z"/>
			</g>
		</g>
	</g>
	<g id="XMLID_274_" class="st3">
	</g>
	<g id="XMLID_273_" class="st3">
	</g>
	<g id="XMLID_272_" class="st3">
	</g>
	<g id="XMLID_271_" class="st3">
	</g>
	<g id="XMLID_270_" class="st3">
	</g>
	<g id="XMLID_269_" class="st3">
	</g>
	<g id="XMLID_268_" class="st3">
	</g>
	<g id="XMLID_267_" class="st3">
	</g>
	<g id="XMLID_266_" class="st3">
	</g>
	<g id="XMLID_265_" class="st3">
	</g>
	<g id="XMLID_264_" class="st3">
	</g>
	<g id="XMLID_263_" class="st3">
	</g>
	<g id="XMLID_262_" class="st3">
	</g>
	<g id="XMLID_261_" class="st3">
	</g>
	<g id="XMLID_260_" class="st3">
	</g>
</g>
<g id="clock" class="st1">
	<g id="XMLID_331_" class="st3">
		<g id="XMLID_332_">
			<path id="XMLID_333_" class="st4" d="M75,42.8c-17.8,0-32.2,14.4-32.2,32.2s14.4,32.2,32.2,32.2s32.2-14.4,32.2-32.2
				S92.8,42.8,75,42.8z M88.9,81.1H75.3c0,0-0.1,0-0.1,0c0,0-0.1,0-0.1,0c-1.2,0-2.2-1-2.2-2.2V56.2c0-1.2,1-2.2,2.2-2.2
				s2.2,1,2.2,2.2v20.5h11.7c1.2,0,2.2,1,2.2,2.2S90.1,81.1,88.9,81.1z"/>
		</g>
	</g>
	<g id="XMLID_330_" class="st3">
	</g>
	<g id="XMLID_329_" class="st3">
	</g>
	<g id="XMLID_328_" class="st3">
	</g>
	<g id="XMLID_327_" class="st3">
	</g>
	<g id="XMLID_326_" class="st3">
	</g>
	<g id="XMLID_325_" class="st3">
	</g>
	<g id="XMLID_324_" class="st3">
	</g>
	<g id="XMLID_323_" class="st3">
	</g>
	<g id="XMLID_322_" class="st3">
	</g>
	<g id="XMLID_321_" class="st3">
	</g>
	<g id="XMLID_320_" class="st3">
	</g>
	<g id="XMLID_319_" class="st3">
	</g>
	<g id="XMLID_318_" class="st3">
	</g>
	<g id="XMLID_317_" class="st3">
	</g>
	<g id="XMLID_316_" class="st3">
	</g>
</g>
<g id="road" class="st1">
	<path id="XMLID_358_" class="st5" d="M-26,250.4v18.9H7.1l-18.9-66.1H-26v14.2h-9.4v-14.2h-14.2l-18.9,66.1h33.1v-18.9H-26z
		 M-35.4,226.8h9.4V241h-9.4V226.8z"/>
</g>
<g id="locate_1_">
	<path id="XMLID_386_" class="st6" d="M90.8,49.6L90.8,49.6c-8.7-8.7-22.9-8.7-31.6,0l0,0c-7.9,7.9-8.7,22.6-2.1,31.5L75,106.9
		l17.9-25.8C99.5,72.3,98.6,57.5,90.8,49.6z M75.2,72.5c-4.1,0-7.4-3.3-7.4-7.4s3.3-7.4,7.4-7.4c4.1,0,7.4,3.3,7.4,7.4
		C82.6,69.2,79.3,72.5,75.2,72.5z"/>
	<g id="XMLID_385_">
	</g>
	<g id="XMLID_384_">
	</g>
	<g id="XMLID_383_">
	</g>
	<g id="XMLID_382_">
	</g>
	<g id="XMLID_381_">
	</g>
	<g id="XMLID_380_">
	</g>
	<g id="XMLID_379_">
	</g>
	<g id="XMLID_378_">
	</g>
	<g id="XMLID_377_">
	</g>
	<g id="XMLID_376_">
	</g>
	<g id="XMLID_375_">
	</g>
	<g id="XMLID_374_">
	</g>
	<g id="XMLID_373_">
	</g>
	<g id="XMLID_372_">
	</g>
	<g id="XMLID_371_">
	</g>
</g>
<g id="sun_1_" class="st1">
	<g id="XMLID_355_" class="st3">
		<g id="XMLID_356_">
			<g id="XMLID_361_">
				<path id="XMLID_370_" class="st7" d="M75,58c-9.4,0-17,7.6-17,17s7.6,17,17,17c9.4,0,17-7.6,17-17C92,65.6,84.4,58,75,58z"/>
				<path id="XMLID_369_" class="st7" d="M75,53.4c1.5,0,2.6-1.2,2.6-2.6v-7.6c0-1.5-1.2-2.6-2.6-2.6s-2.6,1.2-2.6,2.6v7.6
					C72.4,52.2,73.5,53.4,75,53.4z"/>
				<path id="XMLID_368_" class="st7" d="M92.1,60.5c0.7,0,1.3-0.3,1.9-0.8l5.4-5.4c1-1,1-2.7,0-3.7c-1-1-2.7-1-3.7,0L90.3,56
					c-1,1-1,2.7,0,3.7C90.8,60.3,91.4,60.5,92.1,60.5z"/>
				<path id="XMLID_367_" class="st7" d="M106.8,72.4h-7.6c-1.5,0-2.6,1.2-2.6,2.6s1.2,2.6,2.6,2.6h7.6c1.5,0,2.6-1.2,2.6-2.6
					S108.3,72.4,106.8,72.4z"/>
				<path id="XMLID_366_" class="st7" d="M94,90.3c-1-1-2.7-1-3.7,0c-1,1-1,2.7,0,3.7l5.4,5.4c0.5,0.5,1.2,0.8,1.9,0.8
					s1.3-0.3,1.9-0.8c1-1,1-2.7,0-3.7L94,90.3z"/>
				<path id="XMLID_365_" class="st7" d="M75,96.6c-1.5,0-2.6,1.2-2.6,2.6v7.6c0,1.5,1.2,2.6,2.6,2.6s2.6-1.2,2.6-2.6v-7.6
					C77.6,97.8,76.5,96.6,75,96.6z"/>
				<path id="XMLID_364_" class="st7" d="M56,90.3l-5.4,5.4c-1,1-1,2.7,0,3.7c0.5,0.5,1.2,0.8,1.9,0.8c0.7,0,1.3-0.3,1.9-0.8
					l5.4-5.4c1-1,1-2.7,0-3.7S57,89.2,56,90.3z"/>
				<path id="XMLID_363_" class="st7" d="M53.4,75c0-1.5-1.2-2.6-2.6-2.6h-7.6c-1.5,0-2.6,1.2-2.6,2.6s1.2,2.6,2.6,2.6h7.6
					C52.2,77.6,53.4,76.5,53.4,75z"/>
				<path id="XMLID_362_" class="st7" d="M56,59.7c0.5,0.5,1.2,0.8,1.9,0.8c0.7,0,1.3-0.3,1.9-0.8c1-1,1-2.7,0-3.7l-5.4-5.4
					c-1-1-2.7-1-3.7,0c-1,1-1,2.7,0,3.7L56,59.7z"/>
			</g>
		</g>
	</g>
	<g id="XMLID_354_" class="st3">
	</g>
	<g id="XMLID_353_" class="st3">
	</g>
	<g id="XMLID_352_" class="st3">
	</g>
	<g id="XMLID_351_" class="st3">
	</g>
	<g id="XMLID_350_" class="st3">
	</g>
	<g id="XMLID_349_" class="st3">
	</g>
	<g id="XMLID_348_" class="st3">
	</g>
	<g id="XMLID_347_" class="st3">
	</g>
	<g id="XMLID_346_" class="st3">
	</g>
	<g id="XMLID_345_" class="st3">
	</g>
	<g id="XMLID_344_" class="st3">
	</g>
	<g id="XMLID_343_" class="st3">
	</g>
	<g id="XMLID_342_" class="st3">
	</g>
	<g id="XMLID_341_" class="st3">
	</g>
	<g id="XMLID_340_" class="st3">
	</g>
</g>
<g id="clock_1_" class="st1">
	<g id="XMLID_314_" class="st3">
		<g id="XMLID_336_">
			<path id="XMLID_337_" class="st8" d="M75,42.8c-17.8,0-32.2,14.4-32.2,32.2s14.4,32.2,32.2,32.2s32.2-14.4,32.2-32.2
				S92.8,42.8,75,42.8z M88.9,81.1H75.3c0,0-0.1,0-0.1,0c0,0-0.1,0-0.1,0c-1.2,0-2.2-1-2.2-2.2V56.2c0-1.2,1-2.2,2.2-2.2
				c1.2,0,2.2,1,2.2,2.2v20.5h11.7c1.2,0,2.2,1,2.2,2.2C91.1,80.1,90.1,81.1,88.9,81.1z"/>
		</g>
	</g>
	<g id="XMLID_313_" class="st3">
	</g>
	<g id="XMLID_312_" class="st3">
	</g>
	<g id="XMLID_311_" class="st3">
	</g>
	<g id="XMLID_310_" class="st3">
	</g>
	<g id="XMLID_309_" class="st3">
	</g>
	<g id="XMLID_308_" class="st3">
	</g>
	<g id="XMLID_307_" class="st3">
	</g>
	<g id="XMLID_306_" class="st3">
	</g>
	<g id="XMLID_305_" class="st3">
	</g>
	<g id="XMLID_304_" class="st3">
	</g>
	<g id="XMLID_303_" class="st3">
	</g>
	<g id="XMLID_302_" class="st3">
	</g>
	<g id="XMLID_301_" class="st3">
	</g>
	<g id="XMLID_300_" class="st3">
	</g>
	<g id="XMLID_299_" class="st3">
	</g>
</g>
<g id="road_1_" class="st1">
	<path id="XMLID_296_" class="st9" d="M79.7,89.2v18.9h33.1L93.9,41.9H79.7v14.2h-9.4V41.9H56.1l-18.9,66.1h33.1V89.2H79.7z
		 M70.3,65.6h9.4v14.2h-9.4V65.6z"/>
</g>
</svg>
