<?xml version="1.0" encoding="utf-8"?>
<!-- Generator: Adobe Illustrator 19.0.0, SVG Export Plug-In . SVG Version: 6.00 Build 0)  -->
<svg version="1.1" id="圖層_1" xmlns="http://www.w3.org/2000/svg" xmlns:xlink="http://www.w3.org/1999/xlink" x="0px" y="0px"
	 viewBox="0 0 846.7 247.8" style="enable-background:new 0 0 846.7 247.8;" xml:space="preserve">
<style type="text/css">
	.st0{fill:#B3B3B3;}
	.st1{fill:#A3242E;}
	.st2{fill:#808080;}
</style>
<g id="XMLID_158_">
	<g id="XMLID_155_">
		<g id="XMLID_33_">
			<path id="XMLID_34_" class="st0" d="M58.1,224.1c-15.6,0-28.8-4.6-39.5-13.9c-1.6-1.5-2.4-3.4-2.4-5.8c0-1.9,0.6-3.5,1.7-5
				s2.6-2.3,4.5-2.4c1.9-0.1,3.6,0.4,5.1,1.7c8.7,7.3,18.4,10.9,29.3,10.9c8.4,0,15.2-2.3,20.5-7c5.3-4.6,7.9-10.9,7.9-18.8
				c0-17.2-12.2-26.4-36.7-27.6c-1.9-0.1-3.4-0.8-4.7-2.1s-1.9-2.9-1.9-4.7s0.6-3.4,1.9-4.7s2.9-2,4.7-2.1
				c11.1-0.9,19.2-3.6,24.3-8.3c5.1-4.6,7.6-10.7,7.6-18.1c0-6.8-2.1-12.2-6.3-16.2c-4.2-4-10-6.1-17.3-6.2
				c-8.2,0.2-16,3.3-23.4,9.1c-1.6,1.2-3.4,1.8-5.4,1.7c-2-0.1-3.6-0.9-4.8-2.4c-1.2-1.5-1.8-3.2-1.7-5.3c0.1-2,1-3.7,2.6-4.9
				c10.3-8,21.4-12.1,33.4-12.1c12,0,21.7,3.1,29.2,9.3c7.5,6.2,11.2,14.7,11.2,25.6c0,8.2-2.2,15.1-6.5,20.8
				c-4.3,5.7-10.3,10-18,12.8c-0.2,0.1-0.4,0.3-0.4,0.6c0,0.2,0.1,0.4,0.4,0.4c8.7,2.1,15.7,6.2,21.2,12.4
				c5.4,6.2,8.2,13.8,8.2,22.8c0,12.1-4.3,21.8-12.8,28.9C81.5,220.5,70.9,224.1,58.1,224.1z"/>
			<path id="XMLID_36_" class="st0" d="M283.1,144.7c1,1,1.5,2.3,1.5,3.7c0,1.4-0.5,2.7-1.5,3.7c-1,1-2.3,1.5-3.7,1.5h-45.6
				c-0.2,0-0.4,0.1-0.5,0.3c-0.2,0.2-0.2,0.4-0.1,0.6c5,15.3,12,28.6,20.9,39.7c7.8,9.7,16.8,17.2,27.2,22.5
				c1.3,0.6,2.1,1.7,2.4,3.1c0.3,1.5,0,2.8-0.9,3.9c-1.2,1.4-2.5,2.4-4.1,2.8c-0.6,0.2-1.2,0.3-1.7,0.3c-1.1,0-2.1-0.3-3.1-0.8
				c-21.7-12.2-38-33.6-48.8-64.1c0-0.1-0.1-0.1-0.2-0.1s-0.2,0-0.3,0.1c-7.6,29.7-24,51.2-49.2,64.4c-1,0.4-1.9,0.7-2.8,0.7
				c-0.5,0-1.1-0.1-1.7-0.3c-1.5-0.4-2.9-1.3-4-2.5c-0.8-1-1.1-2.1-1-3.4s0.8-2.2,1.9-2.7c25.2-12.8,41.2-33.9,47.8-63.6
				c0.2-0.6,0-0.9-0.7-0.9h-44.3c-1.4,0-2.7-0.5-3.7-1.5c-1-1-1.5-2.3-1.5-3.7c0-1.4,0.5-2.7,1.5-3.7c1-1,2.3-1.5,3.7-1.5h45.9
				c0.7,0,1.1-0.3,1.2-0.9c1-7.2,1.6-18.1,1.7-32.5c0.1-1.5,0.7-2.8,1.7-3.9s2.4-1.6,3.9-1.6c1.5,0,2.8,0.5,3.9,1.6
				c1,1.1,1.5,2.3,1.5,3.7c0,11.4-0.6,22.3-1.9,32.6c-0.1,0.6,0.2,0.9,0.8,0.9h50.4C280.8,143.2,282,143.7,283.1,144.7z"/>
			<path id="XMLID_38_" class="st0" d="M418.3,200c1.2,0,2.3,0.4,3.2,1.3c0.9,0.9,1.3,2,1.3,3.2c0,1.2-0.4,2.3-1.3,3.2
				c-0.9,0.9-2,1.3-3.2,1.3h-51c-0.7,0-1.1,0.4-1.1,1.1v14.2c0,1.3-0.5,2.5-1.5,3.5c-1,1-2.2,1.5-3.6,1.5c-1.4,0-2.6-0.5-3.6-1.5
				c-1-1-1.5-2.2-1.5-3.5v-14.2c0-0.7-0.3-1.1-0.9-1.1h-49.9c-1.2,0-2.3-0.4-3.2-1.3c-0.9-0.9-1.3-2-1.3-3.2c0-1.2,0.4-2.3,1.3-3.2
				c0.9-0.9,2-1.3,3.2-1.3H355c0.6,0,0.9-0.4,0.9-1.1v-9.1c0-0.7-0.3-1.1-0.9-1.1h-32.2c-2.1,0-4-0.8-5.6-2.3
				c-1.6-1.6-2.3-3.4-2.3-5.6v-37.3c0-2.1,0.8-4,2.3-5.6c1.6-1.6,3.4-2.3,5.6-2.3H355c0.6,0,0.9-0.3,0.9-0.9v-8
				c0-0.6-0.3-0.9-0.9-0.9h-45.6c-1.2,0-2.3-0.5-3.3-1.4c-0.9-0.9-1.4-2-1.4-3.3c0-1.2,0.5-2.3,1.4-3.3c0.9-0.9,2-1.4,3.3-1.4H355
				c0.6,0,0.9-0.3,0.9-0.9v-6.2c0-1.4,0.5-2.7,1.5-3.7c1-1,2.2-1.5,3.6-1.5c1.4,0,2.6,0.5,3.6,1.5c1,1,1.5,2.3,1.5,3.7v6.2
				c0,0.6,0.4,0.9,1.1,0.9h46.2c1.2,0,2.3,0.5,3.3,1.4c0.9,0.9,1.4,2,1.4,3.3c0,1.2-0.5,2.3-1.4,3.3c-0.9,0.9-2,1.4-3.3,1.4h-46.2
				c-0.7,0-1.1,0.3-1.1,0.9v8c0,0.6,0.4,0.9,1.1,0.9h33.2c2.1,0,4,0.8,5.6,2.3c1.6,1.6,2.3,3.4,2.3,5.6v37.3c0,2.1-0.8,4-2.3,5.6
				c-1.6,1.6-3.4,2.3-5.6,2.3h-33.2c-0.7,0-1.1,0.4-1.1,1.1v9.1c0,0.7,0.4,1.1,1.1,1.1H418.3z M325.5,144.2c-0.6,0-0.9,0.3-0.9,0.9
				v12c0,0.6,0.3,0.9,0.9,0.9H355c0.6,0,0.9-0.3,0.9-0.9v-12c0-0.6-0.3-0.9-0.9-0.9H325.5z M324.6,179.4c0,0.6,0.3,0.9,0.9,0.9H355
				c0.6,0,0.9-0.3,0.9-0.9v-12c0-0.7-0.3-1.1-0.9-1.1h-29.4c-0.6,0-0.9,0.4-0.9,1.1V179.4z M398.2,145.2c0-0.6-0.3-0.9-0.9-0.9h-30
				c-0.7,0-1.1,0.3-1.1,0.9v12c0,0.6,0.4,0.9,1.1,0.9h30c0.6,0,0.9-0.3,0.9-0.9V145.2z M397.3,180.4c0.6,0,0.9-0.3,0.9-0.9v-12
				c0-0.7-0.3-1.1-0.9-1.1h-30c-0.7,0-1.1,0.4-1.1,1.1v12c0,0.6,0.4,0.9,1.1,0.9H397.3z"/>
			<path id="XMLID_44_" class="st0" d="M550.6,160.2c2.1,0,4,0.8,5.6,2.3c1.6,1.5,2.3,3.3,2.3,5.5V222c0,2.3-0.3,4.1-0.9,5.5
				c-0.6,1.3-1.7,2.4-3.2,3.2c-2.1,0.9-5.9,1.4-11.2,1.5H543c-1.2,0-2.4-0.4-3.3-1.2c-1.1-0.8-1.9-1.8-2.4-3.1
				c-0.4-1-0.2-1.9,0.3-2.7c0.6-0.8,1.4-1.3,2.3-1.3c1.2,0,2.2,0,3.1,0c2.1,0,3.4,0,4.1-0.1c0.7,0,1.2-0.1,1.5-0.4s0.4-0.8,0.4-1.5
				v-52.2c0-0.6-0.4-0.9-1.1-0.9h-52.2c-0.7,0-1.1,0.3-1.1,0.9v57.7c0,1.3-0.4,2.5-1.3,3.3c-0.9,0.9-2,1.3-3.2,1.3
				c-1.2,0-2.3-0.4-3.2-1.3c-0.9-0.9-1.3-2-1.3-3.3v-43.9c0-0.2-0.1-0.3-0.2-0.3c-0.1,0-0.2,0-0.3,0.2c-1.1,1.4-2.5,2.1-4.3,2.1
				c-0.1,0-0.2,0-0.3,0c-1.6,0-3-0.6-4.1-1.9c-2.9-3.3-6-6.5-9.1-9.6c-0.2-0.2-0.4-0.2-0.5-0.1c-0.2,0.1-0.3,0.2-0.3,0.4v52.7
				c0,1.3-0.5,2.5-1.4,3.5c-0.9,1-2.1,1.5-3.5,1.5c-1.4,0-2.5-0.5-3.5-1.5c-0.9-1-1.4-2.1-1.4-3.5v-46c0-0.2-0.1-0.3-0.3-0.3
				c-0.2,0-0.3,0-0.4,0.1c-4.5,4.7-9.1,8.8-13.5,12.3c-1.1,0.8-2.3,1-3.5,0.7c-1.3-0.3-2.3-1.1-3-2.3c-0.5-0.9-0.8-1.8-0.8-2.8
				c0-0.4,0-0.8,0.1-1.2c0.3-1.4,1-2.6,2.1-3.5c6.8-5,13.2-11.1,19.4-18.3s11.2-14.8,15.1-22.6c0.1-0.3,0.1-0.5,0-0.7
				c-0.1-0.2-0.3-0.3-0.5-0.3h-28.8c-1.2,0-2.3-0.4-3.3-1.3c-0.9-0.9-1.4-2-1.4-3.3c0-1.3,0.5-2.4,1.4-3.3c0.9-0.9,2-1.4,3.3-1.4h13
				c0.7,0,1.1-0.3,1.1-0.9v-19.5c0-1.3,0.5-2.5,1.4-3.5c0.9-1,2.1-1.5,3.5-1.5c1.4,0,2.5,0.5,3.5,1.5c0.9,1,1.4,2.1,1.4,3.5v19.5
				c0,0.6,0.4,0.9,1.1,0.9h9.8c0.1,0,0.2,0,0.4,0c1.2-0.3,2.2-0.1,3.2,0.5l1.3,0.9c0.8,0.5,1.4,1.3,1.7,2.2c0.3,0.9,0.2,1.9-0.2,2.7
				c-3.5,8.4-8.2,16.7-14,25c-0.4,0.5-0.3,1,0.3,1.5c4.3,3.4,9.2,7.8,14.9,13.1c0.2,0.2,0.4,0.2,0.5,0.1c0.2-0.1,0.3-0.2,0.3-0.4
				V168c0-2.1,0.8-4,2.3-5.6c1.5-1.6,3.4-2.3,5.6-2.3h0.8c0.6,0,0.9-0.3,0.9-0.9v-37.3c0-2.1,0.8-4,2.3-5.6c1.6-1.6,3.4-2.3,5.6-2.3
				h38.7c2.1,0,4,0.8,5.6,2.3c1.6,1.6,2.3,3.4,2.3,5.6v37.3C549.6,159.8,550,160.2,550.6,160.2z M504.8,122.2
				c-0.6,0-0.9,0.3-0.9,0.9v36.1c0,0.6,0.3,0.9,0.9,0.9h10.8c0.6,0,0.9-0.3,0.9-0.9v-17.4c0-2.2,0.8-4.1,2.3-5.6
				c1.6-1.5,3.4-2.3,5.6-2.3h15.3c0.6,0,0.9-0.4,0.9-1.1v-9.8c0-0.6-0.3-0.9-0.9-0.9H504.8z M538.5,204.3c0,2.2-0.8,4.1-2.3,5.6
				c-1.6,1.5-3.4,2.3-5.6,2.3h-17.1c-0.4,0-0.7,0.3-0.7,0.8v2.5c0,1-0.4,1.9-1.1,2.6c-0.8,0.8-1.7,1.1-2.7,1.1c-1,0-1.9-0.4-2.6-1.1
				c-0.7-0.8-1.1-1.6-1.1-2.6v-28.4c0-2.2,0.8-4.1,2.3-5.6c1.6-1.5,3.4-2.3,5.6-2.3h17.4c2.1,0,4,0.8,5.6,2.3
				c1.6,1.5,2.3,3.4,2.3,5.6V204.3z M531.2,187.7c0-0.6-0.4-0.9-1.1-0.9h-16.3c-0.6,0-0.9,0.3-0.9,0.9v16.1c0,0.6,0.3,0.9,0.9,0.9
				h16.3c0.7,0,1.1-0.3,1.1-0.9V187.7z M539.7,160.2c0.6,0,0.9-0.3,0.9-0.9v-16.6c0-0.6-0.3-0.9-0.9-0.9h-14.3
				c-0.6,0-0.9,0.3-0.9,0.9v16.6c0,0.6,0.3,0.9,0.9,0.9H539.7z"/>
			<path id="XMLID_50_" class="st0" d="M601.2,149.4c-0.6,0-0.9,0.4-0.9,1.1v37.6c0,0.2,0.1,0.3,0.3,0.5c0.2,0.1,0.4,0.2,0.7,0.1
				c5.3-2.3,8.7-3.8,10.3-4.4c1.2-0.4,2.3-0.4,3.3,0.2c1.1,0.6,1.7,1.5,2,2.6c0.4,1.3,0.2,2.6-0.4,3.8c-0.6,1.2-1.5,2.1-2.7,2.6
				c-6.8,3.1-17.8,8.1-32.9,14.8c-1.3,0.5-2.7,0.5-4.1,0c-1.4-0.5-2.3-1.5-2.9-2.9c-0.5-1.4-0.5-2.8,0.1-4.1c0.6-1.4,1.6-2.3,3-2.9
				c3.8-1.4,8.1-3.1,12.7-5.1c0.6-0.3,0.9-0.8,0.9-1.5v-41.3c0-0.7-0.3-1.1-0.9-1.1h-11.8c-1.3,0-2.5-0.5-3.4-1.4
				c-0.9-0.9-1.4-2.1-1.4-3.4s0.5-2.5,1.4-3.4c0.9-0.9,2.1-1.4,3.4-1.4h11.8c0.6,0,0.9-0.4,0.9-1.1v-25.3c0-1.3,0.5-2.5,1.4-3.4
				c0.9-0.9,2.1-1.4,3.4-1.4s2.5,0.5,3.4,1.4c0.9,0.9,1.4,2.1,1.4,3.4v25.3c0,0.7,0.3,1.1,0.9,1.1h10.2c1.3,0,2.5,0.5,3.5,1.4
				c1,0.9,1.5,2.1,1.5,3.4s-0.5,2.5-1.5,3.4c-1,0.9-2.1,1.4-3.5,1.4H601.2z M646.1,220h33c3.5,0,5.9-1,7.2-2.9
				c1.3-1.9,2.2-5.8,2.7-11.6c0.1-1.2,0.6-2,1.6-2.5c1-0.5,2-0.6,3.1-0.1c1.4,0.6,2.5,1.6,3.3,2.8c0.6,1,0.9,2,0.9,3.1
				c0,0.3,0,0.5,0,0.7c-0.9,7.6-2.6,12.8-5.2,15.5c-2.6,2.8-7,4.1-13.4,4.1h-33.6c-7.8,0-13.2-1.2-16-3.7c-2.8-2.5-4.2-7.4-4.2-14.6
				v-42.1c0-0.3-0.1-0.5-0.3-0.6c-0.2-0.1-0.4-0.2-0.7-0.1l-5.4,2.3c-1.2,0.5-2.5,0.6-3.7,0.1c-1.2-0.5-2.1-1.3-2.7-2.5
				c-0.4-0.7-0.5-1.4-0.5-2c0-0.5,0.1-1.1,0.4-1.7c0.4-1.2,1.3-2.1,2.5-2.5l9.4-4c0.6-0.3,0.9-0.8,0.9-1.5v-31.4
				c0-1.3,0.5-2.5,1.5-3.4c1-0.9,2.1-1.4,3.5-1.4s2.5,0.5,3.4,1.4c0.9,0.9,1.4,2.1,1.4,3.4v27.3c0,0.3,0.1,0.5,0.3,0.6
				c0.2,0.1,0.4,0.2,0.7,0.1l16.5-7c0.6-0.3,0.9-0.8,0.9-1.5v-32.2c0-1.3,0.5-2.5,1.5-3.4c1-0.9,2.1-1.4,3.5-1.4s2.5,0.5,3.4,1.4
				c0.9,0.9,1.4,2.1,1.4,3.4v28.2c0,0.3,0.1,0.5,0.3,0.6c0.2,0.1,0.4,0.2,0.7,0.1l16.6-7.1c0.4-0.1,0.7-0.3,0.9-0.5l0.8-0.7
				c1.2-1.1,2.5-1.6,3.9-1.6c0.8,0,1.6,0.2,2.5,0.5l2,0.8c1.1,0.4,1.4,1.1,1.1,2.3c0,0.2,0,0.3,0,0.4c0,29.7-0.4,46.7-1.3,51.1
				c-0.6,4.9-3.1,7.9-7.4,9c-2,0.5-4.7,0.8-8.3,0.9c-1.2,0.1-2.4-0.3-3.4-1.1c-1-0.8-1.7-1.9-2.1-3.3c-0.3-1.1-0.1-2,0.5-2.9
				c0.6-0.8,1.5-1.3,2.5-1.3c1.3,0,2.9,0,4.5,0c1.2,0,2.1-0.2,2.7-0.7c0.6-0.5,1.1-1.4,1.5-2.9c0.6-3,0.9-16.1,0.9-39.2
				c0-0.3-0.1-0.5-0.3-0.6c-0.2-0.1-0.4-0.2-0.7-0.1l-17.1,7.4c-0.6,0.3-0.9,0.7-0.9,1.3v44.4c0,1.3-0.5,2.5-1.4,3.5
				c-0.9,1-2.1,1.5-3.4,1.5s-2.5-0.5-3.5-1.5c-1-1-1.5-2.1-1.5-3.5v-40.3c0-0.3-0.1-0.5-0.3-0.6c-0.2-0.1-0.4-0.2-0.7-0.1l-16.5,7.1
				c-0.6,0.3-0.9,0.7-0.9,1.3v46.4c0,3.7,0.7,6.1,2,7.3C638.7,219.4,641.6,220,646.1,220z"/>
			<path id="XMLID_53_" class="st0" d="M718.1,229.1c-0.6,1-1.5,1.6-2.6,1.7c-1.1,0.2-2.2,0-3.3-0.5c-0.8-0.4-1.3-1.2-1.5-2.1
				c-0.1-0.3-0.1-0.5-0.1-0.8c0-0.7,0.2-1.4,0.7-2c2.9-4.4,4.9-10.4,6.2-18.1c0.1-1,0.6-1.8,1.4-2.3c0.8-0.6,1.8-0.7,2.7-0.5
				c1,0.3,1.8,0.8,2.4,1.7c0.6,0.9,0.8,1.9,0.7,2.9C723.2,218.1,721,224.8,718.1,229.1z M715.9,197.7c-1.2,0.1-2.3-0.3-3.2-1.1
				c-0.9-0.8-1.4-1.8-1.5-3c-0.1-1.2,0.3-2.2,1.1-3.1c0.8-0.9,1.8-1.4,3.1-1.5c1.3-0.1,4.3-0.2,9-0.5c4.6-0.2,8.4-0.4,11.2-0.6
				c0.7,0,1.1-0.3,1.1-0.9v-8.7c0-0.7-0.4-1.1-1.1-1.1h-17.5c-1.2,0-2.1-0.4-2.9-1.1c-0.8-0.8-1.1-1.7-1.1-2.8
				c0-1.1,0.4-2.1,1.1-2.9c0.8-0.8,1.7-1.2,2.9-1.2h17.5c0.7,0,1.1-0.4,1.1-1.1v-7.4c0-0.7-0.4-1.1-1.1-1.1h-12.7
				c-2.1,0-4-0.8-5.6-2.3c-1.6-1.5-2.3-3.4-2.3-5.6V120c0-2.2,0.8-4.1,2.3-5.6c1.6-1.5,3.4-2.3,5.6-2.3h37.9c2.2,0,4.1,0.8,5.6,2.3
				c1.5,1.5,2.3,3.4,2.3,5.6v31.8c0,2.2-0.8,4.1-2.3,5.6c-1.5,1.5-3.4,2.3-5.6,2.3h-13.9c-0.7,0-1.1,0.4-1.1,1.1v7.4
				c0,0.7,0.4,1.1,1.1,1.1h18.6c1.2,0,2.1,0.4,2.9,1.2c0.8,0.8,1.1,1.8,1.1,2.9c0,1.1-0.4,2.1-1.1,2.8c-0.8,0.8-1.7,1.1-2.9,1.1
				h-18.6c-0.7,0-1.1,0.4-1.1,1.1v8c0,0.7,0.4,1.1,1.1,1.1c5.1-0.3,12-0.7,20.7-1.2c1.2-0.1,2.1,0.2,2.9,1c0.8,0.8,1.1,1.7,1.1,2.7
				c-0.1,1.2-0.5,2.3-1.3,3.1c-0.8,0.8-1.8,1.3-2.9,1.3C750,195.7,732.9,196.9,715.9,197.7z M724,119.5c-0.7,0-1.1,0.4-1.1,1.1v30.8
				c0,0.7,0.4,1.1,1.1,1.1h12.7c0.7,0,1.1-0.4,1.1-1.1v-30.8c0-0.7-0.4-1.1-1.1-1.1H724z M725.7,128.7c-0.3-0.7-0.2-1.4,0.1-2
				c0.4-0.6,0.9-1,1.6-1.2c0.7-0.2,1.4-0.1,2,0.3c0.6,0.4,1.1,0.8,1.3,1.5c1.7,5.1,2.9,10.3,3.5,15.5c0.1,0.8-0.1,1.5-0.5,2.2
				c-0.4,0.7-1.1,1.1-1.9,1.3c-0.7,0.2-1.4,0.1-1.9-0.3c-0.6-0.4-0.9-1-1-1.7C728.4,139.1,727.3,133.9,725.7,128.7z M730.3,207.1
				c0-0.3,0-0.5,0-0.7c0-0.6,0.2-1.2,0.5-1.7c0.4-0.7,1.1-1.1,2-1.2c1-0.1,1.9,0.1,2.7,0.7s1.3,1.3,1.5,2.3
				c1.4,5.7,2.3,11.3,2.7,16.7c0.1,1.1-0.2,2-0.9,2.7c-0.7,0.8-1.5,1.2-2.5,1.3c-0.9,0.2-1.7,0-2.4-0.7c-0.7-0.6-1.1-1.4-1.2-2.3
				C732.4,218.8,731.6,213.1,730.3,207.1z M743.8,206.3c-0.1-0.4-0.1-0.7-0.1-1.1c0-0.4,0.1-0.9,0.3-1.3c0.4-0.7,1-1.2,1.9-1.3
				c0.9-0.3,1.8-0.2,2.7,0.3c0.9,0.4,1.5,1.1,1.9,2c2.2,5.4,3.9,10.6,5.1,15.4c0.2,1,0,1.9-0.5,2.7c-0.5,0.8-1.3,1.4-2.3,1.5
				c-0.9,0.2-1.7,0-2.5-0.5s-1.3-1.3-1.5-2.3C747.6,217.1,746,211.9,743.8,206.3z M759.4,152.4c0.7,0,1.1-0.4,1.1-1.1v-30.8
				c0-0.7-0.4-1.1-1.1-1.1h-13.6c-0.7,0-1.1,0.4-1.1,1.1v30.8c0,0.7,0.4,1.1,1.1,1.1H759.4z M752.2,145.7c-0.3,0.6-0.7,1.1-1.3,1.3
				c-0.6,0.3-1.2,0.3-1.9,0.1c-0.6-0.2-1.1-0.6-1.3-1.3c-0.3-0.6-0.3-1.2-0.1-1.9c1.7-5.4,3.2-10.8,4.5-16.5
				c0.2-0.8,0.6-1.4,1.3-1.8c0.7-0.4,1.5-0.5,2.3-0.2c0.8,0.4,1.4,0.9,1.8,1.7c0.4,0.8,0.5,1.6,0.2,2.4
				C754.6,139.1,752.7,144.5,752.2,145.7z M757.4,204.2c-0.3-0.4-0.4-0.9-0.4-1.5c0-0.3,0-0.5,0.1-0.8c0.3-0.9,0.8-1.5,1.6-1.7
				c0.9-0.4,1.8-0.5,2.8-0.3c1,0.3,1.7,0.8,2.3,1.7c3.4,4.8,6.2,9.5,8.3,14.2c0.4,1,0.5,1.9,0.1,2.9c-0.4,0.9-1,1.6-1.9,2.1
				c-1,0.4-1.9,0.4-2.9,0c-0.9-0.4-1.6-1-1.9-2C763.4,214,760.7,209.2,757.4,204.2z M833.7,138.1c0.9,0.9,1.4,2.1,1.4,3.4
				s-0.5,2.5-1.4,3.4c-0.9,0.9-2.1,1.4-3.4,1.4h-23.4c-0.6,0-0.9,0.3-0.9,0.9v23.4c0,0.6,0.3,0.9,0.9,0.9h14.9c2.1,0,4,0.8,5.6,2.3
				c1.6,1.6,2.3,3.4,2.3,5.6v47.1c0,1.3-0.5,2.5-1.4,3.4c-0.9,0.9-2.1,1.4-3.4,1.4s-2.5-0.5-3.4-1.4c-0.9-0.9-1.4-2.1-1.4-3.4v-0.4
				c0-0.4-0.2-0.7-0.7-0.7h-33c-0.5,0-0.8,0.2-0.8,0.7v1.1c0,1.2-0.4,2.3-1.3,3.3c-0.9,0.9-2,1.4-3.3,1.4c-1.3,0-2.4-0.5-3.3-1.4
				c-0.9-0.9-1.3-2-1.3-3.3v-47.8c0-2.1,0.8-4,2.3-5.6c1.5-1.6,3.4-2.3,5.6-2.3H795c0.6,0,0.9-0.3,0.9-0.9v-58.5
				c0-1.3,0.5-2.5,1.5-3.5c1-1,2.2-1.5,3.5-1.5c1.4,0,2.6,0.5,3.5,1.5c1,1,1.5,2.1,1.5,3.5v23.5c0,0.6,0.3,0.9,0.9,0.9h23.4
				C831.7,136.7,832.8,137.2,833.7,138.1z M819.1,216.3c0.6,0,0.9-0.3,0.9-0.9v-33.3c0-0.6-0.3-0.9-0.9-0.9h-32.5
				c-0.7,0-1.1,0.3-1.1,0.9v33.3c0,0.6,0.4,0.9,1.1,0.9H819.1z"/>
		</g>
		<g id="XMLID_1_">
			<path id="XMLID_2_" class="st1" d="M55.1,220.4c-15.6,0-28.8-4.6-39.5-13.9c-1.6-1.5-2.4-3.4-2.4-5.8c0-1.9,0.6-3.5,1.7-5
				s2.6-2.3,4.5-2.4c1.9-0.1,3.6,0.4,5.1,1.7c8.7,7.3,18.4,10.9,29.3,10.9c8.4,0,15.2-2.3,20.5-7c5.3-4.6,7.9-10.9,7.9-18.8
				c0-17.2-12.2-26.4-36.7-27.6c-1.9-0.1-3.4-0.8-4.7-2.1s-1.9-2.9-1.9-4.7c0-1.9,0.6-3.4,1.9-4.7s2.9-2,4.7-2.1
				c11.1-0.9,19.2-3.6,24.3-8.3c5.1-4.6,7.6-10.7,7.6-18.1c0-6.8-2.1-12.2-6.3-16.2c-4.2-4-10-6.1-17.3-6.2
				c-8.2,0.2-16,3.3-23.4,9.1c-1.6,1.2-3.4,1.8-5.4,1.7c-2-0.1-3.6-0.9-4.8-2.4c-1.2-1.5-1.8-3.2-1.7-5.3c0.1-2,1-3.7,2.6-4.9
				C31.4,80.1,42.6,76,54.6,76c12,0,21.7,3.1,29.2,9.3C91.3,91.5,95,100,95,110.9c0,8.2-2.2,15.1-6.5,20.8c-4.3,5.7-10.3,10-18,12.8
				c-0.2,0.1-0.4,0.3-0.4,0.6c0,0.2,0.1,0.4,0.4,0.4c8.7,2.1,15.7,6.2,21.2,12.4c5.4,6.2,8.2,13.8,8.2,22.8
				c0,12.1-4.3,21.8-12.8,28.9C78.5,216.8,67.9,220.4,55.1,220.4z"/>
			<path id="XMLID_4_" d="M280.1,141c1,1,1.5,2.3,1.5,3.7c0,1.4-0.5,2.7-1.5,3.7c-1,1-2.3,1.5-3.7,1.5h-45.6c-0.2,0-0.4,0.1-0.5,0.3
				c-0.2,0.2-0.2,0.4-0.1,0.6c5,15.3,12,28.6,20.9,39.7c7.8,9.7,16.8,17.2,27.2,22.5c1.3,0.6,2.1,1.7,2.4,3.1c0.3,1.5,0,2.8-0.9,3.9
				c-1.2,1.4-2.5,2.4-4.1,2.8c-0.6,0.2-1.2,0.3-1.7,0.3c-1.1,0-2.1-0.3-3.1-0.8c-21.7-12.2-38-33.6-48.8-64.1c0-0.1-0.1-0.1-0.2-0.1
				s-0.2,0-0.3,0.1c-7.6,29.7-24,51.2-49.2,64.4c-1,0.4-1.9,0.7-2.8,0.7c-0.5,0-1.1-0.1-1.7-0.3c-1.5-0.4-2.9-1.3-4-2.5
				c-0.8-1-1.1-2.1-1-3.4s0.8-2.2,1.9-2.7c25.2-12.8,41.2-33.9,47.8-63.6c0.2-0.6,0-0.9-0.7-0.9h-44.3c-1.4,0-2.7-0.5-3.7-1.5
				c-1-1-1.5-2.3-1.5-3.7c0-1.4,0.5-2.7,1.5-3.7c1-1,2.3-1.5,3.7-1.5h45.9c0.7,0,1.1-0.3,1.2-0.9c1-7.2,1.6-18.1,1.7-32.5
				c0.1-1.5,0.7-2.8,1.7-3.9s2.4-1.6,3.9-1.6c1.5,0,2.8,0.5,3.9,1.6c1,1.1,1.5,2.3,1.5,3.7c0,11.4-0.6,22.3-1.9,32.6
				c-0.1,0.6,0.2,0.9,0.8,0.9h50.4C277.8,139.4,279,140,280.1,141z"/>
			<path id="XMLID_6_" d="M415.3,196.3c1.2,0,2.3,0.4,3.2,1.3c0.9,0.9,1.3,2,1.3,3.2c0,1.2-0.4,2.3-1.3,3.2c-0.9,0.9-2,1.3-3.2,1.3
				h-51c-0.7,0-1.1,0.4-1.1,1.1v14.2c0,1.3-0.5,2.5-1.5,3.5c-1,1-2.2,1.5-3.6,1.5c-1.4,0-2.6-0.5-3.6-1.5c-1-1-1.5-2.2-1.5-3.5
				v-14.2c0-0.7-0.3-1.1-0.9-1.1h-49.9c-1.2,0-2.3-0.4-3.2-1.3c-0.9-0.9-1.3-2-1.3-3.2c0-1.2,0.4-2.3,1.3-3.2c0.9-0.9,2-1.3,3.2-1.3
				H352c0.6,0,0.9-0.4,0.9-1.1v-9.1c0-0.7-0.3-1.1-0.9-1.1h-32.2c-2.1,0-4-0.8-5.6-2.3c-1.6-1.6-2.3-3.4-2.3-5.6v-37.3
				c0-2.1,0.8-4,2.3-5.6c1.6-1.6,3.4-2.3,5.6-2.3H352c0.6,0,0.9-0.3,0.9-0.9v-8c0-0.6-0.3-0.9-0.9-0.9h-45.6c-1.2,0-2.3-0.5-3.3-1.4
				c-0.9-0.9-1.4-2-1.4-3.3c0-1.2,0.5-2.3,1.4-3.3c0.9-0.9,2-1.4,3.3-1.4H352c0.6,0,0.9-0.3,0.9-0.9v-6.2c0-1.4,0.5-2.7,1.5-3.7
				c1-1,2.2-1.5,3.6-1.5c1.4,0,2.6,0.5,3.6,1.5c1,1,1.5,2.3,1.5,3.7v6.2c0,0.6,0.4,0.9,1.1,0.9h46.2c1.2,0,2.3,0.5,3.3,1.4
				c0.9,0.9,1.4,2,1.4,3.3c0,1.2-0.5,2.3-1.4,3.3c-0.9,0.9-2,1.4-3.3,1.4h-46.2c-0.7,0-1.1,0.3-1.1,0.9v8c0,0.6,0.4,0.9,1.1,0.9
				h33.2c2.1,0,4,0.8,5.6,2.3c1.6,1.6,2.3,3.4,2.3,5.6v37.3c0,2.1-0.8,4-2.3,5.6c-1.6,1.6-3.4,2.3-5.6,2.3h-33.2
				c-0.7,0-1.1,0.4-1.1,1.1v9.1c0,0.7,0.4,1.1,1.1,1.1H415.3z M322.5,140.5c-0.6,0-0.9,0.3-0.9,0.9v12c0,0.6,0.3,0.9,0.9,0.9H352
				c0.6,0,0.9-0.3,0.9-0.9v-12c0-0.6-0.3-0.9-0.9-0.9H322.5z M321.6,175.7c0,0.6,0.3,0.9,0.9,0.9H352c0.6,0,0.9-0.3,0.9-0.9v-12
				c0-0.7-0.3-1.1-0.9-1.1h-29.4c-0.6,0-0.9,0.4-0.9,1.1V175.7z M395.2,141.4c0-0.6-0.3-0.9-0.9-0.9h-30c-0.7,0-1.1,0.3-1.1,0.9v12
				c0,0.6,0.4,0.9,1.1,0.9h30c0.6,0,0.9-0.3,0.9-0.9V141.4z M394.3,176.6c0.6,0,0.9-0.3,0.9-0.9v-12c0-0.7-0.3-1.1-0.9-1.1h-30
				c-0.7,0-1.1,0.4-1.1,1.1v12c0,0.6,0.4,0.9,1.1,0.9H394.3z"/>
			<path id="XMLID_12_" d="M547.6,156.4c2.1,0,4,0.8,5.6,2.3c1.6,1.5,2.3,3.3,2.3,5.5v54.1c0,2.3-0.3,4.1-0.9,5.5
				c-0.6,1.3-1.7,2.4-3.2,3.2c-2.1,0.9-5.9,1.4-11.2,1.5H540c-1.2,0-2.4-0.4-3.3-1.2c-1.1-0.8-1.9-1.8-2.4-3.1
				c-0.4-1-0.2-1.9,0.3-2.7c0.6-0.8,1.4-1.3,2.3-1.3c1.2,0,2.2,0,3.1,0c2.1,0,3.4,0,4.1-0.1c0.7,0,1.2-0.1,1.5-0.4s0.4-0.8,0.4-1.5
				v-52.2c0-0.6-0.4-0.9-1.1-0.9h-52.2c-0.7,0-1.1,0.3-1.1,0.9v57.7c0,1.3-0.4,2.5-1.3,3.3c-0.9,0.9-2,1.3-3.2,1.3
				c-1.2,0-2.3-0.4-3.2-1.3c-0.9-0.9-1.3-2-1.3-3.3v-43.9c0-0.2-0.1-0.3-0.2-0.3c-0.1,0-0.2,0-0.3,0.2c-1.1,1.4-2.5,2.1-4.3,2.1
				c-0.1,0-0.2,0-0.3,0c-1.6,0-3-0.6-4.1-1.9c-2.9-3.3-6-6.5-9.1-9.6c-0.2-0.2-0.4-0.2-0.5-0.1c-0.2,0.1-0.3,0.2-0.3,0.4v52.7
				c0,1.3-0.5,2.5-1.4,3.5c-0.9,1-2.1,1.5-3.5,1.5c-1.4,0-2.5-0.5-3.5-1.5c-0.9-1-1.4-2.1-1.4-3.5v-46c0-0.2-0.1-0.3-0.3-0.3
				c-0.2,0-0.3,0-0.4,0.1c-4.5,4.7-9.1,8.8-13.5,12.3c-1.1,0.8-2.3,1-3.5,0.7c-1.3-0.3-2.3-1.1-3-2.3c-0.5-0.9-0.8-1.8-0.8-2.8
				c0-0.4,0-0.8,0.1-1.2c0.3-1.4,1-2.6,2.1-3.5c6.8-5,13.2-11.1,19.4-18.3s11.2-14.8,15.1-22.6c0.1-0.3,0.1-0.5,0-0.7
				c-0.1-0.2-0.3-0.3-0.5-0.3h-28.8c-1.2,0-2.3-0.4-3.3-1.3c-0.9-0.9-1.4-2-1.4-3.3c0-1.3,0.5-2.4,1.4-3.3c0.9-0.9,2-1.4,3.3-1.4h13
				c0.7,0,1.1-0.3,1.1-0.9v-19.5c0-1.3,0.5-2.5,1.4-3.5c0.9-1,2.1-1.5,3.5-1.5c1.4,0,2.5,0.5,3.5,1.5c0.9,1,1.4,2.1,1.4,3.5v19.5
				c0,0.6,0.4,0.9,1.1,0.9h9.8c0.1,0,0.2,0,0.4,0c1.2-0.3,2.2-0.1,3.2,0.5l1.3,0.9c0.8,0.5,1.4,1.3,1.7,2.2c0.3,0.9,0.2,1.9-0.2,2.7
				c-3.5,8.4-8.2,16.7-14,25c-0.4,0.5-0.3,1,0.3,1.5c4.3,3.4,9.2,7.8,14.9,13.1c0.2,0.2,0.4,0.2,0.5,0.1c0.2-0.1,0.3-0.2,0.3-0.4
				v-10.3c0-2.1,0.8-4,2.3-5.6c1.5-1.6,3.4-2.3,5.6-2.3h0.8c0.6,0,0.9-0.3,0.9-0.9v-37.3c0-2.1,0.8-4,2.3-5.6
				c1.6-1.6,3.4-2.3,5.6-2.3h38.7c2.1,0,4,0.8,5.6,2.3c1.6,1.6,2.3,3.4,2.3,5.6v37.3C546.6,156.1,547,156.4,547.6,156.4z
				 M501.8,118.4c-0.6,0-0.9,0.3-0.9,0.9v36.1c0,0.6,0.3,0.9,0.9,0.9h10.8c0.6,0,0.9-0.3,0.9-0.9v-17.4c0-2.2,0.8-4.1,2.3-5.6
				c1.6-1.5,3.4-2.3,5.6-2.3h15.3c0.6,0,0.9-0.4,0.9-1.1v-9.8c0-0.6-0.3-0.9-0.9-0.9H501.8z M535.5,200.6c0,2.2-0.8,4.1-2.3,5.6
				c-1.6,1.5-3.4,2.3-5.6,2.3h-17.1c-0.4,0-0.7,0.3-0.7,0.8v2.5c0,1-0.4,1.9-1.1,2.6c-0.8,0.8-1.7,1.1-2.7,1.1c-1,0-1.9-0.4-2.6-1.1
				c-0.7-0.8-1.1-1.6-1.1-2.6v-28.4c0-2.2,0.8-4.1,2.3-5.6c1.6-1.5,3.4-2.3,5.6-2.3h17.4c2.1,0,4,0.8,5.6,2.3
				c1.6,1.5,2.3,3.4,2.3,5.6V200.6z M528.2,184c0-0.6-0.4-0.9-1.1-0.9h-16.3c-0.6,0-0.9,0.3-0.9,0.9V200c0,0.6,0.3,0.9,0.9,0.9h16.3
				c0.7,0,1.1-0.3,1.1-0.9V184z M536.7,156.4c0.6,0,0.9-0.3,0.9-0.9v-16.6c0-0.6-0.3-0.9-0.9-0.9h-14.3c-0.6,0-0.9,0.3-0.9,0.9v16.6
				c0,0.6,0.3,0.9,0.9,0.9H536.7z"/>
			<path id="XMLID_18_" d="M598.2,145.7c-0.6,0-0.9,0.4-0.9,1.1v37.6c0,0.2,0.1,0.3,0.3,0.5c0.2,0.1,0.4,0.2,0.7,0.1
				c5.3-2.3,8.7-3.8,10.3-4.4c1.2-0.4,2.3-0.4,3.3,0.2c1.1,0.6,1.7,1.5,2,2.6c0.4,1.3,0.2,2.6-0.4,3.8c-0.6,1.2-1.5,2.1-2.7,2.6
				c-6.8,3.1-17.8,8.1-32.9,14.8c-1.3,0.5-2.7,0.5-4.1,0c-1.4-0.5-2.3-1.5-2.9-2.9c-0.5-1.4-0.5-2.8,0.1-4.1c0.6-1.4,1.6-2.3,3-2.9
				c3.8-1.4,8.1-3.1,12.7-5.1c0.6-0.3,0.9-0.8,0.9-1.5v-41.3c0-0.7-0.3-1.1-0.9-1.1h-11.8c-1.3,0-2.5-0.5-3.4-1.4
				c-0.9-0.9-1.4-2.1-1.4-3.4s0.5-2.5,1.4-3.4c0.9-0.9,2.1-1.4,3.4-1.4h11.8c0.6,0,0.9-0.4,0.9-1.1v-25.3c0-1.3,0.5-2.5,1.4-3.4
				c0.9-0.9,2.1-1.4,3.4-1.4s2.5,0.5,3.4,1.4c0.9,0.9,1.4,2.1,1.4,3.4V135c0,0.7,0.3,1.1,0.9,1.1h10.2c1.3,0,2.5,0.5,3.5,1.4
				c1,0.9,1.5,2.1,1.5,3.4s-0.5,2.5-1.5,3.4c-1,0.9-2.1,1.4-3.5,1.4H598.2z M643.1,216.2h33c3.5,0,5.9-1,7.2-2.9
				c1.3-1.9,2.2-5.8,2.7-11.6c0.1-1.2,0.6-2,1.6-2.5c1-0.5,2-0.6,3.1-0.1c1.4,0.6,2.5,1.6,3.3,2.8c0.6,1,0.9,2,0.9,3.1
				c0,0.3,0,0.5,0,0.7c-0.9,7.6-2.6,12.8-5.2,15.5c-2.6,2.8-7,4.1-13.4,4.1h-33.6c-7.8,0-13.2-1.2-16-3.7c-2.8-2.5-4.2-7.4-4.2-14.6
				v-42.1c0-0.3-0.1-0.5-0.3-0.6c-0.2-0.1-0.4-0.2-0.7-0.1l-5.4,2.3c-1.2,0.5-2.5,0.6-3.7,0.1c-1.2-0.5-2.1-1.3-2.7-2.5
				c-0.4-0.7-0.5-1.4-0.5-2c0-0.5,0.1-1.1,0.4-1.7c0.4-1.2,1.3-2.1,2.5-2.5l9.4-4c0.6-0.3,0.9-0.8,0.9-1.5v-31.4
				c0-1.3,0.5-2.5,1.5-3.4c1-0.9,2.1-1.4,3.5-1.4s2.5,0.5,3.4,1.4c0.9,0.9,1.4,2.1,1.4,3.4v27.3c0,0.3,0.1,0.5,0.3,0.6
				c0.2,0.1,0.4,0.2,0.7,0.1l16.5-7c0.6-0.3,0.9-0.8,0.9-1.5v-32.2c0-1.3,0.5-2.5,1.5-3.4c1-0.9,2.1-1.4,3.5-1.4s2.5,0.5,3.4,1.4
				c0.9,0.9,1.4,2.1,1.4,3.4v28.2c0,0.3,0.1,0.5,0.3,0.6c0.2,0.1,0.4,0.2,0.7,0.1l16.6-7.1c0.4-0.1,0.7-0.3,0.9-0.5l0.8-0.7
				c1.2-1.1,2.5-1.6,3.9-1.6c0.8,0,1.6,0.2,2.5,0.5l2,0.8c1.1,0.4,1.4,1.1,1.1,2.3c0,0.2,0,0.3,0,0.4c0,29.7-0.4,46.7-1.3,51.1
				c-0.6,4.9-3.1,7.9-7.4,9c-2,0.5-4.7,0.8-8.3,0.9c-1.2,0.1-2.4-0.3-3.4-1.1c-1-0.8-1.7-1.9-2.1-3.3c-0.3-1.1-0.1-2,0.5-2.9
				c0.6-0.8,1.5-1.3,2.5-1.3c1.3,0,2.9,0,4.5,0c1.2,0,2.1-0.2,2.7-0.7c0.6-0.5,1.1-1.4,1.5-2.9c0.6-3,0.9-16.1,0.9-39.2
				c0-0.3-0.1-0.5-0.3-0.6c-0.2-0.1-0.4-0.2-0.7-0.1l-17.1,7.4c-0.6,0.3-0.9,0.7-0.9,1.3v44.4c0,1.3-0.5,2.5-1.4,3.5
				c-0.9,1-2.1,1.5-3.4,1.5s-2.5-0.5-3.5-1.5c-1-1-1.5-2.1-1.5-3.5V153c0-0.3-0.1-0.5-0.3-0.6c-0.2-0.1-0.4-0.2-0.7-0.1l-16.5,7.1
				c-0.6,0.3-0.9,0.7-0.9,1.3v46.4c0,3.7,0.7,6.1,2,7.3C635.7,215.6,638.6,216.2,643.1,216.2z"/>
			<path id="XMLID_21_" d="M715.1,225.3c-0.6,1-1.5,1.6-2.6,1.7c-1.1,0.2-2.2,0-3.3-0.5c-0.8-0.4-1.3-1.2-1.5-2.1
				c-0.1-0.3-0.1-0.5-0.1-0.8c0-0.7,0.2-1.4,0.7-2c2.9-4.4,4.9-10.4,6.2-18.1c0.1-1,0.6-1.8,1.4-2.3c0.8-0.6,1.8-0.7,2.7-0.5
				c1,0.3,1.8,0.8,2.4,1.7c0.6,0.9,0.8,1.9,0.7,2.9C720.2,214.4,718,221.1,715.1,225.3z M712.9,194c-1.2,0.1-2.3-0.3-3.2-1.1
				c-0.9-0.8-1.4-1.8-1.5-3c-0.1-1.2,0.3-2.2,1.1-3.1c0.8-0.9,1.8-1.4,3.1-1.5c1.3-0.1,4.3-0.2,9-0.5c4.6-0.2,8.4-0.4,11.2-0.6
				c0.7,0,1.1-0.3,1.1-0.9v-8.7c0-0.7-0.4-1.1-1.1-1.1h-17.5c-1.2,0-2.1-0.4-2.9-1.1c-0.8-0.8-1.1-1.7-1.1-2.8
				c0-1.1,0.4-2.1,1.1-2.9c0.8-0.8,1.7-1.2,2.9-1.2h17.5c0.7,0,1.1-0.4,1.1-1.1v-7.4c0-0.7-0.4-1.1-1.1-1.1h-12.7
				c-2.1,0-4-0.8-5.6-2.3c-1.6-1.5-2.3-3.4-2.3-5.6v-31.8c0-2.2,0.8-4.1,2.3-5.6c1.6-1.5,3.4-2.3,5.6-2.3h37.9
				c2.2,0,4.1,0.8,5.6,2.3c1.5,1.5,2.3,3.4,2.3,5.6v31.8c0,2.2-0.8,4.1-2.3,5.6c-1.5,1.5-3.4,2.3-5.6,2.3h-13.9
				c-0.7,0-1.1,0.4-1.1,1.1v7.4c0,0.7,0.4,1.1,1.1,1.1h18.6c1.2,0,2.1,0.4,2.9,1.2c0.8,0.8,1.1,1.8,1.1,2.9c0,1.1-0.4,2.1-1.1,2.8
				c-0.8,0.8-1.7,1.1-2.9,1.1h-18.6c-0.7,0-1.1,0.4-1.1,1.1v8c0,0.7,0.4,1.1,1.1,1.1c5.1-0.3,12-0.7,20.7-1.2c1.2-0.1,2.1,0.2,2.9,1
				c0.8,0.8,1.1,1.7,1.1,2.7c-0.1,1.2-0.5,2.3-1.3,3.1c-0.8,0.8-1.8,1.3-2.9,1.3C747,192,729.9,193.1,712.9,194z M721,115.8
				c-0.7,0-1.1,0.4-1.1,1.1v30.8c0,0.7,0.4,1.1,1.1,1.1h12.7c0.7,0,1.1-0.4,1.1-1.1v-30.8c0-0.7-0.4-1.1-1.1-1.1H721z M722.7,125
				c-0.3-0.7-0.2-1.4,0.1-2c0.4-0.6,0.9-1,1.6-1.2c0.7-0.2,1.4-0.1,2,0.3c0.6,0.4,1.1,0.8,1.3,1.5c1.7,5.1,2.9,10.3,3.5,15.5
				c0.1,0.8-0.1,1.5-0.5,2.2c-0.4,0.7-1.1,1.1-1.9,1.3c-0.7,0.2-1.4,0.1-1.9-0.3c-0.6-0.4-0.9-1-1-1.7
				C725.4,135.3,724.3,130.2,722.7,125z M727.3,203.4c0-0.3,0-0.5,0-0.7c0-0.6,0.2-1.2,0.5-1.7c0.4-0.7,1.1-1.1,2-1.2
				c1-0.1,1.9,0.1,2.7,0.7s1.3,1.3,1.5,2.3c1.4,5.7,2.3,11.3,2.7,16.7c0.1,1.1-0.2,2-0.9,2.7c-0.7,0.8-1.5,1.2-2.5,1.3
				c-0.9,0.2-1.7,0-2.4-0.7c-0.7-0.6-1.1-1.4-1.2-2.3C729.4,215.1,728.6,209.4,727.3,203.4z M740.8,202.6c-0.1-0.4-0.1-0.7-0.1-1.1
				c0-0.4,0.1-0.9,0.3-1.3c0.4-0.7,1-1.2,1.9-1.3c0.9-0.3,1.8-0.2,2.7,0.3c0.9,0.4,1.5,1.1,1.9,2c2.2,5.4,3.9,10.6,5.1,15.4
				c0.2,1,0,1.9-0.5,2.7c-0.5,0.8-1.3,1.4-2.3,1.5c-0.9,0.2-1.7,0-2.5-0.5s-1.3-1.3-1.5-2.3C744.6,213.3,743,208.2,740.8,202.6z
				 M756.4,148.7c0.7,0,1.1-0.4,1.1-1.1v-30.8c0-0.7-0.4-1.1-1.1-1.1h-13.6c-0.7,0-1.1,0.4-1.1,1.1v30.8c0,0.7,0.4,1.1,1.1,1.1
				H756.4z M749.2,142c-0.3,0.6-0.7,1.1-1.3,1.3c-0.6,0.3-1.2,0.3-1.9,0.1c-0.6-0.2-1.1-0.6-1.3-1.3c-0.3-0.6-0.3-1.2-0.1-1.9
				c1.7-5.4,3.2-10.8,4.5-16.5c0.2-0.8,0.6-1.4,1.3-1.8c0.7-0.4,1.5-0.5,2.3-0.2c0.8,0.4,1.4,0.9,1.8,1.7c0.4,0.8,0.5,1.6,0.2,2.4
				C751.6,135.4,749.7,140.7,749.2,142z M754.4,200.4c-0.3-0.4-0.4-0.9-0.4-1.5c0-0.3,0-0.5,0.1-0.8c0.3-0.9,0.8-1.5,1.6-1.7
				c0.9-0.4,1.8-0.5,2.8-0.3c1,0.3,1.7,0.8,2.3,1.7c3.4,4.8,6.2,9.5,8.3,14.2c0.4,1,0.5,1.9,0.1,2.9c-0.4,0.9-1,1.6-1.9,2.1
				c-1,0.4-1.9,0.4-2.9,0c-0.9-0.4-1.6-1-1.9-2C760.4,210.3,757.7,205.4,754.4,200.4z M830.7,134.4c0.9,0.9,1.4,2.1,1.4,3.4
				s-0.5,2.5-1.4,3.4c-0.9,0.9-2.1,1.4-3.4,1.4h-23.4c-0.6,0-0.9,0.3-0.9,0.9V167c0,0.6,0.3,0.9,0.9,0.9h14.9c2.1,0,4,0.8,5.6,2.3
				c1.6,1.6,2.3,3.4,2.3,5.6v47.1c0,1.3-0.5,2.5-1.4,3.4c-0.9,0.9-2.1,1.4-3.4,1.4s-2.5-0.5-3.4-1.4c-0.9-0.9-1.4-2.1-1.4-3.4v-0.4
				c0-0.4-0.2-0.7-0.7-0.7h-33c-0.5,0-0.8,0.2-0.8,0.7v1.1c0,1.2-0.4,2.3-1.3,3.3c-0.9,0.9-2,1.4-3.3,1.4c-1.3,0-2.4-0.5-3.3-1.4
				c-0.9-0.9-1.3-2-1.3-3.3v-47.8c0-2.1,0.8-4,2.3-5.6c1.5-1.6,3.4-2.3,5.6-2.3H792c0.6,0,0.9-0.3,0.9-0.9v-58.5
				c0-1.3,0.5-2.5,1.5-3.5c1-1,2.2-1.5,3.5-1.5c1.4,0,2.6,0.5,3.5,1.5c1,1,1.5,2.1,1.5,3.5v23.5c0,0.6,0.3,0.9,0.9,0.9h23.4
				C828.7,133,829.8,133.5,830.7,134.4z M816.1,212.6c0.6,0,0.9-0.3,0.9-0.9v-33.3c0-0.6-0.3-0.9-0.9-0.9h-32.5
				c-0.7,0-1.1,0.3-1.1,0.9v33.3c0,0.6,0.4,0.9,1.1,0.9H816.1z"/>
		</g>
	</g>
	<g id="XMLID_84_">
		<path id="XMLID_85_" class="st2" d="M407,72.1c-0.6,0-1-0.2-1.4-0.6c-0.4-0.4-0.6-0.8-0.6-1.4c0-1.3,0.5-2.3,1.5-3.2
			c7.8-6.9,13.6-13,17.2-18.3c3.7-5.2,5.5-10.1,5.5-14.5c0-3.1-0.8-5.7-2.5-7.6c-1.7-1.9-4.1-2.8-7.2-2.8s-6.2,1.4-9.1,4.1
			c-0.5,0.5-1.1,0.8-1.9,0.8c-0.7,0-1.3-0.2-1.9-0.7c-0.5-0.5-0.8-1.1-0.8-1.9c0-0.7,0.2-1.3,0.8-1.9c4.1-3.9,8.7-5.9,13.6-5.9
			c4.7,0,8.4,1.4,11.2,4.3c2.8,2.8,4.1,6.6,4.1,11.4c0,4.9-1.7,10-5.2,15.3c-3.5,5.3-8.5,11.1-15,17.3c-0.1,0-0.1,0.1-0.1,0.2
			c0,0.1,0.1,0.1,0.2,0.1c3.8-0.3,6.5-0.5,8.1-0.5h11.8c0.7,0,1.4,0.3,2,0.8s0.8,1.2,0.8,2s-0.3,1.4-0.8,2s-1.2,0.8-2,0.8H407z"/>
		<path id="XMLID_87_" class="st2" d="M469.1,73c-5.2,0-9.2-2.3-12.1-7c-2.9-4.7-4.4-11.5-4.4-20.5c0-9,1.5-15.7,4.4-20.3
			c2.9-4.6,7-6.9,12.2-6.9c5.1,0,9.1,2.3,12,6.9c2.9,4.6,4.4,11.4,4.4,20.3c0,9-1.5,15.8-4.4,20.5C478.2,70.7,474.2,73,469.1,73z
			 M469.1,67.8c3.1,0,5.5-1.8,7.3-5.5c1.8-3.7,2.7-9.3,2.7-16.8c0-7.4-0.9-12.9-2.7-16.5c-1.8-3.6-4.2-5.4-7.3-5.4
			c-3.2,0-5.7,1.8-7.5,5.4c-1.8,3.6-2.7,9.1-2.7,16.5c0,7.5,0.9,13.1,2.7,16.8C463.4,66,465.9,67.8,469.1,67.8z"/>
		<path id="XMLID_90_" class="st2" d="M505.3,72.1c-0.8,0-1.4-0.3-1.9-0.8c-0.5-0.5-0.8-1.2-0.8-1.9c0-0.7,0.3-1.4,0.8-1.9
			c0.5-0.5,1.2-0.8,1.9-0.8h8.5c0.3,0,0.5-0.2,0.5-0.5V27.8c0-0.4-0.2-0.6-0.5-0.6H507c-0.6,0-1.1-0.2-1.5-0.6
			c-0.4-0.4-0.6-0.9-0.6-1.5c0-0.6,0.2-1.1,0.6-1.5c0.4-0.5,0.9-0.8,1.5-0.9c2.5-0.6,4.7-1.3,6.7-2.2c1.7-0.8,3.3-1.2,4.7-1.2
			c0.7,0,1.3,0.2,1.8,0.7s0.7,1.1,0.7,1.8v44.3c0,0.3,0.2,0.5,0.6,0.5h7.3c0.7,0,1.4,0.3,1.9,0.8c0.5,0.5,0.8,1.2,0.8,1.9
			c0,0.8-0.3,1.4-0.8,1.9c-0.5,0.5-1.2,0.8-1.9,0.8H505.3z"/>
		<path id="XMLID_92_" class="st2" d="M562.1,73c-5.7,0-10.6-1.7-14.8-5.1c-0.7-0.6-1-1.3-1-2.2c0-0.7,0.2-1.3,0.6-1.8
			c0.4-0.6,1-0.9,1.7-0.9c0.7,0,1.3,0.2,1.9,0.6c3.2,2.6,6.9,3.9,11,3.9c3.2,0,5.9-1.1,8-3.4c2.2-2.3,3.2-5.3,3.2-9
			c0-3.8-1-6.7-3-8.8c-2-2.1-4.7-3.2-8-3.2c-2.4,0-4.7,0.7-7,2c-0.6,0.3-1.2,0.5-1.8,0.5c-0.6,0-1.1-0.2-1.7-0.5
			c-1.2-0.7-1.7-1.8-1.6-3.2l1.3-18.5c0-1.2,0.5-2.2,1.4-3c0.9-0.8,1.9-1.2,3.1-1.2h18.7c0.8,0,1.5,0.3,2,0.8c0.5,0.6,0.8,1.2,0.8,2
			s-0.3,1.4-0.8,2c-0.5,0.5-1.2,0.8-2,0.8h-16.6c-0.3,0-0.5,0.2-0.6,0.6l-1.2,14.2c0,0.1,0,0.2,0.1,0.2c0.1,0.1,0.2,0.1,0.3,0
			c2.3-1.2,4.8-1.8,7.4-1.8c4.6,0,8.4,1.4,11.4,4.2c3,2.8,4.5,7,4.5,12.5c0,3.8-0.8,7-2.5,9.8c-1.7,2.8-3.8,4.9-6.4,6.3
			C568,72.3,565.1,73,562.1,73z"/>
		<path id="XMLID_94_" class="st2" d="M637.2,24.8c-0.5-0.5-0.8-1-0.7-1.7c0-0.7,0.3-1.2,0.9-1.5c0.6-0.4,1.3-0.6,2-0.6
			c0.7,0,1.4,0.3,2,0.8c6.7,5.6,12,10.9,15.8,16c0.4,0.5,0.6,1.1,0.6,1.7c0,0.2,0,0.4,0,0.6c-0.1,0.8-0.5,1.4-1.2,1.9
			c-0.5,0.4-1,0.6-1.6,0.6c-0.1,0-0.3,0-0.5,0c-0.8-0.1-1.4-0.5-1.8-1.2c-0.8-1.2-1.9-2.6-3.2-4.1c-0.2-0.3-0.5-0.4-0.8-0.4
			c-5.9,0.3-22.6,1.1-50.3,2.2c-0.8,0-1.4-0.2-2-0.6c-0.6-0.6-0.9-1.3-0.9-2.1c0-0.6,0.2-1.2,0.7-1.7c0.5-0.5,1.1-0.8,1.8-0.8
			c1.1,0,3.7-0.1,7.6-0.3c0.3,0,0.6-0.1,0.8-0.4c4-6,7.5-12.3,10.4-18.6c0.4-0.8,1-1.4,1.8-1.7c0.5-0.2,0.9-0.4,1.4-0.4
			c0.3,0,0.7,0.1,1.1,0.2c0.8,0.3,1.3,0.8,1.6,1.5c0.1,0.3,0.2,0.7,0.2,1c0,0.4-0.1,0.8-0.4,1.3c-3.2,6-6.5,11.5-9.8,16.4
			c-0.1,0.1-0.1,0.2-0.1,0.3c0,0.1,0.1,0.1,0.3,0.1c6.9-0.3,17.4-0.7,31.3-1.3c0.1,0,0.2,0,0.2-0.1c0-0.1,0-0.2,0-0.3
			C641.9,29.1,639.6,26.9,637.2,24.8z M608.3,76.8c-0.5,0.5-1.1,0.8-1.9,0.8c-0.8,0-1.4-0.3-1.9-0.8c-0.5-0.5-0.8-1.2-0.8-1.9V51.3
			c0-1.2,0.4-2.2,1.2-3c0.8-0.8,1.8-1.2,2.9-1.2h37.3c1.1,0,2.1,0.4,2.9,1.2c0.8,0.8,1.2,1.8,1.2,3v23.3c0,0.8-0.3,1.5-0.8,2
			s-1.2,0.8-2,0.8h-0.1c-0.8,0-1.4-0.3-1.9-0.8c-0.5-0.5-0.8-1.2-0.8-1.9c0-0.2-0.1-0.4-0.4-0.4h-33.8c-0.2,0-0.4,0.1-0.4,0.4v0.1
			C609.1,75.6,608.8,76.2,608.3,76.8z M643.6,52.7c0-0.4-0.2-0.6-0.6-0.6h-33.4c-0.4,0-0.6,0.2-0.6,0.6v16.1c0,0.3,0.2,0.5,0.6,0.5
			h33.4c0.4,0,0.6-0.2,0.6-0.5V52.7z"/>
		<path id="XMLID_98_" class="st2" d="M692.4,30c0.4,0,0.6-0.2,0.6-0.6V15.9c0-0.7,0.3-1.4,0.8-1.9c0.5-0.5,1.1-0.8,1.9-0.8
			c0.7,0,1.4,0.3,1.9,0.8c0.5,0.5,0.8,1.2,0.8,1.9v58.3c0,0.7-0.3,1.4-0.8,1.9c-0.5,0.5-1.2,0.8-1.9,0.8c-0.8,0-1.4-0.3-1.9-0.8
			c-0.5-0.5-0.8-1.2-0.8-1.9V61.3c0-0.1-0.1-0.2-0.2-0.3c-0.1-0.1-0.2-0.1-0.3,0c-4.7,2.1-9.7,4.2-14.9,6.3
			c-0.4,0.2-0.8,0.3-1.2,0.3c-0.4,0-0.8-0.1-1.1-0.2c-0.8-0.3-1.4-0.9-1.7-1.6c-0.2-0.3-0.3-0.7-0.3-1.1c0-0.4,0.1-0.7,0.2-1.1
			c0.3-0.7,0.9-1.2,1.6-1.5c2.5-0.9,8.3-3.1,17.4-6.5c0.3-0.1,0.5-0.4,0.5-0.7V35.8c0-0.3-0.2-0.5-0.6-0.5h-15.3
			c-0.7,0-1.3-0.3-1.8-0.8c-0.5-0.5-0.8-1.1-0.8-1.9c0-0.7,0.3-1.3,0.8-1.9c0.5-0.5,1.1-0.8,1.8-0.8H692.4z M719.6,70.8h10.5
			c1.5,0,2.5-0.8,3-2.4c0.5-1.6,0.9-4.9,1.2-9.7c0-0.6,0.3-1.1,0.8-1.3s1.1-0.3,1.7,0c0.8,0.4,1.4,0.9,1.9,1.6
			c0.4,0.6,0.6,1.3,0.6,2c0,5.1-0.8,9-2.4,11.9c-1.2,2.1-3.4,3.2-6.5,3.2H719c-3.3,0-5.6-0.7-6.8-2c-1.2-1.3-1.8-3.9-1.8-7.8V16
			c0-0.7,0.3-1.4,0.8-1.9c0.5-0.5,1.1-0.8,1.9-0.8c0.7,0,1.4,0.3,1.9,0.8c0.5,0.5,0.8,1.2,0.8,1.9v20.5c0,0.1,0.1,0.2,0.2,0.2
			c0.1,0.1,0.2,0.1,0.3,0c6-3.7,11.1-7.2,15-10.5c0.6-0.5,1.2-0.8,2-0.8c0.1,0,0.2,0,0.2,0c0.8,0,1.5,0.4,2,1.1
			c0.5,0.5,0.7,1.1,0.7,1.8c0,1-0.4,1.8-1.1,2.3c-4.4,3.2-10.6,7.1-18.8,11.7c-0.3,0.2-0.5,0.5-0.5,0.8v23.1c0,1.9,0.2,3.1,0.7,3.7
			C717,70.5,718,70.8,719.6,70.8z"/>
		<path id="XMLID_101_" class="st2" d="M816.4,22.5c0.5,0.5,0.8,1.1,0.8,1.9c0,0.7-0.3,1.3-0.8,1.9c-0.5,0.5-1.1,0.8-1.9,0.8h-26.6
			c-0.3,0-0.5,0.2-0.5,0.5v8.7c0,0.3,0.2,0.5,0.5,0.5h18.5c1.1,0,2.1,0.4,2.9,1.2c0.8,0.8,1.2,1.8,1.2,2.9V62c0,1.5-0.2,2.7-0.7,3.6
			c-0.5,0.8-1.3,1.5-2.4,1.9c-1.7,0.7-5,1-9.8,1c-0.8,0-1.5-0.3-2.2-0.8c-0.7-0.5-1.1-1.1-1.4-1.9c-0.2-0.6-0.2-1.2,0.2-1.7
			c0.4-0.5,0.9-0.8,1.5-0.8c2.4,0,5,0.1,7.7,0.1c0.6,0,1-0.2,1.3-0.4c0.2-0.2,0.4-0.5,0.4-1V42.3c0-0.3-0.2-0.5-0.6-0.5h-16.5
			c-0.3,0-0.5,0.2-0.5,0.5V75c0,0.7-0.3,1.4-0.8,1.9c-0.5,0.5-1.2,0.8-1.9,0.8c-0.8,0-1.4-0.3-1.9-0.8c-0.5-0.5-0.8-1.2-0.8-1.9
			V42.3c0-0.3-0.2-0.5-0.5-0.5h-15.5c-0.3,0-0.5,0.2-0.5,0.5V66c0,0.8-0.3,1.4-0.8,1.9c-0.5,0.5-1.2,0.8-1.9,0.8
			c-0.7,0-1.3-0.3-1.9-0.8c-0.5-0.5-0.8-1.1-0.8-1.9V40.9c0-1.1,0.4-2.1,1.2-2.9c0.8-0.8,1.8-1.2,3-1.2h17.2c0.3,0,0.5-0.2,0.5-0.5
			v-8.7c0-0.3-0.2-0.5-0.5-0.5h-26c-0.8,0-1.4-0.3-1.9-0.8c-0.5-0.5-0.8-1.1-0.8-1.9c0-0.7,0.3-1.3,0.8-1.9c0.5-0.5,1.1-0.8,1.9-0.8
			h25.9c0.4,0,0.6-0.2,0.6-0.5v-6.9c0-0.8,0.3-1.5,0.8-2c0.5-0.5,1.2-0.8,2-0.8s1.4,0.3,2,0.8c0.6,0.5,0.8,1.2,0.8,2v6.9
			c0,0.3,0.2,0.5,0.5,0.5h26.5C815.2,21.7,815.8,22,816.4,22.5z"/>
	</g>
	<g id="XMLID_65_">
		<path id="XMLID_66_" d="M405.4,70.1c-0.6,0-1-0.2-1.4-0.6c-0.4-0.4-0.6-0.8-0.6-1.4c0-1.3,0.5-2.3,1.5-3.2
			c7.8-6.9,13.6-13,17.2-18.3c3.7-5.2,5.5-10.1,5.5-14.5c0-3.1-0.8-5.7-2.5-7.6c-1.7-1.9-4.1-2.8-7.2-2.8s-6.2,1.4-9.1,4.1
			c-0.5,0.5-1.1,0.8-1.9,0.8c-0.7,0-1.3-0.2-1.9-0.7c-0.5-0.5-0.8-1.1-0.8-1.9c0-0.7,0.2-1.3,0.8-1.9c4.1-3.9,8.7-5.9,13.6-5.9
			c4.7,0,8.4,1.4,11.2,4.3c2.8,2.8,4.1,6.6,4.1,11.4c0,4.9-1.7,10-5.2,15.3c-3.5,5.3-8.5,11.1-15,17.3c-0.1,0-0.1,0.1-0.1,0.2
			c0,0.1,0.1,0.1,0.2,0.1c3.8-0.3,6.5-0.5,8.1-0.5h11.8c0.7,0,1.4,0.3,2,0.8s0.8,1.2,0.8,2s-0.3,1.4-0.8,2s-1.2,0.8-2,0.8H405.4z"/>
		<path id="XMLID_68_" d="M467.4,71c-5.2,0-9.2-2.3-12.1-7c-2.9-4.7-4.4-11.5-4.4-20.5c0-9,1.5-15.7,4.4-20.3
			c2.9-4.6,7-6.9,12.2-6.9c5.1,0,9.1,2.3,12,6.9c2.9,4.6,4.4,11.4,4.4,20.3c0,9-1.5,15.8-4.4,20.5C476.5,68.7,472.5,71,467.4,71z
			 M467.4,65.8c3.1,0,5.5-1.8,7.3-5.5c1.8-3.7,2.7-9.3,2.7-16.8c0-7.4-0.9-12.9-2.7-16.5c-1.8-3.6-4.2-5.4-7.3-5.4
			c-3.2,0-5.7,1.8-7.5,5.4c-1.8,3.6-2.7,9.1-2.7,16.5c0,7.5,0.9,13.1,2.7,16.8C461.8,64,464.2,65.8,467.4,65.8z"/>
		<path id="XMLID_71_" d="M503.6,70.1c-0.8,0-1.4-0.3-1.9-0.8c-0.5-0.5-0.8-1.2-0.8-1.9c0-0.7,0.3-1.4,0.8-1.9
			c0.5-0.5,1.2-0.8,1.9-0.8h8.5c0.3,0,0.5-0.2,0.5-0.5V25.8c0-0.4-0.2-0.6-0.5-0.6h-6.8c-0.6,0-1.1-0.2-1.5-0.6
			c-0.4-0.4-0.6-0.9-0.6-1.5c0-0.6,0.2-1.1,0.6-1.5c0.4-0.5,0.9-0.8,1.5-0.9c2.5-0.6,4.7-1.3,6.7-2.2c1.7-0.8,3.3-1.2,4.7-1.2
			c0.7,0,1.3,0.2,1.8,0.7s0.7,1.1,0.7,1.8v44.3c0,0.3,0.2,0.5,0.6,0.5h7.3c0.7,0,1.4,0.3,1.9,0.8c0.5,0.5,0.8,1.2,0.8,1.9
			c0,0.8-0.3,1.4-0.8,1.9c-0.5,0.5-1.2,0.8-1.9,0.8H503.6z"/>
		<path id="XMLID_73_" d="M560.4,71c-5.7,0-10.6-1.7-14.8-5.1c-0.7-0.6-1-1.3-1-2.2c0-0.7,0.2-1.3,0.6-1.8s1-0.9,1.7-0.9
			c0.7,0,1.3,0.2,1.9,0.6c3.2,2.6,6.9,3.9,11,3.9c3.2,0,5.9-1.1,8-3.4c2.2-2.3,3.2-5.3,3.2-9c0-3.8-1-6.7-3-8.8
			c-2-2.1-4.7-3.2-8-3.2c-2.4,0-4.7,0.7-7,2c-0.6,0.3-1.2,0.5-1.8,0.5c-0.6,0-1.1-0.2-1.7-0.5c-1.2-0.7-1.7-1.8-1.6-3.2l1.3-18.5
			c0-1.2,0.5-2.2,1.4-3c0.9-0.8,1.9-1.2,3.1-1.2h18.7c0.8,0,1.5,0.3,2,0.8c0.5,0.6,0.8,1.2,0.8,2s-0.3,1.4-0.8,2
			c-0.5,0.5-1.2,0.8-2,0.8h-16.6c-0.3,0-0.5,0.2-0.6,0.6L554,37.7c0,0.1,0,0.2,0.1,0.2c0.1,0.1,0.2,0.1,0.3,0
			c2.3-1.2,4.8-1.8,7.4-1.8c4.6,0,8.4,1.4,11.4,4.2c3,2.8,4.5,7,4.5,12.5c0,3.8-0.8,7-2.5,9.8c-1.7,2.8-3.8,4.9-6.4,6.3
			C566.3,70.3,563.5,71,560.4,71z"/>
		<path id="XMLID_75_" d="M635.6,22.8c-0.5-0.5-0.8-1-0.7-1.7c0-0.7,0.3-1.2,0.9-1.5c0.6-0.4,1.3-0.6,2-0.6c0.7,0,1.4,0.3,2,0.8
			c6.7,5.6,12,10.9,15.8,16c0.4,0.5,0.6,1.1,0.6,1.7c0,0.2,0,0.4,0,0.6c-0.1,0.8-0.5,1.4-1.2,1.9c-0.5,0.4-1,0.6-1.6,0.6
			c-0.1,0-0.3,0-0.5,0c-0.8-0.1-1.4-0.5-1.8-1.2c-0.8-1.2-1.9-2.6-3.2-4.1c-0.2-0.3-0.5-0.4-0.8-0.4c-5.9,0.3-22.6,1.1-50.3,2.2
			c-0.8,0-1.4-0.2-2-0.6c-0.6-0.6-0.9-1.3-0.9-2.1c0-0.6,0.2-1.2,0.7-1.7c0.5-0.5,1.1-0.8,1.8-0.8c1.1,0,3.7-0.1,7.6-0.3
			c0.3,0,0.6-0.1,0.8-0.4c4-6,7.5-12.3,10.4-18.6c0.4-0.8,1-1.4,1.8-1.7c0.5-0.2,0.9-0.4,1.4-0.4c0.3,0,0.7,0.1,1.1,0.2
			c0.8,0.3,1.3,0.8,1.6,1.5c0.1,0.3,0.2,0.7,0.2,1c0,0.4-0.1,0.8-0.4,1.3c-3.2,6-6.5,11.5-9.8,16.4c-0.1,0.1-0.1,0.2-0.1,0.3
			c0,0.1,0.1,0.1,0.3,0.1c6.9-0.3,17.4-0.7,31.3-1.3c0.1,0,0.2,0,0.2-0.1c0-0.1,0-0.2,0-0.3C640.2,27.1,637.9,24.9,635.6,22.8z
			 M606.7,74.8c-0.5,0.5-1.1,0.8-1.9,0.8c-0.8,0-1.4-0.3-1.9-0.8c-0.5-0.5-0.8-1.2-0.8-1.9V49.3c0-1.2,0.4-2.2,1.2-3
			c0.8-0.8,1.8-1.2,2.9-1.2h37.3c1.1,0,2.1,0.4,2.9,1.2c0.8,0.8,1.2,1.8,1.2,3v23.3c0,0.8-0.3,1.5-0.8,2s-1.2,0.8-2,0.8h-0.1
			c-0.8,0-1.4-0.3-1.9-0.8c-0.5-0.5-0.8-1.2-0.8-1.9c0-0.2-0.1-0.4-0.4-0.4h-33.8c-0.2,0-0.4,0.1-0.4,0.4v0.1
			C607.4,73.6,607.2,74.2,606.7,74.8z M642,50.7c0-0.4-0.2-0.6-0.6-0.6H608c-0.4,0-0.6,0.2-0.6,0.6v16.1c0,0.3,0.2,0.5,0.6,0.5h33.4
			c0.4,0,0.6-0.2,0.6-0.5V50.7z"/>
		<path id="XMLID_79_" d="M690.8,28c0.4,0,0.6-0.2,0.6-0.6V13.9c0-0.7,0.3-1.4,0.8-1.9c0.5-0.5,1.1-0.8,1.9-0.8
			c0.7,0,1.4,0.3,1.9,0.8c0.5,0.5,0.8,1.2,0.8,1.9v58.3c0,0.7-0.3,1.4-0.8,1.9c-0.5,0.5-1.2,0.8-1.9,0.8c-0.8,0-1.4-0.3-1.9-0.8
			c-0.5-0.5-0.8-1.2-0.8-1.9V59.3c0-0.1-0.1-0.2-0.2-0.3c-0.1-0.1-0.2-0.1-0.3,0c-4.7,2.1-9.7,4.2-14.9,6.3
			c-0.4,0.2-0.8,0.3-1.2,0.3c-0.4,0-0.8-0.1-1.1-0.2c-0.8-0.3-1.4-0.9-1.7-1.6c-0.2-0.3-0.3-0.7-0.3-1.1c0-0.4,0.1-0.7,0.2-1.1
			c0.3-0.7,0.9-1.2,1.6-1.5c2.5-0.9,8.3-3.1,17.4-6.5c0.3-0.1,0.5-0.4,0.5-0.7V33.8c0-0.3-0.2-0.5-0.6-0.5h-15.3
			c-0.7,0-1.3-0.3-1.8-0.8c-0.5-0.5-0.8-1.1-0.8-1.9c0-0.7,0.3-1.3,0.8-1.9c0.5-0.5,1.1-0.8,1.8-0.8H690.8z M717.9,68.8h10.5
			c1.5,0,2.5-0.8,3-2.4c0.5-1.6,0.9-4.9,1.2-9.7c0-0.6,0.3-1.1,0.8-1.3s1.1-0.3,1.7,0c0.8,0.4,1.4,0.9,1.9,1.6
			c0.4,0.6,0.6,1.3,0.6,2c0,5.1-0.8,9-2.4,11.9c-1.2,2.1-3.4,3.2-6.5,3.2h-11.5c-3.3,0-5.6-0.7-6.8-2c-1.2-1.3-1.8-3.9-1.8-7.8V14
			c0-0.7,0.3-1.4,0.8-1.9c0.5-0.5,1.1-0.8,1.9-0.8c0.7,0,1.4,0.3,1.9,0.8c0.5,0.5,0.8,1.2,0.8,1.9v20.5c0,0.1,0.1,0.2,0.2,0.2
			c0.1,0.1,0.2,0.1,0.3,0c6-3.7,11.1-7.2,15-10.5c0.6-0.5,1.2-0.8,2-0.8c0.1,0,0.2,0,0.2,0c0.8,0,1.5,0.4,2,1.1
			c0.5,0.5,0.7,1.1,0.7,1.8c0,1-0.4,1.8-1.1,2.3c-4.4,3.2-10.6,7.1-18.8,11.7c-0.3,0.2-0.5,0.5-0.5,0.8v23.1c0,1.9,0.2,3.1,0.7,3.7
			C715.3,68.5,716.3,68.8,717.9,68.8z"/>
		<path id="XMLID_82_" d="M814.7,20.5c0.5,0.5,0.8,1.1,0.8,1.9c0,0.7-0.3,1.3-0.8,1.9c-0.5,0.5-1.1,0.8-1.9,0.8h-26.6
			c-0.3,0-0.5,0.2-0.5,0.5v8.7c0,0.3,0.2,0.5,0.5,0.5h18.5c1.1,0,2.1,0.4,2.9,1.2c0.8,0.8,1.2,1.8,1.2,2.9V60c0,1.5-0.2,2.7-0.7,3.6
			c-0.5,0.8-1.3,1.5-2.4,1.9c-1.7,0.7-5,1-9.8,1c-0.8,0-1.5-0.3-2.2-0.8c-0.7-0.5-1.1-1.1-1.4-1.9c-0.2-0.6-0.2-1.2,0.2-1.7
			c0.4-0.5,0.9-0.8,1.5-0.8c2.4,0,5,0.1,7.7,0.1c0.6,0,1-0.2,1.3-0.4c0.2-0.2,0.4-0.5,0.4-1V40.3c0-0.3-0.2-0.5-0.6-0.5h-16.5
			c-0.3,0-0.5,0.2-0.5,0.5V73c0,0.7-0.3,1.4-0.8,1.9c-0.5,0.5-1.2,0.8-1.9,0.8c-0.8,0-1.4-0.3-1.9-0.8c-0.5-0.5-0.8-1.2-0.8-1.9
			V40.3c0-0.3-0.2-0.5-0.5-0.5h-15.5c-0.3,0-0.5,0.2-0.5,0.5V64c0,0.8-0.3,1.4-0.8,1.9c-0.5,0.5-1.2,0.8-1.9,0.8
			c-0.7,0-1.3-0.3-1.9-0.8c-0.5-0.5-0.8-1.1-0.8-1.9V38.9c0-1.1,0.4-2.1,1.2-2.9c0.8-0.8,1.8-1.2,3-1.2h17.2c0.3,0,0.5-0.2,0.5-0.5
			v-8.7c0-0.3-0.2-0.5-0.5-0.5h-26c-0.8,0-1.4-0.3-1.9-0.8c-0.5-0.5-0.8-1.1-0.8-1.9c0-0.7,0.3-1.3,0.8-1.9c0.5-0.5,1.1-0.8,1.9-0.8
			h25.9c0.4,0,0.6-0.2,0.6-0.5v-6.9c0-0.8,0.3-1.5,0.8-2c0.5-0.5,1.2-0.8,2-0.8s1.4,0.3,2,0.8c0.6,0.5,0.8,1.2,0.8,2v6.9
			c0,0.3,0.2,0.5,0.5,0.5h26.5C813.6,19.7,814.2,20,814.7,20.5z"/>
	</g>
</g>
</svg>
