<?xml version="1.0" encoding="utf-8"?>
<!-- Generator: Adobe Illustrator 19.0.0, SVG Export Plug-In . SVG Version: 6.00 Build 0)  -->
<svg version="1.1" id="圖層_1" xmlns="http://www.w3.org/2000/svg" xmlns:xlink="http://www.w3.org/1999/xlink" x="0px" y="0px"
	 viewBox="0 0 200 200" style="enable-background:new 0 0 200 200;" xml:space="preserve">
<style type="text/css">
	.st0{opacity:0.71;}
	.st1{opacity:0.59;fill:#BCBCBC;}
	.st2{opacity:0.78;}
</style>
<g id="XMLID_296_" class="st0">
	<path id="XMLID_1307_" class="st1" d="M159.1,172.5H40.6c-6.6,0-12-5.4-12-12V38.6c0-6.6,5.4-12,12-12h118.5c6.6,0,12,5.4,12,12
		v121.9C171.1,167.1,165.7,172.5,159.1,172.5z"/>
	<g id="XMLID_900_" class="st2">
		<g id="XMLID_1304_" transform="translate(1 1)">
			<g id="XMLID_1305_">
				<g id="XMLID_1306_">
					<path id="XMLID_1310_" d="M58.9,49.9c0.4,0.4,0.8,0.6,1.3,0.6c0.6,0,1-0.2,1.3-0.6c0.8-0.8,0.8-1.9,0-2.7l-5.4-5.4
						c-0.3-0.6-0.9-0.9-1.7-0.9l0,0l0,0c-0.8,0-1.3,0.3-1.7,0.9l-5.4,5.4c-0.8,0.8-0.8,1.9,0,2.7c0.8,0.8,1.9,0.8,2.7,0l2.5-2.5
						v17.5l-2.5-2.5c-0.8-0.8-1.9-0.8-2.7,0c-0.8,0.8-0.8,1.9,0,2.7l5.4,5.4c0.3,0.6,0.9,0.9,1.7,0.9s1.3-0.3,1.7-0.9l5.4-5.4
						c0.8-0.8,0.8-1.9,0-2.7c-0.8-0.8-1.9-0.8-2.7,0l-2.5,2.5V47.4L58.9,49.9z"/>
					<path id="XMLID_1309_" d="M135.6,80.9c-1.7,0-3.4,0.6-4.8,1.7v-1.7c0-4.6-3.6-9.5-8.6-9.5c-1.7,0-3.4,0.6-4.8,1.7V50.5
						c0-4.6-3.6-9.5-8.6-9.5c-2.1,0-4,1-5.5,2.5c-1.5,1.3-2.5,3.2-2.9,5.1c-1.3-1.1-3-1.9-5-1.9c-5,0-8.6,5-8.6,9.5v34.7
						c-1.7-3.6-4-7.1-6.3-9.3c-3-3-9.1-3.2-12.6-0.4c-1,1-4.2,4.4,0.2,10.5c4,5.7,7.2,18.3,7.2,25.5c0,15.2,9.9,22.1,13.3,24v10.3
						c0,1.1,0.8,1.9,1.9,1.9s1.9-0.8,1.9-1.9V140c0-0.8-0.4-1.3-1.1-1.7c-0.6-0.2-12.2-5.7-12.2-21.2c0-7.1-3-21-8-27.8
						c-1.3-1.7-2.5-4-0.8-5.3c1.9-1.5,5.7-1.5,7.4,0.2c4.8,4.8,9,14.9,9,19.6c0,1.1,0.8,1.9,1.9,1.9s1.9-0.8,1.9-1.9V56.2
						c0-2.7,2.1-5.7,4.8-5.7c2.7,0,4.8,3,4.8,5.7v36.2c0,1.1,0.8,1.9,1.9,1.9s1.9-0.8,1.9-1.9V50.5c0-1.5,0.8-3.2,1.9-4.4
						c0.8-0.8,1.9-1.3,2.9-1.3c2.7,0,4.8,3,4.8,5.7v43.8c0,1.1,0.8,1.9,1.9,1.9s1.9-0.8,1.9-1.9V80.9c0-2.7,2.1-5.7,4.8-5.7
						s4.8,3,4.8,5.7v9.1c0,0.2,0,0.2,0,0.4v7.6c0,1.1,0.8,1.9,1.9,1.9c1.1,0,1.9-0.8,1.9-1.9v-8c0.2-2.5,2.3-5.3,4.8-5.3
						c2.7,0,4.8,3,4.8,5.7v26.7c0,14.5,0,14.5-5.3,21.7c-0.4,0.4-0.4,1-0.4,1.3v11.2c0,1.1,0.8,1.9,1.9,1.9c1.1,0,1.9-0.8,1.9-1.7
						v-10.9c5.7-7.8,5.7-8.6,5.7-23.6V90.5C144.1,85.9,140.5,80.9,135.6,80.9z"/>
				</g>
			</g>
		</g>
		<g id="XMLID_1303_">
		</g>
		<g id="XMLID_1298_">
		</g>
		<g id="XMLID_1297_">
		</g>
		<g id="XMLID_1296_">
		</g>
		<g id="XMLID_1295_">
		</g>
		<g id="XMLID_1294_">
		</g>
		<g id="XMLID_1293_">
		</g>
		<g id="XMLID_1292_">
		</g>
		<g id="XMLID_1291_">
		</g>
		<g id="XMLID_1290_">
		</g>
		<g id="XMLID_1289_">
		</g>
		<g id="XMLID_1288_">
		</g>
		<g id="XMLID_935_">
		</g>
		<g id="XMLID_933_">
		</g>
		<g id="XMLID_905_">
		</g>
	</g>
</g>
</svg>
