<?xml version="1.0" encoding="utf-8"?>
<!-- Generator: Adobe Illustrator 19.0.0, SVG Export Plug-In . SVG Version: 6.00 Build 0)  -->
<svg version="1.1" id="圖層_1" xmlns="http://www.w3.org/2000/svg" xmlns:xlink="http://www.w3.org/1999/xlink" x="0px" y="0px"
	 viewBox="0 0 182 73.9" style="enable-background:new 0 0 182 73.9;" xml:space="preserve">
<style type="text/css">
	.st0{fill:#B3B3B3;}
	.st1{fill:#A3242E;}
	.st2{fill:#FFFFFF;}
</style>
<g id="XMLID_1259_">
	<path id="XMLID_177_" class="st0" d="M164.3,66.8H20.7c-6.6,0-12-5.4-12-12V20c0-6.6,5.4-12,12-12h143.6c6.6,0,12,5.4,12,12v34.7
		C176.3,61.4,170.9,66.8,164.3,66.8z"/>
	<path id="XMLID_212_" class="st1" d="M163.1,64.8H19.5c-6.6,0-12-5.4-12-12V18c0-6.6,5.4-12,12-12h143.6c6.6,0,12,5.4,12,12v34.7
		C175.1,59.4,169.7,64.8,163.1,64.8z"/>
	<g id="XMLID_53_">
		<path id="XMLID_54_" class="st2" d="M33.2,43.8c-1.8,0-3.4-0.6-4.8-1.7c-0.2-0.2-0.3-0.4-0.3-0.7c0-0.2,0.1-0.4,0.2-0.6
			s0.4-0.3,0.6-0.3c0,0,0,0,0,0c0.2,0,0.4,0.1,0.6,0.2c1.1,0.9,2.3,1.3,3.6,1.3c1,0,1.8-0.2,2.4-0.7c0.6-0.5,0.9-1.1,0.9-1.8
			c0-0.3,0-0.6-0.1-0.8s-0.2-0.5-0.3-0.6s-0.3-0.3-0.6-0.5c-0.3-0.2-0.5-0.3-0.7-0.4s-0.5-0.2-0.8-0.4l-2.2-1
			c-2.1-0.9-3.1-2.2-3.1-3.9c0-1.2,0.5-2.2,1.4-2.9s2.1-1.2,3.5-1.2c1.5,0,2.8,0.5,3.9,1.4c0.2,0.1,0.3,0.3,0.3,0.6s0,0.4-0.2,0.6
			c-0.1,0.2-0.3,0.3-0.5,0.3c-0.2,0-0.4,0-0.6-0.2c-0.9-0.6-1.8-0.9-2.9-0.9c-0.9,0-1.6,0.2-2.1,0.6s-0.8,1-0.8,1.7
			c0,0.3,0.1,0.6,0.2,0.8s0.2,0.4,0.4,0.6c0.1,0.2,0.3,0.3,0.6,0.5s0.5,0.3,0.7,0.4s0.4,0.2,0.7,0.3l2.2,0.9c1,0.4,1.8,1,2.3,1.6
			s0.8,1.5,0.8,2.5c0,1.3-0.5,2.3-1.4,3.1C36,43.4,34.8,43.8,33.2,43.8z"/>
		<path id="XMLID_56_" class="st2" d="M47,43.8c-1.2,0-2-0.3-2.5-1c-0.5-0.7-0.7-1.6-0.7-2.8v-6.2c0-0.1-0.1-0.1-0.2-0.1h-0.8
			c-0.2,0-0.4-0.1-0.5-0.2C42.1,33.3,42,33.2,42,33c0-0.2,0.1-0.4,0.2-0.5s0.3-0.2,0.5-0.2l0.9-0.1c0.1,0,0.2-0.1,0.2-0.2l0.2-2.2
			c0-0.2,0.1-0.4,0.3-0.6s0.4-0.2,0.6-0.2c0.2,0,0.4,0.1,0.6,0.2s0.2,0.3,0.2,0.6V32c0,0.1,0,0.2,0.1,0.2h2.2c0.2,0,0.4,0.1,0.6,0.2
			s0.2,0.3,0.2,0.6s-0.1,0.4-0.2,0.6s-0.3,0.2-0.6,0.2h-2.2c-0.1,0-0.1,0-0.1,0.1v6.2c0,0.7,0.1,1.3,0.4,1.7
			c0.3,0.4,0.7,0.6,1.4,0.6c0.2,0,0.4,0,0.6-0.1c0.2,0,0.4,0,0.6,0.1s0.3,0.2,0.3,0.4c0,0.1,0,0.1,0,0.2c0,0.1,0,0.2-0.1,0.4
			c-0.1,0.2-0.2,0.3-0.5,0.3C47.8,43.7,47.4,43.8,47,43.8z"/>
		<path id="XMLID_58_" class="st2" d="M55,43.3c-0.2,0.2-0.4,0.3-0.7,0.3s-0.5-0.1-0.7-0.3c-0.2-0.2-0.3-0.4-0.3-0.7v-9.7
			c0-0.2,0.1-0.4,0.2-0.6c0.2-0.2,0.3-0.2,0.6-0.2s0.4,0.1,0.6,0.2s0.3,0.3,0.3,0.6l0.1,1.3c0,0,0,0,0,0c0,0,0,0,0.1,0
			c0.4-0.7,0.9-1.3,1.4-1.7c0.6-0.4,1.1-0.6,1.8-0.6c0.2,0,0.3,0,0.4,0c0.2,0,0.4,0.2,0.6,0.4c0.1,0.2,0.1,0.3,0.1,0.5
			c0,0.1,0,0.2,0,0.2c-0.1,0.2-0.2,0.4-0.4,0.5c-0.2,0.1-0.4,0.2-0.6,0.2c0,0-0.1,0-0.1,0c-0.1,0-0.2,0-0.3,0c-0.5,0-1,0.2-1.5,0.6
			s-0.9,1-1.3,1.9c0,0.1-0.1,0.2-0.1,0.3v6.2C55.3,42.9,55.2,43.1,55,43.3z"/>
		<path id="XMLID_60_" class="st2" d="M68,43.8c-1.6,0-2.9-0.5-3.9-1.6c-1-1.1-1.6-2.5-1.6-4.4c0-0.9,0.1-1.7,0.4-2.5
			s0.7-1.4,1.1-1.9c0.5-0.5,1-0.9,1.7-1.2c0.6-0.3,1.3-0.4,1.9-0.4c1.4,0,2.5,0.5,3.3,1.4c0.8,1,1.2,2.3,1.2,3.9
			c0,0.3-0.1,0.6-0.4,0.8c-0.3,0.2-0.6,0.3-0.9,0.3h-6.3c-0.1,0-0.2,0-0.1,0.1c0.1,1.2,0.5,2.1,1.1,2.8s1.6,1,2.6,1
			c0.8,0,1.5-0.2,2.2-0.6c0.2-0.1,0.3-0.1,0.5-0.1s0.3,0.2,0.4,0.3c0.1,0.2,0.1,0.4,0.1,0.6c0,0.2-0.2,0.3-0.3,0.4
			C70.2,43.5,69.1,43.8,68,43.8z M64.5,36.8c0,0.1,0,0.1,0.1,0.1h5.8c0.1,0,0.1,0,0.1-0.1c0-1.1-0.3-1.9-0.8-2.5
			c-0.5-0.6-1.2-0.9-2.1-0.9c-0.8,0-1.5,0.3-2.1,0.9C64.9,35,64.5,35.9,64.5,36.8z"/>
		<path id="XMLID_63_" class="st2" d="M81.8,43.8c-1.6,0-2.9-0.5-3.9-1.6c-1-1.1-1.6-2.5-1.6-4.4c0-0.9,0.1-1.7,0.4-2.5
			s0.7-1.4,1.1-1.9s1-0.9,1.7-1.2c0.6-0.3,1.3-0.4,1.9-0.4c1.4,0,2.5,0.5,3.3,1.4c0.8,1,1.2,2.3,1.2,3.9c0,0.3-0.1,0.6-0.4,0.8
			c-0.3,0.2-0.6,0.3-0.9,0.3h-6.3c-0.1,0-0.2,0-0.1,0.1c0.1,1.2,0.5,2.1,1.1,2.8s1.6,1,2.6,1c0.8,0,1.5-0.2,2.2-0.6
			c0.2-0.1,0.3-0.1,0.5-0.1s0.3,0.2,0.4,0.3c0.1,0.2,0.1,0.4,0.1,0.6c0,0.2-0.2,0.3-0.3,0.4C83.9,43.5,82.9,43.8,81.8,43.8z
			 M78.2,36.8c0,0.1,0,0.1,0.1,0.1h5.8c0.1,0,0.1,0,0.1-0.1c0-1.1-0.3-1.9-0.8-2.5s-1.2-0.9-2.1-0.9c-0.8,0-1.5,0.3-2.1,0.9
			C78.6,35,78.2,35.9,78.2,36.8z"/>
		<path id="XMLID_66_" class="st2" d="M94.2,43.8c-1.2,0-2-0.3-2.5-1C91.2,42.2,91,41.2,91,40v-6.2c0-0.1-0.1-0.1-0.2-0.1H90
			c-0.2,0-0.4-0.1-0.5-0.2c-0.1-0.1-0.2-0.3-0.2-0.5c0-0.2,0.1-0.4,0.2-0.5s0.3-0.2,0.5-0.2l0.9-0.1c0.1,0,0.2-0.1,0.2-0.2l0.2-2.2
			c0-0.2,0.1-0.4,0.3-0.6s0.4-0.2,0.6-0.2c0.2,0,0.4,0.1,0.6,0.2s0.2,0.3,0.2,0.6V32c0,0.1,0,0.2,0.1,0.2h2.2c0.2,0,0.4,0.1,0.6,0.2
			s0.2,0.3,0.2,0.6s-0.1,0.4-0.2,0.6s-0.3,0.2-0.6,0.2H93c-0.1,0-0.1,0-0.1,0.1v6.2c0,0.7,0.1,1.3,0.4,1.7c0.3,0.4,0.7,0.6,1.4,0.6
			c0.2,0,0.4,0,0.6-0.1c0.2,0,0.4,0,0.6,0.1s0.3,0.2,0.3,0.4c0,0.1,0,0.1,0,0.2c0,0.1,0,0.2-0.1,0.4c-0.1,0.2-0.2,0.3-0.5,0.3
			C95.1,43.7,94.6,43.8,94.2,43.8z"/>
		<path id="XMLID_68_" class="st2" d="M112.5,43.2c-0.3,0.2-0.6,0.3-0.9,0.3c-0.3,0-0.6-0.1-0.9-0.3s-0.5-0.5-0.6-0.8l-4.3-13.4
			c0-0.1,0-0.2,0-0.2c0-0.2,0-0.3,0.1-0.4c0.2-0.2,0.4-0.3,0.6-0.3c0.3,0,0.6,0.1,0.8,0.3c0.2,0.2,0.4,0.4,0.5,0.7l2.2,7.4
			c0.1,0.4,0.4,1.2,0.7,2.3c0.3,1.1,0.6,2,0.8,2.7c0,0,0,0,0.1,0s0,0,0.1,0c0.2-0.7,0.5-1.5,0.8-2.6s0.5-1.9,0.7-2.4l2.2-7.4
			c0.1-0.3,0.2-0.5,0.5-0.7s0.5-0.3,0.8-0.3c0.2,0,0.4,0.1,0.6,0.3c0.1,0.1,0.1,0.3,0.1,0.4c0,0.1,0,0.1,0,0.2L113,42.5
			C112.9,42.8,112.7,43,112.5,43.2z"/>
		<path id="XMLID_70_" class="st2" d="M123.4,29.4c-0.3,0.2-0.6,0.3-0.9,0.3c-0.4,0-0.7-0.1-0.9-0.3c-0.3-0.2-0.4-0.5-0.4-0.9
			c0-0.4,0.1-0.7,0.4-0.9c0.2-0.2,0.6-0.3,1-0.3c0.4,0,0.7,0.1,1,0.3c0.2,0.2,0.4,0.5,0.4,0.9C123.8,28.9,123.7,29.2,123.4,29.4z
			 M123.1,43.3c-0.2,0.2-0.4,0.3-0.7,0.3s-0.5-0.1-0.7-0.3c-0.2-0.2-0.3-0.4-0.3-0.7v-9.5c0-0.3,0.1-0.5,0.3-0.7
			c0.2-0.2,0.4-0.3,0.7-0.3s0.5,0.1,0.7,0.3c0.2,0.2,0.3,0.4,0.3,0.7v9.5C123.4,42.9,123.3,43.1,123.1,43.3z"/>
		<path id="XMLID_73_" class="st2" d="M134,43.8c-1.6,0-2.9-0.5-3.9-1.6c-1-1.1-1.6-2.5-1.6-4.4c0-0.9,0.1-1.7,0.4-2.5
			s0.7-1.4,1.1-1.9s1-0.9,1.7-1.2c0.6-0.3,1.3-0.4,1.9-0.4c1.4,0,2.5,0.5,3.3,1.4c0.8,1,1.2,2.3,1.2,3.9c0,0.3-0.1,0.6-0.4,0.8
			c-0.3,0.2-0.6,0.3-0.9,0.3h-6.3c-0.1,0-0.2,0-0.1,0.1c0.1,1.2,0.5,2.1,1.1,2.8s1.6,1,2.6,1c0.8,0,1.5-0.2,2.2-0.6
			c0.2-0.1,0.3-0.1,0.5-0.1s0.3,0.2,0.4,0.3c0.1,0.2,0.1,0.4,0.1,0.6c0,0.2-0.2,0.3-0.3,0.4C136.1,43.5,135.1,43.8,134,43.8z
			 M130.4,36.8c0,0.1,0,0.1,0.1,0.1h5.8c0.1,0,0.1,0,0.1-0.1c0-1.1-0.3-1.9-0.8-2.5s-1.2-0.9-2.1-0.9c-0.8,0-1.5,0.3-2.1,0.9
			C130.8,35,130.4,35.9,130.4,36.8z"/>
		<path id="XMLID_76_" class="st2" d="M147,43.2c-0.3,0.2-0.6,0.3-0.9,0.3s-0.6-0.1-0.9-0.3c-0.3-0.2-0.4-0.5-0.5-0.8l-2.6-9.4
			c0-0.1,0-0.1,0-0.2c0-0.2,0-0.3,0.1-0.4c0.2-0.2,0.3-0.3,0.6-0.3c0.3,0,0.5,0.1,0.8,0.3s0.4,0.4,0.5,0.7l1.5,5.7
			c0.4,2,0.6,3,0.7,3.1c0,0,0,0,0.1,0c0,0,0.1,0,0.1,0c0.4-1.6,0.6-2.7,0.8-3.1l1.5-5.7c0.1-0.3,0.2-0.5,0.4-0.6
			c0.2-0.2,0.5-0.3,0.7-0.3s0.5,0.1,0.7,0.3c0.2,0.2,0.4,0.4,0.5,0.6l1.5,5.7c0.1,0.2,0.1,0.6,0.2,1c0.1,0.4,0.2,0.8,0.3,1.2
			s0.2,0.7,0.2,1c0,0,0,0,0.1,0s0,0,0,0c0.1-0.4,0.2-0.9,0.4-1.6s0.3-1.2,0.3-1.5l1.5-5.7c0.1-0.3,0.2-0.5,0.4-0.6s0.5-0.2,0.7-0.2
			c0.2,0,0.4,0.1,0.5,0.3c0.1,0.1,0.1,0.3,0.1,0.4c0,0.1,0,0.1,0,0.2l-2.5,9.4c-0.1,0.3-0.3,0.6-0.5,0.8c-0.3,0.2-0.6,0.3-0.9,0.3
			s-0.6-0.1-0.9-0.3s-0.5-0.5-0.5-0.8l-1.4-5c0-0.1-0.3-1.2-0.8-3.2c0,0,0-0.1-0.1-0.1s-0.1,0-0.1,0.1c-0.3,1.5-0.6,2.6-0.8,3.3
			l-1.3,5C147.5,42.8,147.3,43,147,43.2z"/>
	</g>
</g>
</svg>
