<?xml version="1.0" encoding="utf-8"?>
<!-- Generator: Adobe Illustrator 19.0.0, SVG Export Plug-In . SVG Version: 6.00 Build 0)  -->
<svg version="1.1" id="圖層_1" xmlns="http://www.w3.org/2000/svg" xmlns:xlink="http://www.w3.org/1999/xlink" x="0px" y="0px"
	 viewBox="0 0 731.1 561.1" style="enable-background:new 0 0 731.1 561.1;" xml:space="preserve">
<style type="text/css">
	.st0{fill:#FFD16F;stroke:#1A1A1A;stroke-width:5;stroke-linecap:round;stroke-linejoin:round;stroke-miterlimit:10;}
	.st1{fill:#4D4D4D;stroke:#1A1A1A;stroke-width:5;stroke-linecap:round;stroke-linejoin:round;stroke-miterlimit:10;}
	.st2{fill:#0071BC;stroke:#1A1A1A;stroke-width:5;stroke-linecap:round;stroke-linejoin:round;stroke-miterlimit:10;}
	.st3{fill:none;stroke:#1A1A1A;stroke-width:5;stroke-linecap:round;stroke-linejoin:round;stroke-miterlimit:10;}
	.st4{fill:#FFFFFF;}
</style>
<g id="XMLID_400_">
	<g id="XMLID_160_">
		<path id="XMLID_595_" class="st0" d="M187.3,408.1c0,0,49.1,142.3,218,140.5c80.9,1.8,238.3-53.9,238.3-237.8
			c0,0,8.5-224.3-239.5-237.8v238.2L187.3,408.1z"/>
		<path id="XMLID_608_" class="st1" d="M349,314.5L174.8,152.1c0,0-108.8,97-43.4,259.3L349,314.5z"/>
		<path id="XMLID_610_" class="st2" d="M361,297.2l-4.2-238.1c0,0-89.4-7.9-170,75.7L361,297.2z"/>
		<path id="XMLID_611_" class="st3" d="M387.1,291.3V53c0,0,1.2-1.3-3.9,0.1L387.1,291.3z"/>
	</g>
	<g id="XMLID_622_">
		<path id="XMLID_623_" d="M652.8,412.5c0.6,0,1,0.2,1.5,0.6s0.6,0.9,0.6,1.5v19.2c0,0.6-0.2,1.1-0.6,1.5s-0.9,0.6-1.5,0.6h-4.4
			c-0.2,0-0.3,0.1-0.3,0.3v1.5c0,0.3-0.1,0.6-0.3,0.8s-0.5,0.3-0.8,0.3s-0.6-0.1-0.8-0.3s-0.3-0.5-0.3-0.8v-23
			c0-0.6,0.2-1.1,0.6-1.5s0.9-0.6,1.5-0.6H652.8z M652.6,415.1c0-0.2-0.1-0.3-0.2-0.3h-3.9c-0.2,0-0.3,0.1-0.3,0.3v7.5
			c0,0.2,0.1,0.3,0.3,0.3h3.9c0.2,0,0.2-0.1,0.2-0.3V415.1z M648.1,433.1c0,0.2,0.1,0.3,0.3,0.3h3.9c0.2,0,0.2-0.1,0.2-0.3v-7.7
			c0-0.2-0.1-0.3-0.2-0.3h-3.9c-0.2,0-0.3,0.1-0.3,0.3V433.1z M668.3,421.3c0,0.2,0.1,0.3,0.2,0.3h7.8c0.3,0,0.5,0.1,0.7,0.3
			s0.3,0.4,0.3,0.7s-0.1,0.5-0.3,0.7s-0.4,0.3-0.7,0.3h-18.8c-0.3,0-0.5-0.1-0.7-0.3s-0.3-0.4-0.3-0.7s0.1-0.5,0.3-0.7
			s0.4-0.3,0.7-0.3h7.9c0.2,0,0.2-0.1,0.2-0.3v-1.9c0-0.2-0.1-0.3-0.2-0.3h-6.1c-0.3,0-0.5-0.1-0.7-0.3s-0.3-0.4-0.3-0.7
			s0.1-0.5,0.3-0.7s0.4-0.3,0.7-0.3h6.1c0.2,0,0.2-0.1,0.2-0.3v-1.7c0-0.2-0.1-0.3-0.2-0.3h-6.9c-0.3,0-0.5-0.1-0.7-0.3
			s-0.3-0.4-0.3-0.7s0.1-0.5,0.3-0.7s0.4-0.3,0.7-0.3h6.9c0.2,0,0.2-0.1,0.2-0.3v-1.3c0-0.4,0.1-0.7,0.4-0.9s0.6-0.4,0.9-0.4
			s0.7,0.1,0.9,0.4s0.4,0.6,0.4,0.9v1.3c0,0.2,0.1,0.3,0.2,0.3h7.1c0.3,0,0.5,0.1,0.7,0.3s0.3,0.4,0.3,0.7s-0.1,0.5-0.3,0.7
			s-0.4,0.3-0.7,0.3h-7.1c-0.2,0-0.2,0.1-0.2,0.3v1.7c0,0.2,0.1,0.3,0.2,0.3h6.5c0.3,0,0.5,0.1,0.7,0.3s0.3,0.4,0.3,0.7
			s-0.1,0.5-0.3,0.7s-0.4,0.3-0.7,0.3h-6.5c-0.2,0-0.2,0.1-0.2,0.3V421.3z M673.1,425.8c0.6,0,1.1,0.2,1.5,0.6s0.6,0.9,0.6,1.5v12.3
			c0,0.7-0.1,1.2-0.3,1.5s-0.5,0.6-0.9,0.8c-0.6,0.2-1.8,0.4-3.5,0.4c-0.3,0-0.6-0.1-0.9-0.3s-0.5-0.5-0.6-0.8
			c-0.1-0.3-0.1-0.5,0.1-0.7s0.4-0.3,0.7-0.3c0.7,0,1.5,0,2.3,0c0.2,0,0.4,0,0.5-0.1s0.1-0.2,0.1-0.4v-2.8c0-0.2-0.1-0.2-0.3-0.2
			h-10.5c-0.2,0-0.3,0.1-0.3,0.2v4.3c0,0.4-0.1,0.7-0.4,0.9s-0.5,0.4-0.9,0.4s-0.6-0.1-0.9-0.4s-0.4-0.5-0.4-0.9v-13.7
			c0-0.6,0.2-1,0.6-1.5s0.9-0.6,1.5-0.6H673.1z M672.7,428.1c0-0.2-0.1-0.2-0.3-0.2h-10.5c-0.2,0-0.3,0.1-0.3,0.2v2.1
			c0,0.2,0.1,0.3,0.3,0.3h10.5c0.2,0,0.3-0.1,0.3-0.3V428.1z M661.6,434.8c0,0.2,0.1,0.3,0.3,0.3h10.5c0.2,0,0.3-0.1,0.3-0.3v-2.1
			c0-0.2-0.1-0.2-0.3-0.2h-10.5c-0.2,0-0.3,0.1-0.3,0.2V434.8z"/>
		<path id="XMLID_632_" d="M715,424.3c0.3,0.3,0.4,0.6,0.4,1s-0.1,0.7-0.4,1s-0.6,0.4-1,0.4h-11.2c-0.1,0-0.1,0-0.2,0.1s0,0.1,0,0.2
			c1.1,3.3,2.8,6.1,4.9,8.3s4.9,3.8,8.2,4.9c0.3,0.1,0.5,0.3,0.6,0.7c0,0.1,0,0.2,0,0.3c0,0.2-0.1,0.4-0.2,0.6
			c-0.3,0.4-0.6,0.6-1,0.8c-0.2,0.1-0.5,0.1-0.7,0.1s-0.4,0-0.6-0.1c-3.1-1.1-5.8-2.7-7.9-4.8s-3.8-4.8-5.1-7.9c0,0-0.1-0.1-0.1-0.1
			s-0.1,0-0.1,0.1c-0.8,2.7-2.3,5.1-4.4,7.2s-5.2,4-9.2,5.5c-0.2,0.1-0.4,0.1-0.5,0.1c-0.2,0-0.4,0-0.6-0.1
			c-0.4-0.1-0.7-0.4-0.9-0.7c-0.2-0.3-0.2-0.6-0.2-0.9s0.3-0.5,0.6-0.7c2.2-0.8,4.1-1.8,5.7-2.8s2.9-2.1,3.9-3.3s1.7-2.3,2.3-3.5
			s0.9-2.4,1.2-3.7c0-0.2,0-0.2-0.2-0.2h-11c-0.4,0-0.7-0.1-1-0.4s-0.4-0.6-0.4-1s0.1-0.7,0.4-1s0.6-0.4,1-0.4h11.2
			c0.2,0,0.3-0.1,0.3-0.2c0-0.4,0-1,0-1.8v-6.1c0-0.2-0.1-0.2-0.3-0.2h-12.4c-0.4,0-0.7-0.1-0.9-0.4s-0.4-0.6-0.4-1s0.1-0.7,0.4-1
			s0.6-0.4,0.9-0.4H715c0.4,0,0.7,0.1,0.9,0.4s0.4,0.6,0.4,1s-0.1,0.7-0.4,1s-0.6,0.4-0.9,0.4H702c-0.2,0-0.2,0.1-0.2,0.2v6.1
			c0,0.8,0,1.4,0,1.8c0,0.2,0.1,0.2,0.2,0.2h12.1C714.4,423.9,714.8,424,715,424.3z"/>
	</g>
	<g id="XMLID_592_">
		<path id="XMLID_593_" d="M21.3,253.2c0.1,0,0.2,0,0.2,0c0.2,0,0.3,0,0.5,0.1l0.5,0.3c0.3,0.1,0.4,0.4,0.5,0.6s0.1,0.6,0,0.8
			c-1.5,4.1-2.5,6.8-3.1,8.3c-0.1,0.2,0,0.3,0.1,0.4c2,2.3,3.1,4.9,3.1,7.5c0,2.1-0.5,3.5-1.4,4.1c-0.5,0.4-1.1,0.6-1.9,0.6
			c-0.4,0-0.8,0.1-1.2,0.1c-0.3,0-0.6-0.1-0.9-0.3s-0.5-0.5-0.5-0.9c-0.1-0.3,0-0.5,0.1-0.7s0.4-0.3,0.7-0.3c0.3,0,0.6,0,0.8,0
			c0.4,0,0.8-0.1,1.2-0.3c0.5-0.4,0.7-1.2,0.7-2.4c0-1.9-0.6-3.8-1.9-5.5c-0.5-0.8-0.8-1.5-0.8-2.3c0-0.4,0.1-0.8,0.2-1.2
			c0.6-1.8,1.3-3.8,2-6.1c0-0.1,0-0.1-0.1-0.2s-0.1-0.1-0.2-0.1h-4.2c-0.2,0-0.2,0.1-0.2,0.2v27.4c0,0.3-0.1,0.6-0.4,0.8
			s-0.5,0.4-0.8,0.4s-0.6-0.1-0.8-0.4s-0.4-0.5-0.4-0.8v-28.1c0-0.6,0.2-1,0.6-1.5s0.9-0.6,1.5-0.6h5.9
			C21.2,253.2,21.2,253.2,21.3,253.2z M31,252.8c0.5-0.7,1.1-1,1.9-1c0.8,0,1.4,0.3,1.9,0.9c1.2,1.4,2.5,2.6,4.1,3.8s3.1,2.2,4.8,3
			c0.3,0.1,0.5,0.4,0.6,0.7c0,0.1,0,0.2,0,0.3c0,0.2-0.1,0.4-0.2,0.6c-0.2,0.3-0.5,0.5-0.8,0.6s-0.7,0.1-1-0.1
			c-1.7-1-3.4-2.1-5.1-3.4s-3-2.7-4.1-4c-0.1-0.1-0.2-0.1-0.3,0c-1,1.4-2.3,2.7-3.9,4.1s-3.3,2.6-5.2,3.6c-0.3,0.2-0.6,0.2-0.9,0.1
			s-0.6-0.3-0.7-0.6c-0.2-0.3-0.2-0.6-0.1-0.9s0.3-0.5,0.5-0.7c1.7-0.9,3.3-2,4.8-3.2S30,254.1,31,252.8z M24.2,276
			c-0.3,0-0.5-0.1-0.7-0.3s-0.3-0.4-0.3-0.7s0.1-0.5,0.3-0.7s0.4-0.3,0.7-0.3h19c0.3,0,0.5,0.1,0.7,0.3s0.3,0.4,0.3,0.7
			s-0.1,0.5-0.3,0.7s-0.5,0.3-0.7,0.3H31.9c-0.2,0-0.3,0.1-0.4,0.2c-1.1,2-1.9,3.5-2.6,4.5c0,0,0,0.1,0,0.1S29,281,29,281
			c2-0.1,5.2-0.2,9.6-0.5c0,0,0.1-0.1,0.1-0.1s0-0.1,0-0.1c-0.6-0.7-1.2-1.5-1.9-2.2c-0.2-0.2-0.3-0.4-0.2-0.7s0.2-0.5,0.5-0.6
			c0.3-0.2,0.6-0.2,1-0.2s0.6,0.2,0.9,0.4c1.8,1.8,3.3,3.6,4.4,5.3c0.2,0.3,0.2,0.6,0.1,0.9s-0.3,0.6-0.6,0.8
			c-0.2,0.1-0.4,0.2-0.6,0.2c-0.1,0-0.2,0-0.4-0.1c-0.3-0.1-0.6-0.3-0.7-0.6c-0.2-0.2-0.3-0.5-0.5-0.7c-0.1-0.1-0.2-0.2-0.4-0.2
			c-5.3,0.4-10.7,0.7-16.1,1c-0.3,0-0.6-0.1-0.9-0.3s-0.4-0.5-0.5-0.8c0-0.1,0-0.1,0-0.2c0-0.2,0.1-0.4,0.2-0.6
			c0.2-0.2,0.5-0.4,0.8-0.4c0.9,0,1.6-0.1,2.2-0.1c0.2,0,0.3-0.1,0.4-0.2c0.8-1.3,1.6-2.9,2.4-4.6c0,0,0-0.1,0-0.2s-0.1-0.1-0.1-0.1
			H24.2z M26.2,271.1c-0.3,0-0.5-0.1-0.7-0.3s-0.3-0.4-0.3-0.7s0.1-0.5,0.3-0.7s0.4-0.3,0.7-0.3h10.3v0c-0.2-0.1-0.3-0.2-0.4-0.4
			s-0.1-0.4,0-0.5c0.4-0.8,0.8-1.6,1.1-2.2c0,0,0-0.1,0-0.2s-0.1-0.1-0.1-0.1H25.9c-0.3,0-0.5-0.1-0.7-0.3s-0.3-0.4-0.3-0.7
			s0.1-0.5,0.3-0.7s0.4-0.3,0.7-0.3h12.4c0,0,0.1,0,0.1,0c0.3-0.1,0.5-0.1,0.8,0l0.5,0.1c0.2,0.1,0.4,0.3,0.5,0.5s0.1,0.5,0,0.7
			c-0.6,1.4-1.2,2.7-1.8,3.9c0,0,0,0.1,0,0.2s0.1,0.1,0.1,0.1h2.4c0.3,0,0.5,0.1,0.7,0.3s0.3,0.4,0.3,0.7s-0.1,0.5-0.3,0.7
			s-0.4,0.3-0.7,0.3H26.2z M37.5,259.3c0.3,0,0.5,0.1,0.7,0.3s0.3,0.4,0.3,0.7s-0.1,0.5-0.3,0.7s-0.4,0.3-0.7,0.3h-8.7
			c-0.3,0-0.5-0.1-0.7-0.3s-0.3-0.4-0.3-0.7s0.1-0.5,0.3-0.7s0.4-0.3,0.7-0.3H37.5z"/>
		<path id="XMLID_620_" d="M82.1,265.9c0.3,0.3,0.4,0.6,0.4,1s-0.1,0.7-0.4,1s-0.6,0.4-1,0.4H70c-0.1,0-0.1,0-0.2,0.1s0,0.1,0,0.2
			c1.1,3.3,2.8,6.1,4.9,8.3s4.9,3.8,8.2,4.9c0.3,0.1,0.5,0.3,0.6,0.7c0,0.1,0,0.2,0,0.3c0,0.2-0.1,0.4-0.2,0.6
			c-0.3,0.4-0.6,0.6-1,0.8c-0.2,0.1-0.5,0.1-0.7,0.1s-0.4,0-0.6-0.1c-3.1-1.1-5.8-2.7-7.9-4.8s-3.8-4.8-5.1-7.9c0,0-0.1-0.1-0.1-0.1
			s-0.1,0-0.1,0.1c-0.8,2.7-2.3,5.1-4.4,7.2s-5.2,4-9.2,5.5c-0.2,0.1-0.4,0.1-0.5,0.1c-0.2,0-0.4,0-0.6-0.1
			c-0.4-0.1-0.7-0.4-0.9-0.7c-0.2-0.3-0.2-0.6-0.2-0.9s0.3-0.5,0.6-0.7c2.2-0.8,4.1-1.8,5.7-2.8s2.9-2.1,3.9-3.3s1.7-2.3,2.3-3.5
			s0.9-2.4,1.2-3.7c0-0.2,0-0.2-0.2-0.2h-11c-0.4,0-0.7-0.1-1-0.4s-0.4-0.6-0.4-1s0.1-0.7,0.4-1s0.6-0.4,1-0.4h11.2
			c0.2,0,0.3-0.1,0.3-0.2c0-0.4,0-1,0-1.8v-6.1c0-0.2-0.1-0.2-0.3-0.2H53.4c-0.4,0-0.7-0.1-0.9-0.4s-0.4-0.6-0.4-1s0.1-0.7,0.4-1
			s0.6-0.4,0.9-0.4h28.7c0.4,0,0.7,0.1,0.9,0.4s0.4,0.6,0.4,1s-0.1,0.7-0.4,1s-0.6,0.4-0.9,0.4H69.1c-0.2,0-0.2,0.1-0.2,0.2v6.1
			c0,0.8,0,1.4,0,1.8c0,0.2,0.1,0.2,0.2,0.2h12.1C81.5,265.5,81.9,265.7,82.1,265.9z"/>
	</g>
	<g id="XMLID_581_">
		<path id="XMLID_582_" d="M217.3,38.4c0.3,0.3,0.4,0.6,0.4,0.9s-0.1,0.7-0.4,0.9s-0.6,0.4-0.9,0.4h-13.2c-0.2,0-0.3,0.1-0.3,0.2
			v4.2c0,0.2,0.1,0.3,0.3,0.3H214c0.6,0,1,0.2,1.5,0.6s0.6,0.9,0.6,1.5v17.8c0,0.8-0.1,1.4-0.3,1.8s-0.6,0.7-1.2,0.9
			c-0.8,0.3-2.3,0.4-4.7,0.5c-0.4,0-0.7-0.1-1-0.4s-0.5-0.5-0.7-0.9c-0.1-0.3-0.1-0.5,0.1-0.8s0.4-0.4,0.7-0.4c0.9,0,2.1,0,3.7,0
			c0.3,0,0.5-0.1,0.6-0.2s0.2-0.3,0.2-0.6v-17c0-0.2-0.1-0.3-0.2-0.3h-10.1c-0.2,0-0.3,0.1-0.3,0.3v18.7c0,0.4-0.1,0.7-0.4,0.9
			s-0.6,0.4-0.9,0.4s-0.7-0.1-0.9-0.4s-0.4-0.6-0.4-0.9V48.2c0-0.2-0.1-0.3-0.2-0.3h-9.8c-0.2,0-0.2,0.1-0.2,0.3v19.1
			c0,0.4-0.1,0.7-0.4,0.9s-0.6,0.4-0.9,0.4s-0.7-0.1-0.9-0.4s-0.4-0.5-0.4-0.9V47.5c0-0.6,0.2-1,0.6-1.5s0.9-0.6,1.5-0.6H200
			c0.2,0,0.2-0.1,0.2-0.3v-4.2c0-0.2-0.1-0.2-0.2-0.2h-13c-0.4,0-0.7-0.1-0.9-0.4s-0.4-0.6-0.4-0.9s0.1-0.7,0.4-0.9s0.6-0.4,0.9-0.4
			h29.4C216.8,38,217.1,38.2,217.3,38.4z M192,59.1c-0.2-0.2-0.4-0.4-0.4-0.7s0.1-0.5,0.2-0.7c0.2-0.2,0.5-0.4,0.8-0.4
			s0.6,0,0.9,0.2c2,1.3,3.6,2.3,4.6,3.1c0.2,0.2,0.4,0.4,0.4,0.7s-0.1,0.6-0.3,0.8c-0.2,0.2-0.5,0.4-0.8,0.4s-0.6-0.1-0.9-0.2
			C195.4,61.4,193.9,60.4,192,59.1z M192.4,52.1c-0.2-0.1-0.4-0.3-0.4-0.6s0.1-0.5,0.3-0.7c0.2-0.2,0.5-0.3,0.8-0.4s0.6,0,0.9,0.2
			c1.6,0.9,3,1.8,4.4,2.7c0.3,0.2,0.4,0.4,0.4,0.7s-0.1,0.6-0.3,0.8s-0.5,0.4-0.8,0.4s-0.6-0.1-0.9-0.2
			C195.5,54.1,194.1,53.2,192.4,52.1z M211.1,60.6c0.3,0.2,0.4,0.4,0.4,0.7s-0.1,0.6-0.3,0.8c-0.2,0.3-0.5,0.4-0.8,0.4
			s-0.6-0.1-0.9-0.2c-1.3-0.9-2.9-2-4.9-3.2c-0.2-0.1-0.4-0.3-0.4-0.6s0.1-0.5,0.3-0.7s0.5-0.3,0.8-0.4s0.6,0,0.9,0.2
			C208.2,58.7,209.9,59.8,211.1,60.6z M211.3,53.3c0.3,0.2,0.4,0.4,0.5,0.7s0,0.6-0.2,0.8s-0.5,0.4-0.8,0.4s-0.6,0-0.9-0.2
			c-1.3-0.9-2.8-1.9-4.6-2.9c-0.2-0.1-0.4-0.3-0.4-0.6s0-0.5,0.2-0.7c0.2-0.2,0.5-0.3,0.8-0.4s0.6,0,0.9,0.2
			C208.6,51.6,210.1,52.5,211.3,53.3z"/>
		<path id="XMLID_588_" d="M255.7,50.9c0.3,0.3,0.4,0.6,0.4,1s-0.1,0.7-0.4,1s-0.6,0.4-1,0.4h-11.2c-0.1,0-0.1,0-0.2,0.1
			s0,0.1,0,0.2c1.1,3.3,2.8,6.1,4.9,8.3s4.9,3.8,8.2,4.9c0.3,0.1,0.5,0.3,0.6,0.7c0,0.1,0,0.2,0,0.3c0,0.2-0.1,0.4-0.2,0.6
			c-0.3,0.4-0.6,0.6-1,0.8c-0.2,0.1-0.5,0.1-0.7,0.1s-0.4,0-0.6-0.1c-3.1-1.1-5.8-2.7-7.9-4.8s-3.8-4.8-5.1-7.9c0,0-0.1-0.1-0.1-0.1
			s-0.1,0-0.1,0.1c-0.8,2.7-2.3,5.1-4.4,7.2s-5.2,4-9.2,5.5c-0.2,0.1-0.4,0.1-0.5,0.1c-0.2,0-0.4,0-0.6-0.1
			c-0.4-0.1-0.7-0.4-0.9-0.7c-0.2-0.3-0.2-0.6-0.2-0.9s0.3-0.5,0.6-0.7c2.2-0.8,4.1-1.8,5.7-2.8s2.9-2.1,3.9-3.3s1.7-2.3,2.3-3.5
			s0.9-2.4,1.2-3.7c0-0.2,0-0.2-0.2-0.2h-11c-0.4,0-0.7-0.1-1-0.4s-0.4-0.6-0.4-1s0.1-0.7,0.4-1s0.6-0.4,1-0.4h11.2
			c0.2,0,0.3-0.1,0.3-0.2c0-0.4,0-1,0-1.8v-6.1c0-0.2-0.1-0.2-0.3-0.2h-12.4c-0.4,0-0.7-0.1-0.9-0.4s-0.4-0.6-0.4-1s0.1-0.7,0.4-1
			s0.6-0.4,0.9-0.4h28.7c0.4,0,0.7,0.1,0.9,0.4s0.4,0.6,0.4,1s-0.1,0.7-0.4,1s-0.6,0.4-0.9,0.4h-12.9c-0.2,0-0.2,0.1-0.2,0.2v6.1
			c0,0.8,0,1.4,0,1.8c0,0.2,0.1,0.2,0.2,0.2h12.1C255.1,50.5,255.4,50.6,255.7,50.9z"/>
	</g>
	<g id="XMLID_570_">
		<path id="XMLID_571_" d="M437.1,35c0.4,0,0.7,0.1,0.9,0.4s0.4,0.5,0.4,0.9s-0.1,0.6-0.4,0.9s-0.5,0.4-0.9,0.4h-29.3
			c-0.4,0-0.7-0.1-0.9-0.4s-0.4-0.5-0.4-0.9s0.1-0.6,0.4-0.9s0.5-0.4,0.9-0.4h5.1c0.2,0,0.3-0.1,0.3-0.2V19.3c0-0.2-0.1-0.3-0.3-0.3
			h-4c-0.4,0-0.7-0.1-0.9-0.4s-0.4-0.5-0.4-0.9s0.1-0.6,0.4-0.9s0.5-0.4,0.9-0.4h4c0.2,0,0.3-0.1,0.3-0.3v-2.6
			c0-0.4,0.1-0.7,0.4-0.9s0.6-0.4,0.9-0.4s0.7,0.1,0.9,0.4s0.4,0.6,0.4,0.9v2.6c0,0.2,0.1,0.3,0.2,0.3h12.8c0.2,0,0.2-0.1,0.2-0.3
			v-2.5c0-0.4,0.1-0.7,0.4-0.9s0.6-0.4,0.9-0.4s0.7,0.1,0.9,0.4s0.4,0.6,0.4,0.9v2.5c0,0.2,0.1,0.3,0.3,0.3h4.2
			c0.4,0,0.7,0.1,0.9,0.4s0.4,0.5,0.4,0.9s-0.1,0.6-0.4,0.9s-0.5,0.4-0.9,0.4H432c-0.2,0-0.3,0.1-0.3,0.3v15.5
			c0,0.2,0.1,0.2,0.3,0.2H437.1z M416.3,38.9c0.4-0.2,0.8-0.4,1.2-0.4c0.4,0,0.8,0.1,1.2,0.4c0.3,0.2,0.4,0.5,0.4,0.8
			s-0.2,0.6-0.4,0.8c-2.6,1.5-5.8,2.9-9.4,4.1c-0.2,0.1-0.4,0.1-0.6,0.1c-0.2,0-0.3,0-0.5-0.1c-0.4-0.1-0.7-0.3-1-0.6
			c-0.1-0.2-0.2-0.4-0.2-0.6c0-0.1,0-0.2,0-0.2c0.1-0.3,0.3-0.5,0.6-0.6C410.9,41.6,413.8,40.3,416.3,38.9z M429.1,19.3
			c0-0.2-0.1-0.3-0.2-0.3H416c-0.2,0-0.2,0.1-0.2,0.3v3c0,0.2,0.1,0.3,0.2,0.3h12.8c0.2,0,0.2-0.1,0.2-0.3V19.3z M416,24.9
			c-0.2,0-0.2,0.1-0.2,0.3v3.3c0,0.2,0.1,0.3,0.2,0.3h12.8c0.2,0,0.2-0.1,0.2-0.3v-3.3c0-0.2-0.1-0.3-0.2-0.3H416z M416,31.1
			c-0.2,0-0.2,0.1-0.2,0.3v3.4c0,0.2,0.1,0.2,0.2,0.2h12.8c0.2,0,0.2-0.1,0.2-0.2v-3.4c0-0.2-0.1-0.3-0.2-0.3H416z M426.2,40.5
			c-0.3-0.1-0.4-0.3-0.5-0.6c0-0.1,0-0.1,0-0.2c0-0.2,0.1-0.4,0.2-0.6c0.4-0.4,0.9-0.6,1.3-0.6c0.2,0,0.5,0,0.7,0.1
			c3.4,1.2,6.4,2.5,9.1,3.9c0.4,0.2,0.5,0.4,0.5,0.8c0,0.3-0.1,0.6-0.4,0.7c-0.4,0.3-0.9,0.5-1.3,0.5c-0.4,0-0.8-0.1-1.2-0.3
			C432.3,43,429.4,41.7,426.2,40.5z"/>
		<path id="XMLID_578_" d="M453.3,13.6c0.1-0.3,0.4-0.6,0.7-0.7s0.7-0.2,1-0.1c0.3,0.1,0.6,0.3,0.7,0.6s0.2,0.6,0,0.9
			c-0.9,2.1-1.9,4.2-3,6.2c-0.1,0.2-0.1,0.3-0.1,0.5v22.7c0,0.4-0.1,0.7-0.4,0.9s-0.6,0.4-0.9,0.4s-0.7-0.1-0.9-0.4
			s-0.4-0.6-0.4-0.9V25.2c0,0,0-0.1-0.1-0.1s-0.1,0-0.1,0c-0.8,1.1-1.6,2.1-2.4,3.1c-0.3,0.3-0.6,0.4-0.9,0.4s-0.6-0.2-0.8-0.5
			s-0.3-0.7-0.3-1c0,0,0-0.1,0-0.2c0-0.4,0.2-0.8,0.5-1.1C448.9,22.4,451.4,18.3,453.3,13.6z M464,42.3h9.2c1,0,1.7-0.3,2-0.8
			s0.6-1.5,0.8-3.1c0-0.3,0.2-0.5,0.5-0.7s0.6-0.2,0.8,0c0.4,0.2,0.7,0.4,0.9,0.8c0.2,0.3,0.2,0.5,0.2,0.8c0,0.1,0,0.1,0,0.2
			c-0.3,2-0.7,3.3-1.4,4.1s-1.9,1.1-3.7,1.1h-9.4c-2.1,0-3.6-0.3-4.4-1s-1.2-2-1.2-3.9V28.3c0-0.1,0-0.1-0.1-0.2s-0.1,0-0.2,0
			l-2.1,0.8c-0.3,0.1-0.7,0.1-1,0s-0.6-0.4-0.7-0.7c-0.1-0.2-0.1-0.3-0.1-0.5s0-0.3,0.1-0.5c0.1-0.3,0.4-0.6,0.7-0.7l3.1-1.2
			c0.2,0,0.2-0.2,0.2-0.4v-7.9c0-0.4,0.1-0.7,0.4-0.9c0.2-0.3,0.6-0.4,0.9-0.4s0.7,0.1,0.9,0.4c0.3,0.3,0.4,0.6,0.4,0.9V24
			c0,0.1,0,0.1,0.1,0.2s0.1,0,0.2,0l4.8-1.9c0.2,0,0.2-0.2,0.2-0.4v-8.3c0-0.4,0.1-0.7,0.4-0.9s0.5-0.4,0.9-0.4s0.7,0.1,0.9,0.4
			s0.4,0.5,0.4,0.9V21c0,0.1,0,0.1,0.1,0.2s0.1,0,0.2,0l5.2-2c0.1,0,0.1-0.1,0.2-0.1c0.3-0.3,0.6-0.4,0.9-0.4c0.2,0,0.4,0,0.6,0.1
			l0.6,0.2c0.3,0.1,0.4,0.3,0.3,0.6c0,0,0,0.1,0,0.1c0,7.4-0.1,11.8-0.4,13.1c-0.3,1.4-1,2.3-2.2,2.6c-0.6,0.2-1.3,0.3-2.3,0.3
			c-0.4,0-0.7-0.1-1-0.4s-0.5-0.6-0.6-0.9c-0.1-0.3,0-0.6,0.2-0.8s0.4-0.4,0.7-0.4c0.4,0,0.9,0,1.4,0c0.4,0,0.6-0.1,0.8-0.2
			s0.3-0.4,0.4-0.9c0.2-0.8,0.4-4.1,0.4-10.1c0-0.1,0-0.1-0.1-0.2s-0.1,0-0.2,0l-5.1,2c-0.2,0.1-0.2,0.2-0.2,0.4v11.7
			c0,0.4-0.1,0.7-0.4,0.9s-0.6,0.4-0.9,0.4s-0.7-0.1-0.9-0.4s-0.4-0.6-0.4-0.9V25.3c0-0.1,0-0.1-0.1-0.2s-0.1,0-0.2,0l-4.8,1.9
			c-0.2,0.1-0.2,0.2-0.2,0.4v12.4c0,1,0.2,1.7,0.6,2S462.8,42.3,464,42.3z"/>
	</g>
	<g id="XMLID_490_">
		<path id="XMLID_492_" d="M466.7,363.9c0.3,0.3,0.4,0.6,0.4,1s-0.1,0.7-0.4,1c-0.2,0.3-0.5,0.4-0.9,0.4s-0.7-0.1-1-0.3
			c-1-0.7-2.1-1.1-3.3-1.1c-2,0-3.6,0.8-4.8,2.5s-1.9,4.4-2,8.2c0,0,0,0.1,0,0.1s0.1,0,0.1,0c0.8-0.9,1.7-1.7,2.8-2.2
			s2.1-0.8,3.1-0.8c2.3,0,4.1,0.7,5.4,2.1s1.9,3.5,1.9,6.2c0,2.5-0.7,4.5-2.2,6.1s-3.3,2.4-5.4,2.4c-2.6,0-4.8-1.1-6.4-3.4
			s-2.4-5.5-2.4-9.7c0-2.5,0.3-4.7,0.8-6.6s1.3-3.4,2.2-4.5s2-1.9,3.1-2.4s2.4-0.8,3.7-0.8C463.5,362.2,465.2,362.8,466.7,363.9z
			 M460.6,387c1.3,0,2.4-0.6,3.2-1.7s1.3-2.6,1.3-4.3c0-1.8-0.4-3.3-1.2-4.3s-2-1.5-3.6-1.5c-1.9,0-3.7,1.1-5.2,3.2
			c-0.1,0.1-0.2,0.3-0.1,0.5c0.2,2.7,0.8,4.7,1.8,6.1S458.9,387,460.6,387z"/>
		<path id="XMLID_560_" d="M479.8,389.5c-2.4,0-4.5-0.7-6-2s-2.4-3-2.4-5c0-1.6,0.5-3,1.4-4.3s2.1-2.2,3.4-3c0,0,0.1-0.1,0.1-0.1
			s0-0.1-0.1-0.2c-2.3-1.6-3.5-3.6-3.5-6c0-2,0.7-3.6,2-4.9s3.1-1.9,5.2-1.9c2.2,0,4,0.6,5.3,1.9s2,3,2,5c0,1.2-0.3,2.4-1,3.5
			s-1.5,2-2.4,2.8c0,0-0.1,0.1-0.1,0.2s0,0.1,0.1,0.1c2.9,1.7,4.4,4,4.4,6.9c0,1.9-0.8,3.6-2.3,4.9S482.2,389.5,479.8,389.5z
			 M479.8,387.1c1.5,0,2.7-0.4,3.7-1.2s1.4-1.9,1.4-3.2c0-0.7-0.1-1.3-0.4-1.9s-0.6-1-0.9-1.4s-0.9-0.8-1.5-1.2s-1.3-0.7-1.8-0.9
			s-1.2-0.5-2.1-0.9c0,0-0.1,0-0.2,0c-0.1,0-0.2,0-0.3,0.1c-1,0.7-1.9,1.6-2.5,2.5s-0.9,2.1-0.9,3.3c0,1.4,0.5,2.6,1.6,3.5
			S478.2,387.1,479.8,387.1z M481.3,374.7c0.2,0,0.3,0,0.4-0.1c1.7-1.5,2.6-3.3,2.6-5.1c0-1.3-0.4-2.5-1.2-3.4s-1.9-1.4-3.3-1.4
			c-1.2,0-2.2,0.4-3,1.2s-1.2,1.8-1.2,3.1c0,0.7,0.1,1.4,0.4,2s0.7,1.1,1.3,1.6s1.2,0.8,1.8,1.1S480.4,374.3,481.3,374.7z"/>
		<path id="XMLID_564_" d="M497,378.9c-1.8,0-3.3-0.7-4.4-2.2s-1.6-3.5-1.6-6.2s0.5-4.7,1.6-6.1s2.5-2.2,4.4-2.2
			c1.9,0,3.3,0.7,4.4,2.2s1.6,3.5,1.6,6.1s-0.5,4.7-1.6,6.2S498.9,378.9,497,378.9z M497,376.8c1.1,0,1.9-0.5,2.6-1.6
			s0.9-2.7,0.9-4.7c0-2.1-0.3-3.6-0.9-4.7s-1.5-1.6-2.6-1.6c-1.1,0-1.9,0.5-2.5,1.6s-0.9,2.6-0.9,4.7c0,2,0.3,3.6,0.9,4.7
			S496,376.8,497,376.8z M498.9,389.5c-0.3,0-0.4-0.1-0.6-0.3c-0.1-0.1-0.1-0.2-0.1-0.3c0-0.1,0-0.2,0.1-0.3l13.5-25.4
			c0.4-0.7,0.9-1,1.7-1c0.3,0,0.5,0.1,0.6,0.3s0.1,0.4,0,0.7l-13.5,25.4C500.2,389.2,499.7,389.5,498.9,389.5z M519.8,387.3
			c-1.1,1.5-2.5,2.2-4.4,2.2s-3.3-0.7-4.4-2.2s-1.6-3.5-1.6-6.1c0-2.6,0.5-4.6,1.6-6.1s2.5-2.2,4.4-2.2s3.3,0.7,4.4,2.2
			s1.6,3.5,1.6,6.1S520.9,385.9,519.8,387.3z M515.4,387.5c1.1,0,1.9-0.5,2.5-1.6s1-2.7,1-4.7s-0.3-3.6-0.9-4.7s-1.5-1.6-2.6-1.6
			s-1.9,0.5-2.6,1.6s-0.9,2.6-0.9,4.7c0,2,0.3,3.6,0.9,4.7S514.4,387.5,515.4,387.5z"/>
	</g>
	<g id="XMLID_412_">
		<path id="XMLID_431_" class="st4" d="M176.1,303.2c-0.4,0-0.7-0.1-1-0.4c-0.3-0.3-0.4-0.6-0.4-1s0.1-0.7,0.4-1
			c0.3-0.3,0.6-0.4,1-0.4h4.3c0.2,0,0.2-0.1,0.2-0.2v-19.2c0-0.2-0.1-0.3-0.2-0.3H177c-0.3,0-0.6-0.1-0.8-0.3
			c-0.2-0.2-0.3-0.5-0.3-0.8c0-0.3,0.1-0.5,0.3-0.8c0.2-0.2,0.4-0.4,0.7-0.5c1.2-0.3,2.4-0.6,3.3-1.1c0.8-0.4,1.6-0.6,2.4-0.6
			c0.4,0,0.7,0.1,0.9,0.4s0.4,0.5,0.4,0.9v22.1c0,0.2,0.1,0.2,0.3,0.2h3.7c0.4,0,0.7,0.1,1,0.4c0.3,0.3,0.4,0.6,0.4,1
			s-0.1,0.7-0.4,1c-0.3,0.3-0.6,0.4-1,0.4H176.1z"/>
		<path id="XMLID_433_" class="st4" d="M194.6,301.9c-0.3-0.2-0.5-0.5-0.5-0.9c0-0.4,0.1-0.7,0.4-1c0.2-0.3,0.5-0.4,0.9-0.4
			c0.4,0,0.7,0.1,1,0.3c1.1,0.7,2.2,1.1,3.4,1.1c1.9,0,3.4-0.8,4.6-2.5c1.2-1.7,1.9-4.4,2-8.2c0,0,0-0.1-0.1-0.1c0,0-0.1,0-0.1,0
			c-0.8,0.9-1.7,1.7-2.8,2.2c-1,0.6-2.1,0.8-3.1,0.8c-2.2,0-4-0.7-5.3-2.1s-2-3.5-2-6.2c0-2.5,0.7-4.6,2.2-6.2
			c1.5-1.6,3.3-2.4,5.4-2.4c2.6,0,4.8,1.1,6.4,3.2c1.6,2.2,2.4,5.3,2.4,9.3c0,2.6-0.3,4.8-0.8,6.8s-1.2,3.5-2.1,4.6
			c-0.9,1.1-1.9,2-3,2.5c-1.1,0.6-2.3,0.8-3.6,0.8C197.9,303.7,196.1,303.1,194.6,301.9z M200.9,290.8c2,0,3.8-1.1,5.4-3.3
			c0.1-0.1,0.1-0.3,0.1-0.5c-0.2-2.6-0.8-4.6-1.8-6s-2.3-2.1-4-2.1c-1.3,0-2.4,0.6-3.2,1.7s-1.3,2.5-1.3,4.3c0,1.8,0.4,3.3,1.2,4.3
			S199.4,290.8,200.9,290.8z"/>
		<path id="XMLID_436_" class="st4" d="M218.9,293c-1.8,0-3.3-0.7-4.4-2.2c-1.1-1.5-1.6-3.5-1.6-6.2s0.5-4.7,1.6-6.1
			c1.1-1.5,2.5-2.2,4.4-2.2c1.9,0,3.3,0.7,4.4,2.2c1.1,1.5,1.6,3.5,1.6,6.1s-0.5,4.7-1.6,6.2S220.7,293,218.9,293z M218.9,291
			c1.1,0,1.9-0.5,2.6-1.6s0.9-2.7,0.9-4.7c0-2.1-0.3-3.6-0.9-4.7s-1.5-1.6-2.6-1.6c-1.1,0-1.9,0.5-2.5,1.6s-0.9,2.6-0.9,4.7
			c0,2,0.3,3.6,0.9,4.7S217.8,291,218.9,291z M220.8,303.7c-0.3,0-0.4-0.1-0.6-0.3c-0.1-0.1-0.1-0.2-0.1-0.3c0-0.1,0-0.2,0.1-0.3
			l13.5-25.4c0.4-0.7,0.9-1,1.7-1c0.3,0,0.5,0.1,0.6,0.3c0.1,0.2,0.1,0.4,0,0.7l-13.5,25.4C222,303.4,221.5,303.7,220.8,303.7z
			 M241.6,301.5c-1.1,1.5-2.5,2.2-4.4,2.2s-3.3-0.7-4.4-2.2s-1.6-3.5-1.6-6.1c0-2.6,0.5-4.6,1.6-6.1s2.5-2.2,4.4-2.2
			s3.3,0.7,4.4,2.2c1.1,1.5,1.6,3.5,1.6,6.1S242.7,300,241.6,301.5z M237.3,301.7c1.1,0,1.9-0.5,2.5-1.6c0.6-1.1,1-2.7,1-4.7
			s-0.3-3.6-0.9-4.7s-1.5-1.6-2.6-1.6c-1.1,0-1.9,0.5-2.6,1.6s-0.9,2.6-0.9,4.7c0,2,0.3,3.6,0.9,4.7S236.2,301.7,237.3,301.7z"/>
	</g>
	<g id="XMLID_401_">
		<path id="XMLID_402_" class="st4" d="M271.1,178c-0.4,0-0.7-0.1-1-0.4c-0.3-0.3-0.4-0.6-0.4-1s0.1-0.7,0.4-1
			c0.3-0.3,0.6-0.4,1-0.4h4.3c0.2,0,0.2-0.1,0.2-0.2v-19.2c0-0.2-0.1-0.3-0.2-0.3H272c-0.3,0-0.6-0.1-0.8-0.3
			c-0.2-0.2-0.3-0.5-0.3-0.8c0-0.3,0.1-0.5,0.3-0.8c0.2-0.2,0.4-0.4,0.7-0.5c1.2-0.3,2.4-0.6,3.3-1.1c0.8-0.4,1.6-0.6,2.4-0.6
			c0.4,0,0.7,0.1,0.9,0.4s0.4,0.5,0.4,0.9v22.1c0,0.2,0.1,0.2,0.3,0.2h3.7c0.4,0,0.7,0.1,1,0.4c0.3,0.3,0.4,0.6,0.4,1
			s-0.1,0.7-0.4,1c-0.3,0.3-0.6,0.4-1,0.4H271.1z"/>
		<path id="XMLID_404_" class="st4" d="M289.1,178c-0.3,0-0.5-0.1-0.7-0.3c-0.2-0.2-0.3-0.4-0.3-0.7c0-0.6,0.2-1.2,0.7-1.6
			c3.9-3.5,6.8-6.5,8.6-9.1s2.7-5,2.7-7.2c0-1.6-0.4-2.8-1.2-3.8c-0.8-0.9-2-1.4-3.6-1.4s-3.1,0.7-4.6,2.1c-0.3,0.3-0.6,0.4-0.9,0.4
			c-0.4,0-0.7-0.1-0.9-0.4c-0.3-0.3-0.4-0.6-0.4-0.9c0-0.4,0.1-0.7,0.4-0.9c2.1-2,4.3-3,6.8-3c2.3,0,4.2,0.7,5.6,2.1
			c1.4,1.4,2.1,3.3,2.1,5.7c0,2.5-0.9,5-2.6,7.6c-1.7,2.6-4.2,5.5-7.5,8.7c0,0-0.1,0.1,0,0.1c0,0,0.1,0.1,0.1,0.1
			c1.9-0.2,3.3-0.2,4-0.2h5.9c0.4,0,0.7,0.1,1,0.4s0.4,0.6,0.4,1s-0.1,0.7-0.4,1s-0.6,0.4-1,0.4H289.1z"/>
		<path id="XMLID_406_" class="st4" d="M313.9,167.8c-1.8,0-3.3-0.7-4.4-2.2c-1.1-1.5-1.6-3.5-1.6-6.2s0.5-4.7,1.6-6.1
			c1.1-1.5,2.5-2.2,4.4-2.2c1.9,0,3.3,0.7,4.4,2.2c1.1,1.5,1.6,3.5,1.6,6.1s-0.5,4.7-1.6,6.2S315.7,167.8,313.9,167.8z M313.9,165.8
			c1.1,0,1.9-0.5,2.6-1.6s0.9-2.7,0.9-4.7c0-2.1-0.3-3.6-0.9-4.7s-1.5-1.6-2.6-1.6c-1.1,0-1.9,0.5-2.5,1.6s-0.9,2.6-0.9,4.7
			c0,2,0.3,3.6,0.9,4.7S312.9,165.8,313.9,165.8z M315.8,178.5c-0.3,0-0.4-0.1-0.6-0.3c-0.1-0.1-0.1-0.2-0.1-0.3
			c0-0.1,0-0.2,0.1-0.3l13.5-25.4c0.4-0.7,0.9-1,1.7-1c0.3,0,0.5,0.1,0.6,0.3c0.1,0.2,0.1,0.4,0,0.7l-13.5,25.4
			C317.1,178.2,316.5,178.5,315.8,178.5z M336.7,176.3c-1.1,1.5-2.5,2.2-4.4,2.2s-3.3-0.7-4.4-2.2s-1.6-3.5-1.6-6.1
			c0-2.6,0.5-4.6,1.6-6.1s2.5-2.2,4.4-2.2s3.3,0.7,4.4,2.2c1.1,1.5,1.6,3.5,1.6,6.1S337.7,174.8,336.7,176.3z M332.3,176.5
			c1.1,0,1.9-0.5,2.5-1.6c0.6-1.1,1-2.7,1-4.7s-0.3-3.6-0.9-4.7s-1.5-1.6-2.6-1.6c-1.1,0-1.9,0.5-2.6,1.6s-0.9,2.6-0.9,4.7
			c0,2,0.3,3.6,0.9,4.7S331.2,176.5,332.3,176.5z"/>
	</g>
</g>
</svg>
