<?xml version="1.0" encoding="utf-8"?>
<!-- Generator: Adobe Illustrator 19.0.0, SVG Export Plug-In . SVG Version: 6.00 Build 0)  -->
<svg version="1.1" id="圖層_1" xmlns="http://www.w3.org/2000/svg" xmlns:xlink="http://www.w3.org/1999/xlink" x="0px" y="0px"
	 viewBox="0 0 884.1 145.1" style="enable-background:new 0 0 884.1 145.1;" xml:space="preserve">
<style type="text/css">
	.st0{fill:#B3B3B3;}
	.st1{fill:#FFD16F;}
</style>
<g id="XMLID_250_">
	<g id="XMLID_1_">
		<path id="XMLID_2_" class="st0" d="M384.2,16.7c1.1,0,2.1,0.4,2.9,1.2c0.8,0.8,1.2,1.8,1.2,3v38.3c0,1.2-0.4,2.2-1.2,3
			c-0.8,0.8-1.8,1.2-2.9,1.2h-8.8c-0.4,0-0.6,0.2-0.6,0.6v3c0,0.6-0.2,1.1-0.6,1.6c-0.4,0.4-0.9,0.7-1.6,0.7s-1.2-0.2-1.6-0.7
			c-0.4-0.4-0.6-1-0.6-1.6v-46c0-1.2,0.4-2.2,1.2-3c0.8-0.8,1.8-1.2,3-1.2H384.2z M383.7,22c0-0.4-0.2-0.6-0.5-0.6h-7.9
			c-0.4,0-0.6,0.2-0.6,0.6v14.9c0,0.4,0.2,0.6,0.6,0.6h7.9c0.3,0,0.5-0.2,0.5-0.6V22z M374.8,58c0,0.4,0.2,0.6,0.6,0.6h7.9
			c0.3,0,0.5-0.2,0.5-0.6V42.6c0-0.4-0.2-0.6-0.5-0.6h-7.9c-0.4,0-0.6,0.2-0.6,0.6V58z M415.3,34.3c0,0.4,0.2,0.6,0.5,0.6h15.6
			c0.6,0,1,0.2,1.4,0.6c0.4,0.4,0.6,0.9,0.6,1.4s-0.2,1-0.6,1.4c-0.4,0.4-0.9,0.6-1.4,0.6h-37.7c-0.6,0-1-0.2-1.4-0.6
			c-0.4-0.4-0.6-0.9-0.6-1.4s0.2-1,0.6-1.4c0.4-0.4,0.9-0.6,1.4-0.6h15.9c0.3,0,0.5-0.2,0.5-0.6v-3.8c0-0.4-0.2-0.6-0.5-0.6h-12.2
			c-0.6,0-1-0.2-1.4-0.6c-0.4-0.4-0.6-0.8-0.6-1.4c0-0.5,0.2-1,0.6-1.4c0.4-0.4,0.8-0.6,1.4-0.6h12.2c0.3,0,0.5-0.2,0.5-0.6v-3.3
			c0-0.4-0.2-0.6-0.5-0.6h-13.9c-0.6,0-1-0.2-1.4-0.6c-0.4-0.4-0.6-0.9-0.6-1.4s0.2-1,0.6-1.4c0.4-0.4,0.9-0.6,1.4-0.6h13.9
			c0.3,0,0.5-0.2,0.5-0.6v-2.7c0-0.7,0.3-1.3,0.8-1.8c0.5-0.5,1.1-0.8,1.8-0.8s1.3,0.3,1.8,0.8c0.5,0.5,0.8,1.1,0.8,1.8V17
			c0,0.4,0.2,0.6,0.5,0.6H430c0.6,0,1,0.2,1.4,0.6c0.4,0.4,0.6,0.9,0.6,1.4s-0.2,1-0.6,1.4c-0.4,0.4-0.9,0.6-1.4,0.6h-14.2
			c-0.3,0-0.5,0.2-0.5,0.6v3.3c0,0.4,0.2,0.6,0.5,0.6h12.9c0.6,0,1,0.2,1.4,0.6c0.4,0.4,0.6,0.8,0.6,1.4c0,0.5-0.2,1-0.6,1.4
			c-0.4,0.4-0.8,0.6-1.4,0.6h-12.9c-0.3,0-0.5,0.2-0.5,0.6V34.3z M424.8,43.2c1.2,0,2.2,0.4,3,1.2c0.8,0.8,1.2,1.8,1.2,2.9v24.5
			c0,1.3-0.2,2.3-0.5,3s-1,1.3-1.9,1.7c-1.2,0.5-3.5,0.7-7,0.8c-0.7,0-1.3-0.2-1.8-0.6c-0.5-0.4-0.9-1-1.2-1.7
			c-0.2-0.5-0.1-1,0.2-1.4c0.3-0.4,0.7-0.7,1.3-0.7c1.5,0,3,0,4.6,0c0.5,0,0.8-0.1,0.9-0.2c0.2-0.1,0.2-0.4,0.2-0.8v-5.7
			c0-0.3-0.2-0.5-0.6-0.5h-21.1c-0.4,0-0.6,0.2-0.6,0.5v8.6c0,0.7-0.2,1.3-0.7,1.8c-0.5,0.5-1.1,0.7-1.8,0.7s-1.3-0.2-1.8-0.7
			c-0.5-0.5-0.7-1.1-0.7-1.8V47.4c0-1.1,0.4-2.1,1.2-2.9c0.8-0.8,1.8-1.2,3-1.2H424.8z M424,47.9c0-0.3-0.2-0.5-0.6-0.5h-21.1
			c-0.4,0-0.6,0.2-0.6,0.5v4.3c0,0.4,0.2,0.6,0.6,0.6h21.1c0.4,0,0.6-0.2,0.6-0.6V47.9z M401.7,61.4c0,0.4,0.2,0.6,0.6,0.6h21.1
			c0.4,0,0.6-0.2,0.6-0.6v-4.3c0-0.3-0.2-0.5-0.6-0.5h-21.1c-0.4,0-0.6,0.2-0.6,0.5V61.4z"/>
		<path id="XMLID_10_" class="st0" d="M508.7,40.2c0.5,0.5,0.8,1.2,0.8,1.9c0,0.8-0.3,1.4-0.8,1.9c-0.5,0.5-1.2,0.8-1.9,0.8h-22.4
			c-0.1,0-0.2,0-0.3,0.1c-0.1,0.1-0.1,0.2,0,0.4c2.2,6.7,5.5,12.2,9.8,16.6c4.3,4.4,9.8,7.6,16.4,9.7c0.7,0.2,1.1,0.7,1.3,1.3
			c0,0.2,0.1,0.4,0.1,0.6c0,0.4-0.1,0.8-0.4,1.3c-0.5,0.8-1.2,1.3-2,1.6c-0.5,0.2-0.9,0.3-1.3,0.3s-0.8-0.1-1.2-0.2
			c-6.3-2.2-11.5-5.4-15.8-9.6c-4.2-4.2-7.6-9.5-10.3-15.9c0-0.1-0.1-0.1-0.2-0.1s-0.1,0-0.2,0.1c-1.6,5.3-4.6,10.2-8.9,14.4
			c-4.3,4.3-10.4,8-18.4,11c-0.4,0.1-0.7,0.2-1.1,0.2c-0.4,0-0.8-0.1-1.2-0.2c-0.8-0.3-1.4-0.8-1.8-1.5c-0.4-0.6-0.5-1.2-0.3-1.8
			c0.2-0.6,0.6-1.1,1.2-1.3c4.4-1.7,8.1-3.6,11.4-5.6c3.2-2.1,5.8-4.3,7.7-6.6c1.9-2.3,3.5-4.7,4.5-7c1.1-2.3,1.9-4.8,2.4-7.4
			c0.1-0.3,0-0.5-0.4-0.5h-21.9c-0.8,0-1.4-0.3-1.9-0.8c-0.5-0.5-0.8-1.2-0.8-1.9c0-0.7,0.3-1.4,0.8-1.9c0.5-0.5,1.2-0.8,1.9-0.8
			h22.5c0.4,0,0.6-0.2,0.6-0.5c0-0.8,0.1-2,0.1-3.6V23.2c0-0.3-0.2-0.5-0.6-0.5h-24.9c-0.8,0-1.4-0.3-1.9-0.8
			c-0.5-0.5-0.8-1.2-0.8-1.9c0-0.7,0.3-1.4,0.8-1.9c0.5-0.5,1.1-0.8,1.9-0.8h57.4c0.7,0,1.4,0.3,1.9,0.8c0.5,0.5,0.8,1.2,0.8,1.9
			c0,0.8-0.3,1.4-0.8,1.9c-0.5,0.5-1.1,0.8-1.9,0.8h-25.9c-0.3,0-0.5,0.2-0.5,0.5v12.2c0,1.5,0,2.7-0.1,3.5c0,0.3,0.2,0.5,0.5,0.5
			h24.1C507.5,39.4,508.1,39.7,508.7,40.2z"/>
	</g>
	<g id="XMLID_975_">
		<path id="XMLID_976_" d="M40.2,42.8c0.3,0.3,0.4,0.4,0.4,0.4s0,0.2,0,0.5s-0.1,0.7-0.4,0.9c-0.3,0.3-0.6,0.4-0.9,0.4H25.7
			c-0.2,0-0.3,0.1-0.3,0.3v6c0,0,0,0,0.1,0c0.3-0.3,0.6-0.4,1-0.2c4.2,2.1,7.9,4.2,11,6.3c0.4,0.2,0.6,0.6,0.6,1c0,0.1,0,0.1,0,0.2
			c0,0.3-0.1,0.6-0.3,0.9c-0.3,0.3-0.6,0.5-1,0.6c-0.1,0-0.1,0-0.2,0c-0.3,0-0.6-0.1-0.9-0.3C33,58,29.7,56,25.6,53.8
			c0,0-0.1,0-0.2,0c-0.1,0-0.1,0.1-0.1,0.1v17.2c0,0.4-0.1,0.7-0.4,1c-0.3,0.3-0.6,0.4-1,0.4c-0.4,0-0.7-0.1-1-0.4
			c-0.3-0.3-0.4-0.6-0.4-1V45.4c0-0.2-0.1-0.3-0.3-0.3H10.1c-0.4,0-0.7-0.1-0.9-0.4c-0.3-0.3-0.4-0.6-0.4-0.9s0.1-0.7,0.4-0.9
			c0.3-0.3,0.6-0.4,0.9-0.4h29.1C39.6,42.4,39.9,42.6,40.2,42.8z"/>
		<path id="XMLID_978_" d="M79.9,41.6c0.3,0.3,0.4,0.6,0.4,0.9s-0.1,0.7-0.4,0.9c-0.3,0.3-0.6,0.4-0.9,0.4H65.8
			c-0.2,0-0.3,0.1-0.3,0.2v4.2c0,0.2,0.1,0.3,0.3,0.3h10.9c0.6,0,1,0.2,1.5,0.6c0.4,0.4,0.6,0.9,0.6,1.5v17.8c0,0.8-0.1,1.4-0.3,1.8
			c-0.2,0.4-0.6,0.7-1.2,0.9c-0.8,0.3-2.3,0.4-4.7,0.5c-0.4,0-0.7-0.1-1-0.4c-0.3-0.2-0.5-0.5-0.7-0.9c-0.1-0.3-0.1-0.5,0.1-0.8
			c0.2-0.2,0.4-0.4,0.7-0.4c0.9,0,2.1,0,3.7,0c0.3,0,0.5-0.1,0.6-0.2c0.1-0.1,0.2-0.3,0.2-0.6v-17c0-0.2-0.1-0.3-0.2-0.3H65.8
			c-0.2,0-0.3,0.1-0.3,0.3v18.7c0,0.4-0.1,0.7-0.4,0.9c-0.3,0.3-0.6,0.4-0.9,0.4c-0.4,0-0.7-0.1-0.9-0.4c-0.3-0.3-0.4-0.6-0.4-0.9
			V51.4c0-0.2-0.1-0.3-0.2-0.3h-9.8c-0.2,0-0.2,0.1-0.2,0.3v19.1c0,0.4-0.1,0.7-0.4,0.9s-0.6,0.4-0.9,0.4c-0.4,0-0.7-0.1-0.9-0.4
			S50,70.9,50,70.5V50.7c0-0.6,0.2-1,0.6-1.5c0.4-0.4,0.9-0.6,1.5-0.6h10.5c0.2,0,0.2-0.1,0.2-0.3v-4.2c0-0.2-0.1-0.2-0.2-0.2h-13
			c-0.4,0-0.7-0.1-0.9-0.4c-0.3-0.3-0.4-0.6-0.4-0.9s0.1-0.7,0.4-0.9c0.3-0.3,0.6-0.4,0.9-0.4H79C79.3,41.2,79.6,41.3,79.9,41.6z
			 M54.6,62.3c-0.2-0.2-0.4-0.4-0.4-0.7c0-0.3,0.1-0.5,0.2-0.7c0.2-0.2,0.5-0.4,0.8-0.4s0.6,0,0.9,0.2c2,1.3,3.6,2.3,4.6,3.1
			c0.2,0.2,0.4,0.4,0.4,0.7s-0.1,0.6-0.3,0.8c-0.2,0.2-0.5,0.4-0.8,0.4c-0.3,0-0.6-0.1-0.9-0.2C58,64.6,56.5,63.5,54.6,62.3z
			 M54.9,55.3c-0.2-0.1-0.4-0.3-0.4-0.6s0.1-0.5,0.3-0.7c0.2-0.2,0.5-0.3,0.8-0.4s0.6,0,0.9,0.2c1.6,0.9,3,1.8,4.4,2.7
			c0.3,0.2,0.4,0.4,0.4,0.7S61.2,57.8,61,58s-0.5,0.4-0.8,0.4c-0.3,0-0.6-0.1-0.9-0.2C58.1,57.3,56.6,56.3,54.9,55.3z M73.7,63.7
			c0.3,0.2,0.4,0.4,0.4,0.7s-0.1,0.6-0.3,0.8c-0.2,0.3-0.5,0.4-0.8,0.4c-0.3,0-0.6-0.1-0.9-0.2c-1.3-0.9-2.9-2-4.9-3.2
			c-0.2-0.1-0.4-0.3-0.4-0.6s0.1-0.5,0.3-0.7s0.5-0.3,0.8-0.4s0.6,0,0.9,0.2C70.8,61.9,72.4,62.9,73.7,63.7z M73.9,56.4
			c0.3,0.2,0.4,0.4,0.5,0.7c0,0.3,0,0.6-0.2,0.8s-0.5,0.4-0.8,0.4c-0.3,0-0.6,0-0.9-0.2c-1.3-0.9-2.8-1.9-4.6-2.9
			c-0.2-0.1-0.4-0.3-0.4-0.6s0-0.5,0.2-0.7c0.2-0.2,0.5-0.3,0.8-0.4s0.6,0,0.9,0.2C71.1,54.7,72.7,55.6,73.9,56.4z"/>
		<path id="XMLID_984_" d="M107,52.9c0.3,0,0.5,0.1,0.7,0.3s0.3,0.4,0.3,0.7s-0.1,0.5-0.3,0.7S107.3,55,107,55H88.7
			c-0.3,0-0.5-0.1-0.7-0.3s-0.3-0.4-0.3-0.7s0.1-0.5,0.3-0.7s0.5-0.3,0.7-0.3h7.7c0.2,0,0.2-0.1,0.2-0.3v-1.7c0-0.2-0.1-0.3-0.2-0.3
			h-4.2c-0.6,0-1.1-0.2-1.5-0.6c-0.4-0.4-0.6-0.9-0.6-1.5v-5.3c0-0.6,0.2-1.1,0.6-1.5c0.4-0.4,0.9-0.6,1.5-0.6h11.7
			c0.6,0,1.1,0.2,1.5,0.6c0.4,0.4,0.6,0.9,0.6,1.5v5.3c0,0.6-0.2,1.1-0.6,1.5c-0.4,0.4-0.9,0.6-1.5,0.6h-4.5c-0.2,0-0.2,0.1-0.2,0.3
			v1.7c0,0.2,0.1,0.3,0.2,0.3H107z M90.9,66.2c0.2-0.3,0.4-0.5,0.7-0.7c0.3-0.2,0.6-0.2,1-0.1c0.3,0.1,0.5,0.2,0.6,0.5
			c0.1,0.3,0.1,0.6-0.1,0.8c-0.8,1.5-1.8,2.8-2.9,4c-0.2,0.2-0.5,0.4-0.8,0.4s-0.7-0.1-0.9-0.2s-0.4-0.5-0.4-0.8
			c0-0.3,0.1-0.5,0.3-0.7C89.4,68.4,90.3,67.3,90.9,66.2z M105.7,62.1c0,0.6-0.2,1.1-0.6,1.5c-0.4,0.4-0.9,0.6-1.5,0.6h-4.3
			c-0.2,0-0.2,0.1-0.2,0.3v5.6c0,0.6-0.1,1.1-0.2,1.4c-0.2,0.3-0.5,0.6-0.9,0.7c-0.6,0.2-1.6,0.4-3.1,0.4c-0.7,0-1.3-0.4-1.6-1.1
			c-0.1-0.2-0.1-0.5,0-0.7s0.3-0.3,0.6-0.3c0.5,0,0.9,0,1.3,0c0.4,0,0.7,0,0.9,0c0.2,0,0.4,0,0.4-0.1s0.1-0.2,0.1-0.4v-5.6
			c0-0.2-0.1-0.3-0.2-0.3h-3.9c-0.6,0-1-0.2-1.5-0.6c-0.4-0.4-0.6-0.9-0.6-1.5v-3c0-0.6,0.2-1,0.6-1.5c0.4-0.4,0.9-0.6,1.5-0.6h11.1
			c0.6,0,1.1,0.2,1.5,0.6c0.4,0.4,0.6,0.9,0.6,1.5V62.1z M92.7,42.8c-0.2,0-0.3,0.1-0.3,0.2v1.7c0,0.2,0.1,0.2,0.3,0.2h10.4
			c0.2,0,0.3-0.1,0.3-0.2v-1.7c0-0.2-0.1-0.2-0.3-0.2H92.7z M92.7,46.7c-0.2,0-0.3,0.1-0.3,0.2v1.8c0,0.2,0.1,0.2,0.3,0.2h10.4
			c0.2,0,0.3-0.1,0.3-0.2v-1.8c0-0.2-0.1-0.2-0.3-0.2H92.7z M93,59c-0.2,0-0.2,0.1-0.2,0.2V62c0,0.2,0.1,0.3,0.2,0.3h9.9
			c0.2,0,0.3-0.1,0.3-0.3v-2.8c0-0.2-0.1-0.2-0.3-0.2H93z M117.5,61.6c0.2-0.3,0.5-0.6,0.9-0.7c0.2-0.1,0.4-0.1,0.5-0.1
			c0.2,0,0.4,0,0.6,0.1c0.3,0.1,0.6,0.4,0.7,0.7c0,0.1,0.1,0.3,0.1,0.4c0,0.2-0.1,0.4-0.2,0.6c-2.5,3.7-5.8,6.8-10.1,9.1
			c-0.4,0.2-0.7,0.3-1.1,0.3c-0.2,0-0.4,0-0.6-0.1c-0.6-0.1-1.1-0.4-1.5-0.9c-0.1-0.1-0.3-0.3-0.4-0.4c-0.1-0.1-0.2-0.1-0.2,0
			c-0.3,0.2-0.6,0.2-0.9,0.1s-0.6-0.3-0.7-0.5c-0.7-1.1-1.5-2.1-2.4-3.2c-0.1-0.2-0.2-0.4-0.2-0.6c0,0,0-0.1,0-0.2
			c0-0.3,0.2-0.5,0.5-0.6c0.3-0.1,0.6-0.2,0.9-0.1c0.3,0.1,0.6,0.2,0.8,0.4c1.4,1.6,2.4,2.9,3,3.9c0,0.1,0,0.1,0,0.2
			c2.1-1,4-2.2,5.8-3.7C114.7,64.9,116.3,63.3,117.5,61.6z M115.4,41.5c0.3-0.3,0.6-0.5,1-0.6c0.2,0,0.3-0.1,0.5-0.1
			c0.2,0,0.5,0,0.7,0.1c0.3,0.1,0.5,0.3,0.6,0.7c0.1,0.3,0,0.6-0.2,0.9c-2.1,2.4-4.5,4.5-7.5,6.4c-0.3,0.2-0.7,0.3-1.1,0.2
			c-0.4-0.1-0.7-0.2-1-0.5c-0.2-0.2-0.3-0.5-0.3-0.8c0-0.3,0.2-0.6,0.5-0.7C111.3,45.4,113.6,43.6,115.4,41.5z M116.4,51.3
			c0.3-0.3,0.6-0.5,0.9-0.6c0.2,0,0.3-0.1,0.5-0.1c0.2,0,0.5,0,0.7,0.1c0.3,0.1,0.5,0.3,0.6,0.7s0,0.6-0.2,0.9
			c-2.3,2.6-5,4.9-8.1,6.9c-0.4,0.2-0.7,0.3-1.1,0.2c-0.4-0.1-0.7-0.2-1-0.5c-0.2-0.2-0.3-0.5-0.3-0.8c0-0.3,0.2-0.6,0.5-0.7
			C111.8,55.6,114.4,53.6,116.4,51.3z"/>
		<path id="XMLID_994_" d="M151,58.1L151,58.1c0.1,0.1,0.2,0.1,0.2,0.3c0,0.1,0,0.3,0,0.4c-0.5,0.6-0.9,1.2-1.3,1.7c0,0,0,0.1,0,0.1
			c0,0,0.1,0.1,0.1,0.1h8.6c0.3,0,0.5,0.1,0.7,0.3c0.2,0.2,0.3,0.4,0.3,0.7s-0.1,0.5-0.3,0.7c-0.2,0.2-0.4,0.3-0.7,0.3h-30.2
			c-0.3,0-0.5-0.1-0.7-0.3c-0.2-0.2-0.3-0.4-0.3-0.7s0.1-0.5,0.3-0.7c0.2-0.2,0.4-0.3,0.7-0.3h8.6c0.1,0,0.1,0,0.2-0.1s0-0.1,0-0.2
			c-0.2-0.4-0.4-0.7-0.7-1.1c-0.1-0.2-0.2-0.4-0.1-0.7c0.1-0.2,0.2-0.4,0.4-0.5v0h-4c-0.4,0-0.8-0.2-1.1-0.5
			c-0.3-0.3-0.5-0.7-0.5-1.1c0,0,0-0.1-0.1-0.1c0,0-0.1,0-0.1,0c-0.5,0.3-1,0.5-1.5,0.7c-0.3,0.1-0.6,0.1-0.9,0
			c-0.3-0.1-0.5-0.3-0.8-0.5c-0.2-0.2-0.2-0.4-0.2-0.7c0.1-0.2,0.2-0.4,0.5-0.5c2.4-0.9,4.2-2.2,5.6-3.7c0,0,0-0.1,0-0.1
			c0,0-0.1-0.1-0.1,0c-1.5,0.2-3.3,0.4-5.3,0.6c-0.3,0-0.5,0-0.8-0.2s-0.4-0.4-0.4-0.7c0-0.1,0-0.2,0-0.2c0-0.2,0.1-0.3,0.2-0.5
			c0.2-0.2,0.4-0.3,0.6-0.4l1.4-0.1c0.2,0,0.3-0.1,0.5-0.2c0.4-0.5,0.9-1,1.4-1.7c0.1-0.1,0.1-0.3,0-0.4c-0.8-0.8-1.8-1.7-3.1-2.7
			c-0.2-0.2-0.3-0.4-0.4-0.7c0-0.3,0-0.5,0.2-0.7c0.2-0.2,0.4-0.3,0.7-0.4c0.3,0,0.5,0,0.8,0.2c0.1,0.1,0.1,0.1,0.2,0.2
			c0.1,0.1,0.2,0.1,0.2,0c0.7-1,1.3-2,1.9-3.1c0.1-0.3,0.4-0.4,0.6-0.5c0.1,0,0.2-0.1,0.4-0.1s0.3,0,0.4,0.1
			c0.3,0.1,0.4,0.3,0.5,0.6c0.1,0.3,0.1,0.5-0.1,0.7c-0.8,1.3-1.6,2.4-2.4,3.3c-0.1,0.1-0.1,0.3,0,0.4c0.4,0.4,0.8,0.7,1.2,1.1
			c0.1,0.1,0.3,0.1,0.4,0c0.6-0.8,1.2-1.7,1.8-2.5c0.2-0.3,0.4-0.4,0.7-0.5c0.3-0.1,0.6-0.1,0.9,0.1c0.3,0.1,0.4,0.3,0.5,0.6
			s0,0.5-0.1,0.7c-1.5,2-2.9,3.7-4.3,5.3c0,0,0,0.1,0,0.1c0,0,0.1,0.1,0.1,0.1l2.7-0.2c0.2,0,0.3-0.1,0.4-0.2
			c0.1-0.2,0.2-0.5,0.4-0.8c0.1-0.3,0.3-0.5,0.6-0.7c0.3-0.2,0.6-0.2,0.9-0.2c0.3,0,0.5,0.2,0.7,0.4c0.2,0.2,0.2,0.5,0.1,0.8
			c-1.1,3-3.3,5.4-6.4,7.2c0,0,0,0.1,0,0.1c0,0,0,0.1,0.1,0.1h10.3c0.2,0,0.2-0.1,0.2-0.2v-0.6c0-0.3,0.1-0.6,0.4-0.9
			s0.5-0.4,0.9-0.4s0.7,0.1,0.9,0.4s0.4,0.5,0.4,0.9V56c0,0.2,0.1,0.2,0.2,0.2h10.7c0.2,0,0.4,0.1,0.6,0.3c0.2,0.2,0.3,0.4,0.3,0.7
			s-0.1,0.5-0.3,0.7c-0.2,0.2-0.4,0.3-0.6,0.3H151z M133.8,72.7c-0.4,0-0.6-0.1-0.9-0.4c-0.2-0.2-0.4-0.5-0.4-0.9V66
			c0-0.6,0.2-1,0.6-1.5c0.4-0.4,0.9-0.6,1.5-0.6h17.9c0.6,0,1.1,0.2,1.5,0.6c0.4,0.4,0.6,0.9,0.6,1.5v5.3c0,0.4-0.1,0.7-0.4,0.9
			s-0.5,0.4-0.9,0.4H153c-0.2,0-0.4-0.1-0.6-0.2c-0.2-0.2-0.2-0.4-0.2-0.6c0-0.1,0-0.1-0.1-0.1h-16.8c-0.1,0-0.1,0-0.1,0.1
			c0,0.3-0.1,0.5-0.2,0.7c-0.2,0.2-0.4,0.3-0.6,0.3H133.8z M152.2,65.7c0-0.2-0.1-0.3-0.3-0.3h-16.5c-0.2,0-0.3,0.1-0.3,0.3v1.1
			c0,0.2,0.1,0.2,0.3,0.2h16.5c0.2,0,0.3-0.1,0.3-0.2V65.7z M135.1,69.9c0,0.2,0.1,0.2,0.3,0.2h16.5c0.2,0,0.3-0.1,0.3-0.2v-1.1
			c0-0.2-0.1-0.3-0.3-0.3h-16.5c-0.2,0-0.3,0.1-0.3,0.3V69.9z M137.1,53.4c0-0.3,0-0.5,0.2-0.7c0.2-0.2,0.4-0.3,0.6-0.4l0.5,0
			c0.1,0,0.2-0.1,0.2-0.2V43c0-0.6,0.2-1.1,0.6-1.5c0.4-0.4,0.9-0.6,1.5-0.6h5.7c0.6,0,1.1,0.2,1.5,0.6c0.4,0.4,0.6,0.9,0.6,1.5v3.8
			c0,0.6-0.2,1-0.6,1.5c-0.4,0.4-0.9,0.6-1.5,0.6H141c-0.2,0-0.3,0.1-0.3,0.3v2.6c0,0.2,0.1,0.2,0.3,0.2l4.5-0.5
			c0.1,0,0.1,0,0.1-0.1c0,0,0-0.1,0-0.1c-0.3-0.3-0.5-0.5-0.8-0.8c-0.2-0.2-0.2-0.4-0.2-0.6c0-0.2,0.1-0.4,0.3-0.5
			c0.2-0.1,0.5-0.2,0.7-0.2c0.3,0,0.5,0.1,0.8,0.3c1.2,1.1,2.2,2.1,3,3.2c0.1,0.2,0.2,0.4,0.1,0.7c-0.1,0.3-0.2,0.5-0.4,0.6
			c-0.2,0.1-0.5,0.1-0.7,0.1c-0.3-0.1-0.5-0.2-0.6-0.4c-0.1-0.1-0.2-0.3-0.4-0.5c-0.1-0.1-0.2-0.2-0.3-0.1c-1.2,0.1-2.9,0.3-5,0.6
			c-2.1,0.3-3.3,0.4-3.6,0.5c-0.3,0-0.6,0-0.8-0.2C137.3,53.9,137.2,53.7,137.1,53.4z M148.7,58.3c0-0.1,0-0.1,0-0.2
			c0,0-0.1-0.1-0.1-0.1h-10.1c0,0-0.1,0-0.1,0.1c0,0,0,0.1,0,0.1c0.5,0.6,0.9,1.1,1.2,1.7c0.1,0.1,0.1,0.2,0,0.4
			c-0.1,0.1-0.1,0.2-0.3,0.2v0h7.6c0.2,0,0.3-0.1,0.4-0.2C148,59.4,148.4,58.8,148.7,58.3z M146.3,42.8c0-0.2-0.1-0.2-0.3-0.2h-5
			c-0.2,0-0.3,0.1-0.3,0.2v1.1c0,0.2,0.1,0.3,0.3,0.3h5c0.2,0,0.3-0.1,0.3-0.3V42.8z M140.7,47c0,0.2,0.1,0.3,0.3,0.3h5
			c0.2,0,0.3-0.1,0.3-0.3V46c0-0.2-0.1-0.2-0.3-0.2h-5c-0.2,0-0.3,0.1-0.3,0.2V47z M152.8,42.9c-0.2,0-0.3,0.1-0.3,0.2v11.4
			c0,0.3-0.1,0.6-0.3,0.8c-0.2,0.2-0.5,0.3-0.8,0.3c-0.3,0-0.6-0.1-0.8-0.3s-0.3-0.5-0.3-0.8V43c0-0.6,0.2-1.1,0.6-1.5
			c0.4-0.4,0.9-0.6,1.5-0.6h5.4c0,0,0.1,0,0.1,0c0.2,0,0.4,0,0.5,0.1l0.5,0.2c0.2,0.1,0.4,0.3,0.5,0.5s0,0.5-0.1,0.7
			c-0.8,1.4-1.5,2.7-2.4,4c-0.1,0.1-0.1,0.3,0.1,0.4c1.9,1.5,2.8,2.9,2.8,4.3c0,1.1-0.4,1.9-1.3,2.5c-0.4,0.3-1,0.4-1.6,0.5
			c-0.4,0-0.8,0.1-1.3,0.1c-0.1,0-0.3,0-0.4,0c-0.6,0-1-0.4-1.3-1.1c-0.1-0.2,0-0.4,0.1-0.6c0.1-0.2,0.3-0.3,0.5-0.2
			c0.3,0,0.5,0,0.7,0c0.3,0,0.6,0,0.8,0c0.4,0,0.7-0.1,1-0.2c0.4-0.2,0.7-0.7,0.7-1.3c0-0.7-0.5-1.5-1.5-2.4
			c-0.4-0.4-0.7-0.9-0.9-1.4c0-0.2,0-0.4,0-0.6c0-0.4,0.1-0.7,0.2-1.1c0.3-0.6,0.7-1.3,1.1-2.1c0-0.1,0.1-0.1,0-0.2
			s-0.1-0.1-0.2-0.1H152.8z"/>
		<path id="XMLID_1004_" d="M181.4,51.3c0,0.6-0.2,1-0.6,1.5c-0.4,0.4-0.9,0.6-1.5,0.6h-8.1c-0.2,0-0.2,0.1-0.2,0.2v17.8
			c0,0.4-0.1,0.7-0.4,0.9c-0.3,0.3-0.6,0.4-0.9,0.4c-0.4,0-0.7-0.1-0.9-0.4c-0.3-0.3-0.4-0.6-0.4-0.9V43.4c0-0.6,0.2-1,0.6-1.5
			c0.4-0.4,0.9-0.6,1.5-0.6h8.9c0.6,0,1,0.2,1.5,0.6c0.4,0.4,0.6,0.9,0.6,1.5V51.3z M178.9,43.6c0-0.2-0.1-0.3-0.2-0.3h-7.4
			c-0.2,0-0.2,0.1-0.2,0.3V46c0,0.2,0.1,0.2,0.2,0.2h7.4c0.2,0,0.2-0.1,0.2-0.2V43.6z M171,51c0,0.2,0.1,0.3,0.2,0.3h7.4
			c0.2,0,0.2-0.1,0.2-0.3v-2.6c0-0.2-0.1-0.2-0.2-0.2h-7.4c-0.2,0-0.2,0.1-0.2,0.2V51z M192.4,62c0.2,0.2,0.3,0.5,0.3,0.8
			s-0.1,0.6-0.3,0.8s-0.5,0.3-0.8,0.3h-3.5c-0.2,0-0.3,0.1-0.3,0.3v6.6c0,0.3-0.1,0.6-0.4,0.8c-0.2,0.2-0.5,0.3-0.8,0.3
			c-0.3,0-0.6-0.1-0.8-0.3c-0.2-0.2-0.3-0.5-0.3-0.8v-6.6c0-0.2-0.1-0.3-0.3-0.3h-4.6c-0.2,0-0.3,0.1-0.3,0.2
			c-0.1,1.3-0.5,2.6-1.1,4c-0.6,1.3-1.5,2.5-2.7,3.5c-0.3,0.2-0.6,0.3-0.9,0.3c-0.3,0-0.6-0.2-0.9-0.4c-0.2-0.2-0.3-0.5-0.3-0.7
			c0-0.3,0.1-0.5,0.4-0.7c1.8-1.5,2.9-3.5,3.2-5.9c0-0.2-0.1-0.3-0.2-0.3h-3.1c-0.3,0-0.6-0.1-0.8-0.3c-0.2-0.2-0.3-0.5-0.3-0.8
			s0.1-0.6,0.3-0.8c0.2-0.2,0.5-0.3,0.8-0.3h3.2c0.2,0,0.3-0.1,0.3-0.3v-3.4c0-0.2-0.1-0.2-0.3-0.2h-2.5c-0.3,0-0.6-0.1-0.8-0.3
			s-0.3-0.5-0.3-0.8s0.1-0.6,0.3-0.8s0.5-0.3,0.8-0.3h15.6c0.3,0,0.6,0.1,0.8,0.3s0.3,0.5,0.3,0.8s-0.1,0.6-0.3,0.8
			s-0.5,0.3-0.8,0.3h-2.7c-0.2,0-0.3,0.1-0.3,0.2v3.4c0,0.2,0.1,0.3,0.3,0.3h3.5C191.9,61.7,192.2,61.8,192.4,62z M180.4,61.4
			c0,0.2,0.1,0.3,0.3,0.3h4.5c0.2,0,0.3-0.1,0.3-0.3v-3.4c0-0.2-0.1-0.2-0.3-0.2h-4.5c-0.2,0-0.3,0.1-0.3,0.2V61.4z M195.9,41.3
			c0.6,0,1,0.2,1.5,0.6c0.4,0.4,0.6,0.9,0.6,1.5v25.8c0,0.8-0.1,1.4-0.3,1.9s-0.6,0.8-1.1,1c-0.8,0.3-2.2,0.5-4.2,0.5
			c-0.4,0-0.8-0.1-1.1-0.4c-0.3-0.3-0.5-0.6-0.7-1c-0.1-0.3-0.1-0.6,0.1-0.9s0.4-0.4,0.8-0.4c0.7,0,1.3,0,1.8,0c0.5,0,0.9,0,1.2,0
			c0.3,0,0.5-0.1,0.6-0.2s0.2-0.3,0.2-0.6V53.6c0-0.2-0.1-0.2-0.2-0.2h-8.4c-0.6,0-1-0.2-1.5-0.6c-0.4-0.4-0.6-0.9-0.6-1.5v-7.9
			c0-0.6,0.2-1,0.6-1.5c0.4-0.4,0.9-0.6,1.5-0.6H195.9z M195.3,43.6c0-0.2-0.1-0.3-0.2-0.3h-7.7c-0.2,0-0.2,0.1-0.2,0.3V46
			c0,0.2,0.1,0.2,0.2,0.2h7.7c0.2,0,0.2-0.1,0.2-0.2V43.6z M187.2,51.1c0,0.2,0.1,0.3,0.2,0.3h7.7c0.2,0,0.2-0.1,0.2-0.3v-2.6
			c0-0.2-0.1-0.2-0.2-0.2h-7.7c-0.2,0-0.2,0.1-0.2,0.2V51.1z"/>
		<path id="XMLID_1013_" d="M237.6,64.2c0.3,0,0.6,0.1,0.8,0.4c0.2,0.2,0.4,0.5,0.4,0.8s-0.1,0.6-0.4,0.8c-0.2,0.2-0.5,0.4-0.8,0.4
			h-13.4c-0.2,0-0.3,0.1-0.3,0.3v3.7c0,0.4-0.1,0.7-0.4,0.9c-0.3,0.3-0.6,0.4-0.9,0.4c-0.4,0-0.7-0.1-0.9-0.4
			c-0.3-0.3-0.4-0.6-0.4-0.9v-3.7c0-0.2-0.1-0.3-0.2-0.3h-13.1c-0.3,0-0.6-0.1-0.8-0.4c-0.2-0.2-0.4-0.5-0.4-0.8s0.1-0.6,0.4-0.8
			c0.2-0.2,0.5-0.4,0.8-0.4H221c0.2,0,0.2-0.1,0.2-0.3v-2.4c0-0.2-0.1-0.3-0.2-0.3h-8.5c-0.6,0-1-0.2-1.5-0.6
			c-0.4-0.4-0.6-0.9-0.6-1.5v-9.8c0-0.6,0.2-1,0.6-1.5c0.4-0.4,0.9-0.6,1.5-0.6h8.5c0.2,0,0.2-0.1,0.2-0.2v-2.1
			c0-0.2-0.1-0.2-0.2-0.2h-12c-0.3,0-0.6-0.1-0.9-0.4s-0.4-0.5-0.4-0.9s0.1-0.6,0.4-0.9s0.5-0.4,0.9-0.4h12c0.2,0,0.2-0.1,0.2-0.2
			v-1.6c0-0.4,0.1-0.7,0.4-1c0.3-0.3,0.6-0.4,0.9-0.4c0.4,0,0.7,0.1,0.9,0.4c0.3,0.3,0.4,0.6,0.4,1V42c0,0.2,0.1,0.2,0.3,0.2h12.1
			c0.3,0,0.6,0.1,0.9,0.4s0.4,0.5,0.4,0.9s-0.1,0.6-0.4,0.9s-0.5,0.4-0.9,0.4h-12.1c-0.2,0-0.3,0.1-0.3,0.2V47
			c0,0.2,0.1,0.2,0.3,0.2h8.7c0.6,0,1,0.2,1.5,0.6c0.4,0.4,0.6,0.9,0.6,1.5v9.8c0,0.6-0.2,1-0.6,1.5c-0.4,0.4-0.9,0.6-1.5,0.6h-8.7
			c-0.2,0-0.3,0.1-0.3,0.3v2.4c0,0.2,0.1,0.3,0.3,0.3H237.6z M213.3,49.5c-0.2,0-0.2,0.1-0.2,0.2V53c0,0.2,0.1,0.2,0.2,0.2h7.7
			c0.2,0,0.2-0.1,0.2-0.2v-3.2c0-0.2-0.1-0.2-0.2-0.2H213.3z M213,58.8c0,0.2,0.1,0.2,0.2,0.2h7.7c0.2,0,0.2-0.1,0.2-0.2v-3.2
			c0-0.2-0.1-0.3-0.2-0.3h-7.7c-0.2,0-0.2,0.1-0.2,0.3V58.8z M232.3,49.8c0-0.2-0.1-0.2-0.2-0.2h-7.9c-0.2,0-0.3,0.1-0.3,0.2V53
			c0,0.2,0.1,0.2,0.3,0.2h7.9c0.2,0,0.2-0.1,0.2-0.2V49.8z M232.1,59c0.2,0,0.2-0.1,0.2-0.2v-3.2c0-0.2-0.1-0.3-0.2-0.3h-7.9
			c-0.2,0-0.3,0.1-0.3,0.3v3.2c0,0.2,0.1,0.2,0.3,0.2H232.1z"/>
		<path id="XMLID_1019_" d="M259.2,59c0.3,0.3,0.5,0.6,0.5,1.1c0,0.4-0.1,0.7-0.3,0.9s-0.5,0.4-0.8,0.4c-0.3,0-0.6-0.1-0.9-0.4
			c-0.9-1.1-2-2.2-3.2-3.5c0,0-0.1,0-0.1,0c0,0-0.1,0-0.1,0.1v13.7c0,0.4-0.1,0.7-0.4,0.9c-0.3,0.3-0.6,0.4-0.9,0.4
			c-0.4,0-0.7-0.1-0.9-0.4c-0.3-0.3-0.4-0.6-0.4-0.9V59c0,0,0-0.1-0.1-0.1c0,0-0.1,0-0.1,0c-1.3,1.3-2.6,2.5-3.8,3.4
			c-0.3,0.2-0.6,0.3-1,0.2c-0.3-0.1-0.6-0.3-0.8-0.6c-0.1-0.2-0.2-0.5-0.2-0.7c0-0.1,0-0.2,0-0.3c0.1-0.4,0.3-0.7,0.6-0.9
			c1.9-1.3,3.6-2.9,5.3-4.8c1.7-1.9,3-3.9,4.1-6c0-0.1,0-0.1,0-0.2c0,0-0.1-0.1-0.1-0.1h-7.9c-0.3,0-0.6-0.1-0.9-0.4
			s-0.4-0.5-0.4-0.9s0.1-0.6,0.4-0.9s0.5-0.4,0.9-0.4h3.7c0.2,0,0.3-0.1,0.3-0.2v-5.1c0-0.4,0.1-0.7,0.4-0.9
			c0.3-0.3,0.6-0.4,0.9-0.4c0.4,0,0.7,0.1,0.9,0.4c0.3,0.3,0.4,0.6,0.4,0.9v5.1c0,0.2,0.1,0.2,0.2,0.2h2.6c0,0,0.1,0,0.1,0
			c0.3-0.1,0.5,0,0.8,0.1l0.4,0.2c0.2,0.1,0.4,0.3,0.4,0.6c0.1,0.2,0.1,0.5-0.1,0.7c-0.9,2.2-2.2,4.4-3.8,6.6
			c-0.1,0.1-0.1,0.3,0.1,0.4C256.3,56.2,257.7,57.5,259.2,59z M273,70.1h2.7c0.4,0,0.6-0.2,0.8-0.6c0.1-0.4,0.2-1.2,0.3-2.5
			c0-0.3,0.1-0.5,0.4-0.6c0.2-0.1,0.5-0.1,0.7,0c0.4,0.1,0.6,0.4,0.8,0.6c0.2,0.3,0.3,0.5,0.3,0.8c0,1.5-0.3,2.7-0.9,3.6
			c-0.4,0.6-1.1,0.9-2,0.9h-3.3c-1.2,0-2-0.2-2.4-0.7c-0.4-0.4-0.6-1.3-0.6-2.6v-7.2c0-0.2-0.1-0.2-0.3-0.2H267
			c-0.2,0-0.3,0.1-0.3,0.2c-0.3,2.5-1,4.6-2,6.3s-2.6,3-4.8,4c-0.4,0.1-0.7,0.2-1,0c-0.3-0.1-0.6-0.3-0.9-0.6
			c-0.1-0.2-0.2-0.4-0.2-0.6c0-0.1,0-0.2,0-0.2c0.1-0.3,0.2-0.5,0.5-0.6c1.9-0.8,3.2-1.9,4.1-3.2c0.9-1.3,1.4-3,1.7-5
			c0-0.2,0-0.2-0.2-0.2h-0.5c-0.6,0-1-0.2-1.5-0.6c-0.4-0.4-0.6-0.9-0.6-1.5V43.7c0-0.6,0.2-1,0.6-1.5c0.4-0.4,0.9-0.6,1.5-0.6h10.9
			c0.6,0,1.1,0.2,1.5,0.6c0.4,0.4,0.6,0.9,0.6,1.5v15.9c0,0.6-0.2,1-0.6,1.5c-0.4,0.4-0.9,0.6-1.5,0.6h-1.9c-0.2,0-0.2,0.1-0.2,0.2
			v7.2c0,0.4,0.1,0.7,0.2,0.8C272.3,70.1,272.6,70.1,273,70.1z M264,43.8c-0.2,0-0.2,0.1-0.2,0.2v3.2c0,0.2,0.1,0.2,0.2,0.2h9.5
			c0.2,0,0.3-0.1,0.3-0.2v-3.2c0-0.2-0.1-0.2-0.3-0.2H264z M264,49.7c-0.2,0-0.2,0.1-0.2,0.2v3.3c0,0.2,0.1,0.2,0.2,0.2h9.5
			c0.2,0,0.3-0.1,0.3-0.2v-3.3c0-0.2-0.1-0.2-0.3-0.2H264z M264,55.6c-0.2,0-0.2,0.1-0.2,0.3v3.3c0,0.2,0.1,0.2,0.2,0.2h9.5
			c0.2,0,0.3-0.1,0.3-0.2v-3.3c0-0.2-0.1-0.3-0.3-0.3H264z"/>
		<path id="XMLID_1025_" d="M296.3,57.5c-0.1-0.1-0.2-0.2-0.4-0.2l-2.3,0.1c-0.2,0-0.3,0.1-0.3,0.3v13.7c0,0.3-0.1,0.6-0.3,0.8
			c-0.2,0.2-0.5,0.4-0.8,0.4c-0.3,0-0.6-0.1-0.8-0.4c-0.2-0.2-0.4-0.5-0.4-0.8V57.9c0-0.2-0.1-0.2-0.3-0.2l-4.2,0.3
			c-0.3,0-0.6-0.1-0.9-0.3c-0.3-0.2-0.5-0.6-0.5-0.9c0-0.3,0.1-0.5,0.3-0.7c0.2-0.2,0.5-0.4,0.8-0.4l1,0c0.2,0,0.3-0.1,0.4-0.2
			c0.7-0.8,1.3-1.6,1.9-2.5c0.1-0.2,0.1-0.3,0-0.5c-0.9-1.3-2.1-2.7-3.6-4.2c-0.2-0.2-0.3-0.5-0.3-0.8c0-0.3,0.1-0.6,0.3-0.8
			c0.2-0.2,0.5-0.4,0.8-0.4c0.3,0,0.6,0.1,0.8,0.3c0,0,0.1,0.1,0.1,0.1c0.1,0.1,0.2,0.1,0.2,0c0.9-1.6,1.8-3.4,2.7-5.4
			c0.1-0.3,0.3-0.6,0.7-0.7s0.6-0.2,1,0c0.3,0.1,0.5,0.3,0.7,0.7c0.1,0.3,0.1,0.6-0.1,0.9c-1.3,2.6-2.4,4.6-3.4,6.1
			c-0.1,0.1-0.1,0.3,0,0.4c0.5,0.6,1.1,1.2,1.6,1.9c0.1,0.1,0.2,0.1,0.3,0c1.1-1.7,2.2-3.5,3.1-5.2c0.2-0.3,0.4-0.5,0.7-0.6
			c0.3-0.1,0.6-0.1,0.9,0c0.3,0.1,0.5,0.4,0.6,0.7c0.1,0.3,0,0.6-0.1,0.9c-2.4,3.8-4.5,6.8-6.4,9.1c0,0-0.1,0.1,0,0.1
			c0,0,0.1,0.1,0.1,0.1l4.6-0.2c0.1,0,0.1,0,0.1-0.1c0,0,0-0.1,0-0.2c-0.3-0.7-0.6-1.3-0.9-1.9c-0.1-0.2-0.2-0.5-0.1-0.8
			c0.1-0.3,0.3-0.5,0.5-0.5c0.3-0.1,0.6-0.1,0.9,0c0.3,0.1,0.5,0.3,0.7,0.5c1.1,1.8,1.9,3.6,2.6,5.4c0.1,0.3,0.1,0.6,0,0.9
			s-0.4,0.5-0.7,0.7c-0.3,0.1-0.6,0.1-0.8,0c-0.3-0.1-0.5-0.3-0.5-0.7C296.5,58.2,296.4,57.9,296.3,57.5z M287,61.3
			c0-0.3,0.2-0.6,0.4-0.7s0.5-0.3,0.8-0.2c0.3,0.1,0.6,0.2,0.8,0.5c0.2,0.3,0.3,0.5,0.2,0.8c-0.5,2.8-1.1,5.2-1.9,7
			c-0.1,0.3-0.3,0.5-0.6,0.5s-0.6,0.1-0.8-0.1c-0.3-0.1-0.5-0.3-0.6-0.6s-0.1-0.6,0-0.8C286.1,66.1,286.6,63.9,287,61.3z M295,61.6
			c0-0.1-0.1-0.2-0.1-0.4c0-0.1,0-0.3,0.1-0.4c0.1-0.2,0.3-0.4,0.6-0.5c0.3-0.1,0.6-0.1,0.8,0.1c0.3,0.1,0.5,0.3,0.6,0.6
			c0.6,1.4,1,2.9,1.3,4.3c0.1,0.3,0,0.6-0.1,0.9c-0.2,0.3-0.4,0.5-0.7,0.5c-0.3,0.1-0.5,0.1-0.8-0.1c-0.2-0.2-0.4-0.4-0.4-0.7
			C295.9,64.6,295.5,63.1,295,61.6z M303.8,59.2c0.6,0,1.1,0.1,1.5,0.2c0.2,0.1,0.4,0.2,0.5,0.4s0.1,0.4,0.1,0.6
			c-1.1,4.5-3.3,7.8-6.4,10.1c-0.3,0.2-0.6,0.2-1,0.2c-0.3-0.1-0.6-0.2-0.9-0.5c-0.2-0.2-0.3-0.4-0.3-0.7c0-0.4,0.1-0.6,0.4-0.8
			c2.5-1.6,4.2-3.9,5.3-7c0-0.1,0-0.1,0-0.2s-0.1-0.1-0.2-0.1h-3.4c-0.3,0-0.6-0.1-0.8-0.3c-0.2-0.2-0.3-0.5-0.3-0.8
			s0.1-0.6,0.3-0.8c0.2-0.2,0.5-0.3,0.8-0.3H303.8z M315,58.6c0.3-0.3,0.6-0.4,0.9-0.5c0.4,0,0.7,0.1,1,0.3c0.3,0.2,0.4,0.5,0.4,0.8
			c0,0.4-0.1,0.6-0.4,0.8c-1.5,1.4-3,2.5-4.3,3.5c-0.1,0.1-0.2,0.2-0.1,0.4c1.4,1.9,3,3.4,5,4.5c0.3,0.1,0.5,0.4,0.5,0.7
			c0,0.1,0,0.2,0,0.2c0,0.2-0.1,0.5-0.2,0.7c-0.3,0.3-0.6,0.5-0.9,0.6s-0.7,0-1-0.1c-2.8-1.8-5-4.4-6.6-7.8c0,0,0,0-0.1,0
			s-0.1,0-0.1,0.1v7.1c0,0.7-0.1,1.2-0.2,1.6c-0.2,0.4-0.5,0.7-0.9,0.9c-0.6,0.2-1.7,0.4-3.3,0.4h0c-0.3,0-0.6-0.1-0.9-0.4
			c-0.3-0.2-0.5-0.5-0.6-0.8c-0.1-0.3,0-0.5,0.1-0.7c0.2-0.2,0.4-0.4,0.7-0.4c0.4,0,0.8,0,1.1,0c0.6,0,1,0,1.2,0
			c0.2,0,0.4,0,0.5-0.1s0.1-0.2,0.1-0.4V56.4c0-0.2-0.1-0.2-0.2-0.2h-4.9c-0.6,0-1.1-0.2-1.5-0.6c-0.4-0.4-0.6-0.9-0.6-1.5v-8.5
			c0-0.6,0.2-1,0.6-1.5c0.4-0.4,0.9-0.6,1.5-0.6h3.6c0.2,0,0.3-0.1,0.4-0.2c0.3-0.7,0.6-1.4,0.8-2.1c0.1-0.4,0.4-0.7,0.8-0.9
			c0.3-0.2,0.5-0.2,0.8-0.2c0.1,0,0.2,0,0.3,0c0.4,0.1,0.7,0.3,0.8,0.6s0.2,0.7,0,1c-0.2,0.4-0.5,0.9-0.8,1.6c0,0,0,0.1,0,0.1
			c0,0,0.1,0.1,0.1,0.1h6.1c0.6,0,1,0.2,1.5,0.6c0.4,0.4,0.6,0.9,0.6,1.5V54c0,0.6-0.2,1-0.6,1.5c-0.4,0.4-0.9,0.6-1.5,0.6h-5.1
			c-0.2,0-0.2,0.1-0.2,0.2s0,0.3,0.1,0.5c0.4,1.7,1.1,3.4,1.9,4.9c0.1,0.2,0.2,0.2,0.3,0.1C312.8,60.8,313.9,59.8,315,58.6z
			 M302.4,45.6c-0.2,0-0.3,0.1-0.3,0.2v2.6c0,0.2,0.1,0.3,0.3,0.3H314c0.2,0,0.2-0.1,0.2-0.3v-2.6c0-0.2-0.1-0.2-0.2-0.2H302.4z
			 M302.4,50.8c-0.2,0-0.3,0.1-0.3,0.3v2.6c0,0.2,0.1,0.2,0.3,0.2H314c0.2,0,0.2-0.1,0.2-0.2v-2.6c0-0.2-0.1-0.3-0.2-0.3H302.4z"/>
		<path id="XMLID_1033_" d="M342.4,59.7c-0.1,0.4-0.2,0.8-0.5,1.1c-0.3,0.3-0.6,0.4-0.9,0.4c-0.4,0-0.8-0.1-1.2-0.4
			c-0.3-0.3-0.4-0.6-0.4-0.9c0-0.9,0.3-1.8,0.9-2.7c0.5-0.8,1.2-1.5,1.9-2.1c0.7-0.6,1.4-1.2,2.1-1.7s1.3-1.2,1.8-1.8s0.7-1.3,0.7-2
			c0-1.3-0.5-2.3-1.4-3.1c-0.9-0.8-2.3-1.2-4.1-1.2c-2.1,0-4.1,0.8-5.9,2.3c-0.3,0.3-0.6,0.4-1,0.4c-0.4,0-0.7-0.1-0.9-0.4
			c-0.3-0.3-0.4-0.6-0.4-0.9c0-0.4,0.1-0.6,0.4-0.9c2.4-2.2,5.1-3.2,8.2-3.2c2.6,0,4.6,0.6,6.1,1.8c1.5,1.2,2.2,2.8,2.2,4.9
			c0,0.9-0.2,1.8-0.7,2.5s-1.1,1.5-1.8,2.1s-1.4,1.2-2.1,1.8c-0.7,0.6-1.4,1.2-2,1.9C342.9,58.2,342.5,59,342.4,59.7z M339,69.3
			c-0.6-0.5-0.8-1.2-0.8-2.1s0.3-1.5,0.8-2s1.2-0.8,2.1-0.8s1.5,0.3,2.1,0.8s0.8,1.2,0.8,2s-0.3,1.5-0.8,2.1s-1.2,0.8-2.1,0.8
			S339.5,69.8,339,69.3z"/>
		<path id="XMLID_1036_" class="st1" d="M382.6,14.7c1.1,0,2.1,0.4,2.9,1.2c0.8,0.8,1.2,1.8,1.2,3v38.3c0,1.2-0.4,2.2-1.2,3
			c-0.8,0.8-1.8,1.2-2.9,1.2h-8.8c-0.4,0-0.6,0.2-0.6,0.6v3c0,0.6-0.2,1.1-0.6,1.6c-0.4,0.4-0.9,0.7-1.6,0.7s-1.2-0.2-1.6-0.7
			c-0.4-0.4-0.6-1-0.6-1.6v-46c0-1.2,0.4-2.2,1.2-3c0.8-0.8,1.8-1.2,3-1.2H382.6z M382.1,20c0-0.4-0.2-0.6-0.5-0.6h-7.9
			c-0.4,0-0.6,0.2-0.6,0.6v14.9c0,0.4,0.2,0.6,0.6,0.6h7.9c0.3,0,0.5-0.2,0.5-0.6V20z M373.2,56c0,0.4,0.2,0.6,0.6,0.6h7.9
			c0.3,0,0.5-0.2,0.5-0.6V40.6c0-0.4-0.2-0.6-0.5-0.6h-7.9c-0.4,0-0.6,0.2-0.6,0.6V56z M413.7,32.3c0,0.4,0.2,0.6,0.5,0.6h15.6
			c0.6,0,1,0.2,1.4,0.6c0.4,0.4,0.6,0.9,0.6,1.4s-0.2,1-0.6,1.4c-0.4,0.4-0.9,0.6-1.4,0.6h-37.7c-0.6,0-1-0.2-1.4-0.6
			c-0.4-0.4-0.6-0.9-0.6-1.4s0.2-1,0.6-1.4c0.4-0.4,0.9-0.6,1.4-0.6H408c0.3,0,0.5-0.2,0.5-0.6v-3.8c0-0.4-0.2-0.6-0.5-0.6h-12.2
			c-0.6,0-1-0.2-1.4-0.6c-0.4-0.4-0.6-0.8-0.6-1.4c0-0.5,0.2-1,0.6-1.4c0.4-0.4,0.8-0.6,1.4-0.6H408c0.3,0,0.5-0.2,0.5-0.6v-3.3
			c0-0.4-0.2-0.6-0.5-0.6h-13.9c-0.6,0-1-0.2-1.4-0.6c-0.4-0.4-0.6-0.9-0.6-1.4s0.2-1,0.6-1.4c0.4-0.4,0.9-0.6,1.4-0.6H408
			c0.3,0,0.5-0.2,0.5-0.6v-2.7c0-0.7,0.3-1.3,0.8-1.8c0.5-0.5,1.1-0.8,1.8-0.8s1.3,0.3,1.8,0.8c0.5,0.5,0.8,1.1,0.8,1.8V15
			c0,0.4,0.2,0.6,0.5,0.6h14.2c0.6,0,1,0.2,1.4,0.6c0.4,0.4,0.6,0.9,0.6,1.4s-0.2,1-0.6,1.4c-0.4,0.4-0.9,0.6-1.4,0.6h-14.2
			c-0.3,0-0.5,0.2-0.5,0.6v3.3c0,0.4,0.2,0.6,0.5,0.6h12.9c0.6,0,1,0.2,1.4,0.6c0.4,0.4,0.6,0.8,0.6,1.4c0,0.5-0.2,1-0.6,1.4
			c-0.4,0.4-0.8,0.6-1.4,0.6h-12.9c-0.3,0-0.5,0.2-0.5,0.6V32.3z M423.2,41.2c1.2,0,2.2,0.4,3,1.2c0.8,0.8,1.2,1.8,1.2,2.9v24.5
			c0,1.3-0.2,2.3-0.5,3s-1,1.3-1.9,1.7c-1.2,0.5-3.5,0.7-7,0.8c-0.7,0-1.3-0.2-1.8-0.6c-0.5-0.4-0.9-1-1.2-1.7
			c-0.2-0.5-0.1-1,0.2-1.4c0.3-0.4,0.7-0.7,1.3-0.7c1.5,0,3,0,4.6,0c0.5,0,0.8-0.1,0.9-0.2c0.2-0.1,0.2-0.4,0.2-0.8v-5.7
			c0-0.3-0.2-0.5-0.6-0.5h-21.1c-0.4,0-0.6,0.2-0.6,0.5v8.6c0,0.7-0.2,1.3-0.7,1.8c-0.5,0.5-1.1,0.7-1.8,0.7s-1.3-0.2-1.8-0.7
			c-0.5-0.5-0.7-1.1-0.7-1.8V45.4c0-1.1,0.4-2.1,1.2-2.9c0.8-0.8,1.8-1.2,3-1.2H423.2z M422.4,45.9c0-0.3-0.2-0.5-0.6-0.5h-21.1
			c-0.4,0-0.6,0.2-0.6,0.5v4.3c0,0.4,0.2,0.6,0.6,0.6h21.1c0.4,0,0.6-0.2,0.6-0.6V45.9z M400.1,59.4c0,0.4,0.2,0.6,0.6,0.6h21.1
			c0.4,0,0.6-0.2,0.6-0.6v-4.3c0-0.3-0.2-0.5-0.6-0.5h-21.1c-0.4,0-0.6,0.2-0.6,0.5V59.4z"/>
		<path id="XMLID_1044_" class="st1" d="M507.1,38.2c0.5,0.5,0.8,1.2,0.8,1.9c0,0.8-0.3,1.4-0.8,1.9c-0.5,0.5-1.2,0.8-1.9,0.8h-22.4
			c-0.1,0-0.2,0-0.3,0.1c-0.1,0.1-0.1,0.2,0,0.4c2.2,6.7,5.5,12.2,9.8,16.6c4.3,4.4,9.8,7.6,16.4,9.7c0.7,0.2,1.1,0.7,1.3,1.3
			c0,0.2,0.1,0.4,0.1,0.6c0,0.4-0.1,0.8-0.4,1.3c-0.5,0.7-1.2,1.3-2,1.6c-0.5,0.2-0.9,0.3-1.3,0.3s-0.8-0.1-1.2-0.2
			c-6.3-2.2-11.5-5.4-15.8-9.6s-7.6-9.5-10.3-15.9c0-0.1-0.1-0.1-0.2-0.1s-0.1,0-0.2,0.1c-1.6,5.3-4.6,10.2-8.9,14.4
			c-4.3,4.3-10.4,8-18.4,11c-0.4,0.1-0.7,0.2-1.1,0.2c-0.4,0-0.8-0.1-1.2-0.2c-0.8-0.3-1.4-0.8-1.8-1.5c-0.4-0.6-0.5-1.2-0.3-1.8
			c0.2-0.6,0.6-1.1,1.2-1.3c4.4-1.7,8.1-3.6,11.4-5.6c3.2-2.1,5.8-4.3,7.7-6.6c1.9-2.3,3.5-4.7,4.5-7c1.1-2.3,1.9-4.8,2.4-7.4
			c0.1-0.3,0-0.5-0.4-0.5h-21.9c-0.8,0-1.4-0.3-1.9-0.8c-0.5-0.5-0.8-1.2-0.8-1.9c0-0.7,0.3-1.4,0.8-1.9c0.5-0.5,1.2-0.8,1.9-0.8
			h22.5c0.4,0,0.6-0.2,0.6-0.5c0-0.8,0.1-2,0.1-3.6V21.2c0-0.3-0.2-0.5-0.6-0.5h-24.9c-0.8,0-1.4-0.3-1.9-0.8
			c-0.5-0.5-0.8-1.2-0.8-1.9c0-0.7,0.3-1.4,0.8-1.9c0.5-0.5,1.1-0.8,1.9-0.8H507c0.7,0,1.4,0.3,1.9,0.8c0.5,0.5,0.8,1.2,0.8,1.9
			c0,0.8-0.3,1.4-0.8,1.9c-0.5,0.5-1.1,0.8-1.9,0.8h-25.9c-0.3,0-0.5,0.2-0.5,0.5v12.2c0,1.5,0,2.7-0.1,3.5c0,0.3,0.2,0.5,0.5,0.5
			h24.1C505.9,37.4,506.5,37.7,507.1,38.2z"/>
		<path id="XMLID_1046_" d="M528.1,61.7c0,0.2,0,0.3,0.2,0.3h6.2c0.6,0,1,0.2,1.4,0.6c0.3,0.4,0.5,0.8,0.5,1.3c0,0,0,0.1,0,0.2
			c-0.2,2.4-0.5,4.2-0.7,5.3c-0.3,1.1-0.6,1.9-1,2.4c-0.5,0.5-1.3,0.8-2.4,0.9c-0.4,0-0.9,0-1.4,0c-0.7,0-1.4,0-2.2,0
			c-0.3,0-0.6-0.1-0.9-0.4c-0.3-0.2-0.4-0.5-0.6-0.9c-0.1-0.2-0.1-0.5,0.1-0.7s0.3-0.3,0.6-0.3c1.2,0.1,2.4,0.1,3.4,0.1
			c0.7,0,1.1-0.1,1.3-0.3c0.5-0.5,1-2.4,1.3-5.8c0-0.2-0.1-0.3-0.2-0.3h-6c-0.1,0-0.1,0-0.1,0.1c0,0.3-0.2,0.5-0.4,0.6
			c-0.2,0.1-0.5,0.2-0.7,0.1l-0.2,0c-0.3,0-0.5-0.2-0.7-0.5c-0.2-0.3-0.2-0.5-0.1-0.8c0.4-1.6,0.8-3.2,1.1-5
			c0.1-0.6,0.4-1.1,0.9-1.5s1-0.6,1.6-0.6h4.9c0.2,0,0.2-0.1,0.2-0.2v-3.2c0-0.2-0.1-0.2-0.2-0.2H528c-0.2,0-0.3-0.1-0.3-0.3
			c0,0,0,0,0,0c-0.8,0.4-1.6,0.8-2.5,1.1c-0.3,0.1-0.7,0.1-1,0c-0.3-0.1-0.6-0.3-0.8-0.6c-0.1-0.2-0.2-0.3-0.2-0.5
			c0-0.1,0-0.2,0-0.2c0.1-0.3,0.2-0.5,0.5-0.6c2-0.7,3.9-1.7,5.6-2.8c0.2-0.1,0.2-0.2,0-0.3c-0.8-0.8-1.7-1.5-2.9-2.4
			c-0.2-0.1-0.4-0.3-0.4-0.6s0.1-0.5,0.3-0.7c0.2-0.2,0.5-0.3,0.8-0.4c0.3,0,0.6,0,0.9,0.2c1.3,0.8,2.3,1.7,3.2,2.5
			c0.1,0.1,0.3,0.1,0.4,0c1.2-1.1,2.2-2.2,3.1-3.4c0,0,0-0.1,0-0.2c0-0.1-0.1-0.1-0.1-0.1h-7c-0.3,0-0.6-0.1-0.8-0.3
			c-0.2-0.2-0.3-0.5-0.3-0.8s0.1-0.6,0.3-0.8c0.2-0.2,0.5-0.3,0.8-0.3h8.6c0,0,0.1,0,0.1,0c0.3-0.1,0.5,0,0.8,0.1l0.5,0.2
			c0.2,0.1,0.4,0.3,0.5,0.5c0.1,0.2,0.1,0.5-0.1,0.7c-1.5,2.9-3.8,5.5-7,7.6c0,0,0,0.1,0,0.1c0,0,0,0.1,0.1,0.1h3.2
			c0.6,0,1,0.2,1.5,0.6c0.4,0.4,0.6,0.9,0.6,1.5v5.3c0,0.3-0.1,0.6-0.4,0.8c-0.2,0.2-0.5,0.4-0.8,0.4h-0.6c-0.2,0-0.3-0.1-0.4-0.2
			c-0.1-0.1-0.2-0.2-0.2-0.4c0-0.1,0-0.1-0.1-0.1h-5c-0.2,0-0.3,0.1-0.3,0.3C528.3,60.6,528.1,61.6,528.1,61.7z M550.5,60.9
			c0.3-0.1,0.5-0.1,0.7,0l0.4,0.2c0.2,0.1,0.3,0.2,0.4,0.4c0.1,0.2,0.1,0.4,0,0.6c-0.9,2.3-2.4,4.3-4.3,5.9c-0.1,0.1-0.1,0.2,0,0.3
			c1.8,0.9,3.7,1.5,5.9,1.9c0.3,0,0.5,0.2,0.6,0.5s0.1,0.5-0.1,0.8c-0.2,0.4-0.5,0.6-0.9,0.8c-0.2,0.1-0.5,0.1-0.7,0.1
			c-0.1,0-0.3,0-0.4,0c-2.4-0.6-4.6-1.4-6.4-2.6c-0.1-0.1-0.3-0.1-0.4,0c-1.9,1.1-4,1.9-6.5,2.6c-0.1,0-0.2,0-0.4,0
			c-0.2,0-0.4,0-0.6-0.1c-0.3-0.1-0.5-0.4-0.7-0.7c-0.1-0.1-0.1-0.2-0.1-0.4c0-0.1,0-0.2,0.1-0.3c0.1-0.3,0.3-0.4,0.5-0.5
			c2.2-0.5,4.1-1.2,5.8-2.1c0.2-0.1,0.2-0.2,0-0.3c-1.2-1.1-2.2-2.3-3-3.6c-0.2-0.3-0.2-0.6,0-0.9s0.4-0.5,0.7-0.6c0,0,0,0,0,0
			s0,0,0,0h-1.6c-0.3,0-0.5-0.1-0.7-0.3c-0.2-0.2-0.3-0.4-0.3-0.7s0.1-0.5,0.3-0.7c0.2-0.2,0.4-0.3,0.7-0.3h10.9
			C550.4,60.9,550.5,60.9,550.5,60.9z M552.2,44.4c0.2-0.2,0.5-0.4,0.9-0.4s0.7,0.1,0.9,0.2c0.3,0.2,0.4,0.4,0.4,0.7
			c0,0.3-0.1,0.6-0.3,0.8c-1.3,1.1-2.6,2.1-3.9,3c0,0-0.1,0.1-0.1,0.1s0,0.1,0.1,0.2c1.5,0.8,3,1.5,4.6,2c0.3,0.1,0.5,0.3,0.6,0.6
			c0,0.1,0,0.2,0,0.3c0,0.2-0.1,0.4-0.2,0.5c-0.3,0.3-0.6,0.6-0.9,0.7c-0.2,0.1-0.4,0.1-0.6,0.1c-0.2,0-0.4,0-0.5-0.1
			c-1.3-0.5-2.5-1-3.7-1.7c0,0-0.1,0-0.1,0c0,0-0.1,0.1-0.1,0.1v4.6c0,0.5,0.1,0.8,0.2,0.9c0.1,0.1,0.3,0.1,0.6,0.1h1.1
			c0.2,0,0.4,0,0.5,0c0.2,0,0.3-0.1,0.5-0.2c0.1-0.1,0.2-0.2,0.2-0.4c0-0.1,0-0.4,0.1-0.8c0-0.2,0.1-0.4,0.4-0.5s0.4-0.1,0.6,0
			c0.6,0.3,0.9,0.7,0.9,1.3c0,0.1,0,0.1,0,0.2c-0.1,0.6-0.2,1.1-0.3,1.3c-0.2,0.4-0.6,0.6-1.1,0.8c-0.4,0.1-0.9,0.2-1.6,0.2h-1.8
			c-0.9,0-1.5-0.2-2-0.6c-0.4-0.4-0.6-1.3-0.6-2.7v-3c0-0.2-0.1-0.2-0.2-0.2h-4.4c-0.2,0-0.2,0.1-0.2,0.2v0.4c0,2.6-1,4.7-2.9,6.2
			c-0.2,0.2-0.5,0.2-0.7,0.2c-0.1,0-0.1,0-0.2,0c-0.3,0-0.6-0.2-0.9-0.4c-0.2-0.2-0.3-0.4-0.3-0.7c0-0.3,0.1-0.6,0.4-0.8
			c1.5-1.1,2.3-2.7,2.3-4.6v-0.7c0-0.6,0.2-1,0.6-1.5c0.4-0.4,0.9-0.6,1.5-0.6h5.8c0,0,0.1,0,0.1-0.1c0,0,0-0.1-0.1-0.1
			c-3.5-2.3-6.1-5.3-7.9-8.9c-0.1-0.3-0.2-0.5,0-0.8c0.1-0.3,0.3-0.5,0.6-0.5c0.1,0,0.3-0.1,0.4-0.1c0.2,0,0.3,0,0.5,0.1
			c0.3,0.1,0.5,0.3,0.7,0.6c0.6,1.1,1.3,2.2,2.1,3.2c0.1,0.1,0.2,0.2,0.4,0c1.1-0.9,2.3-1.9,3.5-3.1c0.3-0.3,0.6-0.4,0.9-0.4
			c0.3,0,0.7,0.1,0.9,0.2c0.3,0.2,0.4,0.4,0.4,0.7c0,0.3-0.1,0.6-0.3,0.8c-1.2,1.1-2.6,2.1-4.1,3.2c-0.1,0.1-0.2,0.2,0,0.4
			c0.8,0.7,1.5,1.3,2.2,1.8c0.1,0.1,0.3,0.1,0.4,0C549.7,46.7,550.9,45.6,552.2,44.4z M549.1,63c0,0,0-0.1,0-0.2
			c0-0.1-0.1-0.1-0.1-0.1h-6.7c0,0-0.1,0-0.1,0.1s0,0.1,0,0.2c0.8,1.4,1.9,2.7,3.3,3.8c0.1,0.1,0.3,0.1,0.4,0
			C547.3,65.7,548.3,64.5,549.1,63z"/>
		<path id="XMLID_1051_" d="M580.5,67.9c0,0.2,0.1,0.2,0.2,0.2h13c0.4,0,0.7,0.1,0.9,0.4s0.4,0.6,0.4,0.9s-0.1,0.7-0.4,0.9
			s-0.6,0.4-0.9,0.4h-29.3c-0.4,0-0.7-0.1-0.9-0.4s-0.4-0.6-0.4-0.9s0.1-0.7,0.4-0.9s0.6-0.4,0.9-0.4h13c0.2,0,0.2-0.1,0.2-0.2v-8.6
			c0-0.2-0.1-0.2-0.2-0.2h-9.1c-0.4,0-0.7-0.1-0.9-0.4s-0.4-0.6-0.4-0.9s0.1-0.7,0.4-0.9s0.6-0.4,0.9-0.4h9.1c0.2,0,0.2-0.1,0.2-0.3
			v-7.3c0-0.2-0.1-0.3-0.2-0.3h-7.9c-0.2,0-0.3,0.1-0.4,0.2c-0.9,1.7-1.8,3.2-2.7,4.5c-0.2,0.3-0.6,0.5-1,0.5c-0.1,0-0.1,0-0.2,0
			c-0.3,0-0.6-0.1-0.9-0.3c-0.3-0.2-0.5-0.5-0.6-0.8s0-0.7,0.2-1c2.2-2.7,4-6.4,5.3-10.8c0.1-0.4,0.3-0.7,0.7-0.9s0.7-0.3,1.1-0.2
			c0.4,0.1,0.7,0.3,0.8,0.6s0.2,0.7,0.1,1c-0.5,1.5-1,2.9-1.5,4.2c0,0.1,0,0.1,0,0.2s0.1,0.1,0.1,0.1h6.8c0.2,0,0.2-0.1,0.2-0.3
			v-5.3c0-0.4,0.1-0.7,0.4-1s0.6-0.4,1-0.4s0.7,0.1,1,0.4s0.4,0.6,0.4,1v5.3c0,0.2,0.1,0.3,0.2,0.3h11.4c0.4,0,0.7,0.1,0.9,0.4
			s0.4,0.6,0.4,0.9s-0.1,0.7-0.4,0.9s-0.6,0.4-0.9,0.4h-11.4c-0.2,0-0.2,0.1-0.2,0.3v7.3c0,0.2,0.1,0.3,0.2,0.3h10.1
			c0.4,0,0.7,0.1,0.9,0.4s0.4,0.6,0.4,0.9s-0.1,0.7-0.4,0.9s-0.5,0.4-0.9,0.4h-10.1c-0.2,0-0.2,0.1-0.2,0.2V67.9z"/>
		<path id="XMLID_1053_" d="M633.6,64.2c0.3,0,0.6,0.1,0.8,0.4c0.2,0.2,0.4,0.5,0.4,0.8s-0.1,0.6-0.4,0.8c-0.2,0.2-0.5,0.4-0.8,0.4
			h-13.4c-0.2,0-0.3,0.1-0.3,0.3v3.7c0,0.4-0.1,0.7-0.4,0.9c-0.3,0.3-0.6,0.4-0.9,0.4c-0.4,0-0.7-0.1-0.9-0.4
			c-0.3-0.3-0.4-0.6-0.4-0.9v-3.7c0-0.2-0.1-0.3-0.2-0.3h-13.1c-0.3,0-0.6-0.1-0.8-0.4c-0.2-0.2-0.4-0.5-0.4-0.8s0.1-0.6,0.4-0.8
			c0.2-0.2,0.5-0.4,0.8-0.4H617c0.2,0,0.2-0.1,0.2-0.3v-2.4c0-0.2-0.1-0.3-0.2-0.3h-8.5c-0.6,0-1-0.2-1.5-0.6
			c-0.4-0.4-0.6-0.9-0.6-1.5v-9.8c0-0.6,0.2-1,0.6-1.5c0.4-0.4,0.9-0.6,1.5-0.6h8.5c0.2,0,0.2-0.1,0.2-0.2v-2.1
			c0-0.2-0.1-0.2-0.2-0.2h-12c-0.3,0-0.6-0.1-0.9-0.4s-0.4-0.5-0.4-0.9s0.1-0.6,0.4-0.9s0.5-0.4,0.9-0.4h12c0.2,0,0.2-0.1,0.2-0.2
			v-1.6c0-0.4,0.1-0.7,0.4-1c0.3-0.3,0.6-0.4,0.9-0.4c0.4,0,0.7,0.1,0.9,0.4c0.3,0.3,0.4,0.6,0.4,1V42c0,0.2,0.1,0.2,0.3,0.2h12.1
			c0.3,0,0.6,0.1,0.9,0.4s0.4,0.5,0.4,0.9s-0.1,0.6-0.4,0.9s-0.5,0.4-0.9,0.4h-12.1c-0.2,0-0.3,0.1-0.3,0.2V47
			c0,0.2,0.1,0.2,0.3,0.2h8.7c0.6,0,1,0.2,1.5,0.6c0.4,0.4,0.6,0.9,0.6,1.5v9.8c0,0.6-0.2,1-0.6,1.5c-0.4,0.4-0.9,0.6-1.5,0.6h-8.7
			c-0.2,0-0.3,0.1-0.3,0.3v2.4c0,0.2,0.1,0.3,0.3,0.3H633.6z M609.3,49.5c-0.2,0-0.2,0.1-0.2,0.2V53c0,0.2,0.1,0.2,0.2,0.2h7.7
			c0.2,0,0.2-0.1,0.2-0.2v-3.2c0-0.2-0.1-0.2-0.2-0.2H609.3z M609,58.8c0,0.2,0.1,0.2,0.2,0.2h7.7c0.2,0,0.2-0.1,0.2-0.2v-3.2
			c0-0.2-0.1-0.3-0.2-0.3h-7.7c-0.2,0-0.2,0.1-0.2,0.3V58.8z M628.3,49.8c0-0.2-0.1-0.2-0.2-0.2h-7.9c-0.2,0-0.3,0.1-0.3,0.2V53
			c0,0.2,0.1,0.2,0.3,0.2h7.9c0.2,0,0.2-0.1,0.2-0.2V49.8z M628.1,59c0.2,0,0.2-0.1,0.2-0.2v-3.2c0-0.2-0.1-0.3-0.2-0.3h-7.9
			c-0.2,0-0.3,0.1-0.3,0.3v3.2c0,0.2,0.1,0.2,0.3,0.2H628.1z"/>
		<path id="XMLID_1059_" d="M672,53.7c0.6,0,1,0.2,1.5,0.6c0.4,0.4,0.6,0.9,0.6,1.4V70c0,0.6-0.1,1.1-0.2,1.4
			c-0.2,0.4-0.4,0.6-0.8,0.8c-0.6,0.2-1.5,0.4-3,0.4h0c-0.3,0-0.6-0.1-0.9-0.3c-0.3-0.2-0.5-0.5-0.6-0.8c-0.1-0.3-0.1-0.5,0.1-0.7
			c0.2-0.2,0.4-0.3,0.6-0.3c0.3,0,0.6,0,0.8,0c0.5,0,0.9,0,1.1,0c0.2,0,0.3,0,0.4-0.1s0.1-0.2,0.1-0.4V56.2c0-0.2-0.1-0.2-0.3-0.2
			h-13.7c-0.2,0-0.3,0.1-0.3,0.2v15.2c0,0.4-0.1,0.6-0.4,0.9c-0.2,0.2-0.5,0.4-0.8,0.4c-0.3,0-0.6-0.1-0.8-0.4
			c-0.2-0.2-0.4-0.5-0.4-0.9V59.8c0,0,0-0.1-0.1-0.1s-0.1,0-0.1,0.1c-0.3,0.4-0.7,0.6-1.1,0.6c0,0,0,0-0.1,0c-0.4,0-0.8-0.2-1.1-0.5
			c-0.8-0.9-1.6-1.7-2.4-2.5c0,0-0.1-0.1-0.1,0c0,0-0.1,0.1-0.1,0.1v13.9c0,0.4-0.1,0.7-0.4,0.9s-0.6,0.4-0.9,0.4
			c-0.4,0-0.7-0.1-0.9-0.4s-0.4-0.6-0.4-0.9V59.2c0,0,0-0.1-0.1-0.1c0,0-0.1,0-0.1,0c-1.2,1.2-2.4,2.3-3.6,3.2
			c-0.3,0.2-0.6,0.3-0.9,0.2c-0.3-0.1-0.6-0.3-0.8-0.6c-0.1-0.2-0.2-0.5-0.2-0.7c0-0.1,0-0.2,0-0.3c0.1-0.4,0.3-0.7,0.6-0.9
			c1.8-1.3,3.5-2.9,5.1-4.8s2.9-3.9,4-5.9c0-0.1,0-0.1,0-0.2c0,0-0.1-0.1-0.1-0.1h-7.6c-0.3,0-0.6-0.1-0.9-0.4s-0.4-0.5-0.4-0.9
			s0.1-0.6,0.4-0.9s0.5-0.4,0.9-0.4h3.4c0.2,0,0.3-0.1,0.3-0.2v-5.1c0-0.4,0.1-0.7,0.4-0.9s0.5-0.4,0.9-0.4c0.4,0,0.7,0.1,0.9,0.4
			s0.4,0.6,0.4,0.9v5.1c0,0.2,0.1,0.2,0.3,0.2h2.6c0,0,0.1,0,0.1,0c0.3-0.1,0.6,0,0.8,0.1l0.4,0.2c0.2,0.1,0.4,0.3,0.4,0.6
			c0.1,0.2,0.1,0.5-0.1,0.7c-0.9,2.2-2.1,4.4-3.7,6.6c-0.1,0.1-0.1,0.3,0.1,0.4c1.1,0.9,2.4,2,3.9,3.4c0,0,0.1,0.1,0.1,0
			c0,0,0.1-0.1,0.1-0.1v-2.7c0-0.6,0.2-1,0.6-1.5c0.4-0.4,0.9-0.6,1.5-0.6h0.2c0.2,0,0.2-0.1,0.2-0.2v-9.8c0-0.6,0.2-1,0.6-1.5
			c0.4-0.4,0.9-0.6,1.5-0.6h10.2c0.6,0,1,0.2,1.5,0.6c0.4,0.4,0.6,0.9,0.6,1.5v9.8C671.7,53.6,671.8,53.7,672,53.7z M660,43.7
			c-0.2,0-0.2,0.1-0.2,0.2v9.5c0,0.2,0.1,0.2,0.2,0.2h2.8c0.2,0,0.2-0.1,0.2-0.2v-4.6c0-0.6,0.2-1.1,0.6-1.5
			c0.4-0.4,0.9-0.6,1.5-0.6h4c0.2,0,0.2-0.1,0.2-0.3V44c0-0.2-0.1-0.2-0.2-0.2H660z M668.8,65.3c0,0.6-0.2,1.1-0.6,1.5
			c-0.4,0.4-0.9,0.6-1.5,0.6h-4.5c-0.1,0-0.2,0.1-0.2,0.2v0.7c0,0.3-0.1,0.5-0.3,0.7c-0.2,0.2-0.4,0.3-0.7,0.3
			c-0.3,0-0.5-0.1-0.7-0.3c-0.2-0.2-0.3-0.4-0.3-0.7v-7.5c0-0.6,0.2-1.1,0.6-1.5c0.4-0.4,0.9-0.6,1.5-0.6h4.6c0.6,0,1,0.2,1.5,0.6
			c0.4,0.4,0.6,0.9,0.6,1.5V65.3z M666.9,61c0-0.2-0.1-0.2-0.3-0.2h-4.3c-0.2,0-0.2,0.1-0.2,0.2v4.2c0,0.2,0.1,0.2,0.2,0.2h4.3
			c0.2,0,0.3-0.1,0.3-0.2V61z M669.1,53.7c0.2,0,0.2-0.1,0.2-0.2v-4.4c0-0.2-0.1-0.2-0.2-0.2h-3.8c-0.2,0-0.2,0.1-0.2,0.2v4.4
			c0,0.2,0.1,0.2,0.2,0.2H669.1z"/>
		<path id="XMLID_1065_" d="M688.3,41.1c0.1-0.4,0.3-0.7,0.6-0.9c0.3-0.2,0.5-0.2,0.8-0.2c0.1,0,0.2,0,0.3,0
			c0.4,0.1,0.7,0.3,0.9,0.6s0.2,0.7,0.1,1.1c-0.6,1.7-1,2.9-1.3,3.7c0,0,0,0.1,0,0.2s0.1,0.1,0.2,0.1h3.6c0.6,0,1.1,0.2,1.5,0.6
			s0.6,0.9,0.6,1.5v19.2c0,0.6-0.2,1.1-0.6,1.5s-0.9,0.6-1.5,0.6h-7.7c-0.2,0-0.2,0.1-0.2,0.3v1.3c0,0.4-0.1,0.6-0.4,0.9
			s-0.5,0.4-0.9,0.4s-0.6-0.1-0.9-0.4s-0.4-0.5-0.4-0.9V47.6c0-0.6,0.2-1.1,0.6-1.5s0.9-0.6,1.5-0.6h1.7c0.2,0,0.3-0.1,0.4-0.2
			C687.7,43.8,688,42.4,688.3,41.1z M692.9,55.4c0.2,0,0.3-0.1,0.3-0.2v-7c0-0.2-0.1-0.3-0.3-0.3h-7c-0.2,0-0.2,0.1-0.2,0.3v7
			c0,0.2,0.1,0.2,0.2,0.2H692.9z M685.6,66.2c0,0.2,0.1,0.3,0.2,0.3h7c0.2,0,0.3-0.1,0.3-0.3v-8.1c0-0.2-0.1-0.2-0.3-0.2h-7
			c-0.2,0-0.2,0.1-0.2,0.2V66.2z M711.1,45.4c0.6,0,1.1,0.2,1.5,0.6c0.4,0.4,0.6,0.8,0.6,1.4c0,5.4-0.3,11.1-0.9,17.1
			c-0.3,3.2-0.8,5.2-1.5,6c-0.4,0.5-0.8,0.8-1.2,1.1s-1,0.3-1.6,0.4c-0.5,0.1-1.1,0.1-1.9,0.1c-0.6,0-1.3,0-2.1-0.1
			c-0.4,0-0.8-0.1-1.1-0.4s-0.5-0.6-0.6-1c-0.1-0.3-0.1-0.6,0.1-0.8s0.4-0.4,0.7-0.3c1.2,0.1,2.5,0.1,3.9,0.1c0.7,0,1.2-0.2,1.5-0.6
			c0.6-0.6,1-2.4,1.4-5.5s0.6-8.2,0.8-15.3c0-0.2-0.1-0.3-0.2-0.3h-8.6c-0.2,0-0.3,0.1-0.4,0.2c-0.8,2-1.7,3.6-2.5,5
			c-0.2,0.3-0.5,0.5-0.9,0.5s-0.7,0-1-0.2c-0.3-0.2-0.5-0.5-0.6-0.8c0-0.1,0-0.2,0-0.2c0-0.3,0.1-0.5,0.2-0.7
			c1.8-2.8,3.3-6.3,4.4-10.7c0.1-0.4,0.3-0.6,0.6-0.8c0.2-0.1,0.4-0.2,0.7-0.2c0.1,0,0.2,0,0.3,0.1c0.4,0.1,0.6,0.3,0.8,0.6
			s0.2,0.6,0.1,1c-0.4,1.3-0.7,2.5-1.1,3.7c0,0,0,0.1,0,0.2s0.1,0.1,0.2,0.1H711.1z M706.8,60.5c0.1,0.2,0.2,0.4,0.2,0.7
			c0,0.1,0,0.2,0,0.4c-0.1,0.4-0.3,0.6-0.6,0.8c-0.2,0.1-0.4,0.2-0.6,0.2c-0.1,0-0.2,0-0.4-0.1c-0.3-0.1-0.6-0.3-0.8-0.6
			c-1.1-1.8-2.4-3.9-4.1-6.2c-0.1-0.2-0.2-0.4-0.2-0.6c0-0.1,0-0.1,0-0.2c0.1-0.3,0.2-0.6,0.5-0.7c0.2-0.1,0.4-0.2,0.7-0.2
			c0.1,0,0.2,0,0.2,0c0.4,0.1,0.6,0.2,0.8,0.5C704.3,56.7,705.8,58.7,706.8,60.5z"/>
		<path id="XMLID_1071_" d="M728.4,57.8c0.2-0.2,0.5-0.3,0.9-0.3c0.3,0,0.6,0.2,0.8,0.5c0.2,0.3,0.3,0.6,0.3,0.9c0,0.1,0,0.1,0,0.2
			c0,0.4-0.2,0.7-0.5,1c-2.4,2.6-4.4,4.7-6.2,6.4c-0.3,0.3-0.6,0.4-1,0.4c-0.4,0-0.7-0.2-0.9-0.5c-0.2-0.3-0.4-0.6-0.4-0.9
			c0-0.4,0.2-0.8,0.5-1.1C723.5,62.9,725.6,60.7,728.4,57.8z M729.6,46.4c0.3,0.3,0.5,0.6,0.5,1s-0.1,0.8-0.4,1.1s-0.6,0.4-1,0.4
			s-0.7-0.1-1-0.4c-1.2-1.1-2.6-2.3-4.4-3.7c-0.3-0.2-0.4-0.5-0.5-0.8s0.1-0.6,0.3-0.9c0.3-0.3,0.6-0.4,1-0.5c0.1,0,0.1,0,0.2,0
			c0.3,0,0.6,0.1,0.9,0.3C726.9,44.2,728.4,45.4,729.6,46.4z M743.1,48.9c-0.2,0-0.2,0.1-0.2,0.2v4.3c0,0.7,0,1.5,0.2,2.4
			s0.4,2,0.9,3.3s1,2.5,1.7,3.7s1.7,2.4,2.9,3.7s2.7,2.3,4.3,3.1c0.4,0.2,0.6,0.5,0.7,0.8c0,0.1,0,0.2,0,0.3c0,0.2-0.1,0.5-0.2,0.7
			c-0.3,0.3-0.6,0.6-1,0.7c-0.1,0-0.3,0.1-0.4,0.1c-0.3,0-0.5-0.1-0.7-0.2c-1.5-0.8-2.9-1.9-4.1-3.1s-2.2-2.5-3-3.7
			s-1.3-2.4-1.8-3.5s-0.7-2.1-0.9-3c0,0,0,0-0.1,0s-0.1,0-0.1,0c-0.2,0.9-0.5,1.9-1,3s-1.2,2.2-2,3.5s-2,2.5-3.4,3.7
			c-1.4,1.2-3,2.3-4.8,3.1c-0.2,0.1-0.5,0.1-0.7,0.1c-0.1,0-0.3,0-0.4-0.1c-0.4-0.1-0.7-0.3-0.9-0.6c-0.1-0.2-0.2-0.4-0.2-0.6
			c0-0.1,0-0.2,0-0.2c0.1-0.3,0.3-0.6,0.6-0.7c1.9-0.8,3.5-1.9,4.9-3.1s2.6-2.5,3.4-3.7c0.8-1.2,1.5-2.5,2-3.8
			c0.5-1.3,0.9-2.4,1-3.4c0.2-0.9,0.2-1.8,0.2-2.5v-4.3c0-0.2-0.1-0.2-0.3-0.2h-3.9c-0.2,0-0.3,0.1-0.4,0.2
			c-0.9,2.2-1.9,4.1-3.1,5.8c-0.2,0.4-0.5,0.6-0.9,0.6c-0.1,0-0.2,0-0.3,0c-0.3,0-0.6-0.1-0.8-0.2c-0.3-0.2-0.5-0.5-0.6-0.9
			c-0.1-0.4,0-0.7,0.2-1c2.2-3.1,4-7.2,5.2-12.2c0.1-0.4,0.3-0.7,0.6-0.9c0.3-0.2,0.5-0.3,0.8-0.3c0.1,0,0.2,0,0.3,0
			c0.4,0.1,0.7,0.3,0.9,0.6s0.3,0.7,0.1,1.1c-0.4,1.5-0.8,2.9-1.2,4.2c0,0.1,0,0.1,0,0.2s0.1,0.1,0.2,0.1h14.2c0,0,0.1,0,0.1,0
			c0.3-0.1,0.6-0.1,0.9,0.1l0.5,0.3c0.3,0.2,0.5,0.4,0.6,0.7s0.1,0.6,0.1,0.9c-0.8,2.5-1.8,4.9-3.1,7.3c-0.2,0.3-0.4,0.5-0.7,0.6
			s-0.6,0.1-0.9-0.1c-0.3-0.2-0.5-0.4-0.6-0.7s-0.1-0.6,0.1-0.9c0.8-1.8,1.5-3.6,2.1-5.3c0-0.1,0-0.1,0-0.2s-0.1-0.1-0.2-0.1H743.1z
			"/>
		<path id="XMLID_1075_" d="M793.2,46.7c0.2,0.2,0.4,0.5,0.4,0.9s-0.1,0.7-0.4,0.9s-0.5,0.4-0.9,0.4h-0.6c-0.1,0-0.2,0.1-0.2,0.2
			c-0.8,5.8-2.1,10.5-3.9,14.1c-0.1,0.2-0.1,0.3,0,0.5c1.4,2.6,3,4.6,5,6.1c0.3,0.2,0.4,0.5,0.5,0.8s-0.1,0.7-0.3,0.9
			c-0.3,0.3-0.6,0.5-0.9,0.5s-0.7,0-1.1-0.3c-1.8-1.4-3.3-3.2-4.6-5.5c0,0-0.1-0.1-0.2-0.1s-0.1,0-0.1,0.1c-1.5,2.2-3.3,4.1-5.5,5.7
			c-0.3,0.2-0.6,0.2-1,0.2s-0.6-0.3-0.8-0.5c-0.2-0.3-0.3-0.6-0.2-1s0.2-0.6,0.5-0.8c2.4-1.6,4.3-3.7,5.7-6.2c0.1-0.1,0.1-0.3,0-0.5
			c-1.1-2.7-2-5.7-2.6-9.1c0,0-0.1-0.1-0.1-0.1s-0.1,0-0.1,0c-0.3,0.8-0.6,1.5-0.9,2.1c-0.2,0.4-0.6,0.6-1.1,0.7c-0.1,0-0.1,0-0.2,0
			c-0.4,0-0.8-0.1-1.1-0.4c0,0-0.1,0-0.1,0s-0.1,0.1-0.1,0.1v0.7c0,0.6-0.2,1-0.6,1.5s-0.9,0.6-1.5,0.6h-5.9c-0.2,0-0.3,0.1-0.4,0.2
			c-0.3,0.6-0.6,1.2-0.9,1.8c0,0,0,0.1,0,0.1s0.1,0.1,0.1,0.1c2.3,0,5.7-0.1,10.1-0.1c0.3,0,0.5,0.1,0.7,0.3s0.3,0.4,0.3,0.7
			c0,0.3-0.1,0.5-0.4,0.7s-0.5,0.3-0.7,0.3l-2.5,0.1c-0.2,0-0.3,0.1-0.4,0.2c-0.5,1.7-1.4,3.2-2.5,4.3c-0.1,0.1-0.1,0.2,0,0.3
			c1,0.5,1.9,1,2.6,1.4c0.3,0.2,0.4,0.4,0.4,0.7s-0.1,0.6-0.3,0.8c-0.2,0.2-0.5,0.4-0.9,0.4s-0.7,0-0.9-0.2c-0.8-0.5-1.8-1-2.8-1.6
			c-0.1-0.1-0.3-0.1-0.5,0c-1.9,1.1-4.4,2-7.7,2.7c-0.1,0-0.2,0-0.3,0c-0.2,0-0.5-0.1-0.7-0.2c-0.3-0.2-0.5-0.4-0.7-0.7
			c-0.1-0.2-0.1-0.5,0-0.7s0.3-0.4,0.6-0.4c2.6-0.4,4.8-1,6.4-1.8c0,0,0.1,0,0.1-0.1s0-0.1-0.1-0.1c-1-0.4-2.1-0.9-3.3-1.4
			c-0.1,0-0.2,0-0.2,0.1c-0.1,0.3-0.4,0.5-0.7,0.6s-0.6,0.1-0.9,0H764c-0.3-0.1-0.5-0.3-0.6-0.5s-0.1-0.5,0.1-0.8
			c0.5-0.8,1-1.6,1.5-2.6c0,0,0.1-0.1,0-0.1s-0.1-0.1-0.1-0.1l-3.2,0c-0.3,0-0.6-0.1-0.8-0.3s-0.3-0.4-0.3-0.7s0.1-0.5,0.3-0.8
			s0.4-0.3,0.7-0.3c1.6,0,3.1,0,4.3,0c0.2,0,0.3-0.1,0.4-0.2c0.4-0.6,0.7-1.2,0.9-1.8c0-0.1,0-0.1,0-0.2s-0.1-0.1-0.1-0.1h-3
			c-0.6,0-1-0.2-1.5-0.6s-0.6-0.9-0.6-1.5v-1.8c0-0.6,0.2-1,0.6-1.5s0.9-0.6,1.5-0.6h4.4c0.2,0,0.3-0.1,0.3-0.3v-1.1
			c0-0.2-0.1-0.2-0.3-0.2h-3.5c-0.6,0-1.1-0.2-1.5-0.6s-0.6-0.9-0.6-1.5v-1.5c0-0.2-0.1-0.3-0.3-0.3h-1.2c-0.3,0-0.5-0.1-0.7-0.3
			s-0.3-0.4-0.3-0.7s0.1-0.5,0.3-0.7s0.4-0.3,0.7-0.3h1.2c0.2,0,0.3-0.1,0.3-0.3v-1.5c0-0.6,0.2-1,0.6-1.5s0.9-0.6,1.5-0.6h3.5
			c0.2,0,0.3-0.1,0.3-0.2v-0.8c0-0.3,0.1-0.6,0.3-0.8s0.5-0.3,0.8-0.3s0.6,0.1,0.8,0.3s0.3,0.5,0.3,0.8v0.8c0,0.2,0.1,0.2,0.2,0.2
			h3.9c0.6,0,1.1,0.2,1.5,0.6s0.6,0.9,0.6,1.5v1.5c0,0.2,0.1,0.3,0.3,0.3h1.2c0.3,0,0.5,0.1,0.7,0.3s0.3,0.4,0.3,0.7
			s-0.1,0.5-0.3,0.7s-0.4,0.3-0.7,0.3h-1.2c-0.2,0-0.3,0.1-0.3,0.3v1.5c0,0.6-0.2,1-0.6,1.5s-0.9,0.6-1.5,0.6h-3.9
			c-0.2,0-0.3,0.1-0.3,0.2v1.1c0,0.2,0.1,0.3,0.3,0.3h5.2c0.4,0,0.8,0.2,1.1,0.5s0.5,0.7,0.5,1.1c0,0,0,0,0,0.1s0,0,0.1,0
			c1.8-3.2,3.2-7.9,4.1-14c0-0.4,0.2-0.6,0.5-0.8s0.6-0.3,0.9-0.2s0.6,0.2,0.8,0.5s0.3,0.6,0.2,1c-0.3,1.8-0.6,3.3-0.9,4.7
			c0,0.2,0,0.2,0.2,0.2h7.9C792.6,46.4,792.9,46.5,793.2,46.7z M764.7,55.1c-0.2,0-0.2,0.1-0.2,0.3v1.8c0,0.2,0.1,0.3,0.2,0.3h3.9
			c0.2,0,0.3-0.1,0.3-0.3v-1.8c0-0.2-0.1-0.3-0.3-0.3H764.7z M769,44.1c0-0.2-0.1-0.2-0.3-0.2h-3c-0.2,0-0.3,0.1-0.3,0.2v1.5
			c0,0.2,0.1,0.3,0.3,0.3h3c0.2,0,0.3-0.1,0.3-0.3V44.1z M765.4,49.5c0,0.2,0.1,0.3,0.3,0.3h3c0.2,0,0.3-0.1,0.3-0.3V48
			c0-0.2-0.1-0.3-0.3-0.3h-3c-0.2,0-0.3,0.1-0.3,0.3V49.5z M773.8,63.7c0-0.1,0-0.1,0-0.2s-0.1-0.1-0.2-0.1l-5.7,0.1
			c-0.2,0-0.3,0.1-0.4,0.2c-0.1,0.1-0.1,0.3-0.2,0.4s-0.2,0.3-0.3,0.5s-0.2,0.3-0.2,0.4c-0.1,0.2-0.1,0.3,0.1,0.3
			c1.5,0.5,2.9,1.1,4.1,1.7c0.2,0.1,0.3,0,0.5-0.1C772.6,66.1,773.3,65,773.8,63.7z M775.1,44.1c0-0.2-0.1-0.2-0.3-0.2h-3.3
			c-0.2,0-0.3,0.1-0.3,0.2v1.5c0,0.2,0.1,0.3,0.3,0.3h3.3c0.2,0,0.3-0.1,0.3-0.3V44.1z M771.3,49.5c0,0.2,0.1,0.3,0.3,0.3h3.3
			c0.2,0,0.3-0.1,0.3-0.3V48c0-0.2-0.1-0.3-0.3-0.3h-3.3c-0.2,0-0.3,0.1-0.3,0.3V49.5z M775.7,57.5c0.2,0,0.2-0.1,0.2-0.3v-1.8
			c0-0.2-0.1-0.3-0.2-0.3h-4.2c-0.2,0-0.3,0.1-0.3,0.3v1.8c0,0.2,0.1,0.3,0.3,0.3H775.7z M788.9,49.2c0-0.2-0.1-0.2-0.2-0.2h-4.9
			c-0.2,0-0.3,0.1-0.3,0.2c0,0.1-0.1,0.3,0,0.5c0.7,4.2,1.5,7.7,2.6,10.6c0,0,0.1,0.1,0.1,0.1s0.1,0,0.1-0.1
			C787.5,57.2,788.3,53.5,788.9,49.2z"/>
		<path id="XMLID_1085_" d="M828.8,58c0.7,0,1.3,0.1,1.7,0.2c0.2,0.1,0.4,0.3,0.5,0.5s0.1,0.5,0.1,0.7c-1.1,2.8-2.7,5.3-4.8,7.5
			c-0.1,0.1-0.1,0.2,0,0.4c1.7,1.3,3.6,2.3,5.8,2.9c0.3,0.1,0.5,0.3,0.5,0.6c0,0.1,0,0.2,0,0.2c0,0.2-0.1,0.4-0.2,0.5
			c-0.3,0.3-0.6,0.6-0.9,0.7s-0.7,0.1-1.1,0c-2.2-0.8-4.2-1.9-6-3.4c-0.1-0.1-0.3-0.1-0.4,0c-1.5,1.1-3.2,2.1-5,2.9
			c-0.3,0.1-0.6,0.1-0.9,0.1c-0.3,0-0.5,0-0.8-0.1c-0.5-0.2-1-0.5-1.4-1c0,0-0.1-0.1-0.1-0.1s-0.1,0-0.1,0s-0.1,0-0.1,0.1v0.7
			c0,0.4-0.1,0.7-0.4,0.9s-0.5,0.4-0.9,0.4s-0.7-0.1-0.9-0.4s-0.4-0.6-0.4-0.9v-1.9c0-0.2-0.1-0.3-0.3-0.2
			c-1.7,0.2-5.2,0.6-10.7,1.3c-0.3,0-0.6,0-0.9-0.2c-0.3-0.2-0.4-0.5-0.4-0.9c0-0.3,0.1-0.5,0.2-0.7c0.2-0.3,0.5-0.4,0.8-0.4
			c0.6,0,1.3-0.1,2-0.2c0.2,0,0.3-0.1,0.3-0.3V56c0-0.2-0.1-0.2-0.3-0.2H802c-0.3,0-0.6-0.1-0.8-0.3s-0.3-0.5-0.3-0.8
			s0.1-0.6,0.3-0.8s0.5-0.3,0.8-0.3h29.2c0.3,0,0.6,0.1,0.8,0.3s0.3,0.5,0.3,0.8s-0.1,0.6-0.3,0.8s-0.5,0.3-0.8,0.3h-15.5
			c-0.2,0-0.3,0.1-0.3,0.2v14.1c0,0.1,0,0.1,0.1,0.2s0.1,0,0.2,0c2.3-0.7,4.4-1.8,6.3-3.2c0.1-0.1,0.2-0.2,0-0.4
			c-1.3-1.4-2.4-3-3.2-4.8c-0.2-0.4-0.2-0.7,0-1s0.4-0.6,0.8-0.7c0,0,0,0,0-0.1h-1.9c-0.3,0-0.5-0.1-0.7-0.3s-0.3-0.4-0.3-0.7
			s0.1-0.5,0.3-0.8s0.5-0.3,0.7-0.3H828.8z M826.3,40.9c0.6,0,1,0.2,1.5,0.6s0.6,0.9,0.6,1.5v6.5c0,0.6-0.2,1-0.6,1.5
			s-0.9,0.6-1.5,0.6h-19c-0.6,0-1-0.2-1.5-0.6s-0.6-0.9-0.6-1.5V43c0-0.6,0.2-1.1,0.6-1.5s0.9-0.6,1.5-0.6H826.3z M813,56
			c0-0.2-0.1-0.2-0.3-0.2h-6c-0.2,0-0.3,0.1-0.3,0.2v1.9c0,0.2,0.1,0.2,0.3,0.2h6c0.2,0,0.3-0.1,0.3-0.2V56z M806.7,60.2
			c-0.2,0-0.3,0.1-0.3,0.2v2c0,0.2,0.1,0.2,0.3,0.2h6c0.2,0,0.3-0.1,0.3-0.2v-2c0-0.2-0.1-0.2-0.3-0.2H806.7z M806.7,64.8
			c-0.2,0-0.3,0.1-0.3,0.2v2.4c0,0.2,0.1,0.2,0.3,0.2c3.9-0.4,5.9-0.6,6-0.6c0.2,0,0.3-0.1,0.3-0.3V65c0-0.2-0.1-0.2-0.3-0.2H806.7z
			 M825.5,45.3c0.2,0,0.2-0.1,0.2-0.3v-2c0-0.2-0.1-0.2-0.2-0.2H808c-0.2,0-0.3,0.1-0.3,0.2v2c0,0.2,0.1,0.3,0.3,0.3H825.5z
			 M825.5,49.6c0.2,0,0.2-0.1,0.2-0.2v-2c0-0.2-0.1-0.2-0.2-0.2H808c-0.2,0-0.3,0.1-0.3,0.2v2c0,0.2,0.1,0.2,0.3,0.2H825.5z
			 M827.9,60.4c0,0,0-0.1,0-0.2s-0.1-0.1-0.1-0.1h-6.9c-0.1,0-0.1,0-0.2,0.1s0,0.1,0,0.2c0.8,1.8,1.9,3.4,3.2,4.9
			c0.1,0.1,0.2,0.1,0.4,0C825.8,63.8,827,62.2,827.9,60.4z"/>
		<path id="XMLID_1094_" d="M864.5,42.8c0.3-0.1,0.5,0,0.8,0.1l0.5,0.3c0.2,0.2,0.4,0.4,0.5,0.7s0,0.5-0.1,0.8
			c-1.1,1.8-2.5,3.5-4.2,5s-3.6,2.9-5.6,4.1s-4.1,2.2-6.3,3s-4.4,1.6-6.6,2.1c-0.4,0.1-0.7,0.1-1.1-0.1s-0.6-0.4-0.8-0.8
			c-0.1-0.2-0.1-0.3-0.1-0.5s0-0.3,0.1-0.4c0.1-0.3,0.3-0.5,0.6-0.5c4.3-0.9,8.3-2.4,12-4.4c0.2-0.1,0.2-0.2,0-0.3
			c-1.5-1.3-3.5-2.5-5.9-3.8c-0.1-0.1-0.3-0.1-0.5,0c-1.1,0.6-2.3,1.2-3.6,1.8c-0.2,0.1-0.5,0.1-0.7,0.1c-0.2,0-0.3,0-0.5-0.1
			c-0.4-0.1-0.7-0.3-1-0.6c-0.2-0.2-0.3-0.5-0.2-0.8s0.2-0.5,0.5-0.6c4.7-1.8,8.5-4.2,11.3-7c0.6-0.6,1.2-0.9,1.9-0.9
			c0.2,0,0.4,0,0.6,0.1c0.4,0.1,0.6,0.3,0.7,0.6s0,0.6-0.2,0.8c-0.4,0.4-0.7,0.8-1.1,1.1c0,0-0.1,0.1,0,0.1s0.1,0.1,0.1,0.1h8.9
			C864.4,42.8,864.5,42.8,864.5,42.8z M869.7,55.3c0.3-0.1,0.6,0,0.8,0.1l0.5,0.2c0.2,0.1,0.4,0.3,0.5,0.6c0,0.1,0.1,0.2,0.1,0.4
			c0,0.1,0,0.3-0.1,0.4c-4,8.2-12.5,13.3-25.6,15.5c-0.1,0-0.2,0-0.3,0c-0.3,0-0.5-0.1-0.8-0.2c-0.4-0.2-0.6-0.5-0.8-0.8
			c-0.1-0.1-0.1-0.3-0.1-0.4s0-0.3,0.1-0.4c0.1-0.3,0.3-0.4,0.7-0.5c5.5-0.8,10.2-2.2,14.2-4.2c0.2-0.1,0.2-0.2,0-0.3
			c-1.8-1.6-3.9-3.1-6.5-4.5c-0.2-0.1-0.3-0.1-0.5,0c-1.5,0.8-3.1,1.4-4.5,2c-0.4,0.1-0.7,0.1-1.1,0s-0.7-0.3-0.9-0.6
			c-0.2-0.2-0.3-0.5-0.2-0.8s0.3-0.5,0.5-0.6c2.9-1,5.5-2.2,7.8-3.6s4.2-2.9,5.7-4.4c0.6-0.6,1.2-0.8,1.9-0.8c0.2,0,0.4,0,0.6,0.1
			c0.3,0.1,0.5,0.3,0.7,0.6s0,0.6-0.2,0.8c-0.5,0.5-0.9,0.9-1.4,1.4c0,0-0.1,0.1-0.1,0.1s0,0.1,0.1,0.1h8.6
			C869.6,55.3,869.7,55.3,869.7,55.3z M862.6,45.3c0,0,0-0.1,0-0.1s-0.1-0.1-0.1-0.1h-9.8c-0.2,0-0.3,0.1-0.5,0.2
			c-0.5,0.4-1.1,0.8-1.8,1.2c0,0-0.1,0.1-0.1,0.2s0,0.1,0.1,0.1c2.6,1.3,4.5,2.6,5.9,3.7c0.1,0.1,0.2,0.1,0.4,0
			C859.2,48.9,861.2,47.1,862.6,45.3z M868.1,57.8c0,0,0-0.1,0-0.1s-0.1-0.1-0.1-0.1h-9.8c-0.2,0-0.4,0-0.5,0.1
			c-0.8,0.6-1.7,1.2-2.7,1.8c0,0-0.1,0.1-0.1,0.2s0,0.1,0.1,0.1c2.6,1.5,4.8,3,6.4,4.4c0.1,0.1,0.3,0.1,0.4,0
			C864.5,62.4,866.6,60.2,868.1,57.8z"/>
	</g>
	<g id="XMLID_162_">
		<path id="XMLID_163_" d="M22.3,128.3c-0.3,0-0.5-0.1-0.7-0.3c-0.2-0.2-0.3-0.4-0.3-0.7c0-0.6,0.2-1.2,0.7-1.6
			c3.9-3.5,6.8-6.5,8.6-9.1s2.7-5,2.7-7.2c0-1.6-0.4-2.8-1.2-3.8c-0.8-0.9-2-1.4-3.6-1.4s-3.1,0.7-4.6,2.1c-0.3,0.3-0.6,0.4-0.9,0.4
			c-0.4,0-0.7-0.1-0.9-0.4c-0.3-0.3-0.4-0.6-0.4-0.9c0-0.4,0.1-0.7,0.4-0.9c2.1-2,4.3-3,6.8-3c2.3,0,4.2,0.7,5.6,2.1
			c1.4,1.4,2.1,3.3,2.1,5.7c0,2.5-0.9,5-2.6,7.6c-1.7,2.6-4.2,5.5-7.5,8.7c0,0-0.1,0.1,0,0.1c0,0,0.1,0.1,0.1,0.1
			c1.9-0.2,3.3-0.2,4-0.2h5.9c0.4,0,0.7,0.1,1,0.4s0.4,0.6,0.4,1s-0.1,0.7-0.4,1c-0.3,0.3-0.6,0.4-1,0.4H22.3z"/>
		<path id="XMLID_399_" d="M53.4,128.8c-2.6,0-4.6-1.2-6.1-3.5c-1.5-2.3-2.2-5.7-2.2-10.2c0-4.5,0.7-7.9,2.2-10.2
			c1.5-2.3,3.5-3.4,6.1-3.4c2.6,0,4.6,1.1,6,3.4c1.5,2.3,2.2,5.7,2.2,10.2c0,4.5-0.7,7.9-2.2,10.2C57.9,127.6,55.9,128.8,53.4,128.8
			z M53.4,126.2c1.5,0,2.8-0.9,3.7-2.8c0.9-1.8,1.3-4.6,1.3-8.4c0-3.7-0.4-6.5-1.3-8.2c-0.9-1.8-2.1-2.7-3.7-2.7
			c-1.6,0-2.8,0.9-3.7,2.7c-0.9,1.8-1.3,4.5-1.3,8.2c0,3.8,0.4,6.5,1.3,8.4C50.5,125.2,51.8,126.2,53.4,126.2z"/>
		<path id="XMLID_427_" d="M71.4,128.3c-0.4,0-0.7-0.1-1-0.4c-0.3-0.3-0.4-0.6-0.4-1s0.1-0.7,0.4-1c0.3-0.3,0.6-0.4,1-0.4h4.3
			c0.2,0,0.2-0.1,0.2-0.2v-19.2c0-0.2-0.1-0.3-0.2-0.3h-3.4c-0.3,0-0.6-0.1-0.8-0.3c-0.2-0.2-0.3-0.5-0.3-0.8c0-0.3,0.1-0.5,0.3-0.8
			c0.2-0.2,0.4-0.4,0.7-0.5c1.2-0.3,2.4-0.6,3.3-1.1c0.8-0.4,1.6-0.6,2.4-0.6c0.4,0,0.7,0.1,0.9,0.4s0.4,0.5,0.4,0.9v22.1
			c0,0.2,0.1,0.2,0.3,0.2h3.7c0.4,0,0.7,0.1,1,0.4c0.3,0.3,0.4,0.6,0.4,1s-0.1,0.7-0.4,1c-0.3,0.3-0.6,0.4-1,0.4H71.4z"/>
		<path id="XMLID_871_" d="M99.9,128.8c-2.8,0-5.3-0.9-7.4-2.6c-0.3-0.3-0.5-0.6-0.5-1.1c0-0.3,0.1-0.6,0.3-0.9s0.5-0.4,0.8-0.5
			s0.7,0.1,0.9,0.3c1.6,1.3,3.4,2,5.5,2c1.6,0,2.9-0.6,4-1.7c1.1-1.1,1.6-2.6,1.6-4.5s-0.5-3.3-1.5-4.4c-1-1.1-2.3-1.6-4-1.6
			c-1.2,0-2.4,0.3-3.5,1c-0.3,0.2-0.6,0.2-0.9,0.2c-0.3,0-0.6-0.1-0.8-0.2c-0.6-0.4-0.9-0.9-0.8-1.6l0.6-9.2c0-0.6,0.3-1.1,0.7-1.5
			c0.4-0.4,0.9-0.6,1.5-0.6h9.4c0.4,0,0.7,0.1,1,0.4c0.3,0.3,0.4,0.6,0.4,1s-0.1,0.7-0.4,1c-0.3,0.3-0.6,0.4-1,0.4h-8.3
			c-0.2,0-0.3,0.1-0.3,0.3l-0.6,7.1c0,0,0,0.1,0.1,0.1c0,0,0.1,0,0.1,0c1.1-0.6,2.4-0.9,3.7-0.9c2.3,0,4.2,0.7,5.7,2.1
			c1.5,1.4,2.2,3.5,2.2,6.3c0,1.9-0.4,3.5-1.2,4.9c-0.8,1.4-1.9,2.4-3.2,3.1C102.8,128.4,101.4,128.8,99.9,128.8z"/>
		<path id="XMLID_873_" d="M146.9,120.2c0.4,0,0.7,0.1,0.9,0.4c0.3,0.2,0.4,0.6,0.4,0.9s-0.1,0.7-0.4,0.9c-0.3,0.2-0.6,0.4-0.9,0.4
			h-11.5c-0.2,0-0.3,0.1-0.3,0.3v6.6c0,0.4-0.1,0.7-0.4,1c-0.3,0.3-0.6,0.4-0.9,0.4c-0.4,0-0.7-0.1-1-0.4c-0.3-0.3-0.4-0.6-0.4-1
			v-6.6c0-0.2-0.1-0.3-0.2-0.3h-15.1c-0.4,0-0.7-0.1-0.9-0.4c-0.3-0.2-0.4-0.6-0.4-0.9s0.1-0.7,0.4-0.9c0.3-0.2,0.6-0.4,0.9-0.4h4.4
			c0.2,0,0.2-0.1,0.2-0.3v-7.3c0-0.6,0.2-1,0.6-1.5c0.4-0.4,0.9-0.6,1.5-0.6h8.4c0.2,0,0.2-0.1,0.2-0.2v-5c0-0.2-0.1-0.2-0.2-0.2
			H124c-0.2,0-0.3,0.1-0.4,0.2c-1.3,2.2-2.8,4.1-4.4,5.8c-0.3,0.3-0.6,0.5-1,0.5c0,0,0,0-0.1,0c-0.4,0-0.7-0.1-1-0.4
			c-0.3-0.2-0.4-0.5-0.5-0.9s0.1-0.7,0.3-0.9c2.8-2.7,5-6.1,6.6-10.1c0.1-0.4,0.4-0.7,0.7-0.8c0.2-0.1,0.5-0.2,0.7-0.2
			c0.1,0,0.2,0,0.4,0c0.4,0.1,0.6,0.3,0.8,0.6c0.2,0.3,0.2,0.7,0,1c-0.3,0.7-0.6,1.5-1,2.2c0,0-0.1,0.1,0,0.2s0.1,0.1,0.2,0.1h19.9
			c0.4,0,0.7,0.1,0.9,0.4c0.3,0.2,0.4,0.6,0.4,0.9s-0.1,0.7-0.4,0.9c-0.3,0.3-0.6,0.4-0.9,0.4h-9.8c-0.2,0-0.3,0.1-0.3,0.2v5
			c0,0.2,0.1,0.2,0.3,0.2h9c0.4,0,0.7,0.1,0.9,0.4s0.4,0.5,0.4,0.9s-0.1,0.7-0.4,0.9s-0.5,0.4-0.9,0.4h-9c-0.2,0-0.3,0.1-0.3,0.2
			v6.6c0,0.2,0.1,0.3,0.3,0.3H146.9z M124.4,120c0,0.2,0.1,0.3,0.2,0.3h7.6c0.2,0,0.2-0.1,0.2-0.3v-6.6c0-0.2-0.1-0.2-0.2-0.2h-7.6
			c-0.2,0-0.2,0.1-0.2,0.2V120z"/>
		<path id="XMLID_876_" d="M179.5,116.6c0,0.2,0.1,0.2,0.3,0.2h6.9c0.4,0,0.7,0.1,0.9,0.4c0.3,0.3,0.4,0.6,0.4,0.9s-0.1,0.7-0.4,0.9
			c-0.3,0.3-0.6,0.4-0.9,0.4h-29.8c-0.4,0-0.7-0.1-0.9-0.4c-0.3-0.2-0.4-0.6-0.4-0.9s0.1-0.7,0.4-0.9c0.3-0.3,0.6-0.4,0.9-0.4h6.7
			c0.2,0,0.3-0.1,0.3-0.2v-8c0-0.2-0.1-0.2-0.3-0.2h-5.3c-0.4,0-0.7-0.1-0.9-0.4c-0.3-0.3-0.4-0.6-0.4-0.9s0.1-0.7,0.4-0.9
			c0.3-0.3,0.6-0.4,0.9-0.4h5.3c0.2,0,0.3-0.1,0.3-0.3v-5.6c0-0.4,0.1-0.7,0.4-1c0.3-0.3,0.6-0.4,0.9-0.4c0.4,0,0.7,0.1,1,0.4
			c0.3,0.3,0.4,0.6,0.4,1v5.6c0,0.2,0.1,0.3,0.2,0.3h9.7c0.2,0,0.2-0.1,0.2-0.3v-5.6c0-0.4,0.1-0.7,0.4-1c0.3-0.3,0.6-0.4,1-0.4
			c0.4,0,0.7,0.1,1,0.4c0.3,0.3,0.4,0.6,0.4,1v5.6c0,0.2,0.1,0.3,0.3,0.3h5.6c0.4,0,0.7,0.1,0.9,0.4c0.3,0.3,0.4,0.6,0.4,0.9
			s-0.1,0.7-0.4,0.9c-0.3,0.3-0.6,0.4-0.9,0.4h-5.6c-0.2,0-0.3,0.1-0.3,0.2V116.6z M164.6,122.7c0.3-0.3,0.7-0.6,1.1-0.7
			c0.2,0,0.3-0.1,0.5-0.1c0.2,0,0.5,0,0.7,0.1c0.4,0.1,0.6,0.4,0.7,0.7c0.1,0.4,0,0.7-0.2,0.9c-2.3,2.5-4.9,4.7-8,6.6
			c-0.3,0.2-0.6,0.2-0.9,0.2c-0.1,0-0.1,0-0.2,0c-0.4,0-0.8-0.2-1.1-0.5c-0.3-0.2-0.4-0.5-0.3-0.9s0.2-0.6,0.5-0.8
			C160.2,126.8,162.7,124.8,164.6,122.7z M166.8,108.4c-0.2,0-0.2,0.1-0.2,0.2v8c0,0.2,0.1,0.2,0.2,0.2h9.7c0.2,0,0.2-0.1,0.2-0.2
			v-8c0-0.2-0.1-0.2-0.2-0.2H166.8z M175.8,123.7c-0.2-0.2-0.3-0.4-0.3-0.8c0-0.3,0.2-0.6,0.4-0.7c0.4-0.2,0.7-0.3,1.1-0.3
			c0.4,0,0.8,0.1,1.2,0.4c3.1,2.2,5.7,4.3,7.8,6.1c0.3,0.3,0.4,0.6,0.4,0.9s-0.2,0.7-0.5,0.9c-0.3,0.2-0.6,0.3-1,0.3
			c-0.1,0-0.1,0-0.2,0c-0.4,0-0.8-0.2-1.1-0.5C181.4,128.1,178.8,126,175.8,123.7z"/>
		<path id="XMLID_881_" d="M195.8,128.3c-0.3,0-0.5-0.1-0.7-0.3c-0.2-0.2-0.3-0.4-0.3-0.7c0-0.6,0.2-1.2,0.7-1.6
			c3.9-3.5,6.8-6.5,8.6-9.1s2.7-5,2.7-7.2c0-1.6-0.4-2.8-1.2-3.8c-0.8-0.9-2-1.4-3.6-1.4s-3.1,0.7-4.6,2.1c-0.3,0.3-0.6,0.4-0.9,0.4
			c-0.4,0-0.7-0.1-0.9-0.4c-0.3-0.3-0.4-0.6-0.4-0.9c0-0.4,0.1-0.7,0.4-0.9c2.1-2,4.3-3,6.8-3c2.3,0,4.2,0.7,5.6,2.1
			c1.4,1.4,2.1,3.3,2.1,5.7c0,2.5-0.9,5-2.6,7.6c-1.7,2.6-4.2,5.5-7.5,8.7c0,0-0.1,0.1,0,0.1c0,0,0.1,0.1,0.1,0.1
			c1.9-0.2,3.3-0.2,4-0.2h5.9c0.4,0,0.7,0.1,1,0.4s0.4,0.6,0.4,1s-0.1,0.7-0.4,1c-0.3,0.3-0.6,0.4-1,0.4H195.8z"/>
		<path id="XMLID_883_" d="M221.3,128.3c-0.4,0-0.7-0.1-1-0.4c-0.3-0.3-0.4-0.6-0.4-1s0.1-0.7,0.4-1c0.3-0.3,0.6-0.4,1-0.4h4.3
			c0.2,0,0.2-0.1,0.2-0.2v-19.2c0-0.2-0.1-0.3-0.2-0.3h-3.4c-0.3,0-0.6-0.1-0.8-0.3c-0.2-0.2-0.3-0.5-0.3-0.8c0-0.3,0.1-0.5,0.3-0.8
			c0.2-0.2,0.4-0.4,0.7-0.5c1.2-0.3,2.4-0.6,3.3-1.1c0.8-0.4,1.6-0.6,2.4-0.6c0.4,0,0.7,0.1,0.9,0.4s0.4,0.5,0.4,0.9v22.1
			c0,0.2,0.1,0.2,0.3,0.2h3.7c0.4,0,0.7,0.1,1,0.4c0.3,0.3,0.4,0.6,0.4,1s-0.1,0.7-0.4,1c-0.3,0.3-0.6,0.4-1,0.4H221.3z"/>
		<path id="XMLID_885_" d="M257.9,118.4c0.4,0,0.7,0.1,0.9,0.4c0.3,0.3,0.4,0.6,0.4,0.9s-0.1,0.7-0.4,0.9c-0.3,0.3-0.6,0.4-0.9,0.4
			H256c-0.2,0-0.3,0.1-0.3,0.3v5.4c0,0.4-0.2,0.8-0.5,1.1c-0.3,0.3-0.7,0.5-1.1,0.5c-0.4,0-0.8-0.2-1.1-0.5
			c-0.3-0.3-0.5-0.7-0.5-1.1v-5.4c0-0.2-0.1-0.3-0.2-0.3h-10.2c-0.3,0-0.6-0.1-0.8-0.3s-0.3-0.5-0.3-0.8c0-0.7,0.2-1.4,0.6-2
			l9.4-14.5c0.7-1,1.6-1.5,2.8-1.5c0.5,0,0.9,0.2,1.3,0.5s0.5,0.8,0.5,1.3v14.4c0,0.2,0.1,0.2,0.3,0.2H257.9z M244.7,118.2
			c0,0,0,0.1,0,0.1c0,0,0.1,0.1,0.1,0.1h7.6c0.2,0,0.2-0.1,0.2-0.2v-7.8c0-0.5,0.1-2.1,0.2-4.7c0,0,0-0.1-0.1-0.1c0,0-0.1,0-0.1,0.1
			c-0.6,1.1-1.3,2.4-2.1,3.8L244.7,118.2z"/>
		<path id="XMLID_888_" d="M281.5,118.4c0.4,0,0.7,0.1,0.9,0.4c0.3,0.3,0.4,0.6,0.4,0.9s-0.1,0.7-0.4,0.9c-0.3,0.3-0.6,0.4-0.9,0.4
			h-1.9c-0.2,0-0.3,0.1-0.3,0.3v5.4c0,0.4-0.2,0.8-0.5,1.1c-0.3,0.3-0.7,0.5-1.1,0.5c-0.4,0-0.8-0.2-1.1-0.5
			c-0.3-0.3-0.5-0.7-0.5-1.1v-5.4c0-0.2-0.1-0.3-0.2-0.3h-10.2c-0.3,0-0.6-0.1-0.8-0.3s-0.3-0.5-0.3-0.8c0-0.7,0.2-1.4,0.6-2
			l9.4-14.5c0.7-1,1.6-1.5,2.8-1.5c0.5,0,0.9,0.2,1.3,0.5s0.5,0.8,0.5,1.3v14.4c0,0.2,0.1,0.2,0.3,0.2H281.5z M268.2,118.2
			c0,0,0,0.1,0,0.1c0,0,0.1,0.1,0.1,0.1h7.6c0.2,0,0.2-0.1,0.2-0.2v-7.8c0-0.5,0.1-2.1,0.2-4.7c0,0,0-0.1-0.1-0.1c0,0-0.1,0-0.1,0.1
			c-0.6,1.1-1.3,2.4-2.1,3.8L268.2,118.2z"/>
		<path id="XMLID_891_" d="M290.6,127c-0.3-0.2-0.5-0.5-0.5-0.9c0-0.4,0.1-0.7,0.4-1c0.2-0.3,0.5-0.4,0.9-0.4c0.4,0,0.7,0.1,1,0.3
			c1.1,0.7,2.2,1.1,3.4,1.1c1.9,0,3.4-0.8,4.6-2.5c1.2-1.7,1.9-4.4,2-8.2c0,0,0-0.1-0.1-0.1c0,0-0.1,0-0.1,0
			c-0.8,0.9-1.7,1.7-2.8,2.2c-1,0.6-2.1,0.8-3.1,0.8c-2.2,0-4-0.7-5.3-2.1s-2-3.5-2-6.2c0-2.5,0.7-4.6,2.2-6.2
			c1.5-1.6,3.3-2.4,5.4-2.4c2.6,0,4.8,1.1,6.4,3.2c1.6,2.2,2.4,5.3,2.4,9.3c0,2.6-0.3,4.8-0.8,6.8s-1.2,3.5-2.1,4.6
			c-0.9,1.1-1.9,2-3,2.5c-1.1,0.6-2.3,0.8-3.6,0.8C293.9,128.8,292.1,128.2,290.6,127z M296.9,115.8c2,0,3.8-1.1,5.4-3.3
			c0.1-0.1,0.1-0.3,0.1-0.5c-0.2-2.6-0.8-4.6-1.8-6s-2.3-2.1-4-2.1c-1.3,0-2.4,0.6-3.2,1.7s-1.3,2.5-1.3,4.3c0,1.8,0.4,3.3,1.2,4.3
			S295.4,115.8,296.9,115.8z"/>
		<path id="XMLID_894_" d="M323.2,119.2c-0.2,0-0.2,0.1-0.2,0.2v6.8c0,0.2,0.1,0.3,0.2,0.4c1.8,0.6,4.4,0.9,7.8,0.9
			c0.5,0,1.9,0,4.1,0c0.5,0,1.1,0,1.7,0c3.3,0,5.8,0,7.5,0c0.3,0,0.6,0.1,0.7,0.4c0.1,0.2,0.1,0.3,0.1,0.5c0,0.1,0,0.2-0.1,0.4
			c-0.2,0.4-0.4,0.8-0.8,1c-0.3,0.2-0.7,0.4-1.1,0.4h-12.3c-3.9,0-7-0.4-9.2-1.2c-2.2-0.8-3.9-2.4-5.2-4.6c0,0-0.1-0.1-0.1-0.1
			s-0.1,0-0.1,0.1c-0.4,2.3-0.9,4.3-1.5,5.9c-0.1,0.3-0.4,0.5-0.7,0.6c-0.1,0-0.2,0-0.3,0c-0.2,0-0.4-0.1-0.6-0.2
			c-0.3-0.2-0.5-0.4-0.6-0.7c0-0.1-0.1-0.3-0.1-0.4c0-0.2,0-0.4,0.1-0.6c1.1-2.6,1.8-7.1,2-13.3c0-0.4,0.1-0.6,0.4-0.9
			c0.3-0.2,0.6-0.3,0.9-0.3c0.4,0,0.6,0.2,0.9,0.4c0.2,0.3,0.4,0.6,0.4,0.9c-0.1,1.4-0.1,2.6-0.2,3.5c0,0.2,0,0.3,0.1,0.5
			c0.7,2.3,1.8,4,3.1,5.2c0,0,0.1,0.1,0.1,0c0,0,0.1-0.1,0.1-0.1v-13.1c0-0.2-0.1-0.2-0.2-0.2h-6.1c-0.3,0-0.6-0.1-0.8-0.4
			c-0.2-0.2-0.4-0.5-0.4-0.8s0.1-0.6,0.4-0.8c0.2-0.2,0.5-0.4,0.8-0.4h5.4c0.2,0,0.3-0.1,0.3-0.2v-4c0-0.2-0.1-0.3-0.3-0.3h-4.5
			c-0.3,0-0.6-0.1-0.8-0.3c-0.2-0.2-0.3-0.5-0.3-0.8s0.1-0.6,0.3-0.8c0.2-0.2,0.5-0.3,0.8-0.3h4.5c0.2,0,0.3-0.1,0.3-0.3v-2.5
			c0-0.4,0.1-0.7,0.4-0.9s0.5-0.4,0.9-0.4s0.7,0.1,0.9,0.4c0.3,0.2,0.4,0.5,0.4,0.9v2.5c0,0.2,0.1,0.3,0.2,0.3h4.4
			c0.3,0,0.6,0.1,0.8,0.3c0.2,0.2,0.3,0.5,0.3,0.8s-0.1,0.6-0.3,0.8c-0.2,0.2-0.5,0.3-0.8,0.3h-4.4c-0.2,0-0.2,0.1-0.2,0.3v4
			c0,0.2,0.1,0.2,0.2,0.2h5.3c0.3,0,0.6,0.1,0.8,0.4c0.2,0.2,0.4,0.5,0.4,0.8s-0.1,0.6-0.4,0.8c-0.2,0.2-0.5,0.4-0.8,0.4h-4.7
			c-0.2,0-0.2,0.1-0.2,0.2v4.8c0,0.2,0.1,0.2,0.2,0.2h4.4c0.3,0,0.6,0.1,0.8,0.4c0.2,0.2,0.4,0.5,0.4,0.8s-0.1,0.6-0.4,0.8
			c-0.2,0.2-0.5,0.4-0.8,0.4H323.2z M340.7,109.8c0.2,0,0.3-0.1,0.3-0.3v-7c0-0.2-0.1-0.2-0.3-0.2h-9c-0.3,0-0.6-0.1-0.8-0.4
			c-0.2-0.2-0.4-0.5-0.4-0.8s0.1-0.6,0.4-0.8c0.2-0.2,0.5-0.4,0.8-0.4h9.8c0.6,0,1,0.2,1.5,0.6c0.4,0.4,0.6,0.9,0.6,1.5v9.8
			c0,0.4-0.1,0.7-0.4,0.9c-0.3,0.3-0.6,0.4-0.9,0.4h-0.5c-0.2,0-0.4-0.1-0.6-0.2c-0.2-0.2-0.2-0.3-0.2-0.6c0-0.1,0-0.1-0.1-0.1h-7.2
			c-0.2,0-0.2,0.1-0.2,0.3v9c0,0.6,0.1,1,0.3,1.1c0.2,0.2,0.8,0.2,1.6,0.2h5.9c0.7,0,1.1-0.2,1.4-0.7s0.4-1.5,0.5-3
			c0-0.3,0.1-0.5,0.4-0.6c0.3-0.1,0.5-0.2,0.8-0.1c0.4,0.2,0.6,0.4,0.8,0.7c0.2,0.3,0.3,0.5,0.3,0.8c0,1.9-0.4,3.3-1.2,4.2
			c-0.6,0.7-1.5,1.1-2.9,1.1h-6.3c-1.7,0-2.8-0.3-3.4-0.8s-0.9-1.5-0.9-3.1v-9.6c0-0.6,0.2-1.1,0.6-1.5c0.4-0.4,0.9-0.6,1.5-0.6
			H340.7z"/>
		<path id="XMLID_897_" d="M373.3,114.1c0.2-0.4,0.4-0.7,0.8-0.8c0.2-0.1,0.4-0.2,0.7-0.2c0.2,0,0.3,0,0.5,0.1
			c0.4,0.1,0.6,0.3,0.8,0.7c0.2,0.4,0.2,0.7,0,1.1c-1.3,2.9-3,5.4-5.1,7.6c-0.1,0.1-0.1,0.2,0,0.4c3.4,2.6,7.6,4.4,12.8,5.4
			c0.3,0.1,0.6,0.3,0.7,0.6c0,0.1,0.1,0.2,0.1,0.4c0,0.2-0.1,0.4-0.2,0.5c-0.3,0.4-0.6,0.7-1.1,0.9c-0.3,0.1-0.5,0.2-0.8,0.2
			c-0.1,0-0.3,0-0.4,0c-5.3-1.2-9.6-3.2-13.1-6.1c-0.1-0.1-0.3-0.1-0.4,0c-3.4,2.6-7.7,4.7-13.1,6.2c-0.2,0-0.3,0.1-0.5,0.1
			c-0.2,0-0.5-0.1-0.7-0.2c-0.4-0.2-0.7-0.4-1-0.8c-0.1-0.2-0.2-0.4-0.2-0.6c0-0.1,0-0.2,0.1-0.4c0.1-0.3,0.3-0.5,0.7-0.6
			c5.3-1.3,9.6-3.1,12.8-5.6c0.1-0.1,0.2-0.2,0-0.4c-2-2.2-3.6-4.7-4.9-7.5c-0.1-0.3-0.1-0.7,0-1c0.2-0.3,0.4-0.5,0.7-0.7
			c0.4-0.1,0.7-0.1,1.1,0.1c0.3,0.2,0.6,0.4,0.7,0.8c1.1,2.4,2.6,4.6,4.4,6.5c0.1,0.1,0.2,0.1,0.4,0
			C370.8,118.7,372.2,116.5,373.3,114.1z M383.1,102.8c0.4,0,0.7,0.1,0.9,0.4s0.4,0.6,0.4,0.9s-0.1,0.7-0.4,0.9s-0.5,0.4-0.9,0.4
			h-28.8c-0.4,0-0.7-0.1-0.9-0.4s-0.4-0.6-0.4-0.9s0.1-0.7,0.4-0.9s0.5-0.4,0.9-0.4H367c0.2,0,0.2-0.1,0.2-0.2v-3.1
			c0-0.4,0.1-0.7,0.4-0.9c0.3-0.3,0.6-0.4,0.9-0.4c0.4,0,0.7,0.1,0.9,0.4c0.3,0.3,0.4,0.6,0.4,0.9v3.1c0,0.2,0.1,0.2,0.2,0.2H383.1z
			 M361.3,107.7c0.3-0.3,0.6-0.6,1.1-0.7c0.2,0,0.3-0.1,0.5-0.1c0.2,0,0.4,0,0.7,0.1c0.4,0.1,0.6,0.4,0.7,0.7c0.1,0.4,0,0.7-0.2,0.9
			c-2.1,2.5-4.7,4.8-7.8,7c-0.3,0.2-0.6,0.3-0.9,0.3c-0.1,0-0.2,0-0.2,0c-0.4,0-0.8-0.2-1.1-0.6c-0.3-0.3-0.4-0.6-0.3-0.9
			s0.2-0.6,0.5-0.8C357,111.9,359.4,109.9,361.3,107.7z M374,108.8c-0.3-0.2-0.4-0.5-0.4-0.8s0.1-0.6,0.4-0.8
			c0.3-0.2,0.7-0.4,1.1-0.4h0c0.4,0,0.7,0.1,1.1,0.3c3.1,2.2,5.6,4.2,7.5,6.1c0.3,0.3,0.4,0.6,0.4,0.9c0,0.4-0.2,0.8-0.6,1.1
			c-0.3,0.2-0.6,0.3-0.9,0.3c-0.1,0-0.1,0-0.2,0c-0.4,0-0.8-0.2-1.1-0.5C379.5,113.1,377,111,374,108.8z"/>
		<path id="XMLID_903_" d="M397.6,112.3c0.6,0,1.1,0.2,1.5,0.6c0.4,0.4,0.6,0.9,0.6,1.5v9.2c0,0.2,0,0.3,0.1,0.5
			c1.7,2.4,4.6,3.7,8.9,3.8c1.8,0.1,3.6,0.1,5.6,0.1c2.9,0,6-0.1,9.4-0.2c0.3,0,0.6,0.1,0.8,0.4c0.1,0.2,0.2,0.4,0.2,0.6
			c0,0.1,0,0.2,0,0.3c-0.1,0.4-0.4,0.7-0.7,1s-0.7,0.4-1,0.4c-2.9,0.1-5.6,0.1-8.1,0.1c-2.3,0-4.3,0-6.2-0.1
			c-2.3-0.1-4.3-0.4-5.9-1.1c-1.6-0.7-3-1.7-4.1-3c-0.1-0.1-0.2-0.1-0.4,0c-1.5,1.3-3,2.5-4.4,3.6c-0.3,0.2-0.6,0.3-1,0.2
			c-0.4-0.1-0.6-0.3-0.8-0.6c-0.1-0.2-0.2-0.5-0.2-0.7c0-0.2,0-0.3,0.1-0.5c0.1-0.4,0.3-0.7,0.7-0.9c1.3-0.9,2.7-1.9,4.2-3.1
			c0.1-0.1,0.2-0.3,0.2-0.4v-8.7c0-0.2-0.1-0.3-0.3-0.3h-3.7c-0.4,0-0.7-0.1-0.9-0.4s-0.4-0.5-0.4-0.9s0.1-0.7,0.4-0.9
			s0.5-0.4,0.9-0.4H397.6z M399.7,103.7c0.2,0.3,0.3,0.6,0.3,1s-0.2,0.7-0.5,0.9s-0.6,0.4-0.9,0.3c-0.3,0-0.6-0.2-0.9-0.5
			c-1.1-1.4-2.5-2.8-4.2-4.1c-0.3-0.2-0.4-0.4-0.4-0.8c0-0.3,0.1-0.6,0.3-0.8c0.3-0.2,0.6-0.4,0.9-0.4c0,0,0,0,0.1,0
			c0.4,0,0.7,0.1,0.9,0.3C397.1,101.1,398.6,102.4,399.7,103.7z M406.2,119.7c-0.2,0-0.3,0.1-0.3,0.3v4.4c0,0.4-0.1,0.7-0.4,0.9
			s-0.5,0.4-0.9,0.4c-0.3,0-0.6-0.1-0.9-0.4s-0.4-0.5-0.4-0.9v-15.2c0-0.6,0.2-1.1,0.6-1.5c0.4-0.4,0.9-0.6,1.5-0.6h7.9
			c0,0,0,0,0.1-0.1c0,0,0-0.1,0-0.1c-2-1-3.8-1.8-5.6-2.5c-0.2-0.1-0.4-0.3-0.4-0.5c0-0.2,0-0.5,0.2-0.7c0.4-0.3,0.8-0.5,1.2-0.5
			c0.2,0,0.4,0,0.7,0.1c1,0.4,2.3,0.9,3.7,1.5c0.2,0.1,0.3,0.1,0.5,0c1.5-0.7,3-1.5,4.5-2.6c0,0,0-0.1,0-0.1c0,0,0-0.1-0.1-0.1
			h-13.7c-0.3,0-0.6-0.1-0.8-0.3c-0.2-0.2-0.3-0.4-0.3-0.7s0.1-0.5,0.3-0.8c0.2-0.2,0.5-0.3,0.8-0.3h16.5c0,0,0.1,0,0.1,0
			c0.3-0.1,0.6,0,0.8,0.2l0.5,0.4c0.2,0.2,0.4,0.4,0.4,0.7c0,0.3-0.1,0.5-0.3,0.7c-1.8,1.5-3.9,2.9-6.3,4.1c0,0-0.1,0.1-0.1,0.1
			s0,0.1,0.1,0.1c0.7,0.3,1.4,0.7,2.3,1.2c0.2,0.1,0.3,0.1,0.5,0.1h2.2c0.6,0,1,0.2,1.5,0.6c0.4,0.4,0.6,0.9,0.6,1.5V123
			c0,0.7-0.1,1.2-0.3,1.5s-0.5,0.6-1,0.8c-0.6,0.2-1.9,0.4-3.7,0.4c-0.3,0-0.6-0.1-0.9-0.3c-0.3-0.2-0.5-0.5-0.6-0.8
			c-0.1-0.3,0-0.5,0.1-0.7s0.3-0.3,0.6-0.3c0,0,0.9,0,2.5,0c0.2,0,0.4,0,0.5-0.1c0.1-0.1,0.1-0.3,0.1-0.5v-3c0-0.2-0.1-0.3-0.2-0.3
			h-5.7c-0.2,0-0.3,0.1-0.3,0.3v4.4c0,0.3-0.1,0.6-0.4,0.8c-0.2,0.2-0.5,0.4-0.8,0.4c-0.3,0-0.6-0.1-0.9-0.4s-0.4-0.5-0.4-0.8V120
			c0-0.2-0.1-0.3-0.2-0.3H406.2z M411.9,109.5c0-0.2-0.1-0.3-0.2-0.3h-5.5c-0.2,0-0.3,0.1-0.3,0.3v2.6c0,0.2,0.1,0.2,0.3,0.2h5.5
			c0.2,0,0.2-0.1,0.2-0.2V109.5z M405.9,117.4c0,0.2,0.1,0.3,0.3,0.3h5.5c0.2,0,0.2-0.1,0.2-0.3v-2.7c0-0.2-0.1-0.2-0.2-0.2h-5.5
			c-0.2,0-0.3,0.1-0.3,0.2V117.4z M420.4,112.4c0.2,0,0.2-0.1,0.2-0.2v-2.6c0-0.2-0.1-0.3-0.2-0.3h-5.7c-0.2,0-0.3,0.1-0.3,0.3v2.6
			c0,0.2,0.1,0.2,0.3,0.2H420.4z M414.4,117.4c0,0.2,0.1,0.3,0.3,0.3h5.7c0.2,0,0.2-0.1,0.2-0.3v-2.7c0-0.2-0.1-0.2-0.2-0.2h-5.7
			c-0.2,0-0.3,0.1-0.3,0.2V117.4z"/>
		<path id="XMLID_914_" d="M463.1,118.7c0.3,0,0.5,0.1,0.7,0.3s0.3,0.4,0.3,0.7s-0.1,0.5-0.3,0.8s-0.5,0.3-0.7,0.3h-2.4
			c-0.2,0-0.3,0.1-0.3,0.3v4.7c0,0.4-0.1,0.7-0.4,0.9s-0.6,0.4-0.9,0.4s-0.7-0.1-0.9-0.4s-0.4-0.6-0.4-0.9v-0.1
			c0-0.1-0.1-0.2-0.2-0.2h-8.2c-0.2,0-0.2,0.1-0.2,0.3v2.2c0,0.8-0.1,1.4-0.4,1.8s-0.7,0.7-1.2,0.9c-0.8,0.3-2.4,0.4-4.8,0.4
			c-0.3,0-0.6-0.1-0.9-0.3s-0.5-0.5-0.7-0.8c-0.1-0.3-0.1-0.5,0.1-0.7s0.4-0.4,0.6-0.4c0.2,0,1.4,0,3.7,0c0.4,0,0.6-0.1,0.7-0.2
			s0.2-0.3,0.2-0.7v-2.2c0-0.2-0.1-0.3-0.2-0.3h-10.4c-0.3,0-0.5-0.1-0.7-0.3c-0.2-0.2-0.3-0.4-0.3-0.7s0.1-0.5,0.3-0.7
			c0.2-0.2,0.4-0.3,0.7-0.3h10.4c0.2,0,0.2-0.1,0.2-0.3v-2.1c0-0.2-0.1-0.3-0.2-0.3h-13.4c-0.3,0-0.5-0.1-0.7-0.3s-0.3-0.5-0.3-0.8
			s0.1-0.5,0.3-0.7s0.5-0.3,0.7-0.3h13.4c0.2,0,0.2-0.1,0.2-0.3v-2c0-0.2-0.1-0.2-0.2-0.2h-10.1c-0.3,0-0.5-0.1-0.7-0.3
			c-0.2-0.2-0.3-0.4-0.3-0.7s0.1-0.5,0.3-0.7c0.2-0.2,0.4-0.3,0.7-0.3h10.1c0.2,0,0.2-0.1,0.2-0.3v-2c0-0.2-0.1-0.2-0.2-0.2h-8
			c-0.6,0-1-0.2-1.5-0.6c-0.4-0.4-0.6-0.9-0.6-1.5v-2.2c0-0.6,0.2-1.1,0.6-1.5c0.4-0.4,0.9-0.6,1.5-0.6h8c0.2,0,0.2-0.1,0.2-0.3
			v-1.5c0-0.2-0.1-0.3-0.2-0.3h-12.7c-0.3,0-0.6-0.1-0.8-0.3s-0.3-0.5-0.3-0.8s0.1-0.6,0.3-0.8s0.5-0.3,0.8-0.3h12.7
			c0.2,0,0.2-0.1,0.2-0.3v-1.3c0-0.4,0.1-0.7,0.4-0.9s0.6-0.4,0.9-0.4s0.7,0.1,0.9,0.4s0.4,0.6,0.4,0.9v1.3c0,0.2,0.1,0.3,0.2,0.3
			h13c0.3,0,0.6,0.1,0.8,0.3s0.3,0.5,0.3,0.8s-0.1,0.6-0.3,0.8s-0.5,0.3-0.8,0.3h-13c-0.2,0-0.2,0.1-0.2,0.3v1.5
			c0,0.2,0.1,0.3,0.2,0.3h8.4c0.6,0,1,0.2,1.5,0.6s0.6,0.9,0.6,1.5v2.2c0,0.6-0.2,1-0.6,1.5s-0.9,0.6-1.5,0.6h-8.4
			c-0.2,0-0.2,0.1-0.2,0.2v2c0,0.2,0.1,0.3,0.2,0.3h9c0.6,0,1.1,0.2,1.5,0.6s0.6,0.9,0.6,1.5v2.1c0,0.2,0.1,0.3,0.3,0.3H463.1z
			 M438.7,109.6c0,0.2,0.1,0.3,0.2,0.3h7.2c0.2,0,0.2-0.1,0.2-0.3v-2.1c0-0.2-0.1-0.2-0.2-0.2H439c-0.2,0-0.2,0.1-0.2,0.2V109.6z
			 M457.2,107.5c0-0.2-0.1-0.2-0.2-0.2h-7.6c-0.2,0-0.2,0.1-0.2,0.2v2.1c0,0.2,0.1,0.3,0.2,0.3h7.6c0.2,0,0.2-0.1,0.2-0.3V107.5z
			 M449.4,116.2c-0.2,0-0.2,0.1-0.2,0.2v2c0,0.2,0.1,0.3,0.2,0.3h8.1c0.2,0,0.3-0.1,0.3-0.3v-2c0-0.2-0.1-0.2-0.3-0.2H449.4z
			 M457.5,123.5c0.2,0,0.3-0.1,0.3-0.3v-2.1c0-0.2-0.1-0.3-0.3-0.3h-8.1c-0.2,0-0.2,0.1-0.2,0.3v2.1c0,0.2,0.1,0.3,0.2,0.3H457.5z"
			/>
		<path id="XMLID_920_" d="M503.5,105.2c0.2,0.3,0.4,0.6,0.4,0.9s-0.1,0.7-0.4,0.9s-0.5,0.4-0.9,0.4h-1.1c-0.2,0-0.3,0.1-0.3,0.2
			c-1,5.8-2.6,10.5-4.8,14.1c-0.1,0.2-0.1,0.3,0,0.5c1.8,2.6,4,4.6,6.4,6c0.3,0.2,0.5,0.5,0.5,0.8c0.1,0.4,0,0.7-0.3,0.9
			c-0.3,0.3-0.6,0.5-1,0.6c-0.1,0-0.3,0.1-0.4,0.1c-0.3,0-0.5-0.1-0.8-0.2c-2.4-1.5-4.5-3.4-6.2-6c-0.1-0.1-0.2-0.1-0.3,0
			c-2.1,2.5-4.7,4.5-7.9,6.1c-0.2,0.1-0.4,0.1-0.6,0.1c-0.2,0-0.3,0-0.5-0.1c-0.4-0.1-0.7-0.4-0.9-0.7c-0.2-0.3-0.2-0.6-0.1-1
			c0.1-0.3,0.3-0.6,0.6-0.8c3.3-1.5,6-3.5,8-6.1c0.1-0.1,0.1-0.3,0-0.5c-1.5-2.9-2.8-6.2-3.7-10c0,0,0-0.1-0.1-0.1c0,0-0.1,0-0.1,0
			c-0.5,0.9-1,1.8-1.5,2.6c-0.2,0.3-0.6,0.5-1,0.6c-0.1,0-0.1,0-0.2,0c-0.4,0-0.7-0.1-0.9-0.4c0,0-0.1,0-0.1,0s-0.1,0-0.1,0.1v10.4
			c0,0.6-0.2,1.1-0.6,1.5c-0.4,0.4-0.9,0.6-1.5,0.6h-7.9c-0.2,0-0.2,0.1-0.2,0.3v1c0,0.4-0.1,0.7-0.4,0.9s-0.5,0.4-0.9,0.4
			c-0.3,0-0.6-0.1-0.9-0.4s-0.4-0.5-0.4-0.9v-12c0-0.6,0.2-1.1,0.6-1.5c0.4-0.4,0.9-0.6,1.5-0.6h2.7c0.2,0,0.2-0.1,0.2-0.3v-6
			c0-0.2-0.1-0.3-0.2-0.3h-5.1c-0.4,0-0.7-0.1-0.9-0.4s-0.4-0.5-0.4-0.9s0.1-0.6,0.4-0.9s0.5-0.4,0.9-0.4h5.1c0.2,0,0.2-0.1,0.2-0.3
			v-5.4c0-0.4,0.1-0.7,0.4-0.9c0.3-0.3,0.6-0.4,0.9-0.4c0.4,0,0.7,0.1,0.9,0.4c0.3,0.3,0.4,0.6,0.4,0.9v5.4c0,0.2,0.1,0.3,0.3,0.3
			h4.9c0.4,0,0.7,0.1,0.9,0.4s0.4,0.5,0.4,0.9s-0.1,0.6-0.4,0.9s-0.5,0.4-0.9,0.4h-4.9c-0.2,0-0.3,0.1-0.3,0.3v6
			c0,0.2,0.1,0.3,0.3,0.3h4.5c0,0,0,0,0.1,0c0,0,0,0,0,0c-0.2-0.1-0.3-0.3-0.3-0.5s0-0.4,0.2-0.6c2.4-3.1,4.2-7.6,5.5-13.5
			c0.1-0.4,0.3-0.6,0.6-0.9c0.3-0.2,0.6-0.3,1-0.2c0.4,0.1,0.7,0.3,0.9,0.6s0.3,0.6,0.2,1c-0.3,1.6-0.7,3.1-1.2,4.6
			c0,0.1,0,0.1,0,0.2c0,0,0.1,0.1,0.1,0.1h10.5C503,104.8,503.3,104.9,503.5,105.2z M482.6,124.5c0.2,0,0.3-0.1,0.3-0.2V117
			c0-0.2-0.1-0.3-0.3-0.3h-7.2c-0.2,0-0.2,0.1-0.2,0.3v7.2c0,0.2,0.1,0.2,0.2,0.2H482.6z M491.1,107.3c-0.1,0-0.1,0-0.1,0.1
			c0,0,0,0.1,0,0.1c0.8,4.5,2,8.4,3.7,11.6c0,0.1,0.1,0.1,0.1,0.1c0,0,0.1,0,0.1-0.1c1.6-3,2.8-6.9,3.6-11.5c0-0.2,0-0.2-0.2-0.2
			H491.1z"/>
		<path id="XMLID_941_" d="M515.7,131.8c-0.1,0-0.3,0.1-0.4,0.1s-0.3,0-0.4-0.1c-0.3-0.1-0.5-0.3-0.6-0.6c-0.1-0.1-0.1-0.2-0.1-0.4
			s0-0.3,0.1-0.4c0.1-0.3,0.3-0.5,0.6-0.6c2.2-1.1,3.4-2.6,3.6-4.6c0-0.1,0-0.1-0.1-0.2s-0.1-0.1-0.2,0c-0.1,0-0.2,0-0.4,0
			c-0.8,0-1.4-0.2-1.9-0.7s-0.8-1.1-0.8-1.9s0.3-1.5,0.8-1.9s1.2-0.7,2-0.7c1,0,1.7,0.4,2.3,1.1s0.8,1.8,0.8,3
			c0,1.8-0.5,3.3-1.4,4.7C518.6,130,517.3,131,515.7,131.8z"/>
		<path id="XMLID_943_" d="M556.1,112.3c0.6,0,1.1,0.2,1.5,0.6c0.4,0.4,0.6,0.9,0.6,1.5v9.1c0,0.2,0.1,0.4,0.2,0.5
			c1.6,2.4,4.5,3.6,8.8,3.8c1.6,0,3.4,0.1,5.1,0.1c3,0,6.2-0.1,9.6-0.2c0.3,0,0.6,0.1,0.8,0.4c0.1,0.2,0.2,0.3,0.2,0.5
			c0,0.1,0,0.2-0.1,0.4c-0.1,0.4-0.3,0.7-0.7,1c-0.3,0.3-0.7,0.4-1.1,0.4c-3,0.1-5.6,0.1-8.1,0.1c-2.1,0-4.1,0-5.8-0.1
			c-2.3-0.1-4.3-0.4-5.9-1.1s-3-1.6-4.1-3c-0.1-0.1-0.2-0.1-0.4,0c-1.5,1.3-2.9,2.5-4,3.5c-0.3,0.3-0.7,0.3-1.1,0.3
			c-0.4-0.1-0.7-0.3-0.9-0.7c-0.1-0.3-0.2-0.5-0.2-0.8c0-0.1,0-0.3,0-0.4c0.1-0.4,0.4-0.8,0.7-1c1.3-0.9,2.7-2,4-3.1
			c0.1-0.1,0.2-0.3,0.2-0.4v-8.6c0-0.2-0.1-0.3-0.3-0.3h-3.5c-0.4,0-0.7-0.1-0.9-0.4s-0.4-0.5-0.4-0.9s0.1-0.7,0.4-0.9
			s0.5-0.4,0.9-0.4H556.1z M558.3,103.5c0.3,0.3,0.4,0.6,0.3,1s-0.2,0.7-0.5,0.9c-0.3,0.2-0.6,0.3-1,0.3c-0.4,0-0.7-0.2-0.9-0.5
			c-1.1-1.3-2.5-2.6-4.3-3.9c-0.3-0.2-0.4-0.4-0.4-0.7c0-0.3,0.1-0.6,0.4-0.8c0.3-0.2,0.6-0.4,1-0.4c0,0,0,0,0.1,0
			c0.4,0,0.7,0.1,0.9,0.3C555.7,101,557.1,102.3,558.3,103.5z M573.5,111.5c0-0.2-0.1-0.2-0.3-0.2h-6.8c-0.2,0-0.3,0.1-0.3,0.2
			c-0.3,5.3-1.7,9.5-4.1,12.6c-0.2,0.3-0.5,0.4-0.8,0.4c-0.3,0-0.6-0.1-0.9-0.4c-0.3-0.2-0.4-0.5-0.5-0.9c0-0.3,0-0.7,0.2-0.9
			c0.8-1,1.4-2.1,1.9-3.2c0.5-1.1,0.9-2.3,1.1-3.6c0.2-1.2,0.4-2.3,0.5-3.3c0.1-1,0.1-2.1,0.1-3.3v-6.4c0-0.5,0.2-0.9,0.6-1.2
			c0.3-0.2,0.6-0.4,0.9-0.4c0.1,0,0.2,0,0.4,0c0.1,0,0.3,0.1,0.5,0c4.8-0.7,8.5-1.5,11.1-2.2c0.3-0.1,0.6-0.1,0.9-0.1
			c0.6,0,1.2,0.2,1.7,0.7c0.3,0.2,0.4,0.5,0.3,0.8s-0.3,0.5-0.6,0.6c-3.3,1-7.6,1.8-12.9,2.5c-0.2,0-0.2,0.1-0.2,0.3v4.9
			c0,0.2,0.1,0.3,0.2,0.3h15.1c0.4,0,0.7,0.1,0.9,0.4s0.4,0.5,0.4,0.9s-0.1,0.6-0.4,0.9s-0.5,0.4-0.9,0.4h-5.1
			c-0.2,0-0.3,0.1-0.3,0.2v13.2c0,0.4-0.1,0.7-0.4,0.9c-0.3,0.3-0.6,0.4-0.9,0.4c-0.4,0-0.7-0.1-0.9-0.4c-0.3-0.3-0.4-0.6-0.4-0.9
			V111.5z"/>
		<path id="XMLID_947_" d="M598.9,126.6c0,0.5-0.2,0.9-0.5,1.2c-0.3,0.3-0.8,0.5-1.2,0.5c-0.5,0-0.9-0.2-1.2-0.5
			c-0.3-0.3-0.5-0.7-0.5-1.1c0-3.8,0.7-7.7,2-11.9c1.1-3.3,2.8-6.6,5.1-9.9c0,0,0.1-0.1,0-0.1c0,0-0.1-0.1-0.1-0.1h-11.1
			c-0.4,0-0.7-0.1-1-0.4s-0.4-0.6-0.4-1s0.1-0.7,0.4-1s0.6-0.4,1-0.4h14.1c0.3,0,0.5,0.1,0.7,0.3c0.2,0.2,0.3,0.4,0.3,0.7
			c0,0.6-0.2,1.2-0.6,1.8c-2.5,3.4-4.3,6.7-5.3,9.9C599.7,117.8,599.1,121.8,598.9,126.6z"/>
		<path id="XMLID_949_" d="M640.6,111c0.1-0.4,0.4-0.7,0.7-0.8s0.7-0.2,1.1-0.1c0.4,0.1,0.6,0.3,0.8,0.6s0.2,0.7,0.1,1
			c-1.5,4.1-3.4,7.6-5.7,10.7c-0.1,0.1-0.1,0.3-0.1,0.5c1.4,3.6,3,5.3,4.7,5.3c0.4,0,0.8-0.4,1-1.2s0.4-2.2,0.6-4.1
			c0-0.3,0.2-0.4,0.4-0.6s0.5-0.1,0.7,0c0.8,0.5,1.1,1.1,1.1,1.8c0,0.1,0,0.1,0,0.2c-0.3,2.5-0.7,4.2-1.3,5.1s-1.5,1.4-2.8,1.4
			c-2.6,0-4.7-1.9-6.5-5.7c-0.1-0.2-0.2-0.2-0.3-0.1c-1.8,1.9-3.8,3.6-6,5c-0.3,0.2-0.6,0.2-0.8,0.2c-0.1,0-0.2,0-0.3,0
			c-0.4-0.1-0.7-0.3-1-0.6c-0.3-0.3-0.4-0.6-0.3-0.9s0.2-0.6,0.5-0.8c2.6-1.6,4.9-3.5,6.9-5.8c0.1-0.1,0.2-0.3,0.1-0.4
			c-1.2-3.8-2-8.7-2.5-14.7c0-0.2-0.1-0.2-0.3-0.2h-11.9c-0.2,0-0.2,0.1-0.2,0.2v4.1c0,0.2,0.1,0.3,0.2,0.3h6.9
			c0.6,0,1.1,0.2,1.5,0.6s0.6,0.9,0.6,1.4c0,2.9-0.1,5.6-0.4,8.1c-0.2,1.6-0.4,2.6-0.8,3.1c-0.5,0.6-1.2,0.9-2.1,1
			c-0.5,0-1.1,0.1-1.8,0.1c-0.4,0-0.7,0-1.2,0c-0.4,0-0.7-0.2-1-0.4s-0.5-0.6-0.6-0.9c-0.1-0.3-0.1-0.5,0.1-0.8s0.4-0.4,0.7-0.4
			c1,0.1,1.8,0.1,2.5,0.1c0.5,0,0.9-0.1,1.1-0.4c0.2-0.3,0.4-1,0.5-2.3s0.2-3.4,0.3-6.5c0-0.2-0.1-0.2-0.2-0.2h-6
			c-0.2,0-0.2,0.1-0.2,0.2v0c0,6.8-1,12.1-3,15.7c-0.2,0.3-0.5,0.5-0.8,0.5s-0.7-0.1-1-0.3s-0.5-0.6-0.6-0.9c0-0.1,0-0.2,0-0.4
			c0-0.3,0.1-0.5,0.2-0.7c1.7-3.2,2.5-7.8,2.5-14v-8c0-0.6,0.2-1,0.6-1.5s0.9-0.6,1.5-0.6h12.7c0.2,0,0.2-0.1,0.2-0.2
			c-0.1-1.2-0.2-2.6-0.2-4.4c0-0.4,0.1-0.7,0.4-1s0.6-0.4,1-0.4s0.7,0.1,1,0.4s0.4,0.6,0.4,1c0,1.6,0.1,3.1,0.1,4.4
			c0,0.2,0.1,0.3,0.2,0.3h10.1c0.4,0,0.7,0.1,0.9,0.4s0.4,0.6,0.4,0.9s-0.1,0.7-0.4,0.9s-0.6,0.4-0.9,0.4h-9.8
			c-0.2,0-0.3,0.1-0.2,0.2c0.4,4.8,1,8.8,1.9,12c0,0,0.1,0.1,0.1,0.1s0.1,0,0.1-0.1C638.3,116.7,639.6,114,640.6,111z M637,100.5
			c-0.2-0.1-0.4-0.4-0.4-0.6s0-0.5,0.2-0.7c0.2-0.2,0.5-0.4,0.8-0.4s0.6,0,0.9,0.2c1.7,0.9,3.2,1.9,4.5,2.8c0.3,0.2,0.4,0.5,0.5,0.8
			s-0.1,0.6-0.3,0.9s-0.5,0.4-0.9,0.4s-0.7-0.1-0.9-0.3C640.1,102.5,638.6,101.5,637,100.5z"/>
		<path id="XMLID_952_" d="M658,120.1c0,0.2,0,0.3,0.2,0.3h6.2c0.6,0,1,0.2,1.4,0.6c0.3,0.4,0.5,0.8,0.5,1.3c0,0,0,0.1,0,0.2
			c-0.2,2.4-0.5,4.2-0.7,5.3c-0.3,1.1-0.6,1.9-1,2.4c-0.5,0.5-1.3,0.8-2.4,0.9c-0.4,0-0.9,0-1.4,0c-0.7,0-1.4,0-2.2,0
			c-0.3,0-0.6-0.1-0.9-0.4c-0.3-0.2-0.4-0.5-0.6-0.9c-0.1-0.2-0.1-0.5,0.1-0.7s0.3-0.3,0.6-0.3c1.2,0.1,2.4,0.1,3.4,0.1
			c0.7,0,1.1-0.1,1.3-0.3c0.5-0.5,1-2.4,1.3-5.8c0-0.2-0.1-0.3-0.2-0.3h-6c-0.1,0-0.1,0-0.1,0.1c0,0.3-0.2,0.5-0.4,0.6
			c-0.2,0.1-0.5,0.2-0.7,0.1l-0.2,0c-0.3,0-0.5-0.2-0.7-0.5c-0.2-0.3-0.2-0.5-0.1-0.8c0.4-1.6,0.8-3.2,1.1-5
			c0.1-0.6,0.4-1.1,0.9-1.5s1-0.6,1.6-0.6h4.9c0.2,0,0.2-0.1,0.2-0.2v-3.2c0-0.2-0.1-0.2-0.2-0.2H658c-0.2,0-0.3-0.1-0.3-0.3
			c0,0,0,0,0,0c-0.8,0.4-1.6,0.8-2.5,1.1c-0.3,0.1-0.7,0.1-1,0c-0.3-0.1-0.6-0.3-0.8-0.6c-0.1-0.2-0.2-0.3-0.2-0.5
			c0-0.1,0-0.2,0-0.2c0.1-0.3,0.2-0.5,0.5-0.6c2-0.7,3.9-1.7,5.6-2.8c0.2-0.1,0.2-0.2,0-0.3c-0.8-0.8-1.7-1.5-2.9-2.4
			c-0.2-0.1-0.4-0.3-0.4-0.6s0.1-0.5,0.3-0.7c0.2-0.2,0.5-0.3,0.8-0.4c0.3,0,0.6,0,0.9,0.2c1.3,0.8,2.3,1.7,3.2,2.5
			c0.1,0.1,0.3,0.1,0.4,0c1.2-1.1,2.2-2.2,3.1-3.4c0,0,0-0.1,0-0.2c0-0.1-0.1-0.1-0.1-0.1h-7c-0.3,0-0.6-0.1-0.8-0.3
			c-0.2-0.2-0.3-0.5-0.3-0.8s0.1-0.6,0.3-0.8c0.2-0.2,0.5-0.3,0.8-0.3h8.6c0,0,0.1,0,0.1,0c0.3-0.1,0.5,0,0.8,0.1l0.5,0.2
			c0.2,0.1,0.4,0.3,0.5,0.5c0.1,0.2,0.1,0.5-0.1,0.7c-1.5,2.9-3.8,5.5-7,7.6c0,0,0,0.1,0,0.1c0,0,0,0.1,0.1,0.1h3.2
			c0.6,0,1,0.2,1.5,0.6c0.4,0.4,0.6,0.9,0.6,1.5v5.3c0,0.3-0.1,0.6-0.4,0.8c-0.2,0.2-0.5,0.4-0.8,0.4h-0.6c-0.2,0-0.3-0.1-0.4-0.2
			c-0.1-0.1-0.2-0.2-0.2-0.4c0-0.1,0-0.1-0.1-0.1h-5c-0.2,0-0.3,0.1-0.3,0.3C658.2,119,658.1,120,658,120.1z M680.5,119.3
			c0.3-0.1,0.5-0.1,0.7,0l0.4,0.2c0.2,0.1,0.3,0.2,0.4,0.4c0.1,0.2,0.1,0.4,0,0.6c-0.9,2.3-2.4,4.3-4.3,5.9c-0.1,0.1-0.1,0.2,0,0.3
			c1.8,0.9,3.7,1.5,5.9,1.9c0.3,0,0.5,0.2,0.6,0.5s0.1,0.5-0.1,0.8c-0.2,0.4-0.5,0.6-0.9,0.8c-0.2,0.1-0.5,0.1-0.7,0.1
			c-0.1,0-0.3,0-0.4,0c-2.4-0.6-4.6-1.4-6.4-2.6c-0.1-0.1-0.3-0.1-0.4,0c-1.9,1.1-4,1.9-6.5,2.6c-0.1,0-0.2,0-0.4,0
			c-0.2,0-0.4,0-0.6-0.1c-0.3-0.1-0.5-0.4-0.7-0.7c-0.1-0.1-0.1-0.2-0.1-0.4c0-0.1,0-0.2,0.1-0.3c0.1-0.3,0.3-0.4,0.5-0.5
			c2.2-0.5,4.1-1.2,5.8-2.1c0.2-0.1,0.2-0.2,0-0.3c-1.2-1.1-2.2-2.3-3-3.6c-0.2-0.3-0.2-0.6,0-0.9s0.4-0.5,0.7-0.6c0,0,0,0,0,0
			s0,0,0,0h-1.6c-0.3,0-0.5-0.1-0.7-0.3c-0.2-0.2-0.3-0.4-0.3-0.7s0.1-0.5,0.3-0.7c0.2-0.2,0.4-0.3,0.7-0.3h10.9
			C680.4,119.3,680.4,119.3,680.5,119.3z M682.1,102.8c0.2-0.2,0.5-0.4,0.9-0.4s0.7,0.1,0.9,0.2c0.3,0.2,0.4,0.4,0.4,0.7
			c0,0.3-0.1,0.6-0.3,0.8c-1.3,1.1-2.6,2.1-3.9,3c0,0-0.1,0.1-0.1,0.1s0,0.1,0.1,0.2c1.5,0.8,3,1.5,4.6,2c0.3,0.1,0.5,0.3,0.6,0.6
			c0,0.1,0,0.2,0,0.3c0,0.2-0.1,0.4-0.2,0.5c-0.3,0.3-0.6,0.6-0.9,0.7c-0.2,0.1-0.4,0.1-0.6,0.1c-0.2,0-0.4,0-0.5-0.1
			c-1.3-0.5-2.5-1-3.7-1.7c0,0-0.1,0-0.1,0c0,0-0.1,0.1-0.1,0.1v4.6c0,0.5,0.1,0.8,0.2,0.9c0.1,0.1,0.3,0.1,0.6,0.1h1.1
			c0.2,0,0.4,0,0.5,0c0.2,0,0.3-0.1,0.5-0.2c0.1-0.1,0.2-0.2,0.2-0.4c0-0.1,0-0.4,0.1-0.8c0-0.2,0.1-0.4,0.4-0.5s0.4-0.1,0.6,0
			c0.6,0.3,0.9,0.7,0.9,1.3c0,0.1,0,0.1,0,0.2c-0.1,0.6-0.2,1.1-0.3,1.3c-0.2,0.4-0.6,0.6-1.1,0.8c-0.4,0.1-0.9,0.2-1.6,0.2h-1.8
			c-0.9,0-1.5-0.2-2-0.6c-0.4-0.4-0.6-1.3-0.6-2.7v-3c0-0.2-0.1-0.2-0.2-0.2h-4.4c-0.2,0-0.2,0.1-0.2,0.2v0.4c0,2.6-1,4.7-2.9,6.2
			c-0.2,0.2-0.5,0.2-0.7,0.2c-0.1,0-0.1,0-0.2,0c-0.3,0-0.6-0.2-0.9-0.4c-0.2-0.2-0.3-0.4-0.3-0.7c0-0.3,0.1-0.6,0.4-0.8
			c1.5-1.1,2.3-2.7,2.3-4.6V111c0-0.6,0.2-1,0.6-1.5c0.4-0.4,0.9-0.6,1.5-0.6h5.8c0,0,0.1,0,0.1-0.1c0,0,0-0.1-0.1-0.1
			c-3.5-2.3-6.1-5.3-7.9-8.9c-0.1-0.3-0.2-0.5,0-0.8c0.1-0.3,0.3-0.5,0.6-0.5c0.1,0,0.3-0.1,0.4-0.1c0.2,0,0.3,0,0.5,0.1
			c0.3,0.1,0.5,0.3,0.7,0.6c0.6,1.1,1.3,2.2,2.1,3.2c0.1,0.1,0.2,0.2,0.4,0c1.1-0.9,2.3-1.9,3.5-3.1c0.3-0.3,0.6-0.4,0.9-0.4
			c0.3,0,0.7,0.1,0.9,0.2c0.3,0.2,0.4,0.4,0.4,0.7c0,0.3-0.1,0.6-0.3,0.8c-1.2,1.1-2.6,2.1-4.1,3.2c-0.1,0.1-0.2,0.2,0,0.4
			c0.8,0.7,1.5,1.3,2.2,1.8c0.1,0.1,0.3,0.1,0.4,0C679.6,105.1,680.9,104,682.1,102.8z M679.1,121.4c0,0,0-0.1,0-0.2
			c0-0.1-0.1-0.1-0.1-0.1h-6.7c0,0-0.1,0-0.1,0.1s0,0.1,0,0.2c0.8,1.4,1.9,2.7,3.3,3.8c0.1,0.1,0.3,0.1,0.4,0
			C677.2,124.1,678.3,122.9,679.1,121.4z"/>
		<path id="XMLID_957_" d="M710.5,126.3c0,0.2,0.1,0.2,0.2,0.2h13c0.4,0,0.7,0.1,0.9,0.4s0.4,0.6,0.4,0.9c0,0.4-0.1,0.7-0.4,0.9
			s-0.6,0.4-0.9,0.4h-29.3c-0.4,0-0.7-0.1-0.9-0.4s-0.4-0.6-0.4-0.9c0-0.4,0.1-0.7,0.4-0.9s0.6-0.4,0.9-0.4h13
			c0.2,0,0.2-0.1,0.2-0.2v-8.6c0-0.2-0.1-0.2-0.2-0.2h-9.1c-0.4,0-0.7-0.1-0.9-0.4s-0.4-0.6-0.4-0.9s0.1-0.7,0.4-0.9
			s0.6-0.4,0.9-0.4h9.1c0.2,0,0.2-0.1,0.2-0.3v-7.3c0-0.2-0.1-0.3-0.2-0.3h-7.9c-0.2,0-0.3,0.1-0.4,0.2c-0.9,1.7-1.8,3.2-2.7,4.5
			c-0.2,0.3-0.6,0.5-1,0.5c-0.1,0-0.1,0-0.2,0c-0.3,0-0.6-0.1-0.9-0.3c-0.3-0.2-0.5-0.5-0.6-0.8s0-0.7,0.2-1c2.2-2.7,4-6.4,5.3-10.8
			c0.1-0.4,0.3-0.7,0.7-0.9s0.7-0.3,1.1-0.2c0.4,0.1,0.7,0.3,0.8,0.6s0.2,0.7,0.1,1c-0.5,1.5-1,2.9-1.5,4.2c0,0.1,0,0.1,0,0.2
			s0.1,0.1,0.1,0.1h6.8c0.2,0,0.2-0.1,0.2-0.3v-5.3c0-0.4,0.1-0.7,0.4-1s0.6-0.4,1-0.4s0.7,0.1,1,0.4s0.4,0.6,0.4,1v5.3
			c0,0.2,0.1,0.3,0.2,0.3h11.4c0.4,0,0.7,0.1,0.9,0.4s0.4,0.6,0.4,0.9s-0.1,0.7-0.4,0.9s-0.6,0.4-0.9,0.4h-11.4
			c-0.2,0-0.2,0.1-0.2,0.3v7.3c0,0.2,0.1,0.3,0.2,0.3h10.1c0.4,0,0.7,0.1,0.9,0.4s0.4,0.6,0.4,0.9s-0.1,0.7-0.4,0.9
			s-0.5,0.4-0.9,0.4h-10.1c-0.2,0-0.2,0.1-0.2,0.2V126.3z"/>
		<path id="XMLID_959_" d="M745.9,103.5c0,0,0,0.1,0,0.2s0.1,0.1,0.2,0.1h17c0.4,0,0.7,0.1,0.9,0.4s0.4,0.5,0.4,0.9
			s-0.1,0.7-0.4,0.9s-0.5,0.4-0.9,0.4H745c-0.2,0-0.3,0.1-0.4,0.2c-1.3,2.6-2.6,4.9-4.1,6.9c-0.1,0.1-0.2,0.3-0.2,0.5v15.7
			c0,0.4-0.1,0.7-0.4,0.9s-0.6,0.4-0.9,0.4c-0.4,0-0.7-0.1-0.9-0.4c-0.3-0.3-0.4-0.6-0.4-0.9v-12.5c0,0,0-0.1-0.1-0.1
			c0,0-0.1,0-0.1,0c-0.9,0.9-1.8,1.8-2.9,2.6c-0.3,0.2-0.6,0.3-1,0.2c-0.3-0.1-0.6-0.3-0.8-0.6c-0.2-0.2-0.2-0.5-0.2-0.8
			c0-0.1,0-0.2,0-0.3c0.1-0.4,0.2-0.7,0.5-0.9c3.3-2.6,6.1-6.2,8.3-10.7c0,0,0-0.1,0-0.2s-0.1-0.1-0.1-0.1h-7.1
			c-0.4,0-0.7-0.1-0.9-0.4s-0.4-0.5-0.4-0.9s0.1-0.7,0.4-0.9s0.5-0.4,0.9-0.4h8.3c0.2,0,0.3-0.1,0.4-0.2c0.5-1.3,1-2.6,1.4-4
			c0.1-0.4,0.4-0.7,0.7-0.8c0.2-0.1,0.4-0.2,0.7-0.2c0.1,0,0.2,0,0.4,0.1c0.4,0.1,0.7,0.3,0.8,0.6c0.2,0.3,0.2,0.7,0.1,1.1
			C746.8,101.2,746.4,102.3,745.9,103.5z M755.1,117.6c-0.2,0-0.3,0.1-0.3,0.2v9.6c0,0.2,0.1,0.3,0.3,0.3h8c0.3,0,0.6,0.1,0.9,0.4
			c0.2,0.2,0.4,0.5,0.4,0.9s-0.1,0.6-0.4,0.9s-0.5,0.4-0.9,0.4h-19.1c-0.4,0-0.7-0.1-0.9-0.4s-0.4-0.5-0.4-0.9s0.1-0.6,0.4-0.9
			c0.2-0.2,0.5-0.4,0.9-0.4h7.9c0.2,0,0.2-0.1,0.2-0.3v-9.6c0-0.2-0.1-0.2-0.2-0.2h-6.5c-0.4,0-0.7-0.1-0.9-0.4s-0.4-0.5-0.4-0.9
			s0.1-0.7,0.4-0.9s0.5-0.4,0.9-0.4h6.5c0.2,0,0.2-0.1,0.2-0.2v-5.3c0-0.4,0.1-0.7,0.4-0.9c0.3-0.3,0.6-0.4,0.9-0.4
			c0.4,0,0.7,0.1,0.9,0.4c0.3,0.3,0.4,0.6,0.4,0.9v5.3c0,0.2,0.1,0.2,0.3,0.2h6.6c0.4,0,0.7,0.1,0.9,0.4s0.4,0.5,0.4,0.9
			s-0.1,0.7-0.4,0.9s-0.5,0.4-0.9,0.4H755.1z"/>
		<path id="XMLID_962_" d="M780,100.7c0.6,0,1,0.2,1.5,0.6s0.6,0.9,0.6,1.5v19.2c0,0.6-0.2,1.1-0.6,1.5s-0.9,0.6-1.5,0.6h-4.4
			c-0.2,0-0.3,0.1-0.3,0.3v1.5c0,0.3-0.1,0.6-0.3,0.8s-0.5,0.3-0.8,0.3s-0.6-0.1-0.8-0.3s-0.3-0.5-0.3-0.8v-23
			c0-0.6,0.2-1.1,0.6-1.5s0.9-0.6,1.5-0.6H780z M779.8,103.3c0-0.2-0.1-0.3-0.2-0.3h-3.9c-0.2,0-0.3,0.1-0.3,0.3v7.5
			c0,0.2,0.1,0.3,0.3,0.3h3.9c0.2,0,0.2-0.1,0.2-0.3V103.3z M775.3,121.3c0,0.2,0.1,0.3,0.3,0.3h3.9c0.2,0,0.2-0.1,0.2-0.3v-7.7
			c0-0.2-0.1-0.3-0.2-0.3h-3.9c-0.2,0-0.3,0.1-0.3,0.3V121.3z M795.6,109.5c0,0.2,0.1,0.3,0.2,0.3h7.8c0.3,0,0.5,0.1,0.7,0.3
			s0.3,0.4,0.3,0.7s-0.1,0.5-0.3,0.7s-0.4,0.3-0.7,0.3h-18.8c-0.3,0-0.5-0.1-0.7-0.3s-0.3-0.4-0.3-0.7s0.1-0.5,0.3-0.7
			s0.4-0.3,0.7-0.3h7.9c0.2,0,0.2-0.1,0.2-0.3v-1.9c0-0.2-0.1-0.3-0.2-0.3h-6.1c-0.3,0-0.5-0.1-0.7-0.3s-0.3-0.4-0.3-0.7
			s0.1-0.5,0.3-0.7s0.4-0.3,0.7-0.3h6.1c0.2,0,0.2-0.1,0.2-0.3v-1.7c0-0.2-0.1-0.3-0.2-0.3h-6.9c-0.3,0-0.5-0.1-0.7-0.3
			s-0.3-0.4-0.3-0.7s0.1-0.5,0.3-0.7s0.4-0.3,0.7-0.3h6.9c0.2,0,0.2-0.1,0.2-0.3v-1.3c0-0.4,0.1-0.7,0.4-0.9s0.6-0.4,0.9-0.4
			s0.7,0.1,0.9,0.4s0.4,0.6,0.4,0.9v1.3c0,0.2,0.1,0.3,0.2,0.3h7.1c0.3,0,0.5,0.1,0.7,0.3s0.3,0.4,0.3,0.7s-0.1,0.5-0.3,0.7
			s-0.4,0.3-0.7,0.3h-7.1c-0.2,0-0.2,0.1-0.2,0.3v1.7c0,0.2,0.1,0.3,0.2,0.3h6.5c0.3,0,0.5,0.1,0.7,0.3s0.3,0.4,0.3,0.7
			s-0.1,0.5-0.3,0.7s-0.4,0.3-0.7,0.3h-6.5c-0.2,0-0.2,0.1-0.2,0.3V109.5z M800.3,114c0.6,0,1.1,0.2,1.5,0.6s0.6,0.9,0.6,1.5v12.3
			c0,0.7-0.1,1.2-0.3,1.5s-0.5,0.6-0.9,0.8c-0.6,0.2-1.8,0.4-3.5,0.4c-0.3,0-0.6-0.1-0.9-0.3s-0.5-0.5-0.6-0.8
			c-0.1-0.3-0.1-0.5,0.1-0.7s0.4-0.3,0.7-0.3c0.7,0,1.5,0,2.3,0c0.2,0,0.4,0,0.5-0.1s0.1-0.2,0.1-0.4v-2.8c0-0.2-0.1-0.2-0.3-0.2
			h-10.5c-0.2,0-0.3,0.1-0.3,0.2v4.3c0,0.4-0.1,0.7-0.4,0.9s-0.5,0.4-0.9,0.4s-0.6-0.1-0.9-0.4s-0.4-0.5-0.4-0.9V116
			c0-0.6,0.2-1,0.6-1.5s0.9-0.6,1.5-0.6H800.3z M799.9,116.3c0-0.2-0.1-0.2-0.3-0.2h-10.5c-0.2,0-0.3,0.1-0.3,0.2v2.1
			c0,0.2,0.1,0.3,0.3,0.3h10.5c0.2,0,0.3-0.1,0.3-0.3V116.3z M788.8,123c0,0.2,0.1,0.3,0.3,0.3h10.5c0.2,0,0.3-0.1,0.3-0.3v-2.1
			c0-0.2-0.1-0.2-0.3-0.2h-10.5c-0.2,0-0.3,0.1-0.3,0.2V123z"/>
		<path id="XMLID_970_" d="M842.3,112.5c0.3,0.3,0.4,0.6,0.4,1s-0.1,0.7-0.4,1s-0.6,0.4-1,0.4h-11.2c-0.1,0-0.1,0-0.2,0.1
			s0,0.1,0,0.2c1.1,3.3,2.8,6.1,4.9,8.3s4.9,3.8,8.2,4.9c0.3,0.1,0.5,0.3,0.6,0.7c0,0.1,0,0.2,0,0.3c0,0.2-0.1,0.4-0.2,0.6
			c-0.3,0.4-0.6,0.6-1,0.8c-0.2,0.1-0.5,0.1-0.7,0.1s-0.4,0-0.6-0.1c-3.1-1.1-5.8-2.7-7.9-4.8s-3.8-4.8-5.1-7.9c0,0-0.1-0.1-0.1-0.1
			s-0.1,0-0.1,0.1c-0.8,2.7-2.3,5.1-4.4,7.2s-5.2,4-9.2,5.5c-0.2,0.1-0.4,0.1-0.5,0.1c-0.2,0-0.4,0-0.6-0.1
			c-0.4-0.1-0.7-0.4-0.9-0.7c-0.2-0.3-0.2-0.6-0.2-0.9s0.3-0.5,0.6-0.7c2.2-0.8,4.1-1.8,5.7-2.8s2.9-2.1,3.9-3.3s1.7-2.3,2.3-3.5
			s0.9-2.4,1.2-3.7c0-0.2,0-0.2-0.2-0.2h-11c-0.4,0-0.7-0.1-1-0.4s-0.4-0.6-0.4-1s0.1-0.7,0.4-1s0.6-0.4,1-0.4h11.2
			c0.2,0,0.3-0.1,0.3-0.2c0-0.4,0-1,0-1.8v-6.1c0-0.2-0.1-0.2-0.3-0.2h-12.4c-0.4,0-0.7-0.1-0.9-0.4s-0.4-0.6-0.4-1s0.1-0.7,0.4-1
			s0.6-0.4,0.9-0.4h28.7c0.4,0,0.7,0.1,0.9,0.4s0.4,0.6,0.4,1s-0.1,0.7-0.4,1s-0.6,0.4-0.9,0.4h-12.9c-0.2,0-0.2,0.1-0.2,0.2v6.1
			c0,0.8,0,1.4,0,1.8c0,0.2,0.1,0.2,0.2,0.2h12.1C841.7,112.1,842,112.2,842.3,112.5z"/>
		<path id="XMLID_972_" d="M856.5,119.5c1.5,0,2.8,0.5,3.9,1.6s1.6,2.4,1.6,3.9s-0.5,2.8-1.6,3.9c-1.1,1.1-2.4,1.6-3.9,1.6
			c-1.5,0-2.8-0.5-3.9-1.6c-1.1-1.1-1.6-2.4-1.6-3.9s0.5-2.8,1.6-3.9S855,119.5,856.5,119.5z M856.5,128.6c1,0,1.9-0.4,2.6-1.1
			c0.7-0.7,1.1-1.6,1.1-2.6c0-1-0.4-1.9-1.1-2.6s-1.6-1.1-2.6-1.1s-1.9,0.4-2.6,1.1s-1.1,1.6-1.1,2.6c0,1,0.4,1.9,1.1,2.6
			C854.6,128.3,855.4,128.6,856.5,128.6z"/>
	</g>
</g>
</svg>
